<?xml version="1.0" encoding="utf-8"?>
<!-- Generator: Adobe Illustrator 14.0.0, SVG Export Plug-In  -->
<!DOCTYPE svg PUBLIC "-//W3C//DTD SVG 1.1//EN" "http://www.w3.org/Graphics/SVG/1.1/DTD/svg11.dtd" [
	<!ENTITY ns_flows "http://ns.adobe.com/Flows/1.0/">
]>
<svg version="1.1"
	 xmlns="http://www.w3.org/2000/svg" xmlns:xlink="http://www.w3.org/1999/xlink" xmlns:a="http://ns.adobe.com/AdobeSVGViewerExtensions/3.0/"
	 x="0px" y="0px" width="300px" height="155px" viewBox="-86.8 15.9 300 155" enable-background="new -86.8 15.9 300 155"
	 xml:space="preserve">
<defs>
</defs>
<g>
	<path fill="#FFFFFF" d="M26,25.5h88.9c2.6,0,4.7,2.1,4.7,4.7v127.8c0,2.6-2.1,4.7-4.7,4.7H26c-2.6,0-4.7-2.1-4.7-4.7V30.2
		C21.4,27.6,23.4,25.5,26,25.5L26,25.5z M26,25.5"/>
	<path fill="none" stroke="#000000" stroke-width="0.7974" d="M26,25.5h88.9c2.6,0,4.7,2.1,4.7,4.7v127.8c0,2.6-2.1,4.7-4.7,4.7H26
		c-2.6,0-4.7-2.1-4.7-4.7V30.2C21.4,27.6,23.4,25.5,26,25.5L26,25.5z M26,25.5"/>
	<path d="M24.5,45.8v-1.2h1.2l2.5-12.9h1.4l2.7,12.9h0.9v1.2h-3.2v-1.2H31l-0.3-2h-3.3l-0.3,2H28v1.2H24.5z M30.3,41.2l-1.4-6.9
		l-1.3,6.9H30.3z M30.3,41.2"/>
	<path d="M116.4,142.5v1.2h-1.2l-2.5,12.9h-1.4l-2.7-12.9h-0.9v-1.2h3.2v1.2H110l0.3,2h3.2l0.3-2h-0.9v-1.2H116.4z M110.6,147
		l1.4,6.9l1.3-6.9H110.6z M110.6,147"/>
	<path d="M69.9,99.1c0-0.9-0.7-0.9-0.7-0.3c-0.1,3.3-2.8,4.9-4.8,4.5c-3.1-0.6-4.1-3.7-4.1-5.5c0.1-5.6,5.7-9.7,10.8-16.9
		c3.7,6.5,9.9,11.5,10.2,16.5c0.5,6.6-7.9,9.1-9.1,1.4c-0.1-0.5-0.7-0.8-0.7,0c0.2,2.1-0.1,3,2.3,8.2h-6.3
		C69,104.7,69.8,101.7,69.9,99.1L69.9,99.1z M69.9,99.1"/>
	<path d="M29.1,56.3c0-0.4-0.4-0.2-0.4-0.1c-0.5,0.9-1.3,1.1-2,0.8c-0.7-0.3-1.1-1-1.1-2c0.1-1.5,1.3-3.2,1.9-4.1
		c0.5-0.8,1.2-1.9,1.8-3.1c0.7,1.5,1.1,1.9,1.9,3.3c0.7,1.2,1.7,2.4,1.8,3.8c0,1.1-0.5,2.1-1.5,2.3c-0.6,0.1-1.1-0.2-1.5-0.9
		c-0.1-0.2-0.4-0.1-0.4,0.2c0.1,0.9,0.4,1.8,1.2,2.7h-3C28.4,58.4,29,57.4,29.1,56.3L29.1,56.3z M29.1,56.3"/>
	<path d="M112,132.2c0,0.4-0.4,0.2-0.4,0.1c-0.5-0.9-1.3-1.1-2-0.8c-0.7,0.3-1.1,1-1.1,2c0.1,1.5,1.3,3.2,1.9,4.1
		c0.6,0.9,1.2,1.9,1.8,3.1c0.7-1.5,1.1-1.9,1.9-3.3c0.7-1.2,1.7-2.4,1.8-3.8c0-1.1-0.5-2.1-1.5-2.3c-0.6-0.1-1.1,0.2-1.5,0.9
		c-0.1,0.2-0.4,0.1-0.4-0.2c0.1-0.9,0.4-1.8,1.2-2.7h-3C111.3,130.1,111.9,131,112,132.2L112,132.2z M112,132.2"/>
	<g>
		<defs>
			<rect id="SVGID_1_" x="3" y="7.2" width="134.7" height="174.4"/>
		</defs>
		<clipPath id="SVGID_2_">
			<use xlink:href="#SVGID_1_"  overflow="visible"/>
		</clipPath>
		<path clip-path="url(#SVGID_2_)" fill="none" stroke="#000000" stroke-width="0.2" d="M21.1,23.1V7.5 M18.9,25.3H3.3 M119.8,23.1
			V7.5 M122,25.3h15.6 M21.1,165.2v15.6 M18.9,163H3.3 M119.8,165.2v15.6 M122,163h15.6"/>
	</g>
</g>
<g>
	<g>
		<path fill="#FFFFFF" d="M18.8,24.7c-5.5-1-11-0.1-16.5,0c-0.7,0-2,1.1-0.7,1.1c5.4-0.1,10.8-1,16.1,0
			C18.3,25.9,19.9,24.9,18.8,24.7L18.8,24.7z"/>
	</g>
</g>
<g>
	<g>
		<path fill="#FFFFFF" d="M17.9,23.6c-2.8-2.1-6-2.7-9.4-1.8c-1.4,0.4-3,1.4-3.2,3c-0.2,2,2.1,2.5,3.6,2.5c3,0,6,0.3,9,0.3
			c1.7,0,4-1.3,4.3-3.1c0.2-2-2.1-2.5-3.6-2.5c-3,0-6-0.3-9-0.3c0.1,1.8,0.2,3.7,0.4,5.5c0.7-0.2,1.5,0.5,2,0.9
			C14.7,30.2,21.4,26.3,17.9,23.6L17.9,23.6z"/>
	</g>
</g>
<g>
	<g>
		<path fill="#FFFFFF" d="M24.1,24.5c0-3.4,0-6.8,0.6-10.2c0.5-2.6-7.3-1.2-7.7,1.1c-0.7,3.7-0.7,7.4-0.7,11.1
			C16.4,28.6,24.1,27.2,24.1,24.5L24.1,24.5z"/>
	</g>
</g>
<g>
	<g>
		<path fill="#FFFFFF" d="M123.4,21.5c-0.9-6.4-0.4-12.9-0.3-19.4c0-3.6-7.8-2.2-7.8,0.8c0,6.9-0.6,13.8,0.4,20.6
			C116.1,26.7,123.9,24.8,123.4,21.5L123.4,21.5z"/>
	</g>
</g>
<g>
	<g>
		<path fill="#FFFFFF" d="M121.5,27.7c4.5,0,8.9-0.3,13.3,0.3c1.7,0.2,4.2-0.7,5.1-2.2c1-1.7-0.8-2.5-2.2-2.7
			c-4.4-0.6-8.9-0.4-13.3-0.3c-1.8,0-4.1,0.5-5.1,2.2C118.3,26.5,120,27.7,121.5,27.7L121.5,27.7z"/>
	</g>
</g>
<g>
	<g>
		<path fill="#FFFFFF" d="M122.2,165.7c4.5,0,9.4-0.7,13.8,0.8c0.9-1.8,1.7-3.6,2.6-5.5c-2.9,0.2-5.8,0-8.7,0
			c-4.4-0.1-5.9,5.6-0.7,5.7c2.9,0,5.8,0.2,8.7,0c2.5-0.2,6.7-4.1,2.6-5.5c-5.6-1.9-11.7-1.3-17.6-1.2
			C118.5,160.1,117,165.8,122.2,165.7L122.2,165.7z"/>
	</g>
</g>
<g>
	<g>
		<path fill="#FFFFFF" d="M115.7,167.6c1.5,4.7,1,9.6,1,14.4c0,3.3,7.7,1.7,7.7-0.9c0-5.2,0.6-10.5-1-15.6
			C122.5,162.7,114.8,164.9,115.7,167.6L115.7,167.6z"/>
	</g>
</g>
<g>
	<g>
		<path fill="#FFFFFF" d="M16.6,165.1c0,4.5,0.6,8.9,0.7,13.3c0,4.2,7.9,3.1,7.8-0.5c0-4.5-0.6-8.9-0.7-13.3
			C24.4,160.4,16.6,161.5,16.6,165.1L16.6,165.1z"/>
	</g>
</g>
<g>
	<g>
		<path fill="#FFFFFF" d="M20,161.4c-4.8-0.3-9.7-0.4-14.5-0.4c-1.7,0-4,0.6-5.1,2c-1.2,1.4,1,1.7,1.9,1.7c4.3,0,8.6,0,12.8,0.3
			c1.9,0.1,3.9-0.3,5.5-1.5C21.8,162.7,21.6,161.5,20,161.4L20,161.4z"/>
	</g>
</g>
</svg>
