<?xml version="1.0" encoding="utf-8"?>
<!-- Generator: Adobe Illustrator 14.0.0, SVG Export Plug-In  -->
<!DOCTYPE svg PUBLIC "-//W3C//DTD SVG 1.1//EN" "http://www.w3.org/Graphics/SVG/1.1/DTD/svg11.dtd" [
	<!ENTITY ns_flows "http://ns.adobe.com/Flows/1.0/">
]>
<svg version="1.1"
	 xmlns="http://www.w3.org/2000/svg" xmlns:xlink="http://www.w3.org/1999/xlink" xmlns:a="http://ns.adobe.com/AdobeSVGViewerExtensions/3.0/"
	 x="0px" y="0px" width="300px" height="155px" viewBox="-84.7 10.9 300 155" enable-background="new -84.7 10.9 300 155"
	 xml:space="preserve">
<defs>
</defs>
<g>
	<path fill="#FFFFFF" d="M28.4,20.6h88.9c2.6,0,4.7,2.1,4.7,4.7v127.8c0,2.6-2.1,4.7-4.7,4.7H28.4c-2.6,0-4.7-2.1-4.7-4.7V25.2
		C23.7,22.6,25.8,20.6,28.4,20.6L28.4,20.6z M28.4,20.6"/>
	<path fill="none" stroke="#000000" stroke-width="0.7974" d="M28.4,20.6h88.9c2.6,0,4.7,2.1,4.7,4.7v127.8c0,2.6-2.1,4.7-4.7,4.7
		H28.4c-2.6,0-4.7-2.1-4.7-4.7V25.2C23.7,22.6,25.8,20.6,28.4,20.6L28.4,20.6z M28.4,20.6"/>
	<path fill="#D40000" d="M76.2,144.9c0.2-3.5,0-7.2,0.2-10.1c-0.1-0.2,0.3-0.8,0.3-0.8c-0.2-0.4-0.3-1.5,0-2.5
		c2.3-8.7,6.4-15.5,10.7-21.8c3.5,10.4-7.4,17.8-9.7,26.9c-0.8,3.2-0.6,5.4-0.9,8.2L76.2,144.9z M58.1,145l-12.9-20l2.8-1.4
		L61.3,145L58.1,145z M74.8,108c0.1,0.6,0.6,0.9,1,0.6c0.5-0.3,0.5-0.3,0.2,0.2c-0.6,1,0.7,2,1.5,1.1c0.3-0.3,0.3-0.8,0.1-1.1
		c-0.3-0.3-0.4-0.4,0.1-0.2c1.1,0.5,1.8-1.2,0.7-1.7c-0.3-0.1-0.8,0-1,0.2c-0.3,0.3-0.3,0.2-0.2,0c0-0.1,0.1-0.3,0.2-0.5
		c0.1-0.2,0.1-0.4,0.1-0.4l-1.2,0c0,0,0.1,0.3,0.2,0.5c0.1,0.2,0.1,0.4,0.2,0.5c0.2,0.3,0,0.2-0.3,0c-0.4-0.3-1-0.2-1.3,0.2
		C74.9,107.5,74.8,107.7,74.8,108L74.8,108z M76.5,91.7l2.5-0.1l2.7,7.5c-2.2,3.6-2.8,7.7-0.2,11.9l-7.9,0
		C75.5,104.9,75.7,98.2,76.5,91.7L76.5,91.7z M79.1,101.6c0.3-0.3,0.4-0.8,0.1-1.2c-0.4-0.5-0.3-0.5,0.2-0.2c0.7,0.4,1.5-0.5,1-1.3
		c-0.3-0.5-1.2-0.6-1.5-0.2c-0.3,0.4-0.3,0,0-0.5c0.1-0.2,0.2-0.5,0.2-0.5l-1.2,0c0,0,0.2,0.3,0.2,0.6c0.2,0.6,0.2,0.8-0.1,0.4
		c-0.7-0.6-1.6-0.2-1.6,0.7c0,0.7,0.6,1.1,1.2,0.8c0.3-0.2,0.5-0.2,0.1,0.2c-0.3,0.4-0.2,1,0.2,1.2
		C78.3,101.9,78.8,101.9,79.1,101.6L79.1,101.6z M62.5,103.9C62.5,103.8,62.6,103.9,62.5,103.9c0,0.2-0.1,0.3-0.2,0.4
		c-0.6,0.6,0.2,1.4,1.1,1.3c0.6-0.1,1-1.1,0.5-1.4c-0.1-0.1-0.3-0.1-0.4-0.3c0-0.1,0-0.1,0.1-0.1c0.1,0,0.2,0.2,0.3,0.2
		c0.6,0.2,1-0.1,1.2-0.5c0.1-0.5,0-1-0.4-1.2c-0.4-0.2-0.9-0.2-1.2,0.2c-0.3,0.4-0.4,0-0.1-0.6c0.1-0.2,0.2-0.5,0.2-0.5l-1.1,0.1
		c0,0,0.1,0.2,0.2,0.5c0.2,0.6,0.4,0.8,0.1,0.5c-1.4-0.8-1.8,0.3-1.8,0.7C60.8,104.1,62,104.5,62.5,103.9L62.5,103.9z M67.9,91.7
		l2,0c-1.5,8-4.6,14.7-9.8,19.3l-9.8,0l-4.7-3.3l1.8-2.4C59.8,106.6,65.1,100.5,67.9,91.7L67.9,91.7z M58.9,110.3
		c0.6-0.3,0.8-0.9,0.4-1.4c-0.4-0.4-0.4-0.5,0.2-0.2c0.7,0.4,1.4-0.4,1.1-1.2c-0.2-0.5-0.9-0.7-1.4-0.3c-0.4,0.3-0.4,0.2-0.2-0.3
		c0.1-0.3,0.2-0.7,0.2-0.7l-1.2,0c0,0,0.1,0.3,0.2,0.5c0.2,0.5,0.3,0.7,0.2,0.7c0,0-0.2-0.1-0.3-0.2c-0.2-0.2-0.9-0.3-1.2,0
		c-0.7,0.7-0.3,1.9,0.6,1.7c0.6-0.1,0.7-0.4,0.2,0.2C57,109.6,58,110.6,58.9,110.3L58.9,110.3z M51.1,110c0.5-0.2,0.7-0.8,0.4-1.2
		c-0.3-0.4-0.4-0.6,0.1-0.3c0.7,0.3,1.3-0.1,1.3-0.9c0-0.8-0.9-1.2-1.6-0.7c-0.1,0.1-0.3,0.2-0.3,0.2c-0.1,0,0.1-0.4,0.2-0.7
		c0.1-0.1,0.2-0.4,0.2-0.4l-1.2,0c0,0,0.1,0.3,0.2,0.6c0.2,0.5,0.2,0.7-0.1,0.4c-0.9-0.9-1.9,0.2-1.5,1.2c0.2,0.5,0.8,0.5,1.2,0.3
		c0.3-0.3,0.2,0.1-0.1,0.4C49.3,109.5,50.2,110.5,51.1,110L51.1,110z M107.1,89.9l0.1,1.5l-15.8,13.2l-0.7-1L107.1,89.9z M48.2,92.7
		c2.3-1.6,4.8-4.5,7.3-6.1C57.3,90.8,53.1,95,48.2,92.7L48.2,92.7z M90.1,91.6c-2.3-7.9,8.5-7.4,7.2-5.7L90.1,91.6z M38.6,86.5
		l15.7-12.8l0.7,1.1L38.4,88.3L38.6,86.5z M81.5,73.6c0,0.1,0.5,0.6,0.5,0.7c-0.1-0.1-0.9-0.6-1.3-0.1c-0.1,0.2-0.3,0.5-0.3,0.9
		c0.2,0.7,1,1,1.6,0.5c0.2-0.1,0.3-0.3,0.3-0.3c0,0.1-0.1,0.3-0.1,0.5c-0.1,0.2-0.4,0.6-0.2,0.6l1.1,0c0,0,0-0.3-0.2-0.5
		c-0.2-0.5-0.2-0.8,0.1-0.4c0.6,0.8,1.7,0.1,1.6-0.8c-0.1-0.7-0.7-1-1.2-0.7c-0.1,0-0.2,0.2-0.2,0.2c-0.1,0,0.1-0.2,0.2-0.5
		c0.4-0.7-0.2-1.3-1-1.3c-0.3,0-0.6,0.2-0.6,0.2C81.5,72.9,81.4,73.3,81.5,73.6L81.5,73.6z M95.1,67.2c1.6,1.4,3.1,2.5,4.7,3.4
		l-1.5,2.3C88.2,72,81,76,77.9,86.7L76.3,87c0.6-6.7,2.9-13.4,9.5-19.9L95.1,67.2z M85.4,68.8c0,0.3,0.6,0.7,0.5,0.8
		c-0.1,0-0.4-0.3-0.6-0.3c-1.2-0.1-1.4,1.7-0.3,1.9c0.2,0,0.7-0.1,0.8-0.2c0.2-0.1,0.3-0.3,0.3-0.3c0.1,0-0.1,0.3-0.2,0.6
		c-0.1,0.2-0.3,0.7-0.3,0.7c0.5,0.1,0.9,0.1,1.3,0c0,0-0.1-0.4-0.2-0.7c-0.2-0.4-0.2-0.6-0.1-0.6c0,0,0.1,0.1,0.2,0.2
		c0.6,0.5,1.4,0.3,1.6-0.5c0.2-0.7-0.7-1.5-1.3-1.1c-0.2,0.1-0.2,0,0-0.3c0.2-0.3,0.1-0.7,0-1C86.7,67.4,85.4,67.9,85.4,68.8
		L85.4,68.8z M94.9,70.9c0-0.2,0-0.1,0.2,0.1c0.5,0.5,1.4,0.5,1.7-0.3c0.2-0.7-0.5-1.6-1.1-1.3c-0.3,0.1-0.3,0.1-0.1-0.1
		c0.5-0.6,0-1.4-0.9-1.4c-0.7,0-1.2,0.7-0.8,1.3c0.1,0.2,0.1,0.3-0.2,0.2c-0.8-0.4-1.5,0.8-0.9,1.5c0.3,0.4,1.1,0.5,1.5,0
		c0.2-0.2,0.2-0.1,0.1,0.3C94.2,71.7,94,72,94,72l1.3,0C95.3,72.1,95,71.4,94.9,70.9L94.9,70.9z M66.9,87c0,0-1.9-5.4-2.6-8
		c1.4-3.4,3.4-6.8,0.1-11.8l8.1,0c-2.5,5.6-2.5,19.9-3.1,19.9L66.9,87z M67.6,80.7c0,0-0.4-0.5-0.4-1c0-0.3,0-0.3,0.2,0
		c0.7,0.8,1.7,0,1.7-0.7c0.1-0.6-0.7-1.2-1.2-0.9c-0.3,0.2-0.4,0.2-0.1-0.3c0.4-0.6,0-1.4-0.8-1.3c-1,0-1.4,0.9-0.7,1.6
		c0.5,0.5,0,0.2-0.4,0c-0.8-0.3-1.3,0.5-1,1.3c0.3,0.6,1,0.7,1.4,0.3c0.2-0.3,0.5-0.4,0.3,0c-0.1,0.3-0.4,1-0.4,1L67.6,80.7z
		 M68.8,72c0,0-0.5-0.6-0.6-1c0-0.2,0.1-0.1,0.4,0.1c0.9,0.7,2.1-0.6,1.2-1.4c-0.3-0.3-0.6-0.4-0.9-0.2c-0.4,0.2-0.4,0.1-0.2-0.1
		c0.3-0.3,0.3-0.9,0-1.2c-0.9-0.8-2.3,0.4-1.5,1.2c0.4,0.4,0.2,0.3-0.2,0.1c-0.7-0.4-1.6,0.8-1,1.5c0.7,0.6,1.2,0.3,1.6-0.1
		c0.1-0.1,0.2-0.1,0.2,0c0,0.1-0.5,1.2-0.5,1.2L68.8,72z M58.3,68.6c-0.5,0-0.8-4.6-0.2-6.1c1.3-6.1,5.2-10.6,7.6-14.4
		c3.9-5.6,3.4-14.9,3.6-14.5l0.6,0.1c0,0-0.4,5.4-0.2,7.9c0.3,2.2,0.2,2.3,0,2.5c0,0.2,0,0.8,0,1c-1.7,8-5.9,16.2-10.2,22.5
		L58.3,68.6z M98.4,54.6L85.2,33.9l3.2-0.3c1.2,1.9,12.6,19.6,12.6,19.6L98.4,54.6z M98.4,54.6"/>
	<path fill="#E2CF00" d="M44.1,145.4c1.5-5.5-2.6-18.3-5.1-19.9c3-0.1,6.6-0.1,6.4-0.3c0,0,12.7,19.9,12.5,20
		C57.9,145.2,44.1,145.4,44.1,145.4L44.1,145.4z M95.4,114.2c-3.1-0.4-1.9-3,0.1-3.2c-0.3,0,0.2-1.3,1.8-1.8c0.4-0.7,0.6-1.8,1-2.3
		c-1,0.3-2.1,1.1-6.4,0.5c0.4-2.1,4.5-2.4,6-2.1c0.9,0.2,1.7,1.5,2,1.5c2.7-0.4,6,2,5,4.4c-0.2,0.3-0.6-0.4-1.5-0.7
		c-2.9-1-3.1-2.6-3.8-3.3c-0.2,0-1.5,2.5-1.5,2.5l0.4,1.7c0.7-0.1,3.8,1.8-0.1,3.1C97.4,118.2,95.4,115.6,95.4,114.2L95.4,114.2z
		 M102.7,97.9c-0.2-0.2,0.1-1.3,0.5-2c0.2-0.4,0.7-0.6,1-0.5c0.5,0.1,0.4,0.8-0.2,3C103.9,98.7,103.2,98.7,102.7,97.9L102.7,97.9z
		 M41.6,82.8c-0.8,0-0.1-2.3,0.4-3c0.2-0.2,0.8,0.3,0.9,0.6C43,80.9,42.1,83,41.6,82.8L41.6,82.8z M41,67.2c1,0.2,2.6,1.3,3.4,1.8
		c1,0.7,0.7,2.1,1.5,2.3c0.5-0.3,1.5-2.6,1.5-2.6s0.2-1.2-0.4-1.6c-1.7-0.9-1.7-1.9-1.6-2c0.5-1.3,1.5-1.1,2-1.1
		c0-0.7,0-2.2,1.5-2.1c1.3,0.1,1.4,2,0.9,2c0,0,2.4-0.3,2.4,1.3c0,0.9-1.5,2-1.9,1.6c0,0,0.2,1.7-1.9,2.3c-0.5,0.5-0.9,2.7-0.9,2.5
		c1.3-1.2,3.4-1.5,6.6-1c-2,3.7-7.6,2-8,1.3C43.2,71.1,40.5,70,41,67.2L41,67.2z M65.1,58.2c3,0.3,6.2-0.7,8.7-0.2
		c0.3,0,0.6,0.5,0.8,0.5c1.3,0.7,2.6,0.5,4.7-0.3c0.5-0.2,9.9-0.1,9.9-0.1c2.1,3.2,6,9.1,6.1,8.9c0,0-5.2-0.1-7.6,0.1
		c-1.7,0.1-0.7,0.3-1.9,0.4c-8.2,6.2-9.8,19.6-9.8,19.6s2.6-0.7,3.3,0c3.2-9.5,9.4-13.8,18-13c4,0.4,8.7,4.3,8.7,4.3l-8.5,6.9
		c-6.6-3.3-9.4,6.5-7.4,6.5L107,78c0,0,0.3,1.1,0.3,1.2c-1.2,1.6-21.6,18.1-21.6,18.1l-0.9-1c0,0-0.6,0.5-0.9,0.8
		c0,0.5,0.2,1,0.6,1.4c-4,3.2-4.2,9.2-1.2,12.4c0,0-1.3,0.1-1.5,0.1c-1.7,0.3-3.4-8-0.1-11.8c-1.7-3.3-2.7-7.8-2.9-8
		c0,0.5-2.6,0.4-2.6,0.4c-0.2,6.7-0.9,13.2-2.5,19.5l12.4,0.3l-5.3,9.1c0,0-5.9-0.1-8.4-0.3c-2.7-1.5-4.2-0.4-6.7,0.2
		c-3.5,0.1-8.8-0.1-8.8,0c-1.8-3.5-3.7-6.1-6.3-9.1c-0.3-0.5,10.5-0.2,10.5-0.2s5.4-8.2,6.4-10.5c0.8-1.8,2.5-8.4,2.5-8.4
		c0.1,0.3-1-1.7-3.5-1.7c-2,13.6-18.2,18.2-27.9,9.4l-0.1-1.6L60,81l1,1.1C60.8,82,47.8,92.7,48,92.7c3.8,2,8.3,0.4,7.8-6.2
		c3-2.2,5.7-4.8,8.4-7.4c0.1-0.1,3,6.5,2.9,7.8c1.7-0.6,2.7,0.6,2.6,0.4c-0.6-3.8,2.7-18.3,2.8-20c-1.9-0.1-4.3-0.1-8.2-0.2
		c3.1,6,2,10.1-2.3,13.8l-0.9-1.1c0.4,0.2,6.3-5,1.5-12.7c-0.2,0-2.5-0.2-2.5-0.2S64.8,59.3,65.1,58.2L65.1,58.2z M88.1,33.4
		c0,0,13.5-0.3,13.5,0.1c-0.4,7.3,1.3,13.9,5.4,20c0,0-6-0.2-5.9-0.1L88.1,33.4z M88.1,33.4"/>
	<path fill="#131F67" d="M107.8,32.9l-70.3-0.1l0.4,112.9h70.2L107.8,32.9z M101.4,33.4c0,0-0.9,11.9,5.3,19.8c-3.8-0.6-6,0-8.2,1.6
		l0.3,0.3c3.1-1.9,5.6-1.4,8.3-1.1L107,69.3c0,0.7-3.1,0.4-5-1.1c-0.9-0.5-2.1-1.7-2.7-2.6c-0.2-0.3-0.3-0.5-0.4-0.6
		c-0.2-0.2-1.3-2.3-3.3-6.2c-1-2-2.4-4.7-3.5-6.8c-0.7-1.4-2.1-3.9-2.2-4.1c-0.2-0.4-1.7-3.3-2.2-4.3c-1.5-2.7-3.9-7.5-4.8-9.2
		c-0.2-0.4-0.5-0.6,0-0.6c0.1,0,0.2,0,0.3,0c0.1,0,0.2-0.2,0.2-0.2L101.4,33.4z M38.7,98l0-1.2L59.1,80l0.7,0.8L38.7,98z M58.5,68.5
		c-0.1,0-0.2,0.1-0.3,0.1c-0.5-2.3-0.2-5.5,0.4-7.8c0.9-3.3,2.6-5.9,4.5-8.5c4.3-6,6.2-10.5,6.1-18.6l0.6,0.1c0,1.3-0.2,2.2-0.2,3.9
		c-0.1,1.8,0,3.2,0.1,5c0.1,0.9,0.2,1.4,0,1.6c-0.1,0.1-0.1,0.4-0.1,0.5c0,0.2,0,0.7,0,0.7C68.6,50.2,63.3,62.5,58.5,68.5L58.5,68.5
		z M61,79.4L60,78.1c0,0-0.8-0.7-0.1-1.4c2.2-2.2,2.2-5,0.1-7.5c-0.1-0.3,0.6-1.9,0.6-1.9l1.6,0C64.8,70.4,65.5,75.9,61,79.4
		L61,79.4z M62.5,67c0.1-0.2-2.4-0.1-2.4-0.1c1.5-2.3,2.9-4.7,4.2-7.1c2-3.6,4.8-9.9,5.7-14.5c0.6,5.3,1.6,13.3,6.2,13.6
		c1.5,0.1,3.2-0.9,3.5-0.8l9.5-0.1c2,4,4,6.5,6.5,9.2c1.8,1,4,1.8,6.1,2.3c1.2,0.3,1.3,0.1,3.7,0.4c0.6,0.1,1.6-0.2,1.6-0.2
		c-1.9,1.5-4.1,1.1-6.4,0.4c-0.1,0-0.3-0.1-0.4-0.1l-1.8,2.7c-4-1-16.9-0.3-20.3,13.7c0,0,0.3,0.2,0.3,0.1
		c2.7-12.2,14.1-14.6,19.5-13.4l-0.5,0.7c-9-1.1-16.4,4.5-18.1,12.5l0.2,0.2c3.4-12.1,17.6-16.6,26.4-8.2l1.6-1.1l-0.1,1.6
		L85.7,97.2l-0.9-0.9c0,0-0.2,0.1-0.3,0.3c-0.6,0.5-0.8,0.6-0.6,0.8c0.2,0.3,0.8,0.8,0.8,0.9c-3.6,2.9-4.7,8.6-1.3,12.5
		c0.4,0.4,0.3,0.5,0.2,0.1c-3.1-3.3-2.7-9.2,1.1-12l0.8,1c-1.7,3.7-2.6,9.5,1.8,10c1.6,4.3-0.2,9.3-2.3,12.7
		c-2.2,3.9-4.8,7.1-6.4,11.4c-0.8,1.8-2.1,7-2,11l-0.5,0c0-1.6,0.1-3.6,0.1-4.8c0.1-6,0.1-5.7,0.2-5.8c0-0.1,0.2-0.1,0.2-0.1
		c0-0.1-0.1-0.2-0.1-0.3c0-0.2-0.1-0.4-0.1-0.6c0-0.2,0.2-0.6,0.2-0.6c-1-3.3-1-9.3-4.1-12.1c-1.5-1.3-3.5-1.3-6.1-0.3
		c-5.7,0-4.9,0.3-9.5,0c-1.9-3.5-4.2-6.9-6.7-9.4c-1.2-1.3-2.8-2-4.3-3c0.6-1.2,1.3-2,2.1-2.6c0.2-0.2,0.3-0.5,0.5-0.7
		c15.6,1.5,19-13.6,18.3-13.2l-0.1,0.1c-4.3,15.5-19.4,15-27,8.3c0,0-1.1,0.9-1.1-0.1c0-0.9,0.3-1.2,0.3-1.2l21.4-17.4
		c0.4,0.2,0.8,1.1,1,1c0.4-0.2,1-0.6,1-0.9c0-0.2-0.8-1.4-0.8-1.4C67,73.7,64.4,71.1,62.5,67L62.5,67z M70.7,33.7
		c0.1,0,0.2,0,0.3,0.2c0.1,0.2-0.4,1.4-0.7,1.6c-0.3,0.2-0.3,0-0.1-1.2C70.2,34,70.4,33.7,70.7,33.7L70.7,33.7z M102,33.7h5l0,19
		C103.3,47.6,101.5,41.6,102,33.7L102,33.7z M72,33.8c0.1,0,0.2,0,0.3,0.1c0.1,0.3-0.6,1.7-1.5,2.9c-0.5,0.6-0.7,0.8-0.8,0.6
		c-0.1-0.3-0.1-0.6,0.3-1.1c0.4-0.4,1-1.4,1.2-1.9C71.5,34.1,71.6,33.8,72,33.8L72,33.8z M77.1,33.9c0.1,0,0.3,0,0.3,0.1
		c0.9,1.8,2.5,3.4,4.2,4.2c0.2,0.1,0.1,0.5,0.2,0.7c-1.9-0.3-4.3-2.9-5-4.9C76.8,33.9,76.9,33.9,77.1,33.9L77.1,33.9z M80,33.9
		c0.4,0.4,1,0.8,1.1,1.3c0.1,0.3,0.1,0.6,0.1,0.7c-0.3,0.2-1.9-1.7-1.9-1.9C79.5,33.8,79.8,33.8,80,33.9L80,33.9z M73,33.8
		c0.2,0,0.4,0,0.4,0.1c0.2,0.8-1.7,4-3,4.9c-0.5,0.3-0.5,0.2-0.5-0.3c0-0.4,0.1-0.3,0.6-0.8c0.7-0.7,1.5-1.7,1.9-2.6
		C72.9,33.9,72.8,33.8,73,33.8L73,33.8z M74.3,33.8c0.2,0,0.3,0.1,0.4,0.1c0.1,0.1,0,0.3-0.1,0.5c-0.6,1.7-2.1,4.2-3.9,5.7
		c-0.7,0.5-0.8,0.5-0.9,0c0-0.3,0.1-0.4,0.4-0.6c1.5-1.1,2.9-2.9,3.5-4.8c0.1-0.4,0.1-0.7,0.3-0.8C74,33.9,74.2,33.8,74.3,33.8
		L74.3,33.8z M83.7,36.9c0.1,0.1,0.6,0.9,0.2,0.6c-0.2-0.1-0.5-0.5-1-1.1c-1.2-1.4-1.2-1.3-1.2-1.6c0-0.4-0.3-1.2,0.4-1
		C82.7,34.6,83.1,35.9,83.7,36.9L83.7,36.9z M78.3,33.9c0.1,0,0.3,0,0.4,0c0.8,1.5,2.7,2.8,2.7,2.8c0,0,0,0.6,0,0.8
		c0,0.2-3.1-2.1-3.4-3.5C78,33.9,78.1,33.9,78.3,33.9L78.3,33.9z M76.1,33.9c0.7,1.3,2.2,4.3,5.6,5.5c0.2,0.1,0.5,0.8,0.3,1
		c-1.9-0.5-5.3-2.4-6.5-6.4C75.7,33.8,76,33.8,76.1,33.9L76.1,33.9z M75.2,34.2c-0.1,0,1.6,5,6.6,6.5c0.4,0.1,0.7,0.3,0.7,0.6
		c0,0.3,0,0.4-0.5,0.1c-1.4-0.7-3.3-1-4.9-0.2c-0.3,0.1-0.5,0.5-0.3,0.7c0.1,0.1,0.4,0,0.8-0.1c1.9-0.7,4.7-0.3,5.3,0.8
		c0.4,0.8,0.4,1.4,0.2,1.5c-0.2,0.1-0.4-0.2-0.9-0.6c-1.4-1.3-3.1-1.6-4.5-0.4c-0.3,0.3-0.6,0.2-0.7,0.3c-0.1,0.1,0,0.3,0.1,0.6
		c0.1,0.2,0.1,0.3,0,0.5c-0.1,0.3-0.1,0.6-0.1,0.9c0,0.6,0.5,1.2,1.7,2c1,0.7,1.7,1,0.5,0.1c-2-1.6-2.4-2.3-1.1-1.7
		c1.3,0.5,3.1,0,4.4-1c0.4,0,0.7-0.1,0.9,0.1c0.9,2.2,1.7,5.2,3,8c-1.5,1.7-6.7,5.9-10.5,5.7c-3.2-0.1-4.4-5.4-5.1-8.3
		c-0.2-1.2-0.5-2.5-0.5-4.2c0,0,0.1,0,0.1,0c0.5,0.1,1.5,0.2,1.9,0.1c0.9-0.2,1-0.4,1.1-0.2c0.1,0.1-0.3,0.5-0.9,0.9
		c-0.3,0.2-1.1,0.6-1,0.6c0.2,0.1,1.1-0.4,1.3-0.5c0.2-0.2,0.4-0.2,0.5-0.1c0.1,0.1,0.2,0-0.3,1.1c-0.5,1.3-0.5,1.4,0.5,2.2
		c0.3,0.3,0.7,0.5,0.7,0.7c0.1,0.2,0.2,0.3,0.2,0.4c0.2,0.2,0.1-0.1,0-0.7c-0.1-0.4-0.5-0.8-0.8-1.1c-0.5-0.4-0.5-0.7,0-2
		c1.3-3.8,1-5.5-0.5-6.3c-0.7-0.4-2.5-0.3-3.1,0.2c-0.3,0.2-0.2-0.2-0.2-0.3C73.5,38.7,74.3,36.4,75.2,34.2L75.2,34.2z M81.9,36
		c1,1,2.2,2.3,3,3.3c0.4,0.5,0.6,1,0.9,1.6c0.1,0.1,0.1,0.2,0.1,0.3c0,0-0.2-0.1-0.2-0.1C85,40.4,82,37,82,37
		C81.8,36.4,81.7,36.2,81.9,36L81.9,36z M82.5,38.3c0,0,2.6,2.8,4.1,4.2c0.3,0.6,0.9,1.5,0.8,1.7c0,0.1-0.3-0.2-0.3-0.2
		c-1.6-1.5-3.2-3.2-4.8-4.8c0,0-0.1-0.7-0.1-0.9C82.3,38.1,82.5,38.3,82.5,38.3L82.5,38.3z M88.2,45.6c0.3,0.6,0.6,1.1,0.8,1.4
		c0.3,0.5,0.2,0.5-0.1,0.4c-1.9-1.5-3.4-3.4-5.2-5.1c-0.2-0.2-0.7-0.8-0.7-0.8c0,0-0.6-1.2-0.2-1.2c0.3,0.1,0.5,0.4,0.7,0.6
		C84.4,42,86.2,43.6,88.2,45.6L88.2,45.6z M71.9,41.6c0.8,0,1.5,0.2,1.9,0.6c0.3,0.4,0.5,1.1,0.3,1.3c-0.1,0.1-0.5-0.2-0.5-0.2
		c-1.8-1-2.4-0.5-3.4-0.2c-0.1,0-0.3-0.3-0.1-0.7C70.4,41.7,71.3,41.6,71.9,41.6L71.9,41.6z M83.3,42.5c1.9,1.9,3.9,4.1,6,5.8
		c0.3,0.2,0.5,0.4,0.6,0.5c0.3,0.5,0.9,1.9,0.9,1.9c-2.2-1.6-7.3-7-7.2-6.9C83.7,43.8,83.2,42.7,83.3,42.5L83.3,42.5z M79.5,42.8
		c0.4,0,0.7,0.1,1,0.2c1,0.4,1.6,0.8,0.6,0.7c-1.4-0.2-1.9-0.2-2.4-0.1c-1,0.2-1,0.3-1.1,0.1C77.4,43.3,78.5,42.8,79.5,42.8
		L79.5,42.8z M71.5,42.9c0.4,0,0.7,0.1,1.1,0.2c1.2,0.5,1.4,0.9,0.4,0.7c-0.5-0.1-1.5-0.1-2.2,0.1c-0.2,0.1-0.5,0.2-0.5,0.2
		c-0.2,0.1-0.3-0.1-0.2-0.4C70.3,43.2,70.9,43,71.5,42.9L71.5,42.9z M80.2,44.5l0.2,0c-0.3,1.7-2,1.6-2.5,0.1l0.2,0
		C79.1,46,79.8,45.1,80.2,44.5L80.2,44.5z M81.1,44.6c0.8,0,0.8,0.5-0.1,0.8c-0.6,0.2-0.7,0.2-0.5-0.3
		C80.8,44.6,80.8,44.6,81.1,44.6L81.1,44.6z M72.9,44.6c0.1,1.6-2.1,1.9-2.2,0.1l0.2,0c0.7,1.3,1.5,0.5,1.8-0.1H72.9z M73.8,44.8
		c0.2,0.2,0.1,0.4-0.4,0.7c-0.5,0.3-0.6-0.1-0.2-0.6C73.4,44.8,73.6,44.7,73.8,44.8L73.8,44.8z M77.6,44.8c0.1,0,0.3,0.4,0.1,0.5
		c-0.1,0.1-0.3-0.1-0.3-0.2C77.4,45,77.5,44.9,77.6,44.8L77.6,44.8z M84.2,44.9c1.5,1.6,2.9,3.2,7.2,6.7c0,0,0.6,1.1,0.7,1.5
		c-0.1,0.1-0.2,0.1-0.5,0c-2.8-2.2-5.4-4.8-7.4-7.2C84.1,45.5,83.9,45.2,84.2,44.9L84.2,44.9z M70.3,45.1c0.2,0,0.4,0.4,0.3,0.6
		c-0.1,0.1-0.3,0-0.3-0.1C70.1,45.4,70.1,45.2,70.3,45.1C70.2,45.1,70.2,45.1,70.3,45.1L70.3,45.1z M84.8,47.3
		c0-0.1,6.8,6.8,7.7,6.7c0.4,0.2,1.4,2.2,1.4,2.2c0,0.1,0,0.2-0.1,0.1c-1.1-0.6-6-4.6-8.4-7.5C85.1,48.4,84.9,47.8,84.8,47.3
		L84.8,47.3z M76.7,48.3c1.2,0.6,0.7,1.7-0.6,1c-1-0.6-1.8-0.7-1.8-0.1c0,0.2,0.3,0.5,0.5,0.5c0.5,0,0.9,0.2,1.4,0.3
		c0.7,0.2,1.3,0,1.5-0.5c0.3-0.8-0.4-1.6-0.9-1.6C76.4,48,76.5,48.2,76.7,48.3L76.7,48.3z M86.1,50.2c-0.1-0.1,3.4,3.7,8.1,6.9
		c0.2,0.2,0.6,1.3,0.7,1.5c0,0.1-0.1,0-0.1,0c-2.4-1.4-5.5-4.1-8.5-7.2c0,0-0.3-0.7-0.4-1.1C86,50.1,86,50.2,86.1,50.2L86.1,50.2z
		 M78.2,51.6c-0.1,0-0.3,0.2-0.4,0.3c-0.4,0.2-0.5,0.3-1.4,0c-0.5-0.1-0.6-0.1-0.9,0.1c-0.3,0.2-0.4,0.2-0.7,0.1
		c-0.5-0.2-0.7-0.1-1.2,0.1c-0.4,0.2-0.6,0-1-0.1c-0.1,0-0.1,1.6,0,1.7c0,0,0.4-0.2,0.6-0.4c0.4-0.2,0.3-0.2,0.9-0.1
		c0.8,0.1,1.7,0.1,2.2-0.1c0.7-0.2,1.2-0.2,1.7,0.2c0.3,0.2,0.7,0.2,0.5-0.2c-0.1-0.2-0.3-0.7-0.2-0.9
		C78.4,51.8,78.4,51.6,78.2,51.6C78.2,51.6,78.2,51.6,78.2,51.6L78.2,51.6z M87.2,52.8c1.6,1.5,3.6,3.9,8.2,6.6
		c0.2,0.4,0.6,1,0.8,1.4c0,0.1,0,0.2-0.1,0.2c-2.9-1.8-4.4-2.7-8.4-6.6c-0.2-0.4-0.5-1.1-0.7-1.6C87,52.6,87.1,52.8,87.2,52.8
		L87.2,52.8z M86.5,53.4l1.8,3.3l-5.9,0C83.9,55.8,85.3,54.6,86.5,53.4L86.5,53.4z M76.7,53.5c-1,0.4-1.1,0.5-2.1,0.2
		c-0.6-0.1-0.4,0.2-0.1,0.3c0.7,0.3,1.8,0.1,2.2-0.2C76.9,53.7,77.1,53.3,76.7,53.5L76.7,53.5z M75.7,54.5c-1,0-2,0.4-2.1,0.8
		c0,0.1,0.1,0.2,0.2,0.1c0.7-0.4,2.4-0.6,3.7-0.1c0.2,0.1,0.2-0.1,0-0.2C77.1,54.7,76.4,54.5,75.7,54.5L75.7,54.5z M88.6,55.9
		c1.9,1.8,3.8,3.4,7.9,5.8c0.3,0.7,0.7,1.4,0.8,1.5c-3.9-1.9-8.1-5.6-8.1-5.6s-0.7-1.2-0.8-1.7C88.4,55.8,88.6,55.9,88.6,55.9
		L88.6,55.9z M90,58.7c0,0,3.5,3,7.6,5c0.2,0.2,0.6,1.1,0.7,1.2c0.1,0.1-0.2,0.1-0.5,0c-2.1-1-6.7-4.1-6.7-4.1
		C90.7,60.1,90.1,59.4,90,58.7L90,58.7z M47.5,71.2c0.3-0.7,0.7-1.5,0.9-2.1c1,0,1.4-0.4,1.8-0.8c0.5,0,0.9,0,1.5,0
		c0-0.7,0-1.6,0-1.6c0.7-0.7,1.1-1.5,0.1-2.7c0,0,0-0.6-0.1-1.6c-0.5-0.1-1.6,0-1.6,0c-0.9-1.2-2.4-0.9-2.9,0c0,0-0.7,0-1.2,0
		c0,0.3-0.1,1.4-0.1,1.4s-2,1.4,0.1,3l0,1.4c0.4,0,0.7,0,1.2,0.1c0,0-0.8,1.9-1.3,2.8c-0.2,0-0.1-0.1-0.4-0.7
		c-0.3-0.7-0.9-1.5-1.4-1.9c-0.7-0.5-1.6-0.7-2.3-1.2c-0.6-0.4-1.1-1-1.3-0.9c-0.1,0.2-0.1,1.5,0.1,2.3c0.3,1.4,2.3,2.2,3.9,2.9
		c0.1,0.1,0.2,0.2,0.2,0.2c0,0.2-0.2,0.2-0.7,0.1c-0.8-0.1-1.1,0.1-1.4,0.8c-0.1,0.2-0.3,0.5-0.4,0.7c-0.2,0.2-0.3,0.4-0.4,0.5
		c0,0.1-0.2,0.5-0.4,0.9c-0.1,0.2-0.3,0.4-0.3,0.8c0,1-0.1,2.3,0.1,3.1c0.1,0.6,0.9,1,1.1,1c0.4,0.1,0.5,0.5,0.4,0.8
		c-0.3,1.7-1.3,2.7-1.6,2.1c-0.1-0.1-0.2-0.8-0.2-0.8c0,0-0.2,0.6-0.1,0.8c0.1,0.2,0.4,0.4,0.7,0.3c0.5-0.2,0.8-0.6,1.1-1.7
		c0.1-0.4,0.2-0.7,0.4-0.7c0.4,0,0.9,0.8,0.9,0.8c-1.9,1.6-5.6,4.5-5.6,4.5l-0.1-52.1l30.2,0.1c0.2,4.1-0.3,7.6-1.8,11.3
		c-1.8,4-4.5,6.9-6.6,10.6c-2.5,4.4-3.3,9-2.5,13.6c-2.6,3.4-4.7,5-6.8,6.6c0,0-1.5-1.6-2.4-2.5c0,0,0.4,0,0.8,0
		c2-0.2,4.1-0.5,4.9-2.5c0.1-0.2,0.1-0.3-0.1-0.4c-1.5,0.2-2.9,0-3.7,0.1C48.4,70.5,47.5,71.2,47.5,71.2L47.5,71.2z M47.8,72.7
		c0,0-2.5-1.2-2.6-1.2c-1.1-0.2-3.7-1.5-4.1-2.5C41,69,40.8,67.3,40.8,67c0-0.1,0.1-0.1,0.2,0c0.3,0.2,1.3,0.9,1.7,1.1
		c1.6,0.8,2.3,1.4,2.7,2.6c0.1,0.3,0.2,0.6,0.3,0.7c0.1,0.1,0.2,0.1,0.3,0c0.7-0.9,1-1.7,1.4-2.6c0-0.1,0.1-0.2,0.1-0.4
		c-0.1-0.4-0.4-1-0.1-1.4c-1,0-2-0.7-1.9-1.4c0.3-1.4,0.9-1.1,2-1.3c-0.1-3.2,2.9-2.4,2.9-0.2c3.3,0.3,1.7,3.3-0.2,2.9
		c0.8,1.7-1.5,2.4-1.8,2.1c-0.1,0.6-1,2.4-1.2,2.9c2.4-1.7,6.4-1,6.9-1.1C52.6,73.6,47.9,72.9,47.8,72.7L47.8,72.7z M91.8,61.8
		c0.6,0.5,5.9,3.8,6.9,3.8c0,0,0.5,0.5,0.8,1c0.4,0.4,0.5,0.5,0.5,0.6c0,0.1-0.1,0.1-0.2,0.1c-2.4-1-4.8-2.1-6.8-3.8
		c-0.3-0.2-0.3-0.3-0.5-0.5C92.4,62.7,91.8,61.9,91.8,61.8L91.8,61.8z M93.5,64.5c2.4,1.4,4.5,2.7,6.6,3.4c0.3,0.1,0.5,0.1,0.6,0.2
		c0.2,0.1,0.8,0.5,1,0.6c1,0.6,1.1,0.6,0.9,0.7c-0.3,0.1-2-0.4-3.5-1c-2.6-1-3.6-1.5-4.5-2.4C94.4,65.8,93.4,64.6,93.5,64.5
		L93.5,64.5z M45.5,72c0.2,0,0.5,0.1,0.9,0.4c0.4,0.3,1.3,0.9,1.6,1c0.2,0.1,0.2,0.1,0.2,0.1l2.4,2.7l-6.1,5c0,0-0.5-0.5-0.7-0.7
		c-0.1-0.2-0.1-0.3,0.1-0.5c0.2-0.1,0.2-0.5,0.1-0.6c0-0.2,0-0.5,0.3-0.7c0.2-0.2,0.3-0.5,0.3-0.6c0-0.1,0.1-0.3,0.3-0.4
		c0.4-0.3,0.6-0.7,0.4-1.1c-0.1-0.2-0.1-0.2,0.2-0.4c0.4-0.3,0.5-0.6,0.6-1c0-0.1,0-0.1,0-0.2c-0.1-0.4,0.3-0.3,0.6,0.2
		c0.2,0.3,0.2,0.8,0.3,1.4c0.1,0.7,0.2,0.9,0.2,0.8c0.2-0.5,0-2.6-0.7-2.9c-0.9-0.4-1.7-1.2-1.4-1.6c0.1-0.1,0.1-0.1,0.7,0.2
		c0.3,0.2,0.6,0.3,0.7,0.3c0.6,0,0.3-0.3,0-0.3c-0.3,0-1-0.5-1.1-0.7C45.2,72.1,45.3,72,45.5,72L45.5,72z M44,72.4
		c0.6,0,0.7,0.2,0.7,0.7c0,0.3,0.1,0.5,0.6,1.1c0.2,0.2,0.3,0.4,0.3,0.5c0,0.2-0.1,0-0.7-0.1c-0.2,0-0.4,0-0.4,0.1
		c-0.2,0.3-0.7,0-1-0.5C42.7,73,43,72.4,44,72.4L44,72.4z M55.3,73.1l6.5,7.9l-0.7,0.6l-6.5-7.8L55.3,73.1z M54.2,73.6l0.7,1.2
		c0,0-2,1.7-2.5,2.2c-4.3,3.5-13.9,11.3-13.9,11.3l-0.1-1.6L54.2,73.6z M42.5,73.8c0.1,0,0.3,0.2,0.5,0.5c0.2,0.3,0.6,0.8,1,1.2
		c0.8,0.7,0.9,0.7,0.2,0.7c-0.3,0-0.3,0-0.5,0.4c-0.5,0.6-1.9-1.5-1.5-2.3C42.3,73.9,42.4,73.8,42.5,73.8L42.5,73.8z M44.8,74.9
		c0.1,0,0.3,0,0.5,0.1c0.3,0.1,0.4,0.2,0.3,0.6c-0.1,0.3-0.3,0.4-0.8,0C44.4,75.2,44.5,74.9,44.8,74.9L44.8,74.9z M55.1,75.1l0.8,1
		l-17.3,14l0-1.6C39,88.5,50.1,78.9,55.1,75.1L55.1,75.1z M41.7,75.3c0,0,0.1,0.1,0.3,0.4c0.4,0.6,0.7,1,1.2,1.3
		c0.4,0.3,0.4,0.5,0.2,0.5c-0.1,0-0.3,0.1-0.3,0.3c-0.2,0.3-0.2,0.2-0.4,0.1c-0.4-0.2-0.7-0.5-0.9-0.9c-0.1-0.4-0.2-1,0-1.4
		C41.7,75.3,41.7,75.3,41.7,75.3L41.7,75.3z M44.5,76.4c0.4,0,0.8,0.5,0.5,0.9c-0.2,0.2-0.3,0.2-0.6,0c-0.4-0.3-0.5-0.6-0.2-0.9
		C44.3,76.4,44.4,76.4,44.5,76.4L44.5,76.4z M41.6,77.5c0.1,0,0.3,0.1,0.5,0.4c0.2,0.2,0.6,0.4,0.7,0.5c0.3,0.2,0.4,0.3,0.2,0.4
		c-0.1,0.1-0.3,0.1-0.4,0.3c-0.2,0.6-1-0.1-1.1-0.9C41.5,77.7,41.5,77.5,41.6,77.5L41.6,77.5z M43.7,77.5c0.5,0,0.8,0.7,0.4,1
		c-0.2,0.2-0.8-0.1-0.9-0.4C43.2,77.9,43.5,77.5,43.7,77.5L43.7,77.5z M56.6,78c0.3,0,0.6,0.3,0.6,0.6c0,0.3-0.3,0.6-0.6,0.6
		c-0.3,0-0.6-0.3-0.6-0.6C56.1,78.3,56.3,78,56.6,78L56.6,78z M54.9,78.3c0.3,0,0.6,0.3,0.6,0.6c0,0.3-0.3,0.6-0.6,0.6
		c-0.3,0-0.6-0.3-0.6-0.6C54.3,78.5,54.6,78.3,54.9,78.3L54.9,78.3z M43.3,79c0,0,0.1,0,0.1,0c0.5,0,0.6,0.5,0.2,0.8
		c-0.2,0.2-0.4,0.2-0.6,0C42.6,79.5,42.8,79.1,43.3,79L43.3,79z M56.2,79.9c0.3,0,0.6,0.3,0.6,0.6c0,0.3-0.3,0.6-0.6,0.6
		c-0.3,0-0.6-0.3-0.6-0.6C55.6,80.1,55.9,79.9,56.2,79.9L56.2,79.9z M107,79.9l0,1.5l-20.4,17l-0.7-0.9L107,79.9z M55,80l-1.5,3.4
		l-0.5-0.9h-1.1l0.3-1l-0.7-0.8L55,80z M87.2,94.2l2.7-2.2c-1.2-5.8,3.5-8.2,7.9-6.5l2.7-2.3C95.4,78.9,83.5,81.8,87.2,94.2
		L87.2,94.2z M50.8,82.7c0.3,0,0.6,0.3,0.6,0.6c0,0.3-0.3,0.6-0.6,0.6c-0.3,0-0.6-0.3-0.6-0.6C50.2,83,50.5,82.7,50.8,82.7
		L50.8,82.7z M49,82.9c0.3,0,0.6,0.2,0.6,0.6c0,0.3-0.2,0.6-0.6,0.6c-0.3,0-0.6-0.3-0.6-0.6C48.5,83.1,48.7,82.9,49,82.9L49,82.9z
		 M58.4,84.1l-2.7,2.1c0.7,5.6-2,8.4-7.9,6.5L45,95C52.7,100.2,62.7,93.4,58.4,84.1L58.4,84.1z M50.2,84.6c0.3,0,0.6,0.3,0.6,0.6
		c0,0.3-0.3,0.6-0.6,0.6c-0.3,0-0.6-0.3-0.6-0.6C49.6,84.8,49.9,84.6,50.2,84.6L50.2,84.6z M106.3,84.7c0.3,0,0.6,0.3,0.6,0.6
		c0,0.3-0.3,0.6-0.6,0.6c-0.3,0-0.6-0.3-0.6-0.6C105.7,85,105.9,84.7,106.3,84.7L106.3,84.7z M49,84.8l-1.7,3.4l-0.4-1l-1.1,0
		l0.4-1.2l-0.7-0.6L49,84.8z M104,85.2l0.5,0.9l1.1,0l-0.4,0.8l0.8,0.8l-3.6,0.9L104,85.2z M44.9,87.6c0.3,0,0.6,0.3,0.6,0.6
		c0,0.3-0.3,0.6-0.6,0.6c-0.3,0-0.6-0.3-0.6-0.6C44.3,87.9,44.6,87.6,44.9,87.6L44.9,87.6z M43.3,87.7c0.3,0,0.6,0.3,0.6,0.6
		c0,0.3-0.3,0.6-0.6,0.6c-0.3,0-0.6-0.3-0.6-0.6C42.7,88,42.9,87.7,43.3,87.7L43.3,87.7z M101.2,88.1c0.3,0,0.6,0.3,0.6,0.6
		c0,0.3-0.3,0.6-0.6,0.6c-0.3,0-0.6-0.3-0.6-0.6C100.6,88.3,100.8,88.1,101.2,88.1L101.2,88.1z M107,88.1l0,1.3
		c-5.3,4.7-16.5,13.8-16.5,13.8l-0.7-0.9C89.8,102.3,101.2,93,107,88.1L107,88.1z M44.4,89.4c0.3,0,0.6,0.3,0.6,0.6
		s-0.3,0.6-0.6,0.6c-0.3,0-0.6-0.3-0.6-0.6S44.1,89.4,44.4,89.4L44.4,89.4z M102.3,89.5c0.3,0,0.6,0.3,0.6,0.6
		c0,0.3-0.3,0.6-0.6,0.6c-0.3,0-0.6-0.3-0.6-0.6C101.8,89.8,102,89.5,102.3,89.5L102.3,89.5z M100.7,89.6c0.3,0,0.6,0.3,0.6,0.6
		c0,0.3-0.3,0.6-0.6,0.6c-0.3,0-0.6-0.3-0.6-0.6C100.1,89.9,100.4,89.6,100.7,89.6L100.7,89.6z M107.2,89.8l0,1.6
		c-5.2,4.4-15.7,13.2-15.7,13.2l-0.8-1.1C90.6,103.5,102.2,93.6,107.2,89.8L107.2,89.8z M43.4,89.6l-1.6,3.6l-0.7-1l-1-0.1l0.2-1
		l-0.9-0.6L43.4,89.6z M98.6,91l1-0.2l-0.2,1l0.7,0.8l-3.7,0.8l1.8-3.4L98.6,91z M104.2,108.5c0.8,1.1,0.7,2.4,0.4,2.6
		c-0.3-0.2-0.6-0.5-1-0.7c-1.7-0.8-3.1-1.4-3.4-2.5C99.3,105.5,103.6,107.6,104.2,108.5L104.2,108.5z M95,101.9l5.9-4.8
		c0,0,0.9,0.5,1.1,0.7c0.1,0.2-0.1,0.3-0.3,0.5c-0.1,0.1-0.2,0.3-0.2,0.6c0,0.3,0.1,0.5,0,0.6c-0.2,0-0.4,0.3-0.4,0.5
		c0,0.2-0.2,0.4-0.4,0.5c-0.2,0.2-0.3,0.3-0.5,1.1c0,0.1,0,0.3-0.1,0.4c-0.3,0-0.6,0.9-0.7,0.9c-0.2,0-0.6-0.3-0.7-0.8
		c-0.1-0.3,0-0.9,0-1.2c0.1-0.4,0.1-0.8,0.1-0.9c-0.1-0.2-0.2-0.1-0.2,0.2c0,0.1-0.1,0.5-0.1,0.9s-0.3,0.9-0.2,1.2
		c0.2,0.5,0.7,0.7,1,0.9c0.7,0.6,0.8,1,0.9,1.1c0.6,1,0.6,1.2,0.4,2c-0.1,0.4-0.5,0.4-0.8,0.2c0,0-1.7-1.2-2.4-1.8
		C96.3,103.8,95.5,102.9,95,101.9L95,101.9z M97.3,105.2c0.6,0.3,2.3,1.4,2.3,1.4l-1.5,3.1c0.3,0.5,0.4,1.7,0.4,1.7
		c1.9-0.1,2.9,3,0,2.7c0.3,2-2.8,3.5-2.8,0c-3.3,0.3-2.2-3.5-0.2-2.8c-0.1-1.6,1-1.8,1.7-2.2c0.6-0.7,1-2.3,1-2.3l-0.1-0.5
		c-0.6,1.1-3.3,1.4-6.2,0.8C92.6,105.4,95,105.5,97.3,105.2L97.3,105.2z M91.4,107.5c-0.1,0.4-0.1,0.4,0.3,0.3c0.2,0,1.1,0,1.8,0
		c1.2,0.1,3,0.1,4-0.6c0.2-0.2,0.3-0.2,0.3-0.1c0.1,0.5-0.8,2-0.8,2l-1.5,0.8c0,0-0.6,0-1.4,0l0,1.3c-0.6,0.3-1.6,1.9,0,3l-0.1,1.5
		l1.4,0c1,0.9,1.7,0.9,2.6,0h1.7l0-1.6c0.8-0.7,0.9-1.8,0.1-2.7l0-1.6l-1.3,0c0,0-0.3-0.2-0.3-0.4c0-0.1,0.9-1.9,1.1-2.2
		c0.2-0.3,0.2-0.1,0.5,0.6c0.5,1.1,1.1,1.6,2.4,2.2c1.2,0.6,1.6,0.9,2,1.2c0.3,0.3,0.4,0.2,0.5-0.2c0.2-0.9,0.2-1.8-0.3-2.6
		c-1-1.7-2.8-1.8-3.1-2.2c0-0.1,0.3-0.2,0.7-0.4c0.7-0.4,1.7-1.7,1.8-2.2c0-0.2,0.1-1,0.3-1.2c0.1-0.3,0.2-0.4,0.1-1.2
		c-0.1-0.5,0-1,0-1.3c0.1-0.4-0.2-0.9-0.5-1.5c-0.1-0.6-0.1-0.4,0.3-1.7c0.1-0.2,0.5-1.9-0.1-2.1c0,0,0.1,0.1,0.1,0.1
		c0.1,0.2,0.1,0.9,0.1,1.1c0,0.1-0.1,0.3-0.1,0.5c-0.3,1.4-0.5,1.8-0.8,1.4c-0.1-0.1-0.3-0.2-0.5-0.3c-0.4-0.3-0.3-0.4-0.3-0.8
		c0-0.1,0.2-0.7,0.2-0.7c-0.1,0.2-0.1,0.8-0.4,0.9c-0.1,0-0.3-0.1-0.7-0.4c-0.1-0.1-0.4-0.3-0.4-0.3s4.2-3.6,5.8-4.8l0,52.9l-30,0
		c-0.4-3.3,0.6-7.6,2.2-12c1-2.7,2.5-4.7,4.1-7.1c3.1-4.6,5.5-9.2,4.6-15.1c-0.1-0.9-0.2-1.3-0.2-1.5c0.4-0.7,1.9-2.9,3-3.8
		c1.6-1.3,3.9-3.3,4.1-3.2c0.5,1,1.2,1.9,2,2.5c0.1,0.2,0.2,0.3-0.2,0.4C94.5,105.1,92.2,105.6,91.4,107.5L91.4,107.5z M39.3,92.5
		c0.3,0,0.6,0.3,0.6,0.6s-0.3,0.6-0.6,0.6c-0.3,0-0.6-0.3-0.6-0.6S39,92.5,39.3,92.5L39.3,92.5z M95.4,92.6c0.3,0,0.6,0.3,0.6,0.6
		s-0.3,0.6-0.6,0.6c-0.3,0-0.6-0.3-0.6-0.6S95.1,92.6,95.4,92.6L95.4,92.6z M96.7,94.2c0.3,0,0.6,0.3,0.6,0.6s-0.3,0.6-0.6,0.6
		s-0.6-0.3-0.6-0.6S96.4,94.2,96.7,94.2L96.7,94.2z M94.8,94.5c0.3,0,0.6,0.3,0.6,0.6c0,0.3-0.3,0.6-0.6,0.6c-0.3,0-0.6-0.3-0.6-0.6
		C94.2,94.7,94.5,94.5,94.8,94.5L94.8,94.5z M92.8,95.8l1-0.1c-0.1,0.4-0.2,0.8-0.3,1.2l0.9,0.6l-3.7,0.6l1.6-3.3L92.8,95.8z
		 M90.2,105.3l-6.2-8l0.7-0.6l6.3,7.9L90.2,105.3z M89.5,97.5c0.3,0,0.6,0.3,0.6,0.6c0,0.3-0.3,0.6-0.6,0.6c-0.3,0-0.6-0.3-0.6-0.6
		C88.9,97.8,89.2,97.5,89.5,97.5L89.5,97.5z M102.5,98.4c0.5,0.4,0,0.9-0.5,0.7c-0.4-0.2-0.4-0.6-0.1-0.8
		C102.2,98.3,102.3,98.3,102.5,98.4L102.5,98.4z M103.2,98.8c0.5,0,1.1,1.2,1,1.6c-0.2,0.4-0.3,0.4-1-0.2c-0.7-0.6-0.7-0.6-0.4-1
		C102.9,99.1,102.9,98.8,103.2,98.8L103.2,98.8z M90.9,99c0.3,0,0.6,0.3,0.6,0.6c0,0.3-0.3,0.6-0.6,0.6c-0.3,0-0.6-0.3-0.6-0.6
		C90.3,99.3,90.6,99,90.9,99L90.9,99z M89.1,99.2c0.3,0,0.6,0.3,0.6,0.6s-0.3,0.6-0.6,0.6c-0.3,0-0.6-0.3-0.6-0.6
		S88.8,99.2,89.1,99.2L89.1,99.2z M101.8,99.7c0.6,0.1,0.7,0.5,0.5,0.8c-0.4,0.4-1.2,0-1-0.5C101.4,99.8,101.6,99.7,101.8,99.7
		L101.8,99.7z M102.8,100.3c0.2,0,0.6,0.3,0.9,0.8c0.4,0.6,0.4,0.8,0.3,1.1c-0.2,0.5-0.3,0.6-0.6,0.1c-0.1-0.2-0.5-0.6-0.7-0.9
		c-0.5-0.5-0.6-0.4-0.3-0.8C102.6,100.5,102.7,100.3,102.8,100.3L102.8,100.3z M101.5,100.9c0.5,0.3,0.6,0.6,0.3,0.9
		c-0.4,0.2-1,0-1.1-0.4C100.5,100.9,101,100.6,101.5,100.9L101.5,100.9z M102.4,101.7c0.3,0,0.5,0.3,0.9,0.9c0.6,1,0.6,1.3,0.1,1.9
		c-0.4,0.5-0.4,0.5-0.8-0.3c-0.3-0.6-0.9-1.3-1.4-1.7c-0.2-0.2-0.3-0.4-0.1-0.4c0,0,0.2,0,0.4,0c0.3,0,0.4,0,0.5-0.2
		C102.2,101.7,102.3,101.7,102.4,101.7L102.4,101.7z M100.3,102.4c0.3,0,0.6,0.1,0.9,0.4c0.3,0.3,0.3,0.6-0.3,0.7
		c-0.3,0.1-1-0.4-1-0.7C99.9,102.6,100.1,102.4,100.3,102.4L100.3,102.4z M101.7,103.6C101.7,103.6,101.7,103.6,101.7,103.6
		c0.3,0,0.4,0.2,0.7,0.8c0.4,0.8,0.3,1.3-0.4,1.7c-0.5,0.3-0.9,0.3-0.9,0c0-0.1,0-0.3-0.1-0.6c-0.1-0.3-0.1-0.6-0.4-1.1
		c-0.4-0.7-0.5-0.9,0-0.7c0.3,0.1,0.5,0.1,0.8-0.1C101.4,103.6,101.6,103.6,101.7,103.6L101.7,103.6z M99.2,104.9
		c-0.2,0-0.3,0.1-0.2,0.4c0.2,0.1,0.4,0,0.6,0.1c0.2,0.1,0.4,0.5,0.7,0.4C100.2,105.4,99.6,104.9,99.2,104.9L99.2,104.9z
		 M49.1,110.8c-1.4-0.6-4.7-2.1-6.3-2.2c-3-0.8-3.2-0.5-4.2-0.7c5.6-1.4,9.4,1.3,10.8,2.7C50,111.2,49.6,111,49.1,110.8L49.1,110.8z
		 M52.6,123.9c3.2,5.5,6.1,11.7,11.1,20.9l-0.5,0.1l-19,0c0.9-10.2-4.6-19.9-4.9-19.5c4.3,0.1,7.9-0.7,8.6-2.3l-0.6-0.2
		c-2.5,2.2-6.1,2.3-8.6,1.6c0.1-5.3-0.2-10.9-0.1-16.2c3-0.2,5.3,0.9,6.9,3C48.3,115,50.2,119.7,52.6,123.9L52.6,123.9z M44,109.2
		c0.8-0.1,4.9,1.6,6.8,2.9c0.5,0.5,1.3,1.5,1.3,1.6c0,0.2-0.4-0.1-2.2-1.1c-1.4-0.8-2.8-1.4-4.1-2c-0.1,0-0.2-0.1-0.2-0.1
		s-0.1-0.1-0.3-0.3C44.7,109.9,43.8,109.2,44,109.2L44,109.2z M46,111.1c0,0,4.1,1.5,7.4,4.1c0.4,0.4,1,1.7,1,1.7
		c-0.3-0.6-5.5-3.7-7.4-4.4C47,112.5,46,111.1,46,111.1L46,111.1z M47.4,113.1c0.2-0.1,6.3,3.5,7.2,4.4c0.4,0.3,1.3,1.8,1.4,2.1
		c0,0.3-0.3,0-0.8-0.5c-2.8-2.6-6.8-4.6-6.9-4.5L47.4,113.1z M48.6,115.2c2.9,1.2,6.4,4.1,8.2,5.8c0.5,0.4,0.8,1.1,0.8,1.4
		c0,0.2-0.1,0.2-0.1,0.3c-2.3-2.7-7.5-5.8-8.2-6C49.4,116.9,48.8,115.7,48.6,115.2L48.6,115.2z M58,123.6c0.3,0.3,0.8,1.5,0.7,1.7
		c-0.1,0.1-0.1,0-0.2-0.1c-0.7-0.7-4.6-4.2-7.8-6.1c-0.3-0.2-1.3-1.7-1.1-1.8C51.3,117.9,56.2,121.7,58,123.6L58,123.6z M51.1,119.8
		c0.1,0,0.2,0.1,0.3,0.2c3,1.6,7.2,5.7,8.1,6.7c0.2,0.3,0.5,0.9,0.5,1.2c0,0.3-0.1,0-1.3-1.1c-1.9-1.9-4.1-3.7-6.5-5.2
		c-0.5-0.3-0.4-0.3-0.7-0.9C51.1,120,51,119.8,51.1,119.8L51.1,119.8z M70,119.8c2.1,0.1,2.9,1.7,4.2,4.6c1.1,2.9,1.5,5.6,1.6,7.7
		c0,0.1-0.3,0-0.4,0c-0.6-0.2-1.3-0.3-2.1-0.1c-0.6,0.2-1.2,0.1-0.6-0.3c0.2-0.1,0.7-0.6,1-0.8c0.6-0.4,0.2-0.4-0.3-0.1
		c-0.4,0.2-0.7,0.5-0.9,0.5c-0.1,0,0-0.3,0.1-0.6c0.6-1.5,0.8-2.4-0.1-2.7c-0.2-0.1-0.6-0.3-0.7-0.5c-0.1-0.1-0.2-0.6-0.3-0.6
		c0,0-0.1,0.4-0.1,0.5c0,0.2,0.3,0.7,0.7,1c0.6,0.5,0.8,0.6,0.4,1.7c-0.5,1.5-0.6,1.9-0.7,2.2c-0.1,0.2-0.2,0.5-0.2,0.8
		c-0.2,0.9-0.2,1.6-0.1,2.3c0.2,1.6,1.9,2.4,4.2,1.5c0.2-0.1,0.3,0,0.3,0c-1.8,1.9-3.9,3.1-5.1,6.8c-1.5-3.1-3.7-5.6-7.4-6.5
		l-0.1-0.6c1.3,0.6,3.7,1.4,5.3,0.5c0.8-0.6,0.6-0.9-0.4-0.5c-1.2,0.5-3.4,0.4-4.5-0.2c-0.2-0.1-0.4,0-0.5,0
		c-0.1-0.4-0.6-1.7-0.5-2.3c0-0.1,0.3-0.1,0.4,0c0.3,0.4,1.8,1.6,3.4,1.5c0.8,0,1.4-0.3,2.1-1c0.1-0.1,0.3-0.1,0.4-0.1
		c0.1-0.1,0-0.2,0-0.2c0-0.1-0.1-0.2-0.2-0.4c-0.1-0.1-0.1-0.3-0.1-0.4c0-0.1,0.1-0.2,0.1-0.2c0.1-0.1,0-0.3,0-0.4
		c-0.1-0.1-0.1-0.3,0-0.4c0.2-0.2-1.9-2.1-2.3-2.1c-0.1,0-0.1,0.3,0.2,0.5c1,0.7,1.8,1.6,1.6,1.7c-0.1,0.1-0.6-0.1-1.1-0.2
		c-1-0.2-2.1-0.4-3.4,0.5c-0.5,0.4-1.7,0.4-1.7,0.4c0-0.7-2.9-8.2-2.9-7.9c1-1.2,4.3-4.1,7.6-5.3C68.2,119.9,69.3,119.7,70,119.8
		L70,119.8z M57.6,121.5l5.9,0.1c-1.5,0.7-4.2,3.4-4.2,3.4C58.6,123.5,58.3,122.7,57.6,121.5L57.6,121.5z M52.5,122.3
		c0.4,0,5.1,3.8,5.8,4.7c0.1,0.1,0.6,0.6,1.1,1.1c1.2,1.2,1.7,1.9,1.7,2.4c0,0.2-0.2,0.1-0.5-0.3c-2.4-2.7-4-4.2-7-6.2
		C53.2,123.9,52.1,122.5,52.5,122.3C52.5,122.3,52.5,122.3,52.5,122.3L52.5,122.3z M68.6,123c-0.1,0-0.1,0.1,0,0.2
		c0.7,0.7,2.7,0.6,3.4,0.1c0.6-0.5-0.2-0.2-0.4-0.1c-0.6,0.3-1.2,0.2-2,0C69,123.1,68.7,123,68.6,123L68.6,123z M70.4,124.1
		c-0.7,0-1.4,0.2-1.3,0.5c0.1,0.1,0.2,0.3,0.7,0c0.6-0.3,2,0.1,2,0.1c0.1,0-0.4-0.4-0.6-0.5C71,124.1,70.7,124.1,70.4,124.1
		L70.4,124.1z M53.8,124.8c2.5,1.5,5.6,4.6,7.5,6.8c0.3,0.4,0.5,0.8,0.5,1.1c0,0.4-0.1,0.2-1.8-1.5c-1.3-1.3-3.3-3.2-4.6-4.2
		c-0.8-0.6-0.9-0.7-1.3-1.3C53.8,125.1,53.6,124.8,53.8,124.8L53.8,124.8z M69.6,125.3c-0.5,0.2-1.1,0.2-1.7,0
		c-0.6-0.2-0.4,0-0.2,0.6c0.1,0.3,0.2,0.7,0.2,0.7c0,0.1,0,0.1,0.4-0.1c0.3-0.2,0.4-0.3,1.1-0.1c0.7,0.2,0.8,0.1,1.1-0.1
		c0.3-0.2,0.4-0.3,0.6-0.2c0.4,0.2,0.9,0.2,1.4,0c0.4-0.2,0.5-0.1,0.7,0c0.3,0.1,0.3,0,0.3-0.2c0-0.1-0.1-0.5-0.1-0.7
		c0-0.3-0.1-0.5-0.2-0.4c-0.4,0.2-0.7,0.4-1.1,0.4C71.2,125.3,70.6,124.8,69.6,125.3L69.6,125.3z M38.8,125.8
		c6.3,7.8,5.2,19.2,5,19.1l-4.9,0L38.8,125.8z M55.1,127.4c2.5,1.8,5.5,4.8,7.2,7c0.3,0.4,0.1,0.5,0.2,0.9c0.1,0.2-0.2-0.1-1-0.9
		c-1-1.1-2.6-2.7-3.7-3.6c-1.2-1-1.5-1.3-1.8-1.6C55.8,128.9,55,127.5,55.1,127.4L55.1,127.4z M69.3,128.1
		C69.3,128.1,69.2,128.1,69.3,128.1c-1,0-1.4,1-0.7,1.8c0.3,0.3,0.7,0.4,0.7,0.3c0,0-0.1-0.2-0.2-0.3c-0.6-0.5-0.6-1.3,0.2-1.3
		c0.3,0,0.3,0.1,0.9,0.5c0.7,0.5,1.5,0.5,1.5,0c0-0.4-0.1-0.7-0.8-0.7c-0.2,0-0.4,0-0.6,0c-0.2,0-0.3-0.2-0.4-0.2
		C69.7,128.2,69.5,128.1,69.3,128.1L69.3,128.1z M56.8,130.5c1.9,1.3,4.6,4.2,5.9,5.9c0.3,0.4,0.3,0.9,0.2,1.1c0,0-0.3-0.1-0.3-0.1
		c-1.6-1.8-3.3-3.5-5.1-5.2C57.6,132.2,56.5,130.5,56.8,130.5L56.8,130.5z M75.4,133.2l-0.4,0.2c-0.6-0.9-1.2-1-1.7,0.1l-0.3-0.1
		C72.8,133.3,73.9,130.9,75.4,133.2L75.4,133.2z M75.3,132.4c0.2,0,0.5,0.1,0.5,0.3c0.1,0.2,0,0.3-0.2,0.3c0,0-0.3-0.3-0.4-0.5
		C75.2,132.5,75.2,132.4,75.3,132.4L75.3,132.4z M68.3,133.6l-0.5,0c-0.9-1.2-1.5-0.4-1.9,0.1l-0.5-0.1
		C65.4,132.4,67.7,131.9,68.3,133.6L68.3,133.6z M72.8,132.6c0.1,0,0.1,0,0.2,0c-0.2,0.3-0.2,0.5-0.3,0.8c-0.2,0.1-0.4,0.2-0.6,0
		C71.8,133.1,72.3,132.6,72.8,132.6L72.8,132.6z M65.5,132.7c0.2,0,0.2,0,0.1,0.1c-0.1,0.1-0.2,0.3-0.3,0.5c0,0.1-0.1,0.2-0.2,0.2
		c-0.2,0-0.7-0.1-0.7-0.1C64.2,133.3,65,132.8,65.5,132.7L65.5,132.7z M68.3,132.9c0.1,0,0.1,0.2,0.1,0.3c-0.1,0.1-0.1,0.1-0.2,0
		c0-0.1-0.1-0.1-0.1-0.2c-0.1-0.1-0.1-0.1,0-0.1C68.2,132.9,68.3,132.9,68.3,132.9L68.3,132.9z M76,133.8c0.5,0,0.2,0.9-0.6,1.1
		c-0.8,0.4-1.8,0.3-2.8-0.2c-0.6-0.3-0.7-0.6-0.2-0.5c1.8,0.5,2.3,0.4,3.4-0.3C75.8,133.8,75.9,133.8,76,133.8L76,133.8z
		 M58.4,133.6c1.8,1.5,3.2,3.3,4.6,4.9c0.3,0.4,0.4,0.7,0.4,0.9c-0.1,0.3-0.7-0.4-0.7-0.4c0,0-3.5-3.8-3.5-3.8
		S58.3,133.6,58.4,133.6L58.4,133.6z M63.9,134.2c0.1,0,0.4,0.1,0.8,0.2c1.7,0.5,2.3,0.5,3.3,0c0.6-0.3,0.9-0.3,0.6,0.2
		c-0.5,0.8-2.3,0.9-3.6,0.4c-0.4-0.1-0.7-0.3-1-0.6C63.7,134.2,63.7,134.2,63.9,134.2L63.9,134.2z M71.9,134.7
		c0.1,0,0.3,0.1,0.5,0.2c1.5,0.8,2.5,0.7,3.4,0.1c0.2-0.1,0.3-0.1,0.3,0.1c0.1,0.5,0.1,0.9-0.1,1.1c-0.1,0.1-0.4,0.2-0.7,0.3
		c-1.4,0.5-3.1,0.1-3.5-0.9C71.7,135.1,71.7,134.7,71.9,134.7L71.9,134.7z M60.3,137C60.3,137,60.3,137,60.3,137
		c0.1,0,0.4,0.2,0.7,0.6c1.9,2.2,3,3.5,2.8,4.1c0,0,0,0.1-0.1,0.1c-1.1-0.9-1.9-1.9-2.6-3C60.4,137.6,60.2,137,60.3,137L60.3,137z
		 M76,138.5c-1.6,1.3-3.6,4.2-3.8,5.7c0,0.3,0,0.5-0.1,0.6c-0.1,0.1-0.3,0.1-0.5,0c-0.2,0-0.1,0-0.2-0.2c-0.1-0.7,0.5-2.4,1.8-4.4
		c0.7-1,2.3-2.5,2.7-2.5C76.3,137.9,76,138.5,76,138.5L76,138.5z M63.8,137.8c0.1,0,0.3,0.1,0.5,0.2c1.5,0.6,2,0.9,3,1.6
		c1.8,1.4,3.7,4.9,3.2,5.2c-0.3,0.1-0.4,0.1-0.5-0.3c0-0.1-0.2-0.5-0.4-0.9c-1.2-2.2-2.7-3.7-4.9-4.8c-0.8-0.4-0.9-0.4-1-0.7
		C63.6,138,63.7,137.8,63.8,137.8L63.8,137.8z M76,139.1c0.1,0,0.2,0.3,0.1,0.8c0,0.4-0.1,0.4-0.6,1c-0.8,0.6-1.7,2.1-2.1,3.7
		c0,0.1,0,0.2-0.1,0.2c-0.2,0.2-0.5,0.1-0.6,0.1c-0.1-0.1-0.1-0.3-0.1-0.5c0.4-1.4,1.2-3.1,2.6-4.6C75.6,139.3,75.8,139.1,76,139.1
		L76,139.1z M64.1,139.1c0.8,0,3.5,2,4.7,3.9c0.7,1.2,0.9,1.7,0.8,1.8c-0.1,0.1-0.5,0.1-0.7,0c-0.2-0.1-0.3-0.4-0.6-1
		c-0.9-1.7-2.2-3-3.7-3.6c-0.3-0.1-0.4-0.2-0.5-0.3C64,139.7,63.9,139.2,64.1,139.1L64.1,139.1z M64.6,140.7c0.2,0,0.9,0.5,1.5,0.9
		c1,0.7,2.5,2.9,2.2,3.3c-0.1,0.1-0.4,0.1-0.6,0c-1.1-1.9-2.4-2.8-3-3.3C64.4,141.3,64,140.6,64.6,140.7L64.6,140.7z M62.4,141
		c0,0,0.2,0.2,0.6,0.5c1,1,1.6,2.2,1.5,2.8c-0.1,0.5-0.3,0.2-1.4-1.9C62.5,141.5,62.3,141,62.4,141L62.4,141z M76,141
		c0,0.6,0,0.8-0.1,1.1c0,0.2-0.2,0.3-0.3,0.5c-0.3,0.4-0.7,1.1-0.9,1.7c-0.2,0.5-0.1,0.6-0.7,0.5c-0.3,0-0.2-0.1-0.1-0.4
		C74.2,143.4,75.1,141.7,76,141L76,141z M64.7,142.2c0-0.3,2.7,2.4,2.3,2.7c-0.3,0.1-0.5,0.1-0.7,0c-0.3-0.6-1.5-1.8-1.5-1.8
		L64.7,142.2z M75.8,143C75.8,143,75.8,143,75.8,143c0.1,0,0.1,1.7,0,1.8c-0.2,0.1-0.5,0.1-0.7,0c-0.1-0.1-0.2-0.2-0.1-0.3
		C75.1,144.2,75.6,143.1,75.8,143L75.8,143z M65.8,144.8c-0.1,0.1-0.6,0.2-0.8,0c-0.1,0-0.1-0.9,0-1
		C65.1,143.7,65.9,144.7,65.8,144.8L65.8,144.8z M65.8,144.8"/>
	<path d="M31.3,26.5c-2.1,0-3.1,1.8-3.1,3.5l0,4.5H27V36h1.2c0,0,0,0.7,0,1.1c0,2,0.7,3.3,2.1,3.6c1.4,0.2,2.1,0,3.1-0.6
		c0.4,0.2,0.6,0.5,1,0.5c0.4,0,1.4,0,1.4,0l0-1.5l-0.5-0.1c-0.9,0-1.3-0.3-1.2-0.9c0.2-0.4,0.2-0.6,0.2-1.1v-7.7
		C34.4,27.6,32.8,26.5,31.3,26.5L31.3,26.5z M31.3,28c1,0,1.8,1.1,1.8,2.3l0,5.9c0,0.4,0,0.7-0.2,1c-0.1-0.4-2.2-2.5-3.2-2.4
		c0,0,0,0.1-0.1-2.5c0-1.3-0.4-3.2,0.8-4.1C30.7,28.1,31,28,31.3,28L31.3,28z M84.7,33.1l0.3,0.4l-1.9,0c0.3,0.3,7.5,14.8,16.7,31.5
		c1.5,2.9,4.4,4,7.8,4.1l-9-14.4c1-0.5,2.8-1.9,4-1.7c0.1,0.4,0.4,0.2,0.4-0.1l0.4,0l0.1,0.2h1.7l0.1-0.2l1.5,0.2
		c-4-4.9-6.1-12.6-5.4-20l-13.3,0l-0.2-0.2L84.7,33.1z M83.1,33.6C83.1,33.5,83.1,33.5,83.1,33.6L83.1,33.6z M67.8,43.2
		c-1.5,4.9-5.2,8.9-7.5,12.9c-2.4,4.4-2.9,8.3-2.3,12.4l0.4,0c5.1-6.9,9-15.2,11.2-23.3c0-0.2,0-0.5,0-0.7c-0.1-0.2,0-0.4,0-0.5
		c0.1-0.1,0.1-0.7,0-1.5c-0.2-2.6-0.2-4.6,0-7c0.2-1.8,0.2-2.1,0.2-2.1l-0.9,0C69.2,36.6,68.8,40.4,67.8,43.2L67.8,43.2z M88.7,33.8
		l1.4,0c0.2,4.4,3.9,4.9,4.5,4.9c-0.9,2.9,0.6,6.2,4.4,6.6c-0.9,2.7,0.7,6.3,3.7,6.2l0.3,0.2c-0.2,0.4-0.2,1.2-0.2,1.2
		c-0.7,0-1,0.1-1.5,0.2C97.3,47.4,88.7,33.8,88.7,33.8L88.7,33.8z M101.4,33.8c-0.4,4.9,0.5,11.6,2.8,15.5c0,0-0.1,0.3-0.1,0.3
		c-0.2,0.3-0.3,0-0.5-0.2c-0.5-0.9-1.4-1-1.8-0.5c-0.9,1.2,0.1,1.7,0.8,2.4c-3.1-0.2-4.1-3.6-3.4-5.2c0,0.3,0.2,0.8,0.4,1.1
		c0.9,1.3,2.1,0.2,1.8-0.8c-0.1-0.4-0.7-1.1-0.7-1.1s0.7-0.1,1-0.3c0.3-0.2,0.5-0.5,0.4-0.9c-0.1-0.3-0.1-0.5-0.3-0.8
		c-0.2-0.3-0.6-0.5-1-0.5c-0.6,0-0.7,0.5-1.1,0.8c-0.1-0.8-0.6-1.4-1.4-1.2c-0.6,0.1-1.1,0.8-0.7,1.6c0.2,0.4,0.5,0.6,0.7,0.9
		c-4.4-0.5-3.9-5.7-3.4-5.6c0,0,0.1,0,0.1,0.2c-0.3,1.3,1.3,2,2,1.1c0.4-0.8-0.5-1.9-0.5-1.9s0.6-0.1,0.9-0.3
		c1.1-0.7-0.1-2.6-1.1-2.1c-0.4,0.2-0.5,0.5-0.8,0.7c-0.2-0.3-0.3-0.6-0.7-0.8c-1.2-0.7-2,0.9-1.3,1.6c0.3,0.3,0.8,0.5,0.7,0.6
		c-3.7-0.5-3.7-4.4-3.6-4.4L101.4,33.8z M69.2,33.8h0.5c-0.2,2.3-0.5,5.4-0.3,7.7c0.3,2.2,0.3,2.5,0.1,2.7c-0.2,0.2-0.1,0.4-0.1,0.5
		c0.1,0.4,0.1,0.4,0,0.6c-0.5,1.8-1,3.7-1.8,5.6c-2.4,6.6-6.3,13.9-9.4,17.7c0,0-0.1,0-0.1,0c-0.8-5.3,1-9.7,1.9-11.5
		c1.9-3.7,4.9-6.8,6.7-10.7C68.3,43.1,69.4,39.1,69.2,33.8L69.2,33.8z M88.1,33.8l12.5,19.5l-2.3,1.1L85.6,33.8L88.1,33.8z
		 M50.4,35.8c-4.4,0.1-6.6,5.7-2.9,8.4c0.7,0.5,0.9,0.8,0.7,0.9c-0.2,0.2-0.4,0.1-0.7-0.2c-2.9-2.8-7.4-1.3-7.8,2.7
		c-0.7,6.5,7.4,8.3,9.5,2c0.6-1.8,0.9,0.1,0.3,2c-0.5,1.8-1.3,3.5-2.3,5c-0.2,0.2-0.4,0.6-0.4,0.6h7.1c0,0-0.2-0.3-0.6-0.7
		c-1.3-1.9-2-4.1-2.2-6.4c-0.1-0.6,0-1.1,0.1-1.2c0.2-0.1,0.3,0,0.6,0.8c0.5,1.6,1.4,2.9,2.4,3.4c2.4,1,4.4,0.7,6.1-1.5
		c3.6-4.8-2.3-10.7-6.5-6.8c-0.4,0.4-0.6,0.4-0.7,0.1c0-0.1,0.1-0.3,0.6-0.8c3.6-2.9,1.8-7.8-2.7-8.3C50.8,35.8,50.6,35.8,50.4,35.8
		L50.4,35.8z M32.3,38.8c0.1,0.2-0.2,0.4-0.6,0.5c-1,0.3-2-0.3-2-1.8c0-0.4,0-0.9,0.1-1C30.2,36.3,32,38.2,32.3,38.8L32.3,38.8z
		 M95.5,37.6c0.3,0,0.6,0.3,0.6,0.6c0,0.3-0.3,0.6-0.6,0.6s-0.6-0.3-0.6-0.6C94.9,37.8,95.2,37.6,95.5,37.6L95.5,37.6z M31.1,42.7
		c-2,0-3.1,2.8-1.2,4.4c0.3,0.3,0.5,0.5,0.4,0.6c-0.1,0.1-0.1,0-0.5-0.3c-1.8-1.3-4-0.1-3.8,1.7c0.3,2.6,3.2,3.3,4.3,0.8
		c0.2-0.4,0.3-0.6,0.4-0.6c0.1,0,0.1,0.2,0.1,0.5c-0.2,1.1-0.7,2.3-1.4,3.3h3.3c-0.7-1-1-2-1.1-3.3c0-0.3,0-0.6,0.2-0.6
		c0.1,0,0.1,0.1,0.3,0.7c0.5,2.1,3.7,2,4.3-0.1c0.6-2.4-1.6-4-3.5-2.5c-0.3,0.2-0.5,0.4-0.6,0.2c0,0,0.2-0.3,0.4-0.6
		C34.5,45.2,33.3,42.7,31.1,42.7L31.1,42.7z M99.7,44.1c0.3,0,0.6,0.3,0.6,0.6c0,0.3-0.3,0.6-0.6,0.6s-0.6-0.3-0.6-0.6
		C99.1,44.4,99.3,44.1,99.7,44.1L99.7,44.1z M69.8,45.3c0.2,0.9-4,13.6-9.9,21.7l2.6,0.1l0.1,0.3c3.6,5.4,1.4,10.2-1.6,12.4l1,1.4
		L61,81.8l-0.9-1.1c-7.5,5.6-22,18-22,18l0.1,2l1.1-0.9c7.4,7.1,23.1,6.8,27.2-8l1.1,0c-2.5,10.8-12.6,15.1-20.2,13.3l-1.8,2.6
		l0.5,0.3c-0.1-0.1-0.2-0.2,0-0.3l1.5-2c11.4,1.5,18.3-5,20.6-13.8l1.5,0c-1.3,7.4-4.7,13.8-9.6,18.9c-3.5,0-9.8-0.1-9.8-0.1
		c2.3,2.2,6.6,8.9,6.8,9.6c0,0,4.5,0.1,9.2,0c1.8-0.8,4.1-1.1,5.2-0.6c1.9,1,3.7,4.6,4.6,10.4c0.2,1.5,0.4,2.1,0.5,2.4
		c0,0.1,0.1,0.1,0.2,0.1c0.1,0-0.1,0.3-0.1,0.5c0,0.2,0,0.6,0.1,0.7c0.1,0.1,0.1,0.2,0.1,0.3c0,0-0.3,0.3-0.3,0.3
		c0,3.4,0,6.4-0.2,10.6l0.7,0c0-6.7,2-12.8,5.1-17.1c1.9-2.8,3.9-5.8,5-8.6c1.2-3.2,1.4-6.6,0.7-9.5l-0.5,0
		c-2.7-1.9-3.8-5.9-0.5-8.7l-1.2-1.5c-3.4,2.6-4.1,7.4-0.6,11.3l-1.4,0c-3.4-4.2-2.6-9.1,1.3-12.6l-0.9-1.1l1-0.8l0.9,0.9L107.6,79
		l0-2l-1.7,1.4c-9.8-9.1-24.4-2.7-26.5,8.2l-1.3,0c2.8-11.8,13.1-15.1,20.5-13.5l1.8-2.8c-1.7-0.5-3.3-1.7-4.7-3.1
		c0,0-0.4,0.1-0.4,0c0,0,0.2-0.2,0.1-0.3c-3.6-3.7-6.1-9.1-6.2-9.1l-9.6,0c-1.4,0.7-3.8,1.5-5.1,0.4c-2.8-2.3-3.8-6.9-4.2-9.9
		c-0.1-0.9-0.2-2.5-0.3-3.1C70,45.2,69.9,45.2,69.8,45.3L69.8,45.3z M103.8,50.4c0.3,0,0.6,0.3,0.6,0.6c0,0.3-0.3,0.6-0.6,0.6
		c-0.3,0-0.6-0.3-0.6-0.6C103.2,50.7,103.5,50.4,103.8,50.4L103.8,50.4z M105,51.1c0.5,0.6,0.9,1.2,1.1,1.9c-0.2,0-0.4,0.1-0.7-0.1
		c-0.1-0.7-0.3-1.1-0.7-1.5L105,51.1z M103.3,51.9c0.2,0.1,0.3,0.8,0.2,1c-0.2,0-0.4,0-0.5,0C102.9,52.7,103.1,52,103.3,51.9
		L103.3,51.9z M65.1,58.3l8.9,0c1.5,1.2,3.1,1,5.3,0.1h9.9l0.6,1H64.6C64.8,59,65.1,58.3,65.1,58.3L65.1,58.3z M64.4,59.9H90l0.6,1
		H63.8L64.4,59.9z M66.9,61.4h2.9l-1.1,1.8h-3L66.9,61.4z M73.2,61.4H76l-1.2,1.8H72L73.2,61.4z M82.1,61.4L81,63.2h-2.8l1.2-1.8
		L82.1,61.4z M85.6,61.4h2.8l-1,1.8h-2.8L85.6,61.4z M48.6,61.7c-1.8,0-1.5,2.3-1.3,2.3c-1.1-0.3-1.9,0.3-2.1,1.2
		c-0.1,0.8,0.6,1.8,1.9,1.7c-0.2,0.2,0,1.3,0.2,1.4c0,0,0,0.2-0.7,1.6c-0.8,1.7-1,1.8-1.3,0.7c-0.4-1.2-1-1.8-2.6-2.6
		c-0.4-0.2-1-0.6-1.3-0.8c-0.7-0.5-0.7-0.5-0.7,0.6c0,1.4,0.5,2,2,2.9c0.7,0.4,2.1,1,2.4,1c0.2,0,0.8,0.3,1.8,0.8
		c0.2,0.1,0.8,0.5,1.7,0.5c0.9,0.1,2.9-0.1,4.1-0.8c0.7-0.4,0.9-0.7,1.4-1.7c0,0-1.6,0.1-2.4-0.1c-1.6-0.1-2.3,0-3.5,0.6
		c-1,0.5-1,0.6-0.6-0.2c0.2-0.4,0.4-0.8,0.5-1.3c0.2-0.5,0.2-0.5,0.7-0.5c0.9-0.1,1.5-0.6,1.6-1.6c0-0.3,0-0.5,0-0.5
		c0.6,0.1,2-0.2,1.9-1.6c0-1.2-0.9-1.5-2-1.6C50.4,63,49.9,61.7,48.6,61.7L48.6,61.7z M48.7,62.1c1.6,0,1.5,1.4,0.8,2.3l-0.8-0.7
		L48,64.3C47.3,63.8,47.3,62.1,48.7,62.1L48.7,62.1z M91.4,62.1l0.8,1.1h-1.6L91.4,62.1z M62.2,63.7h2.9L64,65.4h-2.8
		C61.2,65.4,61.8,64.3,62.2,63.7L62.2,63.7z M71.5,63.7l-1.1,1.7h-2.6l1-1.7L71.5,63.7z M74.9,63.7h2.7l-1.1,1.8h-2.6L74.9,63.7z
		 M81.2,63.7h2.7l-1.1,1.8h-2.7L81.2,63.7z M87.3,63.7h2.8l-1.1,1.8h-2.7L87.3,63.7z M48.7,64.1l1.3,1.3l-1.3,1.3l-1.3-1.3
		L48.7,64.1z M52,65.4c-0.2,1.5-1.7,1.5-2.1,0.7l0.6-0.7l-0.7-0.7C50.5,63.5,52.2,64.2,52,65.4L52,65.4z M47.6,64.6l-0.7,0.8
		l0.8,0.8c-0.5,0.7-2.4,0.6-2.1-1C45.9,64.1,47,63.9,47.6,64.6L47.6,64.6z M92.9,64.4l0.8,1.1l-1.5,0L92.9,64.4z M61,65.8l32.9,0.1
		l0.9,1.1c-11.5,0.2-22.7-0.2-34.5-0.2L61,65.8z M49.5,66.5c1.3,0.8,0.3,2.5-1.1,2.2c-1-0.5-1.3-1.5-0.3-2.2l0.7,0.6L49.5,66.5z
		 M60.7,67.1l-0.9,0l-0.9,1c3.3,3.5,3.2,6.5,0.1,9.1l1.2,1.4C63.8,75.7,64.5,71.1,60.7,67.1L60.7,67.1z M64.1,67.3
		c1.9,2.9,3.5,8.4-2.1,13.4l-0.7-0.8c4.8-4.7,3.7-8.6,1.5-12.6L64.1,67.3z M64.6,67.3l7.5,0c-1.6,6.1-2.7,9.7-2.9,19.2l-2.2,0
		c0.2-0.2-1.1-5.8-2.7-7.7C67.7,73.3,65.9,70.1,64.6,67.3L64.6,67.3z M41.1,67.4c0.1,0,0.4,0.2,0.9,0.5c0.5,0.3,1.1,0.6,1.3,0.8
		c1,0.6,1.5,1.1,1.8,1.9c0.2,0.6,0.1,0.6-0.5,0c-0.5-0.4-1-0.8-2.2-1.7c-0.4-0.3-0.6-0.3-0.3,0.1c0.2,0.3,0.6,0.6,1.4,1.1
		c0.6,0.4,1.4,1.1,1.3,1.2c-0.1,0.1-0.2,0.1-0.4,0c-0.1-0.1-0.5-0.2-0.9-0.4c-1.6-0.7-2.3-1.5-2.4-2.8C41,67.6,41,67.4,41.1,67.4
		L41.1,67.4z M75.2,67.4c0,0,0.2,0.3,0.3,0.4c0.1,0.3-0.2,0.5-1,0.9c-0.3,0.1-0.5,0.2-0.5,0.4c0,0.4,0.8,1,0.7,1.5
		c-0.2,0.4-1.2,0.8-1.5,1.3c0,0.3,0.7,0.8,0.6,1.3c-0.1,0.1-0.3,0.3-0.6,0.5c-0.7,0.6-0.7,0.7-0.5,1.1c0.6,1,0.6,1-0.2,1.7
		c-0.8,0.7-0.8,0.7-0.4,1.4c0.4,0.7,0.4,0.7-0.2,1.1c-0.5,0.4-0.5,0.5-0.2,1.1c0.3,0.5,0.3,0.5-0.1,0.9c-0.5,0.5-0.6,0.5-0.3,1.1
		c0.4,0.6,0.4,0.6,0,1.1c-0.4,0.5-0.5,0.5-0.2,0.8c0.3,0.4,0.3,0.5,0,1c-0.3,0.5-0.3,0.4,0,0.9c0.2,0.4,0.2,0.8,0.2,0.8l-0.9,0
		c0,0,0-0.5-0.1-0.7c-0.3-0.5-0.3-0.6,0.1-1c0.3-0.4,0.3-0.5,0-0.9c-0.3-0.4-0.3-0.4,0.1-0.9c0.4-0.5,0.4-0.7,0.2-0.9
		c-0.5-0.6-0.5-0.9,0-1.3c0.4-0.3,0.4-0.5,0.1-1c-0.3-0.5-0.4-0.6,0.2-1.1c0.6-0.5,0.6-0.5,0.2-1.1c-0.4-0.6-0.4-0.6,0.3-1.2
		c0.6-0.6,0.6-0.6,0.2-1.3c-0.4-0.7-0.4-0.7,0.4-1.3c0.7-0.6,1-0.7,0.3-1.6c-0.4-0.7-0.1-0.8,0.6-1.1c1.2-0.7,0.6-0.7,0.1-1.8
		c-0.4-0.7-0.2-0.7,0.5-1.1c0.2-0.1,0.4-0.2,0.6-0.3c0.5-0.3,0.2-0.5,0.2-0.5L75.2,67.4z M76.8,67.4l3.6,0c-4.1,5.3-6.1,12-6.8,19.1
		l-1.3,0C72.1,81,73.8,74.1,76.8,67.4L76.8,67.4z M95.1,67.5c2,1.7,3.6,2.7,4.6,3.1c0,0-1.4,2.4-1.5,2.3
		c-8.3-1.6-18.1,3.2-20.3,13.6l-1.3,0c0.5-4.1,1.6-7.5,3.5-11c2-3.5,3.8-5.5,6.5-8L95.1,67.5z M80.9,67.4l1.8,0c0,0,0.3,0.4,0.5,0.5
		c0.8,0.9,0.8,0.7-0.8,1.6c-1.1,0.6-1.5,0.9-1.6,1.1c0,0.3,0.5,0.8,0.5,1.1c0,0-1.4,1-1.7,1.1c-0.4,0.2-0.4,0.3,0,1
		c0.4,0.7,0.4,0.7-0.5,1.3c-0.9,0.6-1,0.5-0.7,1.2c0.5,0.8,0.3,1-0.9,1.7C77,78.2,77,78.4,77.2,79c0.3,0.8,0.4,0.7-0.3,1.1
		c-0.7,0.5-0.9,0.5-0.7,0.8c0.5,0.9,0.7,1.1,0,1.4c-0.5,0.2-0.5,0.4-0.2,1c0.3,0.6,0.3,0.6-0.1,0.9c-0.4,0.3-0.7,0.2-0.3,0.8
		c0.3,0.4,0.3,0.7,0,1c-0.2,0.1-0.3,0.6-0.3,0.6l-0.6,0c-0.5-0.6,0.1-1,0.2-1.1c0.1-0.1,0-0.3-0.2-0.6c-0.3-0.5-0.3-0.5,0.1-0.8
		c0.4-0.3,0.4-0.2,0.1-0.8c-0.3-0.7-0.3-0.8,0.2-1.2c0.5-0.3,0.5-0.4,0.2-1.1c-0.3-0.7-0.3-0.7,0.5-1.2c0.6-0.4,0.6-0.4,0.3-1.1
		c-0.2-0.5-0.1-0.7,0.7-1.2c0.5-0.3,0.5-0.4,0.3-0.7c-0.6-1-0.6-1.1,0.4-1.7c0.8-0.5,0.8-0.6,0.5-1.3c-0.3-0.8-0.4-0.7,0.8-1.4
		c0.9-0.6,1-0.5,0.6-1.2c-0.5-0.8-0.4-0.7,1.4-1.8c0.7-0.5,1.3-0.3,0.6-1.1C81.2,67.8,80.9,67.4,80.9,67.4L80.9,67.4z M47.7,68.8
		c0.1,0,0.2,0.2,0.2,0.5c0,0.4-0.2,0.8-0.4,1.2c-0.4,0.8-0.8,1.5-1,1.5c-0.5,0-0.5-0.1,0.2-1.4c0.3-0.6,0.6-1.2,0.7-1.4
		C47.4,69,47.6,68.8,47.7,68.8L47.7,68.8z M53.7,70.7c0,1.8-5.6,2.7-5.9,1.8c1-0.8,3.9-0.4,4.5-1.1c-0.7,0-1.7,0.1-2.4,0.1
		c-0.9,0-2.2,0.4-2.3,0.5c-0.1-0.5,1.5-1.4,2.7-1.4C51.5,70.6,52.8,70.7,53.7,70.7L53.7,70.7z M54.2,73.5c0,0-10.9,9.1-16.4,13.4
		l0,2l17.3-14.2L54.2,73.5z M54.2,73.9l0.7,0.9L38.6,88l-0.1-1.4L54.2,73.9z M105.6,78.6l-0.6,0.6c-15.9-11.8-30.5,6.1-22.4,19
		c-0.1,0.2-0.6,0.6-0.6,0.6C72.9,83.8,90.1,66.4,105.6,78.6L105.6,78.6z M96.8,76c0.9,0,2.6,0.6,3.3,1.5c0.8,1,0.6,1.4-0.5,0.5
		c-1.1-0.8-2-1-0.5,0c0.3,0.2,0.6,0.6,0.7,0.7c0.1,0.2-0.2,0-1.5-0.5c-0.8-0.3-1.7-1-2-1.6C96.1,76.1,96.4,76,96.8,76L96.8,76z
		 M93.5,76c0.3,0,0.5,0,0.7,0.1c1.1,0.3,1.5,0.5,1.9,0.8c0.3,0.2,0.2,0.4-0.1,0.2c-0.4-0.2-1.6-0.5-1.9-0.5c-0.3,0,0,0.2,0.5,0.4
		c1,0.3,1.5,0.5,0.8,0.5c-0.4,0.1-2.1,0.1-2.5,0c-0.8-0.1-1.9-0.8-1.6-1C91.5,76.2,92.6,76,93.5,76L93.5,76z M90.2,77.1
		c1.3,0,2.1,0.5,0.6,0.6c-2.5,0.4-3,0.9-0.2,0.3c0.7-0.2,0.6,0.1,0.2,0.3c-0.4,0.2-0.8,0.3-1.2,0.5c-0.7,0.3-2.3,0.4-2.9,0.1
		C85.8,78.5,88.7,77,90.2,77.1L90.2,77.1z M101.1,77.3c0.7,0,2.1,1,2.8,1.9c0.4,0.6,0.2,1-0.4,0.6c-0.1-0.1-1-0.9-1.1-0.9
		c-0.1,0,0.8,0.8,0.9,1c0.1,0.2,0.4,0.6-0.1,0.6c-0.7-0.1-2.4-2-2.4-2.9C100.7,77.4,100.8,77.3,101.1,77.3L101.1,77.3z M92.6,77.8
		c0.3,0,0.1,0.1-0.4,0.5c-1,0.7-0.5,0.5,0.7,0c0.3-0.2,0.8-0.3,0.9-0.3c0.1,0,0.3-0.1,0.4-0.1c0.3-0.1,0.1,0.3-0.4,0.7
		c-1,0.8-2.2,1.5-3,1.7c-1,0.3-1.3,0.3-0.9-0.4c0.6-1,1.5-1.9,2.3-2C92.4,77.8,92.5,77.8,92.6,77.8L92.6,77.8z M96.1,77.8
		c0.4,0,1,0.1,1.8,0.3c0.6,0.2,0.4,0.2-0.3,0.3c-1.3,0.1-0.8,0.3,0.5,0.3c1.8,0-0.9,0.6-1.7,0.8c-0.7,0-0.9,0-2.3-0.3
		c-0.6-0.1-0.2-0.5,0.8-1C95.4,78,95.7,77.8,96.1,77.8L96.1,77.8z M107.1,78.1l0,1.1L85.7,97.1l-0.7-0.8L107.1,78.1z M99.8,79.1
		c0.9,0,2.1,0.6,2,0.9c0,0.1-0.1,0.1-0.8,0c-0.4-0.1-1.2-0.2-1.1-0.1c0,0,0.6,0.3,0.9,0.3c0.8,0.2,1.7,0.6,1.5,0.7
		c-0.4,0.2-0.7,0-1.1,0c-1-0.1-2.7-0.7-3-0.9C97.7,79.6,98.8,79.1,99.8,79.1L99.8,79.1z M89.8,79.1c0.2,0,0.2,0.2,0.1,0.3
		c-0.2,0.3-0.3,0.5-0.5,0.9c-0.7,1.1-1.2,1.5-1.9,2c-0.7,0.4-0.8,0.4-0.7-0.5c0.1-0.9,0.7-1.9,1.7-2.4c0.4-0.1,0.7-0.2,0.2,0.4
		c-0.8,1-0.3,0.9,0.5-0.2C89.4,79.2,89.6,79.1,89.8,79.1L89.8,79.1z M87,79.3c0.5,0,0.6,0.2,0,0.4c-0.6,0.3-1.7,1.1-1.7,1.1
		c0,0.1,0.4-0.1,1.1-0.5c0.9-0.5,1-0.5,0.6,0.1c-0.5,0.7-1.7,1.5-2.7,1.8c-1.4,0.4-1.3,0.1-0.6-0.9c0.7-1.1,1.3-1.6,2.3-1.9
		C86.3,79.3,86.7,79.3,87,79.3L87,79.3z M64,79.4c4.9,8.5,2.2,17.1-3.5,21.5c-6,4.6-15.2,4.3-20.7-1.2l0.8-0.7c0,0,8.6,8.8,19.5,1
		c5.5-4,7.8-13.3,3.2-19.8L64,79.4z M42,79.4C42,79.4,42,79.4,42,79.4c-0.2,0.1-0.8,1.9-1,2.7c0,0.2,0,0.4,0.2,0.6
		c0.1,0.1,0.3,0,0.4,0c0.4-0.2,0.6-0.5,1-1.4c0.2-0.5,0.3-1.1,0.2-1.3c0-0.1-0.2-0.3-0.3-0.4C42.4,79.6,42.2,79.4,42,79.4L42,79.4z
		 M42.1,79.8c0.2,0,0.6,0.3,0.6,0.5c0,0.4-0.2,1.1-0.4,1c-0.3-0.4-0.6-0.1-0.7-0.3C41.7,80.7,41.9,80.2,42.1,79.8
		C42.1,79.8,42.1,79.8,42.1,79.8L42.1,79.8z M95.2,80.1c2.2,0,4.4,0.6,5.9,2.1l-0.9,0.8c-3.7-2.7-8.1-1.9-10.7-0.1
		c-2.6,1.8-4.8,5.7-2.6,11.3l-0.8,0.7c-2.5-4.5-1.1-10.4,3.2-13.2c1.5-1,3.5-1.5,5.5-1.6C95,80.1,95.1,80.1,95.2,80.1L95.2,80.1z
		 M62.9,80.8c0.1,0,0.2,0.2,0.2,0.5c0,0.3-0.1,0.7-0.4,0.8c-0.2,0.1-0.4-0.6-0.4-0.6C62.4,81.2,62.6,81,62.9,80.8L62.9,80.8z
		 M102,81c0.1,0,0.2,0,0.2,0c0.2,0,0.2,0.2,0,0.5c-0.2,0.2-0.4,0.2-0.6,0.1c-0.2-0.2-0.2-0.3,0-0.4C101.7,81.1,101.8,81,102,81
		L102,81z M60,81.1l0.7,0.9l-2.5,2l-0.3,0L38.7,99.9l0-1.4L60,81.1z M100.2,83.2l-2.6,2.2c-5.2-2.7-9.4,2.1-7.9,6.5l-2.3,2
		C83.3,82.8,95.1,79,100.2,83.2L100.2,83.2z M86.5,81.5C86.5,81.5,86.5,81.5,86.5,81.5C86.5,81.6,86.5,81.6,86.5,81.5
		c0.2,0.1,0,1.6-0.2,1.9c0,0.1-0.1,0.2-0.1,0.3c0,0.1-0.5,1.1-0.9,1.8c-0.1,0.3-0.3,0.6-0.3,0.7c-0.3,1.5-1-0.9-0.7-2.2
		c0.1-0.6,1-2,1.3-1.9c0.1,0,0.1,0.2-0.1,0.7c-0.7,1.4-0.8,2.2-0.1,0.8C86.1,82,86.4,81.6,86.5,81.5L86.5,81.5z M42,81.6
		c0.1,0,0.2,0.1,0.2,0.2c0,0.1,0.1,0.3,0,0.4c-0.1,0.3-0.4,0.5-0.7,0.5c-0.1,0-0.3-0.1-0.3-0.2c0-0.1,0-0.3,0.2-0.5
		C41.6,81.7,41.9,81.6,42,81.6L42,81.6z M61.9,81.7c0.3,0,0.6,0.8,0.4,1.2c-0.2,0.3-0.2,0.3-0.5-0.3c-0.2-0.3-0.3-0.7-0.3-0.7
		L61.9,81.7C61.9,81.7,61.9,81.7,61.9,81.7C61.9,81.7,61.9,81.7,61.9,81.7L61.9,81.7z M61.4,82c0,0,0.3,0.6,0.4,1.1
		c0,0.3,0,0.2-0.3,0.1c-0.2-0.2-0.3-0.2-0.5-0.4c-0.1-0.2-0.2-0.3-0.2-0.3L61.4,82z M63.4,82.1c0.2,0,0.3,0.2,0.5,0.6
		c0.6,1.5,0.6,3.2-0.1,4.1c-0.1,0.1-0.1,0.1-0.3,0.1c-0.1-0.1-0.1-0.8,0-1c0-0.1,0.1-0.5,0.1-0.8c0-0.6-0.1-0.7-0.2-0.1
		c-0.1,0.6-0.2,1.1-0.4,0.7c-0.1-0.2-0.1-0.4-0.2-0.6C62.5,83.7,62.9,82.2,63.4,82.1L63.4,82.1z M60.7,82.5c0,0,0.6,0.8,0.8,1
		c0.1,0.1,0.1,0.2-0.1,0.2c-0.2,0.1-1-0.4-1.3-0.6C60,83.1,60.1,83,60.1,83C60.3,82.8,60.5,82.7,60.7,82.5L60.7,82.5z M83.8,82.6
		c0.3,0,0.3,0.1,0,0.6c-1.9,2.7-1.5,2.3-0.3,0.8c0.7-0.8,0.8-0.9,0.8-0.7c0.1,0.1-0.7,1.7-1.1,2.3c-0.2,0.3-0.9,0.8-1.3,1
		c-0.9,0.4-0.8,0.3-0.5-0.8C81.9,84,82.9,82.6,83.8,82.6L83.8,82.6z M59.6,83.5c5.1,12.7-8.9,18.3-15.2,12.4l0.7-0.6
		c8.8,5.9,17.4-3.6,13.5-11C58.7,84.3,59,84,59.6,83.5L59.6,83.5z M60.8,83.8c0.8,0.1,2.1,1.6,2.1,2.5c0.1,0.6,0,0.7-0.3,0.3
		c-0.5-0.9-0.4-0.3,0,0.6c0.2,0.5,0.3,1,0,1.1c-0.3-0.1-1-1.2-1.2-1.6c-0.5-1-0.5-0.8-0.8-2.3C60.5,84,60.6,83.8,60.8,83.8
		L60.8,83.8z M58.3,84.2c3.9,7.5-4.5,16.4-13,10.6l2.5-2c4.4,2.1,9.4-0.5,8-6.6L58.3,84.2z M97.1,85.6l-7,5.8
		C88.6,86.6,93.9,83.8,97.1,85.6L97.1,85.6z M84,85.6c0.2,0,0.4,1.4,0.5,3.5c0,2,0.1,2.2-0.5,1.5c-0.3-0.3-0.6-0.6-0.7-0.9
		c-0.4-0.8-0.3-1.6-0.2-2.8c0.1-1.1,0.5-0.9,0.4,0.2c0,0.7,0,1.6,0.1,1.6c0,0,0.1-0.1,0-0.2c-0.1-0.2,0.2-2.5,0.3-2.8
		C84,85.7,84,85.6,84,85.6L84,85.6z M64.7,86.5c0.5,0.2,0.7,1.9,0.1,3.5c-0.2,0.7-0.6,1.2-1.1,1.4c-0.4,0.2-0.5,0.1-0.3-0.2
		c0.3-0.6,0.5-1.2,0.6-1.9c0.1-0.7-0.3-0.1-0.3,0.2c-0.3,1.3-0.7,1.6-0.6,0.1c0-1,0.2-1.5,0.7-2.2C64,87,64.2,86.5,64.7,86.5
		L64.7,86.5z M82.3,86.7c0.2,0,0.3,0.3,0.1,0.8c-0.1,0.4-0.6,1.6-0.5,1.6c0,0,0.5-1.1,0.6-1.3c0.2-0.3,0.2-0.4,0.4-0.3
		c0.1,0.5,0,1.2-0.1,1.8c-0.3,1.5-1.3,3-1.7,2.5c-0.6-0.7-0.3-3.7,0.5-4.6C81.9,86.8,82.1,86.6,82.3,86.7L82.3,86.7z M55.6,86.9
		c0.8,5.2-3.5,7.4-7.2,5.8C48.5,92.7,55.6,86.9,55.6,86.9L55.6,86.9z M73.1,87l0.7,1l1.4,0.1l-0.7,1l0.7,1.3l-1.5,0l-0.9,1L72,90.5
		l-1.3-0.1l0.8-1.2L70.8,88l1.4-0.1L73.1,87z M61.6,87.4c0.2,0,1,1.1,1.1,1.5c0.3,1,0.2,2.9-0.2,2.8c-0.4-1.3-0.2-2-0.4-1.9
		c-0.2,0.2,0.1,2.3,0,2.8c-0.1,0.1-0.3,0-0.5-0.4C61.1,91.4,61.1,87.9,61.6,87.4C61.6,87.4,61.6,87.4,61.6,87.4L61.6,87.4z
		 M107.2,89.5l-16.9,14l1,1.2l15.9-13.1L107.2,89.5z M82.9,89.8c0.1,0,0.2,0.1,0.6,0.4c0.6,0.7,1.1,1.8,1.3,2.6
		c0.1,0.3,0.2,0.7,0.3,0.9c0.1,0.3,0.1,0.4,0.1,0.4c-0.3,0.4-1.5-0.5-1.9-1.4c-0.6-1.2-0.6-2.3,0-1.2c0.2,0.4,0.5,1,0.4,0.7
		c0-0.1-0.2-0.9-0.4-1.2C83.1,90.7,82.7,89.8,82.9,89.8L82.9,89.8z M107,90.1l0,1.2l-15.7,13.1l-0.6-0.7
		C90.8,103.6,105.5,91.3,107,90.1L107,90.1z M82.5,90.8c0.1,0,0.1,0.1,0.1,0.3c-0.1,0.8-0.3,2.4-0.2,2.6c0,0.1,0.2-1.1,0.3-1.3
		c0.3-1.1,0.7,1.5,0.4,2.7c0,0.2-0.1,0.5-0.2,0.7c0,0.2-0.2,0.5-0.2,0.6c-0.4,0.7-1.5-2.1-1.3-3.5C81.6,92,82.3,90.8,82.5,90.8
		L82.5,90.8z M64.4,91.4c0.2,0,0.2,0.2,0.2,0.6c-0.1,1.5-1.1,3-2.1,3.4c-1.1,0.4-1.2,0.3-0.5-0.4c0.5-0.6,0.8-1.2,0.7-1.3
		c0,0-0.1,0.2-0.5,0.7c-0.5,0.6-0.6,0.1-0.1-0.8c0.4-0.8,0.7-1.2,1.4-1.7C63.9,91.6,64.2,91.4,64.4,91.4L64.4,91.4z M73.9,91.9
		c-0.2,6.3-1.8,13-4.8,18.9l-2.8,0c3.4-5.1,5.6-11.3,6.3-18.9L73.9,91.9z M75.2,91.9c0,0,0.4,0.4,0.6,0.7c0.2,0.3,0.2,0.6-0.1,0.9
		c-0.4,0.3-0.6,0.2,0.1,1c0.3,0.4,0.2,0.5-0.2,0.9c-0.4,0.4-0.5,0.4-0.1,0.9c0.4,0.6,0.5,0.6-0.1,1.1c-0.5,0.4-0.5,0.5-0.1,1.1
		c0.4,0.6,0.5,0.6-0.2,1.2c-0.6,0.5-0.6,0.4,0,1.3c0.2,0.3,0.2,0.4-0.2,0.7c-1,0.9-0.9,0.8-0.8,1c1.1,1.5,0.6,1.5-0.5,2.2
		c-0.2,0.2-0.2,0.4,0.3,1.1c0.4,0.6,0.3,0.8-0.6,1.4c-1,0.7-1,0.8-0.5,1.4c0.5,0.7,0.5,0.6-0.3,1.3c-0.4,0.3-0.6,0.6-0.6,0.6h-1.7
		c0,0,0.4-0.3,0.6-0.5c1.4-1,1.4-0.9,0.8-1.7c-0.5-0.7-0.5-0.7,0.1-1.1c0.4-0.3,0.9-0.6,1.3-0.8c0.2-0.1,0.1-0.3-0.3-0.9
		c-0.4-0.7-0.4-0.7,0.3-1.2c0.8-0.7,0.8-0.6,0.4-1.5c-0.4-0.8-0.4-0.8,0.1-1.2c0.8-0.7,0.8-0.6,0.4-1.4c-0.3-0.6-0.3-0.6,0.2-1.2
		c0.6-0.6,0.5-0.5,0.2-1.1c-0.3-0.5-0.3-0.6,0.1-1c0.5-0.4,0.4-0.4,0-1c-0.4-0.6-0.4-0.5,0.1-0.9c0.3-0.2,0.5-0.5,0.5-0.6
		c0-0.3-0.3-0.7-0.6-1c-0.1-0.1,0.1-0.2,0.4-0.5c0.3-0.3,0.3-0.2,0.1-0.7c-0.1-0.2-0.4-0.6-0.4-0.6L75.2,91.9z M70.6,91.9l0.5,0
		c0,0,0.1,0.1,0.2,0.2c0.3,0.3,0.3,0.5,0,0.7c-0.3,0.2-0.2,0.4,0.1,0.8c0.3,0.4,0.3,0.3-0.1,0.7c-0.4,0.3-0.6,0.4-0.2,1
		c0.3,0.3,0.2,0.6-0.2,0.8c-0.3,0.2-0.8,0.4-0.3,1.1c0.3,0.5,0.3,0.5-0.3,0.9c-0.7,0.5-0.8,0.4-0.5,1.1c0.4,0.8,0.4,0.8-0.3,1.4
		c-0.9,0.6-0.9,0.7-0.5,1.4c0.4,0.8,0.4,0.6-0.5,1.3c-0.7,0.5-0.8,0.5-0.6,1c0.4,0.8,0.5,1-0.5,1.6c-1.2,0.6-1.3,0.7-0.7,1.6
		c0.5,0.8,0.4,0.7-0.4,1.1c-1.2,0.7-1.7,1-1.7,1.2c0,0.2,0.9,0.9,0.9,0.9l-1.6,0c0,0-0.7-0.6-0.9-0.8c-0.7-0.7-0.7-0.5,1.7-1.7
		c1.3-0.7,1.2-0.5,1-0.9c-0.6-1.1-0.7-1.2,0.5-1.9c1.1-0.5,0.9-0.6,0.6-1.4c-0.2-0.7-0.2-0.6,0.4-1.1c1.3-1,1.3-0.9,1.1-1.4
		c-0.2-0.5-0.4-0.7-0.2-0.9c0.5-0.7,1.5-0.8,1.1-1.7c-0.2-0.5-0.3-0.7,0.3-1.1c0.5-0.4,0.5-0.4,0.2-1c-0.4-0.5-0.4-0.6,0.3-1.1
		c0.4-0.4,0.4-0.4,0.2-0.8c-0.3-0.5-0.3-0.6,0.2-1c0.4-0.3,0.5-0.4,0.2-0.7C70,93,70,92.9,70.5,92.7c0.3-0.2,0.3-0.2,0.2-0.5
		C70.7,92.2,70.6,91.9,70.6,91.9L70.6,91.9z M76.6,91.9l2.3,0c0.7,4.2,2,5.9,2.7,7.2c-2.8,4.6-2.2,8.4-0.5,11.7l-7.1,0
		C75.8,104.6,76.8,98.3,76.6,91.9L76.6,91.9z M61.2,91.9c0.1,0,0.1,0.1,0.3,0.4c0.5,0.8,0.1,1.9-0.5,3c-0.5,0.9-0.6,0.2-0.4-1
		c0.1-0.8-0.2,0.4-0.4,1.3c-0.1,0.5-0.3,0.9-0.6,0.9c-0.2,0-0.2-0.8-0.2-0.9c0.1-1.1,0.5-1.9,1.3-3C60.9,92.1,61.1,91.9,61.2,91.9
		L61.2,91.9z M84.2,94.1c0.1,0,0.3,0,0.4,0.1c0.1,0.1,0.4,0.2,0.6,0.3c0.6,0.3,0.7,0.4,0.4,0.8c-0.4,0.4-0.6,0.3-1.2-0.4
		C83.9,94.5,83.9,94.1,84.2,94.1L84.2,94.1z M84,95.1c0.1,0,0.3,0.1,0.5,0.3c0.4,0.5,0.4,0.9-0.1,0.8c-0.2-0.3-0.3-0.7-0.5-1
		C83.9,95.1,83.9,95.1,84,95.1L84,95.1z M104.1,95.1c-0.4,0-1.1,0.5-1.2,1.1c-0.4,1.6-0.4,1.6,0,1.8c0.1,0.1,0.2,0.1,0.2,0.2
		c0.2,0.2,0.5,0.4,0.5,0.4c0.3,0,0.8-2.1,0.8-2.5c0-0.5,0-0.5-0.1-0.7C104.3,95.2,104.2,95.1,104.1,95.1L104.1,95.1z M83.7,95.2
		C83.7,95.2,83.7,95.2,83.7,95.2c0.4,0.3,0.5,0.8,0.6,1.1c0,0.1,0,0.2-0.1,0.3c-0.2,0.4-0.6,0-0.6-0.7
		C83.6,95.4,83.6,95.2,83.7,95.2L83.7,95.2z M104,95.5C104.1,95.5,104.1,95.5,104,95.5c0.3,0,0.3,0.3-0.1,0.7
		c-0.2,0.2-0.6,0.3-0.7,0.2c-0.2-0.2,0.2-0.7,0.6-0.8C103.9,95.5,104,95.5,104,95.5L104,95.5z M58.8,95.7
		C58.8,95.7,58.8,95.7,58.8,95.7c0.2,0,0.3,0.1,0.4,0.2c0.2,0.2,0.1,0.6,0,0.8c-0.2,0.7-1.6,2.2-2.1,2.2c-0.3-0.1,1-1.6,1-1.9
		c-0.1-0.1-0.9,0.8-1.2,1.4c-0.2,0.3-0.4,0.6-0.5,0.7c-0.3,0-0.6,0.2-0.6,0c0-0.8,1.6-2.5,2.1-3C58.3,95.9,58.5,95.7,58.8,95.7
		L58.8,95.7z M62.5,95.8c1.2,0-1.2,2.6-2.7,3c-0.5,0.1-1.4,0.1-1.4,0c-0.1-0.1,0-0.2,0.2-0.2c0.3-0.1,1.9-1.1,1.9-1.2
		c0-0.1-0.6,0.1-1.2,0.5c-0.4,0.2-0.5,0.2-0.3-0.1C59.9,96.5,61.1,95.8,62.5,95.8L62.5,95.8z M83.3,95.8c0.1,0,0.1,0.1,0.2,0.4
		c0.2,0.6,0.2,0.7,0,0.9c-0.4,0.3-0.4,0.2-0.4-0.4C83.1,96.1,83.2,95.8,83.3,95.8L83.3,95.8z M43.7,96.5c0,0,0.4,0.2,0.3,0.4
		c-0.1,0.1-0.7,0-0.7,0L43.7,96.5z M104.1,96.6c0.1,0,0.1,0.1,0.1,0.5c0,0.2-0.2,1.1-0.5,1.4c0,0-0.5-0.2-0.6-0.4
		c-0.1-0.1-0.2-0.2-0.3-0.3c-0.1-0.3,0-0.6,0.2-0.8c0.1-0.1,0.2-0.1,0.3-0.1c0.1,0,0.3-0.1,0.5-0.1C103.9,96.6,104,96.6,104.1,96.6
		L104.1,96.6z M43.9,97.2c0.3,0,0.6,0,0.9,0.1c0.9,0.3,2.5,1,2.8,1.2c0.4,0.3-0.6,0.7-1.7,0.7c-0.6,0-0.7-0.1-1.6-0.6
		c-0.1-0.1-0.6-0.4-0.5-0.5c0.2-0.2,0.6,0,1.2,0.3c0.2,0.1,0.7,0.1,0.7,0c0-0.1-1.2-0.5-2-0.8c-0.6-0.2-0.6-0.4-0.2-0.4
		C43.6,97.2,43.7,97.2,43.9,97.2L43.9,97.2z M42.7,97.6c0,0,0.2,0.2,0.6,0.4c0.3,0.3,0.7,0.6,1,1c0.4,0.5,1,1.7,1,1.9
		c-0.2,0.5-1.8-0.4-3.2-1.7c-0.4-0.4-0.7-0.8-0.7-0.8l0.5-0.5c0,0,0.5,0.4,1,0.9c1,0.9,1,0.6,0-0.3c-0.3-0.3-0.5-0.5-0.5-0.5
		C42.3,97.8,42.5,97.6,42.7,97.6L42.7,97.6z M83.6,97.6c0,0,0.5,0.6,0.7,0.8c-3.3,3.2-4.5,7.6-1.4,12.4l-1.5,0
		C78.7,105.2,80,101.1,83.6,97.6L83.6,97.6z M56.1,97.8c0.2,0,0,0.2-0.3,0.8c-0.7,1.1-0.8,1.4-1.9,1.7c-0.3,0.1-0.7,0-0.8,0
		c-0.5,0.1-0.3,0,0.5-0.5c1-0.6,0.2-0.3-0.8,0.2c-0.5,0.3-1.1,0.3-1.1,0.1c0-0.1,0.2-0.3,0.4-0.4c1.4-1.3,1.8-1.2,3.1-1.7
		C55.6,97.9,56,97.8,56.1,97.8L56.1,97.8z M50.2,98.9c0.5,0,1,0.1,1.4,0.1c0.3,0.1,0.7,0.1,0.3,0.5c-0.4,0.4-1.6,1-2.5,1
		c-0.1,0-1.9-0.1-1.5-0.5c0.1,0,0.3,0,0.5-0.1c1-0.2,0.7-0.3-0.5-0.3c-1.5,0.1-1.6-0.1-0.4-0.4c0.8-0.2,1.7-0.3,2.4-0.4
		C50.1,98.9,50.2,98.9,50.2,98.9L50.2,98.9z M58.4,99c0.7,0,1.2,0.1,1.2,0.4c0,0.4-1.3,1.3-2.1,1.5c-0.2,0-0.5,0.1-0.6,0.1
		c-0.3,0.1-1.9,0-2.1,0c-0.8-0.3-0.2-0.4,1.2-0.5c0.6-0.1,0.9-0.2,0.9-0.3c0-0.1-0.4-0.1-1.1,0c-0.7,0.1-0.6-0.1,0.3-0.6
		C56.6,99.2,57.6,99,58.4,99L58.4,99z M45.8,99.6c0.1,0,0.3,0.1,0.7,0.2c0.8,0.2,1.9,0.5,2.7,1.3c0.6,0.6,0.8,0.8,0.6,1
		c-0.2,0.3-2.1,0.1-2.9-0.3c-0.5-0.2-1.2-0.7-1.5-1.1c-0.7-1-0.4-1.3,0.5-0.6c1.1,0.9,1.2,0.9,1.4,0.9c0.1,0-0.1-0.2-0.5-0.5
		C46.1,100,45.6,99.6,45.8,99.6L45.8,99.6z M52.4,100.7c0.9,0,1.1,0.1,2,0.5c1.1,0.4,0.8,0.7-1.1,1.2c-1,0.2-1.9,0.1-2.7-0.4
		c-1.6-1-1.5-1.2,0.3-0.7c0.6,0.1,1.1,0.2,1.2,0.1c0-0.1-0.7-0.3-1.2-0.4c-0.6-0.2-0.1-0.2,1.1-0.2
		C52.2,100.7,52.3,100.7,52.4,100.7L52.4,100.7z M97.4,104.9c0,0-0.2,0.1-0.3,0.1c-0.1,0-0.6,0.1-1.2,0.2c-1.2,0.1-2,0.3-2.7,0.6
		c-1.1,0.4-1.8,1.8-1.8,1.8c0.8-0.1,5.3,0.8,6.6-0.9c0.3-0.3-0.7,2.6-1.2,2.7c-1.2-0.1-1.7,1.7-1.6,1.6c-1.2,0.5-2.1,0.7-1.8,2.1
		c0.1,0.6,0.8,1.3,2.1,1.1c-0.4,2.4,2.6,3,2.9,0.1c0,0,0.6-0.1,0.8-0.1c1.3-0.3,1.7-2.3-0.3-2.9c-0.5-0.2-0.6-0.3-0.6-0.3
		c0.1-0.4,0.1-0.9-0.2-1.4c0.4-1,1.5-3,1.5-3L97.4,104.9z M97.6,105.5c0.3,0.4-1.1,1-2.7,1.1c-0.3,0-1.1,0.1-1.1,0.1
		c-0.2,0.3,2.9,0.1,3.9-0.5c0.3-0.2,0.4,0,0.2,0.3c-1.1,1.4-3.8,1.1-5.9,0.8c-0.1-0.1,0-0.3,0.5-0.7c0.9-0.7,1.5-0.9,2.9-1.1
		C95.7,105.6,97.5,105.2,97.6,105.5L97.6,105.5z M99.3,106.9c-0.2,0.6-1.2,2.5-1.2,2.5c-0.1,0.1-0.6,0.2-0.5-0.3
		c0-0.5,1-2.6,1.2-2.7C99.1,106.5,99.3,106.7,99.3,106.9L99.3,106.9z M99.9,107.1c0.3,2.2,1.9,2.7,3.5,3.4c0.4,0.2,0.8,0.5,1.2,0.7
		c0.8-1.1-0.1-3.1-1.5-3.8c-1-0.5-1.9-0.9-2.5-0.8C100.3,106.6,99.9,106.8,99.9,107.1L99.9,107.1z M100.8,107c0.2,0,0.4,0,1.3,0.3
		c1.4,0.4,2.4,1.4,2.6,2.7c0,0.1,0.1,1.1-0.2,1.1c-0.4-0.1-0.6-0.5-1.1-0.7c-0.7-0.3-1.7-0.7-2.4-1.3c-0.5-0.5-0.8-1-0.8-1.4
		c-0.1-0.4,0.1-0.5,0.5-0.1c0.8,0.7,1.6,0.9,2.4,1.5c0.2,0.2,1,0.6,0.5,0.1c-0.4-0.4-1.5-1-2.1-1.3C100.8,107.4,100.3,107,100.8,107
		L100.8,107z M38.3,109.1l9.3,14.5c-2.3,1.2-3.4,1.7-7.2,1.4l0,0.2l-1.6-0.1c2.8,4.4,6.2,10,5.3,19.9l11.3,0c0,0,0.2,0.2,0.2,0.2
		c0.2,0.1,0.4-0.2,0.4-0.2l5.1,0l0.1,0.2l2.4,0c0,0-10.9-20.4-16.4-30.5C45,110.6,42.7,108.8,38.3,109.1L38.3,109.1z M96.9,109.6
		c0.6,0,1.2,0.4,1.2,1.2c0,0.4-0.4,1-0.4,1L97,111l-0.8,0.8c-0.4-0.3-0.6-0.9-0.5-1.3C95.9,109.9,96.5,109.6,96.9,109.6L96.9,109.6z
		 M87.3,109.9c0.8,3.1,1.6,7.3-5.2,17.1c-4,5.8-5.4,11.2-5.5,17.9l-0.4,0c0.2-3.7,0.2-10.3,0.2-10.3l0.4-0.3c0,0-0.2-0.3-0.2-0.6
		c-0.1-0.6,0-0.4,0.3-1.9C78.3,124.5,87.3,109.9,87.3,109.9L87.3,109.9z M50.9,111.3l34.6,0.2l-0.5,0.9l-33.5-0.2L50.9,111.3z
		 M97,111.5l1.3,1.3l-1.3,1.4l-1.3-1.4L97,111.5z M95.9,112.1l-0.7,0.7l0.6,0.6c-0.6,1.3-2.3,0.3-2.2-0.7
		C93.7,111.6,95,111.1,95.9,112.1L95.9,112.1z M98.2,113.6l0.6-0.7l-0.6-0.7c1-1,2-0.1,2.1,0.7C100.3,113.8,98.9,114.8,98.2,113.6
		L98.2,113.6z M57.2,112.7l2.8,0l-1.1,2l-2.9,0L57.2,112.7z M63.5,112.7h2.6l-1.1,2h-2.6L63.5,112.7z M69.7,112.7h2.8l-1.1,2h-2.8
		L69.7,112.7z M75.8,112.7h2.8l-1,2h-2.9L75.8,112.7z M82.1,112.7h2.7l-1.1,2h-2.8L82.1,112.7z M52.1,112.7h1.8l-0.7,1.3L52.1,112.7
		z M97.7,114c1,0.8,0.3,2.2-0.8,2.2c-0.8,0-1.8-1.3-0.7-2.3l0.8,0.7L97.7,114z M59.2,115h2.7l-1,1.8h-2.6L59.2,115z M65.1,115.1H68
		l-1,1.8h-2.8L65.1,115.1z M71.4,115.1h2.9l-0.9,1.8h-2.9L71.4,115.1z M77.6,115.1h2.9l-0.9,1.8h-3L77.6,115.1z M53.8,115.1h1.8
		l-0.8,1.4L53.8,115.1z M55.2,117.2l27,0.2l-0.5,0.9l-25.8,0L55.2,117.2z M56.2,118.8l25.3,0.1l-0.6,1.2l-8.7,0
		c-1.7-1.3-3.7-0.7-5.9,0c0,0-6.7,0.1-9.3,0L56.2,118.8z M91.6,121.9c1.4,1.8,2.4,4.3,2.8,6.3c0.4,2,0,3-0.5,1.2
		c-0.9-4.4-6.1-5.1-8.4-1.6c-3.2,4.7,2.4,10.5,6.5,6.6c0.3-0.3,0.5-0.4,0.7-0.3c0.1,0.2,0,0.3-0.7,1c-2.8,2.8-1.8,7,2.1,7.9
		c5.4,1.4,8.7-5.3,4-8.4c-0.5-0.4-0.5-0.5-0.4-0.7c0.2-0.2,0.3-0.2,0.7,0.2c4.1,3.7,9.6-1.1,7.1-6.1c-2-3.8-7.5-3.1-8.8,1.1
		c-0.2,0.8-0.3,0.8-0.4,0.9c-0.6,0-0.2-1.9-0.1-2.3c0.6-2.2,1.3-4.2,2.7-5.9H91.6z M47.8,123.9l13.3,21l-2.9,0l-12.6-19.8
		L47.8,123.9z M113.2,125.1c0.1,0.1,1.3,3.5,1.1,3.8c-0.1,0.2-0.3,0.2-0.4-0.1c-0.8-2.9-4.4-2.5-4.4,0.6c0,1.9,2,2.7,3.6,1.5
		c0.2-0.2,0.4-0.2,0.4,0c0,0.1-0.2,0.3-0.4,0.6c-1.4,1.5-0.8,3.6,1,4c2.5,0.6,3.6-2.2,1.8-4.2c-0.3-0.3-0.5-0.6-0.5-0.6
		c0-0.2,0.2-0.1,0.4,0.1c1.7,1.3,3.8,0.4,3.8-1.5c0-2.6-3.2-3.3-4.1-0.9c-0.2,0.6-0.3,0.8-0.4,0.6c-0.4-0.2,1.2-3.9,1.2-3.9
		L113.2,125.1z M45.1,125.3l12.6,19.7c-0.6,0-1.1,0-1.7,0c0.2-3.7-2.7-5.4-4.5-5.5c1-4.3-2.1-6.1-4.2-6.4c0.8-5.6-3.8-6.4-3.8-6.3
		c0-0.5-0.1-0.8-0.1-1.2L45.1,125.3z M43,125.6c0,0.1,0.2,1.2-0.3,1l0-1L43,125.6z M40.4,125.6c0.2,0.7,0.6,0.9,1.1,1.4
		c0,0-0.7,0.1-0.8,0c-0.3-0.2-0.8-1.4-0.8-1.4L40.4,125.6z M42.4,126.9c0.3,0,0.6,0.3,0.6,0.6c0,0.3-0.3,0.6-0.6,0.6
		c-0.3,0-0.6-0.3-0.6-0.6C41.8,127.1,42,126.9,42.4,126.9L42.4,126.9z M43.5,127.3c1.7-0.1,4.1,1.7,3.4,5c-0.1-0.2-0.2-0.7-0.5-1.1
		c-1.1-1.5-2.5,0.6-1.6,1.4c0.4,0.4,0.7,0.6,0.6,0.6c-1-0.2-1.8,0.7-1.4,1.7c0.7,1.3,1.7,0.6,2.3-0.2c0,0,0.3,1.2,0.7,1.3
		c0.5,0.2,1.3-0.1,1.5-0.7c0.4-1-0.5-1.2-0.7-1.7c1.9,0.1,4.4,2.9,3.2,5.3c0.1-0.6-0.4-1.8-1.6-1.5c-0.6,0.2-0.8,1-0.3,1.9
		c0.1,0.3,0.2,0.4,0.2,0.4s-0.5,0.1-0.6,0.1c-1.5,0.9,0.4,3.4,1.5,1.9c0.1-0.2,0.3-0.4,0.3-0.4c0.2,0.4,0.2,0.8,0.6,1
		c1.4,0.7,2-0.8,1.4-1.5c-0.3-0.4-0.7-0.9-0.7-0.9c-0.1-0.3,4.1,0.8,3.6,4.9l-11.1,0c1-6.3-1.5-13.4-2.7-15.6l0.6-0.7
		c0.1,0.3,0.4,1,0.8,1.1c1.3,0.4,1.7-0.5,1.5-1.4C44.4,127.8,43.7,127.4,43.5,127.3L43.5,127.3z M46.4,133.2c0.3,0,0.5,0.2,0.5,0.5
		c0,0.3-0.2,0.5-0.5,0.5s-0.5-0.2-0.5-0.5C45.9,133.4,46.1,133.2,46.4,133.2L46.4,133.2z M112.4,138.3c-0.7-0.7-1.6-0.7-2.3-0.6
		l0,1.5c0,0,1.8-0.1,1.6,0.9c-0.1,0.2-0.2,0.8-0.2,0.8l0,8c0.3,3.5,4.8,4.2,5.9,0.9c0.2-0.6,0.2-1.1,0.2-1.7v-4.2l1.3,0l0-1.5
		l-1.2,0c0.1-2.1-0.3-4.1-1.7-4.6C114.2,137.2,113.2,137.7,112.4,138.3L112.4,138.3z M116.2,141.8c-0.7,0.1-1.8-1.3-2.6-2.3
		c0.4-0.8,1.6-0.6,2-0.2C116.2,140.1,116.2,141.3,116.2,141.8L116.2,141.8z M50.6,139.7c0.3,0,0.6,0.2,0.6,0.6
		c0,0.3-0.2,0.6-0.6,0.6c-0.3,0-0.6-0.2-0.6-0.6C50.1,140,50.3,139.7,50.6,139.7L50.6,139.7z M112.9,141c0.8,1.5,3.2,2.7,3.2,2.5
		l0,4.2c0.1,1.7-0.5,2.5-1.5,2.6c-1.9,0-1.9-2.3-1.9-3.6l0-4.2C112.8,142.1,112.7,141.5,112.9,141L112.9,141z M112.9,141"/>
	<g>
		<defs>
			<rect id="SVGID_1_" x="5.4" y="2.2" width="134.8" height="174.4"/>
		</defs>
		<clipPath id="SVGID_2_">
			<use xlink:href="#SVGID_1_"  overflow="visible"/>
		</clipPath>
		<path clip-path="url(#SVGID_2_)" fill="none" stroke="#000000" stroke-width="0.2" d="M23.5,18.1V2.6 M21.3,20.3H5.7 M122.2,18.1
			V2.6 M124.4,20.3h15.6 M23.5,160.2v15.6 M21.3,158H5.7 M122.2,160.2v15.6 M124.4,158h15.6"/>
	</g>
</g>
<g>
	<g>
		<path fill="#FFFFFF" d="M21.2,19.9c-1.1-0.7-1.9-0.8-3.2-0.7c-0.2,0-1.9,0.5-1.2,0.7c1,0.3,2,0.7,3,1c0.5-0.2,1-0.5,1.4-0.7
			c-5.2,0-10.4-0.6-15.7-0.7c-0.2,0-1.9,0.5-1.5,0.7c0.7,0.4,1.5,0.7,2.3,1c0.4,0.2,1.7,0,1.9-0.5c0.2-0.5,0.4-0.9,0.7-1.3
			C9,19.2,7.3,19.3,7,19.7c-0.3,0.4-0.5,0.8-0.7,1.3c0.6-0.2,1.2-0.3,1.9-0.5c-0.8-0.3-1.6-0.6-2.3-1c-0.5,0.2-1,0.5-1.5,0.7
			c5.2,0,10.4,0.6,15.7,0.7c0.3,0,2.1-0.5,1.4-0.7c-1-0.3-2-0.7-3-1c-0.4,0.2-0.8,0.5-1.2,0.7c0.8,0,1.5,0.2,2.2,0.6
			C19.8,20.8,21.4,20,21.2,19.9L21.2,19.9z"/>
	</g>
</g>
<g>
	<g>
		<path fill="#FFFFFF" d="M19.2,17.7c-4.7,0-9.3,0-14-0.3c-1.9-0.1-4.2,0.5-5,2.4c-0.8,1.7,0.7,3.2,2.4,3.3c5.3,0.3,10.7,0.4,16,0.4
			C23.1,23.5,24.5,17.7,19.2,17.7L19.2,17.7z"/>
	</g>
</g>
<g>
	<g>
		<path fill="#FFFFFF" d="M26.7,16.9c2.1-4.5,0.2-11.1-0.6-15.7c-0.3-1.9-8.1-0.1-7.7,2.1c0.8,4.4,2.7,10.7,0.7,14.9
			C18.4,19.7,25.8,19,26.7,16.9L26.7,16.9z"/>
	</g>
</g>
<g>
	<g>
		<path fill="#FFFFFF" d="M125.8,16.2c-0.1-5-0.9-10-1-15c0-2.4-7.8-0.9-7.7,2.1c0.1,5,0.9,10,1,15
			C118.1,20.7,125.8,19.2,125.8,16.2L125.8,16.2z"/>
	</g>
</g>
<g>
	<g>
		<path fill="#FFFFFF" d="M124.5,22.6c3.2-0.1,6.5,1.1,9.7,1.5c3.3,0.4,6.8-0.3,9.6-2.2c1-0.7,2.4-2.6,0.6-3.3
			c-2-0.8-3.8-1.1-5.9-1.1c-1.8,0-4.1,0.5-5.1,2.2c-0.9,1.6,0.8,2.6,2.2,2.6c0.9,0,1.9-0.1,2.7,0.3c0.2-1.1,0.4-2.2,0.6-3.3
			c-1.1,0.8-4.7-0.4-6.1-0.6c-2.5-0.5-4.8-0.8-7.3-0.7C121.3,18,119.1,22.8,124.5,22.6L124.5,22.6z"/>
	</g>
</g>
<g>
	<g>
		<path fill="#FFFFFF" d="M125.9,160.8c4.5-0.9,9.4-0.2,13.9-0.2c4.4,0,6-5.5,0.7-5.5c-5.4,0-10.7-0.6-16.1,0.5
			c-1.5,0.3-3.7,1.8-3.2,3.6C121.9,161.2,124.4,161.1,125.9,160.8L125.9,160.8z"/>
	</g>
</g>
<g>
	<g>
		<path fill="#FFFFFF" d="M118.1,162.9c1.4,4.3,1.3,9,1,13.4c-0.3,3.4,7.5,2,7.8-0.9c0.4-4.8,0.5-10-1-14.6
			C124.8,157.9,117.1,160.1,118.1,162.9L118.1,162.9z"/>
	</g>
</g>
<g>
	<g>
		<path fill="#FFFFFF" d="M19.7,162.9c0,4.7,0,9.3,0,14c0,2.4,7.7,0.9,7.7-2.1c0-4.7,0-9.3,0-14C27.4,158.5,19.7,160,19.7,162.9
			L19.7,162.9z"/>
	</g>
</g>
<g>
	<g>
		<path fill="#FFFFFF" d="M22.3,155.5c-5.7-1-11.5-1-17.3-1c-4.3,0-6,5.5-0.7,5.5c5.1,0,10.3,0.1,15.3,1
			C23.3,161.6,27.5,156.4,22.3,155.5L22.3,155.5z"/>
	</g>
</g>
</svg>
