<?xml version="1.0" encoding="utf-8"?>
<!-- Generator: Adobe Illustrator 14.0.0, SVG Export Plug-In  -->
<!DOCTYPE svg PUBLIC "-//W3C//DTD SVG 1.1//EN" "http://www.w3.org/Graphics/SVG/1.1/DTD/svg11.dtd" [
	<!ENTITY ns_flows "http://ns.adobe.com/Flows/1.0/">
]>
<svg version="1.1"
	 xmlns="http://www.w3.org/2000/svg" xmlns:xlink="http://www.w3.org/1999/xlink" xmlns:a="http://ns.adobe.com/AdobeSVGViewerExtensions/3.0/"
	 x="0px" y="0px" width="300px" height="155px" viewBox="-85.8 11.6 300 155" enable-background="new -85.8 11.6 300 155"
	 xml:space="preserve">
<defs>
</defs>
<g>
	<path fill="#FFFFFF" d="M27.1,21.2h88.9c2.6,0,4.7,2.1,4.7,4.7v127.8c0,2.6-2.1,4.7-4.7,4.7H27.1c-2.6,0-4.7-2.1-4.7-4.7V25.9
		C22.4,23.3,24.5,21.2,27.1,21.2L27.1,21.2z M27.1,21.2"/>
	<path fill="none" stroke="#000000" stroke-width="0.7974" d="M27.1,21.2h88.9c2.6,0,4.7,2.1,4.7,4.7v127.8c0,2.6-2.1,4.7-4.7,4.7
		H27.1c-2.6,0-4.7-2.1-4.7-4.7V25.9C22.4,23.3,24.5,21.2,27.1,21.2L27.1,21.2z M27.1,21.2"/>
	<path fill="#E2CF00" d="M106.9,37.2l-5.1,3.3l-0.1,3.9c-3-1.4-4.3-3.8-4.8-6.6c-0.9,1.1-0.7,6.1-0.7,6.1l-1.6,1.8
		c0.5,0.8,1.2,1.5,1.9,2.3c0,0-0.6,5.4,0.2,6.1c-0.4-1.7,4.9-7.7,4.9-7c0,0,0,9-0.2,17.7c-1.4-1-4.4-2.7-6.4-4.5
		c2.5-3.4,0-7.4-3.8-4.7c-2.4-1.3-2.8-7.5-3.4-10.8c-0.1-0.7-0.7-2.5-0.7-2.5s-8-2.2-11.4-2.1c1.6,4.5,2.7,10.4-1.1,14
		c-3,4-9.6,4.8-9.4,4.4c-6.1,2.8-13.2,5.9-20.1,11.8c-1.3,8.7-5.8,13-8.9,15.4c0,3.5,0,7,0.1,10.6c0,0,2.9-1.9,3.3-1.5
		c2.4,15.7,11.3,18.8,10.4,19.3c-0.1,0.1-2.9,2.9-2.9,2.9l-10.8-7.1c-0.4,10.9-0.2,22,0,32.9c1.9-1.1,5.4-3.7,5.4-3.7l0.1-3.7
		c0-0.4,4.9,3.1,4.9,7.2c0.4,0.3,1.2-5.9,0.5-6.6l2-2.1l-2.2-2.1c0,0,0.6-3.5-0.6-5.5c-0.7,4.6-4.5,6-4.5,6s-0.1-16.8-0.2-16.8
		l6.8,4.3c-0.5,0.1-1.8,2.5-0.4,4.5c0.8,1.2,3.8,1.1,4-0.3c4.2,3.9,2.6,8.5,4.4,14.1l11.9,2.2c-4.9-9.1,0.4-19.4,10-18.7
		c1.8-0.7,3.4-1.8,3.4-1.8s-1.2-2-2.7-3.8l-20.5-0.3l9.6-18l-6.3-0.2c0,0,5.1-10.9,4-11.7c-0.4-0.3-0.2-3.8-0.2-3.8l5.6,0.2
		c0.2-2.5-2.7-12.1-6.9-18.3l23.1,0.2L74.5,82l7,0.2l-4.2,8.6l0.7,6.7l-6.2,0.2c1.1,9.3,7.9,19,10.4,22c4-0.9,11.5-6.7,16.1-10.2
		c0.6-6.2,2.7-11.5,8.3-15.4l0.1-10.4c0,0-3.2,2.2-3.2,2c0-2.2-1.2-6.8-3.3-10.9c-2.2-4.5-5.7-8.5-6.9-8.6c2-3,2.8-3.3,2.8-3.4
		l10.8,6.9L106.9,37.2z M52.5,59c0,0-2.1,0.8-3.9,0.8c-2.1,0-5.7,0.4-7.1,3.1c-0.3,0.8,0.3,1.1,0.8,1.3c0.3,0.1,0.7-1.3,3.6-1.4
		c1.6,0.4,4.7-0.5,5.4-1.2C52.6,60.3,52.5,59,52.5,59L52.5,59z M37.9,73c0,0.4,0.5,1.1,0.7,0.4c0.2-0.5,0.3-1.4,0-1.9
		C38,71.1,38,72.6,37.9,73L37.9,73z M73.4,87.8l-3.2,0l0,3.7l3.3,0.2L73.4,87.8z M104.7,106.5c-0.1,0.4-0.4,2,0.4,1.8
		C106,107.5,105.2,104.3,104.7,106.5L104.7,106.5z M101.7,115.9c-0.4-0.5-1.5,0.8-2.5,0.9c-4.3,0.3-7.4-0.3-7.9,4.1
		c2.5-1.6,5.9-0.9,8.1-1.4C101,119,102.9,117.5,101.7,115.9L101.7,115.9z M101.7,115.9"/>
	<path fill="#131F67" d="M35.8,147.6c-0.5-39-0.2-77.6-0.1-116.1l72,0.4c-0.3,38.5-0.3,77.2,0.2,116L35.8,147.6z M38.9,72.5
		c0.1-1.1-0.4-1.6-0.8-0.8c-0.1,0.2-0.4,2.1,0.3,2.2C38.9,73.9,38.9,73,38.9,72.5L38.9,72.5z M37.7,73.8c0-0.3-0.2-0.4,0.2-2.7
		c-0.7-0.3-1.3-1.4-0.8-2.1c0.2-0.3,0.1-0.3,0.1-0.6c-0.2-0.6-0.1-1,0.4-1.4c0.3-0.2,0.4-0.3,0.2-0.6c-0.3-0.8,0-1.6,0.7-1.8
		c0.5-0.2,0.4-0.2,0.5-0.5c0.1-0.7,0.5-1.2,1.3-1.1c0.7,0.1,0.7,0.1,0.8-0.3c0.2-0.9,1.3-2,2.8-2.6c0.7-0.3,2-0.6,4.3-0.6
		c1.3,0,3-0.2,3.9-1c0.2-0.1,0.4-0.5,0.4-0.5c0.2,0.1,0.1,1.1-0.2,1.9c-1,2.5-2.3,3.2-6.1,3.1c-1.1-0.1-2.8,0.1-3.5,0.8
		c-0.2,0.2-0.4,0.4-0.3,0.5c1.6,0.2,3.2,0.9,4.1,4c2.9-2,7.4-5.1,13.1-7.9C59,56.8,62.2,56.3,64,57c0,0,0-0.2,0-0.5
		c-0.1-0.3-0.2-0.6-0.5-1.1c-0.1-0.2-0.6-0.5-0.5-0.7c0.2-0.4,0.1-0.5-0.3-0.9c-0.2-0.2-0.1-0.8,0-1c0.1-0.4,0.3-1,0.1-1.2
		c-0.4-0.3-1.6-0.9-2.2-1.3c-0.7-0.5-0.7-1,0.3-2.6c0.5-1,0.9-2,1.3-2.7c0.6-1,0.6-1.7,0.3-2.3c-0.4-0.8-0.4-1.7-0.4-1.7
		c0,0-4.2-5.9-5.9-8.3l-19.5-0.1l-0.2,44.7L40,74l-0.9-1.1c-0.1,0.6,0,1.2-0.8,1.3C38,74.2,37.8,74.1,37.7,73.8L37.7,73.8z
		 M49.4,133.4c0.1-1.8-0.7-4.7-2-6.7c0.1,1.5,0.2,3.4-0.1,4.9L49.4,133.4z M80.2,138c-0.2,0-1.4-0.1-2.2-0.2
		c-2.7-0.1-4.4-1.4-5.6-3.2c-0.3-0.4-0.2-0.4,0.5,0.1c1.8,1.4,3.4,2.2,4.9,2c2.1-0.3,3.2,0.5,2.9,1.3
		C80.6,138.2,80.6,138.1,80.2,138L80.2,138z M73.2,134.1c-0.4-0.4-0.4-0.5,0-0.2c1.5,1,3.3,2.6,5.5,1.7c0.5-0.3,0-0.3-0.7-0.2
		c-1.2,0.1-2.6-0.5-4.4-1.7c-0.9-0.6-0.5-1.1,0.5-0.6c0.3,0.1,0.6,0.3,0.8,0.3c1-0.6,3-0.6,2.9-0.6c0.2-0.2-0.5-0.5-1.7-0.9
		c-0.7-0.3-0.9-0.4-0.4-0.4c0.5,0,1.2,0.2,1.8,0.6c0.9,0.6,1.4,0.9,1.6,0.9c0.4,0,0.9,0.1,0.1,0.4c-0.3,0.2-0.3,0.2-0.3,0.6
		c0.1,0.6,0.1,0.6,0.4,0.9c0.5,0.5,0.7,1.5,0,0.9c-0.1-0.1-0.2,0.1-0.6,0.2C76.6,136.6,74.9,135.5,73.2,134.1L73.2,134.1z
		 M77.5,134.3c0.1-0.2,0.3-0.6,0.3-0.7c0-0.3-0.3-0.2-0.4,0c-0.2,0.3-0.5,0.7-0.3,0.8C77.3,134.3,77.4,134.4,77.5,134.3L77.5,134.3z
		 M76.7,134.1l0.5-0.9c-0.1-0.1-1.9,0.3-1.6,0.5C75.9,133.9,76.7,134.1,76.7,134.1L76.7,134.1z M78.7,131c-0.8-0.4-1-1.3-0.4-2
		c0.5-0.5,1.3-0.5,2.4,0.2c0.4,0.2,0.6,0.3,0.8,0.2c0.4-0.2,0.6,0.1,0.5,0.4c-0.1,0.7-1.2,0.9-1.9,0.1c-0.9-1.1-1.9-0.3-1.6,0.4
		c0.2,0.4,0.4,0.5,0.8,0.6C79.2,131,78.9,131.1,78.7,131L78.7,131z M75,126.3c1.3-0.4,3.3,1,4.3,0.8c0.5-0.1,0.4,0.6-0.1,0.8
		c-0.6,0.3-1.4,0.1-3-0.8c-1.4-0.8-2.5,0.5-1.6,1.4c0.2,0.2,0.5,0.3,0.8,0.3c0.5,0,0.6,0.1,0,0.3c-0.3,0.1-1-0.1-1.3-0.4
		C73.5,128,73.6,126.5,75,126.3L75,126.3z M47.1,122.2c0-1.6,0.8-2.4,0.8-2.4l-5.9-4l0.1,16c2.9-1.9,3.9-4.2,4.1-7.2
		c5.8,6.5,4,14.4,0.4,18.9c-0.1-2.8-1-6-4.3-7.7l0,3.3l-5.5,3.9l0,3.6l13.1,0l6.3-9.2c-1.1-4.2-1-7.7-1.7-9.6
		c-0.6-1.6-1.7-3.6-2.4-3.3C49.6,126.4,47.2,124.2,47.1,122.2L47.1,122.2z M52.1,124c2.1,1.5,2.6,3.9,3,6c0,0,1.1,7.3,1.1,7.4
		c0.1,0.4,0.1,0.8-0.3,1.1c-1.9,2.6-5.6,8.2-5.6,8.2l36.3,0.2c-1.9-2.8-3.4-5.6-5.3-7.9c0.1-0.1-0.1-1.7-0.4-2.2
		c-0.3-0.5-0.4-0.8-0.2-1.3c0.5-1.2,1.1-2.5,1.6-3.6c0.9-2.1,1-2.1-0.2-2.8c-1.5-0.9-1.8-1.2-1.5-2.2c0.1-0.4,0.1-0.5-0.3-0.6
		c-0.2,0-0.7-0.2-1.1-0.3c-1-0.3-0.7-0.1-1.1,0.1c-0.3,0.1-0.5-0.4-0.9-1c-0.4-0.7-0.5-0.8,0.2-0.4c1.2,0.7,3.3,0.4,2.5-0.4
		c-0.4-0.4-0.7-0.6-0.7-1.5c0-0.9,0.1-1.1-0.6-1.3c-1.2-0.2-2.5-0.1-3.7,0.1c-3.4,0.9-6.2,3.8-7.2,6c-0.2,0.4,0.3,0.4,0.5,0.4
		c1.1-0.1,1.9,1.7,1.2,2.5c-0.3,0.4-0.7,0.1-0.3-0.3c0.4-0.8-0.2-1.8-1.1-1.5c-1.1,0.3-1.2,1.8-1.3,2.8c-0.4,3,1.1,6.9,1.5,7.7
		c0,0,0.1,0.1,0.1,0.1c0,0-0.2,0.2-0.3,0.1c-0.3-0.3-0.9-2.7-1.3-4.4c-0.7-4.8,0.5-9.2,4.5-11.7c3.5-2.5,5.3-2,7.3-2.1
		c0.7-0.2,1.6-0.6,2.3-1c3.5-1.9,6.4-3.6,9.4-5.2c2.9-1.6,4.8-3.8,7.5-5.2c0.1-0.1,0.2-0.2,0.4-0.3c3.3-2.9,6.6-5.7,8.5-7.6
		c0.2-0.2,0.4-0.6,0.4-0.6l-0.3-16.5c0,0-0.3-0.3-0.3-0.5c0-0.6-0.2-0.5-1.4,0.4c-1.5,1-1.6,1-1.6,1c-0.8-7.6-4.9-15.1-9.9-19.4
		l0.2-0.3c0,0,1.7,1.1,2.5,1.6v-1.1l-2-1.3c0,0-0.2-0.1,0-0.4c0.1-0.1,0.4,0,0.4,0l1.6,1.2v-1L95,64.3l0.4-0.5l0.7,0.5
		c-0.3-0.8,0.1-0.7,0.5-0.2c0.2,0.2,0.4,0.5,0.5,0.8c0,0.1,0.1,0.4,0.1,0.4l1.1,0.8c0,0,0-0.4,0-0.5c0.2-0.6,1.6,1.3,1.4,1.4
		l1.2,0.8c0.3-0.4,1.3,0.4,1.4,0.8c0.1,0.2,4,2.7,4,2.7l0-1.4l0.4-0.5l0.2-32.2l-5.2,3.3l-0.1,3.9c-2.5-0.8-4.6-4.4-4.9-6.6
		c-0.2-0.1-0.9,4.4-0.5,6.3c-0.7,0.5-1.7,1.6-1.7,1.6l2,2.2c0,0-0.4,3.3-0.3,5c0.1,0.8,0.1,0.9,0.3,0.9c0.2,0,0.4-0.2,0.4-0.4
		c0.5-2,2-5,4.6-6.1c0.2,0,0,17.6,0,17.6l-6.5-4.5C94.8,60,95.5,60,96,58.5c1.2-3.8-3-5.1-4.5-3c-0.3,0-1.4-1.4-1.5-1.9
		c-1.2-2.4-1.4-5.2-1.7-7.4c-0.1-1-0.5-2.7-0.8-3.7c-0.2-0.5-0.2-0.9,0.2-1.4c1.6-2.2,3.2-4.5,4.6-6.7c1.2-1.6,1-1.7,1-1.7
		l-36.4-0.1l5.8,7.7l0.6,0.2c-1,0.1-0.7,1-0.3,2c0.5,1.2,0.4,1.4-0.8,3.8c-1.8,3.5-1.9,3.2-0.1,4.3c1.1,0.7,1.3,0.9,1.1,1.8
		c-0.2,1-0.2,0.7,0.7,0.7c0.5,0,0.9,0.1,1.1,0.2c0.2,0.1,0.4,0.3,0.8,0.2c0.5-0.2,0.5,0,0.6,0.3c0,0.2,0.3,0.5,0.3,0.6
		c0.2,0.3,0.1,0.4-0.3,0.2c-1.2-0.7-3.1-0.4-2.4,0.4c0.3,0.3,0.6,1.4,0.6,2c0,1,0.7,1.3,2,1.1c2.6-0.2,8.3-3.4,9.7-6.9
		c-3,1-2.3-2.6-1.3-2.5c0,0-0.3,0.6-0.3,1c0,1.3,1.1,1.4,1.8,0.5c0.3-0.5,0.7-2.3,0.5-4.3c-0.2-2.4-1.2-5.2-1.4-5.9
		c4.2,10.1,0.3,14.5-5.6,17.4c-2.3,0.9-2.6,0.9-3.9,1c-0.9,0.1-1.7,0.5-2.6,0.8c-5.1,2.4-11.3,5.4-16.9,10c-4,3-7.2,5.6-10.3,9.1
		l0,17.8c0,0,0,0.3,0.4,0.1c0.9-0.3,1.9-1.2,2.7-1.5c0.3,0,0.3-0.2,0.4,0.5c0.3,1.4,0.5,2.8,0.9,4.2c1.7,5.4,4.3,9.1,8,13
		c0.4,0.4,1,1.2,1,1.2c0,0,0,0,0,0c-0.8-0.5-1.6-1.1-2.4-1.5l0,0.8l1.9,1.3c0.1,0.2-0.3,0.5-0.3,0.5l-1.6-1.1l0,0.9l1.2,0.8
		c0.3,0.3-0.4,0.5-0.4,0.5l-0.7-0.5c0,0,0.1,0.4,0,0.5c-0.2,0.6-1.2-0.8-1.4-1.5l-1-0.6c0.1,0.4-0.2,0.5-0.5,0.4
		c-0.8-0.4-0.7-1-0.9-1.4l-1.4-0.9c-0.2,1.3-1.6-0.5-1.4-1l-1.7-1.2c0.1,0-0.7,0.2-0.9,0c-0.3-0.2-0.4-1-0.4-1l-1-0.6v1.1l10.8,7.5
		l-0.2,0.3l-11.2-7.7l0.5,33.4l5.5-3.8c-0.1-1.3,0.1-2.4,0-3.8c2.8,1.8,3.8,2.9,5,6.6c0.8-2.1,0.7-4.1,0.3-6
		c0.7-0.6,1.4-1.2,1.8-2.1c-0.7-0.9-1.3-1.2-2.1-2.1c-0.1-1.1,0.6-4.2-0.3-5.2c0,0-1.5,4.6-4.8,5.9c-0.1-4.8,0-16.9,0-16.9
		s3.4,2.3,5.1,3.3c0.8,0.4,1.4,0.7,1.4,1c0,0.2-0.3,0.4-0.5,0.6c-0.1,0.1-0.5,1.4-0.3,2.5c0.1,0.8,0.4,1.2,0.8,1.6
		C49.4,125.5,51.4,124.9,52.1,124L52.1,124z M58.6,115.5l12.9-18c1.5,6.6,4.1,12.7,7.5,18.2L58.6,115.5z M65,96.5
		c0,0,0.9-1.8,1.3-2.7h-1.6l0.9-1.1H68l-1.3,2.7h1l1.4-2.7h3.7l-1.3,2.7h0.8l1.4-2.7h3.4L76,95.4h0.8l0.7-1.4l0.2,2.5h-3.4l1.3-2.7
		h-1.1L73,96.5h-3.2l1.4-2.7H70l-1.5,2.7H65z M75.4,86.9l1.4-2.9h-1.1l-1.5,2.8h-3.4l1.3-2.8l-0.8,0c-0.6,0.9-1.5,2.7-1.5,2.7h-3.6
		c0,0,1-1.9,1.4-2.8h-0.9l-0.7,1.1c-0.3-0.4-0.1-1.6-0.1-2h3.4L68,85.8H69l1.5-2.8h3.6l-1.5,2.8h0.8l1.4-2.6h3.6l-1.3,2.6h1.1
		l-0.5,1.1H75.4z M72.1,81.9L71.4,82c-0.9-7.5-5-15.1-6.8-18.3L85.3,64L72.1,81.9z M96.3,38.7c0,0-2,2.5-2.1,6.8l1.9-1.5
		C96,39.6,96.3,38.7,96.3,38.7L96.3,38.7z M94.2,45.8c0,3.2,0.8,5.2,1.8,6.7c0-2,0.2-4.1,0.3-4.6L94.2,45.8z M43.2,106.1l-6.7-4.6v1
		l7.9,5.4L43.2,106.1z M42,103.7c-1.8-0.9-5.5-3.7-5.5-3.7v0.9l5.9,4.1c0.1,0.1,0.3,0.1,0.3,0C42.5,104.6,42.2,104.1,42,103.7
		L42,103.7z M40.4,99.7L36.5,97v0.8c1,0.9,4.2,3,4.2,3L40.4,99.7z M36.5,96.4l3.6,2.3l-0.2-1L37.4,96L36.5,96.4z M101.3,64.1
		l0.2-16.6c-3.8,1.8-4.5,7-4.4,7.1c-3.7-3.9-5.1-12.2,0.1-17.7c0.4,1.8,0.5,4.4,4.2,6.8l0.1-3.5l5.2-3.3l0-4l-12.5-0.1
		c-1.9,2.4-3.9,5.2-5.8,7.8c-0.7,1-0.9,1.4-0.8,1.9c1.3,4.5,1,10.1,3.6,12.7c3.5-3.3,6.9,1.7,4.1,4.8L101.3,64.1z M47.4,135.9
		c0.5,1.5,0.2,4.6,0.1,4.6c0.6-0.3,2.1-4.7,1.7-6.4 M67.3,53c-0.9-0.3-1.5-0.6-2.5-0.5c-0.7,0.1-1-0.2-0.5-0.6
		c0.6-0.5,1.2-0.7,2.2-0.1c3.3,1.7,3.4-0.8,1.9-1c-0.4-0.1-0.4-0.3,0-0.2C70.7,50.7,70,53.7,67.3,53L67.3,53z M63.5,50.5
		c-0.4-0.2-1-0.4-1.1-0.4c-0.5,0.1-0.5-0.1-0.4-0.5c0.1-0.8,0.9-0.6,1.9,0c1.5,0.9,2-0.4,0.7-1.1c-0.4-0.2-0.3-0.3,0-0.3
		c0.7,0,1.4,0.9,1.2,1.7C65.2,51.2,64.1,50.7,63.5,50.5L63.5,50.5z M67.8,48.2c-1-0.2-2.3-1.4-3-1.5c-0.4,0-0.8,0-0.9-0.1
		c-0.4-0.4,0.6-0.4,0.7-0.6c0-0.4,0-0.6,0-0.7c-0.2-0.2-0.9-1.2-0.8-1.7c0,0,0.4,0.3,0.5,0.3c1.7-0.9,2.9-0.5,4.3,0.1
		c0.6,0.3,2.1,1.4,2.1,1.6c0,0.3-0.6-0.3-1.2-0.6c-1.3-0.9-2.5-1.6-4.1-1c-0.3,0.1-0.2,0.1,0.6,0.1c0.8,0,1.5,0.2,2.6,0.9
		c0.3,0.2,0.6,0.5,0.8,0.6c1.3,0.6,1.6,1.3,0.8,1.1c-0.2,0-0.5-0.2-0.9-0.3c-0.6-0.2-0.4-0.1-1,0.1c-0.2,0.1-0.7,0.3-1.1,0.3
		c-0.3,0.1-1.3,0-0.9,0.5c0.5,0.5,1.3,0.8,1.8,1C68.6,48.3,68.3,48.3,67.8,48.2L67.8,48.2z M67.9,46.2c0.6-0.2,0.1-0.8-0.7-0.9
		c-0.2,0-0.6,0.8-0.6,1C66.7,46.5,67.6,46.3,67.9,46.2L67.9,46.2z M66.2,46.3c0.1-0.1,0.6-0.8,0.6-0.9c0-0.4-0.6-0.3-0.7,0.1
		C66,46.1,66,46.4,66.2,46.3L66.2,46.3z M64.2,42.7c-0.5-0.2-1.2-1.2-0.4-1c0.2,0,1.1,0.1,1.6,0.1c2,0,3.9,0.9,5.1,2.2
		c0.7,0.7,0.7,1.2,0,0.8C68.2,42.5,66.6,42.9,64.2,42.7L64.2,42.7z M83.6,119.4l-0.7,0.4c0,0.4,0.1,0.3,0.4,0.6c0,0-0.4,0.1-0.7,0
		c-0.5,0-0.6,0-0.4,0.3c0.1,0.2,0.2,0.4,0.2,0.4s-0.3,0.1-0.7-0.1c-0.6-0.2-0.9-0.1-0.7,0.3c0.1,0.1,0.2,0.3,0.2,0.3
		c-0.5-0.1-1.3-0.5-1.3-0.5l-0.6,0.2C80.5,123.7,84.7,122.2,83.6,119.4L83.6,119.4z M104,116.2c0.6-0.5,0.3-1.2-0.6-1.7
		c-0.4-0.2-0.4-0.2-1,0.2c-0.8,0.5-0.8,0.5-0.3,1.1C102.8,116.4,103.6,116.6,104,116.2L104,116.2z M101.6,114.6
		c0.6-0.3,0.4-0.2,0.3-0.8c-0.2-0.7,0.2-0.8,0.4-1.4c0.1-0.4-0.2-0.2-0.8,0.3c-0.5,0.4-0.6,0.5-0.6,0.3c0.1-0.2-0.3-0.6-0.7-0.7
		c-0.3,0-0.3-0.1,0-0.5c0.5-0.7,0.7-1.5,0.4-2.2c-0.4-0.9-0.6-1.1-1.5-0.3c-0.5,0.5-1.2,0.8-1.5,1.4c-0.2,0.4-0.1,0.8,0.3,1.6
		C98.8,114.3,100.3,115.2,101.6,114.6L101.6,114.6z M105,114.6c1.1-0.4,0.6-1.5-1-2.7c-1-0.7-1.3-0.7-0.4,0.1c0.5,0.5,0.6,0.6,0.4,1
		c-0.2,0.3-0.4,0.6-0.2,0.9C104,114.3,104.5,114.8,105,114.6L105,114.6z M45.8,112.7l-1.1-0.7v1l1.1,0.7V112.7z M103.1,113.6
		c0.2-0.2,0.4-0.6,0.4-0.8c0.1-0.5-0.7-0.4-1.1,0.2C102,113.6,102.5,114,103.1,113.6L103.1,113.6z M105.6,112.1
		c0.5-0.5,0.3-1.1-0.8-1.8c-0.4-0.3-0.6-0.4-0.6,0.1c0,0.2-0.2,0.4-0.3,0.5c-0.4,0.4-0.2,0.5,0.9,1.2
		C105.4,112.4,105.3,112.4,105.6,112.1L105.6,112.1z M45.8,111l-1.1-0.7v0.9l1.1,0.8V111z M43.2,111.9l0-0.9l-1.5-1l0,1L43.2,111.9z
		 M101.7,111.6c-0.2,0.5,0.6,0.3,0.6,0.2c0.1-0.3,0-0.3,0-0.3C102.1,111.4,101.6,111.5,101.7,111.6L101.7,111.6z M102,110.9
		c0.3-0.1,0.3-0.1,0.3-0.5c-0.1-0.7,0.1-0.8,0.5-1.1c0.4-0.3,0.4-0.2,0.4-0.7c0-0.5,0-0.8,0.7-0.9c0.3,0,0.5-0.1,0.5-0.3
		c0-0.4-0.6-1-1.3-1.4c-0.1,0-1.8,1.5-2.3,2l-0.3,0.3l0.3,0.6c0.5,1,0.5,1.4,0.1,2.7c-0.1,0.4,0.2,0.3,0.3-0.1
		C101.3,111.2,101.4,111,102,110.9L102,110.9z M104.6,107.3c-0.1,0.8,0.3,1.3,0.7,0.9c0.2-0.2,0.4-2,0.3-2.3
		C104.7,105.1,104.6,107.1,104.6,107.3L104.6,107.3z M91.4,120.8c3-1.8,7-0.3,9.2-1.8c1-1.1,2-2,1.4-2.8c-0.5-0.6-0.6-0.7-1-0.3
		c-0.8,0.7-1.5,0.9-3.6,0.9C93.6,116.7,91.5,117.9,91.4,120.8L91.4,120.8z M96.6,116.6c1.9,0.1,3.5-0.3,4.2-0.8
		c0.4-0.4,0.5-0.4-0.2-0.5c-1.5-0.1-3-1.9-3.5-3.6c-0.1-0.3-0.2-0.7-0.2-0.7c-4,3.2-12.8,8.2-12.8,8.2c0.6,2.7-1.4,4.3-4.1,3.4
		c-0.5,0-0.4,0.6-0.3,0.8c0.1,0.4,0.5,0.7,0.5,0.8c0.4,0.3,0.5,0.6,0.4,0.9c-0.1,0.3-0.1,0.3,0.2,0.4c0.4,0.2,0.4,0.5,0.2,1.2
		c-0.2,0.9-0.3,1.1,0.4,1.5c0.8,0.5,2.4,1.1,2.2,1.9c-0.5,1.8-1.4,3.4-2.2,5c-0.3,0.5-0.2,1.2,0,1.6c0.3,0.5,0.2,1.2,0.6,1.7
		c2,3,3.8,5.7,5.6,8.4l19.3,0.2l-0.5-44.6c0,0-3,2.9-3,3.1c0,0.2,0.7,0.6,1,0.7c0-0.1,0-0.7,0-0.8c0-0.3,0.9-0.2,1.2,0
		c0.2,0.2,0.1,1.2-0.1,2.1c-0.2,0.7-0.1,0.7,0.2,1.1c0.4,0.5,0.5,0.9,0.5,1.5c0,0.3,0,0.6,0.1,0.8c0.2,0.5,0.1,1.2-0.1,1.5
		c-0.3,0.5-0.3,0.5-0.3,0.8c0.3,0.8,0.2,1.6-0.8,1.9c-0.1,0-0.3,0.3-0.3,0.4c-0.4,1.4-1.2,1.4-2.2,1c-0.8,2.9-3.8,3.7-6,3.6
		c-2.3-0.1-4.6,0.1-5.6,1.6C91.2,118.2,92.8,116.5,96.6,116.6L96.6,116.6z M103.5,110.7c0.4-0.1,0.4-0.5,0.1-0.8
		c-0.5-0.4-1.1,0-0.8,0.6C102.9,110.8,103.1,110.8,103.5,110.7L103.5,110.7z M43.3,109.4l-1.5-1.1l0,0.9l1.5,1L43.3,109.4z
		 M46.2,110.2l-1.1-1.3c-3.2-1.9-5.9-4.1-8.6-5.9l0,1.2l0.8,0.4c0,0,0.1-0.3,0.1-0.4c0.1-0.3,1,0.5,1.3,1.2c0.1,0.2,0.2,0.5,0.2,0.5
		l1,0.6c0,0,0-0.3,0-0.4c0-0.6,1.1,0.2,1.6,1.2c0.1,0.2,0.3,0.5,0.3,0.5l1,0.6c0.4-0.5,1.3,0.2,1.6,0.8c0.3,0.8,0.9,0.9,0.9,0.9
		L46.2,110.2z M40.4,110l0-0.9l-1.6-1l0,0.9L40.4,110z M105.8,110.1c0-0.2-0.2-1.2-0.6-1.2c-0.2,0-0.6,0.3-0.6,0.5
		C104.7,109.7,105.8,110.4,105.8,110.1L105.8,110.1z M104.5,109c0.3-0.4-0.1-0.9-0.6-0.7c-0.6,0.2-0.4,0.8,0.3,0.8
		C104.3,109.1,104.4,109.1,104.5,109L104.5,109z M40.4,108.3l0-0.9l-1.5-1l0,0.9L40.4,108.3z M37.5,108l0-0.8l-1-0.7v1L37.5,108z
		 M37.5,105.5l-1-0.6v0.9l1,0.6L37.5,105.5z M41.5,102.7c-0.1-0.3-0.5-1.1-0.5-1.1l-4.5-3.1v1L41.5,102.7L41.5,102.7z M39.4,95.3
		l-0.1-0.4L39,95.1L39.4,95.3z M38.5,95.4l-0.6,0.3l1.9,1.2l-0.2-0.9L38.5,95.4z M104,85.1l0.5-0.4l-0.9-0.6l-0.1,0.6L104,85.1z
		 M104.8,84.5l0.6-0.5l-2.1-1.5l0.2,0.9L104.8,84.5z M106.4,83.7v-0.6l-3.5-2.3l0.2,1.2c0.6,0.4,1.4,0.9,2.1,1.4
		C105.8,83.7,105.8,83.8,106.4,83.7L106.4,83.7z M106.4,82.5v-1l-4-2.7l0.3,1.2L106.4,82.5z M106.4,81l0-1.1l-4.9-3.2l0.5,1.4
		L106.4,81z M106.4,78.3l-6.1-4.1l0.8,1.6l5.3,3.6V78.3z M106.4,76.7l-7.7-5.1l0.9,1.4l6.8,4.6V76.7z M106.4,75.1l-0.3,0
		c0,0.7-0.8,0.2-1.1-0.6c-0.2-0.5-0.3-0.7-0.3-0.7l-1.5-1c0,0.2,0.1,0.8,0.1,0.8l-1-0.6c0,0-0.3-1-0.3-1l-1.8-1.2
		c0,0.2,0.1,0.5,0,0.6c0,0-0.5-0.2-0.8-0.6C99,70.3,99,69.9,99,69.9L97.5,69l-0.4,0c0,0-0.2-0.1-0.4-0.3c-0.3-0.6-0.7-0.7-1.2-1
		c0,0,1,1.2,1.6,1.9c0.5,0.7,1.1,1.1,1.1,1.1l8.1,5.4V75.1z M106.4,73.4l-0.6-0.4l0,1l0.6,0.4V73.4z M43.1,71.2
		c0-0.1-0.1-0.1-0.3-0.5c-0.4-1-0.5-1.3-0.2-2.3c0.1-0.5-0.3-0.7-0.5-0.2c-0.2,0.4-0.4,0.6-0.6,0.6c-0.2,0-0.3,0.1-0.2,0.4
		c0.1,0.4-0.1,1-0.5,1.1c-0.4,0.1-0.4,0.3-0.3,0.6c0.2,0.5-0.4,1-0.9,1c-0.7,0-0.4,0.6,0.4,1.2c0.3,0.2,0.5,0.4,0.7,0.2
		C41.3,72.8,42.5,71.9,43.1,71.2L43.1,71.2z M104.6,73.2l0-0.9l-1.8-1.2l0.2,1.3L104.6,73.2z M106.4,72.8v-1l-0.7-0.5l0,1
		L106.4,72.8z M39.3,71.3c0.2,0.2,0.3,0.2,0.6,0c0.3-0.2,0.2-0.4-0.1-0.6C39.4,70.6,39,71.1,39.3,71.3L39.3,71.3z M38.7,70.9
		c0-0.2,0.2-0.5,0.4-0.5c0.4,0,0.3-0.2-0.1-0.5c-0.2-0.1-0.5-0.4-0.7-0.5c-0.6-0.5-1.2,0.2-0.8,0.8C37.9,70.8,38.5,71.1,38.7,70.9
		L38.7,70.9z M104.4,71.5l-0.1-1l-1.6-1.1l0.1,1.2L104.4,71.5z M45.9,69c0.1-0.1,0.1-0.3,0.1-0.5c0-0.7-0.4-1.4-0.9-2.1
		c-0.4-0.5-0.8-0.9-1.2-1.1c-1.2-0.6-2.9-0.4-2.6,0.5c0.2,0.5,0.1,1-0.3,1.3c-0.3,0.2-0.4,0.4,0,0.4c0.2,0,0.9-0.2,1.2-0.7
		c0.4-0.6,0.6-1,0.5,0c0,0.4,0,0.4,0.7,0.3c0.9,0,0.7,0.1,0.2,0.5c-0.7,0.6-0.9,1.5-0.5,2.4c0.2,0.5,0.4,0.8,0.7,0.7
		C44.3,70.3,45.4,69.5,45.9,69L45.9,69z M101.6,70.2l-1.6-1l0.1,1.1l1.7,1L101.6,70.2z M40.8,69.2c-0.6-0.7-1.3,0.2-0.8,0.6
		C40.3,70,41.1,69.8,40.8,69.2L40.8,69.2z M39.4,69.3c-0.1-0.2,0.3-0.6,0.4-0.7c0.2-0.4-1.5-1.6-2.1-0.9c-0.4,0.5-0.1,1,0.9,1.6
		C39.2,69.6,39.5,69.6,39.4,69.3L39.4,69.3z M101.4,68.5l-1.5-0.9l0,1l1.6,0.9L101.4,68.5z M98.9,69.4v-1l-1.5-1l0,1L98.9,69.4z
		 M41.5,68.2c0.3-0.3,0.2-0.4-0.3-0.3c-0.3,0-0.4,0-0.4,0.1C40.6,68.4,41.2,68.5,41.5,68.2L41.5,68.2z M40.3,67.9
		c0-0.1-0.2-0.2-0.5-0.5c-0.6-0.5-0.6-0.8-0.1-1.2c0.8-0.5,0-1.3-1-1c-0.7,0.3-0.7,1-0.3,1.5C39.1,67.1,40.1,68.3,40.3,67.9
		L40.3,67.9z M98.9,66.9l-1.5-1v1l1.5,0.8V66.9z M40.5,67c0.6-0.3,0.7-1.2,0-0.9c-0.3,0.1-0.6,0.5-0.6,0.6
		C39.9,67,40.2,67.1,40.5,67L40.5,67z M41,65.1c0.8-0.4,0.7-0.9-0.1-1.4c-1-0.6-1.7,0.5-0.9,1.3C40.4,65.4,40.5,65.3,41,65.1
		L41,65.1z M42.1,64.2c0.8-1.2,2.6-1.3,3.6-1.3c4.3-0.2,5-0.5,6.1-2.5c0.5-1.1,0.4-1.4-0.2-1.1c-1,0.4-1.6,0.5-3.6,0.5
		c-1.5,0-1.9,0-2.4,0.1c-2.3,0.5-3.9,1.6-4.2,2.9c-0.2,0.8-0.2,0.7,0.2,1.1C42,64.4,42.1,64.4,42.1,64.2L42.1,64.2z M60.7,59.3
		c1.2,0,1.1,0,0.6-0.9c1.2,0.2,1.6,0.7,1.3-0.4c0.6,0.2,1,0.4,1.6,0.6l0.4-0.2c-2.5-2.4-5.2-0.4-4.5,2.1l0.9-0.4L60.7,59.3z
		 M60.7,59.3"/>
	<path fill="#D40000" d="M109.2,154.4v-1.6h1.4c0,0,0,0.6,0-5.1c0-4.9,0-5,0.2-5.5c1-3.3,6.9-3.3,7.3,0.4c0,1.8,0,2.2,0,2.2h-1.6
		c0,0,0-0.4,0-0.7c0-1.8-0.6-2.7-2-2.7c-1.1,0-1.7,0.4-2.1,1.3c-0.2,0.4-0.2,0.9-0.2,1.3c0,2,0,8.9,0,8.9h1.6l0,1.6L109.2,154.4z
		 M66.7,146.8l0.6-2.8l5.1,0.2c0,0,0.6,1.7,0.8,2.5H66.7z M54.9,146.8l2.7-4.5l3.9,1l-0.9,3.5L54.9,146.8z M62.4,146.8l1.2-4.8
		c-2.2-0.5-4.3-0.8-6.7-1.5l-3.9,6.2l-2.4-0.1c2-2.7,5.8-8.2,5.8-8.2c8.6,2.9,17.2,3.4,25.9,1.9c0,0,3.2,4.2,4.4,6.5l-2.3-0.1
		l-2.8-4.7c-2,0.2-3.9,0.5-5.9,0.6l1.4,4.1h-2.2l-1.3-4.1c-2.4-0.1-4.5,0.1-7.4-0.4l-1,4.5L62.4,146.8z M78.6,146.8l-0.8-2.9
		l2.8-0.3c0,0,1.3,2.2,2,3.3H78.6z M86.6,138c0.1-2,0.5-3.7,2.4-6.4c2.4-3.5,6.8-10.2,7-10.5c0,0,4.5,6.8,6.6,9.9
		c1.7,2.6,2.8,5.6,2.8,7.3c0.1,3.4-2,5.5-4.9,5.8c-2,0.2-4-1.5-4.1-3.6c-0.1-0.9-0.5-1.1-0.7-0.4c-0.2,2.6-2.2,4.1-4.6,3.9
		C87.6,143.7,86.5,140.3,86.6,138L86.6,138z M111.2,137.7c-0.9-0.3-1.5-1.2-1.7-2.4c-0.1-1.3,0.4-2.7,2-5.2c0.8-1.2,1.6-2.5,2.2-3.8
		c1,1.4,1.5,2.5,2.4,3.9c2.2,3.5,2.6,5.4,1.5,6.8c-0.8,1-2.5,1-3.2,0c-0.2-0.3-0.3-0.4-0.4-1c-0.1-0.3-0.3-0.3-0.3-0.1
		C113.5,137.4,112.4,138.1,111.2,137.7L111.2,137.7z M53.8,119.5c3.4-5.2,15.5-22,15.5-22l1.8,0.2c0,0-10.7,15-16,22.6L53.8,119.5z
		 M36.4,113.2c-0.2-0.2-0.2-1.3,0.1-1.3c0.4,0,4.5,2.5,3.9,2.9c-0.1,0.1,0.3,23.3,0.3,23.3l-4.5,3.2
		C36.2,141.3,36.5,113.2,36.4,113.2L36.4,113.2z M53.8,72.7l2.6,5c-10.9,10.3-8.7,22.4-2.9,31c0,0-0.7,1.9-2.4,3.9
		c-7.8-5.3-10.2-18.8-10.2-18.8C49.6,86.1,50.7,83.6,53.8,72.7L53.8,72.7z M98.3,109.5c0.5-7.3,4.1-12.1,8.5-16.1l0.1,8.3
		C104.2,104.3,101.4,106.9,98.3,109.5L98.3,109.5z M86.9,101.9c3.6-2.8,7.2-10,7.6-14.7c0.3-6.3-1-11.1-4.7-16l2.8-4
		c4,4.3,8,8.8,9.6,19.3c0,0-0.2,0.1-0.7,0.5c-10.5,9.2-12.1,20-12.1,20L86.9,101.9z M73.8,91.6l-0.1-3.7l3.6,0l-0.1,3.6L73.8,91.6z
		 M66.3,91.5l-0.2-3.8l3.8,0.2l-0.2,3.6L66.3,91.5z M72.4,81.8c0,0,11.8-16.5,16.4-22.4l1,0.7L74.1,81.9L72.4,81.8z M44.8,70.3
		c0,6.5-4.2,11.7-8.4,15l0.1-7.4L44.8,70.3z M47.3,58.4c0,0-8.5-11.4-9.4-16.3c-0.3-3,1.4-6.2,4.4-6.6c2.3-0.3,4.5,1.4,4.8,3.7
		c0.1,0.5,0.2,0.6,0.4,0.5c0.2-0.1,0.2-0.2,0.3-1c0.2-2.3,2.3-3.5,4.5-3.3c3.9,0.5,5.3,5.4,4.2,7.9C54.1,48.6,46.8,58.6,47.3,58.4
		L47.3,58.4z M24.8,45.3c-0.3-1.3,0.2-3,1.1-3.5c1.4-0.6,2.8,0.2,3,1.4c0.1,0.5,0.3,0.4,0.4,0c0.2-1.2,1.6-1.9,2.8-1.3
		c1.5,0.8,1.8,2.8,0.7,5c-1.3,2.1-3.8,6.2-3.8,6.2C28.9,53,25.4,47.7,24.8,45.3L24.8,45.3z M106.8,38.9l0,28.9l-4-2.4l0.3-24.2
		L106.8,38.9z M87.8,40.6c-9-2.3-17.2-3-25.8-1.2c-1.1-1.3-4.9-6.9-4.9-6.9l2.2,0.1l3.1,4.9l5.9-0.8l-1.5-4l2.4,0l1.2,3.9
		c0,0,4.8,0,7.4,0.4c0.4-1.5,1.2-4.4,1.2-4.4l2.7,0c-0.3,1.4-1.3,4.7-1.3,4.7c2.2,0.3,6.2,1.3,6.3,1.4c1.4-2,2.7-4,4-6l2.6,0
		C92.5,34,87.9,40.6,87.8,40.6L87.8,40.6z M24.9,35h1.6c-0.1,1.2,0,2.6,1.1,3.1c1.9,0.7,3.2-0.5,3.3-2.2c0.1-1.9,0-9,0-9h-1.5v-1.6
		h4.7v1.6h-1.5c0,0,0.1,6,0,9c-0.1,3-2.3,4-4.2,3.9C24.5,39.6,24.8,36.9,24.9,35L24.9,35z M86.1,37.1l-4-0.9l1-3.5l5.6,0L86.1,37.1z
		 M63.3,35.9l-1.8-3.3H65l1.2,2.9L63.3,35.9z M71.4,35.2l-0.5-2.6h6.5l-0.7,2.8L71.4,35.2z M71.4,35.2"/>
	<path d="M56.6,32.4l5.7,8.3c0,0,3.2-0.6,6.4-0.8c3.1-0.2,6.8,0,6.9,0.1c0,0,1,3,1.3,4.4c0.4,1.9,0.4,4.2-0.1,5.7
		c-0.7,2.2-1,2.8-2.6,4.3c-1.1,1.1-2.7,2.3-4.4,2.9c-2.3,0.9-2.5,0.9-3.8,1c-0.9,0-1,0.1-1.5,0.3c-0.1,0.1-0.2,0.2-0.4,0.3
		c-0.1,0-0.3,0-0.3,0c-7.4,3.2-13.2,6.8-17.5,10.1c0,0-0.1,0.2-0.1,0.2c-0.4,0.3-0.7,0.5-1,0.8c0,0-0.2,0-0.2,0
		c-5.1,4-8,7.2-9.1,8.1L36,96.6c0,0,2.3-1.2,3.5-1.9c0.8,7.1,4.4,14.1,10,18.9l-2.4,3.4l-11.2-7.7l0.2,34l6-4.1v-3.6
		c1.8,1.2,3.5,1.7,4.8,7.1c1-1.9,0.9-4.8,0.5-6.7c0,0,1.5-1.2,2-2.2l-2.2-2c0,0,0.6-4.8-0.5-5.7c-0.8,2.2-1.5,4.5-4.6,6.1l0-16.6
		c1.5,1,3,2.1,4.5,3.1l0.2,0l1.6,1.1c0,0-0.2,0.3-0.3,0.6c-1.9,2.9,1.3,6.5,3.9,4.3c1-0.8,2.9,2.7,3.3,6c0.4,2.2,0.6,4.9,1.2,6.8
		c0.2,0.5,0.1,0.9-0.3,1.2c-2,2.8-6,8.4-6,8.4h2.9l0.2-0.3h-2.1c1.8-2.4,3.6-5.3,5.5-7.7c7.1,2.7,18.7,3.3,25.7,1.7
		c1.4,2,2.9,4.2,4.2,6.2h-2l0.3,0.4h2.7l-5.7-8.4c-4,1.2-13.6,0.7-13.4,0.6c0,0,0-0.1-0.4-1c-1.7-5.3-1.8-10.1,2.3-13.9
		c2.2-2,4.7-3.3,7.4-3c1.2,0,1.3-0.1,1.8-0.3c0.3-0.1,0.9-0.3,0.9-0.3l2.8-1.5l0.4-0.1l0.8-0.4l0.2-0.2l1.3-0.7l0.1,0l1.8-1l0-0.1
		l0.7-0.4l0.2,0.2c0.2,0,6.9-4.4,9.7-6.8l0.2,0.1c3.3-2.6,7.7-6.8,9-8.4l-0.1-7.9l-0.1-0.1l0-8.7h-0.3l0-1.1c-1.4,0.5-3,1.9-3.1,1.8
		c-0.9-7.4-4.3-14.2-9.9-19.2L96,63l11,7.4l0-2.2h0.1c0.1-8.3,0.2-29.8,0.2-29.8l-0.1,0l0-1.7l-5.6,3.6l-0.1,3.6
		c-2.5-0.8-4.1-3.8-4.6-6.5c-0.7,0.3-1.1,3.1-0.8,6.7c-0.8,0.5-1.3,1-1.7,1.6c0.6,0.8,1.3,1.4,2,2c-0.2,0.3-0.5,5.1-0.2,5.7
		c0.2,0.4,0.7,0.4,0.7-0.1c0.8-3.7,4.3-6.1,4.5-5.9l-0.1,17.1l-6.2-4.4c1.3-1.5,1.6-4-0.1-5.2c-1.7-1.2-3.3-0.2-3.7,0.6
		c-2-1.3-2.7-6.2-3-8.1c-0.1-0.9-0.3-2.2-0.6-3.3c-0.2-0.7-0.4-1.4-0.4-2c0-0.3,0-0.4,0.3-0.8l6.1-8.6l-3.1,0l0,0.1l2.4,0l-5.5,7.8
		c-8.2-2.6-16.8-3.2-25.9-1.6l-4.5-6.4l2.1,0l-0.1-0.1H56.6z M61.4,32.5l0.1,0.2l3.5,0l-0.1-0.1C64.9,32.5,61.4,32.5,61.4,32.5
		L61.4,32.5z M66.6,32.5l0.1,0.2l2.4,0L69,32.5L66.6,32.5z M79,32.5L79,32.5l2.6,0.1l0-0.1L79,32.5z M70.8,32.5l0,0.1h6.4l0-0.1
		L70.8,32.5z M83.2,32.6L83.2,32.6l5.5,0.1l0-0.1H83.2z M106.6,37.3l0,1.2l-3.7,2.4c-0.1,5-0.2,24.2-0.2,24.2l-0.9-0.6l0.2-24.1
		C102,40.4,105.3,38.3,106.6,37.3L106.6,37.3z M96.9,38.3H97l0,0.3h-0.2L96.9,38.3z M97.1,39l0.1,0.4l-0.5,0l0.1-0.4L97.1,39z
		 M106.5,39.2v0.8l-3.2,2v-0.8L106.5,39.2z M96.6,39.8l0.8,0l0.1,0.4h-1.1L96.6,39.8z M75.9,40l0.6,0.1c1.3,3.1,1.6,5.7,1.8,8.5
		c0.5,3.6,1.6,7.1,2.3,8.7l-0.8,0c-0.1,0-1.8-5.2-2.2-8.2c-0.1-0.6-0.1-1.2-0.1-1.7C77.3,44.9,77,43.2,75.9,40L75.9,40z M77,40.2
		l0.7,0.1c0.5,2.2,1.2,4.2,1.5,6.4c0.5,3.5,0.7,7.1,2.4,10.6l-0.7,0c-1-2.3-1.7-4.8-2.1-7.4c-0.3-1.5-0.3-2.7-0.5-4
		C78.2,44.2,77.6,42.1,77,40.2L77,40.2z M78.1,40.3l0.7,0.1c0.5,2.2,1.3,4.6,1.5,6.5c0.4,4,1.1,7.7,2.3,10.4l-0.5,0
		c-1.9-3.8-2-7.1-2.5-10.7C79.3,44.5,78.6,42.4,78.1,40.3L78.1,40.3z M79.2,40.4l0.6,0.1c0.4,2.2,1.2,4.6,1.4,6.8
		c0.3,3.9,1,6.8,2.5,9.9l-0.6,0c-1.7-3-2-6.8-2.5-10.6C80.3,44.6,79.6,42.5,79.2,40.4L79.2,40.4z M106.5,40.4v0.9l-3.2,2.1v-0.9
		L106.5,40.4z M80.3,40.6l0.7,0.1c0.4,2.1,1.2,4.3,1.4,6.3c0.3,3.5,1,7,2.4,10.2l-0.6,0c-1.5-3.3-2.2-6.2-2.5-10
		C81.5,45.2,80.7,42.7,80.3,40.6L80.3,40.6z M97.8,40.6l0.2,0.6l-1.5,0.1l0-0.6L97.8,40.6z M81.3,40.8l0.8,0.2
		c0.8,3.3,1.1,6.5,1.6,9.6c0.7,3.9,1.5,5.9,2.1,6.6l-0.7,0c-1.6-3.4-2.2-6.8-2.5-10.3C82.4,44.9,81.8,42.9,81.3,40.8L81.3,40.8z
		 M82.6,41.1l0.6,0.1c0.7,2.7,1,5.3,1.4,7.7c0.6,4.7,2.1,8.2,2.5,8.4l-0.7,0c-1.4-2-2-5.4-2.7-10.2C83.3,45,83,43,82.6,41.1
		L82.6,41.1z M83.5,41.2l0.7,0.2c0,0,0.6,2.4,1.1,5.6c0.4,2.6,0.6,7.8,3.5,10.8c1.4,1.5,4,2.8,5.7,1.4c0.7-0.6,1.2-1.6,0.8-2.7
		c-0.7-1.8-3.3-1.5-2.4,0.4c0.1,0.5-0.5,0.5-0.9,0c-0.4-0.5-0.3-1,0-1.5c0.6-1,2.4-1.2,3.4-0.2c1.6,1.6,0.9,4.3-1.1,5.2
		c-2.4,1-5.4-1.1-6.6-3.1c-2-3.5-2.3-6.7-2.8-10.2C84.4,45.2,84,43.2,83.5,41.2L83.5,41.2z M84.5,41.5l0.7,0.2c0,0,0.8,3.4,1,5.4
		c0.3,2.5,0.6,5.4,1.7,7.6c0.7,1.4,1.6,2.6,2.6,3.2c0.8,0.6,1.6,1,2.7,0.7c1.3-0.3,1.3-2.2,0.1-2.3c-0.6,0-0.2-0.6,0.3-0.6
		c1.8-0.1,1.9,2.8,0.2,3.5c-2,0.7-4.1-0.7-5.4-2.4c-2.3-3.6-2.2-6.9-2.7-9.8C85.4,45.5,84.6,41.6,84.5,41.5L84.5,41.5z M98.4,41.6
		l0.4,0.6l-2.3,0l0-0.5L98.4,41.6z M85.6,41.8l0.7,0.2c0,0,0.7,2.6,1.1,5.7c0.5,3,0.6,5.4,2.2,7.6c0.6,0.9,1.8,2.1,2.6,2.2
		c0.5,0.1,1,0,1.1-0.4c0.2-0.6,0.7-0.3,0.7,0.2c0,0.4-0.3,0.8-0.7,0.9c-2.3,0.4-4.3-2.4-5-3.9c-0.9-2.1-1.2-4.4-1.6-7.3
		C86.4,45.8,85.6,41.9,85.6,41.8L85.6,41.8z M106.5,41.9l0,0.9l-3.2,2V44L106.5,41.9z M86.5,42.1l0.7,0.2c0,0,0.6,2.3,1,5.1
		c0.4,2.9,1.2,6.2,2.7,7.9c0.1,0.2,0.2,0.3,0.3,0.4c0.1,0.2,0,0.6-0.1,0.6c-2.6-1.4-3.3-6.9-3.5-8.8C87.2,44.7,86.5,42.1,86.5,42.1
		L86.5,42.1z M96.8,42.5l2.3,0.1l0.6,0.6l-3.1,0C96.3,42.8,96.5,42.8,96.8,42.5L96.8,42.5z M106.5,43.3v0.8l-3.2,2v-0.8L106.5,43.3z
		 M96.9,43.6l3.4,0.1l1.2,0.7l-5.2,0L96.9,43.6z M106.5,44.5v0.9l-3.2,2v-0.9L106.5,44.5z M95.7,44.7l5.8,0.1l0,0.6l-6.3-0.2
		L95.7,44.7z M94.9,45.8l6.6,0l0,0.7l-6-0.1L94.9,45.8z M106.5,45.9v1l-3.2,2V48L106.5,45.9z M96.1,46.9l5,0l-0.5,0.6l-3.8,0
		L96.1,46.9z M106.5,47.3v0.9l-3.2,2v-0.9L106.5,47.3z M99.9,48l-0.6,0.6l-2.6,0l0.1-0.5L99.9,48z M106.5,48.6v1l-3.2,2v-0.9
		L106.5,48.6z M96.7,49l2.2,0l-0.3,0.5l-1.9,0L96.7,49z M77.3,49.8c0.3,2.5,2.1,7.5,2.1,7.5l-0.7,0c0,0-1.3-3.2-1.8-6.2
		C76.9,50.8,77.1,49.8,77.3,49.8L77.3,49.8z M96.5,49.9l1.7,0l-0.4,0.6l-1.3,0L96.5,49.9z M106.5,50.1v0.9l-3.2,2v-0.8L106.5,50.1z
		 M96.5,50.9l1.1,0l-0.3,0.6l-0.9,0L96.5,50.9z M106.5,51.4v0.9l-3.2,2v-0.9L106.5,51.4z M76.6,51.6c0.3,1.8,1.7,5.4,1.8,5.7l-0.6,0
		c0,0.1-1.4-3.3-1.6-4.7C76.2,52.3,76.3,51.7,76.6,51.6L76.6,51.6z M96.5,52l0.7,0L97,52.4l-0.5,0L96.5,52z M96.5,52.8l0.3,0
		l-0.1,0.3h-0.2L96.5,52.8z M106.5,52.8v0.7l-3.2,2v-0.7L106.5,52.8z M75.8,52.9c0.5,1.5,1,2.9,1.6,4.3l-0.7,0
		c-0.5-1-0.8-2.2-1.2-3.3C75.4,53.5,75.6,53.1,75.8,52.9L75.8,52.9z M75.1,53.9l1.2,3.3h-0.7c-0.3-0.7-0.6-1.4-0.8-2.1
		C74.6,54.4,74.6,54.4,75.1,53.9L75.1,53.9z M106.5,54.1V55l-3.2,2v-0.8L106.5,54.1z M74.6,55.4l0.7,1.9l-0.8,0
		c-0.2-0.6-0.4-1.1-0.5-1.7c0-0.3-0.1-0.5,0.1-0.7C74.5,54.7,74.4,54.8,74.6,55.4L74.6,55.4z M73.7,56.1l0.3,1.1l-0.8,0
		C73,56.7,73,56.3,73,55.8C73.5,55.2,73.5,55.5,73.7,56.1L73.7,56.1z M106.5,55.5v0.9l-3.2,1.9v-0.9L106.5,55.5z M72.6,56.2l0.3,1.1
		l-0.7,0c-0.1-0.3,0-0.6,0-0.8L72.6,56.2z M71.7,56.7C71.7,56.7,71.7,56.7,71.7,56.7c0.1,0.5,0,0.5,0,0.5l-1,0
		C70.7,57.2,71.5,56.7,71.7,56.7L71.7,56.7z M106.5,57v0.7l-3.2,2V59L106.5,57z M68.3,58.2l19.3,0.1l0.6,0.9c0,0-1.9,0.1-8,0
		C75,59.2,64.6,59,64.6,59l1-0.5C67,58.5,68.3,58.1,68.3,58.2L68.3,58.2z M106.5,58.3v0.8l-3.2,1.9v-0.8L106.5,58.3z M52.1,59
		c-1.6,0.7-3,0.9-4.1,0.8c-2.3-0.2-5.9,0.8-6.6,3c-0.2,0.8-0.2,0.8,0.2,1.2c0.2,0.2,0.4,0.4,0.5,0.3c0.4-0.3,0.9-1,1.4-1.1
		c0.7-0.2,1.1-0.2,2.2-0.3c2.5-0.1,3-0.2,3.7-0.4c1.4-0.4,2.7-1.7,2.8-3.2C52.2,59.2,52.1,59,52.1,59L52.1,59z M52,59.2
		c-0.3,3.1-3.6,3.5-5.1,3.4c-3-0.2-4.2,0.7-4.6,1.3c-0.2,0.1-0.2,0.1-0.2,0c0.3-1.7,3.1-1.8,4.5-1.8c3.4,0.2,4.3-1.5,4.2-1.5
		c-0.3,0.1-0.5,0.2-0.7,0.3c-0.1,0-0.1,0-0.4-0.2c0,0-0.3,0.8-0.8,0.1c0,0-0.3,0.6-0.9,0.1c0,0.1-0.4,0.6-0.9,0
		c-0.5,0.5-0.8,0.2-1-0.1c-0.2,0.1-0.7,0.8-1.1,0.1c-0.5,0.3-0.6,0.6-1,0.4c-0.9,0.2-1.7,1.1-2,1.9c-0.1,0.3-0.3,0.3-0.3,0
		c-0.1-0.9,1.4-2.4,2.8-2.9c1.1-0.3,1.9-0.6,4.4-0.5C50.2,60,52,59.2,52,59.2L52,59.2z M88.7,59.5l0.9,0.6L73.9,81.9l-1.4,0
		L88.7,59.5z M63.4,59.5h1.8v3h-1.5l-0.6-0.8c0.1,0.1,0.3,0.1,0.5,0.1c0.5,0,1-0.4,1-1s-0.4-1-1-1s-1,0.4-1,1c0,0,0,0.1,0,0.1
		l-0.6-0.9c0,0,0.2-0.1,0.8-0.4C63.1,59.6,63.4,59.5,63.4,59.5L63.4,59.5z M68.9,59.5h3v3h-3V59.5z M75.6,59.5h3.1v3l-3.1,0V59.5z
		 M82.4,59.5h3.1v3h-3.1V59.5z M106.5,59.6l0,0.9l-3.2,2v-0.9L106.5,59.6z M83.9,59.9c-0.6,0-1,0.5-1,1c0,0.6,0.5,1,1,1
		c0.6,0,1-0.5,1-1C84.9,60.3,84.4,59.9,83.9,59.9L83.9,59.9z M70.5,59.9c-0.6,0-1,0.5-1,1c0,0.6,0.5,1,1,1c0.6,0,1-0.5,1-1
		C71.5,60.4,71,59.9,70.5,59.9L70.5,59.9z M77.1,59.9c-0.6,0-1,0.5-1,1c0,0.6,0.5,1,1,1c0.6,0,1-0.5,1-1
		C78.1,60.4,77.7,59.9,77.1,59.9L77.1,59.9z M80.5,60.1c0.5,0,0.9,0.4,0.9,0.9c0,0.5-0.4,0.9-0.9,0.9c-0.5,0-0.9-0.4-0.9-0.9
		C79.7,60.4,80.1,60.1,80.5,60.1L80.5,60.1z M67,60.1c0.5,0,0.9,0.4,0.9,0.9c0,0.5-0.4,0.9-0.9,0.9c-0.5,0-0.9-0.4-0.9-0.9
		C66.2,60.5,66.6,60.1,67,60.1L67,60.1z M87.3,60.1c0.2,0,0.4,0.1,0.5,0.2l-0.9,1.3c-0.2-0.1-0.4-0.4-0.4-0.7
		C86.5,60.5,86.8,60.1,87.3,60.1L87.3,60.1z M73.9,60.1c0.5,0,0.9,0.4,0.9,0.9c0,0.5-0.4,0.9-0.9,0.9c-0.5,0-0.9-0.4-0.9-0.9
		C73,60.5,73.4,60.1,73.9,60.1L73.9,60.1z M63.6,60.2c0.4,0,0.6,0.3,0.6,0.6c0,0.4-0.3,0.6-0.6,0.6c-0.4,0-0.6-0.3-0.6-0.6
		C63,60.5,63.2,60.2,63.6,60.2L63.6,60.2z M61.6,60.2c5.4,6.9,8.3,13.9,9.6,21.5l-0.9,0c-1.5-8.3-4.9-15.4-9.5-21.2L61.6,60.2z
		 M83.9,60.2c0.4,0,0.7,0.3,0.7,0.7c0,0.4-0.3,0.7-0.7,0.7s-0.7-0.3-0.7-0.7C83.2,60.5,83.5,60.2,83.9,60.2L83.9,60.2z M70.5,60.3
		c0.4,0,0.7,0.3,0.7,0.7c0,0.4-0.3,0.7-0.7,0.7s-0.7-0.3-0.7-0.7C69.8,60.6,70.1,60.3,70.5,60.3L70.5,60.3z M77.1,60.3
		c0.4,0,0.7,0.3,0.7,0.7s-0.3,0.7-0.7,0.7c-0.4,0-0.7-0.3-0.7-0.7S76.7,60.3,77.1,60.3L77.1,60.3z M94,60.8c0.4,2.7-0.3,4.5-2.4,4.8
		c-2.7,0.4-3,0.6-3,3.1c0,3-0.5,3.8-2.6,4.1c-2.4,0.3-2.9,0.5-2.7,3.5c0.2,2.2-0.7,3.1-2.5,3.5c-1.4,0.3-2.7,0.8-3.2,2.2l-1.3,0
		c0.3-2.3,2.6-3.4,4.1-3.4c1.6-0.4,1.9-0.9,1.7-3.7c-0.2-2.1,0.6-2.7,3-3.2c2-0.4,2.4-0.9,2.3-2.5c-0.2-3.4,0-3.9,1.9-4.4
		c1-0.2,2.6-0.3,3.2-1.1c0.7-0.9,0.5-1.6,0.5-2.7L94,60.8z M106.5,60.9v0.9l-3.2,2v-0.9L106.5,60.9z M59.2,61.4
		c-0.7,3,1.7,3.6,3.1,4.1c1.7,0.6,2.1,1.4,1.9,4.4c-0.1,2.2,0.1,2.7,1.5,3.5c2.2,1.1,2.8,2.8,1.8,5.1c-0.6,1.5-0.3,1.9,0.1,3.2
		l-1.1,0c-0.1,0-1-1.6-0.2-3.3c0.9-2.1,0.9-3.1-1.2-4c-1.6-0.7-2.1-1.4-2.2-2.9c0-0.6,0-0.9,0.1-2.3c0.2-1.7-0.4-2.4-2.9-3.4
		c-1.1-0.4-1.9-1.4-2.1-2.9c-0.1-0.4,0-0.9,0-0.9L59.2,61.4z M97,61.7l9.6,6.4l-0.1,1.4l-10.2-6.8L97,61.7z M90.8,61.9
		c0.5,0,0.8,0.4,0.8,0.8c0,0.5-0.4,0.8-0.8,0.8s-0.8-0.4-0.8-0.8C89.9,62.2,90.3,61.9,90.8,61.9L90.8,61.9z M60.6,62.2
		c0.4,0,0.8,0.3,0.8,0.8c0,0.4-0.3,0.8-0.8,0.8c-0.4,0-0.8-0.3-0.8-0.8C59.8,62.6,60.2,62.2,60.6,62.2L60.6,62.2z M106.5,62.3l0,0.9
		l-3.2,2v-0.9L106.5,62.3z M56.4,62.9c2.9,3.8,5.8,7.7,8,15l-0.9,0.4c-1.8-5.9-4.6-10.8-7.9-14.9L56.4,62.9z M64,62.9h21.9l-0.6,0.8
		l-20.9-0.2L64,62.9z M106.5,63.6v0.9l-2.4,1.5l-0.7-0.5L106.5,63.6z M55.1,63.7l0.4,0.6c0,0-0.5,0.4-1,0.7c-1.4,1-1.6,1.1-1.7,1.8
		c-0.2,1.6,1.4,2.4,3,1.5c0.6-0.3,1.9-1.1,1.9-1.1l0.4,0.5c0,0-1.8,1.4-2.9,1.7c-2.4,0.7-4.1-2.3-2.4-4.1c0.3-0.3,0.8-0.6,1.3-0.9
		C54.6,64.1,55.1,63.7,55.1,63.7L55.1,63.7z M64.9,64.1L85,64.2L72.2,81.8l-0.6,0C70.6,75.2,68.1,69.4,64.9,64.1L64.9,64.1z
		 M56.1,64.8l1.2,1.6c0,0-0.8,0.7-2,1.4c-1,0.6-2.1-0.5-1.5-1.4C54.4,65.6,56.1,64.8,56.1,64.8L56.1,64.8z M106.5,65v0.9l-1.4,0.9
		l-0.6-0.4L106.5,65z M56,65.6c-0.6,0-1.5,0.7-1.8,1.2c-0.1,0.2-0.1,0.4,0,0.6c0.2,0.2,0.4,0.2,1.1-0.1c1.4-0.7,1.6-1.2,1-1.6
		C56.2,65.7,56.1,65.6,56,65.6C56,65.6,56,65.6,56,65.6L56,65.6z M55.9,66c0.1,0,0.2,0,0.3,0c0.2,0.1,0.2,0.4-0.1,0.5
		c-0.1-0.1-0.5-0.1-0.4,0.3C55.6,67,55.6,67,55.3,67c-0.2,0-0.3,0.1-0.4,0.2c-0.2,0.1-0.5,0.1-0.5,0c0-0.1,0.1-0.5,0.3-0.5
		c0.1,0,0.2-0.1,0.3-0.2c0-0.2,0.3-0.3,0.3-0.3c0.1,0,0.3,0,0.5-0.2C55.8,66,55.9,66,55.9,66L55.9,66z M106.5,66.2v1.3l-1-0.6
		L106.5,66.2z M50.6,66.4c3.7,4.3,6.3,8.9,8,15.3l-0.7,0.5c-1.1-4.5-2.8-9.2-7.9-15.4L50.6,66.4z M93.6,66.4
		c1.7,1.4,8.5,7.8,9.8,19.2l-0.9,0.6c-0.7-6-3.1-12.9-9.4-19L93.6,66.4z M90.3,66.8c0.5,0,0.8,0.4,0.8,0.8c0,0.5-0.4,0.8-0.8,0.8
		s-0.8-0.4-0.8-0.8C89.4,67.2,89.8,66.8,90.3,66.8L90.3,66.8z M49.6,67.1c0,0,0.8,0.8,0.8,1c0,0.4-0.3,0.6-2.1,1.2
		c-0.3,0.1-1.6,0.4-1.6,0.4l0-0.6c0.7-0.2,2.5-0.7,2.6-1.1c0.1-0.2-0.3-0.5-0.2-0.5L49.6,67.1z M61.8,67.3c0.4,0,0.8,0.3,0.8,0.8
		c0,0.4-0.3,0.8-0.8,0.8c-0.4,0-0.8-0.3-0.8-0.8C61.1,67.7,61.4,67.3,61.8,67.3L61.8,67.3z M92.7,67.5c5.5,5.4,8.6,12.1,9.3,19
		c-6.5,5.3-10.8,11.9-12.6,20.1c-0.9-1.4-1.6-3.1-2.4-4.7c8.6-7.6,10.4-21.2,3-30.8L92.7,67.5z M58.8,68.6l0.4,0.6
		c0,0-0.1,0.1-1.3,0.8c-1.8,1.1-2.1,1.8-1.5,2.9c0.6,1.1,1.3,1.2,3.2,0.3c0.7-0.3,1.2-0.7,1.2-0.7l0.3,0.6c0,0-0.8,0.7-2.5,1.3
		c-1.5,0.6-3-0.4-3.3-2.2c-0.2-1.3,0.4-2,2.6-3.3C58.3,68.9,58.8,68.6,58.8,68.6L58.8,68.6z M85.2,68.8c0.5,0,0.8,0.4,0.8,0.8
		s-0.4,0.8-0.8,0.8c-0.5,0-0.8-0.4-0.8-0.8S84.8,68.8,85.2,68.8L85.2,68.8z M51,68.9l0.5,0.5c0,0-0.2,0.3-1.5,1.1
		c-1.1,0.7-1.2,0.6-0.7,1c1,0.9,2.5,2.8,2.5,3.3c0,0.5-0.4,0.9-1.3,1.3C50.1,76.3,48.3,77,48,77c-0.5,0.1-0.7,0.3-0.1,0.8
		c0.9,1,1.7,3.2,1.4,3.9c-0.3,0.8-0.8,0.9-4.1,1c-0.4,0-0.6-0.1-0.4,0.4c0.1,0.4,0.3,0.8,0.6,2.3c0.3,1.3,0.2,1.9-0.3,2.2
		c-0.3,0.2-2.6,0.1-3.6-0.1c-1.1-0.2-1.2-0.2-1,0.5c0.2,1,0.4,3.6-0.4,4.1c-0.3,0.2-0.6,0.2-2-0.3c-0.9-0.3-1.6-0.6-1.6-0.6l0-0.8
		c0.7,0.3,2.6,1.1,3.2,0.9c0.7-0.9-0.3-4.2-0.6-4.9c-0.4-0.8,0-1,1-0.5c0.5,0.4,4.9,2.1,4.6,0.5c-0.3-1.5-0.7-3.1-1.7-4.2
		c-0.8-1-0.4-1.4,0.5-0.9c1.7,0.7,5.1,0.6,5-0.2c-0.2-1.3-1.4-3-2.9-4.3c-0.4-0.4-0.5-0.5,0.1-0.6c1.5-0.1,5.6-0.5,5.1-1.5
		c-0.5-0.8-1.2-1.7-1.7-2.2c-0.9-0.8-1.9-1.1-2.3-1.3l0-0.6C48.6,70.4,49.5,69.9,51,68.9L51,68.9z M46.3,69.5
		c-0.7,7.2-3.7,13.1-9.9,17.2l0-0.8c5.4-4.1,8.1-9.9,8.8-15.5L46.3,69.5z M59.5,69.9C59.5,69.9,59.5,69.9,59.5,69.9c0,0,1,1.8,1,2
		c-0.6,0.5-2.1,1.3-2.8,1.2c-1-0.3-1.1-1.4-0.2-2C58.4,70.5,59.4,70,59.5,69.9C59.5,69.9,59.5,69.9,59.5,69.9L59.5,69.9z M51.6,69.8
		l0.5,0.5c0,0-0.1,0.2-0.9,0.8c-0.6,0.4-0.4,0.3,0,0.8c0.3,0.4,1,1.2,1,1.2L52,74.2c-0.6-0.9-1.2-1.6-2.1-2.6
		c-0.5-0.5-0.5-0.5,0.2-0.9C50.6,70.5,51.1,70.1,51.6,69.8L51.6,69.8z M65.5,70.5c0.4,0,0.8,0.3,0.8,0.8c0,0.4-0.3,0.8-0.8,0.8
		c-0.4,0-0.8-0.3-0.8-0.8C64.7,70.9,65.1,70.5,65.5,70.5L65.5,70.5z M59.3,70.6c-0.7,0.2-1.4,0.8-1.8,1.1c-0.1,0.1,0,0.6,0.1,0.8
		c0.2,0.2,0.5,0.2,0.9,0c0.2-0.1,0.5-0.2,0.7-0.3c0.6-0.3,0.8-0.5,0.8-0.7C59.8,71.2,59.6,70.6,59.3,70.6L59.3,70.6z M59.3,70.9
		c0.2,0,0.4,0.3,0.3,0.4c-0.4,0.2-0.5,0-0.5,0.3c0,0,0,0.4-0.5,0.4c-0.1-0.1-0.3,0-0.4,0.1c-0.4,0.1-0.7-0.2-0.3-0.3
		c0.1,0,0.4-0.1,0.4-0.3c0-0.2,0.2-0.4,0.4-0.2c0.1,0,0.3,0,0.4-0.1C59.1,70.9,59.2,70.9,59.3,70.9C59.3,70.9,59.3,70.9,59.3,70.9
		L59.3,70.9z M44.7,70.9c0.2,0.8-0.3,2.2-0.6,3c-1.6,2.1-4,3.2-6.2,4c-0.5,0.2-1.2,0.1-1.2,0.1C39.8,74.7,42.5,72.4,44.7,70.9
		L44.7,70.9z M39,71.6c0-0.2-0.8-0.4-0.9-0.3c-0.2,0.1-0.4,2.4-0.2,2.5c0.2,0.2,0.8,0.3,0.9,0C39,73,38.9,72.3,39,71.6L39,71.6z
		 M52.9,71.5l0.5,0.7c-1.1,10.7-8.8,19.9-16.9,23.6l0-0.7C45.8,90.2,51.5,82,52.9,71.5L52.9,71.5z M89.8,71.6l1,1.4l-1.4,0
		L89.8,71.6z M38.7,71.8c0,0.4,0,1.1-0.2,1.5c-0.1,0.3-0.3,0.3-0.4,0c-0.1-0.3,0-1.2,0.2-1.6C38.5,71.4,38.6,71.5,38.7,71.8
		L38.7,71.8z M46.5,72c0.5,0,3.2,1.6,2.8,2.4c-0.3,0.6-2.5,0.7-3.5,0.6l0.2-0.6c0,0,0.3,0.1,1.5,0c1.2-0.1,1.2-0.5-0.3-1.4
		c-0.6-0.4-0.8-0.5-0.8-0.5L46.5,72z M53.8,72.9c0.8,1.4,1.6,3,2.3,4.7c-10,9.5-9.3,22.4-2.9,30.9l-2.7,3.7
		c-5.5-5.2-8.4-11.6-9.4-18.4C49,88,52.8,79.4,53.8,72.9L53.8,72.9z M91.1,73.3l0.6,1.1l-1.4,0L91.1,73.3z M84.9,73.9
		c0.5,0,0.8,0.4,0.8,0.8s-0.4,0.8-0.8,0.8c-0.5,0-0.8-0.4-0.8-0.8S84.4,73.9,84.9,73.9L84.9,73.9z M61.5,74.1l0.3,0.7
		c0,0.1-2,0.7-2.7,1.6c-0.6,0.8-0.6,1.6-0.2,2.1c0.6,0.8,1,0.9,2,0.6c0.8-0.2,1.4-0.6,2.2-1l0.1,0.3c0,0-1.1,0.7-2,1.2
		c-0.3,0.2-0.7,0.3-1.1,0.3c-2,0-3-2.6-1.4-4.1c0.2-0.2,1.1-0.7,1.7-1C60.9,74.4,61.5,74.1,61.5,74.1L61.5,74.1z M87.8,74.5
		c6.5,9.4,2.1,19.8-2.2,23.5l-0.1-1.1c7.1-8.1,4.6-17.6,1.7-21.8L87.8,74.5z M92,74.9l0.5,1.2L91,76L92,74.9z M65.6,75.3
		c0.4,0,0.8,0.3,0.8,0.8c0,0.4-0.3,0.8-0.8,0.8s-0.8-0.3-0.8-0.8C64.8,75.7,65.2,75.3,65.6,75.3L65.6,75.3z M87,75.5
		c5.7,8.3,2.5,21.6-8.4,25.7l-0.1-0.9c11.2-4.7,12.3-17.1,7.8-24.1L87,75.5z M62.1,75.5l0.7,2c-0.9,0.6-1.3,0.7-2.3,1
		c-0.8,0.2-1.4-1.2-0.8-1.7C60.5,76.1,61.2,75.8,62.1,75.5L62.1,75.5z M43.5,75.5c0.1,0,0,0.3-0.4,1.2c-0.8,1.8-0.8,1.9-2.7,2.2
		c-1,0.2-1.7,0.2-2.5,0.1c-1.1-0.1-1.5-0.4-0.8-0.6c2-0.4,4.2-1.5,5.7-2.5C43.2,75.7,43.4,75.5,43.5,75.5L43.5,75.5z M80,75.8
		c0.5,0,0.9,0.4,0.9,0.9c0,0.5-0.4,0.9-0.9,0.9c-0.5,0-0.9-0.4-0.9-0.9C79.1,76.2,79.5,75.8,80,75.8L80,75.8z M51.5,76l-0.1,0.7
		c0,0-1.2,0.6-1.7,0.8c-0.4,0.2-0.5,0.2-0.3,0.6c0.3,0.8,0.8,1.7,0.8,1.7L49.7,81c-0.3-1-0.6-2-1.2-3c-0.5-0.7-0.6-0.8,0.2-1
		C49.7,76.8,50.5,76.5,51.5,76L51.5,76z M61.9,76.3c-0.6,0-1.8,0.5-1.9,1c-0.1,0.3,0,0.6,0.2,0.7c0.6,0.2,1.8-0.3,2.1-0.7
		c0.1-0.1-0.1-0.4-0.2-0.6C62.1,76.5,62.1,76.2,61.9,76.3L61.9,76.3z M61.9,76.6C61.9,76.6,61.9,76.6,61.9,76.6
		c0.1,0,0.5,0.4,0.1,0.4c-0.1,0-0.3,0-0.4,0.2c0,0.2-0.3,0.3-0.5,0.2c-0.1-0.1-0.3,0.1-0.3,0.1c-0.2,0.2-0.5,0.2-0.5,0
		c-0.1-0.1,0.1-0.4,0.3-0.4c0,0,0.2-0.1,0.3-0.2c0.1-0.2,0.3-0.2,0.4-0.2C61.6,76.9,61.7,76.7,61.9,76.6L61.9,76.6z M92.7,76.7
		l0.4,1.2l-1.5-0.1L92.7,76.7z M86.3,78c-0.3,0.4-0.6,0.4-1.1,0.4c0.4,0.4,0.5,1,0.2,1.4c-0.6,0.6-1.6-0.3-1.5-0.4l1.9-2.5
		C86.3,77.1,86.5,77.6,86.3,78L86.3,78z M44.9,77.4c0,0,2.3,2,2.3,2.9c0,0.3-0.1,0.5-0.4,0.5c-0.9,0.3-3.4-0.5-3.4-0.5l0.3-0.6
		c0.4,0.1,2.4,0.6,2.5,0.4c0.2-0.3-1.6-2-1.6-2L44.9,77.4z M56.4,78.2l0.3,1l-0.9-0.2L56.4,78.2z M93.4,78.4l0.2,1.3l-1.5-0.4
		L93.4,78.4z M64.5,78.4l0.2,0.8c-10.1,4.7-13,15.4-7.8,24.2l-0.6,0.8C49.3,92.8,56.4,81.3,64.5,78.4L64.5,78.4z M55.4,79.2l0.1,1.2
		l-1.2-0.1L55.4,79.2z M41.5,79.2c0.2,0,0.2,0.1,0.2,0.2c0,0.2-1,1.5-1.3,1.7c-0.7,0.3-3.5-0.9-3.9-1.8c-0.1-0.3,0.2-0.1,0.8,0
		C38.9,79.8,40.5,79.2,41.5,79.2L41.5,79.2z M68.4,79.2c0.4,0,0.8,0.3,0.8,0.8s-0.3,0.8-0.8,0.8c-0.4,0-0.8-0.3-0.8-0.8
		S67.9,79.2,68.4,79.2L68.4,79.2z M36.7,80.1c0.8,0.7,1.9,1.3,2.9,1.5c0.6,0.1,0.4,0.2-0.1,0.8c-0.5,0.6-0.5,0.6-1,0.4
		c-0.9-0.5-1.9-1.5-1.9-2.1C36.5,80.4,36.6,80.1,36.7,80.1L36.7,80.1z M93.8,80.3l0.2,1.3L92.6,81L93.8,80.3z M54,80.7l0.5,1.1
		l-1.3,0L54,80.7z M86.3,81.8c0,0.2,0,0.4,0,0.4c0.7-0.5,1.7-0.1,1.7,0.7c0,1.1-0.6,1.1-1.4,0.9c0.5,0.8-0.1,1.5-1,1.3
		c-0.8-0.3-0.7-1.1-0.3-1.6c-1.9,0.3-2.4,3-0.2,3.9c-0.4-0.7-0.6-1.5,0.4-1.6c0.9-0.1,1.3,0.6,0.9,1.4c0.8-0.3,1.6,0.2,1.4,1
		c-0.3,1-1.2,0.9-1.7,0.3c0.4,0.9-0.5,1.5-1.1,1.2c-1-0.5-0.5-1.5,0.2-1.8c-2.6-0.3-3.3,3.4-1.3,3.9c-0.5-0.3-0.6-1.8,0.6-1.6
		c1.1,0.2,0.9,1.3,0.1,1.7c0.9-0.2,1.7,0.6,1.2,1.3c-0.6,0.9-1.5,0.3-1.8-0.4c0.1,0.8-0.4,1.4-1.1,1c-1.2-0.5-0.3-1.9,0.6-1.8
		c-1.8-1.1-4.3,1.2-2.9,3.1c-0.1-0.9,0.4-1.6,1-1.5c0.5,0.1,1,0.7,0.8,1.1c-0.1,0.4-0.6,0.7-1.1,0.8c1.4,0.2,1.5,1.2,0.9,1.6
		c-1,0.8-1.5-0.1-1.7-0.7c-0.2,1.4-1.8,0.9-1.9-0.1c-0.1-1.1,1.2-1.1,1.5-1c0,0-1-1-2.1-1.2l0-0.6c4.3-2.7,5.8-7.4,4.4-11.8l0.3-0.3
		c0.7,0.5,1.4,1.7,2.7,1.3c0,0-0.3-0.2-0.4-0.4c-0.7-0.7-0.3-1.4,0.6-1.5C86,81,86.3,81.4,86.3,81.8L86.3,81.8z M57.2,81.8l0.4,0.7
		c-6.5,7.6-5.3,16.3-1.6,22.1l-0.5,0.7C52.2,101,49.5,90.7,57.2,81.8L57.2,81.8z M62.8,82.9c0,0.2,0,0.3,0,0.3s0.1-0.2,0.3-0.4
		c0.6-0.9,1.7-0.4,1.6,0.7c-0.1,0.5-0.9,0.7-1.2,0.6c0.2,0.6,0.8,0.7,1.5,1c0.3,0,0.7,0.2,0.7,0.2l0,0.4c-3.9,2.5-6.1,6.6-4.7,12.3
		l-0.4,0.6c-0.8-1.9-1.5-1.8-2.8-1.9c0,0,0.3,0.2,0.5,0.4c0.4,0.5,0.2,1.3-0.3,1.4c-1.3,0.2-1.3-0.7-1.1-1.3c0,0-0.2,0.2-0.3,0.3
		c-0.5,0.3-1.1,0-1.2-0.7c-0.1-0.6,0.1-1,0.8-1.1c0.2,0,0.5,0,0.5,0s-0.1-0.2-0.2-0.4c-0.3-0.6,0.4-1.1,1-1c0.9,0.2,0.9,1,0.3,1.7
		c1.5,0.1,2.2-0.8,2.1-1.8c-0.1-1.2-0.7-1.8-1.8-2c0,0,0.2,0.3,0.3,0.4c0.3,0.5-0.1,1.2-0.8,1.2c-0.6,0-1-0.6-0.8-1.2
		c0.1-0.1,0.3-0.3,0.3-0.3c0,0-0.4,0.1-0.4,0.1c-0.8,0.1-1.3-0.6-0.9-1.2c0.2-0.5,0.9-0.6,1.4-0.4c0.1,0,0.2,0.1,0.2,0.1
		c0,0,0-0.2-0.1-0.3c-0.2-0.6,0.1-0.9,0.8-0.9c0.9,0.1,1.3,0.8,0.7,1.5c-0.2,0.2-0.4,0.4-0.4,0.4c0,0.1,1.3,0.2,2-0.5
		c0.8-0.8,0.9-2.5,0.1-3c-0.1-0.1-0.4-0.3-0.4-0.3c0.4,0.7-0.3,1.6-0.9,1.4c-1.2-0.3-1.1-1.3-0.3-1.6c0,0-0.8-0.3-1-0.6
		c-0.3-0.5-0.2-0.9,0.2-1.2c0.5-0.4,1.2-0.1,1.5,0.4c0.2-0.6,0.5-1,1.3-0.7c0.6,0.3,0.6,1.1-0.1,1.5c-0.2,0.1-0.6,0.3-0.6,0.3
		s0.6,0.3,1.2,0.3c1.3,0,2.4-1.5,1.8-2.7c-0.1-0.2-0.4-0.6-0.4-0.6s0,0.4-0.1,0.6c-0.3,0.6-1,0.6-1.4,0.2c-0.4-0.3-0.3-0.8,0-1.1
		c0.2-0.2,0.4-0.3,0.7-0.4c-0.4-0.1-0.7-0.2-0.9-0.6c-0.2-0.3,0-0.8,0.4-1C62.2,81.7,62.8,82.3,62.8,82.9L62.8,82.9z M36.6,81.9
		c0.5,0.3,0.9,0.8,1.4,1.2c0.4,0.3,0.4,0.4,0.1,0.7c-0.7,0.7-1.1-0.3-1.4-0.7C36.4,82.5,36.4,81.9,36.6,81.9L36.6,81.9z M94.1,82.1
		l0.1,1.3l-1.5-0.6L94.1,82.1z M52.9,82.2l0.5,1.2l-1.4,0L52.9,82.2z M82,82.2c1.3,4.8-0.5,8.3-4,11l-0.4-0.5c2.7-2.3,4.8-5,3.9-9.9
		L82,82.2z M66,82.2l15.3,0.3l-0.5,0.8l-1.2,0l-2.4,4.2l-11,0L66,82.2z M43.5,85.7c-0.5,0.8-3.7-1-3.7-1.1l0.4-0.4
		c0.5,0.2,2.1,1.1,2.4,0.9c0.1-0.8-0.8-1.8-1.2-2.5l0.4-0.5C41.9,82.2,44,84.8,43.5,85.7L43.5,85.7z M48.8,82.6l-0.5,1
		c-0.5,0.2-2,0.2-2.1,0.3c0.2,0.5,0.4,1.9,0.4,1.9l-0.6,0.8c-0.2-0.9-0.4-2.1-0.7-3c-0.2-0.7-0.1-0.6,1.4-0.7
		C47.4,82.8,48.1,82.8,48.8,82.6L48.8,82.6z M51.9,83.8l0.6,1.1l-1.3,0L51.9,83.8z M36.6,83.8c0.1,0,0.5,0.4,0.5,0.5
		c0,0.3-0.5,0.4-0.6,0.3C36.5,84.7,36.5,84,36.6,83.8C36.6,83.8,36.6,83.8,36.6,83.8L36.6,83.8z M94.3,83.9l0,1.4l-1.5-0.7
		L94.3,83.9z M106.4,84.2l0,0.9c-5.5,2.7-13.7,9.9-16,22.8l-0.5-0.5C92.2,95,100.2,87.7,106.4,84.2L106.4,84.2z M51,85.4l0.7,1
		l-1.2,0.1L51,85.4z M94.4,85.8l-0.1,1.2l-1.5-0.8L94.4,85.8z M65.6,86.1c0,0.3,0,0.5,0,0.8c-3.4,2.2-4.5,5.6-4,10l-0.5,0.7
		C60.1,93.6,61.2,88.8,65.6,86.1L65.6,86.1z M104.9,86.3c0.3,0.2,1.5,0.5,1.5,0.5l0,0.8l-2.3-0.8L104.9,86.3z M38.7,89.8
		c-0.5,0.4-1.6-0.3-2.2-0.5l0-0.7c0,0,0.4,0.2,0.8,0.4c0.8,0.4,0.8-0.1,0.4-1.3c-0.2-0.4-0.3-0.9-0.3-0.9l0.5-0.5
		C37.9,86.2,39.2,89.2,38.7,89.8L38.7,89.8z M50.2,87.2l0.9,0.9l-1.2,0.3L50.2,87.2z M104.1,87.3c0.8,0,2.3,0.6,2.3,0.6l0,0.9
		c-0.8-0.2-1.7-0.6-2.5-0.8c-0.6-0.1-0.6,0.3-0.6,1.2c0,1.2,0.3,2.3,0.9,3.6c0.5,1,0.2,1.3-0.6,0.8c-1.4-1-4.5-1.7-4.9-1.1
		c-0.5,0.6,0.5,3.5,1.6,4.9c0.4,0.6,0.5,0.7,0.3,0.9c-0.2,0.2-0.4,0.2-0.9,0c-1.6-0.5-3.9-0.6-4.5-0.2c-0.7,0.4,1,3.3,2.5,4.3
		c0.9,0.7,0.7,1-0.7,1c-2.4,0-4.3,0.6-4.2,1.2c0.2,1.1,1.8,2.7,3.6,3.5c1.1,0.5,0.6,0.6-0.1,0.9c-1.2,0.4-2.4,1.1-3.6,1.7l-0.6-0.7
		c0,0,1.2-0.7,2.4-1.5c0.3-0.2,0.3-0.2-0.1-0.6c-1.4-1.1-2.3-2.4-2.6-3.3c-0.2-0.8,0.2-1.4,1.4-1.8c0.8-0.3,1-0.4,1.7-0.5
		c1-0.2,1-0.2,0.6-1c-0.2-0.3-0.5-0.9-0.7-1.2c-1.4-2.5-0.7-3.4,2.7-3.4c0.8,0,1,0,0.9-0.3c-0.2-1.2-0.7-2.5-0.6-3.5
		c0.2-1.5,1.7-1.8,4.4-1.2c0.6,0.2,0.7,0.1,0.6-0.4C102.1,89.2,102.6,87.2,104.1,87.3L104.1,87.3z M94.2,87.5L94,88.9L92.6,88
		L94.2,87.5z M40.9,87.8l3.9,0.3l-0.6,0.7l-2.4,0l-0.1,2l-0.8,0.7L40.9,87.8z M66.4,88h3.2l0,3.4h-3.2L66.4,88z M70.2,88h3v3.4l-3,0
		L70.2,88z M73.9,88h3.2l0,3.4h-3.2L73.9,88z M102.1,88.3c-0.1,0.9,0.1,2.5,0.2,3.2c-0.1,0.2-0.2,0.2-1,0c-0.6-0.2-2.2-0.3-2.2-0.3
		l0.7-0.7c0.6,0.1,1,0.1,1.6,0.1c0-0.6,0-1.7,0-1.7L102.1,88.3z M49.7,88.9l0.9,0.9l-1.2,0.3L49.7,88.9z M93.9,89.2l-0.4,1.5
		l-1.3-1.2L93.9,89.2z M106.3,90l0,0.7l-1.3-0.6c0,0.9,0.7,2.4,0.7,2.4l-0.6,0.3c-0.5-0.9-0.9-1.6-0.9-2.6c0-0.4,0-1,0.3-1
		C105.2,89.3,105.7,89.5,106.3,90L106.3,90z M49.3,90.8l1.1,0.6l-1.2,0.5L49.3,90.8z M93.5,91.1L93,92.6l-1.1-1.3L93.5,91.1z
		 M36.5,91.6l2.9,1l-0.5,0.5l-2.4-0.8L36.5,91.6z M77.2,92l0.2,5.3l-15.3-0.1l0.5-0.8l1,0l2.6-4.4L77.2,92z M49.1,92.4l1.1,0.8
		L49,93.7L49.1,92.4z M106.4,92.9l0,0.9c-3.7,2.7-7.7,7.4-8.4,15.8l-1,0.9C97.5,102.2,100.9,96.6,106.4,92.9L106.4,92.9z M92.9,92.9
		l-0.5,1.4L91.3,93L92.9,92.9z M103.3,94.7l-0.4,0.4c-0.1,0-1.5-0.7-2.6-0.9c0.4,0.7,0.5,1.3,1.3,2.4l-0.5,0.5c-0.2,0-2.2-3-1.6-3.7
		C100.4,92.9,102.5,94.1,103.3,94.7L103.3,94.7z M97.3,93.1c0,0.8,0.6,3.3,0.6,3.3c-1,0-2-0.1-3.1,0.2l0.5-0.9c0,0,0.5,0,0.9-0.1
		c0.9-0.2,0.8-0.1,0.6-0.8c-0.2-0.7-0.2-0.8-0.2-0.8S97.3,93.1,97.3,93.1L97.3,93.1z M40.7,94c1.3,8,4.5,13.5,9.5,18.5l-0.5,0.7
		c-5.9-5.4-9.1-12.2-9.9-18.6L40.7,94z M49,94.3l1.1,0.6L49,95.6L49,94.3z M106.4,94.4l0,1.2l-0.7-0.7
		C105.9,94.7,106.1,94.5,106.4,94.4L106.4,94.4z M92.2,94.6L91.4,96l-1-1.3L92.2,94.6z M106.3,97.7c-0.2-0.2-1.5-1.1-2.1-1.4
		c0-0.1,0.9-1,1.1-1C106.3,95.3,106.6,97.3,106.3,97.7L106.3,97.7z M49,96.2l1.2,0.6l-1.1,0.8L49,96.2z M89.6,96.2l1.6,0.1l-0.8,1.3
		L89.6,96.2z M104.1,96.8c0.2,0,0.4,0.1,0.7,0.2c1.1,0.6,1.7,1.3,1.6,1.9c0,0.3-0.2,0.3-0.4,0.1c-0.3-0.4-1.4-0.8-2.3-1
		c-0.7-0.1-0.8-0.2-0.6-0.5C103.5,97,103.8,96.8,104.1,96.8L104.1,96.8z M85.2,97.3c1.7,6.4,4.7,11.4,8.4,15.4l-0.8,0.7
		c-2.8-3.3-6-7.1-8.5-15.3L85.2,97.3z M88.6,97.7l1.6,0.2l-0.9,1.2L88.6,97.7z M66.5,97.7c0.2,0-0.5,2.7-3,2.9
		c-1.6,0.3-1.8,0.5-1.8,3c0,3.3-0.6,4.1-3.3,4.3c-1.8,0.1-2,0.5-1.7,3.1c0.3,2.5-0.6,3.7-2.9,3.7c-2,0.2-2.8,1.1-2.8,2.9
		c0,0.7,0,0.9,0,0.9l-1.3,0.1c0,0,0-1.2,0.1-1.8c0.4-2.4,1.4-3.3,3.6-3.3c1.7-0.1,1.9-0.4,1.9-2.9c-0.1-2.6-0.1-2.5,0.6-3.2
		c0.4-0.4,0.9-0.6,1.8-0.7c2.7-0.3,2.9-0.4,2.9-3.2c-0.3-2.3,0.4-3.7,1.9-3.8c3-0.2,2.9-1.9,2.8-1.9L66.5,97.7
		C66.5,97.7,66.5,97.7,66.5,97.7L66.5,97.7z M72.6,97.7c1.7,9.4,7.3,18.2,10.3,21.5l-0.6,0.3c-4.4-5.5-8.4-11.8-10.4-21.8L72.6,97.7
		z M69.5,97.7l1.4,0l-15.9,22.4l-0.8-0.6L69.5,97.7z M71.4,97.8c1.5,5.4,2.7,10.7,7.4,17.8l-19.9-0.1L71.4,97.8z M76.9,97.8
		c0.1-0.1,0.6,2.7-0.1,4c-0.6,1.7-0.3,2.7,1,3.4c2.3,1.1,2.9,2.2,2.6,4.9c-0.2,1.9,0.4,2.8,2.1,3.4c2.1,0.7,3,1.9,3,3.7
		c0,0.3-0.1,0.6-0.1,0.6l-1.2,0.7c0,0,0-0.3,0.1-0.6c0.3-2.1-0.1-2.6-2.5-3.6c-2.3-0.9-2.9-2-2.5-4.6c0.1-0.9,0-1.7-0.4-2.4
		c-0.6-1.1-1.9-1.1-2.9-2c-0.8-0.8-0.9-2-0.2-4c0.4-1.2,0.5-1.7,0.2-2.7c-0.2-0.7-0.3-0.7-0.3-0.7L76.9,97.8z M49.2,98.1l1.4,0.4
		l-1,1.1L49.2,98.1z M102.9,98.4c0.5,0,1.4,0.2,2.1,0.5c1.7,0.8,2,1.5,0.5,1.2c-0.8-0.2-2-0.2-3.2,0.1c-1.2,0.3-1.2,0.3-0.8-0.4
		C102.1,98.8,102.2,98.4,102.9,98.4L102.9,98.4z M99.8,99.4l-0.3,0.5c-0.7-0.1-1.4-0.4-2.4-0.4c0.4,0.8,0.9,1.2,1.6,1.9l-0.2,0.5
		c-0.1,0.1-1.9-1.5-2.3-2.6c-0.2-0.5,0-0.7,0.7-0.7C97.8,98.7,98.9,99,99.8,99.4L99.8,99.4z M74.7,98.8c0.5,0,0.9,0.4,0.9,0.9
		s-0.4,0.9-0.9,0.9s-0.9-0.4-0.9-0.9S74.2,98.8,74.7,98.8L74.7,98.8z M87.5,99.1l1.5,0.3l-1,1.2L87.5,99.1z M58.7,99.1
		c0.4,0,0.9,0.7,0.9,0.7l-1.9,2.6c-0.9-0.2-0.7-1.5,0.1-1.6c0.2,0,0.5,0,0.5,0s-0.3-0.1-0.4-0.3C57.4,99.8,58,99.2,58.7,99.1
		L58.7,99.1z M93.6,98.9c0,0,1.5,2.9,1.4,3.1c-0.9,0.4-1.9,0.6-2.9,1l0.2-0.9c0,0,0.3,0,1.5-0.5c0.5-0.2-0.6-1.7-0.6-1.7L93.6,98.9z
		 M83.3,99.7c2.2,0,2.2,2.7,1.8,3.6c-0.3,0.6-0.8,0.9-2.2,1.6c-1.2,0.5-1.3,0.5-1.3,0.5l-0.3-0.6c0,0,0.7-0.3,1.5-0.6
		c1.6-0.6,1.9-1.1,1.8-2.2c-0.2-1.6-1.5-1.8-3.9-0.8c-0.3,0.1-0.6,0.2-0.6,0.2l-0.2-0.3c0,0,1.9-1,3-1.3
		C83,99.7,83.1,99.7,83.3,99.7L83.3,99.7z M49.7,100l1.2,0.4l-0.9,0.9L49.7,100z M104.4,100.4c1.1,0,2,0.2,2,0.6c0,0.2,0,0.2-1,0.3
		c-1.5,0.2-4,1.5-5.4,2.6c-0.8,0.7-0.6,0.5-0.3-0.5c0.3-1,0.9-2.2,1.1-2.4C101.6,100.6,103.2,100.4,104.4,100.4L104.4,100.4z
		 M86.7,100.5l1,0.2l-0.7,0.7L86.7,100.5z M83.2,101.1c0.4,0,0.6,0.2,0.7,0.5c0.3,0.8,0,1.2-1.2,1.7c-0.5,0.2-1,0.6-1.6,0.7l-0.8-2
		c0,0,0.2-0.1,1-0.4C82.2,101.2,82.8,101.1,83.2,101.1L83.2,101.1z M79.6,101.3c2.4,6.8,5.4,11.3,8.5,15l-0.8,0.5
		c-3.3-3.9-6.4-8.5-8.6-15.3L79.6,101.3z M83,101.6c-0.3,0-0.7,0.2-1.3,0.4c-0.9,0.3-0.9,0.7-0.5,1.2c0.2,0.2,0.3,0.2,1.2-0.2
		c0.8-0.3,1.2-0.5,1.2-0.8C83.6,101.8,83.4,101.6,83,101.6L83,101.6z M106.5,101.7c0,0.3-4.3,4.4-6.8,6.5c-1.1,1-1.1,0.9-1.2,0.8
		c-0.1-0.7,0.4-3.2,0.7-3.7c1.7-1.8,4.2-3.2,6.7-3.7C106.3,101.5,106.5,101.5,106.5,101.7L106.5,101.7z M83.1,101.8
		c0.2,0,0.3,0.1,0.3,0.3c0,0.1-0.2,0.3-0.4,0.3c-0.1,0-0.2,0-0.4,0.2c-0.1,0.2-0.2,0.3-0.4,0.3c-0.1,0-0.3,0-0.4,0
		c-0.4,0.3-0.8,0.1-0.6-0.3c0-0.1,0.2-0.1,0.3-0.1c0.1,0,0.4,0,0.4-0.2c0-0.2,0.3-0.2,0.5-0.2c0.2,0,0.3-0.1,0.4-0.1
		C82.9,101.9,83,101.8,83.1,101.8C83,101.8,83.1,101.8,83.1,101.8L83.1,101.8z M50.2,101.9l1.4,0.2l-0.9,1.1L50.2,101.9z
		 M63.4,101.9c0.5,0,0.9,0.4,0.9,0.9s-0.4,0.9-0.9,0.9s-0.9-0.4-0.9-0.9S62.9,101.9,63.4,101.9L63.4,101.9z M77.8,102.6
		c0.5,0,0.9,0.4,0.9,0.9c0,0.5-0.4,0.9-0.9,0.9c-0.5,0-0.9-0.4-0.9-0.9C76.9,103,77.3,102.6,77.8,102.6L77.8,102.6z M50.8,103.6
		l1.5,0.1l-0.9,1.1L50.8,103.6z M58.7,103.8c0.5,0,0.9,0.4,0.9,0.9c0,0.5-0.4,0.9-0.9,0.9s-0.9-0.4-0.9-0.9
		C57.8,104.2,58.2,103.8,58.7,103.8L58.7,103.8z M96.3,104.4c0.6,0,1.4,0.1,1.4,0.1l-0.2,0.7c-0.8,0.1-1.7-0.1-2.6,0.2
		c0.3,0.5,2.1,1.2,2.3,1.4c0,0.1-0.1,0.7-0.1,0.7c0,0.2-3-1.2-3.1-2.4C93.9,104.6,95.2,104.4,96.3,104.4L96.3,104.4z M85.7,105.1
		c1.7,0,2.6,2.4,1.9,3.5c-0.3,0.5-0.9,1.1-1.7,1.6c-0.4,0.2-1.4,0.7-1.4,0.7l-0.5-0.7c0,0,0.4-0.2,0.8-0.4c1-0.5,2.9-1.7,2-3.3
		c-0.5-0.8-1.3-1-3-0.2c-1.2,0.6-1.5,0.7-1.5,0.7l-0.3-0.6C82.2,106.6,84.5,105.2,85.7,105.1L85.7,105.1z M51.7,105.4l1.4,0
		l-0.6,1.2L51.7,105.4z M91.3,105.2c0.8,1.6,2.3,2.8,2.6,3.1c0,0-1.4,0.9-2.3,1.5l-0.5-0.6l1.2-1l-1.4-1.9L91.3,105.2z M104.7,105.6
		c-0.2,0.8-0.2,1.6-0.2,2.6c0.3,0.3,0.6,0.4,0.8,0.4c0.3-0.8,0.5-1.8,0.3-2.8C105.3,105.6,105,105.6,104.7,105.6L104.7,105.6z
		 M105.4,106.2c0,0.5,0.1,1.2-0.2,1.7c-0.1,0.3-0.4,0.2-0.4-0.2c0-0.5,0.1-1,0.1-1.5c0-0.3,0.1-0.4,0.3-0.4
		C105.4,105.9,105.4,106.1,105.4,106.2L105.4,106.2z M85.6,106.6c0.9,0.1,1.2,0.8,0.9,1.4c-0.8,1-1.6,1.2-2.7,1.8l-1.1-2
		C82.8,107.8,84.8,106.6,85.6,106.6L85.6,106.6z M85.6,107c-0.6,0.1-1,0.4-1.5,0.6c-0.6,0.3-0.8,0.8-0.4,1.2c0.5,0.5,2.1-0.7,2.3-1
		c0.2-0.3,0.1-0.5-0.1-0.7C85.8,107.1,85.7,107,85.6,107L85.6,107z M52.8,107.1l1.3,0l-0.7,1L52.8,107.1z M85.7,107.3
		c0.2,0.2,0.2,0.5-0.1,0.5c-0.2,0-0.4,0-0.4,0.3c0,0.2-0.2,0.2-0.4,0.2c-0.1,0-0.4,0-0.4,0.1c-0.1,0.2-0.2,0.2-0.4,0.1
		c-0.2-0.2-0.1-0.4,0.3-0.5c0.2,0,0.3-0.1,0.3-0.2c0-0.2,0.1-0.2,0.3-0.2c0.2,0,0.4-0.1,0.6-0.3C85.5,107.2,85.6,107.2,85.7,107.3
		L85.7,107.3z M77.9,107.3c0.5,0,0.9,0.4,0.9,0.9s-0.4,0.9-0.9,0.9s-0.9-0.4-0.9-0.9S77.4,107.3,77.9,107.3L77.9,107.3z M58.4,109
		c0.5,0,0.9,0.4,0.9,0.9s-0.4,0.9-0.9,0.9s-0.9-0.4-0.9-0.9S57.9,109,58.4,109L58.4,109z M36.5,109.8L47,117l-0.7,1l-9.7-6.6
		L36.5,109.8z M89,110.1c0.7,0,1.2,0.4,1.7,1.2c1,1.6,0.5,2.8-1.6,4.1c-1,0.6-1,0.6-1,0.6l-0.5-0.6c0,0,0.7-0.4,1-0.6
		c1.7-1.1,2.2-2,1.4-3.1c-0.7-1-1.5-1-3.6,0.4c-0.4,0.3-0.9,0.5-0.9,0.5l-0.5-0.6c0,0,1.2-0.6,1.6-0.9
		C87.7,110.3,88.4,110.1,89,110.1L89,110.1z M96.8,109.8l0,0.7c0,0-1.4,0.7-2.3,1.1c-0.3,0.1-0.2,0.4-0.2,0.7l-0.4,0.3
		c0,0-0.6-0.4-0.6-0.7C93.2,111,95.8,110,96.8,109.8L96.8,109.8z M81.7,110.5c0.5,0,0.9,0.4,0.9,0.9s-0.4,0.9-0.9,0.9
		s-0.9-0.4-0.9-0.9S81.2,110.5,81.7,110.5L81.7,110.5z M53.4,110.8c0.5,0,0.9,0.4,0.9,0.9c0,0.5-0.4,0.9-0.9,0.9s-0.9-0.4-0.9-0.9
		C52.5,111.2,52.9,110.8,53.4,110.8L53.4,110.8z M89,111.5c0.3,0,0.6,0.2,0.8,0.6c0.4,0.9-0.1,1.5-1.9,2.5c-0.2,0.1-0.5,0.3-0.5,0.3
		l-1.3-1.8c0,0,0.5-0.3,0.9-0.6C87.9,111.8,88.6,111.5,89,111.5L89,111.5z M88.8,111.9c-0.1,0-0.2,0-0.3,0.1c-0.5,0.3-1.2,0.6-1.6,1
		c-0.2,0.3-0.1,0.6,0.3,1c0.3,0.2,2.1-1.1,2.1-1.4C89.2,112.2,89.1,111.9,88.8,111.9L88.8,111.9z M36.6,112l0.3,0.2l-0.3,0.2V112z
		 M89.1,112.4c0.1,0.2,0.1,0.4-0.2,0.5c-0.1,0-0.3,0.1-0.4,0.3c-0.1,0.1-0.2,0.2-0.4,0.2c-0.2,0-0.3,0.1-0.3,0.2
		c-0.1,0.2-0.4,0.2-0.5,0c-0.1-0.1,0.1-0.5,0.2-0.5c0,0,0.2,0,0.4-0.2c0-0.2,0.3-0.3,0.4-0.3c0.2,0.1,0.3-0.1,0.3-0.2
		C88.7,112.2,89,112.2,89.1,112.4L89.1,112.4z M37.3,112.5l0.4,0.3l-1.1,0.8v-0.6L37.3,112.5z M38.1,113l0.6,0.4l-2.1,1.5v-0.8
		L38.1,113z M39.2,113.7l0.6,0.4l-3.2,2.1v-0.8L39.2,113.7z M40.3,114.3v0.7l-3.7,2.6v-0.7L40.3,114.3z M40.7,114.8l0.8,0.5
		l0.2,23.4l-5,3.4l0-1l4.2-3L40.7,114.8z M101.3,115.4c-1.1,1.3-2.6,1.4-3.9,1.3c-3.5,0-5.7,0.2-6.2,4.5c1.4-1.1,3-1.2,4.8-1.2
		c2.2,0,3.3-0.2,4.2-0.6c1.5-0.7,2.4-2,2.2-3C102.1,116.3,101.6,115.5,101.3,115.4L101.3,115.4z M40.3,115.6v0.8l-3.7,2.5v-0.8
		L40.3,115.6z M82.8,115.7c0.5,0,0.9,0.4,0.9,0.9c0,0.5-0.4,0.9-0.9,0.9s-0.9-0.4-0.9-0.9C81.9,116.1,82.3,115.7,82.8,115.7
		L82.8,115.7z M58.5,115.8c6.6,0.2,20.5,0.1,20.5,0.1l0.7,1.1l-22-0.2L58.5,115.8z M101.2,116.5c-0.8,0.8-1.6,1.1-4.2,1.1
		c-2.7,0-3.8,0.4-4.5,1.6c-0.2,0.4-0.2,0.5,0.1,0.2c0.3-0.3,0.8-0.9,1.1-0.3c0.5-0.3,0.9-0.8,1.1-0.2c0.1,0,0.9-0.8,1.1-0.1
		c0.4-0.4,0.7-0.6,0.9,0c0.5-0.3,0.8-0.7,1.1-0.1c0.4-0.3,0.8-0.7,1-0.1c0.4-0.1,0.7-0.8,1-0.2c0,0,1.4-0.8,1.7-1.6
		c0.3-0.7,0.6-0.2,0.2,0.5c-0.9,1.7-2.4,2.4-6,2.4c-2.1,0-3,0.2-3.7,0.6c-1.1,0.6-0.5-1,0.3-1.9c1-1.2,2-1.6,5-1.5
		c1.6,0,2.7-0.2,3.1-0.6c0.4-0.3,0.6-0.5,0.8-0.5C101.6,115.8,101.6,116.1,101.2,116.5L101.2,116.5z M52.9,116.2
		c0.5,0,0.9,0.4,0.9,0.9s-0.4,0.9-0.9,0.9c-0.5,0-0.9-0.4-0.9-0.9S52.4,116.2,52.9,116.2L52.9,116.2z M40.3,116.9v0.8l-3.7,2.5v-0.8
		L40.3,116.9z M58.3,117.3h2.9v3h-2.9V117.3z M64.8,117.3h3.1v3h-3.1V117.3z M71.7,117.4h3v2.9h-3V117.4z M78.2,117.4l2,0.1
		c0,0,1.1,1.4,1.6,2.1l-1.5,0.8l-2.1,0V117.4z M59.7,117.6c-0.6,0-1,0.5-1,1c0,0.6,0.5,1,1,1c0.6,0,1-0.5,1-1
		C60.7,118.1,60.3,117.6,59.7,117.6L59.7,117.6z M66.4,117.7c-0.6,0-1,0.5-1,1c0,0.6,0.5,1,1,1c0.6,0,1-0.5,1-1
		C67.4,118.2,66.9,117.7,66.4,117.7L66.4,117.7z M73.1,117.8c-0.6,0-1,0.5-1,1c0,0.6,0.5,1,1,1c0.6,0,1-0.5,1-1
		C74.2,118.2,73.7,117.8,73.1,117.8L73.1,117.8z M56.9,118c0.2,0.1,0.3,0.4,0.3,0.6c0,0.4-0.4,0.8-0.8,0.8c-0.2,0-0.3,0-0.4-0.1
		L56.9,118z M59.7,118c0.4,0,0.7,0.3,0.7,0.7s-0.3,0.7-0.7,0.7c-0.4,0-0.7-0.3-0.7-0.7S59.3,118,59.7,118L59.7,118z M79.9,118
		c-0.6,0-1,0.5-1,1c0,0.6,0.5,1,1,1c0.6,0,1-0.5,1-1C80.9,118.5,80.5,118,79.9,118L79.9,118z M63,118c0.5,0,0.8,0.4,0.8,0.8
		c0,0.5-0.4,0.8-0.8,0.8s-0.8-0.4-0.8-0.8C62.2,118.4,62.6,118,63,118L63,118z M76.5,118c0.5,0,0.8,0.4,0.8,0.8s-0.4,0.8-0.8,0.8
		s-0.8-0.4-0.8-0.8S76,118,76.5,118L76.5,118z M40.3,118.1v0.8l-3.7,2.6v-0.8L40.3,118.1z M66.4,118.1c0.4,0,0.7,0.3,0.7,0.7
		s-0.3,0.7-0.7,0.7c-0.4,0-0.7-0.3-0.7-0.7S66,118.1,66.4,118.1L66.4,118.1z M73.1,118.1c0.4,0,0.7,0.3,0.7,0.7
		c0,0.4-0.3,0.7-0.7,0.7c-0.4,0-0.7-0.3-0.7-0.7C72.5,118.4,72.8,118.1,73.1,118.1L73.1,118.1z M69.7,118.2c0.5,0,0.8,0.4,0.8,0.8
		s-0.4,0.8-0.8,0.8s-0.8-0.4-0.8-0.8S69.3,118.2,69.7,118.2L69.7,118.2z M79.9,118.4c0.4,0,0.7,0.3,0.7,0.7c0,0.4-0.3,0.7-0.7,0.7
		c-0.4,0-0.7-0.3-0.7-0.7C79.2,118.7,79.5,118.4,79.9,118.4L79.9,118.4z M51,119.1c1.7,0,3.6,0.9,4.7,2.3c1.6,2.1,2.7,4.9,3.2,8.5
		c0.2,1.8,1.1,7.1,1.5,8.4l-0.6-0.1c-0.1,0-0.9-3.4-1.4-7.8c-0.2-1.7-0.5-3.8-1.5-5.8c-1.1-2.2-3-4.6-5.5-4.8
		c-1.5-0.1-2.8,0.8-3,2.1c-0.2,1,0.4,2,1.2,2.3c0.8,0.3,1.7,0.1,1.8-1c0-0.2,0-0.3-0.1-0.5c0.4-0.1,0.6,0.1,0.8,0.4
		c0.1,0,0,1.5-1.2,1.8c-1.4,0.5-3.1-0.9-3.2-2.4c-0.1-1.2,0.8-2.7,2-3.1C50,119.1,50.5,119.1,51,119.1L51,119.1z M40.3,119.5v0.8
		l-3.7,2.6v-0.8L40.3,119.5z M51,120.1c2.1-0.1,4.1,2.3,5,3.8c0.9,1.6,1.6,4.1,1.9,6.5c0.4,4.1,1.2,7.4,1.4,7.5l-0.6-0.1
		c-0.1,0.1-0.9-3.6-1.4-7.7c-0.3-2.3-1.1-4.6-2.1-6.3c-0.9-1.6-2.2-2.8-3.7-3c-0.9-0.1-1.9,0.2-2.1,1.2c-0.1,0.6,0.2,1.1,0.9,1.2
		c0.2,0,0.3,0,0.3,0c0.4,0.1-0.2,0.7-0.6,0.6c-1.3-0.2-2-2-0.9-2.9C49.8,120.3,50.4,120.1,51,120.1L51,120.1z M55.5,120.7l23.4,0.2
		c0,0,0,0.4-1.4,0.4c-1.2-0.1-2,0.1-2.9,0.4l-18.4,0L55.5,120.7z M40.3,120.9v0.8l-3.7,2.6v-0.9L40.3,120.9z M51.2,121.3
		c0.4,0,0.9,0.1,1.3,0.3c2.9,1.7,4,5.8,4.4,8.5c0.5,3.9,1.1,7.5,1.3,7.6l-0.6-0.1c-0.1,0-0.8-3.4-1.2-7.1c-0.3-3-1.4-6.1-3.5-7.4
		c-1.3-0.9-1.6-1-2.2-0.5c-0.5,0.5-1.1-0.2-0.6-0.8C50.3,121.4,50.7,121.3,51.2,121.3L51.2,121.3z M40.3,122.3v0.6l-3.7,2.6v-0.8
		L40.3,122.3z M57.3,122.3c0,0,2,3.3,2.6,8.5c0.3,2.8,1.3,7.5,1.4,7.5l-0.7-0.1c-0.7-2.8-1.1-5.4-1.5-7.8c-0.4-2.7-0.8-5.1-2.4-8.2
		L57.3,122.3C57.3,122.3,57.3,122.3,57.3,122.3L57.3,122.3z M57.8,122.4l0.6,0c1,2,2.1,5.1,2.5,8.1c0.3,2.7,0.7,5.4,1.6,8.2
		l-0.7-0.2c-0.8-2.3-1.1-5.1-1.5-7.9C59.9,127.4,59.1,124.7,57.8,122.4L57.8,122.4z M61.5,122.4c1.1,2.8,1.8,4.1,2.2,7.5
		c0.4,2.6,0.9,5.9,2.1,9.4l-0.6,0c-0.9-2.4-1.6-5.6-1.9-8.7c-0.4-4.2-2.3-8.1-2.3-8.1L61.5,122.4z M60.5,122.4
		c0.1-0.1,2,3.9,2.5,8.2c0.3,2.9,1,5.7,1.9,8.5l-0.6,0c-0.7-0.8-1.3-4.8-1.9-8.5c-0.6-3.8-1.5-6.1-2.4-8.1L60.5,122.4
		C60.5,122.4,60.5,122.4,60.5,122.4L60.5,122.4z M58.9,122.4l0.6,0c1.5,3.2,2.1,5.1,2.5,8.2c0.6,3.9,1.1,7.4,1.7,8.3l-0.7,0
		c-0.9-2.8-1.4-5.6-1.7-8.4C61,127.4,60.1,124.8,58.9,122.4L58.9,122.4z M62,122.4l0.7,0c1.1,2.3,2.1,5.1,2.4,8.4
		c0.2,1.7,0.5,4.4,1.8,8.6l-0.5,0c-1.1-2.8-1.7-6-2.1-8.9C63.9,127.5,63.2,125.2,62,122.4L62,122.4z M66.1,122.4
		c0.6,1.6,1.1,3.2,1.5,4.8l-0.4,0.7c-0.6-2.2-1.3-3.9-1.9-5.6L66.1,122.4z M63.1,122.4l0.8,0c1.4,3.2,2.1,6.6,2.3,7.8
		c0,0,0.2,1,0.2,1.3c0,2.8,0.4,4.8,1.5,7.9l-0.5,0c-1.2-3.5-1.5-6-1.9-8.4C65.3,128,64.3,124.9,63.1,122.4L63.1,122.4z M64.9,122.4
		c0.8,2.1,1.5,4.1,2,6.1c0,0.5-0.1,0.9-0.4,1.3c-0.7-2.4-1.2-5-2.3-7.4L64.9,122.4z M66.4,122.5l0.6,0l1.3,3.7l-0.5,0.6
		C67.5,125.5,67.1,124.1,66.4,122.5L66.4,122.5z M70.2,122.5l0.5,1.1l-0.5,0.4c0,0-0.5-1-0.6-1.5L70.2,122.5z M71.1,122.5l0.2,0.6
		l-0.4,0.3l-0.3-0.9L71.1,122.5z M67.5,122.5l0.7,0c0.3,0.8,1,2.6,1,2.6l-0.5,0.5C68.6,125.7,67.7,123.3,67.5,122.5L67.5,122.5z
		 M68.5,122.5l0.6,0c0.2,0.5,0.7,1.9,0.7,1.9l-0.4,0.4L68.5,122.5z M71.5,122.5l0.6,0l-0.1,0.1l-0.4,0.2L71.5,122.5z M52.6,123.3
		c2.4,1.3,3.1,5.1,3.4,7.2c0.5,3.7,1,6.7,1.1,6.7l-0.5-0.1c0,0-0.4-1.9-0.7-3.7c-0.2-1.5-0.4-2.7-0.5-3.3c0-0.4-0.1-0.8-0.1-0.9
		c-0.3-1.5-0.4-1.9-0.9-2.8c-0.4-0.9-0.6-1.1-1.3-1.9c-0.3-0.3-0.5-0.5-0.6-0.7C52.3,123.6,52.6,123.3,52.6,123.3L52.6,123.3z
		 M40.3,123.5v0.7l-3.7,2.6v-0.8L40.3,123.5z M40.3,124.8v0.8l-3.7,2.5v-0.7L40.3,124.8z M40.3,126.2v0.8l-3.7,2.6v-0.8L40.3,126.2z
		 M46.5,127h0.3l0,0.5l-0.5,0L46.5,127z M40.3,127.7v0.8l-3.7,2.5v-0.8L40.3,127.7z M46.2,128l0.8,0l0,0.6l-1,0L46.2,128z
		 M45.7,128.9l1.3,0v0.5l-1.6,0L45.7,128.9z M40.3,129v0.9l-3.7,2.5v-0.9L40.3,129z M45,129.9l1.9,0l0,0.4l-2.3,0L45,129.9z
		 M40.3,130.4v0.8l-3.7,2.4v-0.8L40.3,130.4z M44.3,130.8l2.6,0l-0.1,0.4l-3,0L44.3,130.8z M40.3,131.7v0.8l-3.7,2.4v-0.8
		L40.3,131.7z M43.3,131.7l3.4,0.1l0.7,0.7l-5.3,0L43.3,131.7z M42.2,132.9l5.9,0.1l0.4,0.4l-6.3,0L42.2,132.9z M40.3,133.1v0.9
		l-3.7,2.4v-0.8L40.3,133.1z M42.3,133.9l6.5,0l-0.5,0.5l-6.1,0L42.3,133.9z M40.3,134.5v0.8l-3.7,2.5v-0.9L40.3,134.5z M42.1,134.9
		l5.6,0l-0.7,0.5l-3.9,0.1L42.1,134.9z M40.3,135.9v0.8l-3.7,2.7v-0.8L40.3,135.9z M43.7,136l3.3,0l0.1,0.4l-2.8,0L43.7,136z
		 M44.6,136.9l2.5,0l0.1,0.6l-2.3,0L44.6,136.9z M40.3,137.3v0.7l-3.7,2.6v-0.8L40.3,137.3z M47.4,137.9l0,0.5l-1.5,0.1l-0.4-0.6
		L47.4,137.9z M47.4,138.9l0,0.6l-1.1,0l-0.2-0.6L47.4,138.9z M46.4,139.9l0.8,0l-0.1,0.4l-0.6,0L46.4,139.9z M46.7,140.9h0.4
		l-0.1,0.3h-0.2L46.7,140.9z M54.9,146.8l-0.2,0.2h5.8l0.1-0.2H54.9z M62.4,146.8l-0.1,0.3h2.6l0.1-0.3H62.4z M66.7,146.8l-0.1,0.3
		h6.7l-0.1-0.3H66.7z M74.7,146.8l0.1,0.4h2.3l-0.1-0.4H74.7z M82.5,146.8l-4,0l0.1,0.4h4.1L82.5,146.8z M82.5,146.8"/>
	<g>
		<defs>
			<rect id="SVGID_1_" x="4" y="2.9" width="134.7" height="174.4"/>
		</defs>
		<clipPath id="SVGID_2_">
			<use xlink:href="#SVGID_1_"  overflow="visible"/>
		</clipPath>
		<path clip-path="url(#SVGID_2_)" fill="none" stroke="#000000" stroke-width="0.2" d="M22.2,18.8V3.2 M20,21H4.4 M120.8,18.8V3.2
			 M123,21h15.6 M22.2,160.9v15.6 M20,158.7H4.4 M120.8,160.9v15.6 M123,158.7h15.6"/>
	</g>
</g>
<g>
	<g>
		<path fill="#FFFFFF" d="M18.8,21.6c0.1,0,0.2,0,0.4-0.1c-0.2-0.3-0.3-0.7-0.5-1c0.1-0.1-5.5-0.5-6.1-0.5c-3,0-6,0.1-9-0.2
			c-0.9-0.1-2,1.3-0.7,1.4c5.3,0.6,10.7-0.2,16,0.7c0.4,0.1,0.9-0.1,1.1-0.4c0.1-0.1,0.2-0.3,0.3-0.4c0.3-0.4,0.1-1-0.5-1
			c-0.3,0-0.6,0-0.9,0C17.9,20.4,17.5,21.8,18.8,21.6L18.8,21.6z"/>
	</g>
</g>
<g>
	<g>
		<path fill="#FFFFFF" d="M20.7,21c-2.9-0.1-5.8-0.7-8.8-0.8c-3.5-0.1-7,0.8-10,2.6c-0.4,0.2-1.3,1-0.7,1.5c2.5,1.8,6.1,1.7,9,1.6
			c3.6-0.2,7.6-1.1,10.6-3.1c0.7-0.5,1.4-1.3,0.2-1.6c-4-1-8-0.5-12-0.4c-1.9,0-3.9,0.4-5.5,1.5c-1.2,0.8-1.1,1.8,0.5,1.7
			c3.5,0,7.2-0.6,10.7,0.2c0.1-0.5,0.1-1.1,0.2-1.6c-0.4,0.3,1.4-0.2-0.4,0.1c-0.7,0.1-1.4,0.1-2.1,0.1c-1.4,0-2.8-0.2-3.9-1.1
			c-0.2,0.5-0.4,1-0.7,1.5c-1.3,0.8-0.4,0.3,0.6,0.4c0.8,0,1.6,0.2,2.4,0.3c1.6,0.2,3.3,0.4,4.9,0.5c1.8,0,3.9-0.5,5.5-1.5
			C22.4,21.9,22.2,21,20.7,21L20.7,21z"/>
	</g>
</g>
<g>
	<g>
		<path fill="#FFFFFF" d="M25.8,19.2c0-4.4,0.3-8.9,0.3-13.3c0-2.3-7.7-0.8-7.7,2.1c0,4.4-0.3,8.9-0.3,13.3
			C18,23.5,25.8,22.1,25.8,19.2L25.8,19.2z"/>
	</g>
</g>
<g>
	<g>
		<path fill="#FFFFFF" d="M124.5,17.3c0.9-4.9,0.1-9.8,0.3-14.7c0.2-4.1-7.7-3-7.8,0.6c-0.3,4.9,0.6,9.8-0.3,14.7
			C115.9,21.8,123.9,20.9,124.5,17.3L124.5,17.3z"/>
	</g>
</g>
<g>
	<g>
		<path fill="#FFFFFF" d="M122.4,22.7c5.2,0.1,10.4,1.6,15.6,0.6c1.5-0.3,3.2-0.7,4.1-2c1.1-1.5-0.9-2.1-2.1-2.2
			c-1.1-0.1-2.1-0.3-3.1-0.6c-1.8-0.4-4.1,0.3-5.5,1.5c-1.3,1.1-0.8,2.3,0.7,2.6c1.6,0.4,3.2,0.7,4.9,0.8c0.7-1.4,1.4-2.8,2.1-4.2
			c-4.5,0.9-9.2-0.6-13.7-0.7c-1.7,0-4.1,0.6-5.1,2.1C119.3,22,121.2,22.7,122.4,22.7L122.4,22.7z"/>
	</g>
</g>
<g>
	<g>
		<path fill="#FFFFFF" d="M122.6,160.4c6.1-0.3,12.2,0.3,18.3,0.3c1.7,0,4-0.7,5.1-1.9c1.2-1.4-1.1-1.6-1.9-1.6
			c-6.1,0-12.2-0.6-18.3-0.3c-1.7,0.1-4,0.6-5.1,1.9C119.5,160.1,121.8,160.4,122.6,160.4L122.6,160.4z"/>
	</g>
</g>
<g>
	<g>
		<path fill="#FFFFFF" d="M116.7,163c1.3,4.6,1,9.5,0,14.2c-0.6,2.6,7.2,1.3,7.7-1.1c1.1-4.9,1.4-10.3,0-15.2
			C123.8,158.4,116,160.5,116.7,163L116.7,163z"/>
	</g>
</g>
<g>
	<g>
		<path fill="#FFFFFF" d="M17.7,162c1.1,3.8,0.3,7.7,0.3,11.5c-0.1,4.3,7.8,3.3,7.9-0.5c0.1-4.4,0.9-8.8-0.4-13.1
			C24.3,156.1,16.6,158.2,17.7,162L17.7,162z"/>
	</g>
</g>
<g>
	<g>
		<path fill="#FFFFFF" d="M18.6,155.8c-4.5,0-8.9,0-13.3-0.3c-1.8-0.1-4.1,0.5-5,2.3c-0.8,1.7,0.7,3,2.3,3.1
			c5.1,0.3,10.2,0.3,15.3,0.3c1.7,0,4-1.3,4.3-3.1C22.4,156.3,20.1,155.8,18.6,155.8L18.6,155.8z"/>
	</g>
</g>
<g>
	<g>
		<path fill="#FFFFFF" d="M8.4,23.6c0,0.4,0.3,0.8,0.3,1.2c0-0.2,0-0.5,0-0.7c0,0.1,0,0.1,0,0.2c0,0.8,0.2,1.4,0.9,1.9
			c0.8,0.5,1.7,0.7,2.6,0.6c1-0.1,2.1-0.4,2.9-1.1c0.6-0.4,1.4-1.3,1.4-2c0-0.5,0-1-0.2-1.4c-0.1-0.2-0.2-0.4-0.2-0.6
			c-0.1-0.8-1-1.3-1.6-1.6c-0.9-0.3-2-0.3-2.9,0S9.7,20.7,9,21.5c-0.2,0.2-0.3,0.5-0.5,0.7C8.3,22.6,8.3,23.1,8.4,23.6L8.4,23.6z"/>
	</g>
</g>
</svg>
