<?xml version="1.0" encoding="utf-8"?>
<!-- Generator: Adobe Illustrator 14.0.0, SVG Export Plug-In  -->
<!DOCTYPE svg PUBLIC "-//W3C//DTD SVG 1.1//EN" "http://www.w3.org/Graphics/SVG/1.1/DTD/svg11.dtd" [
	<!ENTITY ns_flows "http://ns.adobe.com/Flows/1.0/">
]>
<svg version="1.1"
	 xmlns="http://www.w3.org/2000/svg" xmlns:xlink="http://www.w3.org/1999/xlink" xmlns:a="http://ns.adobe.com/AdobeSVGViewerExtensions/3.0/"
	 x="0px" y="0px" width="300px" height="155px" viewBox="-85.1 13.7 300 155" enable-background="new -85.1 13.7 300 155"
	 xml:space="preserve">
<defs>
</defs>
<g>
	<path fill="#FFFFFF" d="M28,22.3h88.9c2.6,0,4.7,2.1,4.7,4.7v127.8c0,2.6-2.1,4.7-4.7,4.7H28c-2.6,0-4.7-2.1-4.7-4.7V27
		C23.4,24.4,25.5,22.3,28,22.3L28,22.3z M28,22.3"/>
	<path fill="none" stroke="#000000" stroke-width="0.7974" d="M28,22.3h88.9c2.6,0,4.7,2.1,4.7,4.7v127.8c0,2.6-2.1,4.7-4.7,4.7H28
		c-2.6,0-4.7-2.1-4.7-4.7V27C23.4,24.4,25.5,22.3,28,22.3L28,22.3z M28,22.3"/>
	<path fill="#131F67" d="M36.2,33.3c0,34.8,0.4,77.6,0.4,115.5l72,0l-0.5-115.3L36.2,33.3z M57.5,34c12.4,0.3,24.9,0,37.5,0.1
		c0,0-4.5,7.9-5.9,10.4c-0.3,0.5-0.3,0.9-0.2,1.2c0.3,0.4,0.2,0.9,0,1.3c-0.1,0.1-0.2,0.2-0.2,0.3c0,0.1,0.1,0.2,0.1,0.3
		c0.2,0.8-0.4,1.3-1,1.5c-0.4,0.2-1.3,0.3-2,0.2c-4.2-0.2-12.3-3.7-15.7-4c-2.3-0.6-5.3-0.4-7.8-0.3c-0.5,0-0.4-1.1-0.4-1.1
		C61.5,40.5,59,37.3,57.5,34L57.5,34z M95.6,34.3l11.7,0l0.1,1.9l-4.9,5.1c-0.5,0.5-0.8,0.9-0.8,0.9l0,4.6c-3.4-1.8-4-4-4.7-6.4
		c-5.6,4.2-5.9,13.2,0.3,17.9c0.1-2,1.6-6,4.3-6.3l0,15.8l-3.4-3.3l-7.3,0.1c1.2-2,1.2-3.5,0.5-5.4c-1.3-3-3.4-9.9-3.2-9.9
		c0,0,0.1-0.1,0.2-0.2c0.6-0.1,1-0.7,0.8-1.4c0-0.2,0-0.2,0.1-0.5c0.6-1-0.1-2.1-0.1-2.1L95.6,34.3z M56.6,34.4l4.4,8
		c0,0-0.1,0.4,0,0.6c0,0.3,0.1,0.6,0.3,0.9c0.1,0.2,0.2,0.4,0.2,0.7c0,0.4,0,0.4,0.6,0.9c0.1,0.1,0.1,0.2,0.1,0.3
		c-0.2,0.5-0.1,1.5,0.3,2.7c0.5,1.5,0.6,1.5-0.3,3.5c-0.2,0.4-0.4,1-0.7,1.5c-1.1,2.3-1.3,2.9,0.6,4.1c0.5,0.3,0.7,0.6,0.6,1.3
		c-0.1,0.5-0.1,0.9,0.1,1.2c0.2,0.2,0.3,0.2,0.3,0.4c0,0.1-0.2,0.5-0.1,0.9c0.1,1-1,2.5-2.1,3c-0.2,0.2-0.3,0-0.4-0.2
		c-1.1-1.9-3.8-1.1-4,1.1c0,0.6,0,0.9-0.2,1c-0.1,0-0.2,0.1-0.2,0.1s-4.1,2.6-6.7,4c-0.2,0.1-0.3,0.2-0.4,0.3c-0.1,0-0.2,0-0.3-0.1
		c-1-1.8-0.4-4-0.3-4.7c0-0.3-0.3-0.3-0.6-0.3c-0.6,0-1.4,0.6-1.6,1.1c-0.2,0.5-0.3,0.8-0.4,0.8c-0.1,0-0.2-0.2-0.6-0.9
		c-0.7-1.4-0.9-1.6-1.5-2.4c-0.6-0.7-1-0.7-1.6-0.3c-0.4,0.3-0.4,0-0.7-0.1c-0.5-0.4-1.4,0-1.4,0.5c0,0.4,0,0.8-0.5,0.8
		c-0.5,0-0.7,0.7-0.6,1.6c0.1,0.5,0.1,0.6-0.1,0.7c-0.5,0.6-0.5,1-0.3,1.8c0.8,2.3,1.9,3.9,2.9,5.9c0,0-2.6,1.5-4.2,2.4l0-42.8
		L56.6,34.4z M107.6,36.7l0.1,37.2l-5.6-5.5c0,0-0.1-7.1-0.1-10c0-2.9,0-5.8,0-6.4c0-0.5,0-2.8,0-5.2c0-5-0.4-4.3,0.5-5.3
		L107.6,36.7z M96.6,41.2l0.3,0.9c-2.4,1.4-5.2,8.9,0.1,14.4l-0.1,1.1C91.3,52.6,92.3,45.4,96.6,41.2L96.6,41.2z M97,42.2
		c0.8,1.7,1.7,3.1,3,4.1c-0.7,1.6-1,3.4,0.2,5.8c-0.8,0.4-1.9,1.6-3.1,4C92.9,51.9,93.8,45.7,97,42.2L97,42.2z M65.9,45.4
		c2.3,0,4.7,0.4,6.9,1c1.4,7.1,3.8,11.8,3.8,14.6c0,0-0.2,0-0.6-0.3c-1-0.7-2.3-0.3-3,0.6c-0.7,0.9,0,2.1-0.3,2.6
		c-0.7,1-2.3,2.7-2.6,2.7c-0.2,0-0.2-0.1,0.5-1.2c0.7-1.1,1.3-2.2,1.1-2.4C71.6,62.8,71.5,63,71,64c-1.3,2.3-2.5,3.7-2.9,3.5
		c-0.2-0.1-0.1-0.3,0.9-1.6c1.1-1.5,1.4-2.4,1.3-2.8c-0.1-0.3-0.3,0.2-0.7,1.1c-0.5,0.9-1.4,2-2.1,3c-0.2,0.4-0.5,0.6-0.9,0.7
		c-0.3,0.1-0.7,0.3-1,0.3c-0.1,0,0-0.1,0.1-0.3c1.4-1.4,2.6-3,3.3-4.6c0.1-0.2,0-0.5-0.2-0.3c-1,1.8-2.5,4.1-4.1,5.2
		c-0.3,0.2-0.9,0.4-1.3,0.4c-0.8,0-0.5-0.2,0.2-0.7c1.5-1,3.7-3.8,4-4.8c0.1-0.2,0-0.4-0.2-0.4c-1.3,2-2.9,4.2-4.8,5.1
		c-1,0.5-2.3,0.6-3,0.3c-0.5-0.2-0.4-0.3,0.5-0.4c2-0.2,4.4-2.1,5.5-4.1c0.7-1.1,0.2-0.9-0.6,0.2c-1.3,1.8-4,3.6-5.6,3.4
		c-1.7-0.1-2.6-1.4-2.4-2.5c0.1-0.7,0.6-1.3,1.5-1.5c1.6-0.3,2.6,2.2,1.2,2.7c-0.5,0.2-0.7,0-0.5-0.2c1.1-0.5,0.6-1.8-0.3-1.9
		c-0.6-0.1-1.2,0.3-1.3,1.2c0,0.7,0.6,1.3,1.7,1.3c1.3,0,3.3-0.9,4.5-2.6c0.9-1.3,0.1-0.9-0.6,0c-0.6,0.8-2.4,1.9-2.5,1.8l0.1-0.9
		c0,0.2,2.8-1.7,2.6-3.1c-0.1-1,0-1.3,1.1-1.3c0.8,0,1.8,0.3,2.1,0.7c0.3,0.4,0.6,0.5,0.5-0.1c-0.2-1,0-1.2-0.5-1
		c-0.4,0.1-0.7-0.2-1.1-0.5c-0.4-0.3-1-0.4-1.6-0.4c-0.5,0-0.7,0-0.6-0.5c0.1-0.3,0.1-0.6,0-0.8c-0.2-0.3-0.8-0.7-1.5-1.2
		c-0.8-0.6-0.7-0.6,1.1-4.7c0.7-1.7,0.7-2,0.3-3.3c-0.7-2-0.8-2.8,0.5-3C64.4,45.4,65.1,45.4,65.9,45.4L65.9,45.4z M73.3,46.5
		l0.7,0.2c0,0,2.1,7.2,3.3,10.7c0.4,1.1,0.6,2.5,0.7,3.9c0,1.9-1.1,3.2-2.4,3.4c-0.9,0.1-1.9-0.4-2.4-1.4c-0.4-1-0.1-2.1,1-2.5
		c1.9-0.7,3.3,1.8,1.4,2.5c-1,0.4-1.9-0.3-1.5-1.1c0.3-0.6,1.2-0.5,1.4,0.1c0.2,0.6,0.4,0.3,0.3-0.1c-0.4-1.4-2.1-1-2.2,0.2
		c0,1.5,1.7,1.9,2.7,1c0.8-0.7,0.9-1.9,0.7-3c-0.3-2.3-1.5-5.2-2.5-8.5C74.2,50.2,73.5,48.2,73.3,46.5L73.3,46.5z M100.3,46.6
		l1.3,0.5l0,4.2l-1.1,0.4C99,49.5,100.2,46.6,100.3,46.6L100.3,46.6z M74.5,46.9l0.9,0.4c0.5,3,2.9,8.6,3.8,12.8
		c0.2,2.5,0.3,3.3-1.4,4.6v0h-0.9c0,0,0-0.1,0.4-0.4c2.3-1.7,0.9-5.4,0.1-8.2C75.8,51.5,74.5,46.9,74.5,46.9L74.5,46.9z M65.8,47.2
		c-0.1,0-0.2,0-0.4,0c-1.4,0.1-1.6,0.2-1.6,0.5c0,0.6,0.2,0.8,1.5,0.7c1.1-0.1,2.8,0.1,3.9,0.5c1.3,0.6,1.6,0.7,2.1,0.9
		c1.2,0.6,1,0-0.1-0.7C69,47.7,67.5,47.2,65.8,47.2L65.8,47.2z M75.9,47.4l0.9,0.3c0,0,0.2,0.7,0.3,1.1c0.9,3.8,3.2,8,3.4,12.4
		c0.1,1.4-0.2,2.8-1.2,3.5h-0.8c0.9-0.9,1.4-1.1,1.2-4.1C79.3,56.8,76.8,52.1,75.9,47.4L75.9,47.4z M77.5,48l0.8,0.3
		c0.9,5.1,5.5,12.7,2.6,16.4h-0.7c0.7-1,0.9-1.9,0.8-3.3C80.7,56.8,78.3,52.3,77.5,48L77.5,48z M78.8,48.5l0.9,0.3
		c1.2,5.2,5.7,13.6,2.5,16l-0.6,0C84,60.1,80.3,55.4,78.8,48.5L78.8,48.5z M80.3,48.9c0.3,0.1,0.6,0.2,0.9,0.3
		c0.9,3.9,2.6,7.8,3.3,11.4c0.3,2-0.2,3.5-1.4,4.1h-0.3c1.1-1.7,0.9-3.8,0.3-6.1C82.4,55.4,80.9,52,80.3,48.9L80.3,48.9z M66.6,49
		c-0.4,0-0.8,0.1-1.3,0.2c-0.5,0.2-0.4,0.5,0,0.5c0.1,0,0.4-0.1,0.6-0.1c1-0.2,2.3,0.2,3.9,1.1c0.4,0.2,0.8,0.4,0.9,0.5
		c0.3,0.2,0.6,0.2,0.5-0.1c0-0.1-0.6-0.6-1.2-0.9C68.9,49.6,67.9,49,66.6,49L66.6,49z M81.8,49.4l0.9,0.1c1.6,7.6,5.3,12.3,2.2,15.1
		h-0.8c0.8-0.9,1.2-2.2,0.9-3.8c-0.3-1.6-1.1-4.2-1.8-6.5C82.4,51.6,81.7,49.4,81.8,49.4L81.8,49.4z M83.1,49.6l0.7,0.1
		c0.9,3.1,2.3,6.9,3.2,10.1c0.5,2,0.3,4.4-0.9,4.8l-0.6,0c1-1.4,1.2-2.8,0.7-4.7C85.3,56.1,83.8,52.7,83.1,49.6L83.1,49.6z
		 M87.6,49.6c0.7,3.2,2.5,8,3.2,9.7c0.9,1.7,0.6,4.3-0.7,5.3l-0.6,0c0.7-0.7,1-1.9,0.9-3.1c-0.3-3.4-2.7-8.1-3.6-11.8L87.6,49.6z
		 M84.4,49.7l0.8,0.1c0.8,3.3,2.3,6.6,3.2,9.9c0.2,0.8,0.3,1.7,0.3,2.4c-0.1,1.4-0.7,2.5-1.2,2.5h-0.5c1.1-1.3,1-3,0.6-4.9
		C86.7,56.6,84.8,52.8,84.4,49.7L84.4,49.7z M64.5,49.7c-0.3,0-0.3,0.3,0.2,0.7c0.3,0.3,0.3,0.2,0.3,0.4c-0.1,0.7,0,1.4,0.3,0.7
		c0.1-0.2,0.2-0.4,0.3-0.4c0.2,0.1,0.1,0.5,0.2,0.7c0.2,0.4,0,0.5-0.5,0.3C65,52,65,52.2,64.8,52.4c-0.3,0.4-0.3,0.6,0.2,0.5
		c0.1,0,0.2,0,0.2,0c0.2,0,0.3,0.1,0.7,0.4c0.5,0.4,1.2,0.9,1.7,1c0.8,0.1,0.6-0.2,0-0.5c-0.5-0.2-1.2-0.8-1.2-0.9
		c0-0.1,0.2,0,1.1-0.3c0.4-0.1,1-0.4,1.2-0.5c0.4-0.2,0.4-0.2,1.1-0.2c1.1,0,1.2,0,0.5-0.6c-1.5-1.1-3.6-1.9-4.6-1.4
		c-0.3,0.1-0.3,0.1-0.6-0.1C64.9,49.8,64.6,49.7,64.5,49.7L64.5,49.7z M86.3,49.8c1.1,4.1,3.1,7.7,3.6,11.6c0.1,1.1-0.1,2.2-1,3.1
		l-0.6,0c-0.1,0,0.9-1.5,0.8-2.7c0-0.7,0-1.4-0.2-2.1c-1.2-3.4-2.4-6.6-3.3-9.8L86.3,49.8z M67.2,51.2
		C67.2,51.2,67.2,51.2,67.2,51.2c0.3,0,0.3,0.2,0.2,0.3c-0.1,0.2-0.3,0.6-0.3,0.6s-0.3,0.1-0.4,0C66.6,52,67,51.2,67.2,51.2
		L67.2,51.2z M68,51.3c0,0,0.1,0,0.1,0c0.3,0.1,0.8,0.3,0.6,0.5c-0.2,0.2-1.2,0.3-1.2,0.2l0.3-0.6C67.9,51.4,67.9,51.3,68,51.3
		L68,51.3z M65,54.9C65,54.9,65,54.9,65,54.9c-0.1,0.1,0,0.3,0.2,0.5c0.8,1.1-0.3,1.5-1.2,0.9c-0.8-0.6-2-0.6-1.8,0.1
		c0.1,0.2,0,0.3,0.4,0.3c0.4,0,0.5,0,0.8,0.3c1.3,0.9,3.1-0.3,2.2-1.6C65.6,55.1,65.2,54.9,65,54.9L65,54.9z M68.3,56.6
		c-0.5,0-0.8,0.4-0.2,0.5c2.2,0.4,0.7,2.7-0.8,1.5c-1.4-1.3-3.2-1.2-3.3-0.4c0,0.2,0,0.2,0.3,0.3c0.8,0.1,1.9,0.5,2.4,0.7
		c0.3,0.1,0.5,0.3,0.6,0.3c0.9,0.3,2.1-0.1,2.3-0.9C69.9,57.9,69.8,56.6,68.3,56.6L68.3,56.6z M41,63.9c0.3,0,0.6,0.3,0.8,0.6
		c0.5,0.9,1.1,2.3,1.5,3.1c0.1,0.2,0.1,0.4,0.1,0.5c0,0.5,0.2,0.6,0.5,0.4c0.3-0.2,0.7-0.6,0.2-0.6c-0.4-0.3-0.7-0.8-0.4-1.1
		c0.2-0.2,0.1-0.4,0-0.4c-0.6,0-1.6-1.9-1.1-2.3c0.6-0.5,1.3,0.1,2.7,2.9c0.6,1.2,0.6,2.6,0.1,1.9c-0.2-0.2-0.1-0.1-0.4,0.4
		c-0.2,0.4-0.3,0.6-0.9,1.2c-0.7,0.7-1.2,1.3-1.2,1.4c0,0.2,0.4,0,0.7-0.4c0.7-0.7,0.7-0.9,0.7,0c0,0.8,0,1,0.1,1
		c0.2,0,0.4-0.7,0.5-1.4c0.1-0.7,0.5-1.1,1.1-1.5c0.2-0.1,0.2-0.2,0.1-0.5c-0.1-1,0.5-2.9,0.7-2.4c0,0.1,0.1,0.3,0.2,0.5
		c0,0.3,0.2,0.6,0.5,0.6c0.3,0.2,0.3,0.4,0.4,1.2c0,0.3,0.2,0.7,0.2,0.9c0.2,0.4,0.3,0.7,0.2,0.8c-0.1,0.1-0.2,0.2-0.2,0.2l-5.1,3
		c0,0-0.4,0.2-0.5,0.3c-0.4,0.2-0.6,0-0.8-0.3c-1.1-1.6-1.8-3.4-2.6-5.1c-0.5-1,0-1.6,0.6-0.8c0.2,0.3,0.1,0.5,0,1.1
		c0,0.1,0.1,0.1,0.3,0.1c0.3,0,0.4,0.2,0.4,0.7c-0.2,0.6,0.1,0.3,0.2,0.3c0.2,0,0.3,0.1,0.4,0.4c0.1,0.4,0.2,0.3,0.5,0
		c0.2-0.2,0.2-0.2-0.2-0.7c-0.7-0.8-1.7-2.5-1.9-3.5c-0.1-0.3,0-0.5,0-0.7c0.3-0.7,0.8-0.7,1.2,0.3c0.1,0.2,0.2,0.4,0.4,0.6
		c0.2,0.3,0.3,0.5,0.3,0.9c-0.1,0.4-0.2,0.4,0,0.4c0.3,0.1,0.8,0.7,0.9,1.2c0,0.5,0.1,0.8,0.5,0.5c0.4-0.3,0.3-0.5-0.2-0.9
		c-0.5-0.6-0.5-1-0.2-1.4c0-0.1,0-0.2-0.1-0.2c-0.5,0.1-1.1-0.6-0.7-1.1c0.2-0.3,0.2-0.4-0.1-0.4c-0.1,0-0.3,0-0.4,0
		c-0.2-0.3-0.5-0.7-0.5-1.1C40.5,64.1,40.7,63.9,41,63.9L41,63.9z M73,63.9c0.9,0.5,1.8,1.1,2.8,1.4c-2.3,4.2-6,6.4-9.1,7.2
		c0.1,0.5,0.2,1.1,0.7,1.4c0-0.1-0.2-1-0.2-1.2c4.3-1.1,8-5.3,9-7.4l18.8-0.2C81,78.4,80.4,97.2,91.8,113l-1.3,0.8
		c-8.8-13.1-8.7-25.7-6-34.2c1.9-6,5.2-10.6,7.7-13.2c0,0-10.2-0.1-15.2,0c-0.7,1.1-1.4,2-2.4,3.1c0,0,2.6-2.5,2.5-2.9
		c4.7,0,9.5-0.3,14.2,0.1c-5.5,6.6-8.2,13.3-8.7,19.7c0,0.8-0.1,0.4-0.3,0.7l-0.9,1.3L80.7,87c-0.5-0.2-1.4,0.1-1.8,0
		c-1.9,8.6,0,19,2.6,25.8c0,0-0.6,0.4-1.4,0.3c-0.9-0.2-1.1,0-1.8,0.2c-0.9,0.2-1.2,0.2-1.3,0.4c-0.1,0.1-0.3,0.3-0.5,0.4
		c-2.1,0.8-4.5,3.6-4.5,3.6l-2.3-1c2.1-4.2,4.6-5.6,9-7.5l-0.4-1.9c-4.6,1.7-7.6,3.8-9.9,7.8c-2.8,0-14.3-0.1-14.3-0.1
		c4.7-5.3,8.4-13.3,8.8-19.6c0.1-1.2-0.1-0.6,0.5-1l0.8-1l0.7,1c0,0,0.5,0.6,0.8,0.1c0.9-8.7,0-18.7-4.3-25.6c0.7,0,1.5-0.1,2.2,0.4
		c1.6,3.7,2.6,8.3,3,11.8c0.5,4.4,0.5,9.3-0.1,13.5l0.3,0c0.8-5.4,0.5-11.2-0.2-16.3c-0.4-2.6-1.6-6.8-2.5-8.7
		c-0.2-0.5-0.4-0.7-0.2-0.7C68.8,68.4,71.1,66.7,73,63.9L73,63.9z M58.8,64.4c0.4,0,0.7,0.3,0.7,0.7s-0.3,0.7-0.7,0.7
		c-0.4,0-0.7-0.3-0.7-0.7S58.4,64.4,58.8,64.4L58.8,64.4z M97.3,64.8c-1.5,1.4-2.7,2.8-4,4.3c3.7,5.1,7.9,10.7,11.4,15.2
		c0,0,1.2-0.7,1.2-0.8c0,0-0.1-0.3-0.1-0.2c-0.1,0.1-1,0.6-1,0.6L93.7,69.3c0,0,0.6-0.7,0.8-0.9c0.9-0.3,3.3-3.3,3.4-3.2
		c1.9,1.4,7.5,7.5,9.7,9.4l0,16.9c-0.2,0.7-6.3,3.3-10.5,13c-2.1,1.2-4.5,1.8-6.7,2.9c0,0,0.6,0.9,0.8,1.1c-0.3-0.7-0.4-0.9,0.4-1.2
		l15.9-6.5l0,1.3l-0.3,2.3c-4.3,2.7-8,3.8-14,7.8c-0.4,0.1-0.8,0.5-1.2,0.5c-15.3-22.5-5.5-39.4,3.4-47.9L97.3,64.8z M47.6,65.9
		c0.4,0,0.3,1,0.2,1.3c-0.3,0.2-0.6,0-0.6-0.4c0-0.1,0-0.3-0.1-0.3C46.9,66.3,47.2,65.9,47.6,65.9L47.6,65.9z M56.9,66.5
		c0.4,0.3,0.5,0.6,0.6,1c-0.5-0.1-1.7-0.4-1.1-0.7L56.9,66.5z M54.6,67.8c11,16.6,10.5,34.3-1.8,47.7l15.5,0c2-3.9,5.3-6.3,9.5-7.7
		l0.4,1.2c-4.8,1.6-7.3,4.1-9.2,7.7H50.5c7.1-7.7,10.4-14.1,10.9-22.9c0.5-8.3-1.6-15.9-8.1-25.1L54.6,67.8z M57.7,68l2.6,1.2
		l-0.4,2.7l-2.7-1.3L57.7,68z M53,68.7c13.9,21,7.9,35.8-3.2,48l-2,0l-4.8-4.4l0.1,26.9c0,0-4.6,4.5-5.2,5.1
		c-0.5,0.5-0.9-0.3-0.9-0.3l0-35.6l0.2-1.4l0.1-7.7l3-1.6l11.1,14.5c0,0-0.4,0.7-0.7,0.8c-0.1,0.1,0,0.2,0.1,0.2c0.3,0,1.2-1,1-1.2
		c-4-5-11.5-14.7-11.5-14.7L37.2,99c0,0,0.1-6.4,0-8.8c0.1-0.6,0.6-0.4,0.8-0.7c3.6-2.3,6.1-5.1,7.7-7.8c0.1-0.2,0.8-1.4,0.9-1.5
		c0.2-0.4,0.8-1.6,1.2-2.4c0.2-0.4,0.4-1,0.5-1c2.2-0.7,4.4-1.7,6.6-2.6l-3.1-4.7L53,68.7z M44.5,69c-0.1,0-0.4,0.1-0.8,0.5
		c-0.7,0.7-1.7,1.8-1.7,2c0.2,0.1,0.4,0,0.5-0.2c0.6-0.9,1.6-1.3,2.1-2.1C44.8,69,44.7,69,44.5,69L44.5,69z M51.5,70
		c0,0,2.2,3.1,2.7,4c-5.7,2.2-11.6,5.2-16.9,7.1v-1.3l0.8-2.3L51.5,70z M60,72l2.1,1.1l-0.6,2.4l-2.1-1.2L60,72z M61.7,76l1.7,1.3
		l-0.8,2l-1.8-1.2L61.7,76z M47.5,77.5c0,0-0.3,0.9-0.7,1.8c-2.2,3.7-4.3,7.1-8.6,10c-0.2-0.1-0.6-1-0.6-1l0-1.1
		c2.3-1.9,4.3-3.2,7.4-8.7l0.9-0.4l0.8,0.3l0.5-0.9L47.5,77.5z M56.6,77.5c-2,4.3-4,8.7-7.2,12l8.8,12.2C61,93.1,59.9,85,56.6,77.5
		L56.6,77.5z M45.5,78.4l-0.4,0.7l0.7,0.4l0.4-0.7L45.5,78.4z M44.3,78.5c-1.6,3.5-4,6.3-7.1,8.2l-0.1-5.2L44.3,78.5z M44.9,79.6
		l-0.4,0.7l0.7,0.4l0.4-0.7L44.9,79.6z M62.8,79.7l1.6,1.5l-0.9,1.7l-1.6-1.3L62.8,79.7z M87,80.5C87,80.5,87,80.5,87,80.5
		c-2.8,8.6-1.9,16.9,1.9,24.1c1.9-4.7,3.4-7.8,7.1-12.7C93.7,88.9,87.2,80.4,87,80.5L87,80.5z M44.3,80.6l-0.4,0.7l0.7,0.4L45,81
		L44.3,80.6z M56.4,81.6c2.5,6,2.3,11.4,1,16.1l-6.3-7.9C53.4,86.9,54.9,84.2,56.4,81.6L56.4,81.6z M43.6,81.6l-0.5,0.7l0.7,0.5
		l0.5-0.7L43.6,81.6z M42.9,82.6l-0.5,0.7l0.7,0.5l0.5-0.7L42.9,82.6z M63.5,83.3l1.4,1.3l-0.9,1.7l-1.4-1.3L63.5,83.3z M42.1,83.7
		l-0.5,0.6l0.6,0.5l0.5-0.6L42.1,83.7z M87.8,83.9l6.3,8.1c-2.1,2.5-3.9,5.5-5.4,8.7C86.9,95.1,86.1,89.7,87.8,83.9L87.8,83.9z
		 M41.2,84.7l-0.6,0.6l0.6,0.6l0.6-0.6L41.2,84.7z M56,85.5l-2.9,4.2l3.3,4.2C56.7,91.6,56.8,88.9,56,85.5L56,85.5z M40.3,85.6
		l-0.6,0.6l0.6,0.6l0.6-0.6L40.3,85.6z M39.4,86.4L38.7,87l0.5,0.7l0.7-0.5L39.4,86.4z M64,86.9l1.2,1.4L64,89.7l-1.1-1.3L64,86.9z
		 M79.1,87.1l0.8,0c-1.3,13,1.3,19.6,3.6,25.3c0,0,0,0.2-0.1,0.3c-0.4,0.1-1.1,0.3-1.7-0.3C78.6,104.6,77.9,94.8,79.1,87.1
		L79.1,87.1z M38.3,87.3l-0.7,0.5l0.5,0.7l0.7-0.5L38.3,87.3z M88.8,87.8c-0.2,0-0.4,5.4,0.4,8l2.9-3.9L88.8,87.8z M81.3,88.6l1,1.3
		l-1,1.4L80.2,90L81.3,88.6z M37.5,89c0,0,0.1,0.1,0.3,0.2c0.1,0.2,0.1,0.1,0,0.3c-0.3,0.2-0.3,0.2-0.3-0.1
		C37.5,89.1,37.5,89,37.5,89L37.5,89z M64.1,90l1.1,1.5L64,93l-1-1.6L64.1,90z M81.2,91.9l1.1,1.4l-1,1.5l-1.2-1.4L81.2,91.9z
		 M107.3,92.2l0.1,1.6l-0.4-0.6l-0.7,0.5l0.5,0.7l0.6-0.5l0,0.6c-4,2.9-5.7,6.2-7.3,8.7l-0.7,0.3l-0.8-0.3l-0.4,0.7l-0.7,0.2
		c0,0,1.4-3,3.8-6.1C103.5,95.3,107.3,92.2,107.3,92.2L107.3,92.2z M107.8,94.7l0,5.6l-7.1,2.8C102.6,99.9,104.7,97,107.8,94.7
		L107.8,94.7z M106,94l-0.7,0.5l0.6,0.6l0.6-0.5L106,94z M105,94.8l-0.6,0.6L105,96l0.6-0.6L105,94.8z M81.3,95.2l1.3,1.4l-1,1.7
		l-1.4-1.3L81.3,95.2z M104,95.8l-0.6,0.6l0.6,0.6l0.6-0.6L104,95.8z M103.1,96.7l-0.6,0.6l0.7,0.6l0.6-0.6L103.1,96.7z M102.2,97.8
		l-0.5,0.7l0.7,0.5l0.5-0.7L102.2,97.8z M81.7,98.8l1.7,1.1l-0.8,2l-1.7-1.3L81.7,98.8z M101.4,98.8l-0.5,0.7l0.8,0.5l0.5-0.7
		L101.4,98.8z M100.6,99.9l-0.5,0.7l0.8,0.5l0.5-0.7L100.6,99.9z M99.9,100.9l-0.4,0.7l0.8,0.5l0.4-0.7L99.9,100.9z M99.3,102
		l-0.4,0.7l0.9,0.4l0.3-0.7L99.3,102z M82.6,102.5l1.7,1.2l-0.8,2.1l-1.8-1.3L82.6,102.5z M107.5,104.6l0.1,43l-18.9,0.1
		c0,0-0.9-1.6-2.7-5.2c-0.8-1.5-1.4-2.2-1.5-3.4c0.1-0.7-0.3-1.5-0.8-1.8c-0.2-0.1-0.5,0-0.4-0.3c0.1-0.3-0.2-0.8-0.3-1
		c-0.1-0.2,0-0.2-0.1-1c0-0.7,0-1-0.2-1.5c-0.4-1.3-0.5-2-0.2-2.7c0.6-1.7,1.1-3.1,1.9-4.7c0.4-0.9,0.4-1.3-1-2
		c-1-0.5-1.1-0.5-1-1.3c0.1-0.4,0.1-0.6,0-0.7c0-0.1-0.2-0.3-0.3-0.3c-0.1-0.1-0.1-0.3,0-0.5c0.1-0.2,0.1-0.4,0-0.8
		c-0.3-0.8,0.3-2,1.5-2.7c0.5-0.3,0.5-0.3,1,0.3c1.6,1.7,3.9,0.6,3.9-1.7c0-0.7-0.2-0.7,0.4-1c2.3-1.5,7.2-4.2,7.1-4.1
		c0.3,0.6,0.4,1.2,0.6,1.9c0.2,0.6,0.1,0.6,0.1,1.8c-0.1,1-0.1,1.3,0.2,1.3c1.4,0.2,1.7-0.3,2-1.2c0.1-0.4,0.3-0.3,0.5-0.1
		c0.5,1,1.2,2,1.6,2.6c0.5,0.9,1.5,1.3,2,0.9c0.1-0.3,0.2-0.3,0.8-0.2c0.7,0.2,1.2-0.2,1.2-0.8c0-0.2-0.1-0.2,0.3-0.4
		c1-0.7,0.6-1.7,0.5-2.3c0,0,0.4-0.2,0.4-0.8c0-2.9-2.5-7.1-2.4-7L107.5,104.6z M83.6,106.2l2,1l-0.5,2.4l-2.1-0.9L83.6,106.2z
		 M103.2,107.1c1.2,1.3,2,3.6,2.4,5c0.2,0.7,0.2,1.6,0,1.7c-0.2,0.1-0.3,0-0.2-0.4c0-0.4,0-0.6-0.1-0.6c-0.4,0.1-0.5-0.6-0.4-0.7
		c0-0.1,0.1-0.2,0.1-0.2c0.1-0.3-0.2-0.2-0.5-0.2c-0.3,0-0.3-0.2-0.3-0.4c0-0.3-0.4-0.2-0.6,0c-0.2,0.2-0.2,0.4,0.1,0.6
		c0.4,0.2,0.7,0.8,1.6,2.7c0.5,1.1,0.4,1.9-0.2,1.9c-0.4,0-0.9-1.2-1.3-2c-0.1-0.2,0.2-0.5,0.2-0.6c0.2-0.3,0.2-0.4-0.1-0.4
		c-0.3,0-0.5,0-0.6-0.4c-0.1-0.1-0.1-0.4-0.1-0.5c0.2-0.4-0.2-0.5-0.5-0.4c-0.4,0.2-0.4,0.5,0.2,1.1c0.4,0.7,0.3,0.6-0.1,1.1
		c-0.1,0.2,0,0.3,0.1,0.3c0.5-0.2,1,0.7,0.9,1c-0.2,0.1-0.6,0.6-0.2,0.5c0.8-0.2,1.3,1,0.8,1.4c-0.7,0.4-0.9,0.2-2-1.9
		c-0.3-0.7-0.7-1.4-0.8-1.5c0-0.1-0.1-0.3-0.1-0.4c0-0.4-0.1-0.5-0.5-0.3c-0.3,0.1-0.5,0.3-0.2,0.5c0.4,0.7,0.5,0.8,0.3,0.9
		c-0.5,0.4-0.3,0.4,0.3,0.5c0.3,0.1,0.4,0.2,0.5,0.4c0.3,0.6,0.8,1.5,0.8,1.7c0.2,0.5-0.1,0.7-0.5,0.6c-0.4,0-0.6-0.3-0.8-0.6
		c-0.8-1.1-1.3-2.1-2.1-3.3l0.1-1.1c0,0,0.2,0,0.3,0c0.2-0.1,0.4-0.5,0.5-0.9c0.2-0.4,1.4-1.3,1.9-1.8c0.1-0.1,0.2-0.1,0.2-0.2
		c0-0.2-0.5-0.1-0.9,0.3c-0.5,0.4-0.7,0.3-0.7-0.3c0-0.7-0.5-0.3-0.5,0.3c-0.1,0.5-0.2,0.9-0.6,1.2c-0.7,0.6-0.6,0.4-0.6,1.2
		c0.1,1.4-0.5,2.5-0.8,1.8c-0.1-0.3-0.3-0.6-0.6-0.6c-0.2,0-0.3-0.2-0.5-0.8c-0.2-0.9-0.4-1.4-0.7-2.2L103.2,107.1z M85.4,110.1
		l2.3,0.9l-0.4,2.4l-2.3-0.9L85.4,110.1z M103,110.3C103,110.3,103,110.3,103,110.3c-0.7,0.5-1.3,1.1-2,1.5
		c-0.3,0.2-0.6,0.6-0.6,0.7s0.3,0.1,0.6,0c0.3-0.1,2-1.7,2-1.8C103.2,110.5,103.2,110.3,103,110.3L103,110.3z M81.8,113.3
		c0.5,0,0.2,0.2-1,1c-1.2,0.8-3.1,3.4-3.3,4.3c-0.1,0.4,0.2,0.5,0.5-0.1c1.4-2.7,4.1-5.2,6.5-5.1c1.2,0.1,1.8,0.4,0.9,0.5
		c-2.7,0.3-4.8,1.9-6.5,5c0,0.1,0.2,0.1,0.3-0.1c1.6-2,3.5-4.6,6.7-4.4c2.3,0.1,3,2.9,1.1,3.9c-1.7,0.8-3.2-1.2-1.8-2.4
		c0.5-0.4,0.7-0.2,0.3,0.2c-0.9,0.8,0.2,2.4,1.4,1.8c0.7-0.3,1-1.3,0.4-2c-1.4-1.7-4.3-0.4-6.3,2.3c-0.2,0.3-0.4,0.9-0.2,0.8
		c0.3-0.1,0.5-0.4,0.7-0.7c0.7-1,1.3-1.5,2.3-2.1c0.8-0.4,0.8-0.3,0.5,0.4c-0.1,0.3-0.2,0.4-0.5,0.6c-1.2,0.8-2,2-2,2.7
		c0,0.5,0.4,1.2-0.1,1.4c-0.7,0.3-2.7,0.1-3.2-0.6c-0.4-0.5-0.5-0.2-0.2,0.6c0.2,0.5,0.2,0.8,0.5,0.8c0.4-0.2,0.6-0.1,1.3,0.2
		c0.3,0.2,0.9,0.4,1.3,0.4c0.7,0.2,0.8,0.1,0.8,0.4c0,0.1,0,0.3,0,0.5c-0.1,0.9,0.6,1.1,1.6,1.7c0.6,0.3,0.3,0.7-0.3,2.3
		c-0.3,0.7-0.6,1.7-1.1,2.5c-0.4,0.8-0.4,1.8-0.2,2.8c0.5,1.9,0.8,2.9,0,3.1c-2.2,0.3-7,0.3-9.6-0.7c-0.7-5-4.2-12.5-3.8-14.4
		c0.9,1.4,4.7,1,3.6-2.8c0,0,0.3-0.5,0.9-1.1c1.6-1.6,2-1.9,1.2-0.5c-0.6,1.1-1.3,2.5-1.3,2.8c0,0.2,0.2,0.3,0.3,0.1
		c0.1-0.1,0.2-0.4,0.3-0.7c1-2.2,2.6-4.2,3.7-4.7c0.3-0.1,0.3,0,0.1,0.3c-1.3,1.6-2.3,3.2-3,5.1c0,0.2,0.3,0.3,0.4,0.1
		c1.2-2.6,1.6-3.2,3.1-5c0.6-0.7,1.2-1.1,1.6-1c0.4,0,0.3,0.1-0.1,0.5c-0.3,0.3-0.7,0.7-1.3,1.5c-1.1,1.4-2.3,3.8-1.9,3.7
		c0.1,0.2,0.4-0.4,0.7-1c0.8-1.4,1.7-3.3,3.7-4.5C80.9,113.4,81.4,113.3,81.8,113.3L81.8,113.3z M43.4,113.7l3.5,3.5l7.1-0.1
		c-1.2,1.8-0.5,4.6,0.1,6.3c1.3,3.2,3.1,8.6,3,8.7c0,0-1,0.3-1.1,0.9c-0.1,1,0.3,0.9-0.3,1.8c-0.1,0.2,0,0.6,0.1,0.9
		c0.1,0.2,0.2,0.5,0,0.8l-6.3,11.2l-11.9,0.1v-2.2l6-6l-0.1-4.4c3.3,1,4.4,4.3,4.6,6.8c5.9-5.4,5.7-13.4,0.2-18.5
		c-1.1,5.4-5,6.5-4.9,6.4L43.4,113.7z M87.6,114.4c0.4,0,0.9,0.1,1.2,0.3c-0.2,0.1-0.4,0.3-0.6,0.5
		C88.1,114.8,87.9,114.6,87.6,114.4L87.6,114.4z M97.5,114.4c0.3,0,0.7,0.9,0.5,1.1c-0.1,0.1-0.5,0.2-0.7,0.1
		C97.1,115.5,97.2,114.4,97.5,114.4L97.5,114.4z M86.3,116c0.4,0,0.7,0.3,0.7,0.7c0,0.4-0.3,0.7-0.7,0.7s-0.7-0.3-0.7-0.7
		C85.5,116.3,85.8,116,86.3,116L86.3,116z M55,117.1l0.5,0c-1,1.3-1.1,2.4-0.8,4c0.4,1.8,3.3,8.7,3.5,10.5c0,0.1,0,0.3,0,0.3l-0.7,0
		c0,0-0.1-0.2-0.1-0.3c-1-3.4-2-6-2.7-8C54.1,121.6,53,118.4,55,117.1L55,117.1z M58.9,117.1C58.9,117.1,58.9,117.1,58.9,117.1
		l0.5,0c0,0-0.8,1.6-0.8,2.6c-0.1,1.1,0.2,2.3,0.6,3.5c0.9,2.6,2.1,5.4,2.8,8.6c0,0,0.1,0.3,0.1,0.3l-0.8-0.1c0,0-0.1-0.3-0.1-0.4
		c-0.5-2.8-2-5.8-2.9-8.6c-0.4-1.3-0.8-2.8-0.6-4C57.9,118.2,58.7,117.1,58.9,117.1L58.9,117.1z M65.1,117.1c-0.5,0.8-1,1.9-1.1,2.7
		c0,1.5,0.4,2.8,0.9,4.2c1.4,4.2,2,6.4,2.7,9.7l-0.7-0.3c0,0,0-0.2,0-0.2c-0.4-2.1-0.4-1.9-2.7-9c-0.5-1.7-1.1-3.2-0.9-4.6
		c0-0.8,0.7-2.4,1.5-2.5L65.1,117.1z M65.9,117.1h0.7c0,0-0.4,0.4-0.5,0.5c-1.2,1.7-0.8,3.4-0.3,5.5c0.8,2.9,2.3,6.2,3.1,10.6
		c0,0.1,0,0.5,0,0.5l-0.8-0.3c-0.7-4.1-2.6-8.3-3.4-11.9c-0.5-2.1-0.4-3.5,0.8-4.7C65.9,117.1,65.9,117.1,65.9,117.1L65.9,117.1z
		 M57.6,117.1h0.5c0,0-0.9,1.4-0.9,2.2c-0.1,1.5,0.4,3.1,1,4.8c0.9,2.6,2.2,5.8,2.6,7.5c0,0.1,0.1,0.4,0.1,0.4l-0.9,0
		c0,0,0-0.4-0.1-0.6c-1-3.6-2-5.9-3.2-9.2c-0.2-0.5-0.5-2.5-0.1-3.7C56.9,117.4,57.6,117.1,57.6,117.1L57.6,117.1z M56.3,117.1
		l0.5,0c0,0-0.1,0.1-0.3,0.5c-1,1.8-0.6,3.5,0.1,5.3c0.8,2.5,2.1,5.5,2.9,8.3c0,0.2,0.1,0.6,0.1,0.6l-0.8,0c0,0-0.2-0.6-0.2-0.6
		c-0.4-2.6-2.9-7-3.5-10.4C54.8,119.1,55.1,118,56.3,117.1L56.3,117.1z M63.6,117.1c0,0-0.9,1.5-0.9,2.3c-0.2,1.6,0.4,3,1,4.9
		c1,3.2,2.5,7,2.6,8.7c0,0.1,0,0.3,0,0.3l-0.9-0.3c0,0,0-0.2-0.1-0.2c-0.8-3.1-1.7-6.2-2.9-9.7c-0.3-1.2-0.7-2.4-0.7-3.4
		c0.2-1.3,0.4-1.7,1.2-2.5L63.6,117.1z M67.6,117.1l0.7,0c0,0-0.2,0.1-0.7,0.7c-2.8,2.6,1.8,9.9,2.8,16.6c0,0.1,0,0.3,0,0.3
		l-0.8-0.3c-0.1-0.3-0.1-0.7-0.2-1.1c-0.9-3.4-2-6.9-3.1-10.1c-0.6-2.3-0.8-4.4,0.3-5.5C66.9,117.3,67.6,117.1,67.6,117.1
		L67.6,117.1z M60.1,117.1l0.8,0c-0.6,0.7-0.9,1.8-0.9,2.7c0,1.1,0.3,2.2,0.6,3.4c0.8,2.4,1.9,5,2.6,8.3c0,0.2,0.1,0.4,0.1,0.4
		c0,0.1,0.1,0.4,0.1,0.4l-0.8-0.2c0,0-0.1-0.2-0.1-0.3c-0.1-0.2-0.2-0.4-0.2-0.6c-0.4-1.7-1.8-5.5-2.7-8.2
		C58.9,121.3,58.7,118.4,60.1,117.1L60.1,117.1z M69.7,117.1c1,0,1.9,0.8,2.1,1.6c0.2,0.8-0.1,1.8-1,2.2c-1.5,0.8-3.1-1.2-1.9-2.3
		c0.9-0.8,2.2-0.2,1.9,0.9c-0.2,0.7-1.2,0.7-1.4,0c0-0.2-0.2-0.5-0.2-0.3c-0.5,1.3,1.3,1.9,2,0.7c0.5-1-0.4-2.2-1.7-2
		c-1.7,0.3-1.9,2.5-1.2,5.1c1,4.1,3.4,9.5,3.4,12c0,0,0,0.1,0,0.1l-0.8-0.2c0,0,0,0,0-0.1c-0.5-3.5-3.1-9.3-3.8-13.7
		c-0.3-2,0.5-3.5,2.2-3.9C69.5,117.2,69.6,117.1,69.7,117.1L69.7,117.1z M62.2,117.2c-0.5,0.7-0.9,1.8-0.9,2.5
		c0,1.1,0.4,2.2,0.7,3.4c0.8,2.9,2.8,8.2,2.7,9.2c0,0.1,0.1,0.4,0.1,0.4l-0.8-0.2c0,0,0,0-0.1-0.2c-0.3-1-1.5-5.2-2.8-8.9
		c-0.5-1.5-0.8-2.6-0.7-3.6c0.1-1.3,0.5-1.9,1.1-2.7L62.2,117.2z M76.6,121.9c-2,0.1-1.8,2.5-0.6,2.9c0.4,0.1,0.7,0,0.8-0.1
		c0.1-0.1,0-0.3-0.3-0.3c-0.8-0.3-1.1-1.2-0.4-1.7c0.4-0.2,1.1-0.1,1.8,0.5c1.4,1,3.1,1.1,2.9,0.1c-0.1-0.3-0.2-0.3-1.2-0.4
		c-0.8-0.1-1.2-0.4-1.6-0.6C77.6,122.1,77.1,121.9,76.6,121.9L76.6,121.9z M48.5,124.2c5.1,5,4.3,12.7,0,16.6
		c-0.1-0.3-0.3-1.1-0.3-1.1c3.3-3.4,4.8-9,0.1-14.7C48.3,125.1,48.4,124.7,48.5,124.2L48.5,124.2z M80.3,124.3c0,0-0.1,0-0.1,0
		c-1.3,0.4-1.6,1.7-0.7,2.2c0.5,0.3,0.9,0.1,0.3-0.3c-0.6-0.3-0.3-1.2,0.4-1.2c0.3,0,0.5,0.1,1.2,0.7c0.6,0.5,1.2,0.5,1.3-0.1
		c0.1-0.4,0-0.5-0.4-0.4c-0.2,0-0.3-0.1-0.5-0.2C81.2,124.6,80.7,124.3,80.3,124.3L80.3,124.3z M48,125.3c4.6,5.3,3.1,10.9,0,14.1
		c-0.8-2.5-2.9-4.1-2.9-4.1c0.8-1.7,1.2-3.5-0.2-5.8C46.2,128.2,47.4,126.9,48,125.3L48,125.3z M77.7,127.2c-0.2,0-0.1,0.2,0.4,0.6
		c1.2,0.8,1.3,1,0.1,0.9c-0.3,0-0.8,0.2-1,0.3c-1.5,0.5-1.6,0.5-2.3,0.3c-0.2-0.1-0.5-0.2-0.6-0.1c-0.2,0.2-0.4,0.2-0.1,0.5
		c0.2,0.2,0.4,0.3,0.8,0.5c1.8,1,1.9,1.3,4,1.3c0.2,0,0.4-0.1,0.5-0.1c0.3,0,0.5,0.1,0.9,0.4c0.6,0.6,0.7,0.2,0.3-0.6
		c-0.2-0.4-0.4-0.5-0.3-0.8c0.2-0.7-0.1-0.8-0.5-0.2c-0.3,0.5-0.3,0.5-0.6-0.1c-0.4-0.8-0.2-1.1,0.4-0.6c0.4,0.4,0.6,0.1,0.7-0.2
		c0.2-0.4,0.2-0.7-0.2-0.7c-0.2,0-0.5-0.1-0.6-0.3C79.1,127.8,78.4,127.3,77.7,127.2L77.7,127.2z M78.2,129.3
		C78.3,129.3,78.3,129.3,78.2,129.3c0.1,0.3-0.1,0.8-0.2,1.1c0,0.1-0.1,0.1-0.2,0.2c-0.4,0.1-0.4,0-0.3-0.3
		C77.6,129.9,77.7,129.4,78.2,129.3C78.2,129.3,78.2,129.3,78.2,129.3L78.2,129.3z M77.3,129.5c0.1,0,0.2,0,0.1,0.2
		c-0.1,0.2-0.3,0.4-0.4,0.6c-0.3,0.2-0.8-0.4-0.6-0.5C76.7,129.6,76.9,129.5,77.3,129.5C77.2,129.5,77.3,129.5,77.3,129.5
		L77.3,129.5z M44.5,129.8c0.1,0,0.2,0,0.2,0c1.1,1.5,1,3.8,0.2,5c-0.1,0.1-0.1,0.1-0.2,0.1c-0.4-0.2-0.8-0.3-1.2-0.4v-4.4
		C43.9,130.1,44.2,129.8,44.5,129.8L44.5,129.8z M73.7,130.2c-0.1,0-0.1,0.1,0,0.2c1.6,1.2,3.8,2.5,5.9,2c0.2,0,0.3-0.1,0.3-0.3
		c0-0.1-0.2-0.2-0.5-0.2c-0.5,0.1-1.4,0.1-1.7,0.1c-1.4-0.2-2.7-1.1-3.7-1.7C73.8,130.2,73.8,130.2,73.7,130.2L73.7,130.2z
		 M73.2,131.3c-0.1,0-0.1,0.1,0,0.2c0.2,0.7,2.5,2.3,4.3,2.8c1.6,0.4,3.8,0,3.6-0.7c-0.1-0.4-0.4-0.5-1.3-0.4
		c-2.2,0.4-4.3-0.5-5.9-1.5C73.5,131.5,73.3,131.3,73.2,131.3L73.2,131.3z M59,132.2c0.9,0,1.9,0.1,2.9,0.2c2,0.3,4.3,1,6.2,1.9
		c3.3,1.2,7.5,2.2,11,2.1c0.9,0,2.4,0,2.7-0.1c0.8-0.2,1,0,1.2,1c0,0.2,0.1,0.3,0.4,0.5c0.4,0.3,0.3,0.6,0.3,1.2
		c0,0.5,0.3,0.8,1.5,3.2c1.4,2.7,2.9,5.8,2.9,5.8c-12.7,0-24.8-0.5-37.8-0.1c1.2-2.8,4.4-7.8,6.4-11.8c-0.5-1.2,0.1-1.4-0.1-1.7
		c-0.4-0.7-0.1-1.6,0.7-1.9C57.8,132.3,58.4,132.2,59,132.2L59,132.2z M59,132.2"/>
	<path fill="#E2CF00" d="M50.4,147.8c0,0,4.2-8.4,5.9-10.9c2.5-3.2,13.9,1.4,19.6,2.5c2.3,0.4,7.6,0.2,7.6,0.2l4.5,8L50.4,147.8z
		 M41.8,138.3l-0.2-26.2l1.3,0.8l0.3,26.3l-5.6,5.4l0-1.6L41.8,138.3z M45.2,135.3c1.3-2.7-0.2-6-0.2-6c0.8,0.2,2.9-3.9,3.1-3.8
		c3.3,4.1,3.9,10.1-0.2,13.9C47,136.7,45.2,135.3,45.2,135.3L45.2,135.3z M47.6,116.7c2.5-2.6,4.5-4.6,6.5-7.5
		c0.2-0.2-10.6-14-10.5-14.2c1.7-1.8,3.9-3.2,5.6-5.4c0,0,8.9,11.6,9.1,11.5c0.9-3.6,1.6-6.9,1.4-10.7c-0.5-9.7-4.7-15.7-4.7-15.5
		c-1.4,8.9-15.2,22.4-17.9,21.5l0-6.2c0.2,0.3,8.7-5.5,11-13.2c0.2-0.6,6.8-2.7,6.8-2.8c-0.3-0.7-3.2-4.8-3.2-4.8s1.2-0.5,1.3-0.5
		c3.8,4.7,6.6,10.9,7.6,16.7c1.2,6.3,1.9,18.2-10.8,31.3L47.6,116.7z M85.7,100.3c-2-6.2-1.9-12.6-1-17c1.4-8.1,6.5-13.9,10.6-18.3
		h1.8c0,0-2.1,2.2-2.9,3c-1.3,1.5-3.2,4.7-3.2,4.7l10.6,13.9l6-1.3c0,0-0.2,6.2,0,6.2c-4.7,3.9-8.1,7.4-10.5,13.1
		c-1.5,0.5-6.4,2.7-6.4,2.7c-2.3-0.6,7-15.2,5.2-15.4c-0.7-0.6-8.8-11.5-9-11.5c-3.7,11.4-0.1,23.4,6.5,31.7
		c-0.7,0.5-1.4,0.9-1.4,0.7C89.2,108.9,86.8,104.3,85.7,100.3L85.7,100.3z M66.4,94.6c0.4,0.6,2.3-13.9-2.7-25.5
		c0.5-0.4,4.6-1.1,4.6-1.1l1.1,3.5l-2.8,1.2l0.5,1.6c2.2-1.1,6.9-2.6,9.7-7.4c0,0,14-0.1,14.3-0.1c0.3,0-2.9,3-5.8,9.2
		c-1.4,2.8-2.4,6.4-2.7,10.6c0,0.8-3.2-3.9-3.2-3.9c0.8-4,2.9-8,5-12c0,0-3.2-0.2-5.5-0.1c-3.5,3.8-5.7,5.8-11,7.7
		c1.9,6.2,13.7,9.1,11.1,8.6c-0.5-0.1-1.2,5.7-0.6,12.2c0.1,5.2,2.9,13.9,3,13.9c0,0-1.9,0.4-2,0.1c0.3-0.1-2.8,0.7-2.8,0.7
		l-1.1-3.2l3-1.4l-0.5-1.8c0,0-6.6,2-9.9,7.8l-14.5,0c5.6-6.1,7.9-12.1,9.1-20C63.9,95.2,66.4,94.6,66.4,94.6L66.4,94.6z M102,42.3
		c1.8-1.5,5.5-5.5,5.5-5.5l0,2l-4.2,4.3l0,26.6l-1.4-1.3L102,42.3z M100.1,52c-0.7,0.4-2.2,2.1-2.9,4.1c-4.8-4.3-2.8-12.2-0.2-13.8
		c0.8,1.7,3,4,2.9,4C99.4,48.1,99,49.9,100.1,52L100.1,52z M57.5,34.2l37.1,0.1c-2.1,4.2-4.1,7.5-6.3,11.6c-1.2,1.4-26.5-4.6-26.6-4
		L57.5,34.2z M57.5,34.2"/>
	<path fill="#D40000" d="M109.8,155.1v-1.2h1.2l2.9-4.4l-3-7h-1.2v-1.4h4.4v1.4h-1.5l2.3,5.4l1.5-2.2l0-3.3h-1.1v-1.4h4v1.4h-1.4
		l0.1,11.4h1.2v1.2h-3.8v-1.2h1l-0.1-5.4l-3.5,5.4h1.2v1.2H109.8z M95.9,147.1c-2.4-4.7-5.5-9-9.1-12.7c3.6-3.9,6.5-7.9,9.1-12.3
		c2.6,4.4,5.5,8.5,9.5,12.5C101.4,138.5,98.4,142.8,95.9,147.1L95.9,147.1z M37.5,142.5l-0.2-35l4.2,4.1l0.3,26.9L37.5,142.5z
		 M110.5,132.8c1.5-1.6,2.9-3.4,4.1-5.4c1.4,2.1,3,4.3,4.3,5.4c-1.4,1.6-2.8,3.5-4.1,5.5C113.6,136.5,112.3,134.7,110.5,132.8
		L110.5,132.8z M56.8,135.7c-0.9,0.1-0.4-0.7-0.2-1.4c0.1-0.4-0.3-0.8-0.3-1c0-0.8,0.6-1.1,3.2-1.1c6.1,0.4,9.2,2.4,12.7,3.3
		c3.3,0.9,6.6,0.8,10.3,0.8c0.4,0.1,1.4,2.7,1.1,3C75.2,140.9,64.6,134.8,56.8,135.7L56.8,135.7z M71.8,117.6
		c-0.9-0.6-1.7-0.8-2.5-0.9c1.4-2.5,3.2-4.8,6-6.2l1.3,3.3C75,114.7,73.3,115.7,71.8,117.6L71.8,117.6z M54.3,109c0,0-1.2,2-2.4,3
		c-3.5-4.7-11.3-14.7-11.3-14.7L37.2,99c0,0,0-1.9,0.1-2.1c9-4.6,15.1-13.4,17.8-21.5c0,0,1.4,1.5,1.3,2.1
		c-2.4,6.5-6.6,12.9-12.7,17.8L54.3,109z M65.5,99.5l11.3,0l0.5,3.9c-4.3,1.5-7.9,4.4-11.3,7.9l-5.4-0.1
		C62.4,107.3,64.9,103.4,65.5,99.5L65.5,99.5z M107.4,82.9c0.4,1.1,0,2.3,0.1,2.3c-13.6,6.7-17.4,21.4-17.4,21.4s-1.3-2-1.2-2.4
		c7-15.6,11.7-16.1,12.6-17.8L90.8,72.6l2.4-3.3l11.5,14.9C105.8,83.7,106.5,83.3,107.4,82.9L107.4,82.9z M100.7,103.1
		c2.3-4.1,4.7-6.5,7-8.2l-0.1,5.5L100.7,103.1z M37.3,86.8l0.1-5.3l7-3C42.4,82.7,39.8,85,37.3,86.8L37.3,86.8z M68.4,82.1L68,78.3
		c4.2-1.8,8-4.3,11-7.7c3.3-0.2,5.5,0.1,5.5,0c0,0-3.1,4.5-5.1,11.7L68.4,82.1z M103.6,42.9l3.9-3.9l0.1,34.8l-3.9-3.7L103.6,42.9z
		 M69.6,71.3l-1.2-3.5c1.9-0.7,3.4-2.3,4.7-3.9c0.9,0.8,2.1,1.1,2.5,1.3C76.2,65.4,71.8,70.7,69.6,71.3L69.6,71.3z M39.8,47.4
		c4.1-4,6.8-8.3,9.4-12.5c2.3,4.7,5.6,8.7,9.1,12.7c-3.6,4-6.4,8.2-9.1,12.5C46.6,55.6,43.9,51.3,39.8,47.4L39.8,47.4z M30.2,54.4
		c-1.2-1.9-2.4-3.7-4.1-5.6c1.7-1.8,3.1-3.6,4.1-5.3c1.3,1.9,2.6,3.9,4.2,5.5C32.8,50.7,31.5,52.6,30.2,54.4L30.2,54.4z M62.4,45.1
		c0,0-0.5-0.3-0.4-0.7c0.2-0.5-0.5-1.7-0.5-1.7c8.2-2.5,20.2,4.5,27.3,3c-0.1,0.5,0,1.1-0.2,1.6c0.2,1,0.4,1-0.6,1.6
		c-5,1.4-10.3-1.6-15.1-3C68.9,44.8,65.6,45.1,62.4,45.1L62.4,45.1z M25.7,40.8v-1.5h1.4V28.1h-1.4v-1.3h3.9v1.3h-1l0.1,5.4l3.5-5.4
		h-1.4l0-1.3h4.4v1.3h-1.3l-2.8,4.4l2.8,6.8h1.3v1.5h-4.4v-1.4l1.6,0l-2.3-5.3l-1.6,2.2v3.1h1.1v1.5H25.7z M25.7,40.8"/>
	<path fill="#100F08" d="M57.1,33.7l1.5,2.8l-0.3,0.2c0.4,0.7,0.8,1.4,1.2,2.1l0.3,0c0.5,0.9,0.7,1.3,1.3,2.4l-0.3,0
		c0.1,0.5,0.5,0.8,0.5,1.2c0,0.4-0.1,0.9,0.2,1.2c0.3,0.4,0.4,0.5,0.3,0.7c-0.2,0.6,0.3,1.2,0.8,1.1c3.6-0.5,7.3-0.1,10.9,1
		c2.6,0.8,5,1.8,7.2,2.4c0.7,0.2,2.1,0.5,3.3,0.6c3.4,0.2,5.3-0.4,4.7-1.8c0-0.1-0.1-0.2-0.2-0.3c0-0.1,0-0.2,0.2-0.4
		c0.6-0.6,0.2-1-0.1-1.6c0,0,4.3-7.7,6.5-11.6L57.1,33.7z M94.5,34.4l-3.2,5.4c-1.7-0.3-2.1,1.1-2.1,1.3c-2.2-0.6-1.9,2.3-0.8,2.5
		c0.1,0.4-1.8,0.9-2.8,0c1.5,0.2,2.1-1.8,0.2-2.2c2.4-1.8-2.1-4.5-2.2-0.8c-2.2-0.4-1.9,2.5-0.5,2.7c-0.7,0.8-2.8,0.8-3.8-0.8
		c1.8,0.9,2.8-1.5,0.9-2.2c2.3-2.1-2.2-3.9-2.1-0.6c-1.7-1-2.9,1.6-0.6,2c-0.1,0.5-3.2,0.5-3.9-0.7c2.1,0.5,2.2-2.1,0.4-2.3
		c1.9-2.4-2.9-3.6-2.1-0.3c-1.9-0.7-2.6,1.6-0.8,2.3c0.1,0.4-2.9,0.7-4-0.6c2.3-0.4,1.5-2.6,0-2.4c0,0,0-0.1,0.1-0.3
		c0.7-2.3-3.1-2.5-2.6-0.1c0.1,0.2,0.2,0.5,0.2,0.5c-1.1-0.2-1.7,0.2-1.6,1.2c0.3,1.3,1,1.2,1.8,1c0.4,0.4-2.1,1.7-3.7,0.5
		c1.9-0.6,1-2.8-0.7-2.5c-0.1-0.7-0.9-1.7-1.9-1.2l-1.1-2.1L94.5,34.4z M97.7,64.6l-2.3,0C93.8,66.3,82.2,77,84.2,93.1
		c0.8,6.9,2.8,12.9,7.9,19.9l1.4-0.8l0.2,0.1l14.3-8.2l0-2.5l-16.6,6.9c-0.3-0.3-0.5-0.7-0.8-1.2l6.6-2.8c0,0,0.2-0.4,0.2-0.6
		c2.2-5.5,6.6-9.5,10.5-12.6c0-5.4,0-16.8,0-16.8l-10-9.9c-1.3,1.2-2.4,2.4-3.5,3.7l11.5,15.1l-1,0.7l-11.3-15
		C94.8,67.5,96.2,66,97.7,64.6L97.7,64.6z M107.9,74.4c0,0-0.1-25.9-0.1-38.4l-5.9,6.1l0,26.2L107.9,74.4z M107.4,38.5l-4.2,4.3
		l0,26.7l-1.1-1.1l0-26l5.2-5.5L107.4,38.5z M66.5,37.9c0.1,0.2,0.1,0.5-0.1,0.8c-0.9,1.1,1.8,2.9,3.8,2.6c1.5-0.2,2.7-1.1,2.2-1.8
		c-0.4-0.5-0.2-1.1,0.4-1.1c0.5,0,1,0.4,0.5,1c-1.1,1.3,0.6,2.9,3,2.9c1.7,0,2.3-0.4,2.2-1.6c0-0.6,0.1-0.7,0.5-0.8
		c0.6-0.1,1,0.6,0.4,1.2c-1.2,1.2,0.2,3,2.3,3.1c0.8,0,1,0,1.8-0.5c0.7-0.4,0.9-1,0.6-1.4c-0.4-0.6,0.2-1.3,0.8-1
		c0.5,0.2,0.7,0.6,0.2,1.2c-0.7,0.8-0.4,1.5,1,2c1.1,0.4,1.8,0.3,2.3-0.1c0.2-0.1,0.5-0.4,0.5-0.3c-0.3,0.6-0.6,1.1-0.6,1.1
		c-2.2,1-4-0.9-3.9-0.9c-2.3,1.3-4.3,1-6.1-1.2c-0.4,0.2-3.7,0.8-6-1.7c-2.3,1.2-4.5,0.7-6.4-0.6c-1.4,1.3-2.9,1.6-4.5,0.9L61,40.5
		c0.1,0,0.6,0.9,3.1,0.5c0.8-0.2,2.2-1.5,1.4-2.2c-0.4-0.5-0.4-0.7-0.1-1.1C65.8,37.4,66.3,37.6,66.5,37.9L66.5,37.9z M60.5,39.1
		c0.1,0.3,0.2,0.7,0,0.4c-0.1-0.1-0.5-0.8-0.5-0.8C60.2,38.7,60.4,38.9,60.5,39.1L60.5,39.1z M107.4,39.3l0,34.4l-3.6-3.5l-0.2-27
		L107.4,39.3z M66,41l1.1,0.7l-2,0L66,41z M72.3,41.6l0.9,0.9l-2-0.4L72.3,41.6z M90,42l-0.4,0.9C89.3,42.6,89.3,42.1,90,42L90,42z
		 M97.1,56.3c0.7-1.6,1.7-3.7,3.2-4.3c-1.2-2.3-1-4.6-0.2-5.9c-1.2-1.1-2.4-2.4-3.1-4.3C93.4,45.2,92.8,51.9,97.1,56.3L97.1,56.3z
		 M97,42.5l0.3,0.6c-3.3,4-2.3,9.4,0.1,12.2L97.1,56C94.1,53,92.9,46.4,97,42.5L97,42.5z M77.3,44.8c3.8,1.1,6.9,2.9,11.3,1.3l0,0.9
		c-2.8,1.8-8.4-0.1-12.2-1.5c-6.1-2.2-10.8-2.1-14.2-1.9c-0.3-0.1-0.5-0.8-0.1-0.8C68.5,42.7,67.4,41.9,77.3,44.8L77.3,44.8z
		 M78.1,43.3l1.3,1.3c-0.9-0.3-1.9-0.6-2.7-1L78.1,43.3z M97.3,43.6l0.2,0.3c0.1,0.1-0.7,0.2-0.6,0.1L97.3,43.6z M75.7,46
		c4.6,1.7,9.6,3.4,12.9,1.9c0,0,0,0.7-0.4,0.8c0,0-0.4,0.3-1.5,0.4c-5.3,0.4-8.8-1.8-13.1-3.1c-1.6-0.5-4.3-1.1-7-1.2
		c-1.6-0.1-4.1,0.2-4.1,0.2c-0.5,0-0.5-0.4-0.5-0.7C66.7,43.8,71,44.3,75.7,46L75.7,46z M97.8,44.4c0.1,0,0.1,0,0.2,0l0.5,0.6
		l-0.6,0.9c0,0-0.5-0.4-0.7-0.9C97.1,44.7,97.4,44.4,97.8,44.4L97.8,44.4z M84.4,44.6l1.4,1.1c-1.1,0.1-2.3,0.1-3.5-0.4L84.4,44.6z
		 M96.6,45.1c0.1,0,0.2,0.1,0.4,0.4c0.3,0.5,0.2,0.5-0.3,0.7c-0.7,0.2-0.7,0.2-0.5-0.4C96.3,45.3,96.5,45.1,96.6,45.1L96.6,45.1z
		 M98.8,45.4l1,0.8c-0.5,1.4-0.9,3.2,0.2,5.8c-0.1,0-0.8,0.7-1,0.8C98.3,52.5,97,47.5,98.8,45.4L98.8,45.4z M97.7,46.5L97.5,48
		c0,0.1-1.1-0.7-1-1.2C96.7,46.4,97.3,46.5,97.7,46.5L97.7,46.5z M96,47c0.1,0,0.3,0.3,0.6,0.7c0.2,0.3,0.2,0.4-0.3,0.8
		c-0.6,0.6-0.8,0.4-0.6-0.7C95.7,47.4,95.8,47,96,47L96,47z M97.3,48.4c0.1,0,0.2,0,0.2,0.1l0.1,1.5c0,0.1-1.2-0.1-1.3-0.6
		C96,49,96.8,48.4,97.3,48.4L97.3,48.4z M95.7,49.7c0.1,0,0.4,0.2,0.6,0.3c0.4,0.3,0.4,0.4,0.1,0.9c-0.4,0.6-0.7,0.5-0.7-0.5
		C95.6,50,95.6,49.7,95.7,49.7L95.7,49.7z M97.4,50.3c0,0,0.1,0,0.1,0c0.2,0.2,0.5,1.7,0.4,1.9c-0.2,0.2-1.2-0.1-1.4-0.4
		C96.3,51.4,97.1,50.3,97.4,50.3L97.4,50.3z M96.2,52.1c0.1,0,0.3,0.1,0.6,0.2c0.2,0.1,0.5,0.3,0.6,0.4c0.1,0.3-0.1,0.6-0.3,1
		c-0.2,0.2-0.3,0.1-0.7-0.7C96.1,52.5,96,52.1,96.2,52.1L96.2,52.1z M98.2,52.8C98.3,52.8,98.3,52.8,98.2,52.8
		c0.4,0.2,0.4,0.8-0.1,1.2c-0.5,0.5-0.9,0.1-0.6-0.5C97.8,53,98.1,52.8,98.2,52.8L98.2,52.8z M69.7,66.9c-0.3,0-0.8,0.3-1,0.5
		c-0.3,0.3-0.5,0.3-0.8,0.3c-0.3,0-0.9,0.1-1.6,0.4c-0.4,0.2-0.6,0.2-1.2,0.3c-0.4,0-0.8,0.1-0.8,0.1c-0.1,0-0.4,0.1-0.6,0.2
		c-0.5,0.1-0.3,0.3,0,0.9c1.5,3.8,2.5,8.2,2.9,11.8c0.4,4.1,0.3,9.1-0.3,13c-1.4,0-2.3-0.1-3.8,0c-1,8.3-3.8,14.8-9.3,20.8l14.9,0
		c1.7-4.6,9.5-8,9.8-7.8l0.4,1.7c0,0-5.6,0.8-9.4,7.9c0.4-0.2,1.8-0.1,2.7,0.9c1.9-2.4,4.9-3.9,4.9-3.9l0.1-0.3c0,0,0.6-0.2,1.1-0.3
		c0.2,0,0.5-0.1,0.7-0.2c0.3-0.1,0.5-0.2,1-0.2c1.1,0.1,2.1-0.2,2.1-0.2c-3.2-8.7-3.9-16.6-2.7-25.8c1.2,0,3.7,0.1,3.7,0.1
		c0.3-2.6,0.6-5.1,1.4-7.6c1-3.1,2.2-6,4.2-8.7c1.1-1.7,2.1-2.9,3.2-4.4l-14.6,0c-1.9,3.3-5.7,6-8.7,7.1c-1,0.4-1.2,0.3-1.3-0.2
		c-0.3-0.9-0.3-0.8,0.5-1c0.3-0.1,1.1-0.5,2.4-1.1c2.8-1.4,4.8-4.1,5.9-5.8c0.5-0.7,0.1-0.5-0.6-0.5c-0.7-0.1-1-0.3-1.7-0.9
		c-0.2-0.2-0.3-0.4-0.4-0.4C72.2,64.8,70.8,66.4,69.7,66.9L69.7,66.9z M73.2,64.1c0.7,0.7,1.4,1.1,2.5,1.2c-1.6,2.6-3.6,4.6-5.9,5.8
		l-1.2-3.3C71.4,66.5,72.2,65.2,73.2,64.1L73.2,64.1z M97,65.2c-15.5,14.3-14.5,32.3-3.7,46.9l-1.1,0.7C82,99.1,80.1,79,95.7,65.1
		L97,65.2z M87.2,66.9l3.8,0l-2.6,3.3l-3.5,0L87.2,66.9z M86.6,66.9l-2.1,3.3l-5.7,0.1c-3.4,4.2-7.1,6.2-10.8,7.6l-0.7-3.6
		c0,0,5.9-1.4,9.7-7.5L86.6,66.9z M80.9,67.2l-1.3,1.5l1.4,1.4l1.2-1.4L80.9,67.2z M83.9,67.2l-1.3,1.4l1,1.4l1.4-1.4L83.9,67.2z
		 M77.3,67.4l-0.2,2.2l1.7,0.6l0.2-1.9L77.3,67.4z M87.7,67.5l-1.2,1.9l1.9,0l1.3-1.9L87.7,67.5z M68.1,68l1.2,3.4l-1.1,0.5
		l-1.1-3.5L68.1,68z M66.7,68.5l1.3,3.5l-1,0.3l-1.2-3.6L66.7,68.5z M68.2,82.3c0.1,4.8,0.2,7.8-0.6,12c0,0.2-0.9,0-0.9,0
		c0.1,0,0.5-4.8,0.5-7.9c-0.1-5.8-1-11.5-3.3-17.3c0.4-0.3,1.5-0.4,1.5-0.4C66.7,73.2,68,77.9,68.2,82.3L68.2,82.3z M53,68.9
		c5,6.6,8.6,15.6,8,24.5c-0.6,10.3-4.5,16.2-11.3,23.4l-1.8,0c8.1-7.8,11.7-14.4,12-23.2c0.3-10.1-2.8-16.8-8-24L53,68.9z M37.1,78
		l0,2.4l17-7.3l-2.5-3.6L37.1,78z M76.9,70.1L75,70.2l0.1,1.9l1.9,0L76.9,70.1z M93.4,69.7l11,14.4l-2.7,2L91.2,72.6L93.4,69.7z
		 M84.7,70.7l3.3,0.1l-1.3,2.1l-3.2,0L84.7,70.7z M84.1,70.8c-1.5,2.8-3.6,6-4.8,11.2l-10.8,0c0-1.2-0.2-2.4-0.4-3.6
		c4.7-1.7,8.3-4.3,11-7.7L84.1,70.8z M86.1,70.9l-1.4,0.8l0.9,1l1.6-0.6L86.1,70.9z M73.2,71.9l-0.5,1.8l1.8,0.7l0.3-2.2L73.2,71.9z
		 M83.3,73.3l3.2,0L85.2,76l-3.1,0L83.3,73.3z M90.9,73l10.4,13.5l-1,0.8L90.1,74L90.9,73z M84.5,73.5l-1.4,1.2l1.1,1.2l1.3-1
		C85.5,74.9,84.5,73.5,84.5,73.5L84.5,73.5z M70.7,73.6l-0.4,1.8l1.8,0.5l0.3-1.9L70.7,73.6z M68.2,74.8l-0.4,1.8l1.7,0.5l0.4-1.7
		L68.2,74.8z M54,74.6c0.1,0-0.3,2.1-0.8,2.5c-0.3,0.2-0.4,0.1-0.6-0.1c-0.2-0.2-0.9-1.3-0.9-1.3l0.6-0.3c0.7,1.2,0.7,0.6,1-0.4
		L54,74.6z M51.1,75.9c0.2,0,0.5,0.3,0.9,0.9c0.5,0.8,0.5,0.9-0.3,1.1c-1.4,0.4-1.9,0.5-1.5-0.5C50.6,76.4,50.8,75.9,51.1,75.9
		L51.1,75.9z M55.3,75.7l1,1.7c-3.9,9.9-10.2,17-18.8,21.4l0-1.7C47.6,91.3,51.8,84.4,55.3,75.7L55.3,75.7z M81.8,76.4l3.1,0.1
		l-0.8,2.3l-3.3,0L81.8,76.4z M50.2,76.3c-2.5,6-5.9,11.1-12.7,15.5l0-1.6c7.7-4.6,11-13.3,11-13.3L50.2,76.3z M89,76.3
		c1.8,0,3.7,2,3.5,3.7c-0.1,1.1,0.1,2,0.4,1.5c0.7-1,2.7-0.3,2.7,0.9c0,0.7-0.5,0.8-0.7,0.2c-0.4-0.9-1.4-0.9-1.6,0
		c-0.1,0.9,0.6,1.5,2.6,2.2c2.3,0.5,3.7,2.6,2.9,3.8c-0.3,0.3-0.5,0.4-0.5,0.2c0,0-0.1-0.3-0.1-0.5c-0.3-1.3-0.9-1.8-1.6-1.3
		c-0.4,0.2-0.3,0.5-0.1,0.9c0.3,0.5,0.1,0.7-0.4,0.4c-0.8-0.4-1.1-1.4-0.3-1.8c0.9-0.4,0.6-0.4-0.6-0.8c-2.5-0.9-3.6-2.4-3.7-5.4
		c0-1.4-0.1-1.9-0.8-2c-0.6-0.2-1.3,0.6-0.8,1c0.2,0.2,0.4,0.4,0.3,0.5c-0.4,0.4-1.4-0.2-1.4-0.9c0-0.4,0.2-0.5,0.8-1
		c0.2-0.1,0-0.4-0.2-0.4C88.4,77.6,88.4,76.3,89,76.3L89,76.3z M83.3,76.6l-1.5,0.9l0.8,1.1l1.7-0.8L83.3,76.6z M53.4,77.5
		c0.2,0,0.3,0.1,0.3,0.3s-0.1,0.3-0.3,0.3c-0.2,0-0.3-0.1-0.3-0.3S53.3,77.5,53.4,77.5L53.4,77.5z M56.6,77.6
		c3.2,7.1,4,15.1,1.8,23.2l-8.7-11.4C52.9,85.7,55.2,81.4,56.6,77.6L56.6,77.6z M44.7,78.2l-7.8,3.3l0,5.9
		C41.3,84.3,43.1,81.3,44.7,78.2L44.7,78.2z M52.2,78.1c0.8,0,0.4,2.1-0.6,2.8c-0.4,0.3-0.6,0.2-0.7-0.3c-0.1-0.3-0.4-0.9-0.8-1.4
		c-0.4-0.6-0.4-0.6,0.2-0.6C51.1,78.5,51.7,78.2,52.2,78.1L52.2,78.1z M51.5,79c-0.6,0-0.7,0.3-0.4,0.6c0.3,0.3,0.5,0.2,0.7-0.2
		C51.9,79.1,51.8,79,51.5,79L51.5,79z M37.4,86.6l0-5l6.7-2.8C42.8,81.7,40.3,84.6,37.4,86.6L37.4,86.6z M96.7,90.6l-0.9,0.9
		l-8.6-11.2l0.5-1.4L96.7,90.6z M49.5,79.2c0.3,0,0.9,1,1.1,1.7c0.1,0.5,0,0.6-1,0.8c-0.4,0.1-1.5,0-1.5-0.3
		C48.3,81,49.4,79.2,49.5,79.2L49.5,79.2z M80.7,79.4l3.1,0L83.1,82l-3.3,0L80.7,79.4z M82.1,79.5l-1.5,1l1.2,1.1l1.6-1L82.1,79.5z
		 M87,80.6l8.7,11.3c-2.6,3.3-5.2,7.1-6.9,12.1C85.7,96.8,84.6,89.7,87,80.6L87,80.6z M51.6,81.6c0.2,0,0.3,0.1,0.3,0.3
		s-0.1,0.3-0.3,0.3c-0.2,0-0.3-0.1-0.3-0.3S51.4,81.6,51.6,81.6L51.6,81.6z M50.6,82c0.5,0,0,1.8-0.8,2.4c-0.6,0.5-0.9,0.3-1.1-0.6
		c-0.1-0.3-0.4-0.9-0.7-1.3c-0.3-0.5-0.2-0.6,0.7-0.4C49.3,82.2,50.1,82,50.6,82L50.6,82z M79.7,82.4l3.3,0l-0.5,3.9L79.7,82.4z
		 M47.6,82.6c0.5,0.5,1.2,2.2,0.8,2.3c-0.4,0.1-2.2-0.1-2.4-0.3c-0.1-0.1-0.1-0.1,0.2-0.5c0.2-0.2,0.5-0.6,0.7-0.9
		C47.1,83,47.3,82.3,47.6,82.6L47.6,82.6z M49.5,82.7c-0.5,0-0.5,0.1-0.3,0.6c0.2,0.4,0.3,0.5,0.7,0.2
		C50.3,83.1,50.1,82.7,49.5,82.7L49.5,82.7z M107.3,83l0.1,1.9c-12.7,6.3-17.4,21.1-17.5,21.1l-0.9-1.7C94.8,90,102.6,85.9,107.3,83
		L107.3,83z M47.6,85.3c0.8,0,1-0.1,1,0.2c0,0.8-0.7,1.8-1.6,2.2c-0.6,0.3-0.6,0.3-0.7-0.4c-0.1-0.5-0.2-1.2-0.5-1.7
		c-0.1-0.2-0.4-0.7,0-0.5C46.3,85.2,47.1,85.3,47.6,85.3L47.6,85.3z M49.3,85.1c0.2,0,0.3,0.1,0.3,0.3c0,0.2-0.1,0.3-0.3,0.3
		c-0.2,0-0.3-0.1-0.3-0.3C49,85.3,49.1,85.1,49.3,85.1L49.3,85.1z M45.3,85.6c0.1,0,0.3,0.3,0.4,0.7c0.3,0.9,0.4,1.4,0.3,1.6
		c-0.2,0.3-2.2,0.1-2.6-0.2C43.4,87.7,45,85.7,45.3,85.6L45.3,85.6z M46.8,85.8c-0.3,0-0.1,0.2,0.1,0.7c0.2,0.4,0.4,0.4,0.6,0.2
		c0.3-0.3,0.4-0.6,0.2-0.8C47.3,85.8,47.1,85.8,46.8,85.8L46.8,85.8z M107.4,87.7l0,0.6c-0.5-0.1-0.8-0.4-1.4-0.5
		c-0.3-0.1-0.5-0.2-0.2-0.6c0.5-0.6,1-0.9,1.6-1.3l0,0.7C106.4,87.1,106.5,87.5,107.4,87.7L107.4,87.7z M70.8,87.1h3.5v2.3H77
		L76.8,92h-2.5v2.3h-3.5V92h-2.5l0.2-2.6h2.3V87.1z M78.7,87.1c-1.8,8.8-0.1,18.1,2.6,25.7l-1.4,0.2c-2.1-6.1-3.8-14.7-2.1-25.9
		C77.8,87.1,78.4,87.1,78.7,87.1L78.7,87.1z M104.7,87.3c0.2,0,0.3,0.1,0.3,0.3c0,0.2-0.1,0.3-0.3,0.3c-0.2,0-0.3-0.1-0.3-0.3
		C104.3,87.4,104.5,87.3,104.7,87.3L104.7,87.3z M43.1,88c0.1,0,0.5,0.2,0.8,0.2c0.5,0.1,0.9,0.2,1.3,0.2c0.9,0,1,0,0.6,0.7
		c-0.3,0.5-0.9,1.2-1.3,1.4c-0.6,0.3-0.8,0.3-0.8-0.3c0-0.4-0.2-1.1-0.4-1.6C43.1,88.3,42.9,88,43.1,88L43.1,88z M46.8,88.3
		c0.2,0,0.3,0.1,0.3,0.3c0,0.2-0.1,0.3-0.3,0.3c-0.2,0-0.3-0.1-0.3-0.3C46.4,88.4,46.6,88.3,46.8,88.3L46.8,88.3z M105.7,88.2
		c0.2,0,0.7,0.1,1.1,0.3c1,0.5,1,0.6-0.4,1.6c-1,0.8-1.2,0.8-1.3-0.4C105,88.8,105.1,88.2,105.7,88.2L105.7,88.2z M42.6,88.5
		c0.4,0,0.9,2.1,0.5,2.3c-0.6,0.3-2.3-0.3-2.3-0.8C40.7,89.9,42.4,88.5,42.6,88.5L42.6,88.5z M104.4,88.4c0.2,0,0.3,0.2,0.3,0.9
		c0,0.4,0,0.9,0.1,1.2c0.1,0.6,0,0.6-0.4,0.4c-0.3-0.2-0.9-0.4-1.5-0.5c-0.5,0-0.6-0.3-0.4-0.6C102.9,89,103.7,88.5,104.4,88.4
		L104.4,88.4z M44.1,88.8c-0.4,0-0.3,0.2,0,0.7c0.2,0.4,0.4,0.4,0.7,0.1c0.4-0.4,0.3-0.7-0.3-0.8C44.4,88.8,44.2,88.8,44.1,88.8
		L44.1,88.8z M104,89.3c-0.1,0-0.4,0.1-0.4,0.2c-0.3,0.2-0.5,0.4,0,0.5c0.4,0.1,0.7,0.2,0.6-0.2C104.1,89.6,104.2,89.3,104,89.3
		L104,89.3z M71.1,89.5v2.3h2.8v-2.3H71.1z M101.5,89.7c0.2,0,0.3,0.1,0.3,0.3s-0.1,0.3-0.3,0.3s-0.3-0.1-0.3-0.3
		S101.3,89.7,101.5,89.7L101.5,89.7z M49.3,90.1l8.8,11.3l-0.6,1.5l-9.1-11.9L49.3,90.1z M107.5,90l0,1.5c-1,0.7-7.3,5.3-10.6,13
		l-1.7,0.7C97.6,98.6,102.7,92.9,107.5,90L107.5,90z M40.6,90.7c0.6,0.2,1.1,0.6,1.7,0.6c0.6,0.1,0.8,0,0.7,0.4
		c-0.4,0.7-1.1,1.5-1.8,1.7c-0.5,0.2-0.8,0.1-0.7-0.2c0.2-0.6,0.2-1.1,0.2-1.7C40.6,91.1,40.4,90.7,40.6,90.7L40.6,90.7z M39.9,90.8
		c0.4,0.3,0.3,2.3-0.1,2.7c-0.2,0.2-0.8,0-1.8-0.5c-0.6-0.3-0.7-0.6-0.4-0.8C38.1,91.9,39.6,90.7,39.9,90.8L39.9,90.8z M102.7,90.8
		c0.2,0,0.4,0,0.7,0.1c1.1,0.2,1.3,0.5,0.4,1.2c-0.3,0.3-0.7,0.6-0.8,0.7c-0.5,0.6-0.9,0.2-1-1C102,91.2,102.1,90.7,102.7,90.8
		L102.7,90.8z M101.3,90.9c0.2,0,0.3,0.1,0.3,0.3c0,0.3,0.2,1.5,0.3,1.8c0.2,0.6,0.1,0.7-0.4,0.5c-0.3-0.2-1.3-0.3-1.8-0.3
		c-0.6,0-0.5-0.1-0.4-0.6C99.7,91.9,100.8,90.9,101.3,90.9L101.3,90.9z M41.1,91.4c-0.2,0-0.2,0.3-0.1,1c0,0.2,0.2,0.2,0.6,0
		c0.4-0.3,0.4-0.5-0.1-0.7C41.4,91.4,41.2,91.4,41.1,91.4L41.1,91.4z M43.6,91.4c0.2,0,0.3,0.1,0.3,0.3c0,0.2-0.1,0.3-0.3,0.3
		c-0.2,0-0.3-0.1-0.3-0.3C43.3,91.6,43.4,91.4,43.6,91.4L43.6,91.4z M100.3,92.7c0.2,0.2,0.7,0.1,0.8,0.1c0.2-0.1,0.1-0.8,0-0.9
		C100.8,91.8,100.1,92.4,100.3,92.7L100.3,92.7z M47.5,93.9c0.2,0.9,1.5,0.9,1.3-0.1c-0.1-0.6-0.1-0.5,0.2-0.5
		c1.3,0.1,1.1,2.2-0.4,2c-0.3,0-0.4,0.2-0.1,0.3c0.3,0.1,1.3,0.4,1.5,0.4c1.7,0,4.1,2.5,4,4.8c0,1.5,0.5,2.5,1,2.7
		c0.4,0.1,1-0.3,0.9-0.7c-0.1-0.6,0.4-0.4,0.7,0c0.4,0.6-0.1,1.5-1.2,1.4c-0.5,0.1,0.3,0.4,0.9,0.5c0.5,0,0.1,0.7,0,0.8
		c-0.3,0.3-1.3,0.1-2-0.5c-0.9-0.8-1.3-1.8-1.5-3.8c-0.1-1.3-0.2-1.5-0.5-1c-0.7,1.2-2.3,0.6-2.5-0.6c-0.1-0.7,0.5-1.1,0.7-0.5
		c0.5,1.2,1.7,0.9,1.5-0.3c-0.1-0.8-0.9-1.3-2.6-1.7c-1.9-0.5-2.5-1.2-2.9-2.8c-0.2-0.7-0.1-1.1,0.2-1.4c0.2-0.2,0.4-0.4,0.4-0.4
		S47.4,93.4,47.5,93.9L47.5,93.9z M98.3,92.9c0.2,0,0.3,0.1,0.3,0.3c0,0.2-0.1,0.3-0.3,0.3c-0.2,0-0.3-0.1-0.3-0.3
		C98,93,98.1,92.9,98.3,92.9L98.3,92.9z M37.4,93.2c0.6,0.2,1.1,0.5,1.7,0.7c0.4,0.1,0.3,0.4-0.1,0.9c-0.4,0.5-0.9,0.8-1.5,1.1
		l0-0.9c0.8-0.3,1.2-0.9,0-1.1L37.4,93.2z M99.8,93.7c0.2,0,0.5,0,0.9,0.1c0.9,0.2,1,0.3,0.5,0.9c-0.2,0.2-0.5,0.6-0.7,0.8
		c-0.5,0.8-0.8,0.5-1.1-0.5C99.1,94,99,93.6,99.8,93.7L99.8,93.7z M40.3,94c0.2,0,0.3,0.1,0.3,0.3c0,0.2-0.1,0.3-0.3,0.3
		c-0.2,0-0.3-0.1-0.3-0.3C40,94.2,40.1,94,40.3,94L40.3,94z M98.9,94.7c0.1,0.3,0.2,0.7,0.3,1c0.5,1.1,0.2,0.7-0.7,0.6
		c-0.6-0.1-1.6,0-1.8-0.1c-0.1-0.1,0-0.5,0.2-0.9c0.3-0.6,0.8-1,1.1-1.3C99,93.6,98.7,94.2,98.9,94.7L98.9,94.7z M45.1,94.3l10,13.3
		l-0.8,1.1L44,95.1L45.1,94.3z M108,94.4c-5.2,3.8-7.2,8.3-7.6,8.9l7.7-3L108,94.4z M98,94.8c-0.3,0.1-0.7,0.6-0.5,0.8
		c0.1,0.1,0.5,0.1,0.7,0.1C98.6,95.6,98.3,94.8,98,94.8L98,94.8z M54,109.2l-2.1,2.7L40.8,97.5l2.8-2L54,109.2z M107.4,95.2l0.1,5
		l-6.5,2.7C103.2,99.1,105.3,96.9,107.4,95.2L107.4,95.2z M62.7,95.6l2.6,3.4l-3.2-0.1L62.7,95.6z M95.8,95.9c0.2,0,0.3,0.1,0.3,0.3
		c0,0.2-0.1,0.3-0.3,0.3c-0.2,0-0.3-0.1-0.3-0.3C95.5,96,95.7,95.9,95.8,95.9L95.8,95.9z M97.8,96.7c1.2,0,1.6,0.1,1.3,0.7
		c-0.5,0.6-0.7,1.1-1.2,1.7c-0.3,0.3-0.7-0.3-1-1.3c-0.2-0.8-0.1-1,0.3-1C97.6,96.7,97.7,96.7,97.8,96.7L97.8,96.7z M96.4,97.8
		c0.1,0.3,0.3,0.8,0.5,1.1c0.2,0.3,0.4,0.7,0.4,0.7c0,0.1-0.2,0.2-0.5,0c-0.7-0.3-2.3,0-2.3-0.1c-0.2-0.3,0.1-1.3,0.8-1.9
		c0.3-0.3,0.6-0.5,0.8-0.5C96.2,97.1,96.2,97.3,96.4,97.8L96.4,97.8z M40.4,97.5l11.3,14.7l-0.8,1l-11.5-15c0,0-1.8,0.9-2.3,1.2
		l0.1,7.6l-0.3,0l0,38.6l6.3-6.3l-0.1-26.2c1.3,1.3,2.5,2.6,4,3.9l2.6,0c6.9-7,10.6-13,11.5-23.7c0.6-7.2-1.8-16.2-8.1-24.9
		l-1.5,0.9l3,4.6l-6.5,2.9C45.6,82.1,42.6,87.1,37,90l0,7l-0.1,0.1l0.1,2.2L40.4,97.5z M95.8,98c-0.3,0-0.8,0.7-0.6,0.9
		c0.3,0.1,0.6,0.1,0.8-0.1C96.2,98.6,96.1,98.1,95.8,98L95.8,98z M62,99.5l3.3,0l-0.9,2.9l-3.2-0.1L62,99.5z M93.6,99.5
		c0.2,0,0.3,0.1,0.3,0.3c0,0.2-0.1,0.3-0.3,0.3c-0.2,0-0.3-0.1-0.3-0.3C93.3,99.7,93.4,99.5,93.6,99.5L93.6,99.5z M76.7,99.6
		l0.4,3.7c-3.6,1.3-7.5,3.6-11,7.7c-0.6,0-5.3,0-5.3,0c0.1,0,4.3-7.9,4.8-11.4L76.7,99.6z M63.5,99.9l-1.5,1l1.2,1.3l1.6-1.1
		L63.5,99.9z M95.2,100c0.3,0,0.8,0,1.1,0.1c0.6,0.1,0.6,0.1,0.5,0.6c-0.3,0.6-0.8,1.7-1,1.8c-0.5,0.3-1.7-2-1.3-2.4
		C94.7,100,94.9,100,95.2,100L95.2,100z M93.8,100.7c0.1,0,0.3,0.3,0.4,0.5c0.1,0.3,0.6,1.1,0.9,1.4c0.4,0.5,0.4,0.5-0.2,0.6
		c-0.7,0.1-1.4,0.2-1.8,0.3c-0.6,0.2-0.7,0.2-0.6-0.5C92.6,101.9,93.3,100.7,93.8,100.7L93.8,100.7z M93.2,102.9
		c0.1,0.2,1-0.2,1.1-0.4c0-0.1-0.4-0.8-0.6-0.8C93.3,101.7,93.2,102.6,93.2,102.9L93.2,102.9z M61.1,102.8l3.1,0l-1,2.6l-3.1,0
		L61.1,102.8z M62.5,103.1l-1.5,1l1.2,1.1l1.4-1L62.5,103.1z M94.5,103.6c0.3,0,0.5,0,0.6,0.1c0.2,0.3-0.5,1.8-0.5,1.8l-1.1,0.4
		c-0.2-0.5-0.6-1-0.7-1.5c0-0.2,0.1-0.3,0.3-0.5C93.5,103.7,94.1,103.6,94.5,103.6L94.5,103.6z M91.6,103.7c0.2,0,0.3,0.1,0.3,0.3
		c0,0.2-0.1,0.3-0.3,0.3c-0.2,0-0.3-0.1-0.3-0.3C91.2,103.8,91.4,103.7,91.6,103.7L91.6,103.7z M77.2,103.7c0,0,0.7,3.8,0.7,3.4
		c-5.3,2-8.3,4.9-9.8,7.7l-9.8,0l2.2-3.4l5.8,0C69.1,108,72.6,105.3,77.2,103.7L77.2,103.7z M75.9,104.6l-0.5,1.6l1.5,0.9l0.6-1.7
		L75.9,104.6z M92.1,104.7c0.1,0,0.2,0.2,0.5,0.6c0.2,0.3,0.4,0.8,0.4,0.8l-0.4,0.2c-0.4-1.2-0.7-0.8-0.7,0.3l-0.6,0.2
		c0,0,0.1-1,0.4-1.6C91.9,104.9,92,104.7,92.1,104.7L92.1,104.7z M60,105.7l3.1,0l-1.3,2.6l-3.1-0.1L60,105.7z M73.3,105.9l-0.2,2
		l1.6,0.3l0.2-1.9L73.3,105.9z M61.3,106l-1.5,1l1,1.3l1.5-1L61.3,106z M70.9,107.7l-0.3,1.8l1.5,0.3l0.3-1.8L70.9,107.7z
		 M37.4,107.8l3.9,3.8l0.2,26.7l-3.8,3.8L37.4,107.8z M58.4,108.8c0,0,3.1,0.1,3.1,0.1l-1.2,2.2l-1.1,0l1.4-1l-0.9-1.1l-1.4,0.9
		l0.8,1.2l-2.1,0L58.4,108.8z M78.3,109.4l1,3.5l-1.3,0.2l-0.9-3.3C77.5,109.7,77.9,109.6,78.3,109.4L78.3,109.4z M68.4,109.6l0,2.1
		l1.7,0.1l0.1-1.9L68.4,109.6z M76.8,110l1,3.3l-0.8,0.2l-1.1-3.1C76.1,110.2,76.4,110.1,76.8,110L76.8,110z M75.3,110.7l1.2,3.2
		c-1.7,0.7-3.5,2.2-4.8,3.6c-1-0.7-1.6-0.8-2.2-1C71.3,113.4,73.2,111.8,75.3,110.7L75.3,110.7z M56.7,111.5l3.2,0.1l-2.2,3.4
		l-3.7,0L56.7,111.5z M66.4,111.6l-0.2,2l1.7,1l0.3-2L66.4,111.6z M64.3,111.9l-1.2,1.3l1.3,1.5l1.2-1.6L64.3,111.9z M61.5,111.9
		l-1.5,1.3l1.2,1.5l1.3-1.5L61.5,111.9z M42.9,113.2l0.1,26.1l-5.4,5.2l0-1.4l4.3-4.5c0-8.8,0-17.6-0.1-26.5L42.9,113.2z
		 M57.2,112.3l-1.5,2l1.8,0l1.3-2L57.2,112.3z M48,125c-0.6,2.1-3.3,4.4-3.3,4.4c1.3,1.9,1.3,4.6,0.1,6c0,0,2.1,1.7,2.4,2.7
		c0.2,0.4,0.2,0.8,0.5,1.2c0.1,0.1,0.2,0.3,0.2,0.3C53.2,134.2,50.7,128,48,125L48,125z M48.1,125.5c5.1,6.3,1.7,12.1,0,13.7
		l-0.3-0.6c3.8-4.4,2.2-9.8,0-12.3L48.1,125.5z M47.6,126.7c0,0.1,0.2,0.4,0.1,0.4l-0.3-0.1L47.6,126.7z M47.5,127.4
		c0.1,0,0.2,0,0.3,0.1c0.1,0.2-0.4,1.6-0.7,1.3c-0.1-0.2-0.2-0.4-0.3-0.6c-0.1-0.2,0-0.4,0.2-0.6C47.1,127.5,47.3,127.4,47.5,127.4
		L47.5,127.4z M48.2,127.8c0.3,0,0.6,0.8,0.7,1.4c0,0.1-0.9-0.1-1.1-0.4C47.8,128.6,48.1,128,48.2,127.8L48.2,127.8z M46.3,128.5
		c1.5,3.1,1.4,5.5,0.1,7.7l-1.1-0.9c0.7-1.7,1.1-3.5-0.1-5.8L46.3,128.5z M47.3,129.3c0.1,0,0.4,0,0.7,0.1c1,0.3,1.1,1,0.1,1.5
		c-0.4,0.2-0.5,0.1-0.8-0.9C47.2,129.5,47.1,129.3,47.3,129.3L47.3,129.3z M49.3,130.4c0.2,0,0.3,0.4,0.3,1c0,0.6-0.1,0.7-0.6,0.2
		c-0.5-0.5-0.6-0.6-0.1-1C49,130.6,49.2,130.4,49.3,130.4L49.3,130.4z M47.9,131.5c0.1,0,0.4,0.2,0.7,0.4c0.7,0.5,0.5,0.9-0.3,1.2
		c-0.6,0.2-0.5,0.2-0.5-0.8C47.8,131.8,47.7,131.5,47.9,131.5L47.9,131.5z M57.1,132.3c-0.9,0.2-1.2,1-0.9,1.7
		c0.1,0.3,0.3,0.3,0.1,0.5c-0.3,0.3-0.4,1-0.1,1.2c0.3,0.2,0.4-0.1,0.1,0.5l-6.4,11.8l38.6-0.1l-4.6-8.7c0,0,0.4-1.4-0.4-1.6
		c-0.2-0.1-0.4-0.3-0.4-0.5c0.1-0.6-0.2-0.9-0.4-1.2c-3.7,0.5-6.9,0.3-9.5-0.3c-3.8-0.9-6.5-2.3-8.3-2.8
		C62.4,132.2,59.4,132,57.1,132.3L57.1,132.3z M59.2,132.4c3,0,6.3,0.9,8.7,1.9c2.4,1,5,1.8,7.6,2.1c2.2,0.3,4.3,0.1,6.4,0
		c0.2,0,0.5,0,0.6,0.2c0.4,0.5,0.1,0.8-0.9,0.9c-1.7,0.1-3.8,0.1-5.7-0.2c-3-0.3-6.1-1.2-8.9-2.4c-3.4-1.3-6.5-1.7-9-1.3
		c-1.4,0.2-1.6,0.2-1.6-0.1C56.4,132.7,57,132.4,59.2,132.4L59.2,132.4z M49.4,134.5c-0.1,0.3-1.1-0.7-1.1-1c0-0.1,0.8-0.6,1.1-0.8
		c0.1-0.1,0.1-0.1,0.1,0.1C49.6,133.1,49.5,134.1,49.4,134.5L49.4,134.5z M48,133.7c0.4,0.1,1.1,1.2,0.5,1.4
		c-0.5,0.2-1.1,0.3-1.1-0.1C47.7,134.1,47.8,133.8,48,133.7C47.9,133.7,48,133.7,48,133.7L48,133.7z M73,137.7
		c2.7,0.5,6.3,0.8,8.7,0.6c1.3-0.1,1.6-0.1,1.6,0.5c0,0.4,0,0.3-1.7,0.3c-1.4,0.1-2.7-0.1-4.1-0.1c-2.9-0.1-5.5-0.6-8-1.5
		c-2.7-0.7-5-2-7.7-2.3c-2.4-0.2-4.6,0.2-5.1,0.4c-0.2,0-0.2-0.2-0.2-0.4c0-0.2,0.1-0.4,0.3-0.5C63.7,132.9,67.4,136.7,73,137.7
		L73,137.7z M48.9,135.4c0.2,0,0.2,0.3-0.2,1.1c-0.3,0.6-0.4,0.6-0.6,0c-0.2-0.7-0.2-0.7,0.2-0.9C48.5,135.5,48.7,135.4,48.9,135.4
		L48.9,135.4z M47.3,135.7c0.3,0,0.7,1.2,0.5,1.5c-0.2,0.2-0.7,0.1-0.9-0.2C46.6,136.7,46.9,135.7,47.3,135.7L47.3,135.7z
		 M59.4,136.1c1.1,0,2.2,0.1,3.1,0.3c-0.6,0.2-1.1,0.4-1.7,0.7C60.4,136.7,59.9,136.4,59.4,136.1L59.4,136.1z M60.8,137.5
		c3.8-2.1,5.4,0.8,6,1.3c3.3-0.7,4-0.4,5.8,1.6c3.3-1.6,4.9-0.2,6.3,0.6c1.6-1.5,3.7-1.6,4.8-0.8c0.2,0.3,0.5,0.8,0.5,0.9
		c0,0.1-0.1,0-0.5-0.3c-2-1.4-5.2,0.3-4.3,2.2c0.2,0.5,0.2,0.7-0.2,0.9c-0.5,0.3-1.1-0.2-0.8-0.8c0.6-0.9,0.1-1.7-1.3-2.5
		c-2-1-5.2,0.1-4.5,1.6c0.4,0.5,0,0.8-0.5,0.8c-0.6,0-0.9-0.4-0.4-0.9c0.5-0.6,0.4-1.2-0.2-1.8c-1.8-2.5-5.4-1.5-4.9,0.7
		c0.2,0.5-0.4,0.8-1,0.5c-0.4-0.2-0.3-0.8,0.1-1c0.5,0,0.6-0.8,0.5-1.2c-0.1-0.7-1.1-1.3-2-1.7c-0.7-0.3-1.4-0.3-1.9-0.3
		c-1.1,0.1-1.7,0.8-1.5,2c0.1,0.7-0.1,1.3-0.8,1c-0.4-0.2-0.3-0.7,0.1-1.1c1.5-1.5-1.5-3.3-3.4-2c-0.3,0.3-0.5,0.3-0.5,0.3
		C57.2,134.7,60.8,137.4,60.8,137.5L60.8,137.5z M65.8,137.2l2.3,0.9c-0.5,0.1-0.9,0.3-1.3,0.4L65.8,137.2z M59.8,138.1
		c-2.1-0.4-2.2,2-0.9,2.4c-1.9,2.6,3.1,3.6,2.2,0.4c2.5,0.5,2.1-2.4,0.2-2.4c0.4-1.1,3.9-0.3,3.8,0.5c-2.3,0.2-1.4,2.4-0.4,2.4
		c-2.4,2.3,2.5,4.5,2.3,1c2,0.4,2.2-2.2,0.3-2.4c0.7-1,3.2-0.4,3.8,0.8c-2,0.3-1.8,2-0.3,2.3c-1.9,2.5,2.8,3.4,2.3,0.5
		c1.7,0.6,2.6-1.7,0.4-2.3c2.3-1.3,4.7,0.7,4.5,0.7c-2.6-0.2-2.1,2.4-0.2,2.3c-1.2,2.7,3.5,2.8,2.3,0c2.1,0,1.9-2.4-0.1-2.6
		c1.3-0.9,2.7-1,3.7-0.1c-1.9,0.5-1.1,2.8,0.8,2.1c0.2,1.9,1.7,1.5,1.7,1.4l1.4,2.6l-37.1,0.1l3.2-5.8c1.9,0.1,1.8-1.7,1.7-1.7
		c1.2,0.9,2.6-1.3,0.8-2C57.7,136.5,59.9,138,59.8,138.1L59.8,138.1z M47.7,137.9c-0.1,0.1-0.1,0.1-0.2,0
		C47.2,137.6,48.1,137.5,47.7,137.9L47.7,137.9z M55.4,138.9c0.2,0.1,0.1,0.5-0.1,0.6c-0.3,0.4-0.4,0.3-0.2-0.3
		C55.3,139.1,55.3,138.9,55.4,138.9L55.4,138.9z M71.7,139.1l1.9,0.5l-0.9,0.5C72.3,139.7,72,139.4,71.7,139.1L71.7,139.1z
		 M77.7,139.9l2.1,0.1c-0.3,0.2-0.5,0.4-0.9,0.7C78.6,140.4,78.1,140.1,77.7,139.9L77.7,139.9z M84.7,142c0.1,0.2,0.6,1.1,0.5,1.1
		C84.5,143.2,84.3,142.2,84.7,142L84.7,142z M84.7,142"/>
	<g>
		<defs>
			<rect id="SVGID_1_" x="5" y="4" width="134.8" height="174.4"/>
		</defs>
		<clipPath id="SVGID_2_">
			<use xlink:href="#SVGID_1_"  overflow="visible"/>
		</clipPath>
		<path clip-path="url(#SVGID_2_)" fill="none" stroke="#000000" stroke-width="0.2" d="M23.1,19.9V4.3 M20.9,22.1H5.4 M121.8,19.9
			V4.3 M124,22.1h15.6 M23.1,162v15.6 M20.9,159.8H5.4 M121.8,162v15.6 M124,159.8h15.6"/>
	</g>
</g>
<g>
	<g>
		<path fill="#FFFFFF" d="M19.1,21.6c-2.5,1.5-6.9-0.7-9.5-1.1c-2.1-0.3-4.1-0.3-6.1,0.6c-0.1,0-0.9,0.4-0.6,0.6
			c3.1,1.8,7.1,0.8,10.5,0.8c0.6,0,2.1-0.9,0.8-0.9c-3.1,0.1-6.7,1-9.5-0.6c-0.2,0.2-0.4,0.4-0.6,0.6c5.3-2.2,11,3.4,16.4,0.1
			C21.5,21.2,19.5,21.4,19.1,21.6L19.1,21.6z"/>
	</g>
</g>
<g>
	<g>
		<path fill="#FFFFFF" d="M23.6,20.1c-5.9-1-11.4-2-17.2,0.1c-1.6,0.6-3.7,3.5-0.8,4c2.6,0.4,5.2,0.5,7.9,0.5c0.3-1.5,0.6-3,0.9-4.4
			c-1.1,0.3-2,0.4-3.1,0.2C10,22,8.7,23.5,7.4,25c2.3,0,4.7,0,7,0c1.8,0,4.1-0.5,5.1-2.2c1-1.6-0.8-2.4-2.2-2.5
			c-1.3-0.1-2.7-0.3-4-0.3c-1.8-0.1-4.1,0.6-5.1,2.2c-1,1.6,0.8,2.5,2.2,2.5c1.3,0,2.7,0.3,4,0.3c1-1.6,2-3.1,2.9-4.7
			c-2.3,0-4.7,0-7,0c-1.6,0-3.4,0.4-4.6,1.6c-1.1,1.1-0.9,2.7,0.8,3c3.1,0.4,5.9,0.4,8.9-0.5c1.2-0.3,3-1.1,3.3-2.5
			c0.3-1.3-1.4-1.9-2.4-1.9c-2,0-4.1,0.1-6.1-0.2c-0.3,1.3-0.5,2.6-0.8,4c2.8-1,6.7,0.4,9.4,0.8c1.9,0.3,4-0.1,5.5-1.5
			C25.5,22,25.3,20.4,23.6,20.1L23.6,20.1z"/>
	</g>
</g>
<g>
	<g>
		<path fill="#FFFFFF" d="M6.2,19.6c-1.9,1.1-3.6,2.7-3.5,5c0.1,1.6,0.7,2.9,1.1,4.4c0.9,3.7,8.6,1.7,7.7-2.1
			c-0.2-0.8-0.5-1.6-0.8-2.3c-0.1-0.2-0.2-1.4-0.2-0.8c0-0.2,0.2-0.8,0-0.2c-0.1,0.3-0.5,0.6-0.8,0.7c1.4-0.8,3-2.5,1.8-4.1
			C10.3,18.7,7.7,18.8,6.2,19.6L6.2,19.6z"/>
	</g>
</g>
<g>
	<g>
		<path fill="#FFFFFF" d="M26.8,17.6c0-4.5-0.5-9,0-13.4c0.4-3.1-7.4-1.7-7.7,1c-0.6,4.8,0,9.7,0,14.6
			C19.1,22.2,26.8,20.7,26.8,17.6L26.8,17.6z"/>
	</g>
</g>
<g>
	<g>
		<path fill="#FFFFFF" d="M125.5,18.7c0-5.4,0.3-10.9,0.3-16.3c0-3.8-7.8-2.5-7.8,0.7c0,5.4-0.3,10.9-0.3,16.3
			C117.7,23.2,125.5,21.8,125.5,18.7L125.5,18.7z"/>
	</g>
</g>
<g>
	<g>
		<path fill="#FFFFFF" d="M123.4,24.3c6.4-0.2,12.4,1.3,18.7-0.2c1.9-0.5,5.3-3.3,1.8-4.3c-2.2-0.6-4.5-0.6-6.6-1.4
			c-1.8-0.7-3.8-0.4-5.5,0.7c-0.9,0.6-2.4,2.5-0.6,3.2c2.6,1,5.4,1.2,8,1.9c0.6-1.4,1.2-2.9,1.8-4.3c-4.7,1.2-9.8-0.4-14.6-0.2
			c-1.8,0.1-4,0.5-5.1,2.2C120.3,23.4,122.1,24.4,123.4,24.3L123.4,24.3z"/>
	</g>
</g>
<g>
	<g>
		<path fill="#FFFFFF" d="M122.4,161.7c4.9,2.2,10.4,0.9,15.5,0.8c1.7,0,4-0.6,5.1-1.9c1.2-1.4-1-1.7-1.9-1.7
			c-4.1,0.1-8.5,1.2-12.5-0.5C126.8,157.5,119.7,160.5,122.4,161.7L122.4,161.7z"/>
	</g>
</g>
<g>
	<g>
		<path fill="#FFFFFF" d="M117.7,164.4c0.6,4.7,0,9.3,0,14c0,1.4,7.7,0.3,7.7-2.1c0-4.7,0.6-9.3,0-14
			C125.2,160.6,117.4,162.2,117.7,164.4L117.7,164.4z"/>
	</g>
</g>
<g>
	<g>
		<path fill="#FFFFFF" d="M19,164.4c1.5,4.4,1,9.1,1,13.7c0,1.9,7.7,0.6,7.7-2.1c0-4.6,0.5-9.2-1-13.7
			C25.9,159.9,18.3,162.2,19,164.4L19,164.4z"/>
	</g>
</g>
<g>
	<g>
		<path fill="#FFFFFF" d="M21.7,157.9c-5.4,0-10.9-0.3-16.3-0.3c-1.8,0-4.1,0.5-5.1,2.2c-0.9,1.6,0.8,2.7,2.2,2.7
			c5.4,0,10.9,0.3,16.3,0.3c1.8,0,4.1-0.5,5.1-2.2C24.8,159,23.1,157.9,21.7,157.9L21.7,157.9z"/>
	</g>
</g>
</svg>
