<?xml version="1.0" encoding="utf-8"?>
<!-- Generator: Adobe Illustrator 14.0.0, SVG Export Plug-In  -->
<!DOCTYPE svg PUBLIC "-//W3C//DTD SVG 1.1//EN" "http://www.w3.org/Graphics/SVG/1.1/DTD/svg11.dtd" [
	<!ENTITY ns_flows "http://ns.adobe.com/Flows/1.0/">
]>
<svg version="1.1"
	 xmlns="http://www.w3.org/2000/svg" xmlns:xlink="http://www.w3.org/1999/xlink" xmlns:a="http://ns.adobe.com/AdobeSVGViewerExtensions/3.0/"
	 x="0px" y="0px" width="300px" height="155px" viewBox="-9.4 11.2 300 155" enable-background="new -9.4 11.2 300 155"
	 xml:space="preserve">
<defs>
</defs>
<g>
	<path fill="#FFFFFF" d="M25,21.4h88.9c2.6,0,4.7,2.1,4.7,4.7v127.8c0,2.6-2.1,4.7-4.7,4.7H25c-2.6,0-4.7-2.1-4.7-4.7V26.1
		C20.3,23.5,22.4,21.4,25,21.4L25,21.4z M25,21.4"/>
	<path fill="none" stroke="#000000" stroke-width="0.7974" d="M25,21.4h88.9c2.6,0,4.7,2.1,4.7,4.7v127.8c0,2.6-2.1,4.7-4.7,4.7H25
		c-2.6,0-4.7-2.1-4.7-4.7V26.1C20.3,23.5,22.4,21.4,25,21.4L25,21.4z M25,21.4"/>
	<path fill="#D40000" d="M28.2,41.8v-1.2h1.1v-2h-5.7v-1.4l6.2-9.3l1,0v9.3h1.7v1.4h-1.7l0,2h1v1.2H28.2z M29.3,31.2l-3.9,5.9h3.9
		V31.2z M29.3,31.2"/>
	<path fill="#D40000" d="M110.7,138.2v1.2h-1.1v2h5.7v1.4l-6.2,9.3l-1,0v-9.3h-1.7v-1.4h1.7l0-2h-1v-1.2H110.7z M109.6,148.8
		l3.9-5.9h-3.9V148.8z M109.6,148.8"/>
	<path fill="#D40000" d="M24.2,48.2c-0.7-1.5-0.8-4.1,1.3-4.5c1.6-0.2,2.2,0.5,2.3,1.6c0.1,0.3,0.2,0.3,0.3,0
		c0.1-1.1,1.2-1.8,2.1-1.7c2.4,0.4,2.3,3.1,1.5,4.9c-1.2,2.4-2.5,3.9-3.6,6.4C26.8,52.4,25.3,50.4,24.2,48.2L24.2,48.2z M24.2,48.2"
		/>
	<path fill="#D40000" d="M40.1,32.8c3.1-0.2,4.8,2.5,5.1,4.6c0.2,0.3,0.3,0.2,0.4,0c0.2-2.7,2.6-4.9,4.8-4.6c3.7,0,5.9,4.1,5.3,7.6
		c-0.8,4.2-3,6.8-4.8,9.4c-1.9,2.7-4.6,6.6-5.4,8.5c0,0-2.7-4-6.1-8.8c-2.3-3.2-4.2-6.6-4.3-9.6C34.9,36.4,36.3,33.4,40.1,32.8
		L40.1,32.8z M40.1,32.8"/>
	<path fill="#D40000" d="M88.3,32.8c3.1-0.2,4.8,2.5,5.1,4.6c0.2,0.3,0.3,0.2,0.4,0c0.2-2.7,2.6-4.9,4.8-4.6c3.7,0,5.9,4.1,5.3,7.6
		c-0.8,4.2-3,6.8-4.8,9.4c-1.9,2.7-4.6,6.6-5.4,8.5c0,0-2.7-4-6.1-8.8c-2.3-3.2-4.2-6.6-4.3-9.6C83.1,36.4,84.5,33.4,88.3,32.8
		L88.3,32.8z M88.3,32.8"/>
	<path fill="#D40000" d="M40.1,145.6c3.1,0.2,4.8-2.5,5.1-4.6c0.2-0.3,0.3-0.2,0.4,0c0.2,2.7,2.6,4.9,4.8,4.6c3.7,0,5.9-4.1,5.3-7.6
		c-0.8-4.2-3-6.8-4.8-9.4c-1.9-2.7-4.6-6.6-5.4-8.5c0,0-2.7,4.1-6.1,8.8c-2.3,3.2-4.2,6.6-4.3,9.6C34.9,142.1,36.3,145.1,40.1,145.6
		L40.1,145.6z M40.1,145.6"/>
	<path fill="#D40000" d="M88.3,145.6c3.1,0.2,4.8-2.5,5.1-4.6c0.2-0.3,0.3-0.2,0.4,0c0.2,2.7,2.6,4.9,4.8,4.6c3.7,0,5.9-4.1,5.3-7.6
		c-0.8-4.2-3-6.8-4.8-9.4c-1.9-2.7-4.6-6.6-5.4-8.5c0,0-2.7,4.1-6.1,8.8c-2.3,3.2-4.2,6.6-4.3,9.6C83.1,142.1,84.5,145.1,88.3,145.6
		L88.3,145.6z M88.3,145.6"/>
	<path fill="#D40000" d="M106.6,131.9c-0.7,1.5-0.8,4.1,1.3,4.5c1.6,0.2,2.2-0.5,2.3-1.6c0.1-0.3,0.2-0.3,0.3,0
		c0.1,1.2,1.2,1.8,2.1,1.7c2.4-0.4,2.3-3.1,1.5-4.9c-1.2-2.4-2.5-3.9-3.6-6.4C109.2,127.6,107.6,129.7,106.6,131.9L106.6,131.9z
		 M106.6,131.9"/>
	<g>
		<defs>
			<rect id="SVGID_5_" x="2" y="3" width="134.8" height="174.4"/>
		</defs>
		<clipPath id="SVGID_6_">
			<use xlink:href="#SVGID_5_"  overflow="visible"/>
		</clipPath>
		<path clip-path="url(#SVGID_6_)" fill="none" stroke="#000000" stroke-width="0.2" d="M20.1,19V3.4 M17.9,21.2H2.3 M118.8,19V3.4
			 M121,21.2h15.6 M20.1,161v15.6 M17.9,158.8H2.3 M118.8,161v15.6 M121,158.8h15.6"/>
	</g>
</g>
<g>
	<path fill="#FFFFFF" d="M60.8,21.4h88.9c2.6,0,4.7,2.1,4.7,4.7v127.8c0,2.6-2.1,4.7-4.7,4.7H60.8c-2.6,0-4.7-2.1-4.7-4.7V26.1
		C56.1,23.5,58.2,21.4,60.8,21.4L60.8,21.4z M60.8,21.4"/>
	<path fill="none" stroke="#000000" stroke-width="0.792" stroke-miterlimit="3.8" d="M60.8,21.4h88.9c2.6,0,4.7,2.1,4.7,4.7v127.8
		c0,2.6-2.1,4.7-4.7,4.7H60.8c-2.6,0-4.7-2.1-4.7-4.7V26.1C56.1,23.5,58.2,21.4,60.8,21.4L60.8,21.4z M60.8,21.4"/>
	<path fill="#D40000" d="M70.6,47.2c4.4-4.3,7.2-8.9,10-13.4c2.4,4.9,5.9,9.2,9.6,13.4c-4,4.1-7.1,8.5-9.6,13.2
		C77.8,55.7,74.9,51.4,70.6,47.2L70.6,47.2z M70.6,47.2"/>
	<path fill="#D40000" d="M70.6,91.4c4.4-4.3,7.2-8.9,10-13.4c2.4,4.9,5.9,9.2,9.6,13.4c-4,4.1-7.1,8.5-9.6,13.2
		C77.8,99.8,74.9,95.5,70.6,91.4L70.6,91.4z M70.6,91.4"/>
	<path fill="#D40000" d="M70.6,134.7c4.4-4.3,7.2-8.9,10-13.4c2.4,4.9,5.9,9.2,9.6,13.4c-4,4.1-7.1,8.5-9.6,13.2
		C77.8,143.1,74.9,138.8,70.6,134.7L70.6,134.7z M70.6,134.7"/>
	<path fill="#D40000" d="M95.5,69.3c4.4-4.3,7.2-8.9,10-13.4c2.4,4.9,5.9,9.2,9.6,13.4c-4,4.1-7.1,8.5-9.6,13.2
		C102.7,77.7,99.8,73.4,95.5,69.3L95.5,69.3z M95.5,69.3"/>
	<path fill="#D40000" d="M119.7,47.2c4.4-4.3,7.2-8.9,10-13.4c2.4,4.9,5.9,9.2,9.6,13.4c-4,4.1-7.1,8.5-9.6,13.2
		C126.9,55.7,124,51.4,119.7,47.2L119.7,47.2z M119.7,47.2"/>
	<path fill="#D40000" d="M119.7,91.4c4.4-4.3,7.2-8.9,10-13.4c2.4,4.9,5.9,9.2,9.6,13.4c-4,4.1-7.1,8.5-9.6,13.2
		C126.9,99.8,124,95.5,119.7,91.4L119.7,91.4z M119.7,91.4"/>
	<path fill="#D40000" d="M119.7,134.7c4.4-4.3,7.2-8.9,10-13.4c2.4,4.9,5.9,9.2,9.6,13.4c-4,4.1-7.1,8.5-9.6,13.2
		C126.9,143.1,124,138.8,119.7,134.7L119.7,134.7z M119.7,134.7"/>
	<path fill="#D40000" d="M142.9,131.6c1.8-1.7,3-3.6,4.1-5.5c1,2,2.4,3.8,3.9,5.5c-1.6,1.7-2.9,3.5-3.9,5.4
		C145.8,135,144.6,133.2,142.9,131.6L142.9,131.6z M142.9,131.6"/>
	<path fill="#D40000" d="M59.8,49.8c1.8-1.7,3-3.6,4.1-5.5c1,2,2.4,3.8,3.9,5.5c-1.6,1.7-2.9,3.5-3.9,5.4
		C62.8,53.2,61.6,51.5,59.8,49.8L59.8,49.8z M59.8,49.8"/>
	<path fill="#D40000" d="M61.5,41.8c0.9-4.9,1.9-8.5,4.6-12.5h-5.3V31h-1.4v-3.2h7.8l1,1.5c-2.8,3-5.3,12.7-4.9,12.5H61.5z
		 M61.5,41.8"/>
	<path fill="#D40000" d="M148.9,138.1c-0.9,4.9-1.9,8.5-4.6,12.5h5.3v-1.7h1.4v3.2h-7.8l-1-1.5c2.8-3,5.3-12.7,4.9-12.5H148.9z
		 M148.9,138.1"/>
	<g>
		<defs>
			<rect id="SVGID_4_" x="37.8" y="3" width="134.8" height="174.4"/>
		</defs>
		<clipPath id="SVGID_7_">
			<use xlink:href="#SVGID_4_"  overflow="visible"/>
		</clipPath>
		<path clip-path="url(#SVGID_7_)" fill="none" stroke="#000000" stroke-width="0.2" d="M55.9,19V3.4 M53.7,21.2H38.1 M154.5,19V3.4
			 M156.7,21.2h15.6 M55.9,161v15.6 M53.7,158.8H38.1 M154.5,161v15.6 M156.7,158.8h15.6"/>
	</g>
</g>
<g>
	<g>
		<path fill="#231F20" d="M153.7,106.3c0.4,0,2.2-0.8,1.2-0.8C154.6,105.5,152.8,106.3,153.7,106.3L153.7,106.3z"/>
	</g>
</g>
<g>
	<path fill="#FFFFFF" d="M182,158.6H93.1c-2.6,0-4.7-2.1-4.7-4.7V26.1c0-2.6,2.1-4.7,4.7-4.7H182c2.6,0,4.7,2.1,4.7,4.7v127.8
		C186.7,156.5,184.6,158.6,182,158.6L182,158.6z M182,158.6"/>
	<path fill="none" stroke="#000000" stroke-width="0.7974" d="M182,158.6H93.1c-2.6,0-4.7-2.1-4.7-4.7V26.1c0-2.6,2.1-4.7,4.7-4.7
		H182c2.6,0,4.7,2.1,4.7,4.7v127.8C186.7,156.5,184.6,158.6,182,158.6L182,158.6z M182,158.6"/>
	<path d="M183.3,138.6v13.9h-1.4v-13.9H183.3z M183.3,138.6"/>
	<path d="M177.9,152.5c1.3,0,2.4-1.2,2.4-2.6v-8.6c0-1.5-1.1-2.6-2.4-2.6h-0.8c-1.3,0-2.4,1.2-2.4,2.6v8.6c0,1.5,1.1,2.6,2.4,2.6
		H177.9z M177.5,151.2c-0.8,0-1.4-0.6-1.4-1.3v-8.7c0-0.7,0.6-1.3,1.4-1.3s1.4,0.6,1.4,1.3v8.7C178.9,150.6,178.3,151.2,177.5,151.2
		L177.5,151.2z M177.5,151.2"/>
	<path d="M91.8,41.3V27.5h1.4v13.9H91.8z M91.8,41.3"/>
	<path d="M97.2,27.5c-1.3,0-2.4,1.2-2.4,2.7v8.6c0,1.5,1.1,2.6,2.4,2.6H98c1.3,0,2.4-1.2,2.4-2.6v-8.6c0-1.5-1.1-2.7-2.4-2.7H97.2z
		 M97.6,28.8c0.8,0,1.4,0.6,1.4,1.3v8.7c0,0.7-0.6,1.3-1.4,1.3c-0.8,0-1.4-0.6-1.4-1.3v-8.7C96.2,29.4,96.8,28.8,97.6,28.8
		L97.6,28.8z M97.6,28.8"/>
	<path d="M156.8,87.8c1.3-2.5,2.2-5.1,2.4-7.9c0.2-1-0.5-1-0.6-0.3c-1.8,6.9-11.3,5-11-1.5c0.3-5.2,5.5-6.4,8.2-4.6
		c1.1,0.6,1,0.3,0.4-0.4c-4-4.5-1.6-10.3,3.9-10.4c5.9,0.3,7.4,6.5,3.8,10.2c-0.4,0.4-1.4,1.8,0.1,0.9c3.6-2.6,8.7,0.2,8.6,4.2
		c-0.2,7.4-9.2,7.9-11.1,1.8c-0.2-0.7-0.7-1-0.6,0.1c0.3,2.1,0.8,5.3,2.4,8H156.8z M156.8,87.8"/>
	<path d="M111.2,87.8c1.3-2.5,2.2-5.1,2.4-7.9c0.1-1-0.5-1-0.6-0.3c-1.8,6.9-11.3,5-11-1.5c0.3-5.2,5.5-6.4,8.2-4.6
		c1.1,0.6,1,0.3,0.4-0.4c-4-4.5-1.6-10.3,3.9-10.4c5.9,0.3,7.4,6.5,3.8,10.2c-0.4,0.4-1.4,1.8,0.1,0.9c3.6-2.6,8.7,0.2,8.6,4.2
		c-0.2,7.4-9.2,7.9-11.1,1.8c-0.2-0.7-0.7-1-0.6,0.1c0.3,2.1,0.8,5.3,2.4,8H111.2z M111.2,87.8"/>
	<path d="M134,73.4c1.3-2.5,2.2-5.1,2.4-7.9c0.1-1-0.5-1-0.6-0.3c-1.8,6.9-11.3,5-11-1.5c0.3-5.2,5.5-6.4,8.2-4.6
		c1.1,0.6,1,0.3,0.4-0.4c-4-4.5-1.6-10.3,3.9-10.4c5.9,0.3,7.4,6.5,3.8,10.2c-0.4,0.4-1.4,1.8,0.1,0.9c3.6-2.6,8.7,0.2,8.6,4.2
		c-0.2,7.4-9.2,7.9-11.1,1.8c-0.2-0.7-0.7-1-0.6,0.1c0.3,2.1,0.8,5.3,2.4,8H134z M134,73.4"/>
	<path d="M156.8,59.1c1.3-2.5,2.2-5.1,2.4-7.9c0.2-1-0.5-1-0.6-0.3c-1.8,6.9-11.3,5-11-1.5c0.3-5.2,5.5-6.4,8.2-4.6
		c1.1,0.6,1,0.3,0.4-0.4c-4-4.5-1.6-10.3,3.9-10.4c5.9,0.4,7.4,6.5,3.8,10.2c-0.4,0.4-1.4,1.8,0.1,0.9c3.6-2.6,8.7,0.2,8.6,4.2
		c-0.2,7.4-9.2,7.9-11.1,1.8c-0.2-0.7-0.7-1-0.6,0.1c0.3,2.1,0.8,5.3,2.4,8H156.8z M156.8,59.1"/>
	<path d="M111.2,59.1c1.3-2.5,2.2-5.1,2.4-7.9c0.1-1-0.5-1-0.6-0.3c-1.8,6.9-11.3,5-11-1.5c0.3-5.2,5.5-6.4,8.2-4.6
		c1.1,0.6,1,0.3,0.4-0.4c-4-4.5-1.6-10.3,3.9-10.4c5.9,0.4,7.4,6.5,3.8,10.2c-0.4,0.4-1.4,1.8,0.1,0.9c3.6-2.6,8.7,0.2,8.6,4.2
		c-0.2,7.4-9.2,7.9-11.1,1.8c-0.2-0.7-0.7-1-0.6,0.1c0.3,2.1,0.8,5.3,2.4,8H111.2z M111.2,59.1"/>
	<path d="M117.7,92.1c-1.3,2.5-2.2,5.2-2.4,7.9c-0.1,1,0.5,1,0.6,0.3c1.8-6.9,11.3-5,11,1.5c-0.3,5.2-5.5,6.4-8.2,4.6
		c-1.1-0.6-1-0.3-0.4,0.4c4,4.5,1.6,10.3-3.9,10.4c-5.9-0.4-7.4-6.5-3.8-10.2c0.4-0.4,1.4-1.8-0.1-0.9c-3.6,2.6-8.7-0.2-8.6-4.2
		c0.2-7.4,9.2-7.9,11.1-1.8c0.2,0.7,0.7,1,0.6-0.1c-0.3-2.1-0.8-5.3-2.4-8H117.7z M117.7,92.1"/>
	<path d="M117.7,120.9c-1.3,2.5-2.2,5.2-2.4,7.9c-0.1,1,0.5,1,0.6,0.3c1.8-6.9,11.3-5,11,1.5c-0.3,5.2-5.5,6.4-8.2,4.6
		c-1.1-0.6-1-0.3-0.4,0.4c4,4.5,1.6,10.3-3.9,10.4c-5.9-0.3-7.4-6.5-3.8-10.2c0.4-0.4,1.4-1.8-0.1-0.9c-3.6,2.6-8.7-0.2-8.6-4.2
		c0.2-7.4,9.2-7.9,11.1-1.8c0.2,0.7,0.7,1,0.6-0.1c-0.3-2.1-0.8-5.3-2.4-8H117.7z M117.7,120.9"/>
	<path d="M163.2,92.1c-1.3,2.5-2.2,5.2-2.4,7.9c-0.2,1,0.5,1,0.6,0.3c1.8-6.9,11.3-5,11,1.5c-0.3,5.2-5.5,6.4-8.2,4.6
		c-1.1-0.6-1-0.3-0.4,0.4c4,4.5,1.6,10.3-3.9,10.4c-5.9-0.4-7.4-6.5-3.8-10.2c0.4-0.4,1.4-1.8-0.1-0.9c-3.6,2.6-8.7-0.2-8.6-4.2
		c0.2-7.4,9.2-7.9,11.1-1.8c0.2,0.7,0.7,1,0.6-0.1c-0.3-2.1-0.8-5.3-2.4-8H163.2z M163.2,92.1"/>
	<path d="M163.2,120.9c-1.3,2.5-2.2,5.2-2.4,7.9c-0.2,1,0.5,1,0.6,0.3c1.8-6.9,11.3-5,11,1.5c-0.3,5.2-5.5,6.4-8.2,4.6
		c-1.1-0.6-1-0.3-0.4,0.4c4,4.5,1.6,10.3-3.9,10.4c-5.9-0.3-7.4-6.5-3.8-10.2c0.4-0.4,1.4-1.8-0.1-0.9c-3.6,2.6-8.7-0.2-8.6-4.2
		c0.2-7.4,9.2-7.9,11.1-1.8c0.2,0.7,0.7,1,0.6-0.1c-0.3-2.1-0.8-5.3-2.4-8H163.2z M163.2,120.9"/>
	<path d="M140.6,106.5c-1.3,2.5-2.2,5.2-2.4,7.9c-0.2,1,0.5,1,0.6,0.3c1.8-6.9,11.3-5,11,1.5c-0.3,5.2-5.5,6.4-8.2,4.6
		c-1.1-0.6-1-0.3-0.4,0.4c4,4.5,1.6,10.3-3.9,10.4c-5.9-0.4-7.4-6.5-3.8-10.2c0.4-0.4,1.4-1.8-0.1-0.9c-3.6,2.6-8.7-0.2-8.6-4.2
		c0.2-7.4,9.2-7.9,11.1-1.8c0.2,0.7,0.7,1,0.6-0.1c-0.3-2.1-0.8-5.3-2.4-8H140.6z M140.6,106.5"/>
	<path d="M94.2,54.5c0.5-1.1,1-2.1,1.3-3.3c0.2-1.1-0.2-0.7-0.4,0c-0.3,1-1.2,1.5-2,1.5c-1.5,0-2.2-1.1-2.2-2.4
		c-0.2-1.3,1.2-2.3,2.2-2.2c0.8,0.1,1.4,0.5,1.8,0.8c0.3,0.1,0.5,0.2,0.2-0.2c-0.7-0.8-1.4-1.3-1.3-2.5c0-1.1,1-2.3,2.3-2.3
		c1.6,0,2.3,1.3,2.3,2.4c0,0.8-0.4,1.6-1.1,2.1c-0.4,0.3-0.3,0.6,0.2,0.3c0.5-0.4,1-0.6,1.6-0.6c1.5,0,2.1,1.3,2,2.5
		c-0.1,1.2-1.1,2.3-2.4,2.2c-1.2-0.1-1.8-1.1-2.1-2.1c-0.1-0.3-0.3-0.4-0.3,0.1c0.3,2.2,1.1,3.6,1.1,3.6H94.2z M94.2,54.5"/>
	<path d="M180.9,125.8c-0.5,1.1-1,2.1-1.3,3.3c-0.2,1.1,0.2,0.7,0.4,0c0.3-1,1.2-1.5,2-1.5c1.5,0,2.2,1.1,2.2,2.4
		c0.2,1.3-1.2,2.3-2.2,2.2c-0.8-0.1-1.4-0.5-1.8-0.8c-0.3-0.1-0.5-0.2-0.2,0.2c0.7,0.8,1.4,1.3,1.3,2.5c0,1.1-1,2.3-2.3,2.3
		c-1.6,0-2.3-1.3-2.3-2.4c0-0.8,0.4-1.6,1.1-2.1c0.4-0.3,0.3-0.6-0.2-0.3c-0.5,0.4-1,0.6-1.6,0.6c-1.5,0-2.1-1.3-2-2.5
		c0.1-1.2,1.1-2.3,2.4-2.2c1.2,0.1,1.8,1.1,2.1,2.1c0.1,0.3,0.3,0.4,0.3-0.1c-0.3-2.2-1.1-3.6-1.1-3.6H180.9z M180.9,125.8"/>
	<g>
		<defs>
			<rect id="SVGID_3_" x="70.1" y="3" width="134.8" height="174.4"/>
		</defs>
		<clipPath id="SVGID_8_">
			<use xlink:href="#SVGID_3_"  overflow="visible"/>
		</clipPath>
		<path clip-path="url(#SVGID_8_)" fill="none" stroke="#000000" stroke-width="0.2" d="M88.2,19V3.4 M86,21.2H70.4 M186.9,19V3.4
			 M189.1,21.2h15.6 M88.2,161v15.6 M86,158.8H70.4 M186.9,161v15.6 M189.1,158.8h15.6"/>
	</g>
</g>
<g>
	<path fill="#FFFFFF" d="M132.2,21.4H221c2.6,0,4.7,2.1,4.7,4.7v127.8c0,2.6-2.1,4.7-4.7,4.7h-88.9c-2.6,0-4.7-2.1-4.7-4.7V26.1
		C127.5,23.5,129.6,21.4,132.2,21.4L132.2,21.4z M132.2,21.4"/>
	<path fill="none" stroke="#000000" stroke-width="0.7974" d="M132.2,21.4H221c2.6,0,4.7,2.1,4.7,4.7v127.8c0,2.6-2.1,4.7-4.7,4.7
		h-88.9c-2.6,0-4.7-2.1-4.7-4.7V26.1C127.5,23.5,129.6,21.4,132.2,21.4L132.2,21.4z M132.2,21.4"/>
	<path d="M130.2,37.9c0.1-1.9,0.8-2.6,2.2-3.7c-1.1-0.8-1.6-2-1.5-2.9c0.2-2.4,2.1-3.6,4.2-3.5c2.1,0.1,3.8,1.7,4,3.4
		c0.1,1.5-0.3,2.2-1.4,3c1.3,1.1,2.1,1.8,2.1,3.7c0,1.9-1.7,4.2-4.5,4.2C132.3,42.2,130.1,39.8,130.2,37.9L130.2,37.9z M138.2,37.9
		c0.1-1.7-1.4-2.9-3.2-2.9c-1.7,0-3.3,1.4-3.3,3c0,1.7,2,2.6,3.3,2.6C136.6,40.6,138.1,39.4,138.2,37.9L138.2,37.9z M137.6,31.7
		c0-1.5-1.3-2.5-2.8-2.5c-1.3,0-2.6,1-2.6,2.2c0,1.5,1.5,2.3,2.8,2.3C136.2,33.8,137.6,32.8,137.6,31.7L137.6,31.7z M137.6,31.7"/>
	<path d="M222.4,142c-0.1,1.9-0.8,2.6-2.2,3.7c1.1,0.8,1.6,2,1.5,2.9c-0.2,2.4-2.1,3.6-4.2,3.5c-2.1-0.1-3.8-1.7-4-3.4
		c-0.1-1.5,0.3-2.2,1.4-3c-1.3-1.1-2.1-1.8-2.1-3.7c0-1.9,1.7-4.2,4.5-4.2C220.3,137.8,222.4,140.1,222.4,142L222.4,142z M214.4,142
		c-0.1,1.7,1.4,2.9,3.2,2.9c1.7,0,3.3-1.4,3.3-3c0-1.7-2-2.6-3.3-2.6C216,139.4,214.5,140.5,214.4,142L214.4,142z M214.9,148.3
		c0,1.5,1.3,2.5,2.8,2.5c1.3,0,2.6-1,2.6-2.2c0-1.5-1.5-2.3-2.8-2.3C216.3,146.2,215,147.2,214.9,148.3L214.9,148.3z M214.9,148.3"
		/>
	<path d="M196.2,58.8c1.3-2.5,2.2-5.1,2.4-7.9c0.2-1-0.5-1-0.6-0.3c-1.8,6.9-11.3,5-11-1.5c0.3-5.2,5.5-6.4,8.2-4.6
		c1.1,0.6,1,0.3,0.4-0.4c-4-4.5-1.6-10.3,3.9-10.4c5.9,0.3,7.4,6.5,3.8,10.2c-0.4,0.4-1.4,1.8,0.1,0.9c3.6-2.6,8.7,0.2,8.6,4.2
		c-0.2,7.4-9.2,7.9-11.1,1.8c-0.2-0.7-0.7-1-0.6,0.1c0.3,2.1,0.8,5.3,2.4,8H196.2z M196.2,58.8"/>
	<path d="M196.2,102.9c1.3-2.5,2.2-5.1,2.4-7.9c0.2-1-0.5-1-0.6-0.3c-1.8,6.9-11.3,5-11-1.5c0.3-5.2,5.5-6.4,8.2-4.6
		c1.1,0.6,1,0.3,0.4-0.4c-4-4.5-1.6-10.3,3.9-10.4c5.9,0.4,7.4,6.5,3.8,10.2c-0.4,0.4-1.4,1.8,0.1,0.9c3.6-2.6,8.7,0.2,8.6,4.2
		c-0.2,7.4-9.2,7.9-11.1,1.8c-0.2-0.7-0.7-1-0.6,0.1c0.3,2.1,0.8,5.3,2.4,8H196.2z M196.2,102.9"/>
	<path d="M150.6,102.9c1.3-2.5,2.2-5.1,2.4-7.9c0.1-1-0.5-1-0.6-0.3c-1.8,6.9-11.3,5-11-1.5c0.3-5.2,5.5-6.4,8.2-4.6
		c1.1,0.6,1,0.3,0.4-0.4c-4-4.5-1.6-10.3,3.9-10.4c5.9,0.4,7.4,6.5,3.8,10.2c-0.4,0.4-1.4,1.8,0.1,0.9c3.6-2.6,8.7,0.2,8.6,4.2
		c-0.2,7.4-9.2,7.9-11.1,1.8c-0.2-0.7-0.7-1-0.6,0.1c0.3,2.1,0.8,5.3,2.4,8H150.6z M150.6,102.9"/>
	<path d="M172.7,80.8c1.3-2.5,2.2-5.1,2.4-7.9c0.2-1-0.5-1-0.6-0.3c-1.8,6.9-11.3,5-11-1.5c0.3-5.2,5.5-6.4,8.2-4.6
		c1.1,0.6,1,0.3,0.4-0.4c-4-4.5-1.6-10.3,3.9-10.4c5.9,0.3,7.4,6.5,3.8,10.2c-0.4,0.4-1.4,1.8,0.1,0.9c3.6-2.6,8.7,0.2,8.6,4.2
		c-0.2,7.4-9.2,7.9-11.1,1.8c-0.2-0.7-0.7-1-0.6,0.1c0.3,2.1,0.8,5.3,2.4,8H172.7z M172.7,80.8"/>
	<path d="M150.6,58.8c1.3-2.5,2.2-5.1,2.4-7.9c0.1-1-0.5-1-0.6-0.3c-1.8,6.9-11.3,5-11-1.5c0.3-5.2,5.5-6.4,8.2-4.6
		c1.1,0.6,1,0.3,0.4-0.4c-4-4.5-1.6-10.3,3.9-10.4c5.9,0.3,7.4,6.5,3.8,10.2c-0.4,0.4-1.4,1.8,0.1,0.9c3.6-2.6,8.7,0.2,8.6,4.2
		c-0.2,7.4-9.2,7.9-11.1,1.8c-0.2-0.7-0.7-1-0.6,0.1c0.3,2.1,0.8,5.3,2.4,8H150.6z M150.6,58.8"/>
	<path d="M202.6,121.1c-1.3,2.5-2.2,5.1-2.4,7.9c-0.2,1,0.5,1,0.6,0.3c1.8-6.9,11.3-5,11,1.4c-0.3,5.2-5.5,6.4-8.2,4.6
		c-1.1-0.6-1-0.3-0.4,0.4c4,4.5,1.6,10.3-3.9,10.4c-5.9-0.4-7.4-6.5-3.8-10.2c0.4-0.4,1.4-1.8-0.1-0.9c-3.6,2.6-8.7-0.2-8.6-4.2
		c0.2-7.4,9.2-7.9,11.1-1.8c0.2,0.7,0.7,1,0.6-0.1c-0.3-2.1-0.8-5.3-2.4-8H202.6z M202.6,121.1"/>
	<path d="M179.2,99.4c-1.3,2.5-2.2,5.1-2.4,7.9c-0.2,1,0.5,1,0.6,0.3c1.8-6.9,11.3-5,11,1.5c-0.3,5.2-5.5,6.4-8.2,4.6
		c-1.1-0.6-1-0.3-0.4,0.4c4,4.5,1.6,10.3-3.9,10.4c-5.9-0.3-7.4-6.5-3.8-10.2c0.4-0.4,1.4-1.8-0.1-0.9c-3.6,2.6-8.7-0.2-8.6-4.2
		c0.2-7.4,9.2-7.9,11.1-1.8c0.2,0.7,0.7,1,0.6-0.1c-0.3-2.1-0.8-5.3-2.4-8H179.2z M179.2,99.4"/>
	<path d="M157.1,121.1c-1.3,2.5-2.2,5.1-2.4,7.9c-0.2,1,0.5,1,0.6,0.3c1.8-6.9,11.3-5,11,1.4c-0.3,5.2-5.5,6.4-8.2,4.6
		c-1.1-0.6-1-0.3-0.4,0.4c4,4.5,1.6,10.3-3.9,10.4c-5.9-0.4-7.4-6.5-3.8-10.2c0.4-0.4,1.4-1.8-0.1-0.9c-3.6,2.6-8.7-0.2-8.6-4.2
		c0.2-7.4,9.2-7.9,11.1-1.8c0.2,0.7,0.7,1,0.6-0.1c-0.3-2.1-0.8-5.3-2.4-8H157.1z M157.1,121.1"/>
	<path d="M133.4,55.4c0.5-1.1,1-2.1,1.3-3.3c0.2-1.1-0.2-0.7-0.4,0c-0.3,1-1.2,1.5-2,1.5c-1.5,0-2.2-1.1-2.2-2.4
		c-0.2-1.3,1.2-2.3,2.2-2.2c0.8,0.1,1.4,0.5,1.8,0.8c0.3,0.1,0.5,0.2,0.2-0.2c-0.7-0.8-1.4-1.3-1.3-2.5c0-1.1,1-2.3,2.3-2.3
		c1.6,0,2.3,1.3,2.3,2.4c0,0.8-0.4,1.6-1.1,2.1c-0.4,0.3-0.3,0.6,0.2,0.3c0.5-0.4,1-0.6,1.6-0.6c1.5,0,2.1,1.3,2,2.5
		c-0.1,1.2-1.1,2.3-2.4,2.2c-1.2-0.1-1.8-1.1-2.1-2.1c-0.1-0.3-0.3-0.4-0.3,0.1c0.3,2.2,1.1,3.6,1.1,3.6H133.4z M133.4,55.4"/>
	<path d="M219.8,126.3c-0.5,1.1-1,2.1-1.3,3.3c-0.2,1.1,0.2,0.7,0.4,0c0.3-1,1.2-1.5,2-1.5c1.5,0,2.2,1.1,2.2,2.4
		c0.2,1.3-1.2,2.3-2.2,2.2c-0.8-0.1-1.4-0.5-1.8-0.8c-0.3-0.1-0.5-0.2-0.2,0.2c0.7,0.8,1.4,1.3,1.3,2.5c0,1.1-1,2.3-2.3,2.3
		c-1.6,0-2.3-1.3-2.3-2.4c0-0.8,0.4-1.6,1.1-2.1c0.4-0.3,0.3-0.6-0.2-0.3c-0.5,0.4-1,0.6-1.6,0.6c-1.5,0-2.1-1.3-2-2.5
		c0.1-1.2,1.1-2.3,2.4-2.2c1.2,0.1,1.8,1.1,2.1,2.1c0.1,0.3,0.3,0.4,0.3-0.1c-0.3-2.2-1.1-3.6-1.1-3.6H219.8z M219.8,126.3"/>
	<g>
		<defs>
			<rect id="SVGID_2_" x="109.2" y="3" width="134.7" height="174.4"/>
		</defs>
		<clipPath id="SVGID_9_">
			<use xlink:href="#SVGID_2_"  overflow="visible"/>
		</clipPath>
		<path clip-path="url(#SVGID_9_)" fill="none" stroke="#000000" stroke-width="0.2" d="M127.3,19V3.4 M125.1,21.2h-15.6 M225.9,19
			V3.4 M228.1,21.2h15.6 M127.3,161v15.6 M125.1,158.8h-15.6 M225.9,161v15.6 M228.1,158.8h15.6"/>
	</g>
</g>
<g>
	<path fill="#FFFFFF" d="M171.4,21.4h88.9c2.6,0,4.7,2.1,4.7,4.7v127.8c0,2.6-2.1,4.7-4.7,4.7h-88.9c-2.6,0-4.7-2.1-4.7-4.7V26.1
		C166.7,23.5,168.8,21.4,171.4,21.4L171.4,21.4z M171.4,21.4"/>
	<path fill="none" stroke="#000000" stroke-width="0.7974" d="M171.4,21.4h88.9c2.6,0,4.7,2.1,4.7,4.7v127.8c0,2.6-2.1,4.7-4.7,4.7
		h-88.9c-2.6,0-4.7-2.1-4.7-4.7V26.1C166.7,23.5,168.8,21.4,171.4,21.4L171.4,21.4z M171.4,21.4"/>
	<path fill="#131F67" d="M251.5,32.1l-71.8,0l0.4,115.3l72.1-0.1C251.7,108.9,251.6,70.5,251.5,32.1L251.5,32.1z M243.1,33.1l7.6,0
		v44.4c0,0-0.5,0-0.4-0.3c0.1-0.4,0-1.2-0.3-1.5c-0.1-0.1-0.3-0.4-0.4-0.5c-0.2-0.4-0.5-0.8-0.8-0.9c-0.1-0.1-0.3-0.1-0.3-0.2
		c0-0.1-0.1-0.4-0.1-0.6c-0.1-0.6-0.3-0.6,0.1-1.3c1.4-2.2,1.9-4.2,1.8-6.2c-0.1-0.6-0.2-1.4-0.3-1.5c-1.4,1.4-2.3,3-3.3,4.3
		c-0.2-1.8-0.2-3.1-0.2-4.5c0.7-0.2,1.2-0.6,1.5-1.6c0,0,0.8,0.6,1.3,0.5l-0.3-1.1c2.1-0.6,2.4-3.3-0.1-3.9l0.2-1.4
		c0,0-0.7,0.2-1.1,0.4c-0.2,0.1-0.2,0-0.3-0.2c-1.1-1.8-2.9-1.4-3.7,0.4l-1-0.4c0.1,0.5,0.2,1,0.1,1.5c-2,0.9-1.5,3.3,0.1,3.7
		l-0.1,1.1l1.2-0.4c0.2,0.5,0.1,0.8,1.1,1.5c0,2.4-0.1,3.9,0,6c-1.3-1.3-2.5-2.2-4.6-2.8c0,0,0,0.5,0.1,1.3c0,0.3,0,0.2-0.1,0.2
		c-0.3,0-1.5-2-1.5-2s-0.1,0-0.3,0.1c-0.1,0.1,0.2,0.4,0.7,1.1c0.6,0.8,0.5,0.8,0.1,1.2c-2.5,2.1-6.1,10.2-5.5,10.9
		c-1.6,0.1-7.7,3.1-8.8,9.3c-0.1,0.3-0.2,0.6-0.2,0.6l-1.8-0.4c1.1-5.1,3.5-15.4,3.5-15.4s1.7-0.5,2.7-0.6l0-0.4l-2.3,0.5l0.1-0.9
		l2.2-0.4l0-0.2l-2.3,0.3l0.4-1.5c0,0-5.2,0.8-7.1,0.7c0,0,0,3.4,0,7.5c-0.4,3-0.6,8.9-0.6,8.9l-2.1-1.2c-0.2-4.3-0.3-15.2-0.3-15.2
		l-7.1-1.1l0.2,1.7c-5.9-2.3-11.8-4.5-16.1-9c2.7-2,7.1-4.1,7.1-4.1l-0.1-0.3c-11,5.6-15,9.6-20.5,14.4l-0.1-40.2l29.9,0l-0.1,7.3
		c0,0,0,0.2-0.1,0.3c-0.4,1.8,0.7,4.9,0.5,6.5c0.1,0.5,0.1,1.4,0.1,1.4c-1.8,2.4-2.7,4.8-3.5,7.6c-0.3,0.1-0.8,0.4-1.1,0.5l-0.1,0.4
		c0.7-0.4,2.7-1,2.7-1c8.8,4.3,15.4,3.3,22.3,0.1c-1.1,3.9,1.3,8.8,5.3,9.9c0.5,0.1,1.2,0.2,1.7,0.1c0.4-0.1-1-3.4-1.6-3.6
		c-1.9-0.8-2.7-2.8-2.5-5l-0.3-0.5c-0.7,2.7,0.9,5.5,3.1,6.2l0.6,1.3c-3.9-1.2-5.6-4.8-4.3-8.5c0-2.3-1.4-3.3-2.1-4.2
		c-3.4-1.3-4-4.5-3.4-7c1.6,0.7-1.1-2.2-1.1-2.2c-1.2,2.5-1.7,5.7,1,9c-1.7,2.3-4,4.1-6.4,5.6c-3.6,1.9-6.4,0.6-8.1-3.6
		c-1.1-2.5-1.4-5-1.4-7.7c0-1.6,0-1.7,0.6-1.4c0.6,0.3,1.8,0.3,2.6-0.1c1-0.5,1-0.2-0.1,0.9c-0.3,0.3-0.6,0.6-0.6,0.6
		c0,0.3,0.5,0.1,1.1-0.6c0.2-0.2,0.4-0.5,0.5-0.5c0.1,0,0.1,0.3,0,0.7c0,0.1-0.2,0.7-0.3,1.2c-0.1,0.5-0.3,1.2-0.3,1.4
		c-0.3,0.9-0.2,1.4,0.7,1.8c0.5,0.2,1.3,1,1.3,1c0,0-0.2-0.9-0.1-1.1c0.1-0.3,0.5-0.1,0.9,0.1c0.9,0.4,1.4,0.4,1.9,0
		c0.7-0.5,0.5-1.8-0.3-2.1c-0.6-0.2-0.7,0-0.1,0.4c0.9,0.6-0.1,1.6-0.9,1c-0.6-0.5-1.6-0.5-1.7-0.1c-0.1,0.4-0.2,0.3-0.6,0.1
		c-0.6-0.4-0.6-0.4-0.1-2.5c1-3.9,0.9-5.3-0.4-6.5c-1-0.9-2.6-1.3-4.3-0.3v-1.3c2.5-1,4.3-2.6,5.7-5.4h0.3c1.5,3.1,3.8,5.4,8.2,7
		c1.7,1.7-2.2-4.9-0.9-2.2c-2.3-0.9-4.4-2.7-5.6-4.9h0.6c0.7,1,2,2.7,4.5,4c0.2,0.2,0.4,0,0.4,0s-2-3.2-2.4-3.9l20.3-0.1
		c-0.6,4.9-1.6,10.3,2,20c-1.7-0.9-8.4,1-7.2,1.4c0.6-0.7,4.9-1.7,8-0.9C245,53.1,240.4,42.5,243.1,33.1L243.1,33.1z M245.2,53.4
		C245.2,53.4,245.3,53.4,245.2,53.4C245.3,53.4,245.2,53.4,245.2,53.4L245.2,53.4z M229.5,72.5l0,0.8l0.2,0L229.5,72.5L229.5,72.5z
		 M211.2,33.1h0.9c-0.2,0.4-0.5,0.7-0.9,1L211.2,33.1z M212.7,33.1h1c-0.7,1.2-1.5,1.9-2.5,2.5l0-0.9
		C211.8,34.2,212.3,33.7,212.7,33.1L212.7,33.1z M214.3,33.1h0.9c-1.2,1.8-2.4,3.1-4,3.9v-0.8C212.2,35.5,213.5,34.4,214.3,33.1
		L214.3,33.1z M215.7,33.1h0.7c-1.2,2.3-2.9,4-5.2,4.9v-0.6C213.6,36.1,214.7,34.6,215.7,33.1L215.7,33.1z M217.6,33.1h0.9
		c1.2,2.3,3.6,4.6,6.3,5.5l0.4,1C221.7,38.3,219.3,36.5,217.6,33.1L217.6,33.1z M220.1,33.1h0.6c0.6,0.9,1.4,1.6,2.3,2.2l0.6,1.1
		C222.4,35.6,221,34.6,220.1,33.1L220.1,33.1z M221.2,33.1l0.7,0l0.9,1.5C222.2,34.3,221.8,33.6,221.2,33.1L221.2,33.1z M220.4,39.2
		c-0.9,0-1.8,0.3-2.4,0.8c-0.7,0.5-0.2,1.1,0.8,0.7c1.6-0.7,3.5-0.4,5.4,0.7c1.7,0.9,1.1,0-0.5-1.1
		C222.7,39.6,221.5,39.2,220.4,39.2L220.4,39.2z M212.9,40.4c1.3,0,2.9,0.6,2.9,1.4c-0.9-0.8-2.7-1.1-4.4-0.3
		c-0.1,0-0.2-0.5-0.1-0.7C211.7,40.5,212.3,40.4,212.9,40.4L212.9,40.4z M221.1,40.9c-0.9,0-1.6,0.2-2,0.7c-0.2,0.2-0.2,0.3-0.4,0.2
		c-0.4-0.1-0.4,0.2,0.1,0.8c0.2,0.3,0.2,0.7-0.1,1.1c-0.3,0.5-0.3,0.5,0.7,1c0.8,0.4,1.4,0.9,2.1,1.3c0.5,0.3,0.6,0,0.1-0.3
		c-0.2-0.1-0.6-0.5-1-0.7c-0.7-0.5-1.2-0.9-0.7-0.7c0.3,0.1,0.3,0.1,0.6,0.2c0.7,0.2,1.5,0.2,2.1,0.1c0.4-0.1,1-0.4,1.5-0.8
		c0.1-0.1,0.2,0,0.5,0c1.1,0,0.9-0.3-0.7-1.2c-1.6-0.9-2.8-1-3.9-0.6c-0.4,0.2-0.7,0.3-0.6,0.1c0.1-0.1,0.2-0.3,0.4-0.4
		c1.6-1,3-0.2,4.4,0.6c0.6,0.4,0.8,0.5,0.9,0.4c0.1-0.2-0.7-0.7-1.8-1.2C222.6,41.1,221.8,40.9,221.1,40.9L221.1,40.9z M215.8,42.1
		c0.3,0.1,0.2,0.4-0.1,0.3c-1.5-0.7-1.8-1-3.6-0.4c-0.6,0.2-0.8,0-0.1-0.3C213.5,41,214.7,41.5,215.8,42.1L215.8,42.1z M214.7,42.9
		c-0.4,2.1-2.5,1.4-2.3,0l0.4,0c0,1.3,1.3,1.3,1.5,0L214.7,42.9z M226.9,42.9l0.6,1.2c-1.2,3,0.4,7.1,4.1,8.1c0,0,0.6,0.9,0.5,1
		C225.2,51.7,225.7,45.2,226.9,42.9L226.9,42.9z M220.4,43l0.2,0c0.6,1.5,1.4,0.6,1.6,0l0.4,0C222.5,44.5,220.2,44.7,220.4,43
		L220.4,43z M215.2,43c0.3,0,0.4,0.4,0.3,0.5c0,0-0.5,0.5-0.6,0.2C214.8,43.3,215.1,43,215.2,43L215.2,43z M212,43
		C212,43,212,43,212,43c0.2,0.1,0.3,0.5,0.2,0.7c-0.1,0.1-0.5,0-0.6-0.2C211.5,43.3,211.6,43,212,43L212,43z M223,43.2
		c0.1,0,0.5,0.2,0.5,0.3c0,0-0.5,0.4-0.6,0.4C222.6,43.8,223,43.2,223,43.2C223,43.2,223,43.2,223,43.2L223,43.2z M220,43.2
		C220,43.2,220,43.2,220,43.2c0,0,0.4,0.2,0.1,0.6c0,0-0.4-0.1-0.4-0.2C219.7,43.5,220,43.3,220,43.2L220,43.2z M228.3,45.9
		c-0.1,1.7,0.4,3.4,2.3,4.5l-0.4-0.7c-0.5-0.4-1.5-1.5-1.4-2.8L228.3,45.9z M211.2,49l0.2,1.1c-1,1.7-1.8,3.4-2.5,5.4l-1,0.4
		C208.7,53.4,209.5,51.4,211.2,49L211.2,49z M211.6,50.8l0.3,1c-0.5,0.9-1.1,2-1.4,3.3l-1.1,0.4C209.9,53.8,210.6,52.2,211.6,50.8
		L211.6,50.8z M215.1,51.2C215.1,51.2,215.1,51.2,215.1,51.2c-0.1,0.2-0.1,0.7,0,1.6c0,0.2,0.2,0.1,0.6-0.1c0.4-0.2,0.4-0.2,0.8-0.1
		c1.1,0.4,1.6,0.2,2,0.1c0.6-0.2,0.9-0.1,1.3,0.1c0.2,0.1,0.5,0.2,0.5,0.2c0.3,0.1,0.2,0,0-0.8c-0.2-0.9-0.1-1-0.5-0.8
		c-0.1,0.1-0.3,0.2-0.4,0.2c-0.3,0-0.8-0.4-1.2-0.2c-0.8,0.3-0.8,0.2-1.5,0c-0.4-0.1-0.7,0.1-1,0.2
		C215.6,51.7,215.3,51.2,215.1,51.2L215.1,51.2z M228.1,51.7c1.3,1.2,2.6,1.6,4,2c-0.2,0.6-0.5,1.2-0.7,2c-7.5,3.9-15,3.8-22,0.2
		l3.7-1.4c2,3.5,4.6,4.4,7.5,3.3C223.7,56.3,226.1,54.2,228.1,51.7L228.1,51.7z M212.1,52.4l0.3,0.9l-0.5,1.3l-0.9,0.4
		C211.2,54,211.6,53.3,212.1,52.4L212.1,52.4z M218.8,53.3c-0.2,0-0.6,0.2-1.3,0.2c-0.4,0-0.7,0-0.9,0c-0.3,0.1,0.1,0.2,0.8,0.4
		c0.8,0.2,1.7-0.1,1.8-0.4C219.2,53.4,219.1,53.3,218.8,53.3L218.8,53.3z M212.6,53.8l0.2,0.4l-0.3,0.1L212.6,53.8z M232.5,54
		l0.6,1.3c-1,2.1-1.6,7.8,4.8,9.6l0.3,0.8C233.8,65.8,229.4,60.2,232.5,54L232.5,54z M217.7,54.4c-0.6,0-1.3,0.2-1.7,0.5
		c-0.4,0.3,0.1,0.5,0.6,0.3c0.6-0.3,1.7-0.3,2.4,0.1c0.5,0.3,0.7,0.3,0.4-0.2C219.1,54.7,218.4,54.4,217.7,54.4L217.7,54.4z
		 M245.9,55.9c1.7,0,1.9,2.4,1.5,2.6c0.1,0,0.4-0.1,0.8-0.1c1.2,0,1.9,0.7,1.9,1.7c0.1,1-0.7,1.6-1.8,1.5c-0.4,0-0.7-0.1-0.7,0
		c0.2,0.8,0,2-1.1,2.3c-0.1,0-0.3,0.2-0.3,0.3c-0.1,1.3,0.3,5.6,0.3,5.6s2-3.3,2.4-3.8c0.9-1.2,1-1.1,1,0.9
		c-0.1,2.8-0.6,3.4-2.2,5.7c-0.7,1-2.3,0.5-2.2,1.1c0,0.1,0.3,0.4,0.6,0.7c0.2,0.2,0.3,0.3,0.7,0.2c0.7,0,1-0.2,0.6,0.4
		c-0.3,0.5-1.5,0.6-1.6,0.8c-0.3,0.6-0.1,0.5-0.6,1c-0.4,0.4-0.3,0.2-0.1,0.6c0.3,0.5,0.2,1.4-0.1,2c-0.2,0.5-0.2,0.9-0.2,0.9
		c0,0,0.6-0.7,0.8-1.5c0.2-0.7,0.4-1,0.4-0.6c0,0.5,0.1,1.1,0.5,1.4c0.3,0.2,0.4,0.4,0.3,0.6c-0.1,0.3,0.2,0.5,0.5,0.7
		c0.1,0.1,0.3,0.1,0.2,0.3c-0.1,0.4,0.1,0.9,0.4,1c0.1,0.1,1,0,1.1-0.5c0-0.2,0-0.8-0.3-0.8c-0.2-0.1-0.2-0.2,0.2-0.4
		c0.5-0.3,0.9-0.6,1.2-0.6c0.4,0,0.7-0.4,0.7-0.4l0.1,26.3l-11.6,9.9c-2.7-2.3-5.7-4.6-8.9-6.3l-1.1-0.7l0.4-0.5l-1.9-2.5l2.1-1.7
		l0.5,0.7l-1,1l1.5,1.7l3.4-3.3l-2.3-2.2l1.2-2.2l0.8,0.4l-0.6,1.4l1.7,1.1l2.2-4.3l-2.7-1.2l0.7-2.9l0.8,0.1l-0.3,2.1l2.1,0.4
		l0.9-4.9l-3.1-0.6l0.3-2.8l0.9,0l-0.1,1.5l2.2,0.3l0.4-4.2l-3.1-0.5l0.4-3.3l0.7,0.1l-0.1,2l2.2,0.4c0.2-1.4,0.4-3.1,0.8-4.4
		l-2.9-1.1l1-2.8l0.7,0.2l-0.6,1.5l2.1,0.9l1.8-3.5l-2.5-1.8c0.6-0.9,1.1-1.8,1.9-2.6l0.5,0.4c0,0-0.2,0.2-0.5,0.6
		c-0.3,0.5-0.4,0.7-0.4,0.8c0,0.1,1.6,1.3,1.7,1.3c0.1,0,0.7-0.5,0.9-0.8c0.3-0.3,0.4-0.4,0.7-0.2c0.1,0,0.1,0.1,0.2,0.2
		c0.1,0.1,0.1,0.2,0.1,0.2c0,0.1,0,0.1,0,0.1c0,0,0.1-0.1,0.2-0.1c0.2-0.1-0.4-0.7-0.9-0.9c-1.5-0.9-3.3-2.5-3.7-4.5
		c-0.2-0.9,2.2,0.2,3.8,1.8c0.2,0.2,1.1,1.1,1.1,1.1c-0.1-2.3-0.3-4.7-0.2-7l-0.4-0.2c-0.5-0.3-0.7-0.9-0.7-1.5
		c0-0.4,0.3-0.6-0.5-0.6c-1.6,0-2.5-1.5-1.6-2.8c0.3-0.5,1.8-0.7,1.8-0.7C243.9,56.8,245,55.9,245.9,55.9L245.9,55.9z M245.3,73.7
		C245.3,73.8,245.3,73.8,245.3,73.7L245.3,73.7z M247.4,58.5C247.4,58.5,247.3,58.5,247.4,58.5C247.4,58.5,247.4,58.5,247.4,58.5
		L247.4,58.5z M194.3,63.5c4.5,3.8,7.3,6.3,16.4,9.1l0.2,1.3c-5.2-1.2-10.9-3.6-17.7-9.7L194.3,63.5z M192.9,64.3
		c2.8,2.6,5.7,4.6,8.6,6.3l1,0.6l-0.5,0.5l1.7,2.5l-2.2,1.8l-0.5-0.5l1.2-1.1l-1.6-1.6l-3.4,3.4l2.3,2l-1.3,2l-0.5-0.2l0.7-1.4
		l-2.1-1.2l-2.4,4.4l3,1.4l-0.7,2.7l-0.7,0l0.2-2.1l-2.3-0.4l-0.8,4.9l2.9,0.5l-0.1,2.8l-0.8,0l0.1-1.6l-2.3-0.1l-0.2,4.1l2.9,0.4
		l-0.3,3.4l-0.7-0.2l0.1-2.2l-2.2-0.2l-0.8,4.6l2.9,0.8l-1,2.9l-0.6-0.3l0.4-1.5c-0.5-0.2-2-0.9-2-0.9l-1.9,3.6l2.5,1.7l-1.5,2.7
		l-0.6-0.4l1.1-1.6l-2.1-1.3l-1.2,1.6c-0.5-0.4-1.4-1-1.7-1.4c-0.4-0.3-0.6-0.4-1.1-0.3c-0.4,0.1-0.7,0.2-0.6,0
		c0-0.1,0.7-0.5,1.8-1.2c0.3-0.2,0.5-0.4,0.5-0.5c0-0.1,0.2-0.3,0.4-0.5c0.2-0.1,0.2-0.3,0.1-0.4c-0.2-0.8-0.1-2.1,0.3-2.9
		c0.3-0.6,0.4-0.7,0.2-0.7c-0.5,0.1-1.2,2-1.3,2.5c0,0-0.1-0.5-0.1-0.7c-0.1-0.4-0.1-0.6-0.4-0.6c-0.3-0.1-0.2-0.2-0.3-0.5
		c-0.1-0.4-0.2-0.7-0.6-0.8c-0.3-0.1-0.4-0.2-0.4-0.5c0-0.3-0.3-0.7-0.5-0.9l-1.2,0.4c-0.1,0.3,0,0.7,0.2,0.9
		c0.6,0.6-0.3,0.6-0.9,0.9c-0.2,0.1-0.3,0.3-0.5,0.3c-0.4-0.1-0.3,1-0.7,0.9l0.1-26.7C183.8,71.1,192.9,64.3,192.9,64.3L192.9,64.3z
		 M240.1,69.1l0.4,0.5c-1.4,1.6-2.4,3.2-3.5,5.2c-1,1.7-1.8,4-2.2,6.6c-0.3,1.6-0.4,3.2-0.6,4.8c-0.2,1.7-0.2,4.1-0.6,5.9
		c-0.6,5-2,7.7-5.1,10.5c-1.3,1.3-5.5,3.6-5.6,3.6l-1-0.2c8.6-4.4,10.7-7.4,11.7-17.8C233.8,75,239.7,69.9,240.1,69.1L240.1,69.1z
		 M241,69.9l0.5,0.4l-2.5,3.5l2.5,1.7l-1,2.3l-0.7-0.3l0.5-1.6l-2.1-0.9l-1.7,4.5l3,0.9l-0.5,3l-0.6-0.2l0-2l-2.2-0.4l-0.6,5.1
		l3.2,0.5l-0.2,2.6l-0.8-0.1l0-1.6l-2.2-0.1l-0.5,4.4l3.2,0.5l-0.6,3.1l-0.7-0.2l0.2-2.1l-2.1-0.3l-1.2,4.2l2.7,1.4l-1.3,2.7
		l-0.6-0.4l0.7-1.6l-2.1-1l-2,3.5l2.2,2.2l-2.1,2.2l-0.5-0.6l1.1-1.2l-1.6-1.6l-3.4,2.7l1.7,2.3l-0.2,0.3l-1.8-0.7l-0.9-1.1l-1,0.5
		l-0.8-0.3c5.1-2.7,8.3-5.7,9.7-10.4c0.7-2.6,1-5.4,1.2-8.2c0.1-1.5,0.3-2.9,0.5-4.4c0.2-2.4,0.6-4.3,1.6-6.6
		C237.8,74,239.2,72,241,69.9L241,69.9z M213.8,71.7l3.5,1.8l-0.1,1.2l-3.2-1.6L213.8,71.7z M214.7,71.7l2.5,0.3l0,1L214.7,71.7z
		 M203.6,71.8l1.4,0.6l1.2,1.4l0.9-0.6l1,0.4c-3.1,1.6-5.9,3.6-8.1,6.9c-2.4,3.7-2.7,8.6-3,13.3c-0.5,6.5-1.6,11-5.9,16.3l-0.6-0.4
		l2.3-3.7l-2.6-1.7l1.2-2.2l0.6,0.2l-0.5,1.3l2.2,1.1l1.7-4.7l-3.1-1l0.5-2.9l0.8,0.1l-0.2,2.1l2.2,0.3l0.6-4.9l-2.9-0.5l0.1-2.6
		l0.7,0.1l0,1.6l2.3,0.1l0.2-4.5l-2.9-0.3l0.4-3.2l0.8,0.1l-0.2,1.9l2.2,0.3l1.1-4.1l-2.9-1.3l1.6-2.8l0.7,0.3l-0.7,1.5l2,1l2.1-3.2
		l-2.2-2.1l2.2-2.3l0.5,0.5l-1.2,1.4l1.7,1.5l3.3-2.7l-1.6-2.4L203.6,71.8z M224.4,71.9l-0.1,1.1l-3.5,2l0-1.1L224.4,71.9z
		 M243,71.9l0.8,0.5l-0.6,0.7l-0.7-0.4L243,71.9z M222.9,72.1l-2.1,1.2v-1.2L222.9,72.1z M247.5,73.2c0.1,0,0.2,0,0.3,0.1
		c0.2,0.1,0.2,0.5-0.1,0.6c-0.3,0.2-1.2,0.2-1.2,0C246.4,73.6,247,73.2,247.5,73.2L247.5,73.2z M214.2,73.7l3,1.6l0,1.1l-2.9-1.6
		L214.2,73.7z M224,73.7l-0.2,1.5l-3.1,1.6l0-1.3L224,73.7z M209,73.8l1.2,0.3c-4.5,2-9,5-10.8,10.1c-0.5,1.5-0.9,3.2-1.2,5.4
		c-0.1,2.3-0.4,4.6-0.5,6.5c-0.2,3.9-1.5,9.2-6,14.9l-0.4-0.3c2.7-3.4,4.2-6.4,5-9.6c1.4-5.1,0.7-10.8,2.2-16c0.9-3.1,2.8-6,5.6-8.4
		C206.2,75.1,209,73.8,209,73.8L209,73.8z M211.1,74.2C211.1,74.2,211.1,74.2,211.1,74.2c1.1,3.7,2.5,10.5,2.5,10.5
		c-2.9-1.4-7.8-1.2-7.8-1.2s-2.7-3.5-3.3-3.8C204.7,76.8,210.7,74.2,211.1,74.2L211.1,74.2z M248.7,74.8c0.7,0,0.6,1-0.2,1.7
		c-0.4,0.4-0.6,0.3-1,0c-0.1-0.1-0.4-0.2-0.6-0.2c-0.5,0,0.5-1,1.3-1.4C248.4,74.8,248.5,74.8,248.7,74.8L248.7,74.8z M214.6,75.6
		l2.7,1.4l0,1.1l-2.5-1.3L214.6,75.6z M223.6,75.8l-0.1,1.2l-2.8,1.4l0-1.1L223.6,75.8z M249.6,76.2c0.1,0,0.2,0,0.2,0.1
		c0.4,0.4-0.3,1.7-1.2,2.1c-0.3,0.1-0.5,0.1-0.8-0.1c-0.1-0.1-0.3-0.3-0.4-0.2c-0.5,0-0.2-0.5,0.2-0.5c0.1,0,0.8-0.5,1.3-0.9
		C249.2,76.4,249.4,76.2,249.6,76.2L249.6,76.2z M246.8,76.7c0.6,0,0.8,0.5,0.1,0.7c-0.5,0.2-0.8,0-0.8-0.3
		C246.2,76.8,246.5,76.7,246.8,76.7L246.8,76.7z M214.9,77.4l2.4,1.2l0,1.2l-2.2-1.1L214.9,77.4z M223.4,77.6l-0.2,1.1l-2.6,1.3l0-1
		L223.4,77.6z M250.1,78c0.2,0,0.2,0.2,0.2,0.5c0,0.5-0.4,1-0.9,1.3c-0.4,0.2-0.7,0.2-0.8,0c-0.1-0.1-0.2-0.2-0.3-0.2
		c-0.8,0-0.7-0.2,0.1-0.6c0.3-0.1,0.8-0.5,1.1-0.7C249.8,78.1,250,78,250.1,78L250.1,78z M247.1,78.4c0.4,0,0.8,0.3,0.5,0.5
		c-0.2,0.1-0.8,0.2-1,0.1C246.4,78.7,246.6,78.4,247.1,78.4L247.1,78.4z M215.3,79.2l2,1.1l0,1.2l-1.9-1.1L215.3,79.2z M223.1,79.3
		l0,1.2l-2.3,1.1l0-1.1L223.1,79.3z M248,79.8c0.4,0,0.3,0.4,0,0.6c-0.2,0.2-0.5,0.1-0.7-0.1C247,79.8,247.7,79.8,248,79.8L248,79.8
		z M248.8,81c0.1,0.1,0,0.4-0.1,0.4c-0.2,0.1-0.6,0-0.7-0.1c-0.1-0.1,0-0.2,0.1-0.3C248.2,80.9,248.6,80.8,248.8,81L248.8,81z
		 M215.6,81l1.7,0.9l0,1.1l-1.6-0.9L215.6,81z M222.8,81.1l-0.1,1.1l-2,1l0-1.1L222.8,81.1z M201.8,81.8c0.4,0,0.8,0.3,0.5,0.8
		c-0.2,0.3-0.3,0.4-1,0.9c-0.3,0.2-0.5,0.4-0.5,0.4c0,0-0.2,0.1-0.3,0.2c-0.6,0.4-0.4-0.5,0.4-1.8C201.1,81.9,201.4,81.8,201.8,81.8
		L201.8,81.8z M222.6,82.7l-0.2,1.2l-1.8,0.9v-1.2L222.6,82.7z M215.9,82.9l1.5,0.7l0,1.2l-1.3-0.7L215.9,82.9z M233.3,82.9
		c0,0,0.1,0,0.1,0.1c0.1,0.2,0.1,0.9,0,1.3c-0.2,0.5-0.6-0.7-0.6-1C233,83.1,233.1,83,233.3,82.9L233.3,82.9z M202.8,83.2
		c0.6,0,1,0.4,0.8,1c-0.2,0.6-1.6,0.9-2.1,1.3c-0.4,0.2-0.5,0-0.4-0.4c0.1-0.2,0.1-0.3-0.2-0.3c-0.7-0.1-0.3-0.5,1-1.3
		C202.3,83.3,202.6,83.2,202.8,83.2L202.8,83.2z M231.9,83.5c0.2,0,0.5,0.1,0.7,0.4c0.5,0.5,0.8,1.5,0.5,1.8c-0.2,0-0.3,0.3-0.3,0.4
		c0,0.3-0.6-0.3-1.2-1.2C231.2,84.1,231.4,83.5,231.9,83.5L231.9,83.5z M207.5,83.7c1.8,0,5.2,0.4,9.9,3.3c0.6,0.4,1.2,0.8,1.9,1.1
		c1.8,1,3.3,1.6,5.6,2.1l-0.1,1.2c0,0.4,0.6,2.6,0.3,3.8c-0.4,0,0.4,0.4,0.4,0.4l0.5,1.1c0,0-2.8,0-4.1-0.3
		c-2.1-0.3-5.9-2.1-7.7-3.5c-1.9-1.4-4.8-2.6-7.2-3l0-1c0,0-0.2-3.5-0.4-4l-0.5-1.1C206.2,83.8,206.7,83.7,207.5,83.7L207.5,83.7z
		 M222.4,84.5l-0.1,1.2l-1.6,0.7v-1L222.4,84.5z M230.2,84.5c0.4,0,1.1,0.5,1.9,1.5c0.2,0.2,0.3,0.4,0.3,0.6c0,0.1-0.1,0.2-0.2,0.2
		c-0.3-0.1-0.4-0.2-0.5,0.2c0,0.1,0,0.3-0.1,0.2c-0.5-0.2-2.1-1.7-2-2.2C229.8,84.7,230,84.5,230.2,84.5L230.2,84.5z M216.2,84.6
		l1.1,0.6l0,1.2l-1-0.4L216.2,84.6z M203.9,85c0.4,0,0.6,0.1,0.7,0.4c0.3,0.7-0.2,1.1-1.6,1.4c-1.2,0.3-1.2,0.3-1-0.1
		c0.1-0.3-0.3-0.3-0.5-0.4c-0.4-0.1-0.1-0.2,1-0.7C203.1,85.1,203.5,85,203.9,85L203.9,85z M199.8,85.3c0,0,0.1,0,0.1,0.1
		c1.8,2.2,1.3,5.3-0.9,6.9c-0.3,0.2-0.3,0-0.2-0.3l0-0.6c0-0.1,2.6-1.7,0.7-5.3l0.2-0.5C199.7,85.4,199.7,85.3,199.8,85.3
		L199.8,85.3z M229.1,86c0.7,0,2.7,1.8,1.8,1.9c-0.1,0-0.1,0.1-0.1,0.2c0,0.1,0,0.2,0,0.3c-0.1,0.2-0.3,0.1-0.6-0.1
		c-0.9-0.5-1.1-0.7-1.4-1C228.1,86.7,228.3,86,229.1,86L229.1,86z M222.1,86.3l0,1l-1.4,0.7l0-0.9L222.1,86.3z M204.2,87
		c1,0,1.5,0.9,0.5,1.4c-0.4,0.2-1.6,0.1-2.2,0c-0.7-0.1-0.3-0.3-0.2-0.3c0.1-0.1,0.2-0.2-0.2-0.4c-0.3-0.3-0.4-0.4,0.3-0.4
		c0.3,0,1.1-0.1,1.4-0.2C203.9,87,204,87,204.2,87L204.2,87z M233.1,87.2c0.1,0,0.1,0.1,0,0.4l0,0.6c-0.4,0.1-2.6,2.7-0.8,5.9
		l-0.1,0.6c-0.1,0.3-0.1,0.3-0.3,0.1c-1.3-0.9-1.7-5.5,1-7.4C233,87.3,233.1,87.2,233.1,87.2L233.1,87.2z M228,87.7
		c0.3,0,0.6,0.1,0.9,0.2c0.8,0.4,1.4,0.7,1.5,0.9c0.1,0.1,0,0.2-0.2,0.3c-0.2,0.1-0.2,0.1-0.2,0.4c0,0.1,0,0.3-0.1,0.3
		c-0.3,0-1-0.2-1.8-0.6C226.9,88.6,227.1,87.7,228,87.7L228,87.7z M221.8,87.8v1.2l-1.2-0.5L221.8,87.8z M202.3,88.8
		c0.1,0,0.3,0,0.5,0.1c0.3,0,0.7,0.1,0.9,0.1c1.3,0,1.9,0.9,0.8,1.4c-0.3,0.1-0.4,0.1-1.2-0.1c-0.4-0.1-0.9-0.2-1.1-0.3
		c-0.4-0.1-0.5-0.2-0.3-0.3c0.2-0.1,0.3-0.2,0.1-0.5C202,88.8,202.1,88.8,202.3,88.8L202.3,88.8z M233.1,88.8
		c-0.2,1.8-0.3,3.3-0.6,5C232.3,93.7,230.9,90.4,233.1,88.8L233.1,88.8z M227.5,89.6c0.4,0,1.2,0.2,1.9,0.5c0.6,0.2,0.7,0.3,0.3,0.5
		c-0.3,0.1-0.2,0.2-0.2,0.4c0.1,0.1,0.3,0.4,0,0.3c-0.4,0-1.5,0-1.8-0.1c-1-0.2-1.3-1.1-0.5-1.5C227.3,89.7,227.4,89.6,227.5,89.6
		L227.5,89.6z M201.9,90.1c0.1,0,0.3,0,0.6,0.1c1.8,0.6,2.5,1.2,1.6,1.9c-0.3,0.2-0.7,0.1-1.4-0.3c-0.8-0.4-1.1-0.7-1.3-0.8
		c-0.1-0.1-0.1-0.3,0.2-0.3c0.3,0,0.3-0.1,0.2-0.4C201.8,90.2,201.8,90.1,201.9,90.1L201.9,90.1z M206.7,90.3l1.4,0.3l-3.4,15
		c0,0.2-1.1,0.1-2.6,0.7c-0.1,0.1-0.1,0.2-0.1,0.2l2.4-0.4l-0.2,1.1l-2.2,0.4l0,0.3l2.5-0.4c0,0-0.1,1-0.2,1.4c0,0,4.6-0.7,6.3-0.8
		c0.3,0,0.7,0,0.7,0s0.1-11.8,0-13.1c0-1.4,0-3.1,0-3.1l2.4,1.3l0.4,14.9l7.4,1.2c-0.6-2.8,15.8,7.6,15.8,7.6l-2.7,1.4
		c-0.4,0.3-3.9,2.3-3.9,2.3l-0.3,0.5c5.7-2.6,14.3-8.2,20.5-14.2l0.1,39.4l-29.8,0.1c0,0,0-1.9,0-3.7l0-3.3
		c-0.1-2.1,0.2-4.4-0.4-6.2l-0.1-1.9c1.8-2.1,2.8-4.8,3.7-7.6c0,0,0.9-0.3,1.3-0.5l0.1-0.5c-0.9,0.4-2.8,1.2-2.8,1.2
		c0.2-0.2-4.2-2-6.9-2.4c-4.5-0.7-10.5,0-15.3,2.4c-0.2,0.2-0.3,0.2-0.3-0.1c1.1-4-1.2-8.1-5.3-9.3c-0.9-0.3-1.6-0.3-1.6-0.3
		l0.1,0.4c6.7,0.8,8.3,7.9,5.7,11.1c-0.7,1.1-0.8,1.4,0.6,1.4c5.7,0,7.7,6.4,5.1,9.9c0,0,0.2,0.4,0.2,0.4c1.6-2.2,2.1-6.3-0.8-9.1
		c2.1-2.4,6.3-6.2,9.8-6c1.3,0.1,2.6,1.6,3.4,2.9c1.8,2.6,2.3,6.3,2.4,8.4c0,0.6,0.1,1,0.1,1.2c0,0.8-0.2,0.7-0.7,0.6
		c-0.7-0.2-1.6-0.2-2.3,0c-1.1,0.3-0.9,0.1,0.1-1.1c0.6-0.7,0.7-0.9,0.4-1c-0.1,0-0.3,0.2-0.6,0.7c-1,1.5-0.9,0.9-0.2-1.5
		c0.5-1.5,0.4-1.6-0.8-2.6c-0.4-0.3-0.9-0.6-1-0.7c-0.2-0.5-0.3,0.1-0.1,0.5c0.2,0.4-0.2,0.6-1,0.2c-1.8-1-3,1-1.4,1.9
		c0.4,0.2,0.6,0,0.3-0.2c-1-0.9-0.3-1.7,1-0.9c0.8,0.5,1.1,0.3,1.3-0.3c0.1-0.2,1.4,0.6,1.3,1c0,0.2-0.1,0.9-0.3,1.4
		c-0.4,1.3-0.5,1.7-0.7,2.6c-0.3,1.6-0.3,2.4,0,3.1c0.7,1.5,2.6,2.3,4.2,1.6c0.2-0.1,0.7-0.2,0.7-0.2l0,1.1c-3.1,1.2-5.4,4.9-5.3,5
		l-1.1,0c-1.5-2.9-4.1-5.2-7.4-6.4c0,0-0.4-0.7,0,0.5c0,0.5,0.5,1.2,0.9,1.4c1.6,0.8,3.7,2.2,4.8,4.4l-0.8,0c-1-1.5-2.2-2.5-3.4-3.3
		c-0.3-0.1,0.2,2.7,1.3,3.5l-20.4,0.4c1.4-5.5,1.7-11.5-1.6-19.5c2.7,0.2,5.1-0.4,7.3-1.4l-0.2-0.6c-2.5,1.2-5.3,1.4-8,1.2
		c2.1,3.9,3.9,12,2.1,19.8l-7.5,0l-0.1-42.5c0,0,0.3,0.3,0.4,0.4c0.2,0.2,0.4,0.6,0.5,0.8c0.1,0.3,0.2,0.3,0.6,0.7
		c0.2,0.2,0.4,0.3,0.4,0.4c0,0.1,0,0.4,0.1,0.6c0.4,0.5,0.3,0.8,0,1.1c-1.4,1.5-2.3,4.6-1.6,8c1.7-1.1,3.5-4.2,3.5-4.2l0.2,4.1
		c-0.1,0-1.2,0.6-1.2,1.4c-0.5,0.1-1-0.1-1.5-0.2l0.3,1.2c-1.8,0.7-1.8,3.1,0.2,3.8c0,0-0.2,0.9-0.3,1.4l1.3-0.2
		c0.8,2.3,3.7,1.6,3.7,0c0,0,0.9,0.3,1.2,0.5l-0.3-1.6c3.3-1.7,0.8-3.9,0.1-3.8c0-0.4,0.2-0.6,0.4-1.1l-1.4,0.1
		c-0.2-0.8-1.2-1.5-1.2-1.4l-0.2-5.9c1,0.9,2,1.8,3.4,2.5c1.3,0.7,1.4,0.5,1.2-0.6c-0.1-0.5-0.1-0.8-0.1-0.8
		c0.5,0.1,1.6,1.6,1.6,2.4c0.4,0.6,0.8-1-0.3-2.2c3-3.1,5.2-8.2,5.7-11.8l3.9-1.6l0-0.5C204.6,95.6,206,93.1,206.7,90.3L206.7,90.3z
		 M210,91.2l0.9,0.4l-1,0.5L210,91.2z M201.3,91.4c0.2,0.1,0.4,0.3,0.8,0.5c0.8,0.6,1.2,1,1.2,1.3c0,0.2-0.1,0.4-0.3,0.5
		c-0.5,0.2-0.9,0-1.9-1c-0.3-0.3-0.5-0.5-0.6-0.7c-0.1-0.2,0-0.3,0.2-0.3C201.4,92.2,200.7,91.2,201.3,91.4L201.3,91.4z M229.1,91.6
		c0.2,0,0.3,0,0.4,0c0.2,0,0.3,0.2,0.1,0.3c-0.2,0.2-0.2,0.4,0.1,0.5c0.1,0.1,0.1,0.2-0.1,0.3c-0.1,0.1-0.3,0.1-0.5,0.2
		c-1.2,0.4-2.2,0.3-2.4-0.3c-0.3-0.7,0.3-1,1.8-1C228.7,91.6,228.9,91.6,229.1,91.6L229.1,91.6z M211,92l0,0.9l-1.3,0.6l0.1-0.9
		L211,92z M200.1,92.3c0.1,0,0.3,0.2,0.6,0.5c1.2,1.5,1.4,1.8,1,2.2c-0.5,0.5-1.2,0-1.9-1.3c-0.1-0.2-0.2-0.4-0.3-0.5
		c-0.3-0.3-0.1-0.4,0.2-0.4c0.2,0,0.3-0.1,0.3-0.2C200,92.4,200,92.3,200.1,92.3L200.1,92.3z M229.8,93.1c0.2,0,0.2,0.1,0.1,0.3
		c-0.1,0.2-0.2,0.3,0.1,0.5c0.1,0,0.2,0.2,0.1,0.2c-0.3,0.2-1.4,0.7-1.8,0.8c-0.8,0.3-1.3-0.4-0.8-1c0.2-0.3,1.6-0.8,2.3-0.8
		C229.7,93.1,229.8,93.1,229.8,93.1L229.8,93.1z M199.5,94c0.8,1.2,0.9,1.8,0.4,2.2c-0.3,0.3-1.1-0.1-1.2-0.9
		c-0.1-0.6-0.2-1.2,0-1.7C198.9,92.7,199.4,93.8,199.5,94L199.5,94z M211,93.5l0,1l-1.6,0.8l0.1-1.1L211,93.5z M214.2,93.5l1.5,0.9
		l0.1,0.8l-1.5-0.8L214.2,93.5z M230.6,94.4C230.6,94.4,230.7,94.5,230.6,94.4c0.1,0.2,0,0.6,0.2,0.6c0.4,0.1,0.3,0.2,0,0.5
		c-0.4,0.4-0.8,0.8-1.3,1.1c-1.3,0.5-1.7-0.9-0.5-1.6c0.4-0.2,0.8-0.4,1.1-0.5C230.3,94.5,230.5,94.4,230.6,94.4L230.6,94.4z
		 M214.3,94.9l1.7,1l0.1,1l-1.7-0.9L214.3,94.9z M211,95l0,0.9l-1.7,1l0.1-1L211,95z M217.8,95.7c0.5,0.2,6.5,1.9,8.5,1.3
		c0,0,1.7,2.5,3,3.4c-2,2.9-8.6,5.7-8.6,5.7L217.8,95.7z M231.4,95.8c0.1,0,0.1,0.1,0.1,0.3c0,0.6-1,2.8-1.8,1.7
		c-0.2-0.4,0-0.9,0.7-1.4C231,96,231.3,95.8,231.4,95.8L231.4,95.8z M198.6,96.1c0.1,0.2,0.1,0.7-0.2,0.6c-0.1,0-0.1-0.5,0-0.8
		C198.4,95.9,198.5,96.1,198.6,96.1L198.6,96.1z M211,96.4l0,1.1l-2,1.1l0.2-1.2L211,96.4z M214.3,96.6l2,1l0.2,1.2l-2.2-1.1
		L214.3,96.6z M211,98.1v1.1l-2.2,1.1l0.2-1.1L211,98.1z M214.3,98.2l2.2,1.2l0.3,1.2l-2.4-1.3L214.3,98.2z M183.4,98.2
		c0.4,0,0.5,0.4,0.2,0.6c-0.2,0.2-0.7,0.1-0.7,0C182.6,98.6,182.9,98.2,183.4,98.2L183.4,98.2z M184,99.4c0.1,0,0.1,0,0.1,0
		c0.3,0.1,0.4,0.4,0.3,0.7c-0.3,0.4-1.1,0.1-0.9-0.4C183.5,99.6,183.8,99.4,184,99.4L184,99.4z M211,99.8v1l-2.4,1.3l0.2-1.1
		L211,99.8z M214.4,99.9l2.5,1.3l0.2,1.1l-2.7-1.4L214.4,99.9z M182.8,100c0.1,0,0.2,0,0.3,0.1c0,0.1,0.1,0.3,0.3,0.4
		c0.3,0.2,0.4,0.2-0.3,0.5c-0.3,0.1-0.8,0.5-0.9,0.6c-0.5,0.4-0.8,0.2-0.8-0.2C181.3,100.8,182.3,100,182.8,100L182.8,100z
		 M184.7,100.8c0.1,0,0.2,0,0.3,0.1c0.2,0.1,0.2,0.4,0,0.5c-0.5,0.3-1.2-0.1-0.8-0.5C184.4,100.9,184.5,100.8,184.7,100.8
		L184.7,100.8z M210.9,101.3l0,1.3l-2.7,1.4l0.2-1.3L210.9,101.3z M183.4,101.5c0.2,0,0.3,0,0.5,0.1c0.2,0.2,0.3,0.3,0.5,0.3
		c0.5,0,0.3,0.2-0.2,0.4c-0.7,0.3-1.1,0.7-1.6,1.1c-0.5,0.5-0.5,0.6-0.7,0.4C181.2,103.1,182.4,101.5,183.4,101.5L183.4,101.5z
		 M214.4,101.5l2.8,1.5l0.2,1.3l-3.1-1.7V101.5z M185.2,102.4c0.1,0,0.2,0,0.3,0.1c0.2,0.2,0.1,0.5-0.2,0.6c-0.2,0.1-0.6,0.1-0.7,0
		C184.3,102.8,184.8,102.4,185.2,102.4L185.2,102.4z M183.9,103.1c0.2,0,0.3,0.2,0.5,0.4c0,0.1,0.2,0,0.4,0c0.5,0,0.6,0.2,0.1,0.5
		c-0.2,0.1-0.6,0.5-1,0.7c-0.9,0.8-1.4,0.6-1.3-0.2C182.7,103.7,183.4,103.1,183.9,103.1L183.9,103.1z M214.4,103.2l3.1,1.7l0.3,1.4
		l-3.4-1.8V103.2z M211,103.2l0,1.3L208,106l0.2-1.3L211,103.2z M214.4,104.8l3.5,2.1l0.1,1.4l-3.6-2.1V104.8z M211,105l0,1.3
		l-3.2,1.6l0.2-1.2L211,105z M184.7,105.9c0.1,0,0.2,0,0.2,0c0.4,0.2,0.3,0.5-0.3,0.8c-0.6,0.3-0.8,0.3-0.9-0.1
		C183.6,106.3,184.3,105.9,184.7,105.9L184.7,105.9z M221,106.1c6,1.4,12,4.4,17.7,9.6l-1.2,0.8c0,0-5-5.7-16.2-9.1L221,106.1z
		 M214.5,106.7l1.7,1l0,0.3l-1.7-0.1V106.7z M185.9,106.7c0.1,0,0.2,0.1,0.8,0.4c2.4,1.7,3.4,2.8,4,4.7c0.4,1.1,0.4,1.1-0.8,0.5
		c-1.1-0.6-2.6-1.6-3.6-2.8c-0.2,3,0.2,6.7,0.2,6.7c1.5,0.7,1,2.7,1,2.7c3.9-1.1,3,4.1,0.1,3c0.7,3.8-3.7,3.5-3.3,0.2
		c-3.5-0.1-2.9-3.9,0-3.4c-0.3-1.2,0.1-2,1.2-2.5l-0.2-5c0,0-2.8,4.1-3.3,4c-0.3,0-0.7-0.5,0-4.1c0.4-1.9,2.3-4.1,3.5-4.2
		C185.7,106.7,185.8,106.7,185.9,106.7L185.9,106.7z M188.7,106.7l0.5,0.4l-0.5,0.9l-0.5-0.4L188.7,106.7z M211,107l0,0.8l-1.6,0.1
		L211,107z M193.8,115.4c-0.2,0,0.4,0.2,0.8,0.5c3.7,0.6,5.9,5.1,4.2,8.4c-0.2,0.1,0.1,0.9,0.3,0.6c1.8-2.5,0.5-8.8-4.8-9.4
		C194,115.5,193.8,115.4,193.8,115.4L193.8,115.4z M195.2,117.2c-0.3,0.8-0.4,1,0.4,0.7c1.3,0.5,2.8,2.7,2.3,4.9
		c-0.1,0.3,0.1-0.2,0.3,0.6C198.8,121.7,198.2,118.2,195.2,117.2L195.2,117.2z M212.2,121.3c3.8,0,7.5,0.8,10.5,2.5
		c-1,0.6-4.2,1.3-4.2,1.3c-1.8-2-2.7-4.1-6-3c-3.4,0.9-6.5,3.9-8.3,5.8c-1.7-1-2.7-1.3-4.2-1.4c-0.1,0-0.2,0.4-0.1-0.2
		c0.4-0.7,0.7-1.5,1-2.2C204.1,122.2,208.2,121.3,212.2,121.3L212.2,121.3z M223.9,123.9c-0.8,2.4-1.7,4.8-3.4,6.9l-0.2-1.1
		c1.5-2.4,2.3-4.5,2.6-5.5L223.9,123.9z M222.5,124.5c0.1,0.2-1.5,4-2.3,4.7l-0.3-1c0.6-1,1.6-3.3,1.6-3.3L222.5,124.5z
		 M212.7,124.5c0,0-0.1,0-0.1,0.1c0,0.3,0.4,0.6,1,0.8c0.9,0.2,2.2-0.1,2.2-0.5c0-0.2-0.2-0.3-0.7,0c-0.6,0.3-1.2,0.2-2.1-0.2
		C212.9,124.6,212.8,124.5,212.7,124.5L212.7,124.5z M220.7,125.1c-0.2,0.9-0.6,1.6-1.1,2.3l-0.2-0.5c0.3-0.5,0.5-1.1,0.8-1.7
		L220.7,125.1z M219.8,125.4c-0.1,0.3-0.3,0.7-0.5,1l-0.4-0.8L219.8,125.4z M214.1,126.1c-0.6,0-1.2,0.2-1.3,0.5
		c0,0.2,0.2,0.1,1.3,0c0.6-0.1,0.9,0.3,1.4,0.2c0.3,0,0-0.3-0.1-0.4C215.2,126.2,214.6,126.1,214.1,126.1L214.1,126.1z M211.5,126.8
		c-0.1,0,0,0.2,0.2,0.6c0.1,0.2,0.2,0.7,0.2,0.9c0,0.7,0,0.7,0.3,0.3c0.2-0.2,0.6-0.2,1.3,0c0.4,0.1,0.5,0.2,0.8,0
		c0.3-0.2,0.4-0.1,0.7,0c0.3,0.1,0.5-0.1,0.8-0.1c0.4-0.1,0.4-0.1,0.8,0c0.5,0.2,0.4,0.2,0.5-0.6c0-0.8,0-0.9-0.5-0.6
		c-0.5,0.3-0.8,0.4-1.5,0.1c-0.8-0.3-0.9-0.2-1.4,0c-0.7,0.2-1,0.3-1.5-0.1C211.8,127,211.6,126.8,211.5,126.8L211.5,126.8z
		 M200.7,128.1l0.3,0.5c2.7,1,4.5,3.1,3.4,6.8l0.3,0.4C206,132.1,204.5,129,200.7,128.1L200.7,128.1z M201.5,129.6l0.4,0.7
		c2,1,1.9,3.7,1.8,3.5l0.3,0.7C204.5,132.9,203.6,130.3,201.5,129.6L201.5,129.6z M209.9,133.6c-0.1,0-0.1,0-0.2,0.1
		c-0.1,0.1,0.1,0.2,1,0.8c0.8,0.5,1.4,1,1.4,1c0,0.1-0.5-0.1-0.9-0.2c-0.9-0.3-2.3,0.1-3,0.6c-0.2,0.1-0.5,0-0.8-0.1
		c-0.1,0-0.4-0.1-0.5,0c-0.6,0.2,0,0.7,1.4,1.4c1.7,0.9,2.7,1,3.7,0.4c0.7-0.4,0.9-0.1,0.2,0.3c-1.3,0.7-2.6,0.5-4.7-1
		c-1-0.7-1.4-0.6-0.5,0.1c1.5,1.1,4.3,2.5,6,0.8c0.1,0,0.2,0,0.3,0c0.4,0,0.4-0.1,0-0.7c-0.2-0.4-0.7-0.7-0.1-1.2
		c0.4-0.3,0.4-0.5-0.1-0.6c-0.1,0-0.1,0.1-0.3-0.1C211.6,134.4,210.4,133.6,209.9,133.6L209.9,133.6z M210.5,135.6
		c0.5,0,1,0.4,1.2,1.1c0,0.1,0,0.1,0,0.2l-0.4,0c-0.4-1.5-1.5-1-1.6-0.1l-0.4-0.1C209.4,135.9,210,135.6,210.5,135.6L210.5,135.6z
		 M219.6,136.8l-0.3,0c-0.2-0.5-1.1-1.3-1.5,0l-0.4,0C217.7,135.1,219.3,135.4,219.6,136.8L219.6,136.8z M217.3,136.1
		c0.1,0.2-0.1,0.5-0.2,0.6c-0.1,0.1-0.4,0-0.5-0.1c-0.1-0.1,0-0.4,0.1-0.4C216.9,136,217.2,136,217.3,136.1L217.3,136.1z
		 M212.2,136.1c0.1,0.3-0.2,0.5-0.3,0.4c-0.1,0-0.2-0.5-0.1-0.5C211.9,136,212.1,136.1,212.2,136.1L212.2,136.1z M219.9,136.1
		c0.2,0,0.4,0.1,0.4,0.3c0,0.1-0.2,0.3-0.3,0.3c-0.1,0-0.4-0.2-0.3-0.5C219.7,136,219.8,136.1,219.9,136.1L219.9,136.1z
		 M209.2,136.2c0.1,0.1-0.1,0.4-0.1,0.4c0,0-0.4,0-0.4,0c0,0,0-0.3,0.1-0.4C208.9,136.1,209.1,136.1,209.2,136.2L209.2,136.2z
		 M216.3,137.1c0.1,0,0.1,0,0.2,0.1c1.1,0.7,2.5,1,3.5,0.5c0.2-0.1,0.4-0.1,0.4,0c0,0.1-0.3,0.4-0.7,0.5c-1.1,0.3-2.8-0.1-3.4-0.7
		C216.2,137.3,216.2,137.1,216.3,137.1L216.3,137.1z M206.7,137.9c-0.1,0-0.1,0.1-0.1,0.2c0.1,0.4,3,2.1,4.3,2.3
		c1,0.2,1.8,0.1,2.4-0.3c1.5-0.9,1.1-2.1-0.4-1.2c-1,0.6-3.5,0.3-5-0.5C207.2,138.1,206.8,137.9,206.7,137.9L206.7,137.9z
		 M220,138.5c0.4-0.2,0.5-0.2,0.6-0.1c0.4,0.3-0.2,0.8-1.4,1c-0.9,0.1-1.5,0.2-2.5-0.6c-0.8-0.6-0.4-0.9,0-0.6
		C218,138.9,218.9,138.9,220,138.5L220,138.5z M206.9,140.4c2.6,0.9,5.6,3.2,6.9,5.9l-0.8,0c-0.9-1.6-2.7-3.5-5.6-4.9
		C207.2,141.1,207,140.7,206.9,140.4L206.9,140.4z M220.6,141.6v0.9c-1.6,0.8-3,2.1-4,3.8l-0.9,0
		C216.8,144.4,218.3,142.7,220.6,141.6L220.6,141.6z M220.6,143v1.1c-1,0.6-1.9,1.4-2.5,2.3h-1.1C217.9,144.8,219.1,143.7,220.6,143
		L220.6,143z M208.7,143.8c0.8,0.4,2.1,1.6,2.5,2.6l-0.4,0c-0.4-0.5-1.1-1.2-1.6-1.6C208.8,144.3,208.7,143.8,208.7,143.8
		L208.7,143.8z M220.6,144.4C220.6,144.4,220.6,144.4,220.6,144.4v0.9c0,0-0.8,0.5-1.1,1h-0.9C219.3,145.2,220.5,144.4,220.6,144.4
		L220.6,144.4z M220.6,145.8l0,0.5l-0.6,0C220.1,146.2,220.4,145.9,220.6,145.8L220.6,145.8z M209.9,145.9c0.2,0.1,0.3,0.4,0.3,0.4
		l-0.1,0L209.9,145.9z M209.9,145.9"/>
	<path fill="#E2CF00" d="M187.6,127.5c1.8,0,5.6-0.6,5.6-0.6c0,0,11.9,19.8,11.4,19.6c-0.2,0.2-15.2,0.2-15.2,0.2
		C189,146.7,192.5,139.4,187.6,127.5L187.6,127.5z M193,113.5c5.8-4.8,11.9-4.8,18.4-5.5l0.2-16.3l2.4,1.4l0.1,14.9
		c8.6,0.6,16,3.8,22.4,9.3c0.1,0.1-9.2,5.1-13.3,6.4c-3.2-2.3-11.5-3.8-17-2c-1.5,0.5-3.4,1.3-5.2,1.9c1.3-7.9-4.8-9-7-9.4
		C193.5,114.2,193.2,113.6,193,113.5L193,113.5z M185.5,116.1c0.1-1.7,0-3.4-0.1-5.1c0-0.4-3.4,5.1-3.6,3.8
		c-0.5-3.3,1.2-7.6,3.8-8.1c0.3-0.3,5.4,2.8,5.2,5.6c-0.1,0.9-4.6-3-4.6-2.8c-0.1,0.5,0.1,6.6,0.3,6.6c1.3,0.7,1,1.7,1.2,2.5
		c0.9-0.2,2.4,0.1,2.5,1.1c-0.1,2.2-2.5,2.1-2.5,2.1c0.3,1.1-0.1,2.8-1.7,2.7c-1.1,0.1-2-1.6-1.5-2.6c-0.1,0.2-2.8-0.4-2.4-2
		c0.2-0.8,0.6-1.8,2.4-1.4C184.2,117.5,184.5,116.5,185.5,116.1L185.5,116.1z M190.4,96.7c-0.2-0.1-9.1-0.6-9.1-0.6l0.5-21.6
		c4.5-10.4,21.6-5.5,18.9-3.3C192.5,76.5,191.3,86.2,190.4,96.7L190.4,96.7z M206.8,87.8l-0.3-2.4c-0.7-1.5,18.2,7.2,18.4,7.4
		l0.5,2.6C225.6,96.5,213.5,90.8,206.8,87.8L206.8,87.8z M241.1,83.5c-0.3,9.7-1.8,16.3-7.4,24.2c-0.2,0.3-1.8,0.9-1.9,1.1
		c0.8,1.3,5.4,3.1,7.5,4.1l11.1-6.6c0.1,0-0.4-23.1-0.4-23.1L241.1,83.5z M245.3,73c-1.5-0.2-4.9-3.8-4.2-4.9c0-0.8,4.3,2.3,4.7,3.1
		c-0.2-0.2-0.2-7.6-0.3-7.3c-0.2,0.1-1.3-0.7-1-2.3c-2,0.3-2.6-1-2.5-1.6c0.1-1.2,1.4-1.6,2.3-1.8c-0.3-1.7,0.8-2.3,1.3-2.4
		c0.8-0.1,2.1,0.3,1.8,2.5c0.9-0.1,2.6-0.1,2.7,1.5c0.1,1.5-1,1.9-2.5,1.5c0.3,1.7-0.5,2.2-1.4,2.5c0.1,0.7,0.3,5.5,0.3,5.5
		s3-4.6,3.2-4.2C250.3,66.8,249.3,74.2,245.3,73L245.3,73z M231.4,56.1c-1.5,4.2,2.6,10.9,5.9,10c0.7-0.1,2.1,0.3,1.6,0.6
		c-5.5,4.5-18.4,5.4-18.4,5.2c0.1,5.5-0.1,11-0.2,16.5l-2.4-1.4c-0.1-5-0.2-10.1-0.3-15.1c-8.3-1.1-15.7-3.7-21.5-9.4
		c3.9-2.9,8.5-4.7,13-6.5C214.6,58.9,222.5,60.6,231.4,56.1L231.4,56.1z M227.3,33.9c-0.3-0.1,0.9-1,0.9-1s9.6,0.1,14.4,0.1
		c-1.7,7.1-0.5,13.5,1.7,19.6c0,0-5.3,0.5-5.4,0.6C238.7,53.4,227.5,34.1,227.3,33.9L227.3,33.9z M227.3,33.9"/>
	<path fill="#D40000" d="M255.2,151.9c-0.2-0.4-0.2-0.5-0.2-4.5c0-4,0-4.5,0.2-5.3c0.4-1-0.8-1-1.6-1.2v-1.6c0.9-0.1,2,0.1,2.4,0.7
		c0.9-0.7,1.5-0.8,2.2-0.7c2.2,0,3.1,1.4,3.1,4c0,0.4,0.1,1,0.1,1h1.2v1.7h-1.2c0,0,0.2,4.1-0.1,5.6
		C260.4,154.7,256.4,154.9,255.2,151.9L255.2,151.9z M259.7,151.3c0.2-0.5,0.2-0.3,0.2-4.1l0-1.7c-1.7-0.4-3.3-2.5-3.3-2.5
		c0,0,0-0.2,0,3.7c0,4.5,0.1,4.7,1.1,5.4C258.5,152.7,259.3,152.1,259.7,151.3L259.7,151.3z M257.2,141.3c0.5,0.7,1.2,1.5,2,2.1
		c0.3,0.2,0.7,0.3,0.7,0.3s0-0.5,0-0.8C259.9,141.4,258.7,140.2,257.2,141.3L257.2,141.3z M204.4,146.4l-11.3-19.6l1.9-0.7
		l12.2,20.3L204.4,146.4z M235.2,143.7c-4.4-0.7-5.6-6.2-2.4-11.3c1.5-2.5,7.9-11.8,7.5-11.5c-0.2-0.2,4.9,7.2,7.4,11
		c2.4,4,3.7,10.5-2.2,11.7c-2.3,0.5-4.6-0.9-4.7-3.5c0-0.4-0.2-0.7-0.4-0.7c-0.2,0-0.3,0.3-0.3,0.5
		C240,142.4,237.7,144.1,235.2,143.7L235.2,143.7z M255.6,137.3c-1.9-0.6-2.3-3-0.8-5.6c1.2-2.1,1.8-2.7,2.9-4.8
		c0.4-0.9,0.5-0.9,0.8-0.3c0.8,1.3,1.7,2.8,2.4,3.9c1.9,3,2.2,5,1,6.3c-1.1,1.1-3.4,0.5-3.5-1c0-0.1,0-0.2-0.1-0.3
		c-0.1-0.2-0.3-0.1-0.3,0.2C258.1,136.8,256.7,137.6,255.6,137.3L255.6,137.3z M184.2,120.2l1.8-1.7l1.6,1.9l-1.7,1.5L184.2,120.2z
		 M221.4,109.3l-0.2-1.4c6.7,1.6,12.2,5.1,16.1,8.8l-0.9,0.7C236.6,117.3,226.9,109.9,221.4,109.3L221.4,109.3z M202,107.9l2.1-0.3
		l-0.1,1.2l-2,0.5L202,107.9z M241.1,107.1l-1.2-1l0.7-1l1.2,0.8L241.1,107.1z M201.9,97.5c2.9-1.4,5.1-6.8,4.8-7.2l1.6,0.4l-3.6,15
		l-2.7,0.5C201.9,103.3,201.9,100.3,201.9,97.5L201.9,97.5z M220.8,106c-1-3.2-2.9-10.3-2.9-10.3c0.1,0.2,6.2,2,8.4,1.3
		c0.9,1.3,2,2.4,3.1,3.4C227.1,102.7,224.3,104.5,220.8,106L220.8,106z M246.6,94.5l-1-0.9l0.8-1.4l1.4,1.1L246.6,94.5z M232.4,93.8
		c-0.9-1.6-0.9-3.4,0.7-5.1L232.4,93.8z M198.7,90.8c-0.1-0.2,0.4-3.9,0.5-4.1c0.2-0.3,0.5,0.8,0.7,1.6
		C200.1,89.2,199,91.4,198.7,90.8L198.7,90.8z M223.5,89.6c0,0,2.4-11,3.4-15.4l2.9-0.7l-0.4,9.1c-2.4,2.1-4.4,7.2-4.4,7.2
		L223.5,89.6z M184.9,87.7c-0.4-0.3-1.2-0.9-0.9-1.2c0.2-0.2,0.9-0.8,1.1-0.7c0.4,0.1,1.1,0.7,0.8,1C185.8,87,185.1,87.9,184.9,87.7
		L184.9,87.7z M205.8,83.5l-3.2-3.7c2-2.7,5.2-4.3,8.7-5.5l2.3,10.4C211,83.8,208.2,82.9,205.8,83.5L205.8,83.5z M189.7,74.4
		c-0.4-0.3,0.2-0.9,0.6-1.2c0.4-0.4,1.5,0.6,1.2,1.1c-0.2,0.3-0.6,1.1-0.9,1.1C190.5,75.3,189.9,74.5,189.7,74.4L189.7,74.4z
		 M227.7,71.1l2-0.3l-0.2,1.4l-2.2,0.3L227.7,71.1z M194.6,63.3l1.3-0.8c4.4,3.9,9.3,6.7,14.5,8.2l0.4,1.7
		C204.8,70.6,199.1,67.8,194.6,63.3L194.6,63.3z M245.9,61.7l-1.6-1.6l1.5-1.6l1.7,1.5C247,60.8,245.9,61.7,245.9,61.7L245.9,61.7z
		 M191.3,58.7c-2-3.1-4.3-6.4-6.2-9.1c-3-4.5-3.8-7.6-2.9-10.4c1.6-4.6,8.2-4.3,8.7,0.3c0.1,0.9,0.5,0.9,0.7-0.1
		c0.6-5.1,8.5-4.5,8.9,1c0.5,4.7-2.7,8.3-4.5,10.7C194.5,53.6,192.7,56,191.3,58.7L191.3,58.7z M172,51.3c-1.3-2.2-4.9-7.2-1.5-8.7
		c1.2-0.5,2.8,0.4,2.8,1.5c0,0.5,0.3,0.5,0.3,0c0.3-2,3.1-2.2,4-0.2c0.8,2.3-0.6,4.5-2.6,7.5c-0.5,0.7-1.5,2.6-1.5,2.6L172,51.3z
		 M236.7,54l-12.2-20.9h2.3l11.9,20L236.7,54z M170.4,35.7h-1.2v-1.7h1.2c0,0,0-0.9,0-2.5c0.1-3.4,0.2-3.9,1.2-4.8
		c2-1.8,5.3-0.3,5.2,2.4c-0.1,3.9,0,7.6-0.1,8.1c-0.2,0.9-0.2,1-0.1,1.1c0.2,0.3,1.7,0.5,1.7,0.4v1.6c-1.1,0.1-1.6,0-2.5-0.7
		c-0.6,0.5-2.3,1.1-3.7,0.4C171,39.8,170.2,38.5,170.4,35.7L170.4,35.7z M174.6,38.6c-0.6-0.9-1.7-2.1-2.6-2.5c-0.1,1,0,1.9,0.4,2.3
		C173,39.2,173.9,39.3,174.6,38.6L174.6,38.6z M175.1,29c-0.5-1.3-1.6-1.7-2.5-0.9c-0.5,0.5-0.6,1-0.6,3.9c0,1.8,0,2.5,0,2.5
		c1.7,0.5,3.2,2.4,3.2,2.4l0-5.3C175.3,30.7,175.3,29.8,175.1,29L175.1,29z M175.1,29"/>
	<path fill="#0E0C07" d="M224.6,32.7l-2.9,0L238.2,66c0,0-0.4,0.1-1.3-0.2c-4-1-6.4-5.2-5.5-9.3c0.1-0.3,0.1-0.6,0.1-0.6
		c-10.2,4.6-16.6,2.9-22.5,0l-2.5,1c0.2-1.5,2-7.2,4.9-9.9l0-2.9l-0.1-1.4l-0.2-2.5c-4.2,3.9-9.1,10.2-9.7,19c0,0-3.8,2-7.1,4.1
		c0.2,0,5.1,6,16.8,9.4l-0.5-1.9c1.7,0.5,4.2,0.9,6.7,1.2l0.3,15l2.8,1.7l0.1-16.7c0.1,0.1,4.5-0.2,6.8-0.7l-0.3,1.6l2.3-0.5v1.2
		l-2.6,0.6l-3.6,15.6l2.1,0.5c0.6-3.1,2.2-5.7,4.5-7.2l0-0.6c1.5-1,4.5-1.9,4.5-1.9c1-5.1,3.4-8.6,6-11.9l-1.2-1.7l4.7-1.7l-6.5-11
		c2.5-1.7,7.4-1.1,7.4-1.1c-2.1-5.7-4-11.6-1.9-20.3l-18,0L224.6,32.7z M230.5,33.1c0,1.4-1.9,1.3-2.1,0L230.5,33.1z M242.1,33
		c-1.1,6.6-0.8,13.1,1.9,19.2c0,0-0.4,0-0.4,0c0,0,0-0.3,0-0.4c-0.1-0.2-0.4-0.1-0.8,0.1c-0.1,0.1-0.3,0.2-0.4,0.3
		c-0.3,0.2-2,0.2-2,0.2c0.5-0.4,1.3-1.4,0.9-2c-0.1-0.1-0.2-0.1-0.3,0.1c-0.5,0.8-0.7,1-1.3,1c-1,0-1.7-0.6-1.6-1.6
		c0.1-0.9,1.4-1.4,1.2-0.5c-0.1,0.8,0.7,0.9,0.9,0.2c0.1-0.3,0-0.2,0.1-0.5c1.6-0.8,0.7-2.5-0.8-2.1c-0.3,0.1-0.4,0.1-0.6,0
		c-0.4-0.2-0.8-0.2-1,0.2c-0.1,0.3,0.1,0.5,0.4,0.5c0.3,0,0.4,0.2,0.4,0.4c0,0.5-0.8,0.7-1.4,0.4c-1.4-0.7-0.9-2.7,0.8-2.7
		c0.5,0,0.7,0,0.7-0.1c0.1-0.3-0.7-0.8-1.2-0.8c-0.4,0.1-0.6,0.2-0.4-0.3c0.1-0.5,0.1-0.7,0-1.1c-0.3-0.5-0.3-0.3-0.4,0.2
		c-0.6,0.9-1.4,1.1-2.1,0.6c-0.7-0.5-0.6-1.4,0-2c0.4-0.4,0.9-0.1,0.6,0.4c-0.1,0.2,0,0.5,0.2,0.5c0.4,0.1,0.6-0.1,0.6-0.6
		c0-0.3-0.1-0.3,0.4-0.6c1.2-0.7,0.3-2.6-1.1-2c-0.3,0.1-0.4,0.3-0.5,0.2c-0.6-0.6-1.4,0.1-0.9,0.5c0.2,0.1,0.5,0.1,0.5,0.2
		c0.1,0.1,0.1,0.2-0.1,0.5c-0.6,0.7-1.9,0.3-2.2-0.6c-0.4-1.1,0.8-2.3,1.7-1.6c0.3,0.2,0.5,0.2,0.5-0.1c0-0.4-0.6-1-1.3-0.9
		c-0.7,0-0.6,0.1-0.2-0.5c0.3-0.6,0.2-1.1,0-1.5c-0.2-0.3-0.4-0.3-0.4,0c0.2,0.9-0.9,1.7-1.7,1.3c-0.8-0.4-1.2-1.2-0.8-2
		c0.4-0.7,1.2-0.8,1.1,0c-0.1,0.5,0.3,0.7,0.7,0.5c0.1-0.1,0.2-0.2,0.2-0.5c0-0.4-0.1-0.5,0.1-0.7c0.6-0.1,0.6-1.3,0.5-1.4L242.1,33
		z M231.6,33.1c0.4,0,0.7,0.1,0.7,0.5c0,0.4-0.3,0.7-0.7,0.7c-0.4,0-0.7-0.3-0.7-0.7C230.9,33.2,231.2,33.1,231.6,33.1L231.6,33.1z
		 M224.9,33.1h1.5L238.3,53l-1.4,0.7L224.9,33.1z M227.4,33.8c0.7,0.4,1.4,0.8,2.3,0.8c-0.3,0.5-0.5,1.1-0.6,2.1L227.4,33.8z
		 M229.8,37.8c0.7,0.3,1.4,0.7,2.6,0.3c-0.6,0.6-1,1.3-1.3,2L229.8,37.8z M236,40.2c0.3,0,0.6,0.3,0.6,0.6c0,0.3-0.3,0.6-0.6,0.6
		c-0.3,0-0.6-0.3-0.6-0.6C235.4,40.5,235.7,40.2,236,40.2L236,40.2z M232.2,41.8c0.5,0.2,1.1,0.3,1.7,0.3c-0.3,0.4-0.4,1.1-0.4,1.8
		L232.2,41.8z M234,44.9c0.5,0.2,1.1,0.6,2.1,0.5c-0.7,1.2-0.5,1.5-0.6,2L234,44.9z M239.9,47.2c0.4,0,0.7,0.3,0.7,0.7
		c0,0.4-0.3,0.7-0.7,0.7c-0.4,0-0.7-0.3-0.7-0.7C239.3,47.5,239.6,47.2,239.9,47.2L239.9,47.2z M236.2,48.7c0.5,0.3,1.3,0.4,1.3,0.3
		c-0.1,0-0.3,0.9-0.3,1.4L236.2,48.7z M238.3,52.1c0.6,0.4,1.3,0.3,1.8,0.4c-0.4,0.1-0.9,0.2-1.3,0.4L238.3,52.1z M245.9,55.8
		c-1.5,0.1-1.9,1.3-1.7,2.5c-1.2-0.2-2.5,0.9-2.1,2.3c0.3,1.3,1.6,1.3,2.4,1.3c-0.1,0.3-0.2,1.4,1,2.3l0.2,6.7c0,0-0.6-0.5-0.9-0.9
		c-1.6-1.6-4-2.8-3.9-1.9c0,0.1,0.1,0.5,0.1,0.7c0.3,1.5,2.3,3.2,3.7,4c0.5,0.3,0.8,0.6,0.8,0.6c-2.6,2.8-4,5.8-4.4,8.7
		c-0.3,2.7-0.6,5.2-0.8,7.7c-1.1,12.6-6.5,15.8-6.7,16.4l-0.1,1.7l-1.5-0.1l-1.7,1.5c5.7,2.9,9,6.5,9,6.6c4.6-3,8.5-6.3,12.2-9.7
		l-0.1-28.1c0,0-0.3,0.1-0.4,0.1c-0.3,0-0.3,0.1-0.4,0.7c-0.1,0.3-0.2,0.6-0.4,0.7c-0.3,0.4-0.2,0.2,0.2,0.3
		c0.7,0.3-0.2,1.6-1.3,1.8c-0.7,0.1-1.2,0.3-1.3,0.4c-1.6,1.4-3.1,1.6-4.3,1.1c-0.6-0.2-1.2-0.6-1.4-1.2c-0.5-1.4,0.5-3.4,1.1-4.5
		c1.1-2.1,2.9-3.7,2.9-3.7l-0.3-0.3c0,0,0.4,0,0.4,0c1.6-0.6,1.7-0.6,2-1c0.3-0.4,1-1.6,1.2-2c0.8-2.1,0.9-2.2,0.9-3.6
		c0-1.1-0.1-1.9-0.3-1.9c-1.2,0.9-2.5,3.2-3.2,4.5c-0.3-1.9-0.3-5.3-0.3-5.3c0.3-0.3,1.7-0.1,1.4-2.5c1.3,0.6,2.7-0.3,2.6-1.6
		c-0.1-2-1.6-1.9-2.8-1.6C248.1,57.2,247,55.7,245.9,55.8L245.9,55.8z M245.8,56c1.6,0,1.9,1.8,0.9,2.8c0,0-0.6-0.5-1-0.8
		c-0.3,0.3-0.4,0.5-0.8,0.7c-0.4-0.3-0.7-0.9-0.7-1.4C244.4,56.6,245.2,56,245.8,56L245.8,56z M209.1,56c6.5,3.6,14.7,3.9,22.2,0.2
		l-0.1,0.6l-0.8,0.5l0.5,0.9L231,58l0,0.6c-6.2,3.3-16.5,4-24.6-1.5l0.7-0.3c0,0,0.2,0.1,0.3,0.2c0.3,0.2,0.8,0.5,1.1,0.6l0.5-0.7
		c0,0-0.7-0.5-0.7-0.5L209.1,56z M209.6,57.2l-0.4,0.8l0.9,0.5l0.4-0.9L209.6,57.2z M206.1,57.2c10,6.3,19.4,4.4,25,1.8l0.1,0.7
		c-7.2,3.1-16.8,3.9-25.8-2.2L206.1,57.2z M229.7,57.7l-0.9,0.4l0.4,0.8l0.9-0.4L229.7,57.7z M204.9,57.8c8.2,5.3,16.9,6.3,26.3,2.4
		l0.4,1c-9.2,3.7-18.9,3.3-27.7-3L204.9,57.8z M211.2,57.8l-0.4,0.9l1,0.4l0.3-0.9L211.2,57.8z M228.3,58.2l-0.9,0.3l0.3,0.8
		l0.9-0.3L228.3,58.2z M212.7,58.4l-0.2,0.9l1,0.3l0.2-0.9L212.7,58.4z M250,59.9c0.1,1.5-2.1,2.2-2.9,0.8l0.7-0.9l-0.7-0.6
		C248.1,57.8,249.9,58.5,250,59.9L250,59.9z M203.6,58.5l2.4,1.7l-1.8,2.7l-2.6-1.8L203.6,58.5z M245.8,58.6l1.5,1.3l-1.4,1.7
		l-1.5-1.5L245.8,58.6z M244.8,59l-0.9,1l0.9,1c-1.1,1.2-2.8,0.5-2.8-1C242.2,58.9,243.9,57.8,244.8,59L244.8,59z M226.8,58.6
		l-0.9,0.3l0.2,0.8l1-0.3L226.8,58.6z M214.3,58.9l-0.2,0.9l1.1,0.2l0.2-0.9L214.3,58.9z M225.3,59l-1,0.2l0.2,0.9l1-0.2L225.3,59z
		 M245.9,59.2l-0.8,0.8l0.8,0.8l0.8-0.8L245.9,59.2z M216,59.3l-0.1,0.9l1.1,0.2l0.1-0.9L216,59.3z M223.5,59.4l-1,0.1l0.1,0.9
		l1-0.1L223.5,59.4z M217.6,59.5l0,0.9l1,0.1l0-0.9L217.6,59.5z M221.9,59.6l-1,0l0,0.9l1-0.1L221.9,59.6z M204,59.6
		c-0.6,0-1,0.5-1,1c0,0.6,0.5,1,1,1c0.6,0,1-0.5,1-1C205,60,204.6,59.6,204,59.6L204,59.6z M220.3,59.6l-1,0l0,0.9l1,0L220.3,59.6z
		 M245.9,59.6l0.4,0.4l-0.4,0.4l-0.4-0.4L245.9,59.6z M204,60c0.4,0,0.7,0.3,0.7,0.7c0,0.4-0.3,0.7-0.7,0.7c-0.4,0-0.7-0.3-0.7-0.7
		C203.3,60.3,203.6,60,204,60L204,60z M200.3,60l1.4,1.1c-0.4,0.8-1.8,2.6-1.8,2.6l-2.6-2.1l1.3-0.8c-0.1,0.1-0.1,0.3-0.1,0.5
		c0,0.6,0.5,1,1,1c0.6,0,1-0.5,1-1c0-0.5-0.4-1-1-1L200.3,60z M199.5,60.7c0.4,0,0.7,0.3,0.7,0.7c0,0.4-0.3,0.7-0.7,0.7
		c-0.4,0-0.7-0.3-0.7-0.7C198.8,61,199.1,60.7,199.5,60.7L199.5,60.7z M246.8,61.1c0,0,0.4,0.1,0.5,0.3c0.7,1.1,0,2.5-1.3,2.5
		c-1.5,0-1.8-1.9-0.8-2.6L246,62L246.8,61.1z M208.8,61.5l2.9,1.1l-1.1,3.1l-3.2-1.3L208.8,61.5z M196.9,61.9
		c11.8,10.6,28.5,11.4,40.6,4.3l0.7,0l0.4,0.4c-13.8,8.2-31,6.4-42.6-4.1L196.9,61.9z M229.3,62.5l0.9,3.1l-3.2,0.8l-0.7-3.1
		L229.3,62.5z M195.7,62.6c3.6,3.4,8.6,6.5,14.5,8.2l0.1,1.3c-6.3-1.9-11-4.4-15.7-8.8L195.7,62.6z M209.6,62.6c-0.6,0-1,0.5-1,1
		c0,0.6,0.5,1,1,1c0.6,0,1-0.5,1-1C210.6,63.1,210.1,62.6,209.6,62.6L209.6,62.6z M204.4,62.9l3,1.6l-1.5,3l-3.2-1.7L204.4,62.9z
		 M209.5,63c0.4,0,0.7,0.3,0.7,0.7c0,0.4-0.3,0.7-0.7,0.7c-0.4,0-0.7-0.3-0.7-0.7C208.9,63.3,209.2,63,209.5,63L209.5,63z
		 M214.5,63.4l2.9,0.4l-0.1,3.2l-3.3-0.4C214,65.5,214.5,63.4,214.5,63.4L214.5,63.4z M228.3,63.5c-0.6,0-1,0.5-1,1c0,0.6,0.5,1,1,1
		c0.6,0,1-0.5,1-1C229.3,63.9,228.8,63.5,228.3,63.5L228.3,63.5z M228.2,63.8c0.4,0,0.7,0.3,0.7,0.7c0,0.4-0.3,0.7-0.7,0.7
		c-0.4,0-0.7-0.3-0.7-0.7C227.6,64.1,227.9,63.8,228.2,63.8L228.2,63.8z M205,63.9c-0.6,0-1,0.5-1,1s0.5,1,1,1c0.6,0,1-0.5,1-1
		S205.6,63.9,205,63.9L205,63.9z M223.3,63.9l0.4,3.2l-3.1,0.2l-0.2-3.2L223.3,63.9z M245.6,64.2h0.4c0,2.7,0.3,5.9,0.6,8.2
		c0,0.4,0.1,0.5,0,0.5c-0.3,0.5-0.7-0.1-0.8-1.7c0-0.4-0.1-1.1-0.1-1.5C245.6,68.5,245.6,64.2,245.6,64.2L245.6,64.2z M192.9,64.2
		c-4.7,2.9-12.5,9.9-12.4,10.1l0,26.9l0.6,0l0.5-1c-0.8-0.2-0.6-1.7,0.9-2c0.3,0,1-0.3,1.2-0.5c1.1-0.9,3-1.4,4.3-1
		c1.9,0.5,2.3,1.9,1.4,4.3c-0.7,1.9-2.1,4.3-3.5,5c-0.1,0.1-0.3,0.2-0.3,0.2s0.3,0.3,0.4,0.4c3.7-2.1,5.5-9.7,5.4-14.4
		c0.1-4.8,1-9.7,2.9-13.2c3.2-5.8,7.5-8.2,7.5-8.2C201.9,70.7,196.1,67.2,192.9,64.2L192.9,64.2z M205,64.2c0.4,0,0.7,0.3,0.7,0.7
		c0,0.4-0.3,0.7-0.7,0.7c-0.4,0-0.7-0.3-0.7-0.7C204.3,64.5,204.6,64.2,205,64.2L205,64.2z M233.5,64.3l1.1,3l-3.1,1.3l-1.1-3.1
		L233.5,64.3z M215.7,64.3c-0.6,0-1,0.5-1,1s0.5,1,1,1c0.6,0,1-0.5,1-1S216.3,64.3,215.7,64.3L215.7,64.3z M222,64.6
		c-0.6,0-1,0.5-1,1c0,0.6,0.5,1,1,1c0.6,0,1-0.5,1-1C223,65,222.6,64.6,222,64.6L222,64.6z M215.7,64.7c0.4,0,0.7,0.3,0.7,0.7
		s-0.3,0.7-0.7,0.7c-0.4,0-0.7-0.3-0.7-0.7S215.3,64.7,215.7,64.7L215.7,64.7z M222,64.9c0.4,0,0.7,0.3,0.7,0.7
		c0,0.4-0.3,0.7-0.7,0.7c-0.4,0-0.7-0.3-0.7-0.7C221.3,65.2,221.6,64.9,222,64.9L222,64.9z M232.5,65.3c-0.6,0-1,0.5-1,1
		c0,0.6,0.5,1,1,1c0.6,0,1-0.5,1-1C233.5,65.7,233.1,65.3,232.5,65.3L232.5,65.3z M232.5,65.6c0.4,0,0.7,0.3,0.7,0.7
		c0,0.4-0.3,0.7-0.7,0.7c-0.4,0-0.7-0.3-0.7-0.7C231.8,65.9,232.1,65.6,232.5,65.6L232.5,65.6z M210.7,65.7l3.1,0.8l-0.7,3.2
		l-3.5-0.9L210.7,65.7z M249.7,65.6c0.5,1.6-0.4,3.6-0.5,3.7c-0.6,1.6-1.2,2.9-1.5,3c-0.2,0.1-0.3,0-0.3-0.2c0-0.3,0.7-2.3,1.2-3.7
		c0.1-0.3,0.4-1.3,0.4-1.5c0-0.2-0.2,0.2-0.5,0.8c-0.5,1.2-1.2,2.5-1.4,3.7c-0.1,1-0.3,0.8-0.4-0.3c-0.2-1.6,0.2-2.4,2-4.7
		C249.3,66,249.7,65.4,249.7,65.6L249.7,65.6z M227,66.4l0.9,3.2l-3.6,0.6l-0.6-3.2L227,66.4z M211.8,66.7c-0.6,0-1,0.5-1,1
		c0,0.6,0.5,1,1,1c0.6,0,1-0.5,1-1C212.8,67.2,212.3,66.7,211.8,66.7L211.8,66.7z M217.2,66.9l3.3,0.2l0,3.3l-3.6-0.2L217.2,66.9z
		 M211.8,67.1c0.4,0,0.7,0.3,0.7,0.7c0,0.4-0.3,0.7-0.7,0.7c-0.4,0-0.7-0.3-0.7-0.7C211.1,67.4,211.4,67.1,211.8,67.1L211.8,67.1z
		 M225.6,67.4c-0.6,0-1,0.5-1,1c0,0.6,0.5,1,1,1c0.6,0,1-0.5,1-1C226.7,67.8,226.2,67.4,225.6,67.4L225.6,67.4z M218.8,67.6
		c-0.6,0-1,0.5-1,1c0,0.6,0.5,1,1,1c0.6,0,1-0.5,1-1C219.8,68.1,219.3,67.6,218.8,67.6L218.8,67.6z M225.6,67.7
		c0.4,0,0.7,0.3,0.7,0.7c0,0.4-0.3,0.7-0.7,0.7c-0.4,0-0.7-0.3-0.7-0.7C224.9,68,225.2,67.7,225.6,67.7L225.6,67.7z M218.8,68
		c0.4,0,0.7,0.3,0.7,0.7c0,0.4-0.3,0.7-0.7,0.7c-0.4,0-0.7-0.3-0.7-0.7C218.1,68.3,218.4,68,218.8,68L218.8,68z M241.3,68.2
		c0.1,0,0.1,0,0.2,0c0.7,0,3.2,1.8,3.9,2.9c0.5,1,0.3,1.3-0.4,0.5c-0.8-0.9-2.4-2.3-2.6-2.3c-0.2,0,0.1,0.3,1.1,1.3c1,1,2,2.2,2,2.4
		c0,0.1-0.2,0.1-0.5,0c-0.6-0.4-1.1-0.8-1.4-1c-0.2-0.2-0.5-0.4-0.7-0.6C242,70.4,240.9,68.5,241.3,68.2
		C241.2,68.2,241.3,68.2,241.3,68.2L241.3,68.2z M195.2,68.4c0.6,0,1.4,0.4,1.4,1.1c0,0.5,0.1,0.6,0.5,0.6c0.5,0,1.8,0.2,1.8,0.2
		l0,1.5c0,0-0.6,0-1.4,0c-1.2-0.1-1.2-0.1-1.4,0.5c-0.1,0.2-0.1,0.3-0.4,0.5c-1.1,0.7-2.2-0.6-1.5-1.8c0.2-0.4,0.2-0.6,0.1-0.8
		C194,69.3,194.4,68.5,195.2,68.4L195.2,68.4z M195.5,69.2c-0.1,0-0.3,0.1-0.4,0.2c-0.2,0.2-0.2,0.7,0,1c0.2,0.3,0.2,0.4,0,0.6
		c-0.4,0.3-0.4,1,0,1.2c0.3,0.2,0.7-0.1,0.7-0.5c0-0.5,0.4-0.5,0.4-0.5l2.3,0l0-0.4l-1.7-0.1c-0.2,0-0.5,0-0.7-0.1
		c-0.2-0.1-0.4-0.4-0.2-0.6C196.1,69.5,195.8,69.2,195.5,69.2L195.5,69.2z M190.4,70l1.1,1.9l1.3,0l0.1,1.1l1.6,1l-1.6,0.9l-0.1,1.1
		l-1.2,0.2l-1.1,1.4l-1.1-1.4l-1.2,0l0-1.2l-1.6-1.1l1.8-1l0-1.3l1.3-0.1L190.4,70z M229.4,70.9l0.1,1.1l-1.8,0.3l0.2-1.2
		L229.4,70.9z M217.8,72l2.4,0.1L220.1,88c0,0-0.5,0-0.6,0l0-0.6l-0.8,0l-0.8-0.5L217.8,72z M190.4,72.4l-1.4,1.8l1.7,1.5l1.5-1.8
		L190.4,72.4z M218.5,72.7v0.7h1v-0.7H218.5z M190.5,73.3l1,0.7l-0.8,1l-1-0.8L190.5,73.3z M229.4,73.7l0,8.7
		c-3.3,2.6-4.4,7.2-4.4,7.2l-1.4-0.1l3.5-15.3L229.4,73.7z M211.3,73.9c-3,1.4-6,2.5-9,5.9c1.2,1,2.4,2.1,3.5,3.9
		c2.5-0.4,5.2,0.1,8.3,1.3L211.3,73.9z M218.5,74.1v0.8h1v-0.8H218.5z M184.8,75.2c0.1,0.2,0.1,0.5,0.1,0.5c2.2-0.2,1.6,2.4,0.2,2.5
		c-0.2,0,0.1,0.5,0.5,0.6c0.8,0.4,1.4,0.1,2-0.6c0.4-0.6,0.4-0.6,0.4-0.6l1.4,0.7c0,0,0,0-0.2,0.6c-0.4,1.1,0.2,2.5,0.7,1.5
		c0.3-0.5,1-0.8,1.6-0.6c0.6,0.3,0.8,1.4,0.4,2.1c-0.1,0.2-0.1,0.3-0.1,0.5c0.1,0.3,0.2,1.1,0.1,1.3c-0.2,0.3-0.4,0.4-0.7,0.1
		c-0.5-0.4-0.8-0.5-1.7-0.8c-1.6-0.3-1.9-0.8-2.5-2.1c-1.9,0.6-4.6-0.6-4.3-3.4c0.2-0.6,0.2-1.8-0.1-2c-0.6-0.5,0.1-1.1,1-1.3
		C184.3,74.1,184.6,74.8,184.8,75.2L184.8,75.2z M211,74.4l2.4,10.1c-2.7-1-5.3-1.7-7.6-1.2c-1.1-1.7-2-2.5-3.1-3.6
		C205,77,207.9,75.5,211,74.4L211,74.4z M183.7,74.9c-0.2,0-0.3,0.1-0.5,0.2c0,0,0.2,0.1,0.3,0.3c0.1,0.3,0.1,0.3,0,1
		c-0.7,2.6,1,4.4,3.5,3.6c0.6-0.2,0.6-0.2,0.8,0.5c0.3,1.2,1.1,1.8,2.8,2c0.1,0,0.3,0,0.4,0.1c0.7,0.5,0.4-0.2,0.2-0.4
		c-0.1-0.2-0.4-0.4-0.4-0.4s0.2-0.1,0.3-0.2c0.5-0.2,0.6-1.2,0.3-1.4c-0.4-0.2-1,0.1-1,0.5c0,0.7-0.8,0.7-1.6,0.2
		c-0.9-0.7-0.1-2.5-0.1-2.5l-0.5-0.2c0.1,0.1-1.1,1.7-2.6,1.2c-1-0.4-1.7-1.6-1.3-1.9c0.3-0.1,0.8,0.1,1-0.1
		c0.5-0.4,0.1-1.1-0.6-1.1c-0.2,0-0.5,0.1-0.5,0.1c0-0.3,0.1-0.6,0.1-0.9C184.2,75.1,184,74.9,183.7,74.9L183.7,74.9z M218.5,75.7
		v0.6l1,0v-0.6L218.5,75.7z M218.5,76.9v0.6h1v-0.6H218.5z M218.5,78.3V79h1v-0.7H218.5z M218.5,79.6v0.7h1v-0.7H218.5z M218.5,80.9
		v0.6h1v-0.6H218.5z M218.5,82.2v0.7h1v-0.7H218.5z M185.4,82.9l0.9,1.5l1,0l0,1l1.7,1.3l-1.5,1.1l-0.1,1.1l-1.2,0l-1,1.6l-1.2-1.4
		l-1-0.2l-0.1-1.3l-1.5-1.1l1.4-1.1l0.1-1.2l1.1,0.1L185.4,82.9z M241.8,83.6c0.1,0,0.2,0,0.3,0.1c0.4,0.2,0.5,0.2,1.4,0.3
		c1.1,0.1,1.5,0.1,2,0.5c0.3,0.2,0.3,0.2,0.7,0c1.5-1,3.3-0.1,3.4,1.8c0,0.5,0.1,0.7,0.3,1.1c0.1,0.3,0.3,0.5,0.2,0.7
		c-0.2,0.6-1.4,0.6-2.1-0.2c-0.1-0.1-0.2-0.2-0.4-0.2c-0.3,0.1-1.1-0.5-1.1-0.5c-0.1,0.4-0.1,0.8-0.2,1.4l-1.4,0c0,0,0-0.3-0.1-1.2
		c-0.1-1-0.3-1.4-0.7-0.8c-0.6,1-2.1,0.5-2.2-0.6c0-0.4-0.1-0.4-0.3-0.6C240.9,84.7,241.1,83.6,241.8,83.6L241.8,83.6z M218.5,83.6
		v0.6h1v-0.6H218.5z M242,84.2c-0.3,0-0.1,0.5,0.3,0.8c0.3,0.2,0.3,0.2,0.2,0.6c-0.1,0.8,0.7,1.2,1.1,0.6c0.1-0.1,0.1-0.3,0.1-0.4
		c-0.2-0.6,1.2-0.4,1.5,0.2c0.1,0.1,0.2,0.5,0.2,0.9c0,0.4,0,0.8,0,0.8h0.4c0,0,0-0.3,0-0.5c0.1-1,0.6-1.7,1.2-1.7
		c0.3,0,0.3,0,0.1,0.4c-0.3,0.6,0,1,0.7,1c0.5,0,0.5,0,0.6,0.3c0.2,0.4,0.3,0.5,0.5,0.4c0.1,0,0.1,0,0-1.2c-0.2-1.8-1.3-2.3-2.8-1.3
		c-0.4,0.3-0.5,0.3-0.9-0.1c-0.6-0.5-0.9-0.7-2-0.7c-0.5,0-1-0.1-1.1-0.1C242.1,84.3,242,84.2,242,84.2L242,84.2z M206.9,84.8
		c-0.2,0-0.5,0.1-0.8,0.1c0.3,1.4,0.4,2.8,0.5,4.3c1.2-0.2,2.9,0,5,1c1.3,0.6,2.9,1.6,4.6,2.8c1.8,1.3,3.9,2,5.7,2.4
		c2.2,0.5,4,0.4,3.9,0.3c-0.1,0-0.8-3.5-0.7-4.2c-3-0.3-6-1.4-8.2-2.9C214,86.5,210.6,84.7,206.9,84.8L206.9,84.8z M218.5,84.9v0.6
		h1v-0.6H218.5z M185.1,85l-1.6,1.7l1.8,1.7l1.5-1.7L185.1,85z M185,85.8l0.9,0.9l-0.7,0.9l-1-0.9L185,85.8z M207.8,85.9
		c0.2,0,0.4,0.2,1.1,0.5c0.6,0.4,1.1,0.7,0.9,0c0.1-0.2,0.8,0.4,1.6,0.8c0.9,0.8,0.9,0.6,1.1,0.2c0.1-0.3,0.3-0.1,1,0.6
		c1,0.9,0.9,0.9,1.1,0.7c0.2-0.4,0.3-0.4,1.1,0.5c0.8,0.9,1,1.1,1.2,0.7c0.3-0.2,0.4,0,1.5,1.1c0.6,0.6,0.7,0.5,0.8,0.1
		c0.1-0.4,0.1-0.3,1.1,0.4c1.1,0.9,1.2,0.9,1.2,0.6c0.1-0.5,0.4-0.3,1.5,0.5c0.7,0.5,0.9,0.6,1.1,0.5c0.1-0.3-0.4-0.8,0.7-0.3
		l0.3,1.6l-0.4-0.1c-0.2-0.1-0.7-0.2-0.6,0.3c0.1,0.3-0.2,0.3-1-0.3c-1.2-0.7-1.4-0.9-1.5-0.7c-0.2,0.5-0.1,0.6-1-0.1
		c-1-0.7-1.1-0.9-1.3-0.7c0,0.5-0.3,0.4-1.2-0.3c-0.8-0.7-0.9-1-1.3-0.5c-0.1,0.2-0.2,0.1-0.3,0c-0.4-0.3-1.3-1.3-1.6-1.5
		c-0.2-0.2-0.3-0.1-0.5,0c-0.2,0.2-0.2,0.1-0.6-0.3c-1.2-1.1-1.4-1.3-1.5-1.2c-0.1,0.2,0,0.6-0.9-0.1c-1.1-0.8-1.6-1.2-1.5-0.6
		c-0.2,0.2-0.1,0.3-1.2-0.3c-1.1-0.6-1.2-0.8-1.4-0.6c-0.1,0.3-0.5,0.2-0.5,0.2l-0.2-1.6l0.4,0C207.2,86.1,207.6,85.9,207.8,85.9
		L207.8,85.9z M199.2,86c-0.1,0.2-0.7,1.7-0.7,5.4c0.1,0.1,1.5-1.3,1.5-2.6C200.1,87.5,199.2,86,199.2,86L199.2,86z M218.5,86.1v0.7
		h1v-0.7H218.5z M199.3,86.7c1.3,2.1-0.1,4-0.5,4.1C198.8,89.3,199,87.8,199.3,86.7L199.3,86.7z M233.3,88.4c-2.1,1.3-1.8,5-0.7,5.9
		C232.6,94.3,233.3,90.4,233.3,88.4L233.3,88.4z M233,88.8l-0.6,4.7C231.7,92.7,231.6,90.2,233,88.8L233,88.8z M246.4,89.6l1.1,1.4
		l1,0.1l0.2,1l1.5,1.2l-1.5,1l-0.1,1.1l-1.1,0.1l-1.1,1.7l-1.1-1.7l-1-0.1l0-1.1l-1.6-1.2l1.5-0.9l0-1.2l1.2,0L246.4,89.6z
		 M206.6,90.1c-0.7,3.4-2.4,5.7-4.8,7.3l0,0.3l-4.1,1.6c-0.9,4.1-2.5,8.2-5.8,12l0.9,1.9l-4.5,1.6l6.5,11.1c0.4,0-3.1,1.7-7.5,1.3
		c2.7,6.7,3.3,13.7,1.8,19.8l21.2-0.1L194.1,115l-0.3-0.5c-0.2-0.4,8.6,1.2,6.8,9.5c0,0.2,0,0.2,0.1,0.1c1.7-1.5,13.2-5.6,22.3-0.2
		l2.7-1.1c-1.3,4.5-2.8,7.6-5.2,10.4l0.4,6.4c4.4-3.6,9.1-10.2,9.8-18.9c2-1,3.7-2.1,5.5-3.1l0.2,0.1l1.2-0.7
		c-3.8-4.2-11.6-8.2-16.6-9.2l0.3,1.4c-2.8-0.7-4.8-0.9-7-1.1l-0.3-15l-2.8-1.6l-0.1,16.5c-2.1,0-6.8,0.8-6.8,0.8l0.2-1.4l-2.2,0.4
		l0-1.4l2.5-0.7l3.6-15.2L206.6,90.1z M206.9,90.4l1.1,0.2l-3.5,14.9c0,0-2,0.5-2.1,0.5c-0.2-2.8-0.2-8.5-0.2-8.5
		C205.7,94.6,206.2,92.5,206.9,90.4L206.9,90.4z M182.6,91.5c0.5,0,1.1,0.4,1.1,0.7c0.1,0.2,0.2,0.3,0.3,0.3
		c0.9,0.1,0.9,0.4,0.9,0.9c-0.1,1,0.5,0.2,0.7-0.8c0-0.1,0-0.9,0-0.9l1.1,0c0,0,0,0.8,0.1,0.9c0.1,0.8,0.4,1.4,0.6,1
		c0.8-1.4,2.5-0.7,2.3,0.7c-0.1,0.3-0.1,0.3,0.2,0.6c0.4,0.4,0.5,0.8,0.4,1.2c-0.1,0.4-0.4,0.4-0.9,0.2c-0.2-0.1-0.5-0.1-1.4-0.2
		c-1.1,0-1.2-0.1-1.7-0.5l-0.3-0.3l-0.5,0.3c-0.8,0.5-1.5,0.5-2.4,0.1c-0.6-0.3-0.9-1-1-2c0-0.6-0.2-1-0.5-1.1
		c-0.2-0.2,0-0.5,0.3-0.9C182.2,91.6,182.4,91.5,182.6,91.5L182.6,91.5z M246.3,91.7l-1.5,1.9l1.8,1.6l1.7-2L246.3,91.7z
		 M211.5,91.9l2.1,1.2l0.3,14.8l-2.4-0.1L211.5,91.9z M182.7,92.1c-0.2,0-0.1,0.3,0.1,0.7c0.1,0.3,0.1,0.6,0.1,0.8
		c-0.2,1.6,1.6,2.4,3,1.3c0.4-0.4,0.4-0.4,0.7,0.1c0.4,0.5,0.9,0.6,2,0.5c0.5,0,0.9,0.2,1.1,0.1c0.2-0.1,0-0.4-0.3-0.6
		c-0.2-0.1-0.2-0.1-0.2-0.5c0.1-1-0.7-1.2-1.3-0.4c-0.5,0.7-1.2,0.2-1.4-0.9c-0.1-0.8-0.2-0.8-0.3-0.1c-0.1,0.9-1.3,1.9-1.8,1.4
		c-0.1-0.1-0.1-0.1,0-0.5c0.2-0.6,0-0.8-0.6-0.9c-0.1,0-0.2-0.1-0.3-0.2C183.2,92.3,183.2,92.1,182.7,92.1L182.7,92.1z M246.5,92.5
		l1,0.8l-0.8,1l-1-0.8L246.5,92.5z M212.2,93v0.7h0.9V93H212.2z M212.2,94.4v0.7h0.9v-0.7H212.2z M217.6,95.3c1,3.7,2,7.4,3,11.1
		c0.9-0.4,6.4-2.8,9-5.9c-0.1,0-2.4-2.2-3.1-3.6C223.9,97.2,220.9,96.7,217.6,95.3L217.6,95.3z M212.2,95.7v0.7h0.9v-0.7H212.2z
		 M218.1,95.9c2.4,0.7,5.4,1.7,8.2,1.2c0.7,1.3,1.8,2.3,2.9,3.3c-2.1,2.3-5.1,4-8.3,5.4L218.1,95.9z M240.5,96.2
		c0.1,0,0.2,0,0.4,0.1c0.4,0.3,0.7,0.4,1.4,0.6c1.2,0.2,2.2,1,2.4,2c0.1,0.4,0.2,0.5,0.8,0.3c2.3-0.6,4.1,1.3,3.5,3.9
		c-0.2,0.9-0.3,1,0,1.4c0.6,0.6,0.7,0.6,0.1,1.2c-0.6,0.5-1.8,0.3-2-0.6c-0.2-0.5-0.2-0.5-0.6-0.6c-1.5-0.2-1.4-2.3,0-2.6
		c0.1,0,0.2,0,0.3,0c0.4-0.2-0.4-1.1-1.1-1c-0.9,0.2-1.3,0.7-1.6,1.6l-1.3-0.8c0.3-0.7,0.6-1.6,0.3-2.2c-0.2-0.5-0.5-0.5-0.6,0
		c-0.2,1.1-1.5,1.4-2.4,0.5c-0.5-0.5-0.5-1-0.2-1.7c0.2-0.5,0.2-0.5,0.1-0.7C239.5,97,240,96.1,240.5,96.2L240.5,96.2z M212.2,97
		v0.7l0.9,0l0-0.7H212.2z M240.7,97.1c-0.3,0-0.3,0.3,0,0.6c0.2,0.2,0.3,0.3,0,0.5c-0.4,0.4-0.5,0.9-0.2,1.3
		c0.4,0.6,1.3,0.3,1.2-0.5c-0.1-0.5,0.3-0.7,1-0.6c0.9,0.3,1.4,1.3,1,2.4c-0.1,0.2-0.2,0.7-0.2,0.7l0.3,0.2c0,0,0.3-0.5,0.5-0.7
		c1.1-1.3,3.6-0.6,3.3,1c0,0.5,0,0.6-0.6,0.4c-0.4-0.2-0.7,0.2-0.7,0.7c0,0.4,0.4,0.8,0.9,0.7c0.4-0.1,0.5-0.1,0.5,0.5
		c0,0.4,0.2,0.7,0.5,0.8c0.6,0.3,1-0.1,0.5-0.6c-0.3-0.3-0.3-0.8-0.1-1.3c0.2-0.6,0.1-1.8-0.2-2.5c-0.5-1-1.9-1.4-3.1-0.9
		c-0.5,0.3-0.6,0.4-0.7-0.2c-0.3-1.3-1.3-2.2-2.4-2.3C241.4,97.4,240.9,97.1,240.7,97.1L240.7,97.1z M212.2,98.4V99h0.9v-0.7H212.2z
		 M212.2,99.7v0.7h0.9v-0.7H212.2z M212.2,101.1v0.7c0,0,0.5,0,0.9,0v-0.7H212.2z M241.3,102.2l1,1.4l1.1,0.1l0.1,1.2l1.6,1
		l-1.4,0.9l0,1.1l-1.4,0.1l-1.2,1.6l-1-1.4l-1,0l-0.2-1.2l-1.8-0.9l1.8-1.1l0-1.3l1.3,0L241.3,102.2z M212.2,102.4v0.7h0.9v-0.7
		H212.2z M212.2,103.8v0.7h0.9v-0.7H212.2z M240.7,104.3l-1.4,1.9l1.9,1.6l1.5-1.9L240.7,104.3z M212.2,105.1v0.8h0.9v-0.8H212.2z
		 M240.9,105.2l1,0.8l-0.7,0.9l-1-0.7L240.9,105.2z M212.2,106.6v0.7h0.9v-0.7H212.2z M185.7,106.6c-1.7,0-3.3,2.8-3.7,4.1
		c-0.5,1.7-0.5,4.7-0.1,4.8c1.5-1.1,2.3-3,3.4-4.4c0.2,1.6,0.2,4.8,0.2,4.8s-0.7,0.4-1.1,0.9c-0.3,0.5-0.4,1-0.1,1.6
		c-0.9-0.3-2.4,0-2.5,1.6c0.1,2.2,2.5,1.9,2.5,1.9c-0.1,0-0.5,2.4,1.7,2.6c0.8,0.1,2.1-0.5,1.7-2.6c1.4,0.2,2.5-0.5,2.5-1.8
		c0-0.9-0.7-1.7-1.8-1.7c-0.2,0-0.8,0.1-0.8,0.1c0-0.1,0.5-1.5-1.1-2.5l-0.2-6.4c0,0,0.5,0.6,0.8,0.8c1,1,1.7,1.5,2.9,2.1
		c1.2,0.6,1,0.5,0.8-0.7c-0.6-1.8-1.7-3.1-4.2-4.8C186.4,106.7,186,106.6,185.7,106.6L185.7,106.6z M185.9,106.8l0.3,9.1l-0.5,0
		l-0.4-9.1L185.9,106.8z M236.4,107.1c0,0,0.1,0,0.1,0c1.1,0.1,1.4,1.3,0.9,1.9c-0.2,0.2-0.3,0.3-0.2,0.4c0.5,0.6,0.2,1.6-0.3,1.7
		c-1.5,0.5-1.7-0.4-1.7-1.3l-2.3-0.1l0-1.3l2.6,0.1C235.3,107.8,235.7,107.1,236.4,107.1L236.4,107.1z M184.8,107.1
		C184.8,107.1,184.8,107.1,184.8,107.1c0.3,0,0,0.7-0.6,1.6c-0.5,0.7-1.1,1.8-1.3,2.3c-0.4,1-0.7,2.9-0.4,2.5
		c0.2-0.8,0.3-1.1,0.5-1.6c0.3-0.7,1.6-3.1,1.9-3.3c0.2-0.2,0.3-0.1,0.3,0.6c0,1.5-0.7,3.1-2.4,4.9c-0.3,0.3-0.7,0.6-0.7,0.6
		c-0.2,0-0.2-0.3-0.2-1.1c0-2.8,1.1-5.4,2.7-6.5C184.7,107.2,184.7,107.1,184.8,107.1L184.8,107.1z M186.5,107.2
		c0.7,0.2,2.1,1.4,2.6,2c0.6,0.7,1.5,2.6,1.3,2.9c-0.1,0.1-0.2,0.1-0.5-0.1c-2.4-1.3-4.1-3-3.6-3.5c0.1-0.1,0.6,0.2,1.3,0.8
		c0.5,0.4,0.9,0.8,1.4,1.2c0.7,0.7,0.8,0.8,0.4,0c-0.4-0.7-1.4-1.8-2.6-2.7C186.3,107.5,186.2,107.2,186.5,107.2L186.5,107.2z
		 M236.5,107.6C236.5,107.6,236.5,107.6,236.5,107.6c-0.5,0.2-0.4,0.8-0.4,1.3l-2.6-0.1l0,0.4l2.4,0.1c0,0.4-0.1,1.1,0.2,1.3
		c0.7,0.3,1-0.6,0.5-1.1c-0.2-0.2-0.4-0.3,0.1-0.5c0.4-0.3,0.4-0.9,0.1-1.2C236.7,107.7,236.6,107.6,236.5,107.6L236.5,107.6z
		 M204,107.7l-0.1,1l-1.5,0.4l0-1L204,107.7z M221.6,108.1c5.5,1.5,11.6,4.8,15.6,8.6l-0.8,0.5c-4.1-3.8-9.6-6.7-14.6-8.1
		L221.6,108.1z M212.1,108.2c9.1,0,17.3,3.5,24,9.2l-1.1,0.7c-6.1-5-12.8-8.4-21.9-8.8c-5.9-0.3-12.7,1.3-19.3,4.9l-0.5-0.9
		C199.8,109.8,206.1,108.2,212.1,108.2L212.1,108.2z M211.4,109.6l3.6,0.1l-0.2,3.3l-3.2-0.1L211.4,109.6z M207.6,109.8l0.5,3.2
		l-3.1,0.6l-0.9-3.2L207.6,109.8z M218.9,110.2l3.5,0.9l-1.2,3.3l-3.1-0.9L218.9,110.2z M213.2,110.3c-0.6,0-1,0.5-1,1
		c0,0.6,0.5,1,1,1c0.6,0,1-0.5,1-1C214.2,110.7,213.7,110.3,213.2,110.3L213.2,110.3z M213.2,110.6c0.4,0,0.7,0.3,0.7,0.7
		c0,0.4-0.3,0.7-0.7,0.7c-0.4,0-0.7-0.3-0.7-0.7C212.5,110.9,212.8,110.6,213.2,110.6L213.2,110.6z M206.2,110.6c-0.6,0-1,0.5-1,1
		c0,0.6,0.5,1,1,1c0.6,0,1-0.5,1-1C207.2,111.1,206.7,110.6,206.2,110.6L206.2,110.6z M206.2,111c0.4,0,0.7,0.3,0.7,0.7
		s-0.3,0.7-0.7,0.7c-0.4,0-0.7-0.3-0.7-0.7S205.8,111,206.2,111L206.2,111z M220.2,111.4c-0.6,0-1,0.5-1,1c0,0.6,0.5,1,1,1
		c0.6,0,1-0.5,1-1C221.2,111.9,220.7,111.4,220.2,111.4L220.2,111.4z M200.4,111.5l1.1,3.1l-3,1.2l-1.1-3.1L200.4,111.5z
		 M220.2,111.7c0.4,0,0.7,0.3,0.7,0.7c0,0.4-0.3,0.7-0.7,0.7c-0.4,0-0.7-0.3-0.7-0.7C219.5,112,219.8,111.7,220.2,111.7L220.2,111.7
		z M226,112.5l3.2,1.7l-1.6,3l-3-1.5L226,112.5z M199.4,112.8c-0.6,0-1,0.5-1,1c0,0.6,0.5,1,1,1c0.6,0,1-0.5,1-1
		C200.4,113.2,199.9,112.8,199.4,112.8L199.4,112.8z M211.4,112.9l0.1,3.1l-2.8,0.2l-0.5-3.1L211.4,112.9z M214.8,113l3.2,0.4
		l-0.8,3l-2.9-0.5L214.8,113z M199.4,113.1c0.4,0,0.7,0.3,0.7,0.7c0,0.4-0.3,0.7-0.7,0.7c-0.4,0-0.7-0.3-0.7-0.7
		C198.7,113.4,199,113.1,199.4,113.1L199.4,113.1z M209.9,113.5c-0.6,0-1,0.5-1,1c0,0.6,0.5,1,1,1s1-0.5,1-1
		C210.9,114,210.5,113.5,209.9,113.5L209.9,113.5z M204.8,113.6l0.8,3.1l-3.1,0.9l-1-2.9L204.8,113.6z M216,113.7c-0.6,0-1,0.5-1,1
		c0,0.6,0.5,1,1,1c0.6,0,1-0.5,1-1C217.1,114.2,216.6,113.7,216,113.7L216,113.7z M209.9,113.9c0.4,0,0.7,0.3,0.7,0.7
		c0,0.4-0.3,0.7-0.7,0.7c-0.4,0-0.7-0.3-0.7-0.7C209.2,114.2,209.5,113.9,209.9,113.9L209.9,113.9z M216,114c0.4,0,0.7,0.3,0.7,0.7
		s-0.3,0.7-0.7,0.7c-0.4,0-0.7-0.3-0.7-0.7S215.7,114,216,114L216,114z M226.9,114.1c-0.6,0-1,0.5-1,1c0,0.6,0.5,1,1,1
		c0.6,0,1-0.5,1-1C227.9,114.5,227.5,114.1,226.9,114.1L226.9,114.1z M221.4,114.3l3.1,1.1l-1.2,2.9l-3-1.1L221.4,114.3z
		 M226.9,114.4c0.4,0,0.7,0.3,0.7,0.7c0,0.4-0.3,0.7-0.7,0.7c-0.4,0-0.7-0.3-0.7-0.7C226.2,114.7,226.5,114.4,226.9,114.4
		L226.9,114.4z M203.5,114.5c-0.6,0-1,0.5-1,1c0,0.6,0.5,1,1,1c0.6,0,1-0.5,1-1C204.6,115,204.1,114.5,203.5,114.5L203.5,114.5z
		 M203.5,114.9c0.4,0,0.7,0.3,0.7,0.7c0,0.4-0.3,0.7-0.7,0.7c-0.4,0-0.7-0.3-0.7-0.7C202.9,115.2,203.2,114.9,203.5,114.9
		L203.5,114.9z M222.4,115.5c-0.6,0-1,0.5-1,1c0,0.6,0.5,1,1,1c0.6,0,1-0.5,1-1C223.4,115.9,222.9,115.5,222.4,115.5L222.4,115.5z
		 M222.4,115.8c0.4,0,0.7,0.3,0.7,0.7c0,0.4-0.3,0.7-0.7,0.7c-0.4,0-0.7-0.3-0.7-0.7C221.7,116.1,222,115.8,222.4,115.8L222.4,115.8
		z M186,116.2c0.8,0,1.4,0.8,1.5,1.5c0,0.6-0.7,1.3-0.7,1.3l-0.9-0.8l-0.8,0.8c-0.1,0-0.8-1-0.6-1.6
		C184.7,116.6,185.2,116.1,186,116.2L186,116.2z M232.2,116.2l2.5,2c0,0-1.1,0.7-1.3,0.8c0-0.1,0-0.2,0-0.3c0-0.6-0.5-1-1-1
		c-0.6,0-1,0.5-1,1c0,0.5,0.3,0.9,0.8,1c-0.3,0.1-0.6,0.3-0.6,0.3l-1.3-1.1L232.2,116.2z M228.3,121.5l-1.1,0.4
		c-6.7-4.4-15.9-6.8-26.3-2.4l-0.4-0.9C208.3,115.5,218.1,114.5,228.3,121.5L228.3,121.5z M227.7,117.1l2.6,1.6l-1.7,2.6l-2.6-1.6
		L227.7,117.1z M226.9,122.1l-1.1,0.4c-8.2-5.3-16.9-5-24.7-1.8L201,120C210.1,116,219.3,117.3,226.9,122.1L226.9,122.1z M232.4,118
		c0.4,0,0.7,0.3,0.7,0.7c0,0.4-0.3,0.7-0.7,0.7c-0.4,0-0.7-0.3-0.7-0.7C231.7,118.3,232,118,232.4,118L232.4,118z M184.8,119.2
		l-0.9,0.9l0.8,0.9c0,0-0.3,0.2-0.5,0.3c-1.1,0.6-2.3-0.3-2.2-1.4C182.1,118.6,183.9,117.9,184.8,119.2L184.8,119.2z M228.1,118.5
		c-0.6,0-1,0.5-1,1c0,0.6,0.5,1,1,1c0.6,0,1-0.5,1-1C229.1,119,228.6,118.5,228.1,118.5L228.1,118.5z M188.5,118.6
		c0.8,0,1.4,0.6,1.5,1.3c0.1,0.6-0.2,1.1-0.9,1.5c-0.9,0.5-1.9-0.3-1.9-0.4l0.7-0.7l-0.9-0.9C187.1,119.4,187.7,118.5,188.5,118.6
		L188.5,118.6z M185.9,118.7l1.5,1.5l-1.6,1.5l-1.5-1.5L185.9,118.7z M225.4,122.7l-0.8,0.4l-1.1-0.7l-0.3,0.7l0.6,0.4l-0.7,0.2
		c-7.6-4.3-16.3-3-22-0.2c0,0,0-0.4,0.1-0.4l0.6-0.3l-0.2-0.8l-0.3,0.1l0-0.9C209.4,117.5,218.7,118.3,225.4,122.7L225.4,122.7z
		 M228.1,118.9c0.4,0,0.7,0.3,0.7,0.7c0,0.4-0.3,0.7-0.7,0.7c-0.4,0-0.7-0.3-0.7-0.7C227.4,119.2,227.7,118.9,228.1,118.9
		L228.1,118.9z M185.9,119.4l-0.8,0.8l0.8,0.8l0.8-0.8L185.9,119.4z M210.9,119.6l-1,0l0.1,0.9l1,0L210.9,119.6z M211.6,119.6l0,0.9
		l0.9,0l0-0.8L211.6,119.6z M213.3,119.6l0,0.9l0.9,0l0.1-0.8L213.3,119.6z M209.2,119.7l-1.1,0.1l0.1,0.9l1-0.1L209.2,119.7z
		 M215.1,119.7l-0.1,0.9l1,0.1l0.1-0.8L215.1,119.7z M185.9,119.7l0.5,0.5l-0.5,0.5l-0.5-0.5L185.9,119.7z M207.4,120l-1,0.2
		l0.1,0.9l1-0.2L207.4,120z M216.8,120l-0.2,0.8l1,0.2l0.2-0.8L216.8,120z M205.7,120.3l-0.9,0.2l0.2,0.9l0.9-0.2L205.7,120.3z
		 M218.5,120.4l-0.2,0.8l1,0.3l0.2-0.8L218.5,120.4z M204.3,120.8l-0.9,0.3l0.2,0.8l0.9-0.3L204.3,120.8z M220.2,120.9l-0.3,0.8
		l0.8,0.3l0.4-0.7L220.2,120.9z M202.8,121.3l-0.9,0.4l0.4,0.8l0.8-0.4L202.8,121.3z M185,121.4l0.9,0.9l1-0.9
		c0.9,0.8,0.9,2.7-0.7,3C184.8,124.6,183.5,122.5,185,121.4L185,121.4z M221.7,121.5l-0.3,0.7l0.9,0.4l0.3-0.7L221.7,121.5z
		 M194.9,126.2l11.8,20.1l-1.9,0l-11.5-19.5L194.9,126.2z M193,127l0.7,1c-1.3-1-3.2-0.2-3.1,1.1c0.1,0.6,0.5,0.9,0.6,0.4
		c-0.1-0.6,0.8-1.1,1.4-1.1c1.1,0,1.8,1.4,1,2.1c-0.5,0.5-1.2,0.4-0.9-0.2c0-0.2,0-0.3-0.1-0.4c-0.3-0.3-0.9,0.1-0.8,0.5
		c0.1,0.3,0.1,0.3-0.2,0.6c-1.3,0.9-0.4,2.6,1.1,1.8c0.3-0.1,0.4-0.1,0.6-0.1c0.6,0.2,1.1-0.3,0.5-0.6c-0.3-0.2-0.4-0.5,0-0.7
		c0.7-0.5,1.8,0.3,1.8,1.2c0,0.7-0.9,1.2-1.8,1c-0.5-0.1-0.6,0.2-0.1,0.6c0.9,0.7,2.3,0.1,2.7-1.1c0.1-0.4,0.1-0.5,0.1-0.5l1.2,2
		c0,0-0.4-0.2-0.6-0.2c-1.1-0.3-2.4,0.4-2.4,1.4c0,0.5,0.3,0.7,0.4,0.3c0.4-0.9,1.2-1.2,2-0.8c0.8,0.3,1.1,1.1,0.8,1.8
		c-0.3,0.7-1.3,0.9-1.2,0.3c0.1-0.3-0.1-0.5-0.5-0.5c-0.1,0-0.3,0.4-0.3,0.6c0,0.2,0,0.2-0.4,0.6c-1.1,0.8-0.2,2.2,1.1,1.8
		c0.2-0.1,0.3-0.1,0.5,0c0.5,0.2,1,0.1,1-0.3c0-0.3-0.1-0.3-0.4-0.4c-0.5,0-0.4-0.5,0.1-0.8c1.3-0.6,2.5,1,1.8,2.2
		c-0.3,0.5-0.5,0.6-1.7,0.5c-0.2,0-0.3,0.1-0.2,0.3c0.3,0.5,1.4,0.6,2,0.4c0.6-0.3,1-1,1.1-1.8l1.3,2.3c-1-1.1-2.8-0.7-3.1,0.9
		c0,0.4,0.4,0.6,0.5,0.3c0.5-1.4,2.6-1,2.6,0.5c0,0.2,0,0.4-0.2,0.6c-0.4,0.7-1.3,0.9-1.2,0.3c0.1-0.2-0.1-0.4-0.3-0.5
		c-0.3-0.1-0.4,0.2-0.4,0.5c0,0.3,0,0.4,0,0.4c-0.5,0.2-0.8,0.6-0.9,1.2l-9.3,0c1.1-6.4,0.8-12.2-1.3-17.7c-0.2-0.5-0.4-1.2-0.4-1.2
		l1.6,0c0.4,0.3,1.9,0.2,2.5-0.3L193,127z M194.6,129.5l1,1.7c-0.4-0.2-0.8-0.4-1.4-0.4C194.4,130.3,194.5,129.9,194.6,129.5
		L194.6,129.5z M192,131.4c0.3,0,0.6,0.3,0.6,0.6c0,0.3-0.3,0.6-0.6,0.6c-0.4,0-0.6-0.3-0.6-0.6C191.4,131.6,191.7,131.4,192,131.4
		L192,131.4z M198.7,136.5l0.9,1.6c-0.4-0.2-0.8-0.4-1.5-0.4C198.3,137.5,198.5,137,198.7,136.5L198.7,136.5z M196,138.3
		c0.3,0,0.6,0.3,0.6,0.6c0,0.3-0.3,0.6-0.6,0.6c-0.3,0-0.6-0.3-0.6-0.6C195.4,138.5,195.7,138.3,196,138.3L196,138.3z M202.7,143.4
		l1.4,2.4c-0.5-0.3-1.1-0.7-1.8-0.6C202.5,144.4,202.7,144,202.7,143.4L202.7,143.4z M200.9,146.4l-1.5,0
		C199.7,145.1,200.9,145.5,200.9,146.4L200.9,146.4z M202.3,145.8c0.5,0,0.9,0.2,1.2,0.6l-1.8,0
		C201.6,146.4,201.6,145.8,202.3,145.8L202.3,145.8z M202.3,145.8"/>
	<g>
		<defs>
			<rect id="SVGID_1_" x="148.4" y="3" width="134.8" height="174.4"/>
		</defs>
		<clipPath id="SVGID_10_">
			<use xlink:href="#SVGID_1_"  overflow="visible"/>
		</clipPath>
		<path clip-path="url(#SVGID_10_)" fill="none" stroke="#000000" stroke-width="0.2" d="M166.5,19V3.4 M164.3,21.2h-15.6 M265.2,19
			V3.4 M267.4,21.2H283 M166.5,161v15.6 M164.3,158.8h-15.6 M265.2,161v15.6 M267.4,158.8H283"/>
	</g>
</g>
<g>
	<g>
		<path fill="#FFFFFF" d="M1.3,24.3c0.4,0,2.2-0.8,1.2-0.8C2.1,23.5,0.3,24.3,1.3,24.3L1.3,24.3z"/>
	</g>
</g>
<g>
	<g>
		<path fill="#FFFFFF" d="M17.6,18.1c-4.1,0-8.2,0.3-12.3,0c-1.9-0.1-4.2,0.5-5,2.3c-0.8,1.7,0.7,3.1,2.3,3.2c4.8,0.3,9.5,0,14.3,0
			c1.7,0,4-1.3,4.3-3.1C21.4,18.6,19.1,18.1,17.6,18.1L17.6,18.1z"/>
	</g>
</g>
<g>
	<g>
		<path fill="#FFFFFF" d="M23.5,17.5c0-5,0-10,0-15c0-3.7-7.8-2.3-7.8,0.7c0,5,0,10,0,15C15.7,22,23.5,20.6,23.5,17.5L23.5,17.5z"/>
	</g>
</g>
<g>
	<g>
		<path fill="#FFFFFF" d="M59.8,16.8c0.1-4.9,1-9.9-0.3-14.7c-0.4-1.6-8.1,0.5-7.7,2.1c1.3,4.8,0.4,9.8,0.3,14.7
			C52,20,59.8,19,59.8,16.8L59.8,16.8z"/>
	</g>
</g>
<g>
	<g>
		<path fill="#FFFFFF" d="M91.8,16.5c-0.3-4.7-0.6-9.4-0.7-14.1c0-3.3-7.7-1.7-7.7,0.9c0,5.1,0.3,10.2,0.7,15.2
			C84.2,21.2,92,19.6,91.8,16.5L91.8,16.5z"/>
	</g>
</g>
<g>
	<g>
		<path fill="#FFFFFF" d="M122.4,16.9c0.9-5.1,0.1-10-0.6-15c-0.2-1.7-8,0-7.7,2.1c0.7,4.7,1.6,9.5,0.7,14.3
			C114.4,20.2,122,18.9,122.4,16.9L122.4,16.9z"/>
	</g>
</g>
<g>
	<g>
		<path fill="#FFFFFF" d="M131.1,16.5c0-5.1-0.3-10.2-1-15.3c-0.2-1.6-8,0-7.7,2.1c0.7,5.1,1,10.2,1,15.3
			C123.4,19.9,131.1,18.8,131.1,16.5L131.1,16.5z"/>
	</g>
</g>
<g>
	<g>
		<path fill="#FFFFFF" d="M157.8,17.4c0.1-4.9,0.9-9.7,0.7-14.6c-0.1-2.5-7.9-0.9-7.7,2.1c0.2,4.5-0.6,9-0.7,13.4
			C150,21.6,157.7,20,157.8,17.4L157.8,17.4z"/>
	</g>
</g>
<g>
	<g>
		<path fill="#FFFFFF" d="M170.1,16.7c1-5.2-0.6-10.4-0.7-15.5c0-2.4-7.8-0.9-7.7,2.1c0.1,4.8,1.6,9.7,0.7,14.5
			C161.8,20.6,169.6,19.3,170.1,16.7L170.1,16.7z"/>
	</g>
</g>
<g>
	<g>
		<path fill="#FFFFFF" d="M184.4,18.7C184.4,18.7,184.4,18.7,184.4,18.7c-0.4-0.2-0.9-0.3-1.3-0.5c0.1,0.4,0.2,0.6,0.5,0.9
			c1.1,1.3,7.3-0.7,7.5-2.3c0.2-2.2-0.2-4.6-0.3-6.7c-0.1-2.4-0.2-4.8-0.4-7.2c-0.1-1.3-7.9,0.1-7.7,2.1c0.2,2.4,0.3,4.8,0.4,7.2
			c0.1,2.2,0.5,4.6,0.3,6.7c2.5-0.8,5-1.6,7.5-2.3c0.1-0.1,0-0.3,0-0.4c-0.2-0.5-1-0.5-1.3-0.5c0,0,0,0,0,0c-1.8-0.1-4,0.6-5.5,1.5
			C182.7,18,183,18.6,184.4,18.7L184.4,18.7z"/>
	</g>
</g>
<g>
	<g>
		<path fill="#FFFFFF" d="M229.7,16.9c0.7-5,1.3-10,1.4-15.1c0-1.5-7.7-0.4-7.7,2.1c0,4.8-0.6,9.5-1.3,14.3
			C221.8,20.4,229.5,18.9,229.7,16.9L229.7,16.9z"/>
	</g>
</g>
<g>
	<g>
		<path fill="#FFFFFF" d="M269.1,16.5c-0.5-4.3,0.1-8.6,0.7-12.9c0.6-4.1-7.3-3.2-7.9,0.5c-0.7,4.8-1.2,9.6-0.6,14.5
			C261.8,22.4,269.6,20.4,269.1,16.5L269.1,16.5z"/>
	</g>
</g>
<g>
	<g>
		<path fill="#FFFFFF" d="M266.7,22.8c6.2-0.3,12.4,0.3,18.7,0.3c1.7,0,4-0.6,5.1-2c1.2-1.4-1-1.9-2-1.9c-6.2,0-12.4-0.6-18.7-0.3
			c-1.7,0.1-4,0.6-5.1,2C263.6,22.4,265.7,22.9,266.7,22.8L266.7,22.8z"/>
	</g>
</g>
<g>
	<g>
		<path fill="#FFFFFF" d="M268.6,161c6.7,0,13.3,0,20,0c4.4,0,5.9-5.6,0.7-5.6c-6.7,0-13.3,0-20,0C264.8,155.4,263.3,161,268.6,161
			L268.6,161z"/>
	</g>
</g>
<g>
	<g>
		<path fill="#FFFFFF" d="M261.4,163.3c1.2,4.4,0.7,8.9,0.6,13.3c0,3.8,7.8,2.4,7.8-0.7c0-4.9,0.6-9.9-0.7-14.7
			C268.2,157.9,260.5,160,261.4,163.3L261.4,163.3z"/>
	</g>
</g>
<g>
	<g>
		<path fill="#FFFFFF" d="M222.1,163.6c-0.1,0.7,0.1,1.4,0.3,2c0.5,1.7,7.9-0.2,7.7-2.1c-0.1-0.8-0.2-1.5-0.3-2.3
			c-2.6,0.7-5.2,1.4-7.7,2.1c0.7,4.6,1.1,9.7,0.1,14.3c-0.4,1.8,7.2,0.6,7.6-1.3c1.1-4.9,0.8-10.1,0.1-15c-0.3-1.6-8,0.1-7.7,2.1
			c0.1,0.8,0.3,1.5,0.3,2.3c2.6-0.7,5.2-1.4,7.7-2.1c-0.3-0.6-0.4-1.3-0.3-2C229.7,160.1,222,161.4,222.1,163.6L222.1,163.6z"/>
	</g>
</g>
<g>
	<g>
		<path fill="#FFFFFF" d="M183.1,164.3c0.3,3.9-0.3,7.8-0.4,11.6c0,4,7.8,2.7,7.8-0.6c0-4.4,0.6-8.7,0.3-13
			C190.5,158.8,182.8,160.6,183.1,164.3L183.1,164.3z"/>
	</g>
</g>
<g>
	<g>
		<path fill="#FFFFFF" d="M162.7,163.3c0,4.3-0.3,8.7-0.3,13c0,3.4,7.7,1.8,7.7-0.9c0-4.3,0.3-8.7,0.3-13
			C170.5,159,162.7,160.6,162.7,163.3L162.7,163.3z"/>
	</g>
</g>
<g>
	<g>
		<path fill="#FFFFFF" d="M150.4,163.9c1.6,3.6,1,8.3,0.3,12c-0.6,3.4,7.2,2.2,7.8-0.8c0.8-4,1.3-9.4-0.4-13.3
			C156.8,158.8,149.2,161.1,150.4,163.9L150.4,163.9z"/>
	</g>
</g>
<g>
	<g>
		<path fill="#FFFFFF" d="M123.4,163.9c0,4.3,0,8.7,0,13c0,2.4,7.7,0.9,7.7-2.1c0-4.3,0-8.7,0-13
			C131.1,159.5,123.4,160.9,123.4,163.9L123.4,163.9z"/>
	</g>
</g>
<g>
	<g>
		<path fill="#FFFFFF" d="M114.7,163.3c0.5,4.5,0,8.9-0.7,13.4c-0.5,3.4,7.3,2.1,7.8-0.8c0.7-4.9,1.2-9.7,0.6-14.6
			C122.1,158.2,114.3,160,114.7,163.3L114.7,163.3z"/>
	</g>
</g>
<g>
	<g>
		<path fill="#FFFFFF" d="M85.1,162.8c-1.5,1.6-1.1,4.5-1,6.5c0.1,2.9,0.6,5.7,0.7,8.6c0,1.4,7.8,0.2,7.7-2.1c0-2.4-0.4-4.8-0.6-7.2
			c-0.1-1.4-0.9-5.2,0.2-6.3c1.2-1.3-1-1.4-1.8-1.3C88.6,161.1,86.3,161.6,85.1,162.8L85.1,162.8z"/>
	</g>
</g>
<g>
	<g>
		<path fill="#FFFFFF" d="M52.1,163.6c1.3,4.1,0.3,8.6-0.3,12.7c-0.5,3.3,7.3,2,7.8-0.9c0.8-4.5,1.7-9.5,0.3-13.9
			C58.8,158.6,51.1,160.7,52.1,163.6L52.1,163.6z"/>
	</g>
</g>
<g>
	<g>
		<path fill="#FFFFFF" d="M16.4,163.2c-0.8,5-0.4,10.1-0.4,15.1c0,1.6,7.7,0.4,7.7-2.1c0-4.7-0.5-9.6,0.3-14.2
			C24.4,159.7,16.8,161.1,16.4,163.2L16.4,163.2z"/>
	</g>
</g>
<g>
	<g>
		<path fill="#FFFFFF" d="M17.7,156c-4.3,0.5-8.7-0.6-13-0.3c-1.6,0.1-4,1.1-4.3,2.9c-0.3,1.9,2.1,2.3,3.5,2.2
			c4.4-0.2,8.6,0.9,13,0.3c1.6-0.2,4-1.1,4.3-2.9C21.4,156.3,19,155.8,17.7,156L17.7,156z"/>
	</g>
</g>
</svg>
