<?xml version="1.0" encoding="utf-8"?>
<!-- Generator: Adobe Illustrator 14.0.0, SVG Export Plug-In  -->
<!DOCTYPE svg PUBLIC "-//W3C//DTD SVG 1.1//EN" "http://www.w3.org/Graphics/SVG/1.1/DTD/svg11.dtd" [
	<!ENTITY ns_flows "http://ns.adobe.com/Flows/1.0/">
]>
<svg version="1.1"
	 xmlns="http://www.w3.org/2000/svg" xmlns:xlink="http://www.w3.org/1999/xlink" xmlns:a="http://ns.adobe.com/AdobeSVGViewerExtensions/3.0/"
	 x="0px" y="0px" width="300px" height="155px" viewBox="-9.6 14.8 300 155" enable-background="new -9.6 14.8 300 155"
	 xml:space="preserve">
<defs>
</defs>
<g>
	<path fill="#FFFFFF" d="M24.8,23.8h88.9c2.6,0,4.7,2.1,4.7,4.7v127.8c0,2.6-2.1,4.7-4.7,4.7H24.8c-2.6,0-4.7-2.1-4.7-4.7V28.5
		C20.1,25.9,22.2,23.8,24.8,23.8L24.8,23.8z M24.8,23.8"/>
	<path fill="none" stroke="#000000" stroke-width="0.792" stroke-miterlimit="3.8" d="M24.8,23.8h88.9c2.6,0,4.7,2.1,4.7,4.7v127.8
		c0,2.6-2.1,4.7-4.7,4.7H24.8c-2.6,0-4.7-2.1-4.7-4.7V28.5C20.1,25.9,22.2,23.8,24.8,23.8L24.8,23.8z M24.8,23.8"/>
	<path d="M25.4,44.2c0.9-4.9,1.9-8.5,4.6-12.5h-5.3v1.7h-1.4v-3.2H31l1,1.5c-2.8,3-5.3,12.7-4.9,12.5H25.4z M25.4,44.2"/>
	<path d="M112.8,140.5c-0.9,4.9-1.9,8.5-4.6,12.5h5.3v-1.7h1.4v3.2h-7.8l-1-1.5c2.8-3,5.3-12.7,4.9-12.5H112.8z M112.8,140.5"/>
	<path d="M88.4,62.1c1.3-2.5,2.2-5.1,2.4-7.9c0.1-1-0.5-1-0.6-0.3c-1.8,6.9-11.3,5-11-1.5c0.3-5.2,5.5-6.4,8.2-4.6
		c1.1,0.6,1,0.3,0.4-0.4c-4-4.5-1.6-10.3,3.9-10.4c5.9,0.4,7.4,6.5,3.8,10.2C94.9,47.6,94,49,95.4,48c3.6-2.6,8.7,0.2,8.6,4.2
		c-0.2,7.4-9.2,7.9-11.1,1.8c-0.2-0.7-0.7-1-0.6,0.1c0.3,2.1,0.8,5.3,2.4,8H88.4z M88.4,62.1"/>
	<path d="M88.4,106.2c1.3-2.5,2.2-5.1,2.4-7.9c0.1-1-0.5-1-0.6-0.3c-1.8,6.9-11.3,5-11-1.5c0.3-5.2,5.5-6.4,8.2-4.6
		c1.1,0.6,1,0.3,0.4-0.4c-4-4.5-1.6-10.3,3.9-10.4c5.9,0.3,7.4,6.5,3.8,10.2c-0.4,0.4-1.4,1.8,0.1,0.9c3.6-2.6,8.7,0.2,8.6,4.2
		c-0.2,7.4-9.2,7.9-11.1,1.8c-0.2-0.7-0.7-1-0.6,0.1c0.3,2.1,0.8,5.3,2.4,8H88.4z M88.4,106.2"/>
	<path d="M43.7,106.2c1.3-2.5,2.2-5.1,2.4-7.9c0.2-1-0.5-1-0.6-0.3c-1.8,6.9-11.3,5-11-1.5c0.3-5.2,5.5-6.4,8.2-4.6
		c1.1,0.6,1,0.3,0.4-0.4c-4-4.5-1.6-10.3,3.9-10.4c5.9,0.3,7.4,6.5,3.8,10.2c-0.4,0.4-1.4,1.8,0.1,0.9c3.6-2.6,8.7,0.2,8.6,4.2
		c-0.2,7.4-9.2,7.9-11.1,1.8c-0.2-0.7-0.7-1-0.6,0.1c0.3,2.1,0.8,5.3,2.4,8H43.7z M43.7,106.2"/>
	<path d="M65.9,84.2c1.3-2.5,2.2-5.1,2.4-7.9c0.2-1-0.5-1-0.6-0.3c-1.8,6.9-11.3,5-11-1.5c0.3-5.2,5.5-6.4,8.2-4.6
		c1.1,0.6,1,0.3,0.4-0.4c-4-4.5-1.6-10.3,3.9-10.4c5.9,0.4,7.4,6.5,3.8,10.2c-0.4,0.4-1.4,1.8,0.1,0.9c3.6-2.6,8.7,0.2,8.6,4.2
		c-0.2,7.4-9.2,7.9-11.1,1.8c-0.2-0.7-0.7-1-0.6,0.1c0.3,2.1,0.8,5.3,2.4,8H65.9z M65.9,84.2"/>
	<path d="M43.7,62.1c1.3-2.5,2.2-5.1,2.4-7.9c0.2-1-0.5-1-0.6-0.3c-1.8,6.9-11.3,5-11-1.5c0.3-5.2,5.5-6.4,8.2-4.6
		c1.1,0.6,1,0.3,0.4-0.4c-4-4.5-1.6-10.3,3.9-10.4c5.9,0.4,7.4,6.5,3.8,10.2c-0.4,0.4-1.4,1.8,0.1,0.9c3.6-2.6,8.7,0.2,8.6,4.2
		c-0.2,7.4-9.2,7.9-11.1,1.8c-0.2-0.7-0.7-1-0.6,0.1c0.3,2.1,0.8,5.3,2.4,8H43.7z M43.7,62.1"/>
	<path d="M94.8,124.5c-1.3,2.5-2.2,5.1-2.4,7.9c-0.2,1,0.5,1,0.6,0.3c1.8-6.9,11.3-5,11,1.5c-0.3,5.2-5.5,6.4-8.2,4.6
		c-1.1-0.6-1-0.3-0.4,0.4c4,4.5,1.6,10.3-3.9,10.4c-5.9-0.3-7.4-6.5-3.8-10.2c0.4-0.4,1.4-1.8-0.1-0.9c-3.6,2.6-8.7-0.2-8.6-4.2
		c0.2-7.4,9.2-7.9,11.1-1.8c0.2,0.7,0.7,1,0.6-0.1c-0.3-2.1-0.8-5.3-2.4-8H94.8z M94.8,124.5"/>
	<path d="M50.1,124.5c-1.3,2.5-2.2,5.1-2.4,7.9c-0.1,1,0.5,1,0.6,0.3c1.8-6.9,11.3-5,11,1.5c-0.3,5.2-5.5,6.4-8.2,4.6
		c-1.1-0.6-1-0.3-0.4,0.4c4,4.5,1.6,10.3-3.9,10.4c-5.9-0.3-7.4-6.5-3.8-10.2c0.4-0.4,1.4-1.8-0.1-0.9c-3.6,2.6-8.7-0.2-8.6-4.2
		c0.2-7.4,9.2-7.9,11.1-1.8c0.2,0.7,0.7,1,0.6-0.1c-0.3-2.1-0.8-5.3-2.4-8H50.1z M50.1,124.5"/>
	<path d="M25.9,57.4c0.5-1.1,1-2.1,1.3-3.3c0.2-1.1-0.2-0.7-0.4,0c-0.3,1-1.2,1.5-2,1.5c-1.5,0-2.2-1.1-2.2-2.4
		c-0.2-1.3,1.2-2.3,2.2-2.2c0.8,0.1,1.4,0.5,1.8,0.8c0.3,0.1,0.5,0.2,0.2-0.2c-0.7-0.8-1.4-1.3-1.3-2.5c0-1.1,1-2.3,2.3-2.3
		c1.6,0,2.3,1.3,2.3,2.4c0,0.8-0.4,1.6-1.1,2.1c-0.4,0.3-0.3,0.6,0.2,0.3c0.5-0.4,1-0.6,1.6-0.6c1.5,0,2.1,1.3,2,2.5
		c-0.1,1.2-1.1,2.3-2.4,2.2c-1.2-0.1-1.8-1.1-2.1-2.1c-0.1-0.3-0.3-0.4-0.3,0.1c0.3,2.2,1.1,3.6,1.1,3.6H25.9z M25.9,57.4"/>
	<path d="M112.5,128.7c-0.5,1.1-1,2.1-1.3,3.3c-0.2,1.1,0.2,0.7,0.4,0c0.3-1,1.2-1.5,2-1.5c1.5,0,2.2,1.1,2.2,2.4
		c0.2,1.3-1.2,2.3-2.2,2.2c-0.8-0.1-1.4-0.5-1.8-0.8c-0.3-0.1-0.5-0.2-0.2,0.2c0.7,0.8,1.4,1.3,1.3,2.5c0,1.1-1,2.3-2.3,2.3
		c-1.6,0-2.3-1.3-2.3-2.4c0-0.8,0.4-1.6,1.1-2.1c0.4-0.3,0.3-0.6-0.2-0.3c-0.5,0.4-1,0.6-1.6,0.6c-1.5,0-2.1-1.3-2-2.5
		c0.1-1.2,1.1-2.3,2.4-2.2c1.2,0.1,1.8,1.1,2.1,2.1c0.1,0.3,0.3,0.4,0.3-0.1c-0.3-2.2-1.1-3.6-1.1-3.6H112.5z M112.5,128.7"/>
	<g>
		<defs>
			<rect id="SVGID_5_" x="1.8" y="5.4" width="134.8" height="174.4"/>
		</defs>
		<clipPath id="SVGID_6_">
			<use xlink:href="#SVGID_5_"  overflow="visible"/>
		</clipPath>
		<path clip-path="url(#SVGID_6_)" fill="none" stroke="#000000" stroke-width="0.2" d="M19.9,21.4V5.8 M17.7,23.6H2.1 M118.5,21.4
			V5.8 M120.7,23.6h15.6 M19.9,163.4V179 M17.7,161.2H2.1 M118.5,163.4V179 M120.7,161.2h15.6"/>
	</g>
</g>
<g>
	<path fill="#FFFFFF" d="M61.6,24h88.9c2.6,0,4.7,2.1,4.7,4.7v127.8c0,2.6-2.1,4.7-4.7,4.7H61.6c-2.6,0-4.7-2.1-4.7-4.7V28.6
		C56.9,26,59,24,61.6,24L61.6,24z M61.6,24"/>
	<path fill="none" stroke="#000000" stroke-width="0.7974" d="M61.6,24h88.9c2.6,0,4.7,2.1,4.7,4.7v127.8c0,2.6-2.1,4.7-4.7,4.7
		H61.6c-2.6,0-4.7-2.1-4.7-4.7V28.6C56.9,26,59,24,61.6,24L61.6,24z M61.6,24"/>
	<path fill="#131F67" d="M70.5,150.7L70.3,35l71.8,0.1l0.1,115.5L70.5,150.7z M96.3,54.3c-2.6-0.7-2.5,1.9-0.6,1.9
		c2.1,0.2,3-3.4,2-4.8C97.6,51.4,96.8,54.1,96.3,54.3L96.3,54.3z M79.6,68.7l-3.1,1.4l0,2.3C77.8,71.3,78.8,70.1,79.6,68.7
		L79.6,68.7z M100.6,137.8c-0.6-0.3-1.3-1-1.2-1.1c0.1-0.1,0.4,0,0.7,0.2c2.4,1,4.3,1,7.2-0.1c0.2-0.1,0.5,0.3,0.4,0.6
		C106.4,139.3,102.3,138.6,100.6,137.8L100.6,137.8z M99.4,135c-0.6-0.8,0.2-0.2,0.4,0c1.8,1.7,4.2,2.2,6.3,0.7
		c0.1-0.1,0.1-0.2,0.1-0.3c-0.1-0.2-0.1,0-0.9,0.3c-2,0.7-3.7,0.1-5.3-1.1c-0.7-0.5-1-0.8-1-0.9c0-0.1,0.1-0.2,0.4-0.2
		c0.1,0,0.5,0.1,0.8,0.1c0.5,0,0.5,0,1-0.2c1.1-0.5,2.1-0.7,3.2-0.5c0.3,0,0.6,0.1,0.6,0.1c0.3-0.1-0.1-0.4-1.1-1.2
		c-0.2-0.2-0.4-0.3-0.5-0.4c-0.1-0.2,0-0.3,0.2-0.3c0.4,0,2.2,1.5,2.8,2.4c0.2,0.3,0.3,0.3,0.3,0.6c0,0.3-0.1,0.6,0.2,1
		c0.2,0.3,0.4,0.8,0.4,0.8c0,0,0,0.2-0.3,0c-0.1,0-0.1-0.1-0.3-0.1c-0.1,0-0.4,0.1-0.7,0.3C103.5,137.8,101.2,137,99.4,135L99.4,135
		z M104.8,134.9c0,0-0.2-0.9-0.4-1.2c-0.5-0.5-1.3-0.6-1.7-0.1c-0.3,0.3-0.5,1.2-0.5,1.2s0.4,0.1,0.5,0.1c0-0.2,0-0.7,0.4-1.1
		c0.2-0.2,0.6-0.2,0.8,0c0.3,0.2,0.5,0.8,0.5,1.1C104.5,134.9,104.9,134.9,104.8,134.9L104.8,134.9z M101.8,133.6
		c-0.4,0.2-0.8,0.3-0.9,0.5c-0.1,0.3,0.4,0.4,0.6,0.5c0.4,0.2,0.4,0.1,0.5-0.2c0.1-0.2,0.2-0.4,0.3-0.6
		C102.5,133.3,102.2,133.4,101.8,133.6L101.8,133.6z M105.6,134.4c0.2-0.2,0.2-0.3,0.1-0.6c-0.1-0.1-0.3-0.2-0.6-0.3
		c-0.3-0.1-0.5-0.2-0.3,0.2l0.3,0.6C105.3,134.7,105.4,134.6,105.6,134.4L105.6,134.4z M72.3,112.9c0.1,0,1.4-0.4,1.8-0.6
		c0.4-0.2,0.5-0.2,0.3-0.4c-0.1-0.1-0.1-0.3-0.1-0.6l0-0.4c-0.8-0.2-1.9,0.3-2.3,0.8C71.8,112,71.8,112.7,72.3,112.9L72.3,112.9z
		 M72.1,114.8c0.2,0.2,0.3,0.2,1,0c0.2-0.2,0.7-0.4,1.1-0.4c0.8-0.2,0.8-0.1,0.6-0.7c-0.1-0.2-0.1-0.4-0.1-0.7
		c0-0.3,0.1-0.3-0.1-0.4c-0.4-0.1-2.3,0.6-2.6,1.1C71.8,114.1,71.8,114.5,72.1,114.8L72.1,114.8z M115.7,131.1
		c-0.1,0.2-0.3,0.5-0.4,0.7c-0.2,0.4-0.1,0.4,0,1.2c0,0.4,0,1.1,0,1.4c0,0.7,0,0.9,0.2,0.9c0.2,0,0.3-0.1,0.4-0.5
		c0-0.2,0.2-0.4,0.2-0.5c0.1-0.8,0.4-2,0.9-2.6c0.1-0.1,0.3-0.1,0.7-0.1c0.5,0,0.7,0,0.8-0.1c0.9-0.8,0.2-1.8-0.6-1.8
		C117,129.7,115.7,131,115.7,131.1L115.7,131.1z M119.1,130.8c0.1,0.9-0.8,1.5-1.7,1.3c-0.4-0.1-0.5,0-0.7,0.5
		c-0.5,1.4-0.7,2.8-0.9,3.8c-0.1,0.8-0.4,3-0.1,3.7c2.5,3.1,5.2,6.4,8.1,9.6l17.4,0l0.1-20.5l-5-4.8l0-7.6
		c-5.4,2.5-10.8,5.1-16.2,7.7c1.2,3.8-2.8,4.6-3.7,2c-0.8,0.7-1.4,4.4-1.1,4.6c0,0,0.1,0.1,0.3-0.2c0.3-0.5,0.6-0.9,1-1.1
		C117.7,129.2,119,129.6,119.1,130.8L119.1,130.8z M105.3,130.4c-0.9-0.7-0.4-1.7,0.3-2c0.4-0.2,1-0.1,1.6,0.1
		c0.6,0.3,0.9,0.2,1.5,0.2c0.4,0,0.3,0.8-0.1,1c-0.3,0.2-1,0.1-1.8-0.4c-1.4-0.8-2,0.2-1.2,1.2C106.2,131,105.4,130.5,105.3,130.4
		L105.3,130.4z M76.4,118c0.8-0.5,0.4-1.3-0.3-1.5c-0.9,0-1.2,1.1-0.5,1.5c0,0.1-0.3,0-0.5-0.1c-0.3-0.2,0-1-0.3-1.1
		c-0.2,0-2.1,0.7-2.4,0.8c-0.9,0.5-0.1,1.6,0.5,1.5C74,118.9,75.4,118.7,76.4,118L76.4,118z M72,116.4c0,0.5,0.2,0.7,0.5,0.7
		c0.7-0.1,1.3-0.4,2-0.7c0.5-0.2,0.7-0.3,0.3-0.7c-0.1-0.1-0.2-0.3-0.2-0.7c0.1-0.4,0-0.4-0.1-0.5c-0.2,0-0.6,0.1-1.6,0.5
		c-0.5,0.2-0.6,0.3-0.8,0.6C72.1,116.1,72,116.2,72,116.4L72,116.4z M77.7,122.9c0.1-0.1,0.4-1,0.4-1.2c-0.1-0.4-0.3-0.4-0.6-0.2
		c-0.3,0.3-0.2,0.6-0.4,0.9c-0.1,0.1-0.1,0.2-0.1,0.3C77.1,123,77.5,123,77.7,122.9L77.7,122.9z M79.9,118.1
		c8.7-9.3,14.1-22.1,4.7-39.8c-1.1-0.5-1.4,1.3-1.5,1.3l-1.2,1.1c6.4,11,5.3,23.7-2.5,32.7l0,0.6c0,1.3,0.4,1.2,0.9,0.6
		c0.6-0.6,0.2-0.1,0,0.1c-0.2,0.2-0.5,0.6-0.6,0.7C79.8,116.2,80.2,117.6,79.9,118.1L79.9,118.1z M79.4,115.3
		c-0.2-0.4-0.3-1.8-0.3-1.8c0,0-0.3-2-0.5-2.4c-0.2-0.3-0.7-0.5-1.2-0.6c-0.5,0-0.5,0-0.6,0.1c-0.2,0.3-0.1,1.6,0.1,2.1
		c0.2,0.6,0.1,0.9-0.1,1.4c-0.1,0.2-0.1,0.2,0,0.2c0.4,0,0.6-0.6,0.8-0.4c0.1,0.1-0.1,0.5-0.3,0.9c-0.2,0.5-0.3,1.1,0,1.9
		c0.1,0.4,0.1,0.6,0,0.8c-0.1,0.2-0.2,0.7-0.2,1.3c0.2,0.7,0.1,1,0,1.2c-0.3,0.6-0.5,1.4-0.3,1.8c0.1,0.2,0.2,0,0.3-0.3
		c0.2-0.7,0.4-0.8,0.9-0.8c0.4,0,0.4,0.1,0.6,0c0.3-0.4,1-1.8,1-2.2C79.9,117.6,79.9,116.8,79.4,115.3L79.4,115.3z M83.5,121.9
		c0.2-0.1,0.6-0.6,0.6-0.8c0-0.2-1.5-1.6-2.1-2c-0.3-0.2-0.4-0.1-0.9,0.6c-0.4,0.6-0.5,0.6-0.4,0.7c0.1,0.1,1.6,1.1,2.1,1.4
		C83,121.9,83.3,122,83.5,121.9L83.5,121.9z M86.3,119.4c-0.2-0.2-2-2.1-2.5-2.2c-0.2,0-0.8,0.7-0.8,0.8c0,0.1,1.1,1.2,1.9,1.9
		c0.2,0.2,0.5,0.4,0.5,0.4C85.6,120.2,86.2,119.6,86.3,119.4L86.3,119.4z M88.1,117.6c0-0.1-0.2-0.4-0.7-0.8
		c-1.2-1.2-1.9-1.7-2.1-1.7c-0.2,0.1-0.6,0.8-0.7,1c0.1,0.1,2.1,2,2.3,2.1C87.4,118.5,88.1,117.8,88.1,117.6L88.1,117.6z M90,115.7
		c0.1-0.2,0-0.3-0.3-0.6c-0.2-0.2-0.8-0.8-1.4-1.4c-1.3-1.2-1.3-1.2-1.7-0.7c-0.4,0.6-0.4,0.6,0.8,1.8c1.3,1.3,1.6,1.5,1.8,1.5
		C89.6,116.3,89.9,116,90,115.7L90,115.7z M75.9,114.6c-0.2-0.1-0.4,0-0.6,0.1c-0.9,0.8,0.4,1.8,0.9,1.2
		C76.6,115.5,76.6,114.7,75.9,114.6L75.9,114.6z M91.9,113.7c0-0.1-0.3-0.4-1.2-1.3c-2.3-2.2-2.2-2.1-2.5-2
		c-0.2,0.1-0.5,0.7-0.5,0.9c0,0.2,0.2,0.4,1.9,2c1,0.9,1.3,1.2,1.5,1.2C91.5,114.4,91.9,114.1,91.9,113.7L91.9,113.7z M76,113.8
		c0.5-0.2,0.5-0.7,0.3-1.1c-0.5-0.4-1.2-0.1-1.2,0.5C75.2,113.7,75.6,114,76,113.8L76,113.8z M93.8,111.9c0-0.3-4-4-4.3-4
		c-0.2,0-0.3,0.2-0.5,0.6c-0.2,0.4-0.1,0.6,0.1,0.8c0.3,0.3,1.1,1,1.8,1.6c0.4,0.4,0.9,0.9,1.1,1c0.4,0.4,0.9,0.7,1,0.7
		C93.3,112.5,93.6,112.3,93.8,111.9L93.8,111.9z M75.8,111.4c0-0.1,0-0.3-0.1-0.4c-0.3-0.3-0.8-0.1-0.9,0.2
		C74.6,112.1,75.8,112.2,75.8,111.4L75.8,111.4z M78.7,82.5l0.8-2.4l2.4-0.1l0.3-2.4l2.4-0.4l0-2.4l2.3-0.3L86.9,72l2.2-0.5L89,69
		l2-0.6l-0.1-2.1l0.3-0.3l-0.9-0.9l-0.7,0.2l0,2.2l-2,0.6l0.2,2.4l-2,0.5l0,2.6l-2.3,0.3l-0.2,2.3l-2.2,0.4l-0.3,2.2l-2.2,0.1L78,81
		l-1.4,0v1.3L78.7,82.5z M104.6,125c-0.1-0.2,0.1-0.2,0.5,0.1c0.4,0.2,0.9,0.4,1.2,0.4c0.2,0,0.7-0.1,1.2-0.2
		c0.6-0.2,1.2-0.2,1.8-0.1c0.5,0.1,1,0.1,1.1,0.1c0.3,0,0.9-0.3,1-0.6c0.4-0.7,0.3,0.5,0.3,0.7c0,0.6,0.1,1.3-0.4,1
		c-0.3-0.1-0.7-0.3-1.1,0c-0.4,0.2-0.7,0.3-1.1,0c-0.4-0.1-0.5-0.2-0.8,0.1c-0.3,0.3-1,0.2-1.4,0.1c-0.7-0.1-1-0.2-1.5,0.1
		c-0.2,0.1-0.3,0-0.5-0.5C104.7,125.6,104.6,125,104.6,125L104.6,125z M106.2,124.5c0-0.1,0.3-0.4,0.6-0.5c0.7-0.4,2.1-0.3,3.1,0
		c0.5,0.2,0.6,0.5,0.1,0.5c-1.1-0.2-2.4-0.4-3.4,0.1C106.5,124.6,106.3,124.6,106.2,124.5L106.2,124.5z M107.1,122.9
		c-0.7-0.3-1.1-0.6-1.1-0.6c0-0.1,0.2-0.1,0.7,0.1c0.8,0.3,1.7,0.4,2.5,0.2c0.6-0.2,0.8-0.3,0.8-0.2c0,0.1-0.2,0.5-0.6,0.7
		C108.7,123.2,107.7,123.1,107.1,122.9L107.1,122.9z M122.9,120.9l0.5-0.1l-0.2-2.2l2-0.6l-0.1-2.2l2.1-0.7l-0.1-2.5l2.2-0.4
		l0.3-2.2l2.1-0.1l0.4-2.4l2.2-0.1l0.5-2l1.5,0l0-1.1l-2.3,0l-0.5,2.1l-2.2,0.1l-0.5,2.4l-2.3,0l-0.3,2.5l-2.1,0.3l0,2.7l-2.1,0.5
		l0.2,2.3L122,118l0.2,2.2L122.9,120.9z M136.7,68.3c-0.3,0.2-0.4,0.6-0.3,1c0.3,0.8,1.3,0.5,1.4,0c0.1-0.2-0.1-0.6-0.4-0.7
		c0,0-0.2,0-0.3-0.1c-0.1-0.1,0.3-0.3,0.6-0.2c0.3,0.1,0.5,0.5,0.5,0.8c0,0.1,0,0.3,0,0.4c0.5,0,1.1-0.3,1.6-0.4
		c0.9-0.2,1.2-0.8,1-1.4c-0.2-0.5-0.7-0.7-1.4-0.4C138.6,67.6,137.5,67.7,136.7,68.3L136.7,68.3z M98.3,123.3c3-2.1,4.8-3.4,8.7-3.6
		c-1.4-0.6-1.6-1.3-2-2c-4.8,0.5-7.4,2-9.7,3.4C96.3,121.6,97.3,122.1,98.3,123.3L98.3,123.3z M115.3,120.3c-1.5-1-3.2-1.7-5-2.2
		l-1.4,1.4C108.8,119.6,112.9,119.7,115.3,120.3L115.3,120.3z M129.4,106.6c-9.5-14.6-3.1-27.5,3.5-35.7c0.2-0.3,0.3-0.3,0.2-0.5
		c-0.1-0.3-0.1-1.7-0.1-2.5c-12.2,12.1-12.5,27.9-4.9,40.4C128.7,107.9,129.8,107.2,129.4,106.6L129.4,106.6z M130.9,105.4
		c-1.6-2.6-9.9-16.7,2.8-32.4c0,0,0-0.8-0.1-1.1c-0.2-0.5-0.4-0.8-0.4-0.8c-5.3,8-13.1,18-3.4,35.4L130.9,105.4z M123.6,78.9
		c0.2-0.2,0.5-0.7,0.5-1c0-0.2-0.2-0.4-1.6-1.8c-1.9-1.9-2.2-2.2-2.5-2.2c-0.2,0-0.8,0.6-0.8,0.8c0,0.1,0.6,0.7,1.9,2
		C123.5,79.1,123.4,79,123.6,78.9L123.6,78.9z M125.3,75.3c0-0.1-0.2-0.3-0.6-0.8c-1.1-1.1-2.7-2.6-2.8-2.6c-0.2,0-0.7,0.4-0.8,0.6
		c-0.1,0.2-0.1,0.2,0,0.4c0.2,0.3,2.7,2.6,3.4,3.2C124.9,76.6,125.3,75.6,125.3,75.3L125.3,75.3z M126.3,73.9c0.2-0.1,0.6-0.8,0.5-1
		c0-0.1-0.6-0.8-1.4-1.5c-1.5-1.5-1.6-1.5-1.9-1.2c-0.3,0.3-0.5,0.6-0.5,0.7c0,0.1,2.2,2.4,2.7,2.7C126.1,74,126.1,74,126.3,73.9
		L126.3,73.9z M137.5,73.8c0.7-0.7-0.1-1.4-0.7-1.1c-0.2,0.2-0.4,0.5-0.3,0.7C136.7,73.8,137.2,73.9,137.5,73.8L137.5,73.8z
		 M138.9,73.6c1.2-0.3,1.7-0.5,2-0.9c0.2-0.3,0.2-0.4,0-0.8c-0.2-0.4-0.4-0.5-1.1-0.1c-0.5,0.3-1.6,0.4-2,0.6
		c-0.2,0.1-0.1,0.1,0,0.2c0.3,0.2,0.4,0.3,0.4,0.5C138.1,73.7,138.1,73.8,138.9,73.6L138.9,73.6z M137.6,71.8c0.6-0.3,0.5-1-0.2-1.3
		c-0.8-0.2-1.4,0.8-0.7,1.3C137,71.9,137.4,71.9,137.6,71.8L137.6,71.8z M139.5,71.5c0.8-0.3,1.1-0.5,1.4-1c0.2-0.4,0.1-0.5,0.1-0.9
		c0-0.5-0.3-0.5-1.1-0.2c-0.4,0.1-2.2,0.6-2.2,0.8c0.9,0.5,0.6,0.8,0.6,1.4C138.4,71.8,138.8,71.7,139.5,71.5L139.5,71.5z
		 M128.3,70.6c0-0.2-2.3-2.5-2.5-2.5c-0.4,0-0.9,0.6-0.8,0.9c0,0.1,2.2,2.3,2.5,2.5C127.8,71.8,128.3,71,128.3,70.6L128.3,70.6z
		 M129.7,69.2c0.1-0.1,0.3-0.3,0.4-0.4c0.2-0.4,0.2-0.6-0.1-0.8c-0.1-0.1-0.6-0.5-1.1-1c-0.5-0.5-0.9-0.9-1-0.9
		c-0.4-0.1-1.1,0.6-1,0.9c0,0.2,1.8,1.9,2.2,2.2C129.3,69.4,129.4,69.4,129.7,69.2L129.7,69.2z M132.8,65.9c0-0.1-0.4-0.3-1-0.7
		c-2-1.1-2-1.1-2.6-0.6c-0.2,0.2-0.4,0.4-0.4,0.4c0,0.1,0.4,0.5,1,1c1.1,1.1,1.4,1.3,1.6,1.3C131.6,67.2,132.7,66.2,132.8,65.9
		L132.8,65.9z M135.5,64.9c0.2-0.3,0.5-1.3,0.4-1.5c-0.1-0.1-0.4-0.1-0.6,0c-0.2,0.1-0.5,1.4-0.5,1.5
		C134.9,65.1,135.3,65.1,135.5,64.9L135.5,64.9z M114.2,107.5c0.2,0,0.5-0.2,1.1-0.7c0.6-0.5,2.3-1.6,2.5-2c0.1-0.2,0-0.6-0.2-0.6
		c-0.1,0-0.2,0.1-1.4,0.9c-0.8,0.6-2.2,1.6-2.4,1.8C113.8,107.2,114,107.5,114.2,107.5L114.2,107.5z M114,114.4
		c1.2-0.8,2.2-1.7,3.8-2.7c0.1-0.2,0.1-0.4,0.1-0.6c-0.1-0.2-0.2-0.1-0.7,0.2c-1.2,0.8-2.4,1.7-3.4,2.4c-0.3,0.2-0.6,0.3-0.5,0.5
		C113.3,114.3,113.8,114.3,114,114.4L114,114.4z M115.2,114.9c0.8-0.7,1.8-1.3,2.6-1.9c0.1-0.1,0.2-0.5,0-0.7c-0.1-0.1,0-0.1-0.3,0
		c-0.3,0.2-2.4,1.6-2.8,1.9c-0.2,0.2-0.4,0.3-0.4,0.3C114.7,114.7,114.9,114.9,115.2,114.9L115.2,114.9z M116.2,115.4
		c0.2-0.1,1.6-1,1.7-1.1c0.1-0.1,0.1-0.8,0-0.8c-0.4,0.3-2.3,1.4-2.3,1.6C115.8,115.2,116.1,115.4,116.2,115.4L116.2,115.4z
		 M117.7,115.5c0.2-0.2,0.3-0.2,0.3-0.5c0-0.4-0.1-0.4-0.7,0c-0.4,0.3-0.7,0.4-0.6,0.6C117,116.1,117.4,115.8,117.7,115.5
		L117.7,115.5z M117.9,116.4c0.1,0,0.1-0.1,0.1-0.2c0-0.2,0-0.2-0.2-0.2C117.3,116,117.7,116.4,117.9,116.4L117.9,116.4z
		 M112.3,114.1c0.2-0.7,0.5-1.2,1-1.8c1.9-1.7,1.3-3.8,0.1-5.5c1.6-2.2,3.1-4.5,4.5-6.6l0-3.5l0.2,0c-0.1,7.6,0.3,20,0.3,20l1.6,1.2
		l-0.2,0.1C120,117.9,115.2,114.9,112.3,114.1L112.3,114.1z M113.7,113.2c1.3-1,2.6-1.8,3.9-2.9c0.1-0.1,0.2-0.1,0.2-0.4
		c0-0.5-0.1-0.5-0.6-0.2c-0.2,0.2-1,0.7-1.8,1.2c-0.8,0.5-1.5,1-1.7,1.2c-0.7,0.9-1,1.3-0.9,1.4C113,113.7,113.2,113.6,113.7,113.2
		L113.7,113.2z M115.2,110.8c0.7-0.4,2.3-1.6,2.5-1.7c0.3-0.2,0.3-0.6,0.1-0.7c-0.1,0-1.4,0.8-2.4,1.6c-0.5,0.4-0.6,0.5-0.6,0.9
		C114.6,111.1,114.8,111.1,115.2,110.8L115.2,110.8z M115.9,109c2.1-1.5,2-1.4,2-1.9c0-0.2-0.1-0.3-0.1-0.3c-0.1,0-0.4,0.3-0.9,0.5
		c-0.4,0.3-0.9,0.7-1.2,0.9c-0.7,0.5-1,0.6-1,0.9c0,0.3,0.1,0.5,0.2,0.5C115,109.6,115.4,109.3,115.9,109L115.9,109z M115.6,107.9
		c1-0.7,2-1.4,2.2-1.6c0.2-0.2,0.1-0.7-0.1-0.7c-1,0.6-2.1,1.5-2.9,2.2c-0.1,0.1-0.2,0.2-0.3,0.3c0,0.2,0.2,0.4,0.3,0.4
		C114.8,108.4,115.1,108.2,115.6,107.9L115.6,107.9z M114.9,105.6c0.7-0.5,1.4-1.1,2.1-1.6c0.5-0.4,0.7-0.5,0.7-1
		c0-0.3-0.3-0.1-1.2,0.5c-0.7,0.5-1,0.6-1.2,0.9c-0.2,0.4-0.7,0.8-0.8,1.2C114.6,105.8,114.7,105.8,114.9,105.6L114.9,105.6z
		 M117.2,102.6c0.6-0.4,0.6-0.4,0.6-0.9c-0.1-0.6-0.1-0.6-0.7,0.2c-0.4,0.5-0.5,0.7-0.4,0.8C116.7,102.9,116.8,102.8,117.2,102.6
		L117.2,102.6z M115.1,98c-0.1-0.3-0.1-0.2-0.4,0c-0.5,0.5-0.6,0.8-0.3,1c0.2,0.1,0.3,0.1,0.4-0.1C115.1,98.4,115.1,98.2,115.1,98
		L115.1,98z M112.2,102.3c-0.1-0.3-0.4-0.6-0.6-0.7c-0.2-0.1-0.4-0.1-0.6,0.2c-0.2,0.3-0.1,0.4,0.2,0.8c0.2,0.3,0.3,0.4,0.5,0.4
		C111.9,102.9,112.2,102.6,112.2,102.3L112.2,102.3z M100.9,113.2c-0.1-0.3-0.5-0.6-0.6-0.5c-0.2,0.1-0.3,0.3-0.3,0.4
		c0.1,0.3,0.3,0.5,0.5,0.5C100.8,113.5,101,113.5,100.9,113.2L100.9,113.2z M102.2,112.8c-0.3-0.3-0.9-1-1-1c-0.2,0-0.5,0.4-0.5,0.5
		c0,0.2,0.5,0.9,0.7,1C101.9,113.3,102.7,113.3,102.2,112.8L102.2,112.8z M104,112.9c0-0.2-1.7-1.9-1.8-1.9c-0.2,0-0.5,0.4-0.5,0.5
		c0,0.1,0.5,0.8,1,1.4c0.3,0.3,0.3,0.3,0.6,0.2C103.6,113,104,113.1,104,112.9L104,112.9z M106.9,112.5c0-0.4-0.2-0.6-0.9-1.4
		c-0.3-0.3-0.7-0.8-1-1.2c-0.6-0.6-0.8-0.8-1-0.8c-0.2,0-0.5,0.3-0.5,0.5c0,0.1,1.4,1.7,2.7,3.1c0.3,0.3,0.4,0.4,0.7,0.2
		C106.9,112.8,106.9,112.6,106.9,112.5L106.9,112.5z M104.7,108.2c-0.3,0.2-0.4,0.3-0.4,0.5c0,0.2,2.4,2.9,2.6,2.9
		c0.1,0,0.1,0,0.2-0.3c0.2-0.9-0.1-1.1-0.7-1.7C106,109.2,105.2,107.9,104.7,108.2L104.7,108.2z M109,106.4c-0.7-0.8-1-1.2-1.2-1.2
		c-0.1,0-0.2,0.1-0.4,0.3c-0.3,0.2-0.2,0.2-0.1,0.5c0.1,0.1,0.3,0.4,0.5,0.6c0.4,0.4,0.6,0.5,0.7,0.3
		C108.8,106.8,109.2,106.6,109,106.4L109,106.4z M108.6,104.4c-0.2,0-0.4,0.3-0.4,0.5c0,0.1,0.5,0.8,0.9,1.2
		c0.3,0.3,0.5,0.3,0.7,0.2c0.2-0.2,0.1-0.4,0-0.6C109.5,105.3,108.9,104.4,108.6,104.4L108.6,104.4z M110.5,104.6
		c0-0.2-0.7-1.1-0.9-1.2c-0.2,0-0.6,0.4-0.6,0.6c0,0.1,0.1,0.3,0.4,0.6c0.5,0.6,0.6,0.7,0.7,0.6
		C110.3,105.1,110.5,104.8,110.5,104.6L110.5,104.6z M111.3,103.6c0-0.2-0.1-0.4-0.4-0.7c-0.3-0.4-0.5-0.5-0.8-0.1
		c-0.1,0.1-0.2,0.2-0.2,0.3c0,0.2,0.7,1.1,0.9,1.1C111.1,104.1,111.2,103.8,111.3,103.6L111.3,103.6z M110,105.9
		c-0.1,0.3-0.2,0.5-0.5,0.6c-2.2,1.6-2.1,4.2-2.6,6.6c-3.6,0-9.2,1.4-9.2,1.5l19-19.1c0,0,0.2,0.1,0.1,0.2c-1.5,1.1-1.4,3.2-2.4,4.3
		C112.7,102,111.1,103.8,110,105.9L110,105.9z M99.7,113.7c0-0.2-0.2-0.3-0.3-0.1c-0.2,0.2-0.1,0.3,0.1,0.3
		C99.7,113.9,99.7,113.8,99.7,113.7L99.7,113.7z M105.6,112.9c0.1-0.2-0.1-0.4-1.1-1.5c-1-1.1-1.3-1.4-1.4-1.4
		c-0.2,0-0.5,0.4-0.5,0.5c0,0.1,0.2,0.3,0.4,0.5c0.2,0.2,0.6,0.6,0.8,0.9c0.4,0.5,0.7,0.8,0.8,0.9c0.2,0.1,0.3,0.1,0.6,0.1
		C105.5,113,105.6,113,105.6,112.9L105.6,112.9z M107.3,109.3c0.1-0.2,0.2-0.4,0.2-0.5c0-0.2-1.3-1.5-1.5-1.6
		c-0.3-0.2-0.8,0.4-0.6,0.7c0,0.1,0.4,0.5,0.9,1c0.6,0.6,0.8,0.9,0.9,0.9C107.2,109.7,107.3,109.6,107.3,109.3L107.3,109.3z
		 M107.9,107.9c0.1-0.1,0.2-0.3,0.2-0.4c0-0.1-0.2-0.4-0.5-0.7c-0.6-0.7-0.7-0.7-1-0.4c-0.3,0.3-0.2,0.4,0.3,1.1
		C107.5,108.2,107.6,108.3,107.9,107.9L107.9,107.9z M112.9,101.7c0.2-0.3,0.2-0.4,0-0.6c-0.1-0.1-0.2-0.2-0.3-0.3
		c-0.2-0.2-0.4-0.2-0.7,0.1c-0.1,0.1-0.2,0.3-0.2,0.3s0.1,0.2,0.3,0.4C112.4,102,112.6,102,112.9,101.7L112.9,101.7z M113.6,100.7
		c0.1-0.2,0.1-0.5-0.2-0.7c-0.3-0.2-0.4-0.2-0.6,0c-0.2,0.3-0.2,0.4,0.1,0.7C113.2,100.9,113.4,101,113.6,100.7L113.6,100.7z
		 M114.2,99.9c0.2-0.2,0.2-0.4,0-0.6c-0.2-0.2-0.3-0.3-0.5-0.2c-0.3,0.2-0.3,0.5,0,0.8C113.9,100.1,114,100.1,114.2,99.9L114.2,99.9
		z M99.7,140.7c3.9,0.4,8.1,0.7,15.4-0.4l0-2.5c-2.3,1.8-5.3,0.6-5.5-1.5c0-1.8,0.5-4,0.9-5.5c0.3-1.1,0.4-1.6,0.1-1.8
		c-0.6-0.4-1.8-0.4-2-1.1c-0.1-0.4-0.2-0.8,0.1-0.5c0.1,0.1,0.8,0.5,1.4,0.6c1,0.2,1.2,0.3,1.3,0.7c0.1,0.3-0.1,1.1-0.4,2
		c-0.2,0.6-0.4,1.5-0.4,1.7c0,0.2,0.2,0.2,0.3,0.2c0.1,0,0.4-0.4,0.6-0.6c1-0.9,1.2-0.8,0.4,0c-0.3,0.3-0.8,0.8-0.8,0.8
		c0,0.2,0.2,0.2,0.5,0c0.6-0.2,1.9-0.2,2.5,0.1c0.7,0.4,0.8,0.4,0.7-0.8c-0.1-2.1-0.5-4.6-1.2-6.5c-1-2.9-3.2-5.7-6.4-5.5
		c-3.9,0.2-6.2,1.7-8.9,3.6c1.6,3.5-0.7,6.2-1.5,6.6c-0.1,0,1,3.6,1.5,5.4C99,137.4,99.7,140.7,99.7,140.7L99.7,140.7z M116.2,55.4
		c-0.1-0.2-2.2-7.3-2.9-10.2c-5.8-0.3-10.1-0.8-15.3,0.6c0,0-0.1,2-0.1,2.1c0.1,0.2,0.2,0.2,0.4,0.2c2.4-1.3,4.9-0.7,5.1,2.5
		c0.1,1.2-0.3,2.1-0.4,3.3c-0.1,1-0.9,2.4-0.4,3.1c0.1,0.1,0.4,0.3,0.9,0.5c0.9,0.4,1.2,0.7,1.3,1.3c0.1,0.4-0.1,0.7-0.2,0.3
		c0-0.3-0.1-0.5-1.2-0.9c-1-0.4-1.3-0.8-1.4-1c-0.1-0.3-0.1-0.5,0-1c0.3-1,0.6-2.1,0.5-2.6c0-0.2-0.2-0.1-0.5,0.1
		c-0.3,0.3-1.7,1.2-1.7,1.1c0,0,0.2-0.4,0.6-0.7c0.5-0.4,1-1,1-1.1c0-0.2-0.1-0.1-0.5,0.1c-0.8,0.2-1.7,0.2-2.3-0.1
		c-0.5-0.2-0.9-0.4-1-0.2c-0.2,3.1,0.3,6.4,1.6,8.9c1.2,2.3,3.6,5.2,7.3,4.5c3.8-0.7,7.5-3.7,7.4-3.7
		C113.2,59.2,114.8,56.8,116.2,55.4L116.2,55.4z M86.1,140.9l-0.8-0.6c0.2,0-4.5-2.8-8-3.7c-0.2,0-0.5-0.2-0.5,0.1l0,5.8l-5.2,4.9
		l0.1,2.4l11.1-0.1l7.3-10.8c0,0,0.4-0.1,0.4-0.1c-1.3-5.7-3.4-10.3-4.7-12.6c0,0-1.9,1.5-3.5-0.3c-0.9-1-0.4-2.9,0.5-3.5
		c-0.7-0.5-2.3-1.5-3.3-1.8c-0.2-0.1-0.5,0.4-0.6,0.8c-0.2,0.6-0.5,1.2-0.7,1.8c-0.2,0.5-0.4,0.6-0.8,0.5c-0.5-0.2-0.7-0.2-0.7-0.2
		l0,6.8C80.8,131.5,84.9,135.1,86.1,140.9L86.1,140.9z M102.8,68.2l1.2-1.3c-1.9-0.2-3.9-0.6-6.2-1.3
		C99.5,66.8,101.1,67.5,102.8,68.2L102.8,68.2z M96.3,64.5c2.1,0.7,4.8,2.3,8.1,1.7c-3-1.2-5.3-4-6.3-9.7c-0.2,1.1-0.7,3.4-1.4,3.7
		c-1-3.8-4.9-1.6-3.3,1.5c-4.2,2.7-8.8,4.3-13.2,6.4c0,0-0.7,2-3.9,4.8c-0.6-3.2,0.4-7.9-0.3-11.3l-5.1-4.8c0.1,0.9,0,1.5,0,2.6
		c0.1,0.2,0.3,0.3,0.5,0.4c0.3,18.6-0.1,37-0.1,53.9c-0.1,10.4,0.2,21.2,0.1,30.9l-0.2,0.4l0,2.3l5.2-5c0,0-0.2-3.5,0-6.2
		c3.3,0.7,6.4,2.2,9.1,3.9c0.3,0.1-1.6-6.8-9-9.8c0,0-0.1-2.1-0.1-6.8c0-4.5-0.1-5-0.2-5.1c-0.3,0.3-4.1,1.6-4.3,1.4
		c0.1,0-1.1-8-0.1-9.2l3.6,0.1c1,0.8,0.6-0.2,1.2-0.4c0.4-0.1,2,0.6,2,0.6c6.9-8.2,6.2-21.6,1.3-29.1c-1.3,1-2.6,2.4-3.9,3
		c0,0,0-4.2,0-4.2C82.8,76.3,90,64,89.5,64c0,0,2,2,2.8,3.1l-6.5,9.5c1.5,3,3,5.7,4,8.4c0.1,0.4,0.5,0.3,0.6,0.7
		c0.1,0.3-0.3,0.8-0.2,1.1c1.4,5.3,1.7,10.9,0.3,15.9c-0.3,1.1,0.2,2.1,0.9,2.9c0.1,0.1-0.7-0.6-0.7-0.7c-0.2-0.1-0.7,0.4-0.7,1
		c0.1,0.4,0.3,0.5,0.6,0.8c0.5,0.4,2.5,2.4,3.4,3.3c0.8,0.8,1,0.8,1.5,0.3c0.1-0.1,0.3-0.3,0.4-0.4c0,0,0.2-0.2,0.3-0.2L108,98.1
		c1.4-1.3-11.8,12.1-11.8,12.1s-6.4,6.3-7.9,7.8c-1.6,1.6-1.8,1.9-1.9,2.1c-0.1,0.2,0.5,0.2,0.8,0.2c0,0-0.2,0.1-0.5,0.1
		c-1.7-0.4-2.2,1.5-3.3,1.8c-2.8,2-0.9,5.1,1.7,4.1l0.6-0.3c1.6,3,3.9,8.4,5,13.1l-0.4,0.2l-7,10.5H123c-2.8-2.8-5.3-6.3-7.7-8.9
		c-3.9,1.2-15.9,0.9-15.7,0.4c0,0-1.8-7.3-2.8-10.9c3.2-2.8,2.9-7.2-1.8-9.1c3.4-2.7,6.9-3.6,10.2-3.8c1.1,2.8,3.7,2.9,4.9,0.4
		c0,0,4.5,1.4,6.2,2.9c-2.5-0.3-4.9-0.8-7.4-0.9c2.2,0.9,4.4,3.1,5.1,5.7c0.4,0.9,0.9,4,1,4c0,0,0.8-3.5,1.5-3.3
		c1.6,3.4,4.5,0.8,3.3-1.9c4.2-2,8.9-4.2,12.7-6.1c1.1-1.7,3.9-4.9,4.1-4.9c0,0,5.1-29,5.1-38.7c-0.2-11.7,0.2-24.6-0.3-35.5l0-3.1
		l-10.7,0L123,47.2c0,0-0.1,0.2-0.1,0.3c1,4.5,2.4,8.4,4.5,12.6c2.9-2.2,5.3,1.4,3.2,3.5c-0.4,0.4-0.3,0.5,0.1,0.8
		c0.4,0.3,3.1,1.7,3.3,1.7c0.5-0.7,0.6-1.8,1-2.7c0.1-0.3,0.3-0.4,0.8-0.3c0.6,0.1,0.6,0.3,0.6-3.6l0-3.4c-3.7-1.7-8.6-6.1-8.9-10.6
		c2.1,1.6,7.1,3.8,8.4,4c0.6,0.2,0.5-0.8,0.5-1.3c0.2,0.1,0.2,1.7,0.2,1.7c-2.2-0.7-3.3-0.5-8.8-3.7c0.9,4.4,5.4,7.9,8.6,9.5
		c0,0,0.1,2.1,0.1,4.5c0,7.2,0,7.5,0,7.5c0,0,1.8-0.5,2.3-0.7c0.9-0.7,2.3-0.2,2.5,0.4c0.3,2.7,0,5.2,0,7.8
		c-1.5,0.1-2.3,0.4-3.1,0.5c-0.5-0.1-0.8-0.1-1-0.3c-0.7-1.6-0.7-0.6-0.8,0.6c-0.1,0.3-1.9-0.3-2-0.4c-7.8,8.9-7.1,19.2-1.8,28.8
		c0.9-0.6,2.4-1.7,3.9-2.4c0,1.2,0.1,3.7,0.1,3.7c-6.1,4.5-13.4,16.3-13.1,16.3l-2.5-2.9c0,0,1.6-2.5,2.1-3.1
		c0.1-0.1,0.1-0.8,0.1-0.8l3.8-5.5c-1.7-3-2.9-5.6-4.1-8.6c-0.1-0.2-0.4-1.3-0.3-1.4c-2.5-11.4,0.2-17,0-17.5c0,0,0-0.2-0.1-0.3
		c-0.1-0.1,0-0.1,0.1-0.3c0.2-0.3,0.5-1,0.4-1.2c-0.1-0.1-2.1-2.2-3.9-3.9c-0.9-0.9-0.9-1-1.4-0.5c-0.2,0.2-0.6,0.7-0.6,0.7
		c-6.3,5.9-11.3,11.2-17.7,17.4l-0.3-0.3c9.2-9.2,18.6-18.3,27.7-27.5l-1.6,0c0-0.1,0.1-0.2,0.2-0.3c0.9,0,1.7-0.3,2.4-0.6
		c1.3-1,3.2-2.3,3.3-3.5c-0.1-2.5-2.2-2.8-3.7-1.6c-2.1-3.7-3.7-8.2-4.6-12.4c0-0.2-0.3-0.6-0.4-0.8c0.4-1.4,7.5-11,7.5-11H90.2
		l7.6,9c0-0.4,10.8-1.6,15.7-0.1l3,10.7c-2.7,2.6-3.5,7,1.5,9.2c0.1,0.2-0.5,0.6-0.5,0.6c0.1-0.1,0.2-0.3,0.2-0.4
		c-1.4-0.6-2.8-2.1-2.8-2.1c-3,2.4-5.8,3.7-8.6,3.8c0,0,1.5,1,1.7,2.1c0,0-0.1,0-0.2-0.1c-0.3-0.4-1-1.6-1.6-1.9
		c-1-0.2-1.6-0.1-2.3,0.5l-1.1,1C100.4,67.5,97.8,66.3,96.3,64.5L96.3,64.5z M95.9,90.6l1.1-1.1c0.1-0.8,0.3-1.8,1.3-2.9
		c1-1.2,2.2-2.4,3-3.5c1-1.3,1.6-2.5,1.3-3.1c1.5-0.3,2.9-1.6,2.9-4c0-1.3,0.6-3.1,0.7-3.1c0,0,10.5-0.4,17.7-7.2
		c0,0,0.5,0.1,0.4,0.2c-2.7,2.7-5.6,4.8-9.1,6l-19,18.9L95.9,90.6z M98,88.5c0.3-0.3,0.3-0.4,0.2-0.5c-0.2-0.2-0.7,0.2-0.7,0.6
		C97.4,88.9,97.7,88.8,98,88.5L98,88.5z M99,87.5c0.2-0.2,0.2-0.4,0-0.6c-0.3-0.3-0.6-0.1-0.8,0.3C98.1,87.7,98.6,87.8,99,87.5
		L99,87.5z M99.8,86.6c0.1-0.1,0.2-0.3,0.2-0.3c0-0.1-0.4-0.5-0.5-0.5c-0.2,0-0.6,0.3-0.6,0.5c0,0.2,0.4,0.5,0.5,0.5
		C99.6,86.9,99.7,86.8,99.8,86.6L99.8,86.6z M100.6,85c-0.3-0.2-0.4-0.2-0.6,0c-0.2,0.2-0.2,0.5,0.1,0.8c0.2,0.2,0.3,0.2,0.6,0
		C100.9,85.5,101,85.3,100.6,85L100.6,85z M101.6,84.8c0.3-0.2,0.2-0.4-0.1-0.7c-0.3-0.3-0.6-0.3-0.8,0c-0.1,0.1-0.1,0.3-0.1,0.3
		c0,0.1,0.5,0.6,0.7,0.6C101.4,85,101.5,84.9,101.6,84.8L101.6,84.8z M102.5,83.9c0.2-0.2,0.2-0.4-0.1-0.8c-0.3-0.3-0.5-0.3-0.7-0.1
		c-0.3,0.2-0.2,0.5,0.1,0.8C102,84.2,102.2,84.2,102.5,83.9L102.5,83.9z M103.6,82.9c0.2-0.2,0.1-0.2,0-0.4
		c-0.2-0.3-0.7-0.8-0.9-0.8c-0.2,0-0.4,0.3-0.4,0.6c0,0.3,0.2,0.4,0.5,0.7c0.3,0.2,0.2,0.2,0.4,0.1C103.3,83.1,103.5,83,103.6,82.9
		L103.6,82.9z M104.4,82.1c0.4-0.4,0.3-0.5-0.6-1.5c-0.3-0.3-0.4-0.4-0.6-0.3c-0.2,0-0.2,0.1-0.3,0.3c-0.2,0.4,0,0.6,0.5,1.2
		C104,82.5,104.1,82.5,104.4,82.1L104.4,82.1z M105.3,81.1c0.1-0.1,0.2-0.3,0.2-0.4c0-0.2-0.7-1-1-1.1c-0.2-0.1-0.4,0-0.6,0.2
		c-0.1,0.1-0.1,0.2-0.1,0.3c0.1,0.2,1,1.2,1.1,1.2C105,81.3,105.2,81.3,105.3,81.1L105.3,81.1z M106.2,80.3c0.2-0.2,0.3-0.4,0.3-0.4
		c0-0.2-0.8-1.1-1-1.2c-0.2-0.1-0.3-0.1-0.5,0.2c-0.2,0.3-0.1,0.5,0.3,1c0.4,0.5,0.6,0.7,0.7,0.7C106,80.5,106.1,80.4,106.2,80.3
		L106.2,80.3z M107.1,79.3c0.2-0.1,0.5-0.4,0.4-0.6c-0.1-0.2-1.5-1.7-1.6-1.8c-0.3-0.2-0.3,0.1-0.3,0.8v0.4l0.6,0.6
		C107.1,79.7,106.9,79.5,107.1,79.3L107.1,79.3z M108.2,78.3c0.1-0.1,0.2-0.3,0.2-0.4c-0.6-0.7-2.2-2.9-2.5-2.8c0,0,0,0-0.1,0.1
		c-0.1,0.2-0.1,0.7-0.1,1c0.5,0.5,1.8,2.1,2,2.2C108,78.5,108,78.4,108.2,78.3L108.2,78.3z M109.1,77.4c0.1-0.1,0.2-0.2,0.2-0.3
		c0-0.1-0.2-0.3-0.4-0.5c-0.2-0.2-0.6-0.7-0.9-1c-1.6-2-1.7-2.1-1.9-1.9c-0.2,0.1-0.2,0.6-0.1,0.8c0.1,0.3,1.8,2.4,2.4,2.9
		C108.8,77.6,108.8,77.6,109.1,77.4L109.1,77.4z M110,76.5c0.1-0.1,0.2-0.3,0.2-0.4c0-0.1-0.3-0.4-0.5-0.7c-0.3-0.3-0.7-0.8-1-1.2
		c-0.7-0.9-0.7-0.9-1.2-0.9c-0.8-0.1-0.7,0.1,0.2,1.1c0.2,0.3,0.6,0.8,0.9,1.1c0.7,0.8,1,1.2,1.1,1.2
		C109.8,76.7,109.9,76.6,110,76.5L110,76.5z M110.9,75.6c0.4-0.3,0.3-0.5-1-1.8c-0.4-0.4-0.5-0.5-0.8-0.5c-0.3,0-0.4,0.1-0.4,0.2
		c0,0.1,1.7,2.2,1.9,2.2C110.7,75.8,110.7,75.8,110.9,75.6L110.9,75.6z M111.9,74.6c0.1-0.1,0.2-0.3,0.2-0.3c0-0.1-0.4-0.6-0.7-0.9
		c-0.2-0.1-0.4-0.3-0.5-0.3c-0.2,0-0.6,0.1-0.7,0.2c0,0.1,0.5,0.7,1,1.2C111.5,74.9,111.6,74.9,111.9,74.6L111.9,74.6z M112.7,73.8
		c0.2-0.2,0.2-0.4,0-0.7c-0.2-0.2-0.2-0.2-0.5-0.2c-0.6,0-0.6,0.2-0.2,0.7C112.4,73.9,112.5,74,112.7,73.8L112.7,73.8z M113.6,72.9
		c0.2-0.3,0-0.5-0.4-0.3c-0.1,0-0.1,0.2-0.2,0.2C113,73.1,113.4,73.2,113.6,72.9L113.6,72.9z M98.5,75.4c-0.9,0.6-2.3,1.6-3.3,2.3
		c0,0.2,0,0.5,0,0.8c0.6-0.4,2.4-1.5,3.2-2.2C98.4,76.1,98.5,75.7,98.5,75.4L98.5,75.4z M100.1,72.9c0-0.1-0.1-0.1-0.4,0.2
		c-0.3,0.3-3.2,2.4-4,3c-0.3,0.2-0.6,0.4-0.6,0.4c0,0.1-0.1,0.6,0.1,0.8c0.6-0.5,3.6-2.5,3.6-2.5C99.1,74.2,99.8,73.4,100.1,72.9
		L100.1,72.9z M99.8,79.3c0,0-3.5,4.2-4.7,6.4c0,0,0,2.4,0,3.8l-0.2,0.1c0,0,0-3.7-0.1-7.8c-0.1-10.1-0.2-12.6-0.2-12.6l-1.1-0.8
		l0-0.4c0,0,5.1,3.6,7.6,4.1C99.1,74.9,97.5,76,99.8,79.3L99.8,79.3z M95.6,84.4c0.1-0.2,0-0.2-0.1-0.2c-0.1,0-0.2,0.1-0.2,0.2
		c0,0.1,0,0.2,0.1,0.1C95.5,84.6,95.5,84.5,95.6,84.4L95.6,84.4z M96.4,83.2c0.5-0.6,0.9-1,1-1.5c-0.3,0.1-2.2,1.4-2.2,1.5
		c0,0.7-0.1,0.8,0.4,0.5C95.9,83.5,96.1,83.3,96.4,83.2L96.4,83.2z M96.6,81.6c0.5-0.5,2.5-1.5,2.8-2.1c0.1-0.2-0.2-0.5-0.2-0.4
		c0,0-2.9,1.8-3.9,2.7c-0.1,0.1-0.1,0.3,0,0.5C95.3,82.6,95.5,82.3,96.6,81.6L96.6,81.6z M95.9,80.8c0.6-0.4,2-1.4,2.3-1.6
		c0.6-0.4,0.7-0.6,0.5-0.9c-0.1-0.1-0.2-0.2-0.4-0.1c-1.7,1.2-1.9,1.4-3.2,2.2c-0.1,0.2-0.1,0.6,0.1,0.7
		C95.4,81.2,95.5,81,95.9,80.8L95.9,80.8z M95.9,79.5c1.6-1.1,2.4-1.7,2.5-1.8c0.1-0.1,0.1-0.7,0-0.7c-0.6,0.4-2.1,1.4-3.2,2.3
		c0,0.2-0.1,0.6,0,0.7C95.4,79.9,95.5,79.8,95.9,79.5L95.9,79.5z M95.7,75.4c1.1-0.8,2.2-1.6,3.4-2.4c1-0.7,1.2-0.8,0.8-1
		c-0.1-0.1-0.4-0.2-0.6-0.1C98,73,96.5,74,95.1,75c0,0.2,0,0.5,0,0.6C95.1,75.9,95.3,75.7,95.7,75.4L95.7,75.4z M95.6,74.2
		c0.1-0.1,0.7-0.5,1.3-0.9c1.7-1.2,1.9-1.4,1.9-1.5c0-0.4-0.5-0.4-0.9-0.1c-0.8,0.7-2.8,1.9-2.8,2.1c0,0.3,0,0.5,0,0.6
		C95.2,74.5,95.3,74.4,95.6,74.2L95.6,74.2z M96.1,72.5c1.7-1.2,1.7-1.2,1.7-1.4c0-0.2-0.2-0.1-0.4-0.1c-0.2,0-0.3,0.1-0.7,0.4
		c-1,0.8-1.4,1-1.5,1.2c0,0.1-0.1,0.4,0,0.4C95.2,73.2,95.3,73,96.1,72.5L96.1,72.5z M96.2,71.3c0.3-0.3,0.6-0.5,0.6-0.5
		c0-0.1-0.2-0.4-0.4-0.4c-0.2,0-0.4,0.1-0.9,0.6c-0.5,0.4-0.6,0.3-0.5,0.5c0,0.1,0,0.4,0.1,0.5C95.2,72.1,95.4,71.9,96.2,71.3
		L96.2,71.3z M95.5,70.5c0.4-0.3,0.4-0.4,0.2-0.6c-0.2-0.2-0.5-0.3-0.7-0.2c-0.1,0.1,0,0.7,0,0.9C95,70.8,95.2,70.7,95.5,70.5
		L95.5,70.5z M103.3,63.9c0-0.1,0.6-0.6,1.1-0.7c0.6-0.1,1.4-0.1,1.9,0.2c0.5,0.2,1,0.8,0.2,0.4c-0.7-0.3-2.1-0.3-2.7-0.1
		C103.5,63.9,103.3,64,103.3,63.9L103.3,63.9z M102.9,61.5c0,0,0.7,0.1,1,0.2c0.9,0.2,1.7,0.1,2.7-0.2c0.2-0.1,0.3,0.1,0.2,0.2
		c-0.5,0.3-1.2,0.5-1.7,0.6C103.9,62.5,102.5,61.8,102.9,61.5L102.9,61.5z M96.8,59.7c0.5-0.3,1.2-3.9,1-4.5c-0.6,1-1.4,1.4-2.4,1.3
		c-1.7-0.3-1.7-2.4-0.4-2.6c0.5-0.1,1.2,0.3,1.3,0.2c0.6-0.3,1-2.1,1.1-2.7c0.1-0.6,0.2-2.2,0.3-2.8c0-1.1,0-2.8,0-2.8L89.4,36
		l-18-0.1c0,0-0.1,13.8,0,20.8l5.1,4.9l0.1,7.9c5.7-2.5,11.2-5.1,16.6-7.9c-0.6-0.7-0.6-2.6,0.5-3.3C95.3,57.2,96.7,58.6,96.8,59.7
		L96.8,59.7z M101.3,61.4c0-0.4,0.4-0.8,0.4-1.3c0-0.1,0.1-0.2,0.4-0.1c0.3,0.2,0.5,0.1,0.9-0.1c0.7-0.3,0.9-0.3,1.4-0.1
		c0.3,0.2,0.5,0.2,0.8,0c0.4-0.3,0.9-0.4,1.3-0.3c0.6,0.2,0.8,0.3,1.1,0.2c0.2-0.1,0.4-0.4,0.4-0.4c0.2,0.4,0.2,0.9,0.3,1.2
		c0.3,0.5,0.2,0.9-0.2,0.7c-0.7-0.6-1.2-0.6-2.2-0.3c-0.6,0.1-0.9,0.2-1.5,0.2c-1.9-0.2-2.1-0.2-2.5,0.1
		C101.7,61.4,101.4,61.5,101.3,61.4L101.3,61.4z M106.5,57.8c-0.6-0.1-1.2-0.7-1.7-0.5c-0.6,0-0.9-0.6-0.6-1c0.5-0.5,1.3,0,1.6,0.2
		c0.7,0.5,0.8,0.5,1,0.5c1.1,0,0.9-1,0.4-1.4c-0.3-0.3-0.3-0.5-0.3-0.6c0.1-0.1,0.4,0,0.8,0.3c0.7,0.6,0.7,1.8-0.1,2.2
		C107.2,57.8,106.9,57.9,106.5,57.8L106.5,57.8z M108.8,54.3c-0.5-0.4-1.4-1.2-1.7-1.5c-0.4-0.5-0.6-0.8-0.5-1.2
		c0-0.3,0.1-0.5-0.1-0.6c-0.2-0.1-0.4-0.6-0.4-0.8c0-0.1,0.3,0,0.4,0.2c0.2,0,0.1-0.1,0.3-0.2c2.1-1.4,3.7-1.1,5.7-0.2
		c0.6,0.3,2.1,1.4,1.3,1c0,0-0.6-0.2-1.1-0.5c-1.7-0.8-3.6-1.3-5.2-0.3c-0.3,0.2-0.4,0.3-0.2,0.3c0.9-0.2,1.7-0.5,2.6-0.5
		c1.3,0,2.1,0.7,3.1,1.1c1.1,0.5,1.3,0.7,0.9,1.1c-0.1,0.1-0.2,0.1-0.7,0.1c-0.6,0-0.6,0-0.9,0.2c-0.8,0.5-1.9,0.8-2.9,0.7
		c-1.1-0.1-1.3-0.2-1.3,0c0,0.1,0.2,0.3,0.6,0.6c0.3,0.2,0.6,0.6,0.6,0.6C109.6,54.6,109.1,54.5,108.8,54.3L108.8,54.3z M108.5,52.5
		c0-0.1-0.3-0.7-0.4-0.9c-0.1-0.1-0.3-0.1-0.6,0.1c-0.2,0.2-0.3,0.3,0,0.5C107.9,52.6,108.5,52.7,108.5,52.5L108.5,52.5z
		 M110.2,52.6c0.5-0.2,0.9-1,0.7-1.3c-0.1-0.2-0.2,0-0.5,0.4c-0.1,0.2-0.3,0.5-0.4,0.5c-0.4,0.3-0.9,0-1.1-0.6
		c-0.1-0.3-0.3-0.6-0.4-0.4c-0.3,0.2,0,1.1,0.6,1.3C109.4,52.7,109.9,52.7,110.2,52.6L110.2,52.6z M111.6,52.4
		c0.5-0.1,0.7-0.4,0.6-0.6c0-0.2-0.4-0.4-0.6-0.4c-0.1,0-0.3,0-0.4,0.1c-0.2,0.2-0.4,0.8-0.4,0.9C110.9,52.7,111.1,52.6,111.6,52.4
		L111.6,52.4z M113.2,49c-2.3-0.9-4.1-1.2-6.3-0.3c-0.7,0.3-1.1,0.3-1.1,0.1c0-0.2,0.5-0.8,1-1.1c1.5-0.7,3.4-0.8,4.9,0
		c0.6,0.3,2.2,1.4,2.2,1.5C113.9,49.3,113.8,49.2,113.2,49L113.2,49z M140.3,74.9c0.5-0.3,0.8-0.9,0.5-1.2c-0.1-0.1-0.2-0.1-0.4-0.1
		c-0.2,0-1.6,0.4-1.9,0.5c-0.2,0.1-0.1,0.3,0.1,0.4c0.1,0.1,0.1,0.2,0.2,0.4c0,0.2,0,0.4,0.1,0.4C139.1,75.3,139.6,75.2,140.3,74.9
		L140.3,74.9z M138.2,75.4c0.2-0.3,0.1-0.7-0.3-0.9c-0.2-0.1-0.4-0.1-0.6,0.2C137,75.4,138,75.8,138.2,75.4L138.2,75.4z M136.2,75.8
		c0.1-1,0-3.8,0-3.8s-0.5,0.4-0.8,0.4c0.1-0.4,0.2-0.6,0.4-1c0.1-0.4,0.2-1.2,0.1-1.6c0-0.5-0.4-0.5,0-1.3c0.2-0.4,0.2-0.9,0-1.4
		c-0.1-0.3-0.1-0.4,0.1-0.8c0.2-0.3,0.1-0.5,0.1-1.1c0-0.9,0-1.1-0.3-0.3c-0.4,0.6-0.6,0.5-1.2,0.4c-0.6,1.4-1.3,2.8-1.3,3.9
		c0,0.7,0,0.8,0.4,2.4c0.2,0.6,0.2,0.8,0.2,1.5c0,0.7,0.1,0.9,0.2,1.3C134.3,75,135.1,76.1,136.2,75.8L136.2,75.8z M115.2,136.6
		l0-1.4c0,0-2.2,0.7-3.3,0.3c-1.1-0.3-1.1-0.4-1.1-0.2c0,0.2,0.9,0.7,1.7,0.8c0.5,0.1,1.6,0,2.2-0.2c0.3-0.1,0.3,0,0.2,0.1
		c-1.3,1-3,0.6-4.1-0.3c-0.6-0.6-0.9-0.6-0.6,0.2C111.6,138.9,115.2,137.1,115.2,136.6L115.2,136.6z M113.7,134.6l0.5,0
		c0,0-0.2-0.9-0.4-1.1c-0.5-0.5-1.3-0.4-1.7,0.1c-0.2,0.2-0.4,1-0.4,1l0.4,0C112.2,134.2,112.9,132.4,113.7,134.6L113.7,134.6z
		 M111.7,133.3c-0.3-0.1-0.9,0.2-1.2,0.4c-0.1,0.1-0.1,0.1,0,0.3c0.3,0.4,0.7,0.6,0.8,0.4C111.4,134.2,111.8,133.4,111.7,133.3
		L111.7,133.3z M115,134.2c0.1-0.3-0.2-0.7-0.6-0.9c-0.2,0-0.3-0.1-0.3,0.1c0.1,0.2,0.2,0.5,0.3,0.8c0.1,0.2,0.1,0.3,0.3,0.2
		C114.9,134.4,115,134.4,115,134.2L115,134.2z M136.2,116.2l0-2.3c-1.2,1.2-2.7,3.2-3.1,3.9L136.2,116.2z M100.7,52.7
		c0.5-0.2,0.9-0.9,0.7-1.2c-0.1-0.2-0.3,0-0.5,0.3c-0.3,0.5-0.4,0.5-0.7,0.5c-0.3,0-0.4-0.1-0.6-0.5c-0.1-0.4-0.3-0.5-0.4-0.3
		c-0.1,0.1-0.1,0.2,0,0.5C99.4,52.8,100,53,100.7,52.7L100.7,52.7z M102,52.5c0.5-0.2,0.7-0.2,0.6-0.4c0-0.2-0.5-0.4-0.7-0.4
		c-0.2,0.1-0.6,0.8-0.6,1C101.4,52.7,101.6,52.6,102,52.5L102,52.5z M98.9,52.2c0-0.2,0-0.3-0.1-0.4c-0.2-0.2-0.5-0.1-0.5,0.2
		c0,0.2,0.3,0.4,0.5,0.4C99,52.4,98.9,52.5,98.9,52.2L98.9,52.2z M102,50.8c0.8,0.3,1.2,0.3,0.8-0.1c-0.6-0.6-3.2-1.4-4.7-0.3
		c-0.1,0.1-0.1,0.7,0,0.7C99.3,50.3,100.7,50.3,102,50.8L102,50.8z M99.3,48.6c-0.7,0.2-1.3,0.6-1.3,0.9c-0.1,0.5,0.1,0.5,1,0.2
		c1.1-0.4,2.3-0.2,3.3,0.3c0.7,0.5,0.9,0.3,0.8-0.1C102.6,48.5,100.4,48.3,99.3,48.6L99.3,48.6z M99.3,48.6"/>
	<path fill="#E2CF00" d="M141.3,39.3l-4.8,4.8l0.1,5.6c0.5,0.9-7.4-2.5-8.7-3.6c0.1,3.8,5.3,8.1,8.6,9.6l0.1,12c0,0,1.3-0.5,2.1-0.8
		c0.5-0.2,1.8-0.2,2.2-0.4C141.5,58.4,142.1,47.7,141.3,39.3L141.3,39.3z M114.5,45.2c-0.5,0-0.7,0.1-0.7,0.4c-0.1,0,1.8,7,2.6,10
		c-1.7,1.7-3.5,4.7-0.9,7.5c0.5,0.6,1.5,1.1,2.5,1.7c0.4,0.4-5.2,4-10.1,4c-1.6-3.5-3.8-1.6-5-0.3c-1-0.1-4.5-2.2-6.4-3.4
		c0,0,0-0.5,0-0.6c0.1,0.8,7.2,2.6,7.5,1.8c-0.2,0-3.2-2-4-4C98.8,60,98,56.9,98,56.9c-0.4,1.1-0.3,2.7-1.3,3.3
		c-0.3-3.7-5.6-1.8-3,1.8c-1.5,0.4-2.7,1.2-4.1,1.8c3,4.1,7.1,6.8,11.4,8.3c-0.6,1.2-3.9,4-1.2,7.2c0.1,0.1-2.6,3.1-4,5.5
		c-1,1.8-0.7,3.1-0.6,3.2c3.8-4.3,5.9-7.9,5.9-7.9c0,0.5,4.5,0.2,4.4-3.8c0.1-1.1,0.3-2.3,0.7-3.3c6.9,0.3,12.7-2.1,17.7-7.2
		c0,0,1,0.3,1.7,0.4c0.3,0.1,0.8-0.2,0.9-0.2c0.3,0,0.7-0.1,1.1-0.3c0.5-0.3,1.1-0.8,1.6-1.3c0.7-0.6,1.5-1.2,1.8-1.8
		c0.3-0.7,0.1-1.5-0.2-2.3c-1.6-1.9-2.7,0.1-3.4-0.1c-2.5-3.3-4.5-12.8-4.8-12.9C121.1,47,116.4,45.2,114.5,45.2L114.5,45.2z
		 M97.6,51.7c-0.2,0-0.8,3-1.4,2.9c-2.5-1.6-2.5,1.7-0.4,1.6C97.6,56,98.6,53.1,97.6,51.7C97.7,51.7,97.7,51.7,97.6,51.7L97.6,51.7z
		 M71.2,57.3c0.1,17.9,0.4,35.8,0.8,53.6c1.6-0.4,2.8-0.7,4.4,0c0.1-5.1-0.3-17.9-0.2-30.3c6-4.7,10.3-9.9,13.3-16.6l-9.2,4.3
		c0,0-3,4.3-4,4.6c-0.1-0.6-0.3-7.9-0.2-11.1L71.2,57.3z M91.7,68.3L89.9,71c0,0,0,9,0.1,13.3c0.1,0.9,0.9,1.7,0.2,2.4
		c0.4,0,2.1,11.7,0.5,16.4c-0.3,0.8,0,1.4,0.4,1.6l3.5,3.5c1.1,0.4,2.2,0.2,3.1,0c3.3-3,7.9-8.2,7.9-8.2L93.3,88.5
		C92.3,85.6,91.7,68.3,91.7,68.3L91.7,68.3z M136.4,105.9c-8.9,6.6-12.7,16.1-12.8,16c0,0.1,0,0.5,0.5,0.2c2.3-1.2,8.2-3.9,8.2-3.9
		c1.4-1.7,2.5-3.3,4.1-4.9c0,0,0.2,7.3,0,11c1.5,1.1,4.9,4.5,4.9,4.5c0,0,1-52.1-1.1-53.4c-2,0.4-3,1.1-3.7-1.2
		C136.1,84.7,136.6,95.4,136.4,105.9L136.4,105.9z M117.1,76.6c-2.1,1.8-9.5,9-9.5,9.1c2,3.3,9.7,9.8,13.4,13.5l0.5,18.7
		c0.5-0.7,0.9-1.4,1.5-2.2c0,0-0.1-9.5-0.3-13.9c-0.1-1.3-0.4-2.3-0.3-2.5c-1-5.4-1.5-11.3,0-17.1C119,79.2,117.9,77.2,117.1,76.6
		L117.1,76.6z M117.7,98C117.7,98,117.7,98,117.7,98c-1.8,2.6-5.3,8.2-5.5,8.2c-0.1-0.2-3.6,0-4.2,2.2c-0.6,1.6-0.6,3.1-1,4.8
		c-7-0.2-12.2,2-17.6,7c-1.5,0.1-2.9,0.2-3.8,0.5c-0.8,0.3-1.2,0.8-1.7,1.2c-1.4,1-1.7,1.8-1.7,2.9c0.1,1.9,3.5,2.2,3.6,0.8
		c0.2,0,3.3,7.1,3.6,8.3c0.7,1.9,1.5,5.6,1.6,5.6c1.2,0.1,8.2,2,8.3,1.3c0.7-0.3-2.4-10.4-2.4-10.4c5.4-4.5-0.6-9.4-2-9.2
		c3.1-2.2,6.6-3.7,10.5-3.9c0.6,2.2,3.4,3.3,4.8,0.4c0,0,6,2.2,6,2.9c-2.5-0.4-4.5-0.6-7-0.8c4.8,2.6,4.9,6,5.9,9.4
		c0.1-0.6,1.4-3.2,1.4-3.2c1.6,3.6,4.7,1.1,3.4-1.8l3.8-1.8c0.4-0.2-5.7-7.2-11.3-8.2c0.3-0.5,0.4-1,0.7-1.4
		c1.4-1.4,2.5-3.4,0.3-5.8c1.4-2,4.7-6.8,4.5-6.9C117.8,100.1,117.9,97.9,117.7,98L117.7,98z M71.5,120c0,0-0.1,16.6,0,24.9
		c-0.1,0.3-0.2,2.2-0.2,2.2l5.1-4.8l0.2-6.2c1.3-0.3,9.7,3.9,9,3.9c0.6-0.3-3.8-8.7-9.1-9.7c-0.1-4.8-0.1-10.2-0.3-11.7
		C74.4,119,71.5,120,71.5,120L71.5,120z M116.9,130c-1.4,0.4-2,3.4-1.6,4.9c0.1,0.3,0,0.3,0.3,0.1c0.6-0.8,0.4-2.4,1.4-3.3
		C119.6,132.5,119.3,129.1,116.9,130L116.9,130z M116.9,130"/>
	<path fill="#D40000" d="M144,156.8v-1.5h1.4V147c0,0,0-2,0.1-2.2c1.1-3.6,6.9-3.4,7.2-0.1c0.1,0.5,0.1,2.4,0.1,2.4h-1.6
		c0,0,0-0.6,0-1c0.2-3.4-4-2.7-4.2-0.4c-0.1,0.4-0.1,1.4-0.1,1.4v8.3h1.6v1.5H144z M83.8,149.6l6.8-10.2c8.1,2.7,16.3,2.8,24.7,1.4
		l7.5,8.8h-3l-4.7-6.7c-1.7,0.4-3.5,0.6-5.2,0.8l2.2,5.9h-2.4l-1.7-5.8c-4,0.2-6.8-0.2-9.6-0.5l-1,6.4h-2.4l1.6-6.6
		c-1.9-0.4-3.8-0.7-5.4-1.2l-5,7.7H83.8z M91.6,143.6l2.8,0.8l-1.4,5.3h-5.1L91.6,143.6z M98.8,149.6l0.8-4.6
		c1.9,0.4,4.4,0.4,6.9,0.4l1.2,4.2H98.8z M112.1,145.3l2.2-0.6l3.3,4.9h-4L112.1,145.3z M129.7,148.8c-2.3-4.7-5.5-8.8-9-12.7
		c3.4-3.6,6.3-7.7,9-12.4c2.7,4.7,5.9,9.1,9.3,12.6C135.2,140.1,132.3,144.2,129.7,148.8L129.7,148.8z M148.5,140.3
		c-1.1-1.8-2.5-3.7-4.1-5.5c1.5-1.7,2.8-3.5,4-5.4c1.4,2.1,2.8,3.9,4.2,5.5C151.1,136.6,149.8,138.5,148.5,140.3L148.5,140.3z
		 M79.8,115.8c10.8-12.6,9.4-25.8,3.4-36.4l1.3-1.3c6.9,11.3,8.4,27.5-4.4,40C80,117.3,79.8,115.8,79.8,115.8L79.8,115.8z
		 M122.9,101.7c1.6,2.6,2.5,5.3,4.1,8l-3.9,5.3L122.9,101.7z M76.4,110c-0.1-8.3,0-25.1,0-25.1l3.6-2.8c4.4,5.3,6.7,19.3-1.1,28.6
		C78.4,110.3,76.8,110.4,76.4,110L76.4,110z M128.2,108.3c-10-16.9-4.9-29.2,4.7-40.1c0,0.8,0.1,1.7,0.2,2.5
		c-8.3,9.5-11.6,23.5-3.5,36.2L128.2,108.3z M110.1,105.9l4.6-6.2c0,0,0.9-2.5,1.6-3.2l0.8-0.7c0.3,0.3,0.8,0.6,0.8,0.9
		c0,0.3-0.4,1.8-0.4,1.8l-5.3,7.8C112.1,106.3,110.4,106,110.1,105.9L110.1,105.9z M134.3,75.7c0.1-0.2,2,0.6,2,0.6l0.1,25.5
		l-3.6,2.3C131.7,104.7,123.5,88,134.3,75.7L134.3,75.7z M96.2,86.5c1.6-2.2,3.4-4.2,5-6.3c0.4,0.1,1.5,0.2,1.5,0.2
		c0.1,0.1-0.4,1.7-1.5,2.8c-1.2,1.2-4,4.5-4.1,6.2c0,0.5-1.2,1.1-1.2,1.1L95,89.7C95.2,88.4,95.6,87.5,96.2,86.5L96.2,86.5z
		 M85.9,76.7l3.6-4.7l0.4,12.5L85.9,76.7z M73.5,49c3.5-3.7,6.5-7.9,9.4-12.3c2.6,4.3,5.6,8.8,9.2,12.3c-3.3,3.6-6.5,8-9.2,12.4
		C80.2,57.2,77.2,52.8,73.5,49L73.5,49z M59.7,50.1c1.6-1.6,3-3.4,4.1-5.3c1.3,1.9,2.5,3.9,4.2,5.5c-1.6,1.7-2.1,2.2-4.2,5.4
		C62.6,53.7,61.3,51.8,59.7,50.1L59.7,50.1z M97.7,45l-7.2-9H94l4.3,6.4l5.1-0.6l-1.8-5.8h2.1l1.5,5.7c3.1,0.1,6.2,0.3,9.2,0.6
		L116,36h2.2l-2,6.6l5.8,1.5l5.2-8.1h2.6l-7.3,10.5C112.8,43.6,105.2,43.9,97.7,45L97.7,45z M59.3,40.4c-0.1-0.8-0.1-1.6,0-2.3h1.6
		c0,0,0,0.6,0,1.1c0,3.1,3.7,2.7,4.2,0.7c0.2-0.7,0.2-1.8,0.2-1.8l0-8.2h-1.6v-1.6h4.7v1.6h-1.5v8.2c0,0,0,0,0,0.2
		c0,0.5,0,1.7-0.2,2.2C65.2,44.1,59.8,43.3,59.3,40.4L59.3,40.4z M118.5,41.2l1.6-5.2l4.9,0l-3.7,6L118.5,41.2z M106.6,40l-1-3.9
		h8.6l-1.1,4.4C110.8,40,108.7,40,106.6,40L106.6,40z M96.3,36h3.4l1.3,4.1l-2,0.2L96.3,36z M96.3,36"/>
	<path d="M89.4,35.4l8.3,10c1.7-0.6,10.5-1.6,15.7-0.4c0.9,3.6,1.9,7.2,2.9,10.4c0,0-0.3,0.4-0.6,0.6c-3.3,3.9-1,7.6,2.1,8.8
		c-0.6,1.1-6.4,4-10,3.7c0,0-1.1-2.6-3.3-1.7c-0.8,0.3-1.1,0.9-1.7,1.4c-2.1-0.6-5-2-6.4-3.6c2.7,1.4,5.4,2.1,8.2,1.7
		c0,0-0.3-0.3-0.7-0.5c-0.2-0.1-0.8-0.4-1.2-0.7c-1.3-0.9-2.1-1.9-3-3.6c-1-1.8-1.2-3.7-1.7-5.4c-0.3,0.9-0.4,3.1-1.2,3.6
		c-0.2,0.1-0.2,0.1-0.4-0.4c-0.6-1.8-2.7-1.5-3.4-0.3c-0.4,1.1-0.3,1.5,0.1,2.5L92,62.3l0,0.2l-0.8,0.4L91,62.8
		c-3.6,1.8-7.2,3.6-10.9,5.3c0,0-2,3.3-3.8,4.6l-0.1-11.1l-5.4-4.8l0,2.6c0,0,0.3,0.3,0.4,0.4c0.1,18.6,0,37,0,53.9l0,15.6l-0.3,0
		l0,1.8l0.4,0.1l-0.1,2.6l-0.2,0l0,1.6l0.3,0l0,9.2L71,145l0,2.6l5.6-5.3l0.1-6c4.4,0.8,9,4,9,4c-0.8-5.1-6.1-9.2-9.2-10.1l0-12
		c0,0-2.3,1-3.4,1.1c-0.6,0.1-0.8,0-1-0.4c-0.2-0.3-0.2-0.6,0-1.2c0.1-0.3,0.1-0.4,0-0.6c-0.1-0.4-0.1-0.6,0-1.3
		c0.1-0.4,0.1-0.6-0.1-1c-0.2-0.4-0.2-0.5-0.1-0.7c0.2-0.6,0.2-0.7,0.1-1c-0.2-0.6-0.2-0.9,0-1.3c0.8-1.4,2.7-1,3.7-1
		c0.5,0.6,0.8,0.9,0.9,0.1c0.4-1,1.7,0,2.4,0.4c5.5-7.4,8.2-17.3,1.3-29.8l-3.8,3.1l0-3.8c5.1-3.3,10.8-10.7,13.3-16.5
		c0.8,1,1.8,1.9,2.7,2.9l-0.6,1l-0.2-0.1c-1.6,3-5.9,8.7-5.9,8.6c1.6,2.9,3,5.9,4.2,8.9l0.3-0.1l0.3,0.9l-0.6,0.2
		c1.9,6.1,1.9,11.8,0.5,17.1l0.3,1.4c0,0,2,1.9,2.5,2.5c1.4,1.4,3,2.9,3,2.9l1.8-1.8l-0.1-0.2l15.9-15.8l1,0.9
		c-9.7,9.8-26.6,26.7-26.6,26.7l-0.6,0.1c-0.3,0-0.8,0.1-1.1,0c-0.5,0-0.6,0-1,0.2c-0.5,0.2-0.9,0.5-1.4,1.2
		c-0.2,0.3-0.4,0.4-0.7,0.5c-3.3,2-0.3,5.9,2.5,3.9c2.1,3.9,3.8,8.5,4.8,13.1c0,0-0.4,0.2-0.4,0.2l-7.4,11h2.9l0.3-0.5h-2.1l6.8-9.9
		c8.7,2.4,16.6,2.7,24.7,1.3l7,8.6h-2.8l0.4,0.5l3.6,0.1l-8.3-9.8c-3,0.8-10.8,1.4-15.7,0.6c-0.7-3.6-2-7.6-2.9-10.7
		c4.7-3.7,1.2-8.5-1.7-9.2c-0.1-0.3,5.9-3.9,10.1-3.7c1.2,2.9,3.9,2.5,4.9,0.3c1.8,0.7,4.1,1.3,5.9,2.8c-2.4-0.5-5.2-0.8-7.6-0.9
		c4.4,1.7,5.6,5.3,6.2,8.7c0.1,0.6,0.4,1.3,0.4,1.3c0.4-1.2,0.7-2.5,1.4-3.5c0.3,1.2,1.6,2.1,2.9,1.4c0.7-0.5,1-1.4,0.8-2.7
		c-0.1-0.3-0.1-0.5-0.1-0.5l1-0.5l0.1,0.1c0,0,1.1-0.5,1.6-0.7c0.1,0-0.1-0.2-0.1-0.2l9.9-4.7c0,0,2.5-3.5,4-4.8c0,4.1,0,5.9,0,10.8
		l0.6,0.5c0.5,0.5,1.6,1.5,4,3.7c0.6,0.5,0.9,0.8,0.9,0.8l-0.1-72.5h-0.1v-1.4l0.1,0l0-3.6l-0.1-0.1v-1.1l0.1-0.1l0-9.8l-0.2,0
		l0-2.4l-5.5,5.8l0,5.5c-2.5-0.3-5.5-1.9-7.6-3.2c-0.7-0.4-1.1-0.5-1-0.3c0.3,3.3,5,8.3,8.7,9.6l0,12.3c0,0,0.9-0.4,1.4-0.7l0.1,0.2
		l1.2-0.5l0.1-0.3l1-0.1c0,0.2,0,0.2,0,0.2c0.9,0.3,1.3,0.9,0.9,1.6c-0.1,0.2-0.2,0.6,0,0.7c0.4,0.6,0.5,1.2,0,1.8
		c-0.2,0.3-0.2,0.5,0,0.8c0.5,1,0.2,0.9-0.2,1.5c-0.1,0.4,0.4,0.7,0.2,1.2c-0.1,0.3-0.4,0.6-0.6,0.7c-0.2,0.2-0.4-0.1-0.4-0.1
		s-0.7,0.3-1.3,0.4c-0.5,0.2-1.4,0.5-1.7-0.2c-0.2-0.4,0-0.8,0-1.2l-0.8-0.1l0,2c-0.4,0.2-2.2-0.7-2.2-0.7
		c-7.5,9.7-7.2,20.4-1.7,29.3c0.1,0.1,3.9-2.6,3.9-2.6s0,2.3,0,3.5c-4.9,4-9.6,9.5-13,16.2l-2.1-2.5c0.4-0.3,0.4-0.8,0.4-1.2
		l1.5-2.3l0-0.6l3.9-5.5c0.1,0.3-4.1-7.4-4.6-9.9l0.3-0.1c-1.9-7-1.5-11.9-0.1-17.6l-0.4-0.4l-5.2-5.2c-0.4,0.4-0.8,0.8-1.3,1.2
		c-0.1,0.1-0.4,0-0.4,0.1c-2.7,2.6-5.4,5.1-8,7.8c-0.1,0.1,0,0.4,0,0.4c-2.6,2.7-5.3,5.2-8,7.9l-1-0.9c9.4-9.3,27-26.7,27-26.7
		s0.1-0.1,0.2-0.1c0.5,0,0.9-0.1,1.4-0.3c0.6-0.1,0.7-0.2,0.9-0.4c0.2-0.2,0.4-0.4,0.5-0.5c0.3-0.2,0.8-0.7,1.7-1.5
		c0.6-0.5,0.9-1.2,0.9-1.8c0-1.1-0.8-2.1-1.7-2.2c-0.4-0.1-1.2,0.2-1.6,0.4c-0.3,0.2-0.4,0.3-0.6,0.2c-1.9-3.9-3.8-8.7-4.6-12.8
		c0-0.3,0-0.3,0.2-0.6c0.1-0.2,0.4-0.6,0.6-1c1.7-2.5,3.7-5.5,5.5-8.2c0.3-0.4,0.9-1.3,0.9-1.3l0.5-0.7h-2.9l-0.4,0.6h2.4l-7.2,10.4
		c-13.3-4.3-24.2-1.6-24.4-1.5L90.8,36H94l-0.4-0.6H89.4z M95.9,35.4l0.4,0.6h3.4l-0.2-0.6H95.9z M101.6,36h2.1l-0.1-0.6h-2.2
		L101.6,36z M105.4,35.4l0.1,0.6h8.6l0.2-0.6H105.4z M116,36h2.2l0.2-0.6h-2.2L116,36z M120.3,35.4l-0.2,0.6h4.9l0.4-0.6H120.3z
		 M141.2,39.4l0.1,1.6l-3.5,3.7l0,5.2l-1-0.2l0-5.4L141.2,39.4z M140.2,42.9c0,1.6-0.2,3.1,0.2,4.7c0.2,0.8,0.6,1.7,0.7,2.7l-1.2,0
		c-0.1-0.5-0.2-1-0.4-1.6c-0.4-1.4-0.8-3-0.5-4.5L140.2,42.9z M114.8,45.5c0,0.1,0.2,0.8,0.3,1.4c0.6,3.4,1.4,6,2.3,8.6
		c1.1,3.3,2.6,7.4,4.2,9.3c0.2,0.2,0.3,0.5,0.2,0.6c-0.1,0.2-0.8-0.1-1.2-0.5c-0.2-0.2-0.5-0.7-0.7-1.1c-0.5-1-1.3-2.5-1.3-2.7
		c0-0.1-0.3-0.8-0.6-1.6c-0.6-1.4-0.9-2.3-1.3-3.8c-0.4-1.2-0.7-2.5-1.1-3.8c-0.7-2.1-1.1-3.8-1.4-5.7c-0.1-0.3-0.1-0.6-0.1-0.7
		C114.1,45.2,114.7,45.3,114.8,45.5L114.8,45.5z M115.2,45.6c-0.1-0.1,0.6-0.1,0.8,0.1c0.1,0.1,0.2,0.5,0.3,1
		c0.6,3.2,1.5,6.4,2.6,9.5c0.9,2.5,1.8,4.8,2.9,6.8c0.4,0.6,0.9,1.3,1.5,2.1c0.4,0.4,0.4,0.5,0.3,0.6c-0.1,0.1-0.3,0.1-0.7-0.1
		c-0.4-0.2-0.8-0.6-1.1-1.1c-0.1-0.2-0.3-0.5-0.4-0.6c-1.7-3-2.7-5.8-3.7-8.6c-1-2.9-1.8-5.9-2.4-9.3
		C115.2,45.8,115.2,45.7,115.2,45.6L115.2,45.6z M117.3,46c0.1,0.2,0.2,0.4,0.4,1.1c0.7,2.9,1.3,5.5,2.1,7.9
		c0.5,1.3,0.8,2.6,1.3,3.8c0.8,1.9,1.7,3.7,2.9,5.2c0.4,0.5,1.1,1.1,1.7,1.4c0.4,0.2,0.5,0.3,0.4,0.4c0,0.1-0.4,0.2-0.6,0.2
		c-0.6-0.1-1.6-0.6-1.9-1c-2-2.1-3.4-5.6-4.4-8.4c-1.8-4.9-3.2-11-2.9-10.8C116.4,45.7,117.1,45.8,117.3,46L117.3,46z M118.2,46.2
		c0.1,0,0.1,0,0.2,0c0.4,0.1,0.4,0.2,0.5,0.6c0.6,2.8,1.3,5.3,2,7.6c0.8,2.4,1.5,4.6,2.7,7c0.9,1.7,2,2.9,3.2,3.5
		c0.3,0.2,0.7,0.3,0.7,0.4c0,0,0,0.1,0,0.2c-0.1,0.1-0.1,0.1-0.4,0.1c-0.5,0-0.9-0.2-1.5-0.6c-1.5-1.1-2.9-3.5-3.5-4.8
		c-0.7-1.7-1.4-3.4-2-5.3c-1.1-3.4-1.8-5.6-2.2-8.5C117.9,46.3,118,46.2,118.2,46.2L118.2,46.2z M141.2,50.8l0,1
		c-3.9,0.3-7.9-1.4-11.1-2.9c2.4,3.2,5,6,11.1,6.6l0,1c-7.9-0.1-13.5-8.1-13.2-10.1C131.3,48.5,137.2,51,141.2,50.8L141.2,50.8z
		 M119.4,46.6c0.2,0,0.4,0.1,0.5,0.2c0.6,2.4,1.1,5.1,2.2,7.8c1.3,3.3,2,6.2,4.5,8.9c0.8,0.8,2.2,0.8,2.2,0.8s-0.2,0.4-0.4,0.5
		c-0.5,0.1-0.9,0.1-1.3,0c-1.4-0.6-2.5-2.1-3-3.1c-0.5-0.8-1.8-3.9-2.8-7.1c-1.1-3.5-2.1-7.1-2-7.9
		C119.3,46.6,119.4,46.6,119.4,46.6L119.4,46.6z M120.7,47c0.1,0,0.2,0,0.4,0.1c0.2,0.1,0.2,0.1,0.3,0.4c0.1,0.2,0,0.5,0.1,1
		c0.5,2.5,1.3,4.6,2.1,6.6c0.7,1.9,1.5,3.8,2.4,5.4c0.5,0.8,1,1.6,1.3,1.9c0.8,0.8,2.2,0.9,2.6,0c0.2-0.5,0.2-1.2-0.3-1.6
		c-0.3-0.3-1.1-0.2-1.2,0.2c0,0.1,0.2,0.1,0.5,0c0.8-0.1,1,1.3,0,1.5c-1.3,0.3-2.2-1.4-1-2.5c1.9-1.3,3.4,0.5,2.9,2.2
		c-0.4,1-1.2,1.5-2.1,1.6c-1.3,0-1.8-0.3-3.1-2.2c-1.5-2.4-2.1-4.7-3.2-7.3c-1-2.5-1.6-5.1-1.9-7.4C120.6,47,120.6,47,120.7,47
		L120.7,47z M121.9,47.4c0.1,0,0.4,0.1,0.5,0.1c0.1,0,0.2,0.1,0.2,0.1c1.7,6.3,3.2,10.1,4.6,12.8c0,0,0,0.5-0.1,0.6
		c-0.2,0.3-0.3,0.2-0.5-0.2c-0.9-1.8-1.8-3.8-2.6-5.8c-1-2.4-1.8-4.9-2.2-7.2C121.8,47.5,121.7,47.4,121.9,47.4L121.9,47.4z
		 M133.6,51c0.2,0,0.4,0.2,0.4,0.4s-0.2,0.4-0.4,0.4c-0.2,0-0.4-0.2-0.4-0.4S133.4,51,133.6,51L133.6,51z M97.6,50.9
		c-0.5,0.7-0.9,3.2-1.5,3.2c-0.6,0-1.3-0.3-1.8,0.2c-0.6,0.6-0.2,1.4,0.5,1.8c0.3,0.2,1,0.2,1.4,0.1C98,55.6,98.6,52.9,97.6,50.9
		L97.6,50.9z M135.3,51.6c0.4,0,0.6,0.3,0.6,0.6s-0.3,0.6-0.6,0.6c-0.4,0-0.6-0.3-0.6-0.6S135,51.6,135.3,51.6L135.3,51.6z
		 M97.7,51.9c0.6,1.4-0.1,3.2-0.8,3.8c-0.6,0.5-1.7,0.6-2.2,0.1c-0.5-0.5-0.3-1.5,0.6-1.5c0.3,0,0.7,0.3,0.9,0.6
		C96.7,54.9,97.4,51.9,97.7,51.9L97.7,51.9z M137.5,52.2c0.4,0,0.7,0.3,0.7,0.7c0,0.4-0.3,0.7-0.7,0.7s-0.7-0.3-0.7-0.7
		C136.8,52.6,137.1,52.2,137.5,52.2L137.5,52.2z M140.1,52.7c0.4,0,0.7,0.3,0.7,0.7s-0.3,0.7-0.7,0.7c-0.4,0-0.7-0.3-0.7-0.7
		S139.7,52.7,140.1,52.7L140.1,52.7z M116.3,56.1c0.1,0,0.2,0.1,0.3,0.3c0.1,0.4,0.1,0.5-0.1,0.8c-2.3,3.1-0.2,6.4,3.1,6.7
		c0.3,0,0.4,0.3,0.6,0.7c0,0.2,0,0.2-0.8,0.2c-0.5,0-0.9,0-1.1-0.1c-1.2-0.3-2.6-1.4-3.1-2.3c-0.7-1.1-0.8-2.3-0.4-3.8
		c0.3-1,0.6-1.6,1.1-2.2C116,56.2,116.2,56.1,116.3,56.1L116.3,56.1z M137.8,56.5l0,10.8l-1.1,0.4l0-11.5L137.8,56.5z M140,56.9
		c1.4,3.6,1.5,6.8,0.2,9.8l-1.3,0.2c1.8-4.2,1-7.2,0-10L140,56.9z M71.3,57.5l4.6,4.4l0.2,48.8l-0.7-0.3l-0.3-48l-3.8-3.5V57.5z
		 M116.7,57.6C116.7,57.6,116.7,57.6,116.7,57.6c0.1,0,0.3,0.2,0.4,0.5c0.1,0.4,0.1,0.4,0,0.7c-0.6,1.6-0.1,3,1.5,3.5
		c0.4,0.1,0.4,0.2,0.7,0.6c0.1,0.3,0.2,0.4,0.2,0.5c-0.1,0.1-0.3,0.1-0.9,0c-2.3-0.8-3.2-3.4-2.1-5.4
		C116.4,57.7,116.6,57.6,116.7,57.6C116.7,57.6,116.7,57.6,116.7,57.6L116.7,57.6z M98.1,57.4c0,0,0.5,1.7,0.4,2.1
		c-0.1,0.8-1.2,2-2.1,2.4c-0.9,0.3-2.2,0.2-2.7-0.4c-2-2.3,1.7-4.7,2.7-2.3c0.6,1.6-1.7,2-1.8,0.7c0-0.3,0.1-0.4,0.4-0.6
		c0.3-0.2,0.2-0.3,0-0.3c-0.9,0.3-0.9,1.1-0.5,1.6c0.8,0.8,1.7,0.3,2.4-0.3C97.7,59.6,97.9,58.4,98.1,57.4L98.1,57.4z M117.4,59.2
		c0,0,1,2.2,1.1,2.5c0,0.2-0.3,0.2-0.7-0.1c-0.4-0.3-0.5-0.5-0.7-1.2C117.1,60.2,117,59.3,117.4,59.2L117.4,59.2z M98.8,60.1
		c0.2,0,0.4,0.7,0.3,1.1c-0.2,0.7-1.9,1.8-3.1,2c-0.2,0-0.5,0.1-0.6,0.1c-0.3,0-0.5-0.1-0.8-0.4c-0.2-0.2-0.3-0.4-0.3-0.5
		c0,0,0.6,0.1,1.1,0c1.3,0,2.3-0.9,3.1-2.1C98.6,60.3,98.8,60.1,98.8,60.1L98.8,60.1z M72.5,60.7c0,0,0.9,0.8,1.4,1.3
		c-0.1,2.2-0.8,4.5-0.8,6.4c0,1.7,1.1,3.1,1.2,4.5c0.1,0.9-0.2,2.3-0.7,3.4c-0.4,1-0.7,2-0.7,3.1c0.1,2.4,1.8,5,1.2,7.3
		c-0.6,2.2-1.2,3.5-1,4.7c0.3,2.3,1.5,4.3,1.2,6.2c-0.3,1.8-1.1,3.5-1,5.1c0.1,1.8,0.8,3.4,1,5c0.1,1.1-0.2,2.8-0.2,2.8l-1.3,0.1
		c0.7-2.6-0.3-4.9-0.7-7.4c-0.3-2.1,0.6-3.8,0.9-5.6c0.2-1.1,0-2.2-0.6-3.6c-1.1-2.6-0.7-4.3,0.1-6.6c1-2.4-0.4-4.3-0.7-6.7
		c-0.2-2,0-3.4,0.7-5.2c0.6-1.7,0.7-2.7-0.1-4.4c-0.5-1-0.7-1.7-0.7-3C72,65.4,72.7,63.9,72.5,60.7L72.5,60.7z M99.4,61.7
		c0.2,0,0.3,0.1,0.3,0.4c0,0.5-0.8,1.1-2.1,1.8c-0.7,0.3-1.1,0.4-1.5,0.2c-0.4-0.2-0.4-0.3,0.1-0.5c1-0.3,1.8-0.7,2.6-1.5
		C99.1,61.9,99.3,61.7,99.4,61.7L99.4,61.7z M93.4,62.1c3.4,3.7,6.8,5.6,9.4,6.5l-0.4,1c-3.4-1.3-6.9-3.1-9.8-7.1L93.4,62.1z
		 M100,62.7c0.1,0,0.4,0.4,0.4,0.6c0,0.1-0.1,0.3-0.3,0.5c-0.2,0.3-0.4,0.4-1,0.8c-0.8,0.4-1.2,0.5-1.6,0.3s-0.2-0.3,0.6-0.8
		c0.4-0.3,1-0.7,1.3-0.9C99.7,62.9,100,62.7,100,62.7L100,62.7z M90.9,63.2c2.8,3.9,6.5,6.4,10.7,7.8l-0.7,0.9
		c-3.9-1.3-7.7-3.8-11.2-8.1L90.9,63.2z M100.7,63.7c0.1,0,0.5,0.4,0.5,0.5c0,0.1-0.1,0.2-0.1,0.3c-0.2,0.2-0.9,0.8-1.3,1
		c-0.3,0.1-0.5,0.1-0.7,0c-0.3-0.2-0.3-0.3,0.3-0.7c0.3-0.2,0.7-0.5,0.9-0.7C100.4,63.9,100.7,63.7,100.7,63.7L100.7,63.7z M89.4,64
		c-0.1,0.1-4.2,9.4-12.8,16.1l0-1.6c4.8-3.8,8.3-9,10.9-13.5L89.4,64z M101.5,64.7c0.1,0,0.2,0.1,0.3,0.3c0.1,0.2,0,0.4-0.5,0.8
		c-0.3,0.2-0.4,0.3-0.7,0.3c-0.6,0-0.6-0.2,0.1-0.8C101.2,64.8,101.4,64.7,101.5,64.7L101.5,64.7z M118.2,65.1l1.8,0.1
		c0.5,0.3-7,5.3-12.3,4.8l0.1-1.2C112.5,69,118.4,65.4,118.2,65.1L118.2,65.1z M102.8,65.6c0.4,0.2,0.9,0.5,0.8,0.6
		c-0.2,0.1-1.4,0-1.7-0.1c-0.2-0.1-0.2-0.2,0.1-0.5C102.3,65.2,102.4,65.4,102.8,65.6L102.8,65.6z M86.7,65.3
		c-2.9,5-6.3,9.6-10.2,12.6l-0.1-2.7c3.7-2.9,6.6-8.2,6.6-8.2L86.7,65.3z M122.5,65.6l0.9,0.5c-5.4,5-11.3,7.2-17,6.7l0.5-1
		C116,72.5,122.1,65.7,122.5,65.6L122.5,65.6z M123.8,65.8c0,0,0.3,0,0.3,0c-1.8,1.8-4.3,3.7-5.9,4.7c-7.7,7.9-14.3,14.1-21,21.2
		l-1.1-1.1l1-1c0-2,2.5-4.3,4-6.1c0.6-0.7,1.8-2.5,1.6-3.2c0-0.2,0-0.2,0-0.2c2.3-0.5,2.9-2.4,2.9-4c0.1-1.1,0.3-2.1,0.6-3
		C116.7,73.8,123.5,66.1,123.8,65.8L123.8,65.8z M105.4,67c1.2,0,2.1,0.9,2.1,2.3c0,0.6-0.2,1-1,2.5c-0.7,1.3-0.8,2-1.1,3.5
		l-0.8-0.7l-1.4,1.2l0-1.8c0,0,0.5-0.6,1.2-1.5c1-1.1,1.8-2.4,1.8-3.2c0-0.8-0.8-1.4-1.7-0.9c-0.7,0.5-1.1,1.4-1.5,4.2
		c-0.1,0.5-0.1,1.1-0.2,1.2c-0.1,0.3-1.2,1.3-1.2,1.3c-0.1,0-0.5-2-0.5-2l-1.1,0.2c1.2-1.3,2.2-2.9,2.8-4.6
		C103.7,67.6,104.4,67,105.4,67L105.4,67z M82.3,67.4c0,0-2.1,4.4-5.8,7.2l0-1.7c2.2-1.7,3.8-4.6,3.8-4.5L82.3,67.4z M133.2,67.5
		c-7.3,7.6-16.9,21.6-5,41.2l1.6-1.8c-9.6-17.8-2.8-27,3.5-36.2L133.2,67.5z M93.5,68.1c2.1,1.5,4.4,3,7.3,4c-0.2,0.5-4.1,3.9-1.3,7
		c0.1,0.2-0.2,0.6-0.7,1.1c-1.4,1.9-2.7,3.2-3.9,5.3l0,3.9l-1.1-1L93.5,68.1z M132.9,68.5l0,2.3c-10.9,13.2-9.7,25.2-3.5,36.2
		l-1.2,1.2C118.2,90.7,124.5,77.6,132.9,68.5L132.9,68.5z M106,69.8c-0.5,1.3-2.6,3.4-2.6,3.4s0.3-2.1,0.5-2.8
		c0.1-0.5,0.4-1.2,0.7-1.5C105.5,68,106.3,69.1,106,69.8L106,69.8z M91.6,68.6l0.2,17.8l-1.5-1.5L90,71.3L91.6,68.6z M89.5,72.1
		l0.3,12.1c-1.5-3.6-3.7-7.6-3.7-7.5C86.1,76.6,87.8,74.3,89.5,72.1L89.5,72.1z M101.6,75.9c0,0,0.2-0.2,0.6-0.6
		c0.8-0.8,0.9-0.8,0.8,0.3c0,0.4,0,1,0,1c0.5-0.3,1.6-1.6,1.9-1.3c0.2,0.2,0.4,0.7,0.4,1.4c0,1.4-0.8,2.7-2.1,3.2
		c-3.5,1.1-5.9-3-3.4-5.6c0.2-0.3,0.9-0.7,1.3-0.6C101.4,74.3,101.4,75.1,101.6,75.9L101.6,75.9z M136.6,74.6
		c0.2,0.6,0.5,1.1,1.2,1.4c-0.1,17.3,0,47.8,0,47.8l3.5,3.3l0,1.4l-4.6-4.2C136.6,124.3,136.4,88.2,136.6,74.6L136.6,74.6z
		 M140.1,75.4c0.1,1.7-0.2,3.4,0.1,5.1c0.3,1.2,0.7,2.3,0.7,3.4c0,1.1,0,1.7-0.5,3.2c-0.3,1-0.4,1.2-0.4,2.2
		c-0.2,1.4,0.3,2.8,0.7,3.9c0.5,1.5,0.3,3.4-0.4,5.8c-0.3,0.9-0.3,1.2-0.3,2c0.1,1.7,0.7,3.3,1,4.9c0.2,0.9,0,2.2-0.6,4.3
		c-0.2,0.8-0.4,2.1-0.4,2.6c0,0.5,0.2,1.6,0.3,2c0.8,2.1,0.8,2.5,0.9,3.8c0,1-0.3,1.9-0.6,2.8c-0.6,1.3-0.2,2.7,0,4.2l-1.4-1.2
		c-0.4-1.3-0.3-2.5,0.1-3.5c0.5-1.5,0.7-1.6,0.7-2.5c0-1.1-0.7-2.5-0.9-3.3c-0.5-1.4-0.5-2.8,0-4.4c0.2-0.7,0.6-2.2,0.7-2.8
		c0.1-1.1,0-2-0.5-4.3c-0.3-1.1-0.3-1.5-0.4-2.7c0-1,0.1-2.1,0.5-3.3c0.5-2,0.5-3.2-0.1-5c-0.5-1.5-0.6-2.5-0.5-3.7
		c0.1-0.7,0.3-1.4,0.6-2c0.6-1.5,0.7-2.9,0.2-4.3c-0.8-2.9-0.7-4.4-0.7-7L140.1,75.4z M136.2,76.4c-0.1,11.8,0,25.4,0,25.4
		s-3.5,2.5-3.5,2.3c-4.5-7.4-6.2-18.4,1.7-28.3C134.4,75.7,135.6,76.3,136.2,76.4L136.2,76.4z M82.9,79.2c6.4,11.9,7.2,24-3.3,36.3
		c0.3,1.1,0.3,2.1,0.1,3.1c2.1-1.6,18.6-18.1,4.7-41.1L82.9,79.2z M115.5,78.2l3.1,0.2l0.2,2.7l-1,1c0,0,0-0.6,0-1.1
		c0-0.6-0.1-1.1-0.2-1.1c-0.1,0-0.1,0.7-0.2,1.5l0,1.2l-0.4,0.4c-0.5,0.5-0.6,0.4-0.6-0.2c0-1.4,0-1.5-0.1-1.4
		c-0.1,0.1-0.1,0.6-0.1,1.3c0,0.6-0.1,1.2-0.1,1.3c-0.1,0.2-0.7,0.7-0.8,0.7c-0.1,0-0.1-0.2-0.1-1.1c0-0.8-0.1-1.2-0.2-0.9
		c0,0.1-0.1,0.8-0.1,1.4c0,0.6,0,1.2-0.1,1.2c-0.1,0.2-0.7,0.8-0.9,0.7c-0.2-0.1-0.2-0.5-0.2-1.3c0-0.4,0.1-0.7-0.1-0.8
		c-0.1-0.1-0.2,0.3-0.1,1.4l0,1.2l-0.4,0.4c-0.6,0.6-0.7,0.6-0.7-0.5c0-0.9,0-1.3-0.2-1.2c-0.2,0.1-0.1,0.5-0.1,1.4
		c0,0.8,0,1.2,0,1.3c0,0.1-0.2,0.3-0.4,0.5c-0.2,0.2-0.5,0.5-0.5,0.5c0-0.9-0.1-2.9-0.1-2.9l-3.3-0.1c0,0,0.7-0.8,1-0.9
		c0.1-0.1,0.4-0.1,1.2-0.1c0.6,0,1.3,0,1.4,0c0.2-0.1-0.3-0.2-1-0.2c-0.5,0-0.6,0-1.1-0.1l0.5-0.5l0.4-0.4l1,0c0.6,0,1.1,0,1.2,0
		c0.6-0.1,0-0.3-0.7-0.3c-0.7,0-1.1,0-1.1-0.2c0-0.2,0.8-0.9,1-0.9c0.1,0,0.7,0,1.2-0.1c1,0,1.3,0,1.3-0.2c-0.1-0.2-0.7-0.1-1.1-0.1
		c-1.2,0-1.3,0-0.4-0.8l0.4-0.3l0.8,0c1.1,0,1.7,0,1.7-0.1c0-0.1-0.7-0.2-1.4-0.2c-0.4,0-0.7,0-0.7,0c0.3-0.4,0.6-0.7,0.9-1l1,0
		c0.7,0,1.2,0,1.2-0.1c0-0.1-0.3-0.1-0.6-0.1c-0.5,0-1,0-1.1-0.1c-0.1-0.1,0.1-0.3,0.4-0.6L115.5,78.2z M84.4,78.2
		c8.8,14.3,5.6,29.8-4.2,39.5l-0.3-1.9c9.2-11.2,10.9-22.8,3.4-36.5L84.4,78.2z M100.7,80.2c-1.6,2.4-4,4.7-4.9,6.6
		c-0.2,0.2-0.2,0.7-0.5,0.8c-0.1,0-0.2-0.3-0.2-0.9c0-0.5,0.1-0.6,0.3-1.1c1.2-2.3,2.7-3.9,4.3-6.1L100.7,80.2z M101.1,80.4l1.5,0.1
		c-0.3,1-0.8,1.8-1.3,2.4c-0.7,0.9-1.5,1.7-2.4,2.8c-1.3,1.5-2,3.1-2,3.8c-0.3,0.4-0.6,0.6-1,1l-0.8-0.8
		C95.7,86.4,98.8,83.4,101.1,80.4L101.1,80.4z M118.9,81.7l0.5,0c1.6,0.1,2.6,0.2,2.7,0.3c0,0,0.1,0.3,0.1,0.5c0,0.4,0,0.7-0.2,1.6
		c-0.1,0.6-0.3,1.2-0.3,1.2c-0.2,0.2-0.3,0-0.3-0.9c-0.1-0.5-0.1-0.9-0.1-0.9c0,0-0.1,0.6-0.1,1c0.1,1.1,0,1.4-0.3,1.7
		c-0.6,0.6-0.6,0.5-0.7-0.5c0-0.4-0.1-1.1-0.2-1.1c-0.1-0.1-0.2,0.5-0.2,1.5v1.1l-0.3,0.3c-0.4,0.4-0.5,0.5-0.6,0.3
		c-0.1-0.1-0.1-0.3-0.1-0.9c0-0.7-0.1-1.1-0.3-1c0,0,0,0.7,0,1.3c0,0.6,0,1.1,0,1.2c0,0.1-0.7,0.8-0.8,0.8c-0.1,0-0.3-0.8-0.3-1.4
		c0-0.4-0.1-0.5-0.2-0.3c0,0.1,0,0.7,0,1.2v1l-0.4,0.4c-0.5,0.6-0.6,0.5-0.6-0.2c0-0.7,0-1-0.2-1c-0.1,0-0.1,0.3-0.1,1
		c0,0.5,0,1-0.1,1.1c0,0.1-0.2,0.3-0.4,0.5c-0.2,0.2-0.4,0.3-0.4,0.3c-0.1,0-0.2-0.6-0.2-0.9c0-0.1,0-0.4,0-0.9c0-1,0.1-1-1.5-1
		c-1.9-0.1-1.9-0.1-1.3-0.6c0.5-0.5,0.5-0.5,1.7-0.4c1,0.1,1.1,0.1,1.2,0c0.1-0.1,0.1-0.1,0.1-0.1c0,0-0.4-0.1-0.8-0.1
		c-1.2-0.1-1.3-0.2-0.8-0.7l0.3-0.3h1.3c0.9,0,1.4,0,1.5-0.1c0.1-0.1-0.3-0.2-1.1-0.2c-0.4,0-0.8-0.1-0.9-0.1
		c-0.2-0.1-0.1-0.3,0.2-0.6l0.3-0.3h1.1c1,0,1.5-0.1,1.5-0.2c0-0.1-0.2-0.1-0.7-0.1c-0.8,0-1.3-0.1-1.3-0.2c0.2-0.4,0.4-0.6,0.7-0.9
		l1.1,0c1.1,0,1.5,0,1.5-0.2c0-0.1-0.5-0.2-1.1-0.1c-0.4,0-0.9-0.1-0.9-0.2c0-0.1,0.2-0.3,0.4-0.5l0.4-0.4l1.1,0c0.6,0,1.3,0,1.3,0
		c0.2-0.1-0.2-0.2-0.9-0.3c-1.1-0.1-1.1-0.1-0.6-0.7L118.9,81.7z M80.1,82.3c5.8,10.3,4.9,20-1.2,28.3c-0.7-0.4-1.5-0.6-2.3-0.7
		L76.5,85L80.1,82.3z M121.4,86.3c0.1,0,0.1,0.2,0.1,0.6c0,0.3-0.1,0.7-0.1,0.7c-0.1,0.2-0.1,0.2-0.7,0.1c-0.6-0.1-0.6-0.2,0.1-0.9
		C121.1,86.5,121.3,86.3,121.4,86.3L121.4,86.3z M90.4,86.8c0,0,0.8,0,1.1,0c0,0,0.1,1.9,0.2,3l2.5,0.1l-1,1l-1.9-0.1
		C91.4,90.9,90.8,88.2,90.4,86.8L90.4,86.8z M119.9,88c0.3,0,1.3,0.2,1.4,0.3c0.1,0.1,0.1,0.3,0,1.5c0,0.4-0.1,1.4-0.1,2.1
		c0,1.3,0,1.3-0.2,1.3c-0.2,0-0.2,0-0.3-0.9c0-0.5-0.1-0.9-0.2-0.9c-0.1,0-0.1,0.4-0.1,1.3v1.2c-0.2,0.2-0.4,0.4-0.6,0.5
		c-0.1,0-0.2-0.2-0.3-0.8c-0.1-0.6-0.1-1-0.2-0.9c0,0,0,0.7,0,1.2l0.1,1l-0.4,0.4c-0.4,0.4-0.5,0.5-0.6,0.4
		c-0.2-0.4,0.1-2.5-0.3-2.7c-0.1,0-0.6,0-1.2-0.1c-1,0-1.6-0.1-1.8-0.2c-0.1-0.1,0.4-0.6,0.7-0.8c0.2-0.1,0.4-0.1,1.2,0
		c1,0.1,1.5,0.1,1.4-0.1c0,0-0.5-0.1-0.9-0.1c-0.8-0.1-1.1-0.2-1.1-0.3c0.2-0.3,0.4-0.5,0.7-0.8l0.4,0c0.2,0,0.7,0.1,1.1,0.1
		c0.4,0,1.2,0.1,0.9,0c0.1-0.1-0.3-0.2-0.9-0.3c-1.1-0.1-1.2-0.3-0.6-0.8l0.3-0.3c0.6,0,1.1,0.1,1.7,0.1c0.4,0.1,0.6,0,0.6-0.1
		c0-0.1-0.2-0.1-0.7-0.2c-0.2,0-1.1,0-1.1-0.3C119.1,88.5,119.5,88,119.9,88L119.9,88z M94.5,90.3c0.2,0,0.2,0.4,0.2,1.5
		c0,1.2,0,1.4,0.1,1.5c0.1,0.1,0.3,0.1,1.4,0.2c1.6,0.1,1.6,0.1,1.1,0.6c-0.4,0.4-0.4,0.3-0.7,0.3c-0.8-0.1-2-0.1-2.1,0
		c-0.1,0.1,0,0.2,0.8,0.2c0.9,0.1,1.2,0.1,1.2,0.3c0,0.1-0.2,0.3-0.3,0.5l-0.3,0.3l-1,0c-1,0-1.5-0.1-1.5,0.1c0,0.1,0.6,0.2,1.5,0.3
		c0.2,0,0.5,0,0.5,0.1c0,0.1-0.4,0.7-0.7,0.9c-0.2,0.2-0.3,0.1-1.3,0.1c-1,0-1.1,0-0.9,0.2c0,0,0.2,0.1,0.6,0.1
		c0.6,0,0.9,0.1,0.9,0.3c0,0.2-0.6,0.8-0.8,0.9c-0.2,0.1-0.3,0.1-0.9,0c-0.4-0.1-0.5-0.1-0.5-0.5c0-0.2,0-1.3,0.1-2.5
		c0.1-2.4,0.1-2.5,0.4-2.4c0.1,0,0.2,0.2,0.2,1c0,0.9,0.1,1,0.2,1c0.1,0,0.1-0.3,0-1.2c-0.1-1.3-0.1-1.5,0.3-1.8
		c0.2-0.2,0.3-0.3,0.4-0.2c0.2,0.5,0.1,1.1,0.2,1.6c0,0.5,0.2,0.6,0.2,0.1c0-0.8,0-1.5,0-2.3l0.5-0.5C94.3,90.5,94.4,90.3,94.5,90.3
		L94.5,90.3z M91.5,91.3c0.2,0,1.2,0,1.4,0c-0.3,0.4-0.8,1-1.2,1.2C91.6,92.5,91.5,91.5,91.5,91.3L91.5,91.3z M121.3,93.6l0.2,1.6
		l-1.7-0.1L121.3,93.6z M98.1,93.8C98.1,93.8,98.1,93.8,98.1,93.8c0.2,0.1,0.2,0.4,0.2,1.8c0,0.7,0.1,1.2,0.1,1.3
		c0,0.1,0.3,0.1,0.7,0.1c0.3,0,0.9,0,1.4,0c0.9,0.1,0.9,0.1,0.4,0.6l-0.4,0.4l-1.2,0c-1.2,0-1.4,0-1.4,0.1c0,0.1,0.2,0.2,0.6,0.2
		c0.2,0,0.5,0,0.8,0c0.7,0.1,0.7,0.1,0.2,0.7l-0.4,0.4l-0.4,0c-0.6-0.1-2.1-0.1-2.2,0c-0.1,0.1,0,0.2,0.7,0.2
		c1.1,0.1,1.3,0.1,1.3,0.2c0,0.1-0.1,0.3-0.3,0.4l-0.3,0.3l-1.4-0.1c-1,0-1.3,0-1.3,0.1c0,0.1,0.1,0.1,1.1,0.2
		c0.9,0.1,1.1,0.2,0.7,0.6c-0.4,0.5-0.5,0.5-1.3,0.5c-0.8-0.1-1.7-0.1-1.8,0c-0.2,0.1,0,0.2,0.6,0.2c0.9,0.1,1.4,0.2,1.4,0.3
		c0,0.1-0.3,0.5-0.6,0.7l-0.2,0.2l-1-0.1c-1-0.1-1.5-0.1-1.4,0.1c0,0,0.4,0.1,0.8,0.1c0.8,0.1,1.1,0.2,1.1,0.3c0,0-0.2,0.3-0.4,0.5
		c-0.2,0.2-0.5,0.4-0.5,0.4l-3.1-0.3c0,0-0.2-0.6,0.2-2.1c0.3-1.4,0.4-1.7,0.5-1.4c0,0.1,0.1,0.4,0.1,0.6c0.1,0.5,0.2,0.9,0.3,0.9
		c0.1,0,0.1-0.3,0-1.1c-0.2-1.1-0.2-1.1,0.2-1.5c0.3-0.4,0.5-0.5,0.6-0.3c0,0,0.1,0.5,0.1,0.9c0.1,0.7,0.1,0.9,0.2,0.8
		c0.1-0.1,0.1-0.3,0-1.3L93,99l0.5-0.5c0.4-0.4,0.5-0.5,0.5-0.3c0.1,0.1,0.1,0.5,0.2,1c0,0.8,0.1,1,0.2,0.9c0.1-0.1,0-1.8,0-2.2
		c0-0.3,0-0.3,0.3-0.7c0.4-0.4,0.6-0.6,0.7-0.6c0.1,0,0.2,0.4,0.2,1c0,0.6,0,0.9,0.1,1c0.2,0.2,0.2-0.5,0.1-1.2l0-1.3l0.4-0.4
		c0.4-0.4,0.4-0.4,0.5-0.3c0.1,0.1,0.1,0.3,0.1,1c0.1,0.9,0.2,1.3,0.3,0.7c0-0.1,0-0.4,0-0.6c0-0.2-0.1-0.6-0.1-1
		c0-0.5,0-0.7,0.2-0.9C97.4,94.3,98,93.8,98.1,93.8L98.1,93.8z M116,94.8c0,0,0.7,0.6,0.7,0.8c0,0.1-0.3,0.4-0.6,0.8
		c-0.7,0.7-0.7,0.8-0.8,1.5c0,0.3-0.2,0.6-0.5,1.3c-0.2,0.5-0.6,1.1-0.6,1.1c-1.1,1.3-2.1,2.5-4,5.3c-0.1,0.3-0.1,0.5-0.2,0.7
		c-0.1,0.2-0.3,0.3-0.4,0.3c-0.1,0.1-0.4,0.2-0.6,0.3c-0.7,0.5-1.2,1.3-1.4,2.2c-0.1,0.5-0.2,0.9-0.4,2.4c-0.1,0.6-0.4,1.7-0.4,1.7
		c-4.1-0.1-8,0.7-11.4,2.6L116,94.8z M121.5,95.4l0.9,4.2l-0.9,0l-0.1-3l-2.9-0.3l1.1-1L121.5,95.4z M117,95.8
		c0.3,0.3,0.6,0.5,0.8,0.8c-0.8,2.6-3.3,6-5.7,9.4l-1.8-0.2c0-0.1,2.5-3.6,3.7-5c0.5-0.6,0.8-1.1,1.2-1.9c0.2-0.3,0.4-1.1,0.6-1.9
		C116.2,96.6,117,95.8,117,95.8L117,95.8z M118,96.7l1.4,1.4l0.3,19.7c-2.1-1.7-4.6-2.9-7.3-3.8l0.5-1.1l0.5-0.5
		c1.8-2,1.4-4.1,0-5.5c1.7-2.4,3.2-4.3,4.5-6.6l0-1.6C117.9,97,118,96.7,118,96.7L118,96.7z M101.6,97.5c0.1,0,0.2,0.3,0.2,1.4
		c0,1,0.1,1.4,0.1,1.5c0.1,0.1,0.2,0.1,1.3,0.2c1.2,0,1.5,0.1,1.5,0.2c0,0-0.2,0.2-0.3,0.4l-0.3,0.3l-1.1,0c-0.6,0-1.2,0-1.3,0
		c-0.1,0.1,0.3,0.2,0.8,0.2c0.3,0,0.8,0.1,0.9,0.1c0.2,0.1,0.1,0.3-0.3,0.7l-0.4,0.4l-1,0c-0.5,0-1.2,0-1.3,0
		c-0.3,0.1-0.1,0.2,0.3,0.2c0.8,0,1.4,0.1,1.4,0.2c0,0.1-0.1,0.3-0.3,0.5l-0.4,0.4l-1.4-0.1c-1.4,0-1.5,0.1-0.4,0.2
		c0.4,0,1.1,0.1,1.1,0.2c0,0,0.1,0.1,0.1,0.1c0,0.1-0.5,0.7-0.8,0.9c-0.2,0.1-0.3,0.1-0.5,0c-0.3-0.1-1.6-0.1-1.8,0
		c-0.1,0.1,0.1,0.2,0.5,0.2c0.5,0,1.2,0.2,1.2,0.3c0,0.1-0.3,0.5-0.6,0.7c-0.1,0.1-0.5,0-1.4,0c-0.6,0-1,0.1-1,0.1
		c0,0,0.3,0.2,0.7,0.2c0.4,0,0.9,0.1,1,0.2c0.1,0.1-0.6,0.9-0.6,0.9l-3,0l-0.3-3.1l0.3-0.3c0.6-0.7,0.7-0.6,0.8,0.6
		c0.1,0.9,0.1,1.1,0.3,1c0,0,0-0.5,0-1.3c0-0.6-0.1-1.1-0.1-1.2c0-0.2,0.7-0.9,0.8-0.8c0.1,0,0.2,0.3,0.3,1.1
		c0.1,0.7,0.1,0.8,0.2,0.7c0.1-0.1,0.1-0.4,0-1.2l-0.1-1.1l0.3-0.3c0.6-0.7,0.7-0.6,0.8,0.5c0,0.7,0.1,1.1,0.3,1.1c0,0,0-0.6,0-1.4
		l0-1.3l0.4-0.4c0.2-0.2,0.4-0.4,0.4-0.4c0.1,0,0.2,0.3,0.3,1.1c0.1,0.8,0.1,1,0.2,0.9c0,0,0-0.5,0-1.2l-0.1-1.3l0.4-0.4
		c0.2-0.2,0.5-0.4,0.5-0.4c0.1,0,0.2,0.4,0.2,0.9c0,0.5,0.1,0.9,0.2,1c0.1,0.1,0.1-0.3,0.1-1.1c0-1.4-0.1-1.5,0.6-2.1
		C101.5,97.7,101.6,97.6,101.6,97.5L101.6,97.5z M117.7,98.1l0,1.9c-0.8,1.7-2.6,4.1-4.4,6.7l-0.9-0.5
		C114.7,103.2,116.5,100.5,117.7,98.1L117.7,98.1z M91.9,98.7c0,0,0.1,0,0.1,0c0.5,0,0.5,0.2,0,0.6c-0.2,0.2-0.4,0.3-0.5,0.3
		c-0.1,0-0.1,0-0.1-0.4C91.5,98.8,91.6,98.7,91.9,98.7L91.9,98.7z M121.3,100.1l1.3,1.3l0.3,14.1l-1.4,2.3L121.3,100.1z M123,102
		c1.2,2.8,2.4,5.5,3.8,7.6l-3.6,5L123,102z M111,106.3c1.6,0,3.1,1.3,3.3,2.6c0.4,1.5-0.4,3.1-1.7,3.6c-0.4,0.2-0.7,0.2-0.7,0.2
		c-0.2-0.9-0.1-1.8-0.3-2.7c0,0-0.8,1-1.2,1.4c-0.2,0.1-0.3,0.2-0.3-0.1c0-0.5,0.1-1.6,0.1-1.6l-1.9,2c0,0-0.2-0.2-0.3-0.7
		c-0.6-1.6,0.2-3.2,1.4-4C109.9,106.5,110.5,106.4,111,106.3L111,106.3z M136.2,106.2l0,1.7c-3,2.3-7.2,7.1-10.8,13.5l-1.6,0.7
		C126.2,116.2,131.4,110.2,136.2,106.2L136.2,106.2z M136.2,108.5l0,2.6c-2.6,2.5-4.9,5.1-6.9,8.5c-1.2,0.6-3.3,1.6-3.3,1.6
		C125.8,121.1,131.9,111.6,136.2,108.5L136.2,108.5z M109.8,110.7c0.1,0,0.1,0.2,0.1,0.6c-0.1,0.8-0.2,1-0.5,1.4
		c-1,1.1-2.5,2.7-2.7,4.1c-0.1,0.8,0.5,1.5,1.1,1.4c1.8-0.2,2-3.5,2.2-5.1c0.1-0.4,0.1-0.7,0.2-0.9c0.4-0.5,0.8-1,1.3-1.4l0.2,2.5
		l1-0.3c-2.9,3.9-2.1,4.2-3.6,5.8c-1.4,1.5-4.2-0.2-3.5-2.5c0.6-1.5,1.6-3.1,1.8-4.7c0.1-0.5,0.1-0.8,0.1-0.8l0.7,1.4
		C108.6,111.8,109.5,110.7,109.8,110.7L109.8,110.7z M136.3,111.5l0,1.8c-1.4,1.5-2.5,2.7-3.9,4.8l-2.2,1
		C131.6,116.4,134,113.8,136.3,111.5L136.3,111.5z M109.5,113.1c0,0,0.1,0.8-0.2,2.3c-0.2,0.7-0.8,2.8-1.9,2.3
		c-0.9-0.8,0.2-2.3,0.8-3C108.6,114.2,109.1,113.6,109.5,113.1L109.5,113.1z M106.6,113.3l-0.6,1.3c-5.4,0-10.6,1.9-15.2,5.9
		l-1.2-0.4C94.6,115.4,100.7,113.2,106.6,113.3L106.6,113.3z M112.3,114.3c6,2,8.8,5,11.1,8.1l-1,0.5c-2.4-3.1-5.4-5.9-10.9-7.6
		L112.3,114.3z M105.4,116.2l-0.3,1.1c-3.4,0.1-7,1.3-10.4,3.7l-1.3-0.2C96.9,118.1,100.9,116.5,105.4,116.2L105.4,116.2z
		 M120.8,123.6l-1.1,0.5c-3.2-4.2-6.1-5.3-9.4-6.4l0.4-0.9C115.2,118,118.4,120.2,120.8,123.6L120.8,123.6z M76.1,118.7l0.1,11.1
		l-0.8-0.2l-0.1-10.7L76.1,118.7z M74.3,119.3c-1.5,5.5-0.3,7,0.2,10.2l-1.2-0.2c-1.2-3.3-1.3-6.2-0.3-9.7L74.3,119.3z M111.4,120.1
		c0.1,0.1-0.1,0.4-0.3,0.5c-0.2,0.1-0.2,0.1-0.5,0c-0.3-0.1-0.8-0.4-0.8-0.6C110.1,120.1,111.2,120,111.4,120.1L111.4,120.1z
		 M112.5,120.2c0.2,0,0.8,0,0.8,0.2c0,0.1-0.2,0.3-0.7,0.6c-0.7,0.5-1,0.6-1.2,0.4c-0.2-0.2-0.1-0.4,0.2-0.8
		C112,120.3,112.1,120.2,112.5,120.2L112.5,120.2z M88.2,120.3c0.4,0,1.1,0.5,1.6,1.1c0.4,0.7,1,1.4,1.4,2.1
		c0.9,1.6,1.7,3.2,2.3,4.9c1.6,4,2.5,7.8,3.3,11.6c0,0.3-0.3,0.3-0.5,0.2c-0.1,0-0.2-0.1-0.3-0.2c-0.3-0.9-0.4-1.9-0.7-2.8
		c-0.6-2.4-0.9-3.7-2.1-7c-0.6-1.7-1.5-4.1-2.5-6c-0.6-1.2-1.4-2.3-2.3-3.2c-0.3-0.3-0.6-0.5-0.6-0.5
		C87.7,120.4,87.9,120.3,88.2,120.3L88.2,120.3z M114,120.5c0.4,0.1,1.3,0.2,0.9,0.5c-1.3,0.5-1.7,1-2.4,1.6c-0.1,0-0.5-0.5-0.5-0.6
		C112.6,121.2,113.3,121,114,120.5L114,120.5z M90,120.5c0.5,0,1.1,0.7,1.3,1.1c1.6,2.4,3.1,5.9,4.2,9.3c1.3,3.6,2,7.2,2.4,9.7
		c0,0.1-0.2,0.1-0.4,0.1c-0.3,0-0.4-0.1-0.5-0.3c-0.9-4.1-2-8.4-3.4-12c-0.7-1.9-1.6-3.9-2.8-5.8c-0.8-1.2-1.3-1.8-1.2-1.9
		C89.7,120.5,89.8,120.5,90,120.5C90,120.5,90,120.5,90,120.5L90,120.5z M86.3,120.5c0.7,0,1.9,0.9,2.7,2c1.7,2.4,2.7,5.1,3.7,7.8
		c1.2,3.1,2,6.5,2.5,9.2c0.1,0.4,0.2,0.6-0.1,0.7c-0.6-0.2-0.5-0.1-0.7-0.8c-0.2-0.7-0.3-1.4-0.5-2.2c-1.2-4.2-2.5-8.8-4.6-12.6
		c-2.6-4.2-3.3-3-3.8-3.7C85.6,120.7,85.9,120.6,86.3,120.5L86.3,120.5z M92.6,121.6c2.2,3.9,3.2,6.3,3.9,8.6
		c1,3.6,2.2,6.4,2.8,10.5c0,0-0.6,0-0.8-0.1c-0.1-0.1-0.2-0.5-0.3-0.9c-0.5-2.9-1.4-6.4-2.3-9.1c-1-3-2.2-5.9-3.9-8.7
		c-0.5-0.8-0.5-1-0.3-1.1C92.1,120.9,92.3,121.3,92.6,121.6L92.6,121.6z M115.8,121.1c0.1,0,0.1,0,0.3,0c0.3,0.1,0.4,0.2,0.4,0.3
		c0,0.2-0.2,0.2-0.7,0.4c-0.4,0.1-1.3,0.6-1.9,1.1c-0.3,0.2-0.5,0.5-0.6,0.5c-0.1,0-0.5-0.4-0.5-0.5
		C113.3,122.2,114.8,121.2,115.8,121.1L115.8,121.1z M85.1,121.2c1.9,0.1,3.4,2.3,4.1,3.7c0.3,0.6,0.7,1.2,1,1.9
		c1.5,3.4,2.8,7.7,3.5,10.5c0.3,1.3,0.7,2.3,0.5,2.5c-0.2,0.1-0.5,0-0.6-0.1c-0.1-0.1-0.1-0.4-0.3-0.9c-0.4-1.4-1.2-5.5-3.1-9.7
		c0-0.1-1-2.8-2.6-5.3c-0.6-1-1.7-1.7-2.6-1.9c-0.5-0.1-0.6,0-0.6-0.3c0-0.2,0.1-0.2,0.3-0.3C84.8,121.3,85,121.2,85.1,121.2
		L85.1,121.2z M96.9,130c-0.1,0-0.2-0.2-0.3-0.7c0-0.2-0.1-0.3,0.3-0.6c2.3-2.5,0.3-6.1-2.6-6.5c-0.3,0-0.6,0-0.7-0.1
		c-0.2-0.1-0.4-0.6-0.5-0.8C97,120.4,101.3,126.2,96.9,130L96.9,130z M117.2,121.9c0.2,0.1,0.8,0.6,0.7,0.7
		c-0.1,0.1-0.5,0.1-1.2,0.2c-1.4,0.2-2,1.2-2.7,1.8c-0.1,0-0.3-0.1-0.4-0.3c-0.1-0.2-0.2-0.4-0.2-0.4
		C114.2,122.8,116.1,121.8,117.2,121.9L117.2,121.9z M84.1,122.2c1.2,0,2.4,0.6,3,1.5c2.4,3.7,5.2,11.8,5.8,15.8
		c-0.1,0.1-0.2,0.1-0.6,0c-0.2-0.1-0.2-0.1-0.3-0.5c-0.8-2.9-1.6-5.8-2.6-8.4c-0.5-1.3-1.1-2.6-1.7-3.8c-0.4-0.7-1.1-2.1-1.3-2.5
		c-0.6-1.2-1.9-1.6-2.8-1.2c-0.8,0.5-1,1.6-0.3,2c0.5,0.4,1.4,0.3,1.7-0.3c0.1-0.2,0.1-0.5,0-0.5c-0.1-0.1-0.2,0-0.2,0
		c0,0.7-0.9,0.8-1.3,0.5c-0.6-0.5-0.2-2,1.5-1.4c0.7,0.3,0.9,1,0.6,1.7c-0.3,0.7-0.8,1-1.6,1c-0.9,0-2-0.7-2-1.9
		c0-0.9,0.4-1.6,1.2-2.1C83.6,122.2,83.7,122.2,84.1,122.2L84.1,122.2z M94.2,122.7c2.9,0.1,4.2,3.5,2.7,5.6
		c-0.4,0.5-0.6,0.4-0.8-0.2c-0.1-0.3-0.2-0.3,0.1-0.5c1.4-1.3,0.2-3.8-2-3.9c0,0-0.4-0.6-0.5-0.9C93.9,122.7,94.1,122.7,94.2,122.7
		L94.2,122.7z M118.3,123c0.2,0.1,0.7,0.5,0.7,0.7c0,0.2-0.1,0.2-0.6,0.1c-1.2-0.2-2.4,0.5-3.4,2c-0.5,0.9-0.6,0.8-0.8,0
		c-0.1-0.4-0.1-0.4,0.4-1.1C115.4,123.4,116.9,122.8,118.3,123L118.3,123z M119.4,124.5c1,0.9,0.5,3-0.8,3.2
		c-1.2,0.1-2.3-1.2-1.5-2.1c0.5-0.5,1.1-0.6,1.5-0.1c0.4,0.5,0.2,1.1-0.3,1.2c-0.1,0-0.1,0.1-0.1,0.1c0,0.1,0.5,0.1,0.7-0.1
		c0.3-0.4,0.3-1,0-1.4c-0.3-0.4-0.8-0.7-1.3-0.5c-0.8,0.3-1.6,1.4-2.1,2.8c-0.1,0.4-0.2,0.8-0.3,0.8c-0.1,0.2-0.1,0.2-0.2,0.1
		c-0.1-0.1-0.3-0.9-0.3-1.2c0-0.2,0.2-0.9,0.5-1.5C116,124.3,118,123.2,119.4,124.5L119.4,124.5z M94.6,124.1
		c1.2,0.1,2.1,1.7,1.6,2.9c-0.2,0.2-0.4,0.4-0.5,0.2c0,0-0.2-0.6-0.5-1.2c-0.3-0.6-0.5-1.1-0.6-1.3
		C94.5,124.4,94.4,124.1,94.6,124.1L94.6,124.1z M86.6,125.1c1.3,2.4,2.5,5.1,3.4,7.8c0.7,2.1,1.3,4.1,1.7,5.9c0,0.2,0.1,0.3,0,0.4
		c-0.1,0.1-0.8-0.2-0.8-0.2c-1.1-3.9-2-7.8-4.7-12.7c0,0-0.1-0.2-0.1-0.3c0-0.3,0.1-0.7,0.2-0.9C86.4,124.9,86.5,124.9,86.6,125.1
		L86.6,125.1z M71.5,129.6c6.4,0.4,11.3,3.1,13.9,10.2c-0.9-0.5-5.7-4.2-13.9-4.6l0-1c5.9,0,11.6,3,11.5,3
		c-2.2-4.5-7.7-6.3-11.5-6.4L71.5,129.6z M115.7,131c-0.4,0.6-0.4,0.6-0.6,1.1c0,0.2,0.1,1.3,0.1,1.9c0,0.8,0.1,1.2,0.1,1.3
		c0.1,0.1,0.3,0.2,0.4,0c0,0,0.1-0.2,0.2-0.4c0.5-2,0.8-2.7,1-3c0.1-0.2,0.2-0.2,0.8-0.1c1.3,0.1,1.7-1.4,0.9-2.1
		C117.4,129.2,116.2,130.3,115.7,131L115.7,131z M117.1,131.4c-0.9,0.8-1,1.9-1.2,2.9c-0.2,0.7-0.4,1-0.4,0c-0.2-1.4,0-2.5,0.7-3.3
		c0.4-0.6,1-1,1.6-1.1c1.2-0.1,1.3,0.9,1,1.4C118.4,131.7,117.7,131.9,117.1,131.4L117.1,131.4z M73.2,131.9c0.5,0,0.8,0.4,0.8,0.8
		c0,0.5-0.4,0.8-0.8,0.8c-0.5,0-0.8-0.4-0.8-0.8C72.4,132.3,72.7,131.9,73.2,131.9L73.2,131.9z M75.8,132.5c0.4,0,0.7,0.3,0.7,0.7
		c0,0.4-0.3,0.7-0.7,0.7c-0.4,0-0.7-0.3-0.7-0.7C75.1,132.8,75.4,132.5,75.8,132.5L75.8,132.5z M78.2,133.3c0.3,0,0.6,0.3,0.6,0.6
		c0,0.3-0.3,0.6-0.6,0.6c-0.3,0-0.6-0.3-0.6-0.6C77.6,133.6,77.9,133.3,78.2,133.3L78.2,133.3z M79.9,134.4c0.3,0,0.5,0.2,0.5,0.5
		c0,0.3-0.2,0.5-0.5,0.5c-0.3,0-0.5-0.2-0.5-0.5C79.5,134.6,79.7,134.4,79.9,134.4L79.9,134.4z M74,135.9c-0.2,0.9,0,1.8,0.2,2.5
		c0.5,1.4,0.3,3.8,0.3,3.8l-1.4,1.4c0.1-1.3,0.3-2.6,0.2-3.7c0-0.7-0.4-1.4-0.5-2.1c-0.1-0.7,0-2,0-2L74,135.9z M76.2,136.3l0,5.9
		l-4.7,4.6l0-1.2l4-4l-0.1-5.4L76.2,136.3z M87.9,149.6l-0.3,0.5h5.3l0.1-0.5H87.9z M94.8,149.6l-0.1,0.5h2.5l0.1-0.5
		C97.2,149.6,95.9,149.6,94.8,149.6L94.8,149.6z M98.8,149.6l-0.1,0.5h9.2l-0.1-0.5H98.8z M109.5,149.6l0.1,0.5h2.4l-0.2-0.5H109.5z
		 M113.6,149.6l0.2,0.5h4.2l-0.3-0.5H113.6z M113.6,149.6"/>
	<g>
		<defs>
			<rect id="SVGID_4_" x="38.6" y="5.6" width="134.8" height="174.4"/>
		</defs>
		<clipPath id="SVGID_7_">
			<use xlink:href="#SVGID_4_"  overflow="visible"/>
		</clipPath>
		<path clip-path="url(#SVGID_7_)" fill="none" stroke="#000000" stroke-width="0.2" d="M56.7,21.5V6 M54.5,23.7H38.9 M155.3,21.5V6
			 M157.5,23.7h15.6 M56.7,163.6v15.6 M54.5,161.4H38.9 M155.3,163.6v15.6 M157.5,161.4h15.6"/>
	</g>
</g>
<g>
	<path fill="#FFFFFF" d="M99.8,23.6h88.9c2.6,0,4.7,2.1,4.7,4.7v127.8c0,2.6-2.1,4.7-4.7,4.7H99.8c-2.6,0-4.7-2.1-4.7-4.7V28.3
		C95.2,25.7,97.2,23.6,99.8,23.6L99.8,23.6z M99.8,23.6"/>
	<path fill="none" stroke="#000000" stroke-width="0.792" stroke-miterlimit="3.8" d="M99.8,23.6h88.9c2.6,0,4.7,2.1,4.7,4.7v127.8
		c0,2.6-2.1,4.7-4.7,4.7H99.8c-2.6,0-4.7-2.1-4.7-4.7V28.3C95.2,25.7,97.2,23.6,99.8,23.6L99.8,23.6z M99.8,23.6"/>
	<path fill="#D40000" d="M109.7,49.5c4.4-4.3,7.2-8.9,10-13.4c2.4,4.9,5.9,9.2,9.6,13.4c-4,4.1-7.1,8.5-9.6,13.2
		C116.9,57.9,114,53.6,109.7,49.5L109.7,49.5z M109.7,49.5"/>
	<path fill="#D40000" d="M109.7,93.6c4.4-4.3,7.2-8.9,10-13.4c2.4,4.9,5.9,9.2,9.6,13.4c-4,4.1-7.1,8.5-9.6,13.2
		C116.9,102,114,97.7,109.7,93.6L109.7,93.6z M109.7,93.6"/>
	<path fill="#D40000" d="M109.7,137c4.4-4.3,7.2-8.9,10-13.4c2.4,4.9,5.9,9.2,9.6,13.4c-4,4.1-7.1,8.5-9.6,13.2
		C116.9,145.4,114,141.1,109.7,137L109.7,137z M109.7,137"/>
	<path fill="#D40000" d="M134.5,71.5c4.4-4.3,7.2-8.9,10-13.4c2.4,4.9,5.9,9.2,9.6,13.4c-4,4.1-7.1,8.5-9.6,13.2
		C141.7,79.9,138.8,75.6,134.5,71.5L134.5,71.5z M134.5,71.5"/>
	<path fill="#D40000" d="M158.7,49.5c4.4-4.3,7.2-8.9,10-13.4c2.4,4.9,5.9,9.2,9.6,13.4c-4,4.1-7.1,8.5-9.6,13.2
		C166,57.9,163.1,53.6,158.7,49.5L158.7,49.5z M158.7,49.5"/>
	<path fill="#D40000" d="M158.7,93.6c4.4-4.3,7.2-8.9,10-13.4c2.4,4.9,5.9,9.2,9.6,13.4c-4,4.1-7.1,8.5-9.6,13.2
		C166,102,163.1,97.7,158.7,93.6L158.7,93.6z M158.7,93.6"/>
	<path fill="#D40000" d="M158.7,137c4.4-4.3,7.2-8.9,10-13.4c2.4,4.9,5.9,9.2,9.6,13.4c-4,4.1-7.1,8.5-9.6,13.2
		C166,145.4,163.1,141.1,158.7,137L158.7,137z M158.7,137"/>
	<path fill="#D40000" d="M181.9,133.8c1.8-1.7,3-3.6,4.1-5.5c1,2,2.4,3.8,3.9,5.5c-1.6,1.7-2.9,3.5-3.9,5.4
		C184.9,137.2,183.7,135.5,181.9,133.8L181.9,133.8z M181.9,133.8"/>
	<path fill="#D40000" d="M98.8,52c1.8-1.7,3-3.6,4.1-5.5c1,2,2.4,3.8,3.9,5.5c-1.6,1.7-2.9,3.5-3.9,5.4
		C101.8,55.4,100.6,53.7,98.8,52L98.8,52z M98.8,52"/>
	<path fill="#D40000" d="M100.6,44.1c0.9-4.9,1.9-8.5,4.6-12.5h-5.3v1.7h-1.4V30h7.8l1,1.5c-2.8,3-5.3,12.7-4.9,12.5H100.6z
		 M100.6,44.1"/>
	<path fill="#D40000" d="M187.9,140.3c-0.9,4.9-1.9,8.5-4.6,12.5h5.3v-1.7h1.4v3.2h-7.8l-1-1.5c2.8-3,5.3-12.7,4.9-12.5H187.9z
		 M187.9,140.3"/>
	<g>
		<defs>
			<rect id="SVGID_3_" x="76.8" y="5.3" width="134.8" height="174.4"/>
		</defs>
		<clipPath id="SVGID_8_">
			<use xlink:href="#SVGID_3_"  overflow="visible"/>
		</clipPath>
		<path clip-path="url(#SVGID_8_)" fill="none" stroke="#000000" stroke-width="0.2" d="M94.9,21.2V5.6 M92.7,23.4H77.1 M193.6,21.2
			V5.6 M195.8,23.4h15.6 M94.9,163.2v15.6 M92.7,161H77.1 M193.6,163.2v15.6 M195.8,161h15.6"/>
	</g>
</g>
<g>
	<path fill="#FFFFFF" d="M135.9,23.8h88.9c2.6,0,4.7,2.1,4.7,4.7v127.8c0,2.6-2.1,4.7-4.7,4.7h-88.9c-2.6,0-4.7-2.1-4.7-4.7V28.5
		C131.2,25.9,133.3,23.8,135.9,23.8L135.9,23.8z M135.9,23.8"/>
	<path fill="none" stroke="#000000" stroke-width="0.792" stroke-miterlimit="3.8" d="M135.9,23.8h88.9c2.6,0,4.7,2.1,4.7,4.7v127.8
		c0,2.6-2.1,4.7-4.7,4.7h-88.9c-2.6,0-4.7-2.1-4.7-4.7V28.5C131.2,25.9,133.3,23.8,135.9,23.8L135.9,23.8z M135.9,23.8"/>
	<path fill="#D40000" d="M136.6,44.2c0.9-4.9,1.9-8.5,4.6-12.5h-5.3v1.7h-1.4v-3.2h7.8l1,1.5c-2.8,3-5.3,12.7-4.9,12.5H136.6z
		 M136.6,44.2"/>
	<path fill="#D40000" d="M224,140.5c-0.9,4.9-1.9,8.5-4.6,12.5h5.3v-1.7h1.4v3.2h-7.8l-1-1.5c2.8-3,5.3-12.7,4.9-12.5H224z
		 M224,140.5"/>
	<path fill="#D40000" d="M135.1,51c-0.7-1.5-0.8-4.1,1.3-4.5c1.6-0.2,2.2,0.5,2.3,1.6c0.1,0.3,0.2,0.3,0.3,0
		c0.1-1.1,1.2-1.8,2.1-1.6c2.4,0.4,2.3,3.1,1.5,4.9c-1.2,2.4-2.5,3.9-3.6,6.4C137.7,55.3,136.1,53.2,135.1,51L135.1,51z M135.1,51"
		/>
	<path fill="#D40000" d="M150.2,36.9c3.1-0.2,4.8,2.5,5.1,4.6c0.2,0.3,0.3,0.2,0.4,0c0.2-2.7,2.6-4.9,4.8-4.6c3.7,0,5.9,4.1,5.3,7.6
		c-0.8,4.2-3,6.8-4.8,9.4c-1.9,2.7-4.6,6.6-5.4,8.5c0,0-2.7-4-6.1-8.8c-2.3-3.2-4.2-6.6-4.3-9.6C145,40.5,146.3,37.4,150.2,36.9
		L150.2,36.9z M150.2,36.9"/>
	<path fill="#D40000" d="M199.3,36.9c3.1-0.2,4.8,2.5,5.1,4.6c0.2,0.3,0.3,0.2,0.4,0c0.2-2.7,2.6-4.9,4.8-4.6c3.7,0,5.9,4.1,5.3,7.6
		c-0.8,4.2-3,6.8-4.8,9.4c-1.9,2.7-4.6,6.6-5.4,8.5c0,0-2.7-4-6.1-8.8c-2.3-3.2-4.2-6.6-4.3-9.6C194,40.5,195.4,37.4,199.3,36.9
		L199.3,36.9z M199.3,36.9"/>
	<path fill="#D40000" d="M175,58.9c3.1-0.2,4.8,2.5,5.1,4.6c0.2,0.3,0.3,0.2,0.4,0c0.2-2.7,2.6-4.9,4.8-4.6c3.7,0,5.9,4.1,5.3,7.6
		c-0.8,4.2-3,6.8-4.8,9.4c-1.9,2.7-4.6,6.6-5.4,8.5c0,0-2.7-4.1-6.1-8.8c-2.3-3.2-4.2-6.6-4.3-9.6C169.8,62.5,171.2,59.5,175,58.9
		L175,58.9z M175,58.9"/>
	<path fill="#D40000" d="M150.2,81c3.1-0.2,4.8,2.5,5.1,4.6c0.2,0.3,0.3,0.2,0.4,0c0.2-2.7,2.6-4.9,4.8-4.6c3.7,0,5.9,4.1,5.3,7.6
		c-0.8,4.2-3,6.8-4.8,9.4c-1.9,2.7-4.6,6.6-5.4,8.5c0,0-2.7-4-6.1-8.8c-2.3-3.2-4.2-6.6-4.3-9.6C145,84.6,146.3,81.5,150.2,81
		L150.2,81z M150.2,81"/>
	<path fill="#D40000" d="M199.3,81c3.1-0.2,4.8,2.5,5.1,4.6c0.2,0.3,0.3,0.2,0.4,0c0.2-2.7,2.6-4.9,4.8-4.6c3.7,0,5.9,4.1,5.3,7.6
		c-0.8,4.2-3,6.8-4.8,9.4c-1.9,2.7-4.6,6.6-5.4,8.5c0,0-2.7-4-6.1-8.8c-2.3-3.2-4.2-6.6-4.3-9.6C194,84.6,195.4,81.5,199.3,81
		L199.3,81z M199.3,81"/>
	<path fill="#D40000" d="M218.2,135c-0.7,1.5-0.8,4.1,1.3,4.5c1.6,0.2,2.2-0.5,2.3-1.6c0.1-0.3,0.2-0.3,0.3,0
		c0.1,1.1,1.2,1.8,2.1,1.7c2.4-0.4,2.3-3.1,1.5-4.9c-1.2-2.4-2.5-3.9-3.6-6.4C220.8,130.8,219.2,132.9,218.2,135L218.2,135z
		 M218.2,135"/>
	<path fill="#D40000" d="M199.3,149.7c3.1,0.2,4.8-2.5,5.1-4.6c0.2-0.3,0.3-0.2,0.4,0c0.2,2.7,2.6,4.9,4.8,4.6
		c3.7,0,5.9-4.1,5.3-7.6c-0.8-4.2-3-6.8-4.8-9.4c-1.9-2.7-4.6-6.6-5.4-8.5c0,0-2.7,4-6.1,8.8c-2.3,3.2-4.2,6.6-4.3,9.6
		C194,146.1,195.4,149.2,199.3,149.7L199.3,149.7z M199.3,149.7"/>
	<path fill="#D40000" d="M150.2,149.7c3.1,0.2,4.8-2.5,5.1-4.6c0.2-0.3,0.3-0.2,0.4,0c0.2,2.7,2.6,4.9,4.8,4.6
		c3.7,0,5.9-4.1,5.3-7.6c-0.8-4.2-3-6.8-4.8-9.4c-1.9-2.7-4.6-6.6-5.4-8.5c0,0-2.7,4-6.1,8.8c-2.3,3.2-4.2,6.6-4.3,9.6
		C145,146.1,146.3,149.2,150.2,149.7L150.2,149.7z M150.2,149.7"/>
	<g>
		<defs>
			<rect id="SVGID_2_" x="112.9" y="5.4" width="134.7" height="174.4"/>
		</defs>
		<clipPath id="SVGID_9_">
			<use xlink:href="#SVGID_2_"  overflow="visible"/>
		</clipPath>
		<path clip-path="url(#SVGID_9_)" fill="none" stroke="#000000" stroke-width="0.2" d="M131,21.4V5.8 M128.8,23.6h-15.6
			 M229.6,21.4V5.8 M231.8,23.6h15.6 M131,163.4V179 M128.8,161.2h-15.6 M229.6,163.4V179 M231.8,161.2h15.6"/>
	</g>
</g>
<g>
	<path fill="#FFFFFF" d="M171.9,23.6h88.9c2.6,0,4.7,2.1,4.7,4.7v127.8c0,2.6-2.1,4.7-4.7,4.7h-88.9c-2.6,0-4.7-2.1-4.7-4.7V28.3
		C167.3,25.7,169.3,23.6,171.9,23.6L171.9,23.6z M171.9,23.6"/>
	<path fill="none" stroke="#000000" stroke-width="0.792" stroke-miterlimit="3.8" d="M171.9,23.6h88.9c2.6,0,4.7,2.1,4.7,4.7v127.8
		c0,2.6-2.1,4.7-4.7,4.7h-88.9c-2.6,0-4.7-2.1-4.7-4.7V28.3C167.3,25.7,169.3,23.6,171.9,23.6L171.9,23.6z M171.9,23.6"/>
	<path d="M172.7,44.1c0.9-4.9,1.9-8.5,4.6-12.5h-5.3v1.7h-1.4V30h7.8l1,1.5c-2.8,3-5.3,12.7-4.9,12.5H172.7z M172.7,44.1"/>
	<path d="M260,140.3c-0.9,4.9-1.9,8.5-4.6,12.5h5.3v-1.7h1.4v3.2h-7.8l-1-1.5c2.8-3,5.3-12.7,4.9-12.5H260z M260,140.3"/>
	<path d="M190.6,54.4c0-0.9-0.7-0.9-0.7-0.3c-0.1,3.3-2.8,4.9-4.8,4.5C182,58,181,55,181,53.2c0.1-5.6,5.7-9.7,10.8-16.9
		c3.7,6.5,9.9,11.5,10.2,16.5c0.5,6.6-7.9,9.1-9.1,1.4c-0.1-0.5-0.7-0.8-0.7,0c0.2,2.1-0.1,3,2.3,8.2h-6.3
		C189.7,60,190.5,57,190.6,54.4L190.6,54.4z M190.6,54.4"/>
	<path d="M239.7,54.4c0-0.9-0.7-0.9-0.7-0.3c-0.1,3.3-2.8,4.9-4.8,4.5c-3.1-0.6-4.1-3.7-4.1-5.5c0.1-5.6,5.7-9.7,10.8-16.9
		c3.7,6.5,9.9,11.5,10.2,16.5c0.5,6.6-7.9,9.1-9.1,1.4c-0.1-0.5-0.7-0.8-0.7,0c0.2,2.1-0.1,3,2.3,8.2h-6.3
		C238.8,60,239.6,57,239.7,54.4L239.7,54.4z M239.7,54.4"/>
	<path d="M215.4,76.5c0-0.9-0.7-0.9-0.7-0.3c-0.1,3.3-2.8,4.9-4.8,4.5c-3.1-0.6-4.1-3.7-4.1-5.5c0.1-5.6,5.7-9.7,10.8-16.9
		c3.7,6.5,9.9,11.5,10.2,16.5c0.5,6.6-7.9,9.1-9.1,1.4c-0.1-0.5-0.7-0.8-0.7,0c0.2,2.1-0.1,3,2.3,8.2h-6.3
		C214.5,82,215.4,79,215.4,76.5L215.4,76.5z M215.4,76.5"/>
	<path d="M239.7,98.5c0-0.9-0.7-0.9-0.7-0.3c-0.1,3.3-2.8,4.9-4.8,4.5c-3.1-0.6-4.1-3.7-4.1-5.5c0.1-5.6,5.7-9.7,10.8-16.9
		c3.7,6.5,9.9,11.5,10.2,16.5c0.5,6.6-7.9,9.1-9.1,1.4c-0.1-0.5-0.7-0.8-0.7,0c0.2,2.1-0.1,3,2.3,8.2h-6.3
		C238.8,104.1,239.6,101.1,239.7,98.5L239.7,98.5z M239.7,98.5"/>
	<path d="M190.6,98.5c0-0.9-0.7-0.9-0.7-0.3c-0.1,3.3-2.8,4.9-4.8,4.5c-3.1-0.6-4.1-3.7-4.1-5.5c0.1-5.6,5.7-9.7,10.8-16.9
		c3.7,6.5,9.9,11.5,10.2,16.5c0.5,6.6-7.9,9.1-9.1,1.4c-0.1-0.5-0.7-0.8-0.7,0c0.2,2.1-0.1,3,2.3,8.2h-6.3
		C189.7,104.1,190.5,101.1,190.6,98.5L190.6,98.5z M190.6,98.5"/>
	<path d="M239.7,131.8c0,0.9-0.7,0.9-0.7,0.3c-0.1-3.3-2.8-4.9-4.8-4.5c-3.1,0.6-4.1,3.7-4.1,5.5c0.1,5.6,5.7,9.7,10.8,16.9
		c3.7-6.5,9.9-11.5,10.2-16.5c0.5-6.6-7.9-9.1-9.1-1.4c-0.1,0.5-0.7,0.8-0.7,0c0.2-2.1-0.1-3,2.3-8.2h-6.3
		C238.8,126.2,239.6,129.2,239.7,131.8L239.7,131.8z M239.7,131.8"/>
	<path d="M190.6,131.8c0,0.9-0.7,0.9-0.7,0.3c-0.1-3.3-2.8-4.9-4.8-4.5c-3.1,0.6-4.1,3.7-4.1,5.5c0.1,5.6,5.7,9.7,10.8,16.9
		c3.7-6.5,9.9-11.5,10.2-16.5c0.5-6.6-7.9-9.1-9.1-1.4c-0.1,0.5-0.7,0.8-0.7,0c0.2-2.1-0.1-3,2.3-8.2h-6.3
		C189.7,126.2,190.5,129.2,190.6,131.8L190.6,131.8z M190.6,131.8"/>
	<path d="M174.8,54.8c0-0.4-0.4-0.2-0.4-0.1c-0.5,0.9-1.3,1.1-2,0.8c-0.7-0.3-1.1-1-1.1-2c0.1-1.5,1.3-3.2,1.9-4.1
		c0.5-0.8,1.2-1.9,1.8-3.1c0.7,1.5,1.1,1.9,1.9,3.3c0.7,1.2,1.7,2.4,1.8,3.8c0,1.1-0.5,2.1-1.5,2.3c-0.6,0.1-1.1-0.2-1.5-0.9
		c-0.1-0.2-0.4-0.1-0.4,0.2c0.1,0.9,0.4,1.8,1.2,2.7h-3C174.1,56.9,174.7,56,174.8,54.8L174.8,54.8z M174.8,54.8"/>
	<path d="M257.8,130.9c0,0.4-0.4,0.2-0.4,0.1c-0.5-0.9-1.3-1.1-2-0.8c-0.7,0.3-1.1,1-1.1,2c0.1,1.5,1.3,3.2,1.9,4.1
		c0.6,0.9,1.2,1.9,1.8,3.1c0.7-1.5,1.1-1.9,1.9-3.3c0.7-1.2,1.7-2.4,1.8-3.8c0-1.1-0.5-2.1-1.5-2.3c-0.6-0.1-1.1,0.2-1.5,0.9
		c-0.1,0.2-0.4,0.1-0.4-0.2c0.1-0.9,0.4-1.8,1.2-2.7h-3C257.2,128.8,257.8,129.7,257.8,130.9L257.8,130.9z M257.8,130.9"/>
	<g>
		<defs>
			<rect id="SVGID_1_" x="148.9" y="5.3" width="134.8" height="174.4"/>
		</defs>
		<clipPath id="SVGID_10_">
			<use xlink:href="#SVGID_1_"  overflow="visible"/>
		</clipPath>
		<path clip-path="url(#SVGID_10_)" fill="none" stroke="#000000" stroke-width="0.2" d="M167,21.2V5.6 M164.8,23.4h-15.6
			 M265.7,21.2V5.6 M267.9,23.4h15.6 M167,163.2v15.6 M164.8,161h-15.6 M265.7,163.2v15.6 M267.9,161h15.6"/>
	</g>
</g>
<g>
	<g>
		<path fill="#FFFFFF" d="M15.2,22.8c-1.3,0.3-2.5,0.2-3.6-0.3c-0.3,0.4-0.6,0.9-0.9,1.3c2,0.1,3.9,0.2,5.9,0c1-0.1,1.5-1.4,0.2-1.3
			c-5.1,0.3-10.3,0-15.4,0c-0.9,0-2,1.3-0.7,1.3c5.3,0,10.6,0.3,15.9,0c0.1-0.4,0.1-0.9,0.2-1.3c-1.8,0.2-3.6,0-5.4,0
			c-0.6,0-2,0.9-0.9,1.3c1.7,0.7,3.3,0.7,5.1,0.3C16.8,23.9,16.4,22.6,15.2,22.8L15.2,22.8z"/>
	</g>
</g>
<g>
	<g>
		<path fill="#FFFFFF" d="M15.8,23.5c0.1,0.1,0.2,0.2,0.3,0.3c0.4,0.4,2.2-0.3,1.8-0.7c-0.1-0.1-0.2-0.2-0.3-0.3
			C17.2,22.4,15.4,23.1,15.8,23.5L15.8,23.5z"/>
	</g>
</g>
<g>
	<g>
		<path fill="#FFFFFF" d="M22.6,19c-0.1-4.5-0.9-8.9-1-13.3c0-1.9-5.8-0.8-5.8,1.6c0.1,4.5,0.9,8.9,1,13.3
			C16.8,22.5,22.6,21.3,22.6,19L22.6,19z"/>
	</g>
</g>
<g>
	<g>
		<path fill="#FFFFFF" d="M59.6,19.7c-0.4-5-1-10-1-15c0-1.1-5.8-0.2-5.8,1.6c0,5,0.6,10,1,15C53.9,22.4,59.7,21.4,59.6,19.7
			L59.6,19.7z"/>
	</g>
</g>
<g>
	<g>
		<path fill="#FFFFFF" d="M97.7,19.9c0-5.3,0-10.7,0-16c0-3.2-5.9-2.5-5.9,0.4c0,5.3,0,10.7,0,16C91.8,23.5,97.7,22.8,97.7,19.9
			L97.7,19.9z"/>
	</g>
</g>
<g>
	<g>
		<path fill="#FFFFFF" d="M120.9,19.3c-0.1-0.4-0.2-0.9-0.3-1.3c-1.9,0.5-3.9,1-5.8,1.6c0.4,0.5,0.6,1.1,0.7,1.7
			c0.3,1.3,6-0.1,5.8-1.6c-0.6-5.5-0.4-11.1-0.3-16.7c0-1-5.8-0.2-5.8,1.6c0,5.6-0.3,11.1,0.3,16.7c1.9-0.5,3.9-1,5.8-1.6
			c-0.1-0.6-0.3-1.2-0.7-1.7c-0.7-1.3-6.1,0.2-5.8,1.6c0.1,0.4,0.2,0.9,0.3,1.3C115.5,22.3,121.3,20.8,120.9,19.3L120.9,19.3z"/>
	</g>
</g>
<g>
	<g>
		<path fill="#FFFFFF" d="M133.3,19.7c0.9-5.3-1.2-10.4-1.7-15.7c-0.2-1.7-6-0.4-5.8,1.6c0.5,5,2.5,9.9,1.7,15
			C127.2,22.5,133,21.5,133.3,19.7L133.3,19.7z"/>
	</g>
</g>
<g>
	<g>
		<path fill="#FFFFFF" d="M158.3,20.1c0.3-5.1,0.3-10.3,0.3-15.4c0-1.8-5.8-0.7-5.8,1.6c0,4.9,0,9.7-0.3,14.6
			C152.3,23.2,158.2,22,158.3,20.1L158.3,20.1z"/>
	</g>
</g>
<g>
	<g>
		<path fill="#FFFFFF" d="M169.9,19c-0.6-4.6-0.6-9.2-0.6-13.8c0-2.9-5.8-1.8-5.8,0.5c0,5,0,9.9,0.7,14.8
			C164.5,23,170.3,21.6,169.9,19L169.9,19z"/>
	</g>
</g>
<g>
	<g>
		<path fill="#FFFFFF" d="M196.3,19.7c1.9-4.4,0.4-9.8,0.3-14.4c0-1.7-5.8-0.6-5.8,1.6c0.1,4.4,1.5,9.4-0.3,13.6
			C189.8,22.2,195.5,21.5,196.3,19.7L196.3,19.7z"/>
	</g>
</g>
<g>
	<g>
		<path fill="#FFFFFF" d="M232.3,20.2c-0.1-6.1-1.2-12.2-1.3-18.3c0-3-5.9-2.1-5.9,0.5c0.1,6.1,1.2,12.2,1.3,18.3
			C226.5,23.7,232.3,22.8,232.3,20.2L232.3,20.2z"/>
	</g>
</g>
<g>
	<g>
		<path fill="#FFFFFF" d="M268.6,18.7c-0.2-0.3-0.1-0.7-0.3-1c-0.9-1.5-6.3-0.1-5.8,1.6c0.3,0.9,0.3,1.7,0.3,2.7
			c0,1.4,5.8,0.4,5.8-1.6c0-5.4,0-10.9,0-16.3c0-1.4-5.8-0.4-5.8,1.6c0,5.4,0,10.9,0,16.3c1.9-0.5,3.9-1,5.8-1.6
			c0-1-0.1-1.8-0.3-2.7c-1.9,0.5-3.9,1-5.8,1.6c0.2,0.3,0.1,0.7,0.3,1C263.9,21.9,269.3,19.8,268.6,18.7L268.6,18.7z"/>
	</g>
</g>
<g>
	<g>
		<path fill="#FFFFFF" d="M267,23.7c5,1.7,10.3,0.9,15.5,0.8c1.4,0,2.9-0.4,4.1-1.1c0.9-0.5,0.8-1.1-0.3-1.1
			c-4.6,0.1-9.4,1-13.8-0.5c-1.2-0.4-2.6,0-3.7,0.4C268.6,22.3,266.1,23.4,267,23.7L267,23.7z"/>
	</g>
</g>
<g>
	<g>
		<path fill="#FFFFFF" d="M268.6,162.5c4.7-0.5,9.5,0,14.3,0.1c1.3,0,3-0.5,3.8-1.5c0.9-1.1-0.7-1.4-1.5-1.4
			c-5.3,0-10.5-0.5-15.7,0.1c-1,0.1-3,0.7-3.3,1.8C265.8,162.7,268,162.6,268.6,162.5L268.6,162.5z"/>
	</g>
</g>
<g>
	<g>
		<path fill="#FFFFFF" d="M262.8,165.6c0.2,0.3,0.2,0.6,0.2,1c0.1,1.1,5.3-0.4,5.8-1.3c0.4-0.9,0.2-2.2,0.2-3.2c0-0.8-5.8,0-5.8,1.6
			c0,6-0.3,12-0.3,18c0,0.8,5.8,0,5.8-1.6c0-6,0.3-12,0.3-18c-1.9,0.5-3.9,1-5.8,1.6c0,0.7,0.2,2.1-0.1,2.7c1.9-0.4,3.8-0.9,5.8-1.3
			c0-0.4,0-0.7-0.2-1C267.8,162.7,262.4,164.9,262.8,165.6L262.8,165.6z"/>
	</g>
</g>
<g>
	<g>
		<path fill="#FFFFFF" d="M232.2,165c0.1-0.3,0.1-0.7,0.3-1c-1.9,0.4-3.8,0.8-5.8,1.3c0.5,4.7,0,9.6,0,14.3c0,1,5.8,0.2,5.8-1.6
			c0-4.7,0.5-9.7,0-14.3c-0.2-1.6-5.2,0.5-5.8,1.3c-0.2,0.3-0.2,0.7-0.3,1C226.2,167.4,231.9,166.4,232.2,165L232.2,165z"/>
	</g>
</g>
<g>
	<g>
		<path fill="#FFFFFF" d="M190.5,165.9c0.7,4.5,0,9.2,0,13.8c0,3.1,5.9,2.2,5.9-0.4c0-4.9,0.7-10,0-14.9
			C195.9,161.6,190,163.1,190.5,165.9L190.5,165.9z"/>
	</g>
</g>
<g>
	<g>
		<path fill="#FFFFFF" d="M169.9,164.7c0-0.5-0.1-0.9-0.3-1.3c-0.9-2-6.5-0.4-5.8,1.6c1.6,4.8,0.7,10,0.3,14.9
			c-0.2,2.4,5.6,1.3,5.8-0.7c0.4-5.2,1.4-10.7-0.3-15.8c-1.9,0.5-3.9,1-5.8,1.6c0.3,0.4,0.4,0.9,0.3,1.3
			C164.3,168.1,170.1,166.9,169.9,164.7L169.9,164.7z"/>
	</g>
</g>
<g>
	<g>
		<path fill="#FFFFFF" d="M152.1,165.9c1.4,4.6-0.2,9.3,0,14c0.1,2,5.9,0.8,5.8-1.6c-0.2-4.8,1.4-9.3,0-14
			C157.3,162.2,151.5,163.8,152.1,165.9L152.1,165.9z"/>
	</g>
</g>
<g>
	<g>
		<path fill="#FFFFFF" d="M127.8,165.9c1.1,4.5,0.3,9.2,0.3,13.7c0,3.2,5.9,2.4,5.9-0.4c0-4.9,0.8-10.1-0.4-14.9
			C132.9,161.5,127.1,163,127.8,165.9L127.8,165.9z"/>
	</g>
</g>
<g>
	<g>
		<path fill="#FFFFFF" d="M115.8,164.8c-0.2,5.3,0.8,10.7,0,16c-0.4,2.6,5.5,1.6,5.8-0.6c0.8-5.3-0.2-10.6,0-16
			C121.7,161.5,115.9,162.6,115.8,164.8L115.8,164.8z"/>
	</g>
</g>
<g>
	<g>
		<path fill="#FFFFFF" d="M92,165.7c2.5,4.3,0.3,10.2,0.8,14.9c0.3,2.4,6.1,1,5.8-1.6c-0.6-5.3,1.6-10.8-1.2-15.8
			C96.2,161.3,90.6,163.3,92,165.7L92,165.7z"/>
	</g>
</g>
<g>
	<g>
		<path fill="#FFFFFF" d="M59.6,165c0-0.4,0-0.9,0-1.3c-1.9,0.5-3.9,1-5.8,1.6c1.4,4.8,0,9.3-1,14c-0.3,1.6,5.4,0.7,5.7-0.9
			c1-4.9,2.5-9.6,1-14.6c-0.5-1.6-5.8-0.1-5.8,1.6c0,0.4,0,0.9,0,1.3C53.8,167.8,59.6,166.9,59.6,165L59.6,165z"/>
	</g>
</g>
<g>
	<g>
		<path fill="#FFFFFF" d="M16.8,165.9c0.1,1.8,0.3,3.6,0.3,5.3c1.9-0.5,3.9-1,5.8-1.6c-0.6-2.2-0.9-4.4-1-6.7
			c-1.9,0.5-3.9,1-5.8,1.6c2.1,4.6,1.3,10.1,0.3,14.9c-0.4,2.2,5.4,1.2,5.8-0.7c1-5,1.8-10.9-0.3-15.7c-0.9-2-5.8-0.5-5.8,1.6
			c0.1,2.3,0.4,4.5,1,6.7c0.6,2.1,5.9,0.5,5.8-1.6c-0.1-1.8-0.3-3.6-0.3-5.3C22.5,162.5,16.7,163.7,16.8,165.9L16.8,165.9z"/>
	</g>
</g>
<g>
	<g>
		<path fill="#FFFFFF" d="M18.1,159.3c-5-0.1-10-0.9-15.1-0.7c-3.1,0.2-4.6,3.9-0.7,3.7c4.5-0.2,9.1,0.6,13.6,0.7
			c1.4,0,3.1-0.4,3.8-1.7C20.5,160.1,19.2,159.3,18.1,159.3L18.1,159.3z"/>
	</g>
</g>
</svg>
