<?xml version="1.0" encoding="utf-8"?>
<!-- Generator: Adobe Illustrator 14.0.0, SVG Export Plug-In  -->
<!DOCTYPE svg PUBLIC "-//W3C//DTD SVG 1.1//EN" "http://www.w3.org/Graphics/SVG/1.1/DTD/svg11.dtd" [
	<!ENTITY ns_flows "http://ns.adobe.com/Flows/1.0/">
]>
<svg version="1.1"
	 xmlns="http://www.w3.org/2000/svg" xmlns:xlink="http://www.w3.org/1999/xlink" xmlns:a="http://ns.adobe.com/AdobeSVGViewerExtensions/3.0/"
	 x="0px" y="0px" width="300px" height="155px" viewBox="-8.4 11.6 300 155" enable-background="new -8.4 11.6 300 155"
	 xml:space="preserve">
<defs>
</defs>
<g>
	<path fill="#FFFFFF" d="M26,22h88.9c2.6,0,4.7,2.1,4.7,4.7v127.8c0,2.6-2.1,4.7-4.7,4.7H26c-2.6,0-4.7-2.1-4.7-4.7V26.7
		C21.3,24.1,23.4,22,26,22L26,22z M26,22"/>
	<path fill="none" stroke="#000000" stroke-width="0.7974" d="M26,22h88.9c2.6,0,4.7,2.1,4.7,4.7v127.8c0,2.6-2.1,4.7-4.7,4.7H26
		c-2.6,0-4.7-2.1-4.7-4.7V26.7C21.3,24.1,23.4,22,26,22L26,22z M26,22"/>
	<path fill="#D40000" d="M29.2,42.4v-1.2h1.1v-2h-5.7v-1.4l6.2-9.3l1,0v9.3h1.7v1.4h-1.7l0,2h1v1.2H29.2z M30.3,31.8l-3.9,5.9h3.9
		V31.8z M30.3,31.8"/>
	<path fill="#D40000" d="M111.7,138.8v1.2h-1.1v2h5.7v1.4l-6.2,9.3l-1,0v-9.3h-1.7v-1.4h1.7l0-2h-1v-1.2H111.7z M110.6,149.4
		l3.9-5.9h-3.9V149.4z M110.6,149.4"/>
	<path fill="#D40000" d="M25.2,48.9c-0.7-1.5-0.8-4.1,1.3-4.5c1.6-0.2,2.2,0.5,2.3,1.6c0.1,0.3,0.2,0.3,0.3,0
		c0.1-1.1,1.2-1.8,2.1-1.7c2.4,0.4,2.3,3.1,1.5,4.9c-1.2,2.4-2.5,3.9-3.6,6.4C27.8,53.1,26.3,51,25.2,48.9L25.2,48.9z M25.2,48.9"/>
	<path fill="#D40000" d="M41.1,33.5c3.1-0.2,4.8,2.5,5.1,4.6c0.2,0.3,0.3,0.2,0.4,0c0.2-2.7,2.6-4.9,4.8-4.6c3.7,0,5.9,4.1,5.3,7.6
		c-0.8,4.2-3,6.8-4.8,9.4c-1.9,2.7-4.6,6.6-5.4,8.5c0,0-2.7-4-6.1-8.8c-2.3-3.2-4.2-6.6-4.3-9.6C35.9,37.1,37.3,34,41.1,33.5
		L41.1,33.5z M41.1,33.5"/>
	<path fill="#D40000" d="M89.3,33.5c3.1-0.2,4.8,2.5,5.1,4.6c0.2,0.3,0.3,0.2,0.4,0c0.2-2.7,2.6-4.9,4.8-4.6c3.7,0,5.9,4.1,5.3,7.6
		c-0.8,4.2-3,6.8-4.8,9.4c-1.9,2.7-4.6,6.6-5.4,8.5c0,0-2.7-4-6.1-8.8c-2.3-3.2-4.2-6.6-4.3-9.6C84.1,37.1,85.5,34,89.3,33.5
		L89.3,33.5z M89.3,33.5"/>
	<path fill="#D40000" d="M41.1,146.3c3.1,0.2,4.8-2.5,5.1-4.6c0.2-0.3,0.3-0.2,0.4,0c0.2,2.7,2.6,4.9,4.8,4.6c3.7,0,5.9-4.1,5.3-7.6
		c-0.8-4.2-3-6.8-4.8-9.4c-1.9-2.7-4.6-6.6-5.4-8.5c0,0-2.7,4.1-6.1,8.8c-2.3,3.2-4.2,6.6-4.3,9.6C35.9,142.7,37.3,145.8,41.1,146.3
		L41.1,146.3z M41.1,146.3"/>
	<path fill="#D40000" d="M89.3,146.3c3.1,0.2,4.8-2.5,5.1-4.6c0.2-0.3,0.3-0.2,0.4,0c0.2,2.7,2.6,4.9,4.8,4.6c3.7,0,5.9-4.1,5.3-7.6
		c-0.8-4.2-3-6.8-4.8-9.4c-1.9-2.7-4.6-6.6-5.4-8.5c0,0-2.7,4.1-6.1,8.8c-2.3,3.2-4.2,6.6-4.3,9.6C84.1,142.7,85.5,145.8,89.3,146.3
		L89.3,146.3z M89.3,146.3"/>
	<path fill="#D40000" d="M107.6,132.5c-0.7,1.5-0.8,4.1,1.3,4.5c1.6,0.2,2.2-0.5,2.3-1.6c0.1-0.3,0.2-0.3,0.3,0
		c0.1,1.2,1.2,1.8,2.1,1.7c2.4-0.4,2.3-3.1,1.5-4.9c-1.2-2.4-2.5-3.9-3.6-6.4C110.2,128.3,108.6,130.3,107.6,132.5L107.6,132.5z
		 M107.6,132.5"/>
	<g>
		<defs>
			<rect id="SVGID_5_" x="3" y="3.7" width="134.8" height="174.4"/>
		</defs>
		<clipPath id="SVGID_6_">
			<use xlink:href="#SVGID_5_"  overflow="visible"/>
		</clipPath>
		<path clip-path="url(#SVGID_6_)" fill="none" stroke="#000000" stroke-width="0.2" d="M21.1,19.6V4 M18.9,21.8H3.3 M119.8,19.6V4
			 M122,21.8h15.6 M21.1,161.6v15.6 M18.9,159.4H3.3 M119.8,161.6v15.6 M122,159.4h15.6"/>
	</g>
</g>
<g>
	<path fill="#FFFFFF" d="M64.1,22h88.9c2.6,0,4.7,2.1,4.7,4.7v127.8c0,2.6-2.1,4.7-4.7,4.7H64.1c-2.6,0-4.7-2.1-4.7-4.7V26.7
		C59.4,24.1,61.5,22,64.1,22L64.1,22z M64.1,22"/>
	<path fill="none" stroke="#000000" stroke-width="0.7974" d="M64.1,22h88.9c2.6,0,4.7,2.1,4.7,4.7v127.8c0,2.6-2.1,4.7-4.7,4.7
		H64.1c-2.6,0-4.7-2.1-4.7-4.7V26.7C59.4,24.1,61.5,22,64.1,22L64.1,22z M64.1,22"/>
	<path fill="#D40000" d="M62.7,42V28.1h1.4V42H62.7z M62.7,42"/>
	<path fill="#D40000" d="M68.2,28.1c-1.3,0-2.4,1.2-2.4,2.7v8.6c0,1.5,1.1,2.6,2.4,2.6h0.8c1.3,0,2.4-1.2,2.4-2.6v-8.6
		c0-1.5-1.1-2.7-2.4-2.7H68.2z M68.6,29.4c0.8,0,1.4,0.6,1.4,1.3v8.7c0,0.7-0.6,1.3-1.4,1.3c-0.8,0-1.4-0.6-1.4-1.3v-8.7
		C67.2,30,67.8,29.4,68.6,29.4L68.6,29.4z M68.6,29.4"/>
	<path fill="#D40000" d="M154.3,139.3v13.9h-1.4v-13.9H154.3z M154.3,139.3"/>
	<path fill="#D40000" d="M148.8,153.1c1.3,0,2.4-1.2,2.4-2.6v-8.6c0-1.5-1.1-2.6-2.4-2.6h-0.8c-1.3,0-2.4,1.2-2.4,2.6v8.6
		c0,1.5,1.1,2.6,2.4,2.6H148.8z M148.4,151.8c-0.8,0-1.4-0.6-1.4-1.3v-8.7c0-0.7,0.6-1.3,1.4-1.3c0.8,0,1.4,0.6,1.4,1.3v8.7
		C149.8,151.2,149.2,151.8,148.4,151.8L148.4,151.8z M148.4,151.8"/>
	<path fill="#D40000" d="M63.1,48.5c-0.7-1.5-0.8-4.1,1.3-4.5c1.6-0.2,2.2,0.5,2.3,1.6c0.1,0.3,0.2,0.3,0.3,0
		c0.1-1.1,1.2-1.8,2.1-1.6c2.4,0.4,2.3,3.1,1.5,4.9c-1.2,2.4-2.5,3.9-3.6,6.4C65.7,52.7,64.2,50.7,63.1,48.5L63.1,48.5z M63.1,48.5"
		/>
	<path fill="#D40000" d="M78.3,34.5c3.1-0.2,4.8,2.5,5.1,4.6c0.2,0.3,0.3,0.2,0.4,0c0.2-2.7,2.6-4.9,4.8-4.6c3.7,0,5.9,4.1,5.3,7.6
		c-0.8,4.2-3,6.8-4.8,9.4c-1.9,2.7-4.6,6.6-5.4,8.5c0,0-2.7-4-6.1-8.8c-2.3-3.2-4.2-6.6-4.3-9.6C73.1,38.1,74.5,35,78.3,34.5
		L78.3,34.5z M78.3,34.5"/>
	<path fill="#D40000" d="M103,48.9c3.1-0.2,4.8,2.5,5.1,4.6c0.2,0.3,0.3,0.2,0.4,0c0.2-2.7,2.6-4.9,4.8-4.6c3.7,0,5.9,4.1,5.3,7.6
		c-0.8,4.2-3,6.8-4.8,9.4c-1.9,2.7-4.6,6.6-5.4,8.5c0,0-2.7-4-6.1-8.8c-2.3-3.2-4.2-6.6-4.3-9.6C97.8,52.4,99.2,49.4,103,48.9
		L103,48.9z M103,48.9"/>
	<path fill="#D40000" d="M127.4,34.5c3.1-0.2,4.8,2.5,5.1,4.6c0.2,0.3,0.3,0.2,0.4,0c0.2-2.7,2.6-4.9,4.8-4.6c3.7,0,5.9,4.1,5.3,7.6
		c-0.8,4.2-3,6.8-4.8,9.4c-1.9,2.7-4.6,6.6-5.4,8.5c0,0-2.7-4-6.1-8.8c-2.3-3.2-4.2-6.6-4.3-9.6C122.1,38.1,123.5,35,127.4,34.5
		L127.4,34.5z M127.4,34.5"/>
	<path fill="#D40000" d="M127.4,63.2c3.1-0.2,4.8,2.5,5.1,4.6c0.2,0.3,0.3,0.2,0.4,0c0.2-2.7,2.6-4.9,4.8-4.6c3.7,0,5.9,4.1,5.3,7.6
		c-0.8,4.2-3,6.8-4.8,9.4c-1.9,2.7-4.6,6.6-5.4,8.5c0,0-2.7-4-6.1-8.8c-2.3-3.2-4.2-6.6-4.3-9.6C122.1,66.8,123.5,63.8,127.4,63.2
		L127.4,63.2z M127.4,63.2"/>
	<path fill="#D40000" d="M78.3,63.2c3.1-0.2,4.8,2.5,5.1,4.6c0.2,0.3,0.3,0.2,0.4,0c0.2-2.7,2.6-4.9,4.8-4.6c3.7,0,5.9,4.1,5.3,7.6
		c-0.8,4.2-3,6.8-4.8,9.4c-1.9,2.7-4.6,6.6-5.4,8.5c0,0-2.7-4-6.1-8.8c-2.3-3.2-4.2-6.6-4.3-9.6C73.1,66.8,74.5,63.8,78.3,63.2
		L78.3,63.2z M78.3,63.2"/>
	<path fill="#D40000" d="M127.4,118c3.1,0.2,4.8-2.5,5.1-4.6c0.2-0.3,0.3-0.2,0.4,0c0.2,2.7,2.6,4.9,4.8,4.6c3.7,0,5.9-4.1,5.3-7.6
		c-0.8-4.2-3-6.8-4.8-9.4c-1.9-2.7-4.6-6.6-5.4-8.5c0,0-2.7,4-6.1,8.8c-2.3,3.2-4.2,6.6-4.3,9.6C122.1,114.4,123.5,117.4,127.4,118
		L127.4,118z M127.4,118"/>
	<path fill="#D40000" d="M127.4,146.6c3.1,0.2,4.8-2.5,5.1-4.6c0.2-0.3,0.3-0.2,0.4,0c0.2,2.7,2.6,4.9,4.8,4.6
		c3.7,0,5.9-4.1,5.3-7.6c-0.8-4.2-3-6.8-4.8-9.4c-1.9-2.7-4.6-6.6-5.4-8.5c0,0-2.7,4-6.1,8.8c-2.3,3.2-4.2,6.6-4.3,9.6
		C122.1,143,123.5,146.1,127.4,146.6L127.4,146.6z M127.4,146.6"/>
	<path fill="#D40000" d="M102.8,132.3c3.1,0.2,4.8-2.5,5.1-4.6c0.2-0.3,0.3-0.2,0.4,0c0.2,2.7,2.6,4.9,4.8,4.6
		c3.7,0,5.9-4.1,5.3-7.6c-0.8-4.2-3-6.8-4.8-9.4c-1.9-2.7-4.6-6.6-5.4-8.5c0,0-2.7,4-6.1,8.8c-2.3,3.2-4.2,6.6-4.3,9.6
		C97.6,128.7,99,131.8,102.8,132.3L102.8,132.3z M102.8,132.3"/>
	<path fill="#D40000" d="M78.3,118c3.1,0.2,4.8-2.5,5.1-4.6c0.2-0.3,0.3-0.2,0.4,0c0.2,2.7,2.6,4.9,4.8,4.6c3.7,0,5.9-4.1,5.3-7.6
		c-0.8-4.2-3-6.8-4.8-9.4c-1.9-2.7-4.6-6.6-5.4-8.5c0,0-2.7,4-6.1,8.8c-2.3,3.2-4.2,6.6-4.3,9.6C73.1,114.4,74.5,117.4,78.3,118
		L78.3,118z M78.3,118"/>
	<path fill="#D40000" d="M78.3,146.6c3.1,0.2,4.8-2.5,5.1-4.6c0.2-0.3,0.3-0.2,0.4,0c0.2,2.7,2.6,4.9,4.8,4.6c3.7,0,5.9-4.1,5.3-7.6
		c-0.8-4.2-3-6.8-4.8-9.4c-1.9-2.7-4.6-6.6-5.4-8.5c0,0-2.7,4-6.1,8.8c-2.3,3.2-4.2,6.6-4.3,9.6C73.1,143,74.5,146.1,78.3,146.6
		L78.3,146.6z M78.3,146.6"/>
	<path fill="#D40000" d="M146.2,132.5c-0.7,1.5-0.8,4.1,1.3,4.5c1.6,0.2,2.2-0.5,2.3-1.6c0.1-0.3,0.2-0.3,0.3,0
		c0.1,1.1,1.2,1.8,2.1,1.7c2.4-0.4,2.3-3.1,1.5-4.9c-1.2-2.4-2.5-3.9-3.6-6.4C148.8,128.2,147.3,130.3,146.2,132.5L146.2,132.5z
		 M146.2,132.5"/>
	<g>
		<defs>
			<rect id="SVGID_4_" x="41" y="3.7" width="134.7" height="174.4"/>
		</defs>
		<clipPath id="SVGID_7_">
			<use xlink:href="#SVGID_4_"  overflow="visible"/>
		</clipPath>
		<path clip-path="url(#SVGID_7_)" fill="none" stroke="#000000" stroke-width="0.2" d="M59.2,19.6V4 M57,21.8H41.4 M157.8,19.6V4
			 M160,21.8h15.6 M59.2,161.6v15.6 M57,159.4H41.4 M157.8,161.6v15.6 M160,159.4h15.6"/>
	</g>
</g>
<g>
	<path fill="#FFFFFF" d="M103.7,22h88.9c2.6,0,4.7,2.1,4.7,4.7v127.8c0,2.6-2.1,4.7-4.7,4.7h-88.9c-2.6,0-4.7-2.1-4.7-4.7V26.7
		C99,24.1,101.1,22,103.7,22L103.7,22z M103.7,22"/>
	<path fill="none" stroke="#000000" stroke-width="0.792" stroke-miterlimit="3.8" d="M103.7,22h88.9c2.6,0,4.7,2.1,4.7,4.7v127.8
		c0,2.6-2.1,4.7-4.7,4.7h-88.9c-2.6,0-4.7-2.1-4.7-4.7V26.7C99,24.1,101.1,22,103.7,22L103.7,22z M103.7,22"/>
	<path fill="#D40000" d="M104.4,42.5c0.9-4.9,1.9-8.5,4.6-12.5h-5.3v1.7h-1.4v-3.2h7.8l1,1.5c-2.8,3-5.3,12.7-4.9,12.5H104.4z
		 M104.4,42.5"/>
	<path fill="#D40000" d="M191.8,138.8c-0.9,4.9-1.9,8.5-4.6,12.5h5.3v-1.7h1.4v3.2h-7.8l-1-1.5c2.8-3,5.3-12.7,4.9-12.5H191.8z
		 M191.8,138.8"/>
	<path fill="#D40000" d="M102.9,49.3c-0.7-1.5-0.8-4.1,1.3-4.5c1.6-0.2,2.2,0.5,2.3,1.6c0.1,0.3,0.2,0.3,0.3,0
		c0.1-1.1,1.2-1.8,2.1-1.6c2.4,0.4,2.3,3.1,1.5,4.9c-1.2,2.4-2.5,3.9-3.6,6.4C105.5,53.5,103.9,51.5,102.9,49.3L102.9,49.3z
		 M102.9,49.3"/>
	<path fill="#D40000" d="M118,35.1c3.1-0.2,4.8,2.5,5.1,4.6c0.2,0.3,0.3,0.2,0.4,0c0.2-2.7,2.6-4.9,4.8-4.6c3.7,0,5.9,4.1,5.3,7.6
		c-0.8,4.2-3,6.8-4.8,9.4c-1.9,2.7-4.6,6.6-5.4,8.5c0,0-2.7-4-6.1-8.8c-2.3-3.2-4.2-6.6-4.3-9.6C112.7,38.7,114.1,35.7,118,35.1
		L118,35.1z M118,35.1"/>
	<path fill="#D40000" d="M167.1,35.1c3.1-0.2,4.8,2.5,5.1,4.6c0.2,0.3,0.3,0.2,0.4,0c0.2-2.7,2.6-4.9,4.8-4.6c3.7,0,5.9,4.1,5.3,7.6
		c-0.8,4.2-3,6.8-4.8,9.4c-1.9,2.7-4.6,6.6-5.4,8.5c0,0-2.7-4-6.1-8.8c-2.3-3.2-4.2-6.6-4.3-9.6C161.8,38.7,163.2,35.7,167.1,35.1
		L167.1,35.1z M167.1,35.1"/>
	<path fill="#D40000" d="M142.8,57.2c3.1-0.2,4.8,2.5,5.1,4.6c0.2,0.3,0.3,0.2,0.4,0c0.2-2.7,2.6-4.9,4.8-4.6c3.7,0,5.9,4.1,5.3,7.6
		c-0.8,4.2-3,6.8-4.8,9.4c-1.9,2.7-4.6,6.6-5.4,8.5c0,0-2.7-4.1-6.1-8.8c-2.3-3.2-4.2-6.6-4.3-9.6C137.6,60.8,139,57.7,142.8,57.2
		L142.8,57.2z M142.8,57.2"/>
	<path fill="#D40000" d="M118,79.3c3.1-0.2,4.8,2.5,5.1,4.6c0.2,0.3,0.3,0.2,0.4,0c0.2-2.7,2.6-4.9,4.8-4.6c3.7,0,5.9,4.1,5.3,7.6
		c-0.8,4.2-3,6.8-4.8,9.4c-1.9,2.7-4.6,6.6-5.4,8.5c0,0-2.7-4-6.1-8.8c-2.3-3.2-4.2-6.6-4.3-9.6C112.7,82.8,114.1,79.8,118,79.3
		L118,79.3z M118,79.3"/>
	<path fill="#D40000" d="M167.1,79.3c3.1-0.2,4.8,2.5,5.1,4.6c0.2,0.3,0.3,0.2,0.4,0c0.2-2.7,2.6-4.9,4.8-4.6c3.7,0,5.9,4.1,5.3,7.6
		c-0.8,4.2-3,6.8-4.8,9.4c-1.9,2.7-4.6,6.6-5.4,8.5c0,0-2.7-4-6.1-8.8c-2.3-3.2-4.2-6.6-4.3-9.6C161.8,82.8,163.2,79.8,167.1,79.3
		L167.1,79.3z M167.1,79.3"/>
	<path fill="#D40000" d="M185.9,133.3c-0.7,1.5-0.8,4.1,1.3,4.5c1.6,0.2,2.2-0.5,2.3-1.6c0.1-0.3,0.2-0.3,0.3,0
		c0.1,1.1,1.2,1.8,2.1,1.7c2.4-0.4,2.3-3.1,1.5-4.9c-1.2-2.4-2.5-3.9-3.6-6.4C188.5,129,187,131.1,185.9,133.3L185.9,133.3z
		 M185.9,133.3"/>
	<path fill="#D40000" d="M167.1,147.9c3.1,0.2,4.8-2.5,5.1-4.6c0.2-0.3,0.3-0.2,0.4,0c0.2,2.7,2.6,4.9,4.8,4.6
		c3.7,0,5.9-4.1,5.3-7.6c-0.8-4.2-3-6.8-4.8-9.4c-1.9-2.7-4.6-6.6-5.4-8.5c0,0-2.7,4-6.1,8.8c-2.3,3.2-4.2,6.6-4.3,9.6
		C161.8,144.4,163.2,147.4,167.1,147.9L167.1,147.9z M167.1,147.9"/>
	<path fill="#D40000" d="M118,147.9c3.1,0.2,4.8-2.5,5.1-4.6c0.2-0.3,0.3-0.2,0.4,0c0.2,2.7,2.6,4.9,4.8,4.6c3.7,0,5.9-4.1,5.3-7.6
		c-0.8-4.2-3-6.8-4.8-9.4c-1.9-2.7-4.6-6.6-5.4-8.5c0,0-2.7,4-6.1,8.8c-2.3,3.2-4.2,6.6-4.3,9.6C112.7,144.4,114.1,147.4,118,147.9
		L118,147.9z M118,147.9"/>
	<g>
		<defs>
			<rect id="SVGID_3_" x="80.6" y="3.7" width="134.7" height="174.4"/>
		</defs>
		<clipPath id="SVGID_8_">
			<use xlink:href="#SVGID_3_"  overflow="visible"/>
		</clipPath>
		<path clip-path="url(#SVGID_8_)" fill="none" stroke="#000000" stroke-width="0.2" d="M98.8,19.6V4 M96.6,21.8H81 M197.4,19.6V4
			 M199.6,21.8h15.6 M98.8,161.6v15.6 M96.6,159.4H81 M197.4,161.6v15.6 M199.6,159.4h15.6"/>
	</g>
</g>
<g>
	<path fill="#FFFFFF" d="M141.6,21.5h88.9c2.6,0,4.7,2.1,4.7,4.7V154c0,2.6-2.1,4.7-4.7,4.7h-88.9c-2.6,0-4.7-2.1-4.7-4.7V26.2
		C136.9,23.6,139,21.5,141.6,21.5L141.6,21.5z M141.6,21.5"/>
	<path fill="none" stroke="#000000" stroke-width="0.7974" d="M141.6,21.5h88.9c2.6,0,4.7,2.1,4.7,4.7V154c0,2.6-2.1,4.7-4.7,4.7
		h-88.9c-2.6,0-4.7-2.1-4.7-4.7V26.2C136.9,23.6,139,21.5,141.6,21.5L141.6,21.5z M141.6,21.5"/>
	<path fill="#D40000" d="M140.1,41.7v-1.2h1.2l2.5-12.9h1.4l2.7,12.9h0.9v1.2h-3.2v-1.2h0.9l-0.3-2h-3.3l-0.3,2h0.9v1.2H140.1z
		 M145.9,37.2l-1.4-6.9l-1.3,6.9H145.9z M145.9,37.2"/>
	<path fill="#D40000" d="M232,138.4v1.2h-1.2l-2.5,12.9h-1.4l-2.7-12.9h-0.9v-1.2h3.2v1.2h-0.9l0.3,2h3.2l0.3-2h-0.9v-1.2H232z
		 M226.2,143l1.4,6.9l1.3-6.9H226.2z M226.2,143"/>
	<path fill="#D40000" d="M140.6,48.2c-0.7-1.5-0.8-4.1,1.3-4.5c1.6-0.2,2.2,0.5,2.3,1.6c0.1,0.3,0.2,0.3,0.3,0
		c0.1-1.1,1.2-1.8,2.1-1.6c2.4,0.4,2.3,3.1,1.5,4.9c-1.2,2.4-2.5,3.9-3.6,6.4C143.2,52.4,141.6,50.4,140.6,48.2L140.6,48.2z
		 M140.6,48.2"/>
	<path fill="#D40000" d="M180.7,77.4c3.1-0.2,4.8,2.5,5.1,4.6c0.2,0.3,0.3,0.2,0.4,0c0.2-2.7,2.6-4.9,4.8-4.6c3.7,0,5.9,4.1,5.3,7.6
		c-0.8,4.2-3,6.8-4.8,9.4c-1.9,2.7-4.6,6.6-5.4,8.5c0,0-2.7-4-6.1-8.8c-2.3-3.2-4.2-6.6-4.3-9.6C175.5,81,176.9,78,180.7,77.4
		L180.7,77.4z M180.7,77.4"/>
	<path fill="#D40000" d="M223.5,132.1c-0.7,1.5-0.8,4.1,1.3,4.5c1.6,0.2,2.2-0.5,2.3-1.6c0.1-0.3,0.2-0.3,0.3,0
		c0.1,1.1,1.2,1.8,2.1,1.6c2.4-0.4,2.3-3.1,1.5-4.9c-1.2-2.4-2.5-3.9-3.6-6.4C226.1,127.9,224.5,129.9,223.5,132.1L223.5,132.1z
		 M223.5,132.1"/>
	<g>
		<defs>
			<rect id="SVGID_2_" x="118.6" y="3.1" width="134.8" height="174.4"/>
		</defs>
		<clipPath id="SVGID_9_">
			<use xlink:href="#SVGID_2_"  overflow="visible"/>
		</clipPath>
		<path clip-path="url(#SVGID_9_)" fill="none" stroke="#000000" stroke-width="0.2" d="M136.7,19.1V3.5 M134.5,21.3h-15.6
			 M235.4,19.1V3.5 M237.6,21.3h15.6 M136.7,161.1v15.6 M134.5,158.9h-15.6 M235.4,161.1v15.6 M237.6,158.9h15.6"/>
	</g>
</g>
<g>
	<path fill="#FFFFFF" d="M172.4,21.5h88.9c2.6,0,4.7,2.1,4.7,4.7V154c0,2.6-2.1,4.7-4.7,4.7h-88.9c-2.6,0-4.7-2.1-4.7-4.7V26.2
		C167.7,23.6,169.8,21.5,172.4,21.5L172.4,21.5z M172.4,21.5"/>
	<path fill="none" stroke="#000000" stroke-width="0.7974" d="M172.4,21.5h88.9c2.6,0,4.7,2.1,4.7,4.7V154c0,2.6-2.1,4.7-4.7,4.7
		h-88.9c-2.6,0-4.7-2.1-4.7-4.7V26.2C167.7,23.6,169.8,21.5,172.4,21.5L172.4,21.5z M172.4,21.5"/>
	<path fill="#131F67" d="M252.5,32.2l-71.8,0l0.4,115.3l72.1-0.1C252.7,109,252.6,70.6,252.5,32.2L252.5,32.2z M244.1,33.2l7.6,0
		v44.4c0,0-0.5,0-0.4-0.3c0.1-0.4,0-1.2-0.3-1.5c-0.1-0.1-0.3-0.4-0.4-0.5c-0.2-0.4-0.5-0.8-0.8-0.9c-0.1-0.1-0.3-0.1-0.3-0.2
		c0-0.1-0.1-0.4-0.1-0.6c-0.1-0.6-0.3-0.6,0.1-1.3c1.4-2.2,1.9-4.2,1.8-6.2c-0.1-0.6-0.2-1.4-0.3-1.5c-1.4,1.4-2.3,3-3.3,4.3
		c-0.2-1.8-0.2-3.1-0.2-4.5c0.7-0.2,1.2-0.6,1.5-1.6c0,0,0.8,0.6,1.3,0.5l-0.3-1.1c2.1-0.6,2.4-3.3-0.1-3.9l0.2-1.4
		c0,0-0.7,0.2-1.1,0.4c-0.2,0.1-0.2,0-0.3-0.2c-1.1-1.8-2.9-1.4-3.7,0.4l-1-0.4c0.1,0.5,0.2,1,0.1,1.5c-2,0.9-1.5,3.3,0.1,3.7
		l-0.1,1.1l1.2-0.4c0.2,0.5,0.1,0.8,1.1,1.5c0,2.4-0.1,3.9,0,6c-1.3-1.3-2.5-2.2-4.6-2.8c0,0,0,0.5,0.1,1.3c0,0.3,0,0.2-0.1,0.2
		c-0.3,0-1.5-2-1.5-2s-0.1,0-0.3,0.1c-0.1,0.1,0.2,0.4,0.7,1.1c0.6,0.8,0.5,0.8,0.1,1.2c-2.5,2.1-6.1,10.2-5.5,10.9
		c-1.6,0.1-7.7,3.1-8.8,9.3c-0.1,0.3-0.2,0.6-0.2,0.6l-1.8-0.4c1.1-5.1,3.5-15.4,3.5-15.4s1.7-0.5,2.7-0.6l0-0.4l-2.3,0.5l0.1-0.9
		l2.2-0.4l0-0.2l-2.3,0.3l0.4-1.5c0,0-5.2,0.8-7.1,0.7c0,0,0,3.4,0,7.5c-0.4,3-0.6,8.9-0.6,8.9l-2.1-1.2c-0.2-4.3-0.3-15.2-0.3-15.2
		l-7.1-1.1l0.2,1.7c-5.9-2.3-11.8-4.5-16.1-9c2.7-2,7.1-4.1,7.1-4.1l-0.1-0.3c-11,5.6-15,9.6-20.5,14.4l-0.1-40.2l29.9,0l-0.1,7.3
		c0,0,0,0.2-0.1,0.3c-0.4,1.8,0.7,4.9,0.5,6.5c0.1,0.5,0.1,1.4,0.1,1.4c-1.8,2.4-2.7,4.8-3.5,7.6c-0.3,0.1-0.8,0.4-1.1,0.5l-0.1,0.4
		c0.7-0.4,2.7-1,2.7-1c8.8,4.3,15.4,3.3,22.3,0.1c-1.1,3.9,1.3,8.8,5.3,9.9c0.5,0.1,1.2,0.2,1.7,0.1c0.4-0.1-1-3.4-1.6-3.6
		c-1.9-0.8-2.7-2.8-2.5-5l-0.3-0.5c-0.7,2.7,0.9,5.5,3.1,6.2l0.6,1.3c-3.9-1.2-5.6-4.8-4.3-8.5c0-2.3-1.4-3.3-2.1-4.2
		c-3.4-1.3-4-4.5-3.4-7c1.6,0.7-1.1-2.2-1.1-2.2c-1.2,2.5-1.7,5.7,1,9c-1.7,2.3-4,4.1-6.4,5.6c-3.6,1.9-6.4,0.6-8.1-3.6
		c-1.1-2.5-1.4-5-1.4-7.7c0-1.6,0-1.7,0.6-1.4c0.6,0.3,1.8,0.3,2.6-0.1c1-0.5,1-0.2-0.1,0.9c-0.3,0.3-0.6,0.6-0.6,0.6
		c0,0.3,0.5,0.1,1.1-0.6c0.2-0.2,0.4-0.5,0.5-0.5c0.1,0,0.1,0.3,0,0.7c0,0.1-0.2,0.7-0.3,1.2c-0.1,0.5-0.3,1.2-0.3,1.4
		c-0.3,0.9-0.2,1.4,0.7,1.8c0.5,0.2,1.3,1,1.3,1c0,0-0.2-0.9-0.1-1.1c0.1-0.3,0.5-0.1,0.9,0.1c0.9,0.4,1.4,0.4,1.9,0
		c0.7-0.5,0.5-1.8-0.3-2.1c-0.6-0.2-0.7,0-0.1,0.4c0.9,0.6-0.1,1.6-0.9,1c-0.6-0.5-1.6-0.5-1.7-0.1c-0.1,0.4-0.2,0.3-0.6,0.1
		c-0.6-0.4-0.6-0.4-0.1-2.5c1-3.9,0.9-5.3-0.4-6.5c-1-0.9-2.6-1.3-4.3-0.3v-1.3c2.5-1,4.3-2.6,5.7-5.4h0.3c1.5,3.1,3.8,5.4,8.2,7
		c1.7,1.7-2.2-4.9-0.9-2.2c-2.3-0.9-4.4-2.7-5.6-4.9h0.6c0.7,1,2,2.7,4.5,4c0.2,0.2,0.4,0,0.4,0s-2-3.2-2.4-3.9l20.3-0.1
		c-0.6,4.9-1.6,10.3,2,20c-1.7-0.9-8.4,1-7.2,1.4c0.6-0.7,4.9-1.7,8-0.9C246,53.3,241.4,42.6,244.1,33.2L244.1,33.2z M246.2,53.5
		C246.2,53.5,246.2,53.5,246.2,53.5C246.2,53.5,246.2,53.5,246.2,53.5L246.2,53.5z M230.5,72.6l0,0.8l0.2,0L230.5,72.6L230.5,72.6z
		 M212.2,33.2h0.9c-0.2,0.4-0.5,0.7-0.9,1L212.2,33.2z M213.7,33.2h1c-0.7,1.2-1.5,1.9-2.5,2.5l0-0.9
		C212.7,34.3,213.3,33.8,213.7,33.2L213.7,33.2z M215.3,33.2h0.9c-1.2,1.8-2.4,3.1-4,3.9v-0.8C213.1,35.6,214.5,34.5,215.3,33.2
		L215.3,33.2z M216.7,33.2h0.7c-1.2,2.3-2.9,4-5.2,4.9v-0.6C214.6,36.2,215.7,34.7,216.7,33.2L216.7,33.2z M218.6,33.2h0.9
		c1.2,2.3,3.6,4.6,6.3,5.5l0.4,1C222.7,38.4,220.3,36.6,218.6,33.2L218.6,33.2z M221.1,33.2h0.6c0.6,0.9,1.4,1.6,2.3,2.2l0.6,1.1
		C223.4,35.7,222,34.7,221.1,33.2L221.1,33.2z M222.2,33.2l0.7,0l0.9,1.5C223.2,34.4,222.8,33.7,222.2,33.2L222.2,33.2z M221.4,39.3
		c-0.9,0-1.8,0.3-2.4,0.8c-0.7,0.5-0.2,1.1,0.8,0.7c1.6-0.7,3.5-0.4,5.4,0.7c1.7,0.9,1.1,0-0.5-1.1
		C223.7,39.7,222.5,39.3,221.4,39.3L221.4,39.3z M213.9,40.5c1.3,0,2.9,0.6,2.9,1.4c-0.9-0.8-2.7-1.1-4.4-0.3
		c-0.1,0-0.2-0.5-0.1-0.7C212.7,40.6,213.3,40.5,213.9,40.5L213.9,40.5z M222,41c-0.9,0-1.6,0.2-2,0.7c-0.2,0.2-0.2,0.3-0.4,0.2
		c-0.4-0.1-0.4,0.2,0.1,0.8c0.2,0.3,0.2,0.7-0.1,1.1c-0.3,0.5-0.3,0.5,0.7,1c0.8,0.4,1.4,0.9,2.1,1.3c0.5,0.3,0.6,0,0.1-0.3
		c-0.2-0.1-0.6-0.5-1-0.7c-0.7-0.5-1.2-0.9-0.7-0.7c0.3,0.1,0.3,0.1,0.6,0.2c0.7,0.2,1.5,0.2,2.1,0.1c0.4-0.1,1-0.4,1.5-0.8
		c0.1-0.1,0.2,0,0.5,0c1.1,0,0.9-0.3-0.7-1.2c-1.6-0.9-2.8-1-3.9-0.6c-0.4,0.2-0.7,0.3-0.6,0.1c0.1-0.1,0.2-0.3,0.4-0.4
		c1.6-1,3-0.2,4.4,0.6c0.6,0.4,0.8,0.5,0.9,0.4c0.1-0.2-0.7-0.7-1.8-1.2C223.6,41.2,222.8,41,222,41L222,41z M216.8,42.2
		c0.3,0.1,0.2,0.4-0.1,0.3c-1.5-0.7-1.8-1-3.6-0.4c-0.6,0.2-0.8,0-0.1-0.3C214.5,41.1,215.7,41.6,216.8,42.2L216.8,42.2z M215.7,43
		c-0.4,2.1-2.5,1.4-2.3,0l0.4,0c0,1.3,1.3,1.3,1.5,0L215.7,43z M227.9,43l0.6,1.2c-1.2,3,0.4,7.1,4.1,8.1c0,0,0.6,0.9,0.5,1
		C226.1,51.8,226.7,45.3,227.9,43L227.9,43z M221.4,43.1l0.2,0c0.6,1.5,1.4,0.6,1.6,0l0.4,0C223.5,44.6,221.2,44.9,221.4,43.1
		L221.4,43.1z M216.2,43.1c0.3,0,0.4,0.4,0.3,0.5c0,0-0.5,0.5-0.6,0.2C215.8,43.4,216,43.1,216.2,43.1L216.2,43.1z M213,43.1
		C213,43.1,213,43.1,213,43.1c0.2,0.1,0.3,0.5,0.2,0.7c-0.1,0.1-0.5,0-0.6-0.2C212.5,43.4,212.6,43.1,213,43.1L213,43.1z M224,43.3
		c0.1,0,0.5,0.2,0.5,0.3c0,0-0.5,0.4-0.6,0.4C223.6,43.9,223.9,43.3,224,43.3C224,43.3,224,43.3,224,43.3L224,43.3z M221,43.3
		C221,43.3,221,43.3,221,43.3c0,0,0.4,0.2,0.1,0.6c0,0-0.4-0.1-0.4-0.2C220.7,43.6,221,43.4,221,43.3L221,43.3z M229.3,46
		c-0.1,1.7,0.4,3.4,2.3,4.5l-0.4-0.7c-0.5-0.4-1.5-1.5-1.4-2.8L229.3,46z M212.2,49.1l0.2,1.1c-1,1.7-1.8,3.4-2.5,5.4l-1,0.4
		C209.7,53.5,210.5,51.5,212.2,49.1L212.2,49.1z M212.6,50.9l0.3,1c-0.5,0.9-1.1,2-1.4,3.3l-1.1,0.4
		C210.9,53.9,211.6,52.3,212.6,50.9L212.6,50.9z M216.1,51.3C216.1,51.3,216.1,51.3,216.1,51.3c-0.1,0.2-0.1,0.7,0,1.6
		c0,0.2,0.2,0.1,0.6-0.1c0.4-0.2,0.4-0.2,0.8-0.1c1.1,0.4,1.6,0.2,2,0.1c0.6-0.2,0.9-0.1,1.3,0.1c0.2,0.1,0.5,0.2,0.5,0.2
		c0.3,0.1,0.2,0,0-0.8c-0.2-0.9-0.1-1-0.5-0.8c-0.1,0.1-0.3,0.2-0.4,0.2c-0.3,0-0.8-0.4-1.2-0.2c-0.8,0.3-0.8,0.2-1.5,0
		c-0.4-0.1-0.7,0.1-1,0.2C216.6,51.8,216.3,51.3,216.1,51.3L216.1,51.3z M229,51.8c1.3,1.2,2.6,1.6,4,2c-0.2,0.6-0.5,1.2-0.7,2
		c-7.5,3.9-15,3.8-22,0.2l3.7-1.4c2,3.5,4.6,4.4,7.5,3.3C224.7,56.4,227.1,54.3,229,51.8L229,51.8z M213.1,52.5l0.3,0.9l-0.5,1.3
		L212,55C212.2,54.1,212.5,53.4,213.1,52.5L213.1,52.5z M219.8,53.4c-0.2,0-0.6,0.2-1.3,0.2c-0.4,0-0.7,0-0.9,0
		c-0.3,0.1,0.1,0.2,0.8,0.4c0.8,0.2,1.7-0.1,1.8-0.4C220.2,53.5,220.1,53.4,219.8,53.4L219.8,53.4z M213.6,53.9l0.2,0.4l-0.3,0.1
		L213.6,53.9z M233.5,54.1l0.6,1.3c-1,2.1-1.6,7.8,4.8,9.6l0.3,0.8C234.8,65.9,230.4,60.3,233.5,54.1L233.5,54.1z M218.7,54.5
		c-0.6,0-1.3,0.2-1.7,0.5c-0.4,0.3,0.1,0.5,0.6,0.3c0.6-0.3,1.7-0.3,2.4,0.1c0.5,0.3,0.7,0.3,0.4-0.2
		C220.1,54.8,219.4,54.5,218.7,54.5L218.7,54.5z M246.8,56c1.7,0,1.9,2.4,1.5,2.6c0.1,0,0.4-0.1,0.8-0.1c1.2,0,1.9,0.7,1.9,1.7
		c0.1,1-0.7,1.6-1.8,1.5c-0.4,0-0.7-0.1-0.7,0c0.2,0.8,0,2-1.1,2.3c-0.1,0-0.3,0.2-0.3,0.3c-0.1,1.3,0.3,5.6,0.3,5.6s2-3.3,2.4-3.8
		c0.9-1.2,1-1.1,1,0.9c-0.1,2.8-0.6,3.4-2.2,5.7c-0.7,1-2.3,0.5-2.2,1.1c0,0.1,0.3,0.4,0.6,0.7c0.2,0.2,0.3,0.3,0.7,0.2
		c0.7,0,1-0.2,0.6,0.4c-0.3,0.5-1.5,0.6-1.6,0.8c-0.3,0.6-0.1,0.5-0.6,1c-0.4,0.4-0.3,0.2-0.1,0.6c0.3,0.5,0.2,1.4-0.1,2
		c-0.2,0.5-0.2,0.9-0.2,0.9c0,0,0.6-0.7,0.8-1.5c0.2-0.7,0.4-1,0.4-0.6c0,0.5,0.1,1.1,0.5,1.4c0.3,0.2,0.4,0.4,0.3,0.6
		c-0.1,0.3,0.2,0.5,0.5,0.7c0.1,0.1,0.3,0.1,0.2,0.3c-0.1,0.4,0.1,0.9,0.4,1c0.1,0.1,1,0,1.1-0.5c0-0.2,0-0.8-0.3-0.8
		c-0.2-0.1-0.2-0.2,0.2-0.4c0.5-0.3,0.9-0.6,1.2-0.6c0.4,0,0.7-0.4,0.7-0.4l0.1,26.3l-11.6,9.9c-2.7-2.3-5.7-4.6-8.9-6.3l-1.1-0.7
		l0.4-0.5l-1.9-2.5l2.1-1.7l0.5,0.7l-1,1l1.5,1.7l3.4-3.3l-2.3-2.2l1.2-2.2l0.8,0.4l-0.6,1.4l1.7,1.1l2.2-4.3l-2.7-1.2l0.7-2.9
		l0.8,0.1l-0.3,2.1l2.1,0.4l0.9-4.9l-3.1-0.6l0.3-2.8l0.9,0l-0.1,1.5l2.2,0.3l0.4-4.2l-3.1-0.5l0.4-3.3l0.7,0.1l-0.1,2l2.2,0.4
		c0.2-1.4,0.4-3.1,0.8-4.4l-2.9-1.1l1-2.8l0.7,0.2l-0.6,1.5l2.1,0.9l1.8-3.5l-2.5-1.8c0.6-0.9,1.1-1.8,1.9-2.6l0.5,0.4
		c0,0-0.2,0.2-0.5,0.6c-0.3,0.5-0.4,0.7-0.4,0.8c0,0.1,1.6,1.3,1.7,1.3c0.1,0,0.7-0.5,0.9-0.8c0.3-0.3,0.4-0.4,0.7-0.2
		c0.1,0,0.1,0.1,0.2,0.2c0.1,0.1,0.1,0.2,0.1,0.2c0,0.1,0,0.1,0,0.1c0,0,0.1-0.1,0.2-0.1c0.2-0.1-0.4-0.7-0.9-0.9
		c-1.5-0.9-3.3-2.5-3.7-4.5c-0.2-0.9,2.2,0.2,3.8,1.8c0.2,0.2,1.1,1.1,1.1,1.1c-0.1-2.3-0.3-4.7-0.2-7l-0.4-0.2
		c-0.5-0.3-0.7-0.9-0.7-1.5c0-0.4,0.3-0.6-0.5-0.6c-1.6,0-2.5-1.5-1.6-2.8c0.3-0.5,1.8-0.7,1.8-0.7C244.9,56.9,246,56,246.8,56
		L246.8,56z M246.3,73.8C246.2,73.9,246.3,73.9,246.3,73.8L246.3,73.8z M248.4,58.6C248.4,58.6,248.3,58.6,248.4,58.6
		C248.4,58.6,248.4,58.6,248.4,58.6L248.4,58.6z M195.3,63.6c4.5,3.8,7.3,6.3,16.4,9.1l0.2,1.3c-5.2-1.2-10.9-3.6-17.7-9.7
		L195.3,63.6z M193.9,64.4c2.8,2.6,5.7,4.6,8.6,6.3l1,0.6l-0.5,0.5l1.7,2.5l-2.2,1.8l-0.5-0.5l1.2-1.1l-1.6-1.6l-3.4,3.4l2.3,2
		l-1.3,2l-0.5-0.2l0.7-1.4l-2.1-1.2l-2.4,4.4l3,1.4l-0.7,2.7l-0.7,0l0.2-2.1l-2.3-0.4l-0.8,4.9l2.9,0.5l-0.1,2.8l-0.8,0l0.1-1.6
		l-2.3-0.1l-0.2,4.1l2.9,0.4l-0.3,3.4l-0.7-0.2l0.1-2.2l-2.2-0.2l-0.8,4.6l2.9,0.8l-1,2.9l-0.6-0.3l0.4-1.5c-0.5-0.2-2-0.9-2-0.9
		l-1.9,3.6l2.5,1.7L191,109l-0.6-0.4l1.1-1.6l-2.1-1.3l-1.2,1.6c-0.5-0.4-1.4-1-1.7-1.4c-0.4-0.3-0.6-0.4-1.1-0.3
		c-0.4,0.1-0.7,0.2-0.6,0c0-0.1,0.7-0.5,1.8-1.2c0.3-0.2,0.5-0.4,0.5-0.5c0-0.1,0.2-0.3,0.4-0.5c0.2-0.1,0.2-0.3,0.1-0.4
		c-0.2-0.8-0.1-2.1,0.3-2.9c0.3-0.6,0.4-0.7,0.2-0.7c-0.5,0.1-1.2,2-1.3,2.5c0,0-0.1-0.5-0.1-0.7c-0.1-0.4-0.1-0.6-0.4-0.6
		c-0.3-0.1-0.2-0.2-0.3-0.5c-0.1-0.4-0.2-0.7-0.6-0.8c-0.3-0.1-0.4-0.2-0.4-0.5c0-0.3-0.3-0.7-0.5-0.9l-1.2,0.4
		c-0.1,0.3,0,0.7,0.2,0.9c0.6,0.6-0.3,0.6-0.9,0.9c-0.2,0.1-0.3,0.3-0.5,0.3c-0.4-0.1-0.3,1-0.7,0.9l0.1-26.7
		C184.8,71.2,193.9,64.4,193.9,64.4L193.9,64.4z M241.1,69.2l0.4,0.5c-1.4,1.6-2.4,3.2-3.5,5.2c-1,1.7-1.8,4-2.2,6.6
		c-0.3,1.6-0.4,3.2-0.6,4.8c-0.2,1.7-0.2,4.1-0.6,5.9c-0.6,5-2,7.7-5.1,10.5c-1.3,1.3-5.5,3.6-5.6,3.6l-1-0.2
		c8.6-4.4,10.7-7.4,11.7-17.8C234.8,75.1,240.7,70,241.1,69.2L241.1,69.2z M242,70l0.5,0.4l-2.5,3.5l2.5,1.7l-1,2.3l-0.7-0.3
		l0.5-1.6l-2.1-0.9l-1.7,4.5l3,0.9l-0.5,3l-0.6-0.2l0-2l-2.2-0.4l-0.6,5.1l3.2,0.5l-0.2,2.6l-0.8-0.1l0-1.6l-2.2-0.1l-0.5,4.4
		l3.2,0.5l-0.6,3.1l-0.7-0.2l0.2-2.1l-2.1-0.3l-1.2,4.2l2.7,1.4l-1.3,2.7l-0.6-0.4l0.7-1.6l-2.1-1l-2,3.5l2.2,2.2l-2.1,2.2l-0.5-0.6
		l1.1-1.2l-1.6-1.6l-3.4,2.7l1.7,2.3l-0.2,0.3l-1.8-0.7l-0.9-1.1l-1,0.5l-0.8-0.3c5.1-2.7,8.3-5.7,9.7-10.4c0.7-2.6,1-5.4,1.2-8.2
		c0.1-1.5,0.3-2.9,0.5-4.4c0.2-2.4,0.6-4.3,1.6-6.6C238.8,74.1,240.2,72.1,242,70L242,70z M214.7,71.8l3.5,1.8l-0.1,1.2l-3.2-1.6
		L214.7,71.8z M215.7,71.8l2.5,0.3l0,1L215.7,71.8z M204.6,71.9l1.4,0.6l1.2,1.4l0.9-0.6l1,0.4c-3.1,1.6-5.9,3.6-8.1,6.9
		c-2.4,3.7-2.7,8.6-3,13.3c-0.5,6.5-1.6,11-5.9,16.3l-0.6-0.4l2.3-3.7l-2.6-1.7l1.2-2.2l0.6,0.2l-0.5,1.3l2.2,1.1l1.7-4.7l-3.1-1
		l0.5-2.9l0.8,0.1l-0.2,2.1l2.2,0.3l0.6-4.9l-2.9-0.5l0.1-2.6l0.7,0.1l0,1.6l2.3,0.1l0.2-4.5l-2.9-0.3l0.4-3.2l0.8,0.1l-0.2,1.9
		l2.2,0.3l1.1-4.1l-2.9-1.3l1.6-2.8l0.7,0.3l-0.7,1.5l2,1l2.1-3.2l-2.2-2.1l2.2-2.3l0.5,0.5l-1.2,1.4l1.7,1.5l3.3-2.7l-1.6-2.4
		L204.6,71.9z M225.3,72l-0.1,1.1l-3.5,2l0-1.1L225.3,72z M244,72l0.8,0.5l-0.6,0.7l-0.7-0.4L244,72z M223.9,72.2l-2.1,1.2v-1.2
		L223.9,72.2z M248.5,73.3c0.1,0,0.2,0,0.3,0.1c0.2,0.1,0.2,0.5-0.1,0.6c-0.3,0.2-1.2,0.2-1.2,0C247.3,73.7,248,73.3,248.5,73.3
		L248.5,73.3z M215.2,73.8l3,1.6l0,1.1l-2.9-1.6L215.2,73.8z M224.9,73.8l-0.2,1.5l-3.1,1.6l0-1.3L224.9,73.8z M210,73.9l1.2,0.3
		c-4.5,2-9,5-10.8,10.1c-0.5,1.5-0.9,3.2-1.2,5.4c-0.1,2.3-0.4,4.6-0.5,6.5c-0.2,3.9-1.5,9.2-6,14.9l-0.4-0.3c2.7-3.4,4.2-6.4,5-9.6
		c1.4-5.1,0.7-10.8,2.2-16c0.9-3.1,2.8-6,5.6-8.4C207.2,75.2,210,73.9,210,73.9L210,73.9z M212.1,74.3
		C212.1,74.3,212.1,74.3,212.1,74.3c1.1,3.7,2.5,10.5,2.5,10.5c-2.9-1.4-7.8-1.2-7.8-1.2s-2.7-3.5-3.3-3.8
		C205.7,76.9,211.7,74.3,212.1,74.3L212.1,74.3z M249.6,74.9c0.7,0,0.6,1-0.2,1.7c-0.4,0.4-0.6,0.3-1,0c-0.1-0.1-0.4-0.2-0.6-0.2
		c-0.5,0,0.5-1,1.3-1.4C249.4,74.9,249.5,74.9,249.6,74.9L249.6,74.9z M215.5,75.7l2.7,1.4l0,1.1l-2.5-1.3L215.5,75.7z M224.6,75.9
		l-0.1,1.2l-2.8,1.4l0-1.1L224.6,75.9z M250.6,76.3c0.1,0,0.2,0,0.2,0.1c0.4,0.4-0.3,1.7-1.2,2.1c-0.3,0.1-0.5,0.1-0.8-0.1
		c-0.1-0.1-0.3-0.3-0.4-0.2c-0.5,0-0.2-0.5,0.2-0.5c0.1,0,0.8-0.5,1.3-0.9C250.2,76.5,250.4,76.3,250.6,76.3L250.6,76.3z
		 M247.8,76.8c0.6,0,0.8,0.5,0.1,0.7c-0.5,0.2-0.8,0-0.8-0.3C247.2,76.9,247.5,76.8,247.8,76.8L247.8,76.8z M215.9,77.5l2.4,1.2
		l0,1.2l-2.2-1.1L215.9,77.5z M224.4,77.7l-0.2,1.1l-2.6,1.3l0-1L224.4,77.7z M251.1,78.1c0.2,0,0.2,0.2,0.2,0.5
		c0,0.5-0.4,1-0.9,1.3c-0.4,0.2-0.7,0.2-0.8,0c-0.1-0.1-0.2-0.2-0.3-0.2c-0.8,0-0.7-0.2,0.1-0.6c0.3-0.1,0.8-0.5,1.1-0.7
		C250.8,78.2,251,78.1,251.1,78.1L251.1,78.1z M248.1,78.5c0.4,0,0.8,0.3,0.5,0.5c-0.2,0.1-0.8,0.2-1,0.1
		C247.4,78.8,247.6,78.5,248.1,78.5L248.1,78.5z M216.3,79.3l2,1.1l0,1.2l-1.9-1.1L216.3,79.3z M224,79.4l0,1.2l-2.3,1.1l0-1.1
		L224,79.4z M249,79.9c0.4,0,0.3,0.4,0,0.6c-0.2,0.2-0.5,0.1-0.7-0.1C248,79.9,248.7,79.9,249,79.9L249,79.9z M249.7,81.1
		c0.1,0.1,0,0.4-0.1,0.4c-0.2,0.1-0.6,0-0.7-0.1c-0.1-0.1,0-0.2,0.1-0.3C249.2,81,249.6,80.9,249.7,81.1L249.7,81.1z M216.6,81.2
		l1.7,0.9l0,1.1l-1.6-0.9L216.6,81.2z M223.8,81.2l-0.1,1.1l-2,1l0-1.1L223.8,81.2z M202.8,81.9c0.4,0,0.8,0.3,0.5,0.8
		c-0.2,0.3-0.3,0.4-1,0.9c-0.3,0.2-0.5,0.4-0.5,0.4c0,0-0.2,0.1-0.3,0.2c-0.6,0.4-0.4-0.5,0.4-1.8C202,82,202.4,81.9,202.8,81.9
		L202.8,81.9z M223.6,82.8l-0.2,1.2l-1.8,0.9v-1.2L223.6,82.8z M216.9,83l1.5,0.7l0,1.2l-1.3-0.7L216.9,83z M234.3,83
		c0,0,0.1,0,0.1,0.1c0.1,0.2,0.1,0.9,0,1.3c-0.2,0.5-0.6-0.7-0.6-1C233.9,83.2,234.1,83.1,234.3,83L234.3,83z M203.8,83.3
		c0.6,0,1,0.4,0.8,1c-0.2,0.6-1.6,0.9-2.1,1.3c-0.4,0.2-0.5,0-0.4-0.4c0.1-0.2,0.1-0.3-0.2-0.3c-0.7-0.1-0.3-0.5,1-1.3
		C203.2,83.4,203.5,83.3,203.8,83.3L203.8,83.3z M232.9,83.6c0.2,0,0.5,0.1,0.7,0.4c0.5,0.5,0.8,1.5,0.5,1.8c-0.2,0-0.3,0.3-0.3,0.4
		c0,0.3-0.6-0.3-1.2-1.2C232.2,84.3,232.4,83.6,232.9,83.6L232.9,83.6z M208.5,83.8c1.8,0,5.2,0.4,9.9,3.3c0.6,0.4,1.2,0.8,1.9,1.1
		c1.8,1,3.3,1.6,5.6,2.1l-0.1,1.2c0,0.4,0.6,2.6,0.3,3.8c-0.4,0,0.4,0.4,0.4,0.4l0.5,1.1c0,0-2.8,0-4.1-0.3
		c-2.1-0.3-5.9-2.1-7.7-3.5c-1.9-1.4-4.8-2.6-7.2-3l0-1c0,0-0.2-3.5-0.4-4l-0.5-1.1C207.2,83.9,207.7,83.8,208.5,83.8L208.5,83.8z
		 M223.4,84.6l-0.1,1.2l-1.6,0.7v-1L223.4,84.6z M231.2,84.6c0.4,0,1.1,0.5,1.9,1.5c0.2,0.2,0.3,0.4,0.3,0.6c0,0.1-0.1,0.2-0.2,0.2
		c-0.3-0.1-0.4-0.2-0.5,0.2c0,0.1,0,0.3-0.1,0.2c-0.5-0.2-2.1-1.7-2-2.2C230.8,84.8,230.9,84.6,231.2,84.6L231.2,84.6z M217.2,84.7
		l1.1,0.6l0,1.2l-1-0.4L217.2,84.7z M204.9,85.1c0.4,0,0.6,0.1,0.7,0.4c0.3,0.7-0.2,1.1-1.6,1.4c-1.2,0.3-1.2,0.3-1-0.1
		c0.1-0.3-0.3-0.3-0.5-0.4c-0.4-0.1-0.1-0.2,1-0.7C204,85.2,204.5,85.1,204.9,85.1L204.9,85.1z M200.8,85.4c0,0,0.1,0,0.1,0.1
		c1.8,2.2,1.3,5.3-0.9,6.9c-0.3,0.2-0.3,0-0.2-0.3l0-0.6c0-0.1,2.6-1.7,0.7-5.3l0.2-0.5C200.7,85.5,200.7,85.4,200.8,85.4
		L200.8,85.4z M230,86.1c0.7,0,2.7,1.8,1.8,1.9c-0.1,0-0.1,0.1-0.1,0.2c0,0.1,0,0.2,0,0.3c-0.1,0.2-0.3,0.1-0.6-0.1
		c-0.9-0.5-1.1-0.7-1.4-1C229.1,86.8,229.3,86.1,230,86.1L230,86.1z M223.1,86.4l0,1l-1.4,0.7l0-0.9L223.1,86.4z M205.1,87.1
		c1,0,1.5,0.9,0.5,1.4c-0.4,0.2-1.6,0.1-2.2,0c-0.7-0.1-0.3-0.3-0.2-0.3c0.1-0.1,0.2-0.2-0.2-0.4c-0.3-0.3-0.4-0.4,0.3-0.4
		c0.3,0,1.1-0.1,1.4-0.2C204.9,87.1,205,87.1,205.1,87.1L205.1,87.1z M234.1,87.3c0.1,0,0.1,0.1,0,0.4l0,0.6
		c-0.4,0.1-2.6,2.7-0.8,5.9l-0.1,0.6c-0.1,0.3-0.1,0.3-0.3,0.1c-1.3-0.9-1.7-5.5,1-7.4C233.9,87.4,234,87.3,234.1,87.3L234.1,87.3z
		 M229,87.8c0.3,0,0.6,0.1,0.9,0.2c0.8,0.4,1.4,0.7,1.5,0.9c0.1,0.1,0,0.2-0.2,0.3c-0.2,0.1-0.2,0.1-0.2,0.4c0,0.1,0,0.3-0.1,0.3
		c-0.3,0-1-0.2-1.8-0.6C227.9,88.7,228.1,87.8,229,87.8L229,87.8z M222.8,87.9V89l-1.2-0.5L222.8,87.9z M203.3,88.9
		c0.1,0,0.3,0,0.5,0.1c0.3,0,0.7,0.1,0.9,0.1c1.3,0,1.9,0.9,0.8,1.4c-0.3,0.1-0.4,0.1-1.2-0.1c-0.4-0.1-0.9-0.2-1.1-0.3
		c-0.4-0.1-0.5-0.2-0.3-0.3c0.2-0.1,0.3-0.2,0.1-0.5C203,88.9,203.1,88.9,203.3,88.9L203.3,88.9z M234.1,88.9
		c-0.2,1.8-0.3,3.3-0.6,5C233.3,93.8,231.8,90.5,234.1,88.9L234.1,88.9z M228.5,89.7c0.4,0,1.2,0.2,1.9,0.5c0.6,0.2,0.7,0.3,0.3,0.5
		c-0.3,0.1-0.2,0.2-0.2,0.4c0.1,0.1,0.3,0.4,0,0.3c-0.4,0-1.5,0-1.8-0.1c-1-0.2-1.3-1.1-0.5-1.5C228.3,89.8,228.4,89.7,228.5,89.7
		L228.5,89.7z M202.9,90.2c0.1,0,0.3,0,0.6,0.1c1.8,0.6,2.5,1.2,1.6,1.9c-0.3,0.2-0.7,0.1-1.4-0.3c-0.8-0.4-1.1-0.7-1.3-0.8
		c-0.1-0.1-0.1-0.3,0.2-0.3c0.3,0,0.3-0.1,0.2-0.4C202.8,90.3,202.8,90.2,202.9,90.2L202.9,90.2z M207.7,90.4l1.4,0.3l-3.4,15
		c0,0.2-1.1,0.1-2.6,0.7c-0.1,0.1-0.1,0.2-0.1,0.2l2.4-0.4l-0.2,1.1l-2.2,0.4l0,0.3l2.5-0.4c0,0-0.1,1-0.2,1.4c0,0,4.6-0.7,6.3-0.8
		c0.3,0,0.7,0,0.7,0s0.1-11.8,0-13.1c0-1.4,0-3.1,0-3.1l2.4,1.3l0.4,14.9l7.4,1.2c-0.6-2.8,15.8,7.6,15.8,7.6l-2.7,1.4
		c-0.4,0.3-3.9,2.3-3.9,2.3l-0.3,0.5c5.7-2.6,14.3-8.2,20.5-14.2l0.1,39.4l-29.8,0.1c0,0,0-1.9,0-3.7l0-3.3
		c-0.1-2.1,0.2-4.4-0.4-6.2l-0.1-1.9c1.8-2.1,2.8-4.8,3.7-7.6c0,0,0.9-0.3,1.3-0.5l0.1-0.5c-0.9,0.4-2.8,1.2-2.8,1.2
		c0.2-0.2-4.2-2-6.9-2.4c-4.5-0.7-10.5,0-15.3,2.4c-0.2,0.2-0.3,0.2-0.3-0.1c1.1-4-1.2-8.1-5.3-9.3c-0.9-0.3-1.6-0.3-1.6-0.3
		l0.1,0.4c6.7,0.8,8.3,7.9,5.7,11.1c-0.7,1.1-0.8,1.4,0.6,1.4c5.7,0,7.7,6.4,5.1,9.9c0,0,0.2,0.4,0.2,0.4c1.6-2.2,2.1-6.3-0.8-9.1
		c2.1-2.4,6.3-6.2,9.8-6c1.3,0.1,2.6,1.6,3.4,2.9c1.8,2.6,2.3,6.3,2.4,8.4c0,0.6,0.1,1,0.1,1.2c0,0.8-0.2,0.7-0.7,0.6
		c-0.7-0.2-1.6-0.2-2.3,0c-1.1,0.3-0.9,0.1,0.1-1.1c0.6-0.7,0.7-0.9,0.4-1c-0.1,0-0.3,0.2-0.6,0.7c-1,1.5-0.9,0.9-0.2-1.5
		c0.5-1.5,0.4-1.6-0.8-2.6c-0.4-0.3-0.9-0.6-1-0.7c-0.2-0.5-0.3,0.1-0.1,0.5c0.2,0.4-0.2,0.6-1,0.2c-1.8-1-3,1-1.4,1.9
		c0.4,0.2,0.6,0,0.3-0.2c-1-0.9-0.3-1.7,1-0.9c0.8,0.5,1.1,0.3,1.3-0.3c0.1-0.2,1.4,0.6,1.3,1c0,0.2-0.1,0.9-0.3,1.4
		c-0.4,1.3-0.5,1.7-0.7,2.6c-0.3,1.6-0.3,2.4,0,3.1c0.7,1.5,2.6,2.3,4.2,1.6c0.2-0.1,0.7-0.2,0.7-0.2l0,1.1c-3.1,1.2-5.4,4.9-5.3,5
		l-1.1,0c-1.5-2.9-4.1-5.2-7.4-6.4c0,0-0.4-0.7,0,0.5c0,0.5,0.5,1.2,0.9,1.4c1.6,0.8,3.7,2.2,4.8,4.4l-0.8,0c-1-1.5-2.2-2.5-3.4-3.3
		c-0.3-0.1,0.2,2.7,1.3,3.5l-20.4,0.4c1.4-5.5,1.7-11.5-1.6-19.5c2.7,0.2,5.1-0.4,7.3-1.4l-0.2-0.6c-2.5,1.2-5.3,1.4-8,1.2
		c2.1,3.9,3.9,12,2.1,19.8l-7.5,0l-0.1-42.5c0,0,0.3,0.3,0.4,0.4c0.2,0.2,0.4,0.6,0.5,0.8c0.1,0.3,0.2,0.3,0.6,0.7
		c0.2,0.2,0.4,0.3,0.4,0.4c0,0.1,0,0.4,0.1,0.6c0.4,0.5,0.3,0.8,0,1.1c-1.4,1.5-2.3,4.6-1.6,8c1.7-1.1,3.5-4.2,3.5-4.2l0.2,4.1
		c-0.1,0-1.2,0.6-1.2,1.4c-0.5,0.1-1-0.1-1.5-0.2l0.3,1.2c-1.8,0.7-1.8,3.1,0.2,3.8c0,0-0.2,0.9-0.3,1.4l1.3-0.2
		c0.8,2.3,3.7,1.6,3.7,0c0,0,0.9,0.3,1.2,0.5l-0.3-1.6c3.3-1.7,0.8-3.9,0.1-3.8c0-0.4,0.2-0.6,0.4-1.1l-1.4,0.1
		c-0.2-0.8-1.2-1.5-1.2-1.4l-0.2-5.9c1,0.9,2,1.8,3.4,2.5c1.3,0.7,1.4,0.5,1.2-0.6c-0.1-0.5-0.1-0.8-0.1-0.8
		c0.5,0.1,1.6,1.6,1.6,2.4c0.4,0.6,0.8-1-0.3-2.2c3-3.1,5.2-8.2,5.7-11.8l3.9-1.6l0-0.5C205.6,95.7,207,93.2,207.7,90.4L207.7,90.4z
		 M211,91.3l0.9,0.4l-1,0.5L211,91.3z M202.3,91.5c0.2,0.1,0.4,0.3,0.8,0.5c0.8,0.6,1.2,1,1.2,1.3c0,0.2-0.1,0.4-0.3,0.5
		c-0.5,0.2-0.9,0-1.9-1c-0.3-0.3-0.5-0.5-0.6-0.7c-0.1-0.2,0-0.3,0.2-0.3C202.4,92.3,201.7,91.3,202.3,91.5L202.3,91.5z M230,91.7
		c0.2,0,0.3,0,0.4,0c0.2,0,0.3,0.2,0.1,0.3c-0.2,0.2-0.2,0.4,0.1,0.5c0.1,0.1,0.1,0.2-0.1,0.3c-0.1,0.1-0.3,0.1-0.5,0.2
		c-1.2,0.4-2.2,0.3-2.4-0.3c-0.3-0.7,0.3-1,1.8-1C229.7,91.7,229.9,91.7,230,91.7L230,91.7z M212,92.1l0,0.9l-1.3,0.6l0.1-0.9
		L212,92.1z M201.1,92.4c0.1,0,0.3,0.2,0.6,0.5c1.2,1.5,1.4,1.8,1,2.2c-0.5,0.5-1.2,0-1.9-1.3c-0.1-0.2-0.2-0.4-0.3-0.5
		c-0.3-0.3-0.1-0.4,0.2-0.4c0.2,0,0.3-0.1,0.3-0.2C201,92.5,201,92.4,201.1,92.4L201.1,92.4z M230.8,93.2c0.2,0,0.2,0.1,0.1,0.3
		c-0.1,0.2-0.2,0.3,0.1,0.5c0.1,0,0.2,0.2,0.1,0.2c-0.3,0.2-1.4,0.7-1.8,0.8c-0.8,0.3-1.3-0.4-0.8-1c0.2-0.3,1.6-0.8,2.3-0.8
		C230.7,93.2,230.8,93.2,230.8,93.2L230.8,93.2z M200.5,94.1c0.8,1.2,0.9,1.8,0.4,2.2c-0.3,0.3-1.1-0.1-1.2-0.9
		c-0.1-0.6-0.2-1.2,0-1.7C199.9,92.8,200.4,93.9,200.5,94.1L200.5,94.1z M212,93.6l0,1l-1.6,0.8l0.1-1.1L212,93.6z M215.2,93.6
		l1.5,0.9l0.1,0.8l-1.5-0.8L215.2,93.6z M231.6,94.5C231.6,94.5,231.6,94.6,231.6,94.5c0.1,0.2,0,0.6,0.2,0.6c0.4,0.1,0.3,0.2,0,0.5
		c-0.4,0.4-0.8,0.8-1.3,1.1c-1.3,0.5-1.7-0.9-0.5-1.6c0.4-0.2,0.8-0.4,1.1-0.5C231.3,94.6,231.5,94.5,231.6,94.5L231.6,94.5z
		 M215.2,95l1.7,1l0.1,1l-1.7-0.9L215.2,95z M212,95.1l0,0.9l-1.7,1l0.1-1L212,95.1z M218.8,95.8c0.5,0.2,6.5,1.9,8.5,1.3
		c0,0,1.7,2.5,3,3.4c-2,2.9-8.6,5.7-8.6,5.7L218.8,95.8z M232.4,95.9c0.1,0,0.1,0.1,0.1,0.3c0,0.6-1,2.8-1.8,1.7
		c-0.2-0.4,0-0.9,0.7-1.4C232,96.1,232.3,95.9,232.4,95.9L232.4,95.9z M199.6,96.3c0.1,0.2,0.1,0.7-0.2,0.6c-0.1,0-0.1-0.5,0-0.8
		C199.4,96,199.5,96.2,199.6,96.3L199.6,96.3z M212,96.5l0,1.1l-2,1.1l0.2-1.2L212,96.5z M215.2,96.7l2,1l0.2,1.2l-2.2-1.1
		L215.2,96.7z M212,98.2v1.1l-2.2,1.1l0.2-1.1L212,98.2z M215.3,98.3l2.2,1.2l0.3,1.2l-2.4-1.3L215.3,98.3z M184.3,98.3
		c0.4,0,0.5,0.4,0.2,0.6c-0.2,0.2-0.7,0.1-0.7,0C183.6,98.7,183.9,98.3,184.3,98.3L184.3,98.3z M185,99.5c0.1,0,0.1,0,0.1,0
		c0.3,0.1,0.4,0.4,0.3,0.7c-0.3,0.4-1.1,0.1-0.9-0.4C184.5,99.7,184.8,99.5,185,99.5L185,99.5z M211.9,99.9v1l-2.4,1.3l0.2-1.1
		L211.9,99.9z M215.3,100l2.5,1.3l0.2,1.1l-2.7-1.4L215.3,100z M183.8,100.1c0.1,0,0.2,0,0.3,0.1c0,0.1,0.1,0.3,0.3,0.4
		c0.3,0.2,0.4,0.2-0.3,0.5c-0.3,0.1-0.8,0.5-0.9,0.6c-0.5,0.4-0.8,0.2-0.8-0.2C182.3,100.9,183.3,100.1,183.8,100.1L183.8,100.1z
		 M185.7,100.9c0.1,0,0.2,0,0.3,0.1c0.2,0.1,0.2,0.4,0,0.5c-0.5,0.3-1.2-0.1-0.8-0.5C185.4,101,185.5,100.9,185.7,100.9L185.7,100.9
		z M211.9,101.4l0,1.3l-2.7,1.4l0.2-1.3L211.9,101.4z M184.4,101.6c0.2,0,0.3,0,0.5,0.1c0.2,0.2,0.3,0.3,0.5,0.3
		c0.5,0,0.3,0.2-0.2,0.4c-0.7,0.3-1.1,0.7-1.6,1.1c-0.5,0.5-0.5,0.6-0.7,0.4C182.2,103.2,183.4,101.6,184.4,101.6L184.4,101.6z
		 M215.4,101.6l2.8,1.5l0.2,1.3l-3.1-1.7V101.6z M186.2,102.5c0.1,0,0.2,0,0.3,0.1c0.2,0.2,0.1,0.5-0.2,0.6c-0.2,0.1-0.6,0.1-0.7,0
		C185.3,102.9,185.8,102.5,186.2,102.5L186.2,102.5z M184.9,103.2c0.2,0,0.3,0.2,0.5,0.4c0,0.1,0.2,0,0.4,0c0.5,0,0.6,0.2,0.1,0.5
		c-0.2,0.1-0.6,0.5-1,0.7c-0.9,0.8-1.4,0.6-1.3-0.2C183.7,103.8,184.4,103.2,184.9,103.2L184.9,103.2z M215.4,103.3l3.1,1.7l0.3,1.4
		l-3.4-1.8V103.3z M212,103.3l0,1.3l-2.9,1.5l0.2-1.3L212,103.3z M215.4,104.9l3.5,2.1l0.1,1.4l-3.6-2.1V104.9z M212,105.2l0,1.3
		l-3.2,1.6l0.2-1.2L212,105.2z M185.7,106c0.1,0,0.2,0,0.2,0c0.4,0.2,0.3,0.5-0.3,0.8c-0.6,0.3-0.8,0.3-0.9-0.1
		C184.6,106.4,185.3,106,185.7,106L185.7,106z M222,106.2c6,1.4,12,4.4,17.7,9.6l-1.2,0.8c0,0-5-5.7-16.2-9.1L222,106.2z
		 M215.5,106.8l1.7,1l0,0.3l-1.7-0.1V106.8z M186.9,106.8c0.1,0,0.2,0.1,0.8,0.4c2.4,1.7,3.4,2.8,4,4.7c0.4,1.1,0.4,1.1-0.8,0.5
		c-1.1-0.6-2.6-1.6-3.6-2.8c-0.2,3,0.2,6.7,0.2,6.7c1.5,0.7,1,2.7,1,2.7c3.9-1.1,3,4.1,0.1,3c0.7,3.8-3.7,3.5-3.3,0.2
		c-3.5-0.1-2.9-3.9,0-3.4c-0.3-1.2,0.1-2,1.2-2.5l-0.2-5c0,0-2.8,4.1-3.3,4c-0.3,0-0.7-0.5,0-4.1c0.4-1.9,2.3-4.1,3.5-4.2
		C186.7,106.8,186.8,106.8,186.9,106.8L186.9,106.8z M189.7,106.8l0.5,0.4l-0.5,0.9l-0.5-0.4L189.7,106.8z M211.9,107.1l0,0.8
		l-1.6,0.1L211.9,107.1z M194.7,115.5c-0.2,0,0.4,0.2,0.8,0.5c3.7,0.6,5.9,5.1,4.2,8.4c-0.2,0.1,0.1,0.9,0.3,0.6
		c1.8-2.5,0.5-8.8-4.8-9.4C195,115.6,194.8,115.5,194.7,115.5L194.7,115.5z M196.1,117.3c-0.3,0.8-0.4,1,0.4,0.7
		c1.3,0.5,2.8,2.7,2.3,4.9c-0.1,0.3,0.1-0.2,0.3,0.6C199.8,121.8,199.1,118.3,196.1,117.3L196.1,117.3z M213.2,121.4
		c3.8,0,7.5,0.8,10.5,2.5c-1,0.6-4.2,1.3-4.2,1.3c-1.8-2-2.7-4.1-6-3c-3.4,0.9-6.5,3.9-8.3,5.8c-1.7-1-2.7-1.3-4.2-1.4
		c-0.1,0-0.2,0.4-0.1-0.2c0.4-0.7,0.7-1.5,1-2.2C205.1,122.3,209.2,121.4,213.2,121.4L213.2,121.4z M224.9,124
		c-0.8,2.4-1.7,4.8-3.4,6.9l-0.2-1.1c1.5-2.4,2.3-4.5,2.6-5.5L224.9,124z M223.5,124.6c0.1,0.2-1.5,4-2.3,4.7l-0.3-1
		c0.6-1,1.6-3.3,1.6-3.3L223.5,124.6z M213.7,124.6c0,0-0.1,0-0.1,0.1c0,0.3,0.4,0.6,1,0.8c0.9,0.2,2.2-0.1,2.2-0.5
		c0-0.2-0.2-0.3-0.7,0c-0.6,0.3-1.2,0.2-2.1-0.2C213.9,124.7,213.8,124.6,213.7,124.6L213.7,124.6z M221.7,125.2
		c-0.2,0.9-0.6,1.6-1.1,2.3l-0.2-0.5c0.3-0.5,0.5-1.1,0.8-1.7L221.7,125.2z M220.8,125.5c-0.1,0.3-0.3,0.7-0.5,1l-0.4-0.8
		L220.8,125.5z M215.1,126.2c-0.6,0-1.2,0.2-1.3,0.5c0,0.2,0.2,0.1,1.3,0c0.6-0.1,0.9,0.3,1.4,0.2c0.3,0,0-0.3-0.1-0.4
		C216.2,126.3,215.6,126.2,215.1,126.2L215.1,126.2z M212.5,126.9c-0.1,0,0,0.2,0.2,0.6c0.1,0.2,0.2,0.7,0.2,0.9
		c0,0.7,0,0.7,0.3,0.3c0.2-0.2,0.6-0.2,1.3,0c0.4,0.1,0.5,0.2,0.8,0c0.3-0.2,0.4-0.1,0.7,0c0.3,0.1,0.5-0.1,0.8-0.1
		c0.4-0.1,0.4-0.1,0.8,0c0.5,0.2,0.4,0.2,0.5-0.6c0-0.8,0-0.9-0.5-0.6c-0.5,0.3-0.8,0.4-1.5,0.1c-0.8-0.3-0.9-0.2-1.4,0
		c-0.7,0.2-1,0.3-1.5-0.1C212.8,127.1,212.6,126.9,212.5,126.9L212.5,126.9z M201.7,128.2l0.3,0.5c2.7,1,4.5,3.1,3.4,6.8l0.3,0.4
		C207,132.2,205.5,129.1,201.7,128.2L201.7,128.2z M202.5,129.7l0.4,0.7c2,1,1.9,3.7,1.8,3.5l0.3,0.7
		C205.5,133,204.6,130.4,202.5,129.7L202.5,129.7z M210.9,133.7c-0.1,0-0.1,0-0.2,0.1c-0.1,0.1,0.1,0.2,1,0.8c0.8,0.5,1.4,1,1.4,1
		c0,0.1-0.5-0.1-0.9-0.2c-0.9-0.3-2.3,0.1-3,0.6c-0.2,0.1-0.5,0-0.8-0.1c-0.1,0-0.4-0.1-0.5,0c-0.6,0.2,0,0.7,1.4,1.4
		c1.7,0.9,2.7,1,3.7,0.4c0.7-0.4,0.9-0.1,0.2,0.3c-1.3,0.7-2.6,0.5-4.7-1c-1-0.7-1.4-0.6-0.5,0.1c1.5,1.1,4.3,2.5,6,0.8
		c0.1,0,0.2,0,0.3,0c0.4,0,0.4-0.1,0-0.7c-0.2-0.4-0.7-0.7-0.1-1.2c0.4-0.3,0.4-0.5-0.1-0.6c-0.1,0-0.1,0.1-0.3-0.1
		C212.6,134.5,211.4,133.7,210.9,133.7L210.9,133.7z M211.5,135.7c0.5,0,1,0.4,1.2,1.1c0,0.1,0,0.1,0,0.2l-0.4,0
		c-0.4-1.5-1.5-1-1.6-0.1l-0.4-0.1C210.4,136,210.9,135.7,211.5,135.7L211.5,135.7z M220.5,136.9l-0.3,0c-0.2-0.5-1.1-1.3-1.5,0
		l-0.4,0C218.7,135.2,220.3,135.5,220.5,136.9L220.5,136.9z M218.3,136.2c0.1,0.2-0.1,0.5-0.2,0.6c-0.1,0.1-0.4,0-0.5-0.1
		c-0.1-0.1,0-0.4,0.1-0.4C217.9,136.1,218.2,136.1,218.3,136.2L218.3,136.2z M213.2,136.2c0.1,0.3-0.2,0.5-0.3,0.4
		c-0.1,0-0.2-0.5-0.1-0.5C212.9,136.1,213.1,136.2,213.2,136.2L213.2,136.2z M220.9,136.2c0.2,0,0.4,0.1,0.4,0.3
		c0,0.1-0.2,0.3-0.3,0.3c-0.1,0-0.4-0.2-0.3-0.5C220.7,136.1,220.8,136.2,220.9,136.2L220.9,136.2z M210.2,136.3
		c0.1,0.1-0.1,0.4-0.1,0.4c0,0-0.4,0-0.4,0c0,0,0-0.3,0.1-0.4C209.8,136.2,210.1,136.2,210.2,136.3L210.2,136.3z M217.3,137.2
		c0.1,0,0.1,0,0.2,0.1c1.1,0.7,2.5,1,3.5,0.5c0.2-0.1,0.4-0.1,0.4,0c0,0.1-0.3,0.4-0.7,0.5c-1.1,0.3-2.8-0.1-3.4-0.7
		C217.1,137.4,217.2,137.2,217.3,137.2L217.3,137.2z M207.6,138c-0.1,0-0.1,0.1-0.1,0.2c0.1,0.4,3,2.1,4.3,2.3
		c1,0.2,1.8,0.1,2.4-0.3c1.5-0.9,1.1-2.1-0.4-1.2c-1,0.6-3.5,0.3-5-0.5C208.2,138.2,207.8,138,207.6,138L207.6,138z M220.9,138.6
		c0.4-0.2,0.5-0.2,0.6-0.1c0.4,0.3-0.2,0.8-1.4,1c-0.9,0.1-1.5,0.2-2.5-0.6c-0.8-0.6-0.4-0.9,0-0.6C219,139,219.9,139,220.9,138.6
		L220.9,138.6z M207.9,140.5c2.6,0.9,5.6,3.2,6.9,5.9l-0.8,0c-0.9-1.6-2.7-3.5-5.6-4.9C208.1,141.2,208,140.9,207.9,140.5
		L207.9,140.5z M221.6,141.8v0.9c-1.6,0.8-3,2.1-4,3.8l-0.9,0C217.8,144.5,219.3,142.8,221.6,141.8L221.6,141.8z M221.6,143.1v1.1
		c-1,0.6-1.9,1.4-2.5,2.3h-1.1C218.9,144.9,220.1,143.8,221.6,143.1L221.6,143.1z M209.7,143.9c0.8,0.4,2.1,1.6,2.5,2.6l-0.4,0
		c-0.4-0.5-1.1-1.2-1.6-1.6C209.8,144.4,209.7,143.9,209.7,143.9L209.7,143.9z M221.6,144.5C221.6,144.5,221.6,144.5,221.6,144.5
		v0.9c0,0-0.8,0.5-1.1,1h-0.9C220.2,145.3,221.5,144.5,221.6,144.5L221.6,144.5z M221.6,145.9l0,0.5l-0.6,0
		C221.1,146.3,221.4,146,221.6,145.9L221.6,145.9z M210.9,146c0.2,0.1,0.3,0.4,0.3,0.4l-0.1,0L210.9,146z M210.9,146"/>
	<path fill="#E2CF00" d="M188.5,127.6c1.8,0,5.6-0.6,5.6-0.6c0,0,11.9,19.8,11.4,19.6c-0.2,0.2-15.2,0.2-15.2,0.2
		C190,146.8,193.5,139.5,188.5,127.6L188.5,127.6z M193.9,113.6c5.8-4.8,11.9-4.8,18.4-5.5l0.2-16.3l2.4,1.4l0.1,14.9
		c8.6,0.6,16,3.8,22.4,9.3c0.1,0.1-9.2,5.1-13.3,6.4c-3.2-2.3-11.5-3.8-17-2c-1.5,0.5-3.4,1.3-5.2,1.9c1.3-7.9-4.8-9-7-9.4
		C194.5,114.3,194.1,113.7,193.9,113.6L193.9,113.6z M186.5,116.2c0.1-1.7,0-3.4-0.1-5.1c0-0.4-3.4,5.1-3.6,3.8
		c-0.5-3.3,1.2-7.6,3.8-8.1c0.3-0.3,5.4,2.8,5.2,5.6c-0.1,0.9-4.6-3-4.6-2.8c-0.1,0.5,0.1,6.6,0.3,6.6c1.3,0.7,1,1.7,1.2,2.5
		c0.9-0.2,2.4,0.1,2.5,1.1c-0.1,2.2-2.5,2.1-2.5,2.1c0.3,1.1-0.1,2.8-1.7,2.7c-1.1,0.1-2-1.6-1.5-2.6c-0.1,0.2-2.8-0.4-2.4-2
		c0.2-0.8,0.6-1.8,2.4-1.4C185.2,117.6,185.5,116.6,186.5,116.2L186.5,116.2z M191.4,96.8c-0.2-0.1-9.1-0.6-9.1-0.6l0.5-21.6
		c4.5-10.4,21.6-5.5,18.9-3.3C193.5,76.6,192.2,86.3,191.4,96.8L191.4,96.8z M207.8,87.9l-0.3-2.4c-0.7-1.5,18.2,7.2,18.4,7.4
		l0.5,2.6C226.6,96.6,214.5,90.9,207.8,87.9L207.8,87.9z M242.1,83.6c-0.3,9.7-1.8,16.3-7.4,24.2c-0.2,0.3-1.8,0.9-1.9,1.1
		c0.8,1.3,5.4,3.1,7.5,4.1l11.1-6.6c0.1,0-0.4-23.1-0.4-23.1L242.1,83.6z M246.3,73.1c-1.5-0.2-4.9-3.8-4.2-4.9
		c0-0.8,4.3,2.3,4.7,3.1c-0.2-0.2-0.2-7.6-0.3-7.3c-0.2,0.1-1.3-0.7-1-2.3c-2,0.3-2.6-1-2.5-1.6c0.1-1.2,1.4-1.6,2.3-1.8
		c-0.3-1.7,0.8-2.3,1.3-2.4c0.8-0.1,2.1,0.3,1.8,2.5c0.9-0.1,2.6-0.1,2.7,1.5c0.1,1.5-1,1.9-2.5,1.5c0.3,1.7-0.5,2.2-1.4,2.5
		c0.1,0.7,0.3,5.5,0.3,5.5s3-4.6,3.2-4.2C251.3,66.9,250.2,74.3,246.3,73.1L246.3,73.1z M232.4,56.2c-1.5,4.2,2.6,10.9,5.9,10
		c0.7-0.1,2.1,0.3,1.6,0.6c-5.5,4.5-18.4,5.4-18.4,5.2c0.1,5.5-0.1,11-0.2,16.5l-2.4-1.4c-0.1-5-0.2-10.1-0.3-15.1
		c-8.3-1.1-15.7-3.7-21.5-9.4c3.9-2.9,8.5-4.7,13-6.5C215.6,59,223.4,60.7,232.4,56.2L232.4,56.2z M228.3,34c-0.3-0.1,0.9-1,0.9-1
		s9.6,0.1,14.4,0.1c-1.7,7.1-0.5,13.5,1.7,19.6c0,0-5.3,0.5-5.4,0.6C239.7,53.5,228.4,34.2,228.3,34L228.3,34z M228.3,34"/>
	<path fill="#D40000" d="M256.2,152c-0.2-0.4-0.2-0.5-0.2-4.5c0-4,0-4.5,0.2-5.3c0.4-1-0.8-1-1.6-1.2v-1.6c0.9-0.1,2,0.1,2.4,0.7
		c0.9-0.7,1.5-0.8,2.2-0.7c2.2,0,3.1,1.4,3.1,4c0,0.4,0.1,1,0.1,1h1.2v1.7h-1.2c0,0,0.2,4.1-0.1,5.6
		C261.4,154.8,257.3,155,256.2,152L256.2,152z M260.6,151.4c0.2-0.5,0.2-0.3,0.2-4.1l0-1.7c-1.7-0.4-3.3-2.5-3.3-2.5
		c0,0,0-0.2,0,3.7c0,4.5,0.1,4.7,1.1,5.4C259.5,152.8,260.3,152.2,260.6,151.4L260.6,151.4z M258.2,141.4c0.5,0.7,1.2,1.5,2,2.1
		c0.3,0.2,0.7,0.3,0.7,0.3s0-0.5,0-0.8C260.9,141.5,259.7,140.3,258.2,141.4L258.2,141.4z M205.4,146.5l-11.3-19.6l1.9-0.7
		l12.2,20.3L205.4,146.5z M236.2,143.8c-4.4-0.7-5.6-6.2-2.4-11.3c1.5-2.5,7.9-11.8,7.5-11.5c-0.2-0.2,4.9,7.2,7.4,11
		c2.4,4,3.7,10.5-2.2,11.7c-2.3,0.5-4.6-0.9-4.7-3.5c0-0.4-0.2-0.7-0.4-0.7c-0.2,0-0.3,0.3-0.3,0.5
		C241,142.5,238.7,144.2,236.2,143.8L236.2,143.8z M256.6,137.4c-1.9-0.6-2.3-3-0.8-5.6c1.2-2.1,1.8-2.7,2.9-4.8
		c0.4-0.9,0.5-0.9,0.8-0.3c0.8,1.3,1.7,2.8,2.4,3.9c1.9,3,2.2,5,1,6.3c-1.1,1.1-3.4,0.5-3.5-1c0-0.1,0-0.2-0.1-0.3
		c-0.1-0.2-0.3-0.1-0.3,0.2C259.1,136.9,257.7,137.7,256.6,137.4L256.6,137.4z M185.2,120.3l1.8-1.7l1.6,1.9l-1.7,1.5L185.2,120.3z
		 M222.4,109.4l-0.2-1.4c6.7,1.6,12.2,5.1,16.1,8.8l-0.9,0.7C237.6,117.4,227.8,110.1,222.4,109.4L222.4,109.4z M203,108l2.1-0.3
		l-0.1,1.2l-2,0.5L203,108z M242.1,107.2l-1.2-1l0.7-1l1.2,0.8L242.1,107.2z M202.9,97.6c2.9-1.4,5.1-6.8,4.8-7.2l1.6,0.4l-3.6,15
		l-2.7,0.5C202.9,103.4,202.9,100.4,202.9,97.6L202.9,97.6z M221.8,106.1c-1-3.2-2.9-10.3-2.9-10.3c0.1,0.2,6.2,2,8.4,1.3
		c0.9,1.3,2,2.4,3.1,3.4C228.1,102.8,225.2,104.6,221.8,106.1L221.8,106.1z M247.6,94.6l-1-0.9l0.8-1.4l1.4,1.1L247.6,94.6z
		 M233.4,93.9c-0.9-1.6-0.9-3.4,0.7-5.1L233.4,93.9z M199.7,90.9c-0.1-0.2,0.4-3.9,0.5-4.1c0.2-0.3,0.5,0.8,0.7,1.6
		C201.1,89.4,200,91.5,199.7,90.9L199.7,90.9z M224.5,89.7c0,0,2.4-11,3.4-15.4l2.9-0.7l-0.4,9.1c-2.4,2.1-4.4,7.2-4.4,7.2
		L224.5,89.7z M185.9,87.8c-0.4-0.3-1.2-0.9-0.9-1.2c0.2-0.2,0.9-0.8,1.1-0.7c0.4,0.1,1.1,0.7,0.8,1C186.8,87.1,186.1,88,185.9,87.8
		L185.9,87.8z M206.8,83.6l-3.2-3.7c2-2.7,5.2-4.3,8.7-5.5l2.3,10.4C212,83.9,209.1,83,206.8,83.6L206.8,83.6z M190.7,74.5
		c-0.4-0.3,0.2-0.9,0.6-1.2c0.4-0.4,1.5,0.6,1.2,1.1c-0.2,0.3-0.6,1.1-0.9,1.1C191.5,75.4,190.9,74.6,190.7,74.5L190.7,74.5z
		 M228.7,71.2l2-0.3l-0.2,1.4l-2.2,0.3L228.7,71.2z M195.6,63.4l1.3-0.8c4.4,3.9,9.3,6.7,14.5,8.2l0.4,1.7
		C205.8,70.7,200.1,67.9,195.6,63.4L195.6,63.4z M246.9,61.8l-1.6-1.6l1.5-1.6l1.7,1.5C247.9,60.9,246.9,61.8,246.9,61.8L246.9,61.8
		z M192.3,58.8c-2-3.1-4.3-6.4-6.2-9.1c-3-4.5-3.8-7.6-2.9-10.4c1.6-4.6,8.2-4.3,8.7,0.3c0.1,0.9,0.5,0.9,0.7-0.1
		c0.6-5.1,8.5-4.5,8.9,1c0.5,4.7-2.7,8.3-4.5,10.7C195.5,53.7,193.7,56.1,192.3,58.8L192.3,58.8z M173,51.4
		c-1.3-2.2-4.9-7.2-1.5-8.7c1.2-0.5,2.8,0.4,2.8,1.5c0,0.5,0.3,0.5,0.3,0c0.3-2,3.1-2.2,4-0.2c0.8,2.3-0.6,4.5-2.6,7.5
		c-0.5,0.7-1.5,2.6-1.5,2.6L173,51.4z M237.7,54.1l-12.2-20.9h2.3l11.9,20L237.7,54.1z M171.4,35.8h-1.2v-1.7h1.2c0,0,0-0.9,0-2.5
		c0.1-3.4,0.2-3.9,1.2-4.8c2-1.8,5.3-0.3,5.2,2.4c-0.1,3.9,0,7.6-0.1,8.1c-0.2,0.9-0.2,1-0.1,1.1c0.2,0.3,1.7,0.5,1.7,0.4v1.6
		c-1.1,0.1-1.6,0-2.5-0.7c-0.6,0.5-2.3,1.1-3.7,0.4C172,39.9,171.2,38.6,171.4,35.8L171.4,35.8z M175.6,38.7
		c-0.6-0.9-1.7-2.1-2.6-2.5c-0.1,1,0,1.9,0.4,2.3C173.9,39.3,174.9,39.4,175.6,38.7L175.6,38.7z M176.1,29.1
		c-0.5-1.3-1.6-1.7-2.5-0.9c-0.5,0.5-0.6,1-0.6,3.9c0,1.8,0,2.5,0,2.5c1.7,0.5,3.2,2.4,3.2,2.4l0-5.3
		C176.3,30.8,176.2,29.9,176.1,29.1L176.1,29.1z M176.1,29.1"/>
	<path fill="#0E0C07" d="M225.6,32.8l-2.9,0l16.5,33.2c0,0-0.4,0.1-1.3-0.2c-4-1-6.4-5.2-5.5-9.3c0.1-0.3,0.1-0.6,0.1-0.6
		c-10.2,4.6-16.6,2.9-22.5,0l-2.5,1c0.2-1.5,2-7.2,4.9-9.9l0-2.9l-0.1-1.4l-0.2-2.5c-4.2,3.9-9.1,10.2-9.7,19c0,0-3.8,2-7.1,4.1
		c0.2,0,5.1,6,16.8,9.4l-0.5-1.9c1.7,0.5,4.2,0.9,6.7,1.2l0.3,15l2.8,1.7l0.1-16.7c0.1,0.1,4.5-0.2,6.8-0.7l-0.3,1.6l2.3-0.5v1.2
		l-2.6,0.6l-3.6,15.6l2.1,0.5c0.6-3.1,2.2-5.7,4.5-7.2l0-0.6c1.5-1,4.5-1.9,4.5-1.9c1-5.1,3.4-8.6,6-11.9l-1.2-1.7l4.7-1.7l-6.5-11
		c2.5-1.7,7.4-1.1,7.4-1.1c-2.1-5.7-4-11.6-1.9-20.3l-18,0L225.6,32.8z M231.5,33.2c0,1.4-1.9,1.3-2.1,0L231.5,33.2z M243.1,33.1
		c-1.1,6.6-0.8,13.1,1.9,19.2c0,0-0.4,0-0.4,0c0,0,0-0.3,0-0.4c-0.1-0.2-0.4-0.1-0.8,0.1c-0.1,0.1-0.3,0.2-0.4,0.3
		c-0.3,0.2-2,0.2-2,0.2c0.5-0.4,1.3-1.4,0.9-2c-0.1-0.1-0.2-0.1-0.3,0.1c-0.5,0.8-0.7,1-1.3,1c-1,0-1.7-0.6-1.6-1.6
		c0.1-0.9,1.4-1.4,1.2-0.5c-0.1,0.8,0.7,0.9,0.9,0.2c0.1-0.3,0-0.2,0.1-0.5c1.6-0.8,0.7-2.5-0.8-2.1c-0.3,0.1-0.4,0.1-0.6,0
		c-0.4-0.2-0.8-0.2-1,0.2c-0.1,0.3,0.1,0.5,0.4,0.5c0.3,0,0.4,0.2,0.4,0.4c0,0.5-0.8,0.7-1.4,0.4c-1.4-0.7-0.9-2.7,0.8-2.7
		c0.5,0,0.7,0,0.7-0.1c0.1-0.3-0.7-0.8-1.2-0.8c-0.4,0.1-0.6,0.2-0.4-0.3c0.1-0.5,0.1-0.7,0-1.1c-0.3-0.5-0.3-0.3-0.4,0.2
		c-0.6,0.9-1.4,1.1-2.1,0.6c-0.7-0.5-0.6-1.4,0-2c0.4-0.4,0.9-0.1,0.6,0.4c-0.1,0.2,0,0.5,0.2,0.5c0.4,0.1,0.6-0.1,0.6-0.6
		c0-0.3-0.1-0.3,0.4-0.6c1.2-0.7,0.3-2.6-1.1-2c-0.3,0.1-0.4,0.3-0.5,0.2c-0.6-0.6-1.4,0.1-0.9,0.5c0.2,0.1,0.5,0.1,0.5,0.2
		c0.1,0.1,0.1,0.2-0.1,0.5c-0.6,0.7-1.9,0.3-2.2-0.6c-0.4-1.1,0.8-2.3,1.7-1.6c0.3,0.2,0.5,0.2,0.5-0.1c0-0.4-0.6-1-1.3-0.9
		c-0.7,0-0.6,0.1-0.2-0.5c0.3-0.6,0.2-1.1,0-1.5c-0.2-0.3-0.4-0.3-0.4,0c0.2,0.9-0.9,1.7-1.7,1.3c-0.8-0.4-1.2-1.2-0.8-2
		c0.4-0.7,1.2-0.8,1.1,0c-0.1,0.5,0.3,0.7,0.7,0.5c0.1-0.1,0.2-0.2,0.2-0.5c0-0.4-0.1-0.5,0.1-0.7c0.6-0.1,0.6-1.3,0.5-1.4
		L243.1,33.1z M232.5,33.2c0.4,0,0.7,0.1,0.7,0.5c0,0.4-0.3,0.7-0.7,0.7c-0.4,0-0.7-0.3-0.7-0.7C231.9,33.3,232.2,33.2,232.5,33.2
		L232.5,33.2z M225.9,33.2h1.5l11.9,19.9l-1.4,0.7L225.9,33.2z M228.4,33.9c0.7,0.4,1.4,0.8,2.3,0.8c-0.3,0.5-0.5,1.1-0.6,2.1
		L228.4,33.9z M230.8,37.9c0.7,0.3,1.4,0.7,2.6,0.3c-0.6,0.6-1,1.3-1.3,2L230.8,37.9z M237,40.3c0.3,0,0.6,0.3,0.6,0.6
		c0,0.3-0.3,0.6-0.6,0.6c-0.3,0-0.6-0.3-0.6-0.6C236.4,40.6,236.7,40.3,237,40.3L237,40.3z M233.1,41.9c0.5,0.2,1.1,0.3,1.7,0.3
		c-0.3,0.4-0.4,1.1-0.4,1.8L233.1,41.9z M235,45c0.5,0.2,1.1,0.6,2.1,0.5c-0.7,1.2-0.5,1.5-0.6,2L235,45z M240.9,47.3
		c0.4,0,0.7,0.3,0.7,0.7c0,0.4-0.3,0.7-0.7,0.7c-0.4,0-0.7-0.3-0.7-0.7C240.3,47.6,240.6,47.3,240.9,47.3L240.9,47.3z M237.2,48.8
		c0.5,0.3,1.3,0.4,1.3,0.3c-0.1,0-0.3,0.9-0.3,1.4L237.2,48.8z M239.3,52.2c0.6,0.4,1.3,0.3,1.8,0.4c-0.4,0.1-0.9,0.2-1.3,0.4
		L239.3,52.2z M246.9,55.9c-1.5,0.1-1.9,1.3-1.7,2.5c-1.2-0.2-2.5,0.9-2.1,2.3c0.3,1.3,1.6,1.3,2.4,1.3c-0.1,0.3-0.2,1.4,1,2.3
		l0.2,6.7c0,0-0.6-0.5-0.9-0.9c-1.6-1.6-4-2.8-3.9-1.9c0,0.1,0.1,0.5,0.1,0.7c0.3,1.5,2.3,3.2,3.7,4c0.5,0.3,0.8,0.6,0.8,0.6
		c-2.6,2.8-4,5.8-4.4,8.7c-0.3,2.7-0.6,5.2-0.8,7.7c-1.1,12.6-6.5,15.8-6.7,16.4l-0.1,1.7l-1.5-0.1l-1.7,1.5c5.7,2.9,9,6.5,9,6.6
		c4.6-3,8.5-6.3,12.2-9.7l-0.1-28.1c0,0-0.3,0.1-0.4,0.1c-0.3,0-0.3,0.1-0.4,0.7c-0.1,0.3-0.2,0.6-0.4,0.7c-0.3,0.4-0.2,0.2,0.2,0.3
		c0.7,0.3-0.2,1.6-1.3,1.8c-0.7,0.1-1.2,0.3-1.3,0.4c-1.6,1.4-3.1,1.6-4.3,1.1c-0.6-0.2-1.2-0.6-1.4-1.2c-0.5-1.4,0.5-3.4,1.1-4.5
		c1.1-2.1,2.9-3.7,2.9-3.7l-0.3-0.3c0,0,0.4,0,0.4,0c1.6-0.6,1.7-0.6,2-1c0.3-0.4,1-1.6,1.2-2c0.8-2.1,0.9-2.2,0.9-3.6
		c0-1.1-0.1-1.9-0.3-1.9c-1.2,0.9-2.5,3.2-3.2,4.5c-0.3-1.9-0.3-5.3-0.3-5.3c0.3-0.3,1.7-0.1,1.4-2.5c1.3,0.6,2.7-0.3,2.6-1.6
		c-0.1-2-1.6-1.9-2.8-1.6C249.1,57.3,248,55.8,246.9,55.9L246.9,55.9z M246.8,56.1c1.6,0,1.9,1.8,0.9,2.8c0,0-0.6-0.5-1-0.8
		c-0.3,0.3-0.4,0.5-0.8,0.7c-0.4-0.3-0.7-0.9-0.7-1.4C245.4,56.7,246.2,56.1,246.8,56.1L246.8,56.1z M210,56.1
		c6.5,3.6,14.7,3.9,22.2,0.2l-0.1,0.6l-0.8,0.5l0.5,0.9l0.3-0.1l0,0.6c-6.2,3.3-16.5,4-24.6-1.5l0.7-0.3c0,0,0.2,0.1,0.3,0.2
		c0.3,0.2,0.8,0.5,1.1,0.6l0.5-0.7c0,0-0.7-0.5-0.7-0.5L210,56.1z M210.6,57.3l-0.4,0.8l0.9,0.5l0.4-0.9L210.6,57.3z M207.1,57.4
		c10,6.3,19.4,4.4,25,1.8l0.1,0.7c-7.2,3.1-16.8,3.9-25.8-2.2L207.1,57.4z M230.7,57.8l-0.9,0.4l0.4,0.8l0.9-0.4L230.7,57.8z
		 M205.9,57.9c8.2,5.3,16.9,6.3,26.3,2.4l0.4,1c-9.2,3.7-18.9,3.3-27.7-3L205.9,57.9z M212.1,57.9l-0.4,0.9l1,0.4l0.3-0.9
		L212.1,57.9z M229.3,58.3l-0.9,0.3l0.3,0.8l0.9-0.3L229.3,58.3z M213.7,58.5l-0.2,0.9l1,0.3l0.2-0.9L213.7,58.5z M251,60
		c0.1,1.5-2.1,2.2-2.9,0.8l0.7-0.9l-0.7-0.6C249.1,57.9,250.9,58.6,251,60L251,60z M204.6,58.6l2.4,1.7l-1.8,2.7l-2.6-1.8
		L204.6,58.6z M246.8,58.7l1.5,1.3l-1.4,1.7l-1.5-1.5L246.8,58.7z M245.8,59.1l-0.9,1l0.9,1c-1.1,1.2-2.8,0.5-2.8-1
		C243.1,59,244.8,58,245.8,59.1L245.8,59.1z M227.8,58.7l-0.9,0.3l0.2,0.8l1-0.3L227.8,58.7z M215.3,59l-0.2,0.9l1.1,0.2l0.2-0.9
		L215.3,59z M226.3,59.1l-1,0.2l0.2,0.9l1-0.2L226.3,59.1z M246.9,59.3l-0.8,0.8l0.8,0.8l0.8-0.8L246.9,59.3z M217,59.4l-0.1,0.9
		l1.1,0.2l0.1-0.9L217,59.4z M224.5,59.5l-1,0.1l0.1,0.9l1-0.1L224.5,59.5z M218.6,59.6l0,0.9l1,0.1l0-0.9L218.6,59.6z M222.9,59.7
		l-1,0l0,0.9l1-0.1L222.9,59.7z M205,59.7c-0.6,0-1,0.5-1,1c0,0.6,0.5,1,1,1c0.6,0,1-0.5,1-1C206,60.2,205.6,59.7,205,59.7L205,59.7
		z M221.3,59.7l-1,0l0,0.9l1,0L221.3,59.7z M246.9,59.7l0.4,0.4l-0.4,0.4l-0.4-0.4L246.9,59.7z M205,60.1c0.4,0,0.7,0.3,0.7,0.7
		c0,0.4-0.3,0.7-0.7,0.7c-0.4,0-0.7-0.3-0.7-0.7C204.3,60.4,204.6,60.1,205,60.1L205,60.1z M201.3,60.1l1.4,1.1
		c-0.4,0.8-1.8,2.6-1.8,2.6l-2.6-2.1l1.3-0.8c-0.1,0.1-0.1,0.3-0.1,0.5c0,0.6,0.5,1,1,1c0.6,0,1-0.5,1-1c0-0.5-0.4-1-1-1L201.3,60.1
		z M200.5,60.8c0.4,0,0.7,0.3,0.7,0.7c0,0.4-0.3,0.7-0.7,0.7c-0.4,0-0.7-0.3-0.7-0.7C199.8,61.1,200.1,60.8,200.5,60.8L200.5,60.8z
		 M247.8,61.2c0,0,0.4,0.1,0.5,0.3c0.7,1.1,0,2.5-1.3,2.5c-1.5,0-1.8-1.9-0.8-2.6l0.8,0.8L247.8,61.2z M209.8,61.6l2.9,1.1l-1.1,3.1
		l-3.2-1.3L209.8,61.6z M197.9,62c11.8,10.6,28.5,11.4,40.6,4.3l0.7,0l0.4,0.4c-13.8,8.2-31,6.4-42.6-4.1L197.9,62z M230.3,62.6
		l0.9,3.1l-3.2,0.8l-0.7-3.1L230.3,62.6z M196.7,62.7c3.6,3.4,8.6,6.5,14.5,8.2l0.1,1.3c-6.3-1.9-11-4.4-15.7-8.8L196.7,62.7z
		 M210.5,62.7c-0.6,0-1,0.5-1,1c0,0.6,0.5,1,1,1c0.6,0,1-0.5,1-1C211.6,63.2,211.1,62.7,210.5,62.7L210.5,62.7z M205.4,63l3,1.6
		l-1.5,3l-3.2-1.7L205.4,63z M210.5,63.1c0.4,0,0.7,0.3,0.7,0.7c0,0.4-0.3,0.7-0.7,0.7c-0.4,0-0.7-0.3-0.7-0.7
		C209.8,63.4,210.1,63.1,210.5,63.1L210.5,63.1z M215.5,63.5l2.9,0.4l-0.1,3.2l-3.3-0.4C215,65.6,215.5,63.5,215.5,63.5L215.5,63.5z
		 M229.2,63.6c-0.6,0-1,0.5-1,1c0,0.6,0.5,1,1,1c0.6,0,1-0.5,1-1C230.3,64,229.8,63.6,229.2,63.6L229.2,63.6z M229.2,63.9
		c0.4,0,0.7,0.3,0.7,0.7c0,0.4-0.3,0.7-0.7,0.7c-0.4,0-0.7-0.3-0.7-0.7C228.5,64.2,228.9,63.9,229.2,63.9L229.2,63.9z M206,64
		c-0.6,0-1,0.5-1,1s0.5,1,1,1c0.6,0,1-0.5,1-1S206.6,64,206,64L206,64z M224.3,64l0.4,3.2l-3.1,0.2l-0.2-3.2L224.3,64z M246.6,64.3
		h0.4c0,2.7,0.3,5.9,0.6,8.2c0,0.4,0.1,0.5,0,0.5c-0.3,0.5-0.7-0.1-0.8-1.7c0-0.4-0.1-1.1-0.1-1.5C246.6,68.6,246.6,64.3,246.6,64.3
		L246.6,64.3z M193.9,64.3c-4.7,2.9-12.5,9.9-12.4,10.1l0,26.9l0.6,0l0.5-1c-0.8-0.2-0.6-1.7,0.9-2c0.3,0,1-0.3,1.2-0.5
		c1.1-0.9,3-1.4,4.3-1c1.9,0.5,2.3,1.9,1.4,4.3c-0.7,1.9-2.1,4.3-3.5,5c-0.1,0.1-0.3,0.2-0.3,0.2s0.3,0.3,0.4,0.4
		c3.7-2.1,5.5-9.7,5.4-14.4c0.1-4.8,1-9.7,2.9-13.2c3.2-5.8,7.5-8.2,7.5-8.2C202.9,70.8,197.1,67.3,193.9,64.3L193.9,64.3z
		 M206,64.3c0.4,0,0.7,0.3,0.7,0.7c0,0.4-0.3,0.7-0.7,0.7c-0.4,0-0.7-0.3-0.7-0.7C205.3,64.6,205.6,64.3,206,64.3L206,64.3z
		 M234.5,64.4l1.1,3l-3.1,1.3l-1.1-3.1L234.5,64.4z M216.7,64.4c-0.6,0-1,0.5-1,1s0.5,1,1,1c0.6,0,1-0.5,1-1S217.3,64.4,216.7,64.4
		L216.7,64.4z M223,64.7c-0.6,0-1,0.5-1,1c0,0.6,0.5,1,1,1c0.6,0,1-0.5,1-1C224,65.1,223.6,64.7,223,64.7L223,64.7z M216.7,64.8
		c0.4,0,0.7,0.3,0.7,0.7s-0.3,0.7-0.7,0.7c-0.4,0-0.7-0.3-0.7-0.7S216.3,64.8,216.7,64.8L216.7,64.8z M223,65c0.4,0,0.7,0.3,0.7,0.7
		c0,0.4-0.3,0.7-0.7,0.7c-0.4,0-0.7-0.3-0.7-0.7C222.3,65.3,222.6,65,223,65L223,65z M233.5,65.4c-0.6,0-1,0.5-1,1c0,0.6,0.5,1,1,1
		c0.6,0,1-0.5,1-1C234.5,65.8,234.1,65.4,233.5,65.4L233.5,65.4z M233.5,65.7c0.4,0,0.7,0.3,0.7,0.7c0,0.4-0.3,0.7-0.7,0.7
		c-0.4,0-0.7-0.3-0.7-0.7C232.8,66,233.1,65.7,233.5,65.7L233.5,65.7z M211.6,65.8l3.1,0.8l-0.7,3.2l-3.5-0.9L211.6,65.8z
		 M250.7,65.7c0.5,1.6-0.4,3.6-0.5,3.7c-0.6,1.6-1.2,2.9-1.5,3c-0.2,0.1-0.3,0-0.3-0.2c0-0.3,0.7-2.3,1.2-3.7
		c0.1-0.3,0.4-1.3,0.4-1.5c0-0.2-0.2,0.2-0.5,0.8c-0.5,1.2-1.2,2.5-1.4,3.7c-0.1,1-0.3,0.8-0.4-0.3c-0.2-1.6,0.2-2.4,2-4.7
		C250.2,66.1,250.7,65.5,250.7,65.7L250.7,65.7z M228,66.5l0.9,3.2l-3.6,0.6l-0.6-3.2L228,66.5z M212.8,66.8c-0.6,0-1,0.5-1,1
		c0,0.6,0.5,1,1,1c0.6,0,1-0.5,1-1C213.8,67.3,213.3,66.8,212.8,66.8L212.8,66.8z M218.2,67l3.3,0.2l0,3.3l-3.6-0.2L218.2,67z
		 M212.7,67.2c0.4,0,0.7,0.3,0.7,0.7c0,0.4-0.3,0.7-0.7,0.7c-0.4,0-0.7-0.3-0.7-0.7C212.1,67.5,212.4,67.2,212.7,67.2L212.7,67.2z
		 M226.6,67.5c-0.6,0-1,0.5-1,1c0,0.6,0.5,1,1,1c0.6,0,1-0.5,1-1C227.6,67.9,227.2,67.5,226.6,67.5L226.6,67.5z M219.8,67.7
		c-0.6,0-1,0.5-1,1c0,0.6,0.5,1,1,1c0.6,0,1-0.5,1-1C220.8,68.2,220.3,67.7,219.8,67.7L219.8,67.7z M226.6,67.8
		c0.4,0,0.7,0.3,0.7,0.7c0,0.4-0.3,0.7-0.7,0.7c-0.4,0-0.7-0.3-0.7-0.7C225.9,68.1,226.2,67.8,226.6,67.8L226.6,67.8z M219.8,68.1
		c0.4,0,0.7,0.3,0.7,0.7c0,0.4-0.3,0.7-0.7,0.7c-0.4,0-0.7-0.3-0.7-0.7C219.1,68.4,219.4,68.1,219.8,68.1L219.8,68.1z M242.3,68.3
		c0.1,0,0.1,0,0.2,0c0.7,0,3.2,1.8,3.9,2.9c0.5,1,0.3,1.3-0.4,0.5c-0.8-0.9-2.4-2.3-2.6-2.3c-0.2,0,0.1,0.3,1.1,1.3c1,1,2,2.2,2,2.4
		c0,0.1-0.2,0.1-0.5,0c-0.6-0.4-1.1-0.8-1.4-1c-0.2-0.2-0.5-0.4-0.7-0.6C243,70.5,241.9,68.6,242.3,68.3
		C242.2,68.3,242.2,68.3,242.3,68.3L242.3,68.3z M196.2,68.5c0.6,0,1.4,0.4,1.4,1.1c0,0.5,0.1,0.6,0.5,0.6c0.5,0,1.8,0.2,1.8,0.2
		l0,1.5c0,0-0.6,0-1.4,0c-1.2-0.1-1.2-0.1-1.4,0.5c-0.1,0.2-0.1,0.3-0.4,0.5c-1.1,0.7-2.2-0.6-1.5-1.8c0.2-0.4,0.2-0.6,0.1-0.8
		C195,69.4,195.4,68.6,196.2,68.5L196.2,68.5z M196.5,69.3c-0.1,0-0.3,0.1-0.4,0.2c-0.2,0.2-0.2,0.7,0,1c0.2,0.3,0.2,0.4,0,0.6
		c-0.4,0.3-0.4,1,0,1.2c0.3,0.2,0.7-0.1,0.7-0.5c0-0.5,0.4-0.5,0.4-0.5l2.3,0l0-0.4l-1.7-0.1c-0.2,0-0.5,0-0.7-0.1
		c-0.2-0.1-0.4-0.4-0.2-0.6C197.1,69.6,196.8,69.3,196.5,69.3L196.5,69.3z M191.4,70.1l1.1,1.9l1.3,0l0.1,1.1l1.6,1l-1.6,0.9
		l-0.1,1.1l-1.2,0.2l-1.1,1.4l-1.1-1.4l-1.2,0l0-1.2l-1.6-1.1l1.8-1l0-1.3l1.3-0.1L191.4,70.1z M230.3,71l0.1,1.1l-1.8,0.3l0.2-1.2
		L230.3,71z M218.8,72.1l2.4,0.1l-0.1,15.9c0,0-0.5,0-0.6,0l0-0.6l-0.8,0l-0.8-0.5L218.8,72.1z M191.4,72.5l-1.4,1.8l1.7,1.5
		l1.5-1.8L191.4,72.5z M219.5,72.8v0.7h1v-0.7H219.5z M191.5,73.4l1,0.7l-0.8,1l-1-0.8L191.5,73.4z M230.4,73.8l0,8.7
		c-3.3,2.6-4.4,7.2-4.4,7.2l-1.4-0.1l3.5-15.3L230.4,73.8z M212.3,74c-3,1.4-6,2.5-9,5.9c1.2,1,2.4,2.1,3.5,3.9
		c2.5-0.4,5.2,0.1,8.3,1.3L212.3,74z M219.5,74.2V75h1v-0.8H219.5z M185.7,75.3c0.1,0.2,0.1,0.5,0.1,0.5c2.2-0.2,1.6,2.4,0.2,2.5
		c-0.2,0,0.1,0.5,0.5,0.6c0.8,0.4,1.4,0.1,2-0.6c0.4-0.6,0.4-0.6,0.4-0.6l1.4,0.7c0,0,0,0-0.2,0.6c-0.4,1.1,0.2,2.5,0.7,1.5
		c0.3-0.5,1-0.8,1.6-0.6c0.6,0.3,0.8,1.4,0.4,2.1c-0.1,0.2-0.1,0.3-0.1,0.5c0.1,0.3,0.2,1.1,0.1,1.3c-0.2,0.3-0.4,0.4-0.7,0.1
		c-0.5-0.4-0.8-0.5-1.7-0.8c-1.6-0.3-1.9-0.8-2.5-2.1c-1.9,0.6-4.6-0.6-4.3-3.4c0.2-0.6,0.2-1.8-0.1-2c-0.6-0.5,0.1-1.1,1-1.3
		C185.2,74.2,185.6,74.9,185.7,75.3L185.7,75.3z M212,74.5l2.4,10.1c-2.7-1-5.3-1.7-7.6-1.2c-1.1-1.7-2-2.5-3.1-3.6
		C206,77.1,208.9,75.6,212,74.5L212,74.5z M184.7,75c-0.2,0-0.3,0.1-0.5,0.2c0,0,0.2,0.1,0.3,0.3c0.1,0.3,0.1,0.3,0,1
		c-0.7,2.6,1,4.4,3.5,3.6c0.6-0.2,0.6-0.2,0.8,0.5c0.3,1.2,1.1,1.8,2.8,2c0.1,0,0.3,0,0.4,0.1c0.7,0.5,0.4-0.2,0.2-0.4
		c-0.1-0.2-0.4-0.4-0.4-0.4s0.2-0.1,0.3-0.2c0.5-0.2,0.6-1.2,0.3-1.4c-0.4-0.2-1,0.1-1,0.5c0,0.7-0.8,0.7-1.6,0.2
		c-0.9-0.7-0.1-2.5-0.1-2.5l-0.5-0.2c0.1,0.1-1.1,1.7-2.6,1.2c-1-0.4-1.7-1.6-1.3-1.9c0.3-0.1,0.8,0.1,1-0.1
		c0.5-0.4,0.1-1.1-0.6-1.1c-0.2,0-0.5,0.1-0.5,0.1c0-0.3,0.1-0.6,0.1-0.9C185.2,75.3,185,75,184.7,75L184.7,75z M219.5,75.8v0.6l1,0
		v-0.6L219.5,75.8z M219.5,77v0.6h1V77H219.5z M219.5,78.4v0.7h1v-0.7H219.5z M219.5,79.7v0.7h1v-0.7H219.5z M219.5,81v0.6h1V81
		H219.5z M219.5,82.3V83h1v-0.7H219.5z M186.4,83l0.9,1.5l1,0l0,1l1.7,1.3l-1.5,1.1l-0.1,1.1l-1.2,0l-1,1.6l-1.2-1.4l-1-0.2
		l-0.1-1.3l-1.5-1.1l1.4-1.1l0.1-1.2l1.1,0.1L186.4,83z M242.8,83.7c0.1,0,0.2,0,0.3,0.1c0.4,0.2,0.5,0.2,1.4,0.3
		c1.1,0.1,1.5,0.1,2,0.5c0.3,0.2,0.3,0.2,0.7,0c1.5-1,3.3-0.1,3.4,1.8c0,0.5,0.1,0.7,0.3,1.1c0.1,0.3,0.3,0.5,0.2,0.7
		c-0.2,0.6-1.4,0.6-2.1-0.2c-0.1-0.1-0.2-0.2-0.4-0.2c-0.3,0.1-1.1-0.5-1.1-0.5c-0.1,0.4-0.1,0.8-0.2,1.4l-1.4,0c0,0,0-0.3-0.1-1.2
		c-0.1-1-0.3-1.4-0.7-0.8c-0.6,1-2.1,0.5-2.2-0.6c0-0.4-0.1-0.4-0.3-0.6C241.9,84.8,242.1,83.7,242.8,83.7L242.8,83.7z M219.5,83.7
		v0.6h1v-0.6H219.5z M242.9,84.3c-0.3,0-0.1,0.5,0.3,0.8c0.3,0.2,0.3,0.2,0.2,0.6c-0.1,0.8,0.7,1.2,1.1,0.6c0.1-0.1,0.1-0.3,0.1-0.4
		c-0.2-0.6,1.2-0.4,1.5,0.2c0.1,0.1,0.2,0.5,0.2,0.9c0,0.4,0,0.8,0,0.8h0.4c0,0,0-0.3,0-0.5c0.1-1,0.6-1.7,1.2-1.7
		c0.3,0,0.3,0,0.1,0.4c-0.3,0.6,0,1,0.7,1c0.5,0,0.5,0,0.6,0.3c0.2,0.4,0.3,0.5,0.5,0.4c0.1,0,0.1,0,0-1.2c-0.2-1.8-1.3-2.3-2.8-1.3
		c-0.4,0.3-0.5,0.3-0.9-0.1c-0.6-0.5-0.9-0.7-2-0.7c-0.5,0-1-0.1-1.1-0.1C243.1,84.4,243,84.3,242.9,84.3L242.9,84.3z M207.9,84.9
		c-0.2,0-0.5,0.1-0.8,0.1c0.3,1.4,0.4,2.8,0.5,4.3c1.2-0.2,2.9,0,5,1c1.3,0.6,2.9,1.6,4.6,2.8c1.8,1.3,3.9,2,5.7,2.4
		c2.2,0.5,4,0.4,3.9,0.3c-0.1,0-0.8-3.5-0.7-4.2c-3-0.3-6-1.4-8.2-2.9C215,86.6,211.5,84.8,207.9,84.9L207.9,84.9z M219.5,85v0.6h1
		V85H219.5z M186.1,85.1l-1.6,1.7l1.8,1.7l1.5-1.7L186.1,85.1z M186,85.9l0.9,0.9l-0.7,0.9l-1-0.9L186,85.9z M208.8,86
		c0.2,0,0.4,0.2,1.1,0.5c0.6,0.4,1.1,0.7,0.9,0c0.1-0.2,0.8,0.4,1.6,0.8c0.9,0.8,0.9,0.6,1.1,0.2c0.1-0.3,0.3-0.1,1,0.6
		c1,0.9,0.9,0.9,1.1,0.7c0.2-0.4,0.3-0.4,1.1,0.5c0.8,0.9,1,1.1,1.2,0.7c0.3-0.2,0.4,0,1.5,1.1c0.6,0.6,0.7,0.5,0.8,0.1
		c0.1-0.4,0.1-0.3,1.1,0.4c1.1,0.9,1.2,0.9,1.2,0.6c0.1-0.5,0.4-0.3,1.5,0.5c0.7,0.5,0.9,0.6,1.1,0.5c0.1-0.3-0.4-0.8,0.7-0.3
		l0.3,1.6l-0.4-0.1c-0.2-0.1-0.7-0.2-0.6,0.3c0.1,0.3-0.2,0.3-1-0.3c-1.2-0.7-1.4-0.9-1.5-0.7c-0.2,0.5-0.1,0.6-1-0.1
		c-1-0.7-1.1-0.9-1.3-0.7c0,0.5-0.3,0.4-1.2-0.3c-0.8-0.7-0.9-1-1.3-0.5c-0.1,0.2-0.2,0.1-0.3,0c-0.4-0.3-1.3-1.3-1.6-1.5
		c-0.2-0.2-0.3-0.1-0.5,0c-0.2,0.2-0.2,0.1-0.6-0.3c-1.2-1.1-1.4-1.3-1.5-1.2c-0.1,0.2,0,0.6-0.9-0.1c-1.1-0.8-1.6-1.2-1.5-0.6
		c-0.2,0.2-0.1,0.3-1.2-0.3c-1.1-0.6-1.2-0.8-1.4-0.6c-0.1,0.3-0.5,0.2-0.5,0.2l-0.2-1.6l0.4,0C208.2,86.2,208.6,86,208.8,86
		L208.8,86z M200.2,86.1c-0.1,0.2-0.7,1.7-0.7,5.4c0.1,0.1,1.5-1.3,1.5-2.6C201.1,87.6,200.2,86.1,200.2,86.1L200.2,86.1z
		 M219.5,86.2v0.7h1v-0.7H219.5z M200.3,86.8c1.3,2.1-0.1,4-0.5,4.1C199.8,89.4,200,87.9,200.3,86.8L200.3,86.8z M234.3,88.5
		c-2.1,1.3-1.8,5-0.7,5.9C233.6,94.4,234.3,90.5,234.3,88.5L234.3,88.5z M234,88.9l-0.6,4.7C232.7,92.8,232.5,90.3,234,88.9
		L234,88.9z M247.4,89.7l1.1,1.4l1,0.1l0.2,1l1.5,1.2l-1.5,1l-0.1,1.1l-1.1,0.1l-1.1,1.7l-1.1-1.7l-1-0.1l0-1.1l-1.6-1.2l1.5-0.9
		l0-1.2l1.2,0L247.4,89.7z M207.6,90.2c-0.7,3.4-2.4,5.7-4.8,7.3l0,0.3l-4.1,1.6c-0.9,4.1-2.5,8.2-5.8,12l0.9,1.9l-4.5,1.6l6.5,11.1
		c0.4,0-3.1,1.7-7.5,1.3c2.7,6.7,3.3,13.7,1.8,19.8l21.2-0.1l-16.2-31.9l-0.3-0.5c-0.2-0.4,8.6,1.2,6.8,9.5c0,0.2,0,0.2,0.1,0.1
		c1.7-1.5,13.2-5.6,22.3-0.2l2.7-1.1c-1.3,4.5-2.8,7.6-5.2,10.4l0.4,6.4c4.4-3.6,9.1-10.2,9.8-18.9c2-1,3.7-2.1,5.5-3.1l0.2,0.1
		l1.2-0.7c-3.8-4.2-11.6-8.2-16.6-9.2l0.3,1.4c-2.8-0.7-4.8-0.9-7-1.1l-0.3-15l-2.8-1.6l-0.1,16.5c-2.1,0-6.8,0.8-6.8,0.8l0.2-1.4
		l-2.2,0.4l0-1.4l2.5-0.7l3.6-15.2L207.6,90.2z M207.9,90.5l1.1,0.2l-3.5,14.9c0,0-2,0.5-2.1,0.5c-0.2-2.8-0.2-8.5-0.2-8.5
		C206.7,94.7,207.2,92.6,207.9,90.5L207.9,90.5z M183.6,91.6c0.5,0,1.1,0.4,1.1,0.7c0.1,0.2,0.2,0.3,0.3,0.3
		c0.9,0.1,0.9,0.4,0.9,0.9c-0.1,1,0.5,0.2,0.7-0.8c0-0.1,0-0.9,0-0.9l1.1,0c0,0,0,0.8,0.1,0.9c0.1,0.8,0.4,1.4,0.6,1
		c0.8-1.4,2.5-0.7,2.3,0.7c-0.1,0.3-0.1,0.3,0.2,0.6c0.4,0.4,0.5,0.8,0.4,1.2c-0.1,0.4-0.4,0.4-0.9,0.2c-0.2-0.1-0.5-0.1-1.4-0.2
		c-1.1,0-1.2-0.1-1.7-0.5l-0.3-0.3l-0.5,0.3c-0.8,0.5-1.5,0.5-2.4,0.1c-0.6-0.3-0.9-1-1-2c0-0.6-0.2-1-0.5-1.1
		c-0.2-0.2,0-0.5,0.3-0.9C183.2,91.7,183.4,91.6,183.6,91.6L183.6,91.6z M247.3,91.8l-1.5,1.9l1.8,1.6l1.7-2L247.3,91.8z M212.5,92
		l2.1,1.2l0.3,14.8l-2.4-0.1L212.5,92z M183.6,92.2c-0.2,0-0.1,0.3,0.1,0.7c0.1,0.3,0.1,0.6,0.1,0.8c-0.2,1.6,1.6,2.4,3,1.3
		c0.4-0.4,0.4-0.4,0.7,0.1c0.4,0.5,0.9,0.6,2,0.5c0.5,0,0.9,0.2,1.1,0.1c0.2-0.1,0-0.4-0.3-0.6c-0.2-0.1-0.2-0.1-0.2-0.5
		c0.1-1-0.7-1.2-1.3-0.4c-0.5,0.7-1.2,0.2-1.4-0.9c-0.1-0.8-0.2-0.8-0.3-0.1c-0.1,0.9-1.3,1.9-1.8,1.4c-0.1-0.1-0.1-0.1,0-0.5
		c0.2-0.6,0-0.8-0.6-0.9c-0.1,0-0.2-0.1-0.3-0.2C184.2,92.4,184.2,92.2,183.6,92.2L183.6,92.2z M247.5,92.6l1,0.8l-0.8,1l-1-0.8
		L247.5,92.6z M213.2,93.1v0.7h0.9v-0.7H213.2z M213.2,94.5v0.7h0.9v-0.7H213.2z M218.5,95.4c1,3.7,2,7.4,3,11.1
		c0.9-0.4,6.4-2.8,9-5.9c-0.1,0-2.4-2.2-3.1-3.6C224.8,97.3,221.9,96.8,218.5,95.4L218.5,95.4z M213.2,95.8v0.7h0.9v-0.7H213.2z
		 M219.1,96c2.4,0.7,5.4,1.7,8.2,1.2c0.7,1.3,1.8,2.3,2.9,3.3c-2.1,2.3-5.1,4-8.3,5.4L219.1,96z M241.5,96.3c0.1,0,0.2,0,0.4,0.1
		c0.4,0.3,0.7,0.4,1.4,0.6c1.2,0.2,2.2,1,2.4,2c0.1,0.4,0.2,0.5,0.8,0.3c2.3-0.6,4.1,1.3,3.5,3.9c-0.2,0.9-0.3,1,0,1.4
		c0.6,0.6,0.7,0.6,0.1,1.2c-0.6,0.5-1.8,0.3-2-0.6c-0.2-0.5-0.2-0.5-0.6-0.6c-1.5-0.2-1.4-2.3,0-2.6c0.1,0,0.2,0,0.3,0
		c0.4-0.2-0.4-1.1-1.1-1c-0.9,0.2-1.3,0.7-1.6,1.6l-1.3-0.8c0.3-0.7,0.6-1.6,0.3-2.2c-0.2-0.5-0.5-0.5-0.6,0
		c-0.2,1.1-1.5,1.4-2.4,0.5c-0.5-0.5-0.5-1-0.2-1.7c0.2-0.5,0.2-0.5,0.1-0.7C240.5,97.1,241,96.3,241.5,96.3L241.5,96.3z
		 M213.2,97.1v0.7l0.9,0l0-0.7H213.2z M241.6,97.2c-0.3,0-0.3,0.3,0,0.6c0.2,0.2,0.3,0.3,0,0.5c-0.4,0.4-0.5,0.9-0.2,1.3
		c0.4,0.6,1.3,0.3,1.2-0.5c-0.1-0.5,0.3-0.7,1-0.6c0.9,0.3,1.4,1.3,1,2.4c-0.1,0.2-0.2,0.7-0.2,0.7l0.3,0.2c0,0,0.3-0.5,0.5-0.7
		c1.1-1.3,3.6-0.6,3.3,1c0,0.5,0,0.6-0.6,0.4c-0.4-0.2-0.7,0.2-0.7,0.7c0,0.4,0.4,0.8,0.9,0.7c0.4-0.1,0.5-0.1,0.5,0.5
		c0,0.4,0.2,0.7,0.5,0.8c0.6,0.3,1-0.1,0.5-0.6c-0.3-0.3-0.3-0.8-0.1-1.3c0.2-0.6,0.1-1.8-0.2-2.5c-0.5-1-1.9-1.4-3.1-0.9
		c-0.5,0.3-0.6,0.4-0.7-0.2c-0.3-1.3-1.3-2.2-2.4-2.3C242.4,97.5,241.9,97.2,241.6,97.2L241.6,97.2z M213.2,98.5v0.7h0.9v-0.7H213.2
		z M213.2,99.8v0.7h0.9v-0.7H213.2z M213.2,101.2v0.7c0,0,0.5,0,0.9,0v-0.7H213.2z M242.3,102.3l1,1.4l1.1,0.1l0.1,1.2l1.6,1
		l-1.4,0.9l0,1.1l-1.4,0.1l-1.2,1.6l-1-1.4l-1,0l-0.2-1.2l-1.8-0.9l1.8-1.1l0-1.3l1.3,0L242.3,102.3z M213.2,102.5v0.7h0.9v-0.7
		H213.2z M213.2,103.9v0.7h0.9v-0.7H213.2z M241.7,104.4l-1.4,1.9l1.9,1.6l1.5-1.9L241.7,104.4z M213.2,105.2v0.8h0.9v-0.8H213.2z
		 M241.8,105.3l1,0.8l-0.7,0.9l-1-0.7L241.8,105.3z M213.2,106.7v0.7h0.9v-0.7H213.2z M186.7,106.8c-1.7,0-3.3,2.8-3.7,4.1
		c-0.5,1.7-0.5,4.7-0.1,4.8c1.5-1.1,2.3-3,3.4-4.4c0.2,1.6,0.2,4.8,0.2,4.8s-0.7,0.4-1.1,0.9c-0.3,0.5-0.4,1-0.1,1.6
		c-0.9-0.3-2.4,0-2.5,1.6c0.1,2.2,2.5,1.9,2.5,1.9c-0.1,0-0.5,2.4,1.7,2.6c0.8,0.1,2.1-0.5,1.7-2.6c1.4,0.2,2.5-0.5,2.5-1.8
		c0-0.9-0.7-1.7-1.8-1.7c-0.2,0-0.8,0.1-0.8,0.1c0-0.1,0.5-1.5-1.1-2.5l-0.2-6.4c0,0,0.5,0.6,0.8,0.8c1,1,1.7,1.5,2.9,2.1
		c1.2,0.6,1,0.5,0.8-0.7c-0.6-1.8-1.7-3.1-4.2-4.8C187.3,106.8,187,106.8,186.7,106.8L186.7,106.8z M186.9,106.9l0.3,9.1l-0.5,0
		l-0.4-9.1L186.9,106.9z M237.4,107.2c0,0,0.1,0,0.1,0c1.1,0.1,1.4,1.3,0.9,1.9c-0.2,0.2-0.3,0.3-0.2,0.4c0.5,0.6,0.2,1.6-0.3,1.7
		c-1.5,0.5-1.7-0.4-1.7-1.3l-2.3-0.1l0-1.3l2.6,0.1C236.3,107.9,236.7,107.2,237.4,107.2L237.4,107.2z M185.8,107.2
		C185.8,107.2,185.8,107.2,185.8,107.2c0.3,0,0,0.7-0.6,1.6c-0.5,0.7-1.1,1.8-1.3,2.3c-0.4,1-0.7,2.9-0.4,2.5
		c0.2-0.8,0.3-1.1,0.5-1.6c0.3-0.7,1.6-3.1,1.9-3.3c0.2-0.2,0.3-0.1,0.3,0.6c0,1.5-0.7,3.1-2.4,4.9c-0.3,0.3-0.7,0.6-0.7,0.6
		c-0.2,0-0.2-0.3-0.2-1.1c0-2.8,1.1-5.4,2.7-6.5C185.6,107.3,185.7,107.2,185.8,107.2L185.8,107.2z M187.5,107.3
		c0.7,0.2,2.1,1.4,2.6,2c0.6,0.7,1.5,2.6,1.3,2.9c-0.1,0.1-0.2,0.1-0.5-0.1c-2.4-1.3-4.1-3-3.6-3.5c0.1-0.1,0.6,0.2,1.3,0.8
		c0.5,0.4,0.9,0.8,1.4,1.2c0.7,0.7,0.8,0.8,0.4,0c-0.4-0.7-1.4-1.8-2.6-2.7C187.3,107.6,187.2,107.3,187.5,107.3L187.5,107.3z
		 M237.5,107.7C237.5,107.7,237.4,107.7,237.5,107.7c-0.5,0.2-0.4,0.8-0.4,1.3l-2.6-0.1l0,0.4l2.4,0.1c0,0.4-0.1,1.1,0.2,1.3
		c0.7,0.3,1-0.6,0.5-1.1c-0.2-0.2-0.4-0.3,0.1-0.5c0.4-0.3,0.4-0.9,0.1-1.2C237.7,107.8,237.6,107.7,237.5,107.7L237.5,107.7z
		 M205,107.8l-0.1,1l-1.5,0.4l0-1L205,107.8z M222.6,108.2c5.5,1.5,11.6,4.8,15.6,8.6l-0.8,0.5c-4.1-3.8-9.6-6.7-14.6-8.1
		L222.6,108.2z M213.1,108.3c9.1,0,17.3,3.5,24,9.2l-1.1,0.7c-6.1-5-12.8-8.4-21.9-8.8c-5.9-0.3-12.7,1.3-19.3,4.9l-0.5-0.9
		C200.8,109.9,207.1,108.3,213.1,108.3L213.1,108.3z M212.4,109.7l3.6,0.1l-0.2,3.3l-3.2-0.1L212.4,109.7z M208.6,109.9l0.5,3.2
		l-3.1,0.6l-0.9-3.2L208.6,109.9z M219.8,110.3l3.5,0.9l-1.2,3.3l-3.1-0.9L219.8,110.3z M214.2,110.4c-0.6,0-1,0.5-1,1
		c0,0.6,0.5,1,1,1c0.6,0,1-0.5,1-1C215.2,110.8,214.7,110.4,214.2,110.4L214.2,110.4z M214.2,110.7c0.4,0,0.7,0.3,0.7,0.7
		c0,0.4-0.3,0.7-0.7,0.7c-0.4,0-0.7-0.3-0.7-0.7C213.5,111,213.8,110.7,214.2,110.7L214.2,110.7z M207.1,110.7c-0.6,0-1,0.5-1,1
		c0,0.6,0.5,1,1,1c0.6,0,1-0.5,1-1C208.2,111.2,207.7,110.7,207.1,110.7L207.1,110.7z M207.1,111.1c0.4,0,0.7,0.3,0.7,0.7
		s-0.3,0.7-0.7,0.7c-0.4,0-0.7-0.3-0.7-0.7S206.8,111.1,207.1,111.1L207.1,111.1z M221.2,111.5c-0.6,0-1,0.5-1,1c0,0.6,0.5,1,1,1
		c0.6,0,1-0.5,1-1C222.2,112,221.7,111.5,221.2,111.5L221.2,111.5z M201.4,111.6l1.1,3.1l-3,1.2l-1.1-3.1L201.4,111.6z M221.2,111.8
		c0.4,0,0.7,0.3,0.7,0.7c0,0.4-0.3,0.7-0.7,0.7c-0.4,0-0.7-0.3-0.7-0.7C220.5,112.1,220.8,111.8,221.2,111.8L221.2,111.8z
		 M227,112.6l3.2,1.7l-1.6,3l-3-1.5L227,112.6z M200.4,112.9c-0.6,0-1,0.5-1,1c0,0.6,0.5,1,1,1c0.6,0,1-0.5,1-1
		C201.4,113.3,200.9,112.9,200.4,112.9L200.4,112.9z M212.4,113l0.1,3.1l-2.8,0.2l-0.5-3.1L212.4,113z M215.8,113.1l3.2,0.4l-0.8,3
		l-2.9-0.5L215.8,113.1z M200.4,113.2c0.4,0,0.7,0.3,0.7,0.7c0,0.4-0.3,0.7-0.7,0.7c-0.4,0-0.7-0.3-0.7-0.7
		C199.7,113.5,200,113.2,200.4,113.2L200.4,113.2z M210.9,113.6c-0.6,0-1,0.5-1,1c0,0.6,0.5,1,1,1s1-0.5,1-1
		C211.9,114.1,211.5,113.6,210.9,113.6L210.9,113.6z M205.8,113.7l0.8,3.1l-3.1,0.9l-1-2.9L205.8,113.7z M217,113.8
		c-0.6,0-1,0.5-1,1c0,0.6,0.5,1,1,1c0.6,0,1-0.5,1-1C218,114.3,217.6,113.8,217,113.8L217,113.8z M210.9,114c0.4,0,0.7,0.3,0.7,0.7
		c0,0.4-0.3,0.7-0.7,0.7c-0.4,0-0.7-0.3-0.7-0.7C210.2,114.3,210.5,114,210.9,114L210.9,114z M217,114.1c0.4,0,0.7,0.3,0.7,0.7
		s-0.3,0.7-0.7,0.7c-0.4,0-0.7-0.3-0.7-0.7S216.6,114.1,217,114.1L217,114.1z M227.9,114.2c-0.6,0-1,0.5-1,1c0,0.6,0.5,1,1,1
		c0.6,0,1-0.5,1-1C228.9,114.6,228.5,114.2,227.9,114.2L227.9,114.2z M222.4,114.5l3.1,1.1l-1.2,2.9l-3-1.1L222.4,114.5z
		 M227.9,114.5c0.4,0,0.7,0.3,0.7,0.7c0,0.4-0.3,0.7-0.7,0.7c-0.4,0-0.7-0.3-0.7-0.7C227.2,114.8,227.5,114.5,227.9,114.5
		L227.9,114.5z M204.5,114.6c-0.6,0-1,0.5-1,1c0,0.6,0.5,1,1,1c0.6,0,1-0.5,1-1C205.5,115.1,205.1,114.6,204.5,114.6L204.5,114.6z
		 M204.5,115c0.4,0,0.7,0.3,0.7,0.7c0,0.4-0.3,0.7-0.7,0.7c-0.4,0-0.7-0.3-0.7-0.7C203.9,115.3,204.2,115,204.5,115L204.5,115z
		 M223.4,115.6c-0.6,0-1,0.5-1,1c0,0.6,0.5,1,1,1c0.6,0,1-0.5,1-1C224.4,116,223.9,115.6,223.4,115.6L223.4,115.6z M223.4,115.9
		c0.4,0,0.7,0.3,0.7,0.7c0,0.4-0.3,0.7-0.7,0.7c-0.4,0-0.7-0.3-0.7-0.7C222.7,116.2,223,115.9,223.4,115.9L223.4,115.9z M187,116.3
		c0.8,0,1.4,0.8,1.5,1.5c0,0.6-0.7,1.3-0.7,1.3l-0.9-0.8l-0.8,0.8c-0.1,0-0.8-1-0.6-1.6C185.7,116.8,186.2,116.2,187,116.3
		L187,116.3z M233.2,116.3l2.5,2c0,0-1.1,0.7-1.3,0.8c0-0.1,0-0.2,0-0.3c0-0.6-0.5-1-1-1c-0.6,0-1,0.5-1,1c0,0.5,0.3,0.9,0.8,1
		c-0.3,0.1-0.6,0.3-0.6,0.3l-1.3-1.1L233.2,116.3z M229.3,121.6l-1.1,0.4c-6.7-4.4-15.9-6.8-26.3-2.4l-0.4-0.9
		C209.2,115.6,219.1,114.6,229.3,121.6L229.3,121.6z M228.7,117.2l2.6,1.6l-1.7,2.6l-2.6-1.6L228.7,117.2z M227.9,122.2l-1.1,0.4
		c-8.2-5.3-16.9-5-24.7-1.8l-0.1-0.7C211.1,116.1,220.3,117.4,227.9,122.2L227.9,122.2z M233.3,118.1c0.4,0,0.7,0.3,0.7,0.7
		c0,0.4-0.3,0.7-0.7,0.7c-0.4,0-0.7-0.3-0.7-0.7C232.7,118.4,233,118.1,233.3,118.1L233.3,118.1z M185.8,119.3l-0.9,0.9l0.8,0.9
		c0,0-0.3,0.2-0.5,0.3c-1.1,0.6-2.3-0.3-2.2-1.4C183.1,118.7,184.9,118,185.8,119.3L185.8,119.3z M229,118.6c-0.6,0-1,0.5-1,1
		c0,0.6,0.5,1,1,1c0.6,0,1-0.5,1-1C230.1,119.1,229.6,118.6,229,118.6L229,118.6z M189.5,118.7c0.8,0,1.4,0.6,1.5,1.3
		c0.1,0.6-0.2,1.1-0.9,1.5c-0.9,0.5-1.9-0.3-1.9-0.4l0.7-0.7l-0.9-0.9C188.1,119.5,188.7,118.6,189.5,118.7L189.5,118.7z
		 M186.9,118.8l1.5,1.5l-1.6,1.5l-1.5-1.5L186.9,118.8z M226.4,122.8l-0.8,0.4l-1.1-0.7l-0.3,0.7l0.6,0.4l-0.7,0.2
		c-7.6-4.3-16.3-3-22-0.2c0,0,0-0.4,0.1-0.4l0.6-0.3l-0.2-0.8l-0.3,0.1l0-0.9C210.3,117.6,219.6,118.4,226.4,122.8L226.4,122.8z
		 M229,119c0.4,0,0.7,0.3,0.7,0.7c0,0.4-0.3,0.7-0.7,0.7c-0.4,0-0.7-0.3-0.7-0.7C228.4,119.3,228.7,119,229,119L229,119z
		 M186.9,119.5l-0.8,0.8l0.8,0.8l0.8-0.8L186.9,119.5z M211.9,119.7l-1,0l0.1,0.9l1,0L211.9,119.7z M212.6,119.7l0,0.9l0.9,0l0-0.8
		L212.6,119.7z M214.3,119.7l0,0.9l0.9,0l0.1-0.8L214.3,119.7z M210.2,119.8l-1.1,0.1l0.1,0.9l1-0.1L210.2,119.8z M216.1,119.8
		l-0.1,0.9l1,0.1l0.1-0.8L216.1,119.8z M186.9,119.8l0.5,0.5l-0.5,0.5l-0.5-0.5L186.9,119.8z M208.4,120.1l-1,0.2l0.1,0.9l1-0.2
		L208.4,120.1z M217.8,120.1l-0.2,0.8l1,0.2l0.2-0.8L217.8,120.1z M206.7,120.4l-0.9,0.2l0.2,0.9l0.9-0.2L206.7,120.4z M219.5,120.5
		l-0.2,0.8l1,0.3l0.2-0.8L219.5,120.5z M205.3,120.9l-0.9,0.3l0.2,0.8l0.9-0.3L205.3,120.9z M221.1,121l-0.3,0.8l0.8,0.3l0.4-0.7
		L221.1,121z M203.8,121.4l-0.9,0.4l0.4,0.8l0.8-0.4L203.8,121.4z M186,121.5l0.9,0.9l1-0.9c0.9,0.8,0.9,2.7-0.7,3
		C185.8,124.7,184.5,122.6,186,121.5L186,121.5z M222.7,121.6l-0.3,0.7l0.9,0.4l0.3-0.7L222.7,121.6z M195.9,126.3l11.8,20.1l-1.9,0
		L194.4,127L195.9,126.3z M194,127.1l0.7,1c-1.3-1-3.2-0.2-3.1,1.1c0.1,0.6,0.5,0.9,0.6,0.4c-0.1-0.6,0.8-1.1,1.4-1.1
		c1.1,0,1.8,1.4,1,2.1c-0.5,0.5-1.2,0.4-0.9-0.2c0-0.2,0-0.3-0.1-0.4c-0.3-0.3-0.9,0.1-0.8,0.5c0.1,0.3,0.1,0.3-0.2,0.6
		c-1.3,0.9-0.4,2.6,1.1,1.8c0.3-0.1,0.4-0.1,0.6-0.1c0.6,0.2,1.1-0.3,0.5-0.6c-0.3-0.2-0.4-0.5,0-0.7c0.7-0.5,1.8,0.3,1.8,1.2
		c0,0.7-0.9,1.2-1.8,1c-0.5-0.1-0.6,0.2-0.1,0.6c0.9,0.7,2.3,0.1,2.7-1.1c0.1-0.4,0.1-0.5,0.1-0.5l1.2,2c0,0-0.4-0.2-0.6-0.2
		c-1.1-0.3-2.4,0.4-2.4,1.4c0,0.5,0.3,0.7,0.4,0.3c0.4-0.9,1.2-1.2,2-0.8c0.8,0.3,1.1,1.1,0.8,1.8c-0.3,0.7-1.3,0.9-1.2,0.3
		c0.1-0.3-0.1-0.5-0.5-0.5c-0.1,0-0.3,0.4-0.3,0.6c0,0.2,0,0.2-0.4,0.6c-1.1,0.8-0.2,2.2,1.1,1.8c0.2-0.1,0.3-0.1,0.5,0
		c0.5,0.2,1,0.1,1-0.3c0-0.3-0.1-0.3-0.4-0.4c-0.5,0-0.4-0.5,0.1-0.8c1.3-0.6,2.5,1,1.8,2.2c-0.3,0.5-0.5,0.6-1.7,0.5
		c-0.2,0-0.3,0.1-0.2,0.3c0.3,0.5,1.4,0.6,2,0.4c0.6-0.3,1-1,1.1-1.8l1.3,2.3c-1-1.1-2.8-0.7-3.1,0.9c0,0.4,0.4,0.6,0.5,0.3
		c0.5-1.4,2.6-1,2.6,0.5c0,0.2,0,0.4-0.2,0.6c-0.4,0.7-1.3,0.9-1.2,0.3c0.1-0.2-0.1-0.4-0.3-0.5c-0.3-0.1-0.4,0.2-0.4,0.5
		c0,0.3,0,0.4,0,0.4c-0.5,0.2-0.8,0.6-0.9,1.2l-9.3,0c1.1-6.4,0.8-12.2-1.3-17.7c-0.2-0.5-0.4-1.2-0.4-1.2l1.6,0
		c0.4,0.3,1.9,0.2,2.5-0.3L194,127.1z M195.6,129.6l1,1.7c-0.4-0.2-0.8-0.4-1.4-0.4C195.4,130.4,195.4,130,195.6,129.6L195.6,129.6z
		 M193,131.5c0.3,0,0.6,0.3,0.6,0.6c0,0.3-0.3,0.6-0.6,0.6c-0.4,0-0.6-0.3-0.6-0.6C192.4,131.7,192.7,131.5,193,131.5L193,131.5z
		 M199.6,136.6l0.9,1.6c-0.4-0.2-0.8-0.4-1.5-0.4C199.3,137.6,199.5,137.1,199.6,136.6L199.6,136.6z M197,138.4
		c0.3,0,0.6,0.3,0.6,0.6c0,0.3-0.3,0.6-0.6,0.6c-0.3,0-0.6-0.3-0.6-0.6C196.4,138.6,196.6,138.4,197,138.4L197,138.4z M203.7,143.5
		l1.4,2.4c-0.5-0.3-1.1-0.7-1.8-0.6C203.5,144.5,203.7,144.1,203.7,143.5L203.7,143.5z M201.9,146.5l-1.5,0
		C200.7,145.2,201.9,145.6,201.9,146.5L201.9,146.5z M203.2,145.9c0.5,0,0.9,0.2,1.2,0.6l-1.8,0
		C202.6,146.5,202.6,145.9,203.2,145.9L203.2,145.9z M203.2,145.9"/>
	<g>
		<defs>
			<rect id="SVGID_1_" x="149.4" y="3.1" width="134.8" height="174.4"/>
		</defs>
		<clipPath id="SVGID_10_">
			<use xlink:href="#SVGID_1_"  overflow="visible"/>
		</clipPath>
		<path clip-path="url(#SVGID_10_)" fill="none" stroke="#000000" stroke-width="0.2" d="M167.5,19.1V3.5 M165.3,21.3h-15.6
			 M266.2,19.1V3.5 M268.4,21.3H284 M167.5,161.1v15.6 M165.3,158.9h-15.6 M266.2,161.1v15.6 M268.4,158.9H284"/>
	</g>
</g>
<g>
	<g>
		<path fill="#FFFFFF" d="M18.8,21.3c-5.2-1.8-11.1-1.1-16.4,0c-1.2,0.3-0.9,1.5,0.3,1.2c4.8-1.1,10.2-1.6,14.9,0
			C18.4,22.8,19.9,21.7,18.8,21.3L18.8,21.3z"/>
	</g>
</g>
<g>
	<g>
		<path fill="#FFFFFF" d="M16.7,22.1c-3.4-2.4-7.5-1.2-11.3-0.8c-1,0.1-1.6,1.3-0.2,1.2c3.4-0.4,7-1.5,10,0.6
			C15.7,23.5,17.5,22.7,16.7,22.1L16.7,22.1z"/>
	</g>
</g>
<g>
	<g>
		<path fill="#FFFFFF" d="M24.4,18.1c1.3-4.7-0.2-9.6,0.3-14.3C25.2,0.6,17.4,2,17,4.7c-0.6,4.8,1,9.7-0.3,14.3
			C15.9,21.9,23.7,20.8,24.4,18.1L24.4,18.1z"/>
	</g>
</g>
<g>
	<g>
		<path fill="#FFFFFF" d="M62.8,17.8c1.7-5-0.2-9.9,0-15c0.1-3.2-7.6-1.6-7.7,1c-0.2,5,1.7,10.1,0,15C54.1,21.4,61.9,20.4,62.8,17.8
			L62.8,17.8z"/>
	</g>
</g>
<g>
	<g>
		<path fill="#FFFFFF" d="M102.4,18.3c0.9-5.6,0.7-11.1,0.4-16.7c-0.1-1.7-7.9-0.2-7.7,2.1c0.3,5.3,0.6,10.7-0.3,15.9
			C94.4,21.7,102.1,20.3,102.4,18.3L102.4,18.3z"/>
	</g>
</g>
<g>
	<g>
		<path fill="#FFFFFF" d="M123.5,17.3c0-4.7,0-9.3,0-14c0-4.2-7.9-3.2-7.9,0.5c0,4.7,0,9.3,0,14C115.6,22.1,123.5,21,123.5,17.3
			L123.5,17.3z"/>
	</g>
</g>
<g>
	<g>
		<path fill="#FFFFFF" d="M140.1,17.9c0-5.4-0.4-10.7-0.7-16.1c-0.2-3.4-8-1.6-7.7,2.1c0.3,4.9,0.6,9.7,0.6,14.6
			C132.3,22.6,140.2,21.3,140.1,17.9L140.1,17.9z"/>
	</g>
</g>
<g>
	<g>
		<path fill="#FFFFFF" d="M161.4,17.6c0-5.4,0.3-10.9,0.3-16.3c0-1-7.7,0-7.7,2.1c0,5.4-0.3,10.9-0.3,16.3
			C153.7,20.6,161.4,19.6,161.4,17.6L161.4,17.6z"/>
	</g>
</g>
<g>
	<g>
		<path fill="#FFFFFF" d="M171.4,16.6c0.1-4.8,0.9-9.5,0.7-14.3c-0.1-2.2-7.9-0.7-7.7,2.1c0.2,4.8-0.6,9.5-0.7,14.3
			C163.7,20.7,171.4,19.4,171.4,16.6L171.4,16.6z"/>
	</g>
</g>
<g>
	<g>
		<path fill="#FFFFFF" d="M201.1,17.9c0.9-5.1,0.1-10.2,0-15.3c0-3.6-7.8-2.1-7.8,0.8c0.1,5.1,0.9,10.2,0,15.3
			C192.8,22.1,200.6,20.9,201.1,17.9L201.1,17.9z"/>
	</g>
</g>
<g>
	<g>
		<path fill="#FFFFFF" d="M239.1,17.3c0.6-5.5,0-10.9-0.6-16.4c-0.2-1.8-8-0.2-7.7,2.1c0.6,5.2,1.3,10.4,0.7,15.6
			C231.1,20.9,238.8,19.3,239.1,17.3L239.1,17.3z"/>
	</g>
</g>
<g>
	<g>
		<path fill="#FFFFFF" d="M270.1,19.1c1.3-5.9,0.1-12-0.7-17.9c-0.3-2.5-8.1-0.8-7.7,2.1c0.8,5.5,1.9,11.3,0.7,16.8
			C261.7,22.9,269.5,21.7,270.1,19.1L270.1,19.1z"/>
	</g>
</g>
<g>
	<g>
		<path fill="#FFFFFF" d="M267.4,23.5c5.1,0,10.2,0,15.3,0c1.8,0,4-0.6,5.1-2.1c1-1.5-0.9-2.3-2.1-2.3c-5.1,0-10.2,0-15.3,0
			c-1.8,0-4,0.6-5.1,2.1C264.3,22.7,266.2,23.5,267.4,23.5L267.4,23.5z"/>
	</g>
</g>
<g>
	<g>
		<path fill="#FFFFFF" d="M268.7,160.9c4.9-0.8,9.8,0.9,14.7,1c1.8,0,4.1-0.6,5.1-2.2c1-1.6-0.8-2.4-2.1-2.5c-5.6-0.1-11-1.9-16.6-1
			c-1.5,0.2-4,0.9-4.4,2.7C265,160.8,267.6,161,268.7,160.9L268.7,160.9z"/>
	</g>
</g>
<g>
	<g>
		<path fill="#FFFFFF" d="M261.7,162c1.9,5.3,0.4,11,0.3,16.5c-0.1,3.1,7.7,1.4,7.7-1c0.1-5.8,1.6-11.9-0.3-17.5
			C268.5,157.3,260.9,159.5,261.7,162L261.7,162z"/>
	</g>
</g>
<g>
	<g>
		<path fill="#FFFFFF" d="M231.4,164.6c0,1.3,0.1,2.4,0.3,3.7c0.5,2.3,7.5,0.4,7.7-1.6c0.2-2.1,0.1-3.9-0.6-5.8
			c-0.8-2.3-7.3-0.5-7.7,1.6c-1,5-0.4,10.1-0.4,15.2c0,2,7.8,0.7,7.7-2.1c0-4.7-0.6-9.5,0.3-14.2c-2.6,0.5-5.1,1.1-7.7,1.6
			c0.6,1.6,0.9,3.1,0.7,4.8c2.6-0.5,5.1-1.1,7.7-1.6c-0.3-1.2-0.3-2.4-0.3-3.7C239.1,160.5,231.4,161.9,231.4,164.6L231.4,164.6z"/>
	</g>
</g>
<g>
	<g>
		<path fill="#FFFFFF" d="M193,164.3c0.3,0.8,0.6,1.5,0.7,2.3c2.6-0.7,5.2-1.4,7.7-2.1c-0.3-1.1-0.4-2.2-0.7-3.3
			c-0.4-1.5-7.7,0.3-7.7,2.1c-0.2,5.6,0.9,11.1,0.3,16.7c-0.1,0.8,7.5,0.1,7.7-2.1c0.5-5.6-0.6-11.1-0.3-16.7
			c-2.6,0.7-5.2,1.4-7.7,2.1c0.3,1.1,0.4,2.2,0.7,3.3c0.4,1.5,7.9-0.4,7.7-2.1c-0.1-0.9-0.3-1.5-0.7-2.3
			C200.1,160.5,192.5,163,193,164.3L193,164.3z"/>
	</g>
</g>
<g>
	<g>
		<path fill="#FFFFFF" d="M163.4,164.1c0,0.1-0.1,0.3-0.1,0.4c-0.7,3,6.8,1.1,7.7-1c0.3-0.7,0.4-1.4,0.4-2.1c-2.6,0.5-5.1,1-7.7,1.5
			c0.3,5.3-0.3,10.7-0.3,16c0,2.2,7.7,0.8,7.7-2.1c0-5.3,0.6-10.7,0.3-16c-0.1-2.4-7.5-0.7-7.7,1.5c-0.1,0.7-0.1,1.4-0.4,2.1
			c2.6-0.3,5.1-0.7,7.7-1c0-0.1,0.1-0.3,0.1-0.4C171.7,160.3,163.9,161.6,163.4,164.1L163.4,164.1z"/>
	</g>
</g>
<g>
	<g>
		<path fill="#FFFFFF" d="M153.7,164.3c0.6,4.4,0.3,8.9,0.3,13.4c0,3.6,7.8,2.2,7.8-0.8c0-4.9,0.3-9.8-0.4-14.6
			C161,159.2,153.3,161,153.7,164.3L153.7,164.3z"/>
	</g>
</g>
<g>
	<g>
		<path fill="#FFFFFF" d="M133,163.3c0.4,5.4,1.5,10.8,0.7,16.2c-0.4,2.4,7.3,1,7.7-1.2c0.9-5.8-0.2-11.4-0.6-17.1
			C140.6,159.3,132.9,160.8,133,163.3L133,163.3z"/>
	</g>
</g>
<g>
	<g>
		<path fill="#FFFFFF" d="M115.7,164.3c0.3,1.9,0.7,3.8,1,5.7c0.2,1.4,7.4-0.4,7.7-1.8c0.6-2.6,0.5-4.9-1.5-6.9
			c-1-1-7.7,0.7-7.5,2.3c0.6,5.9,0.4,11.8,0.3,17.7c0,1,7.7,0,7.7-2.1c0-5.9,0.3-11.8-0.3-17.7c-2.5,0.8-5,1.5-7.5,2.3
			c1.6,1.6,1.6,3.7,1.2,5.8c2.6-0.6,5.1-1.2,7.7-1.8c-0.3-1.9-0.7-3.8-1-5.7C123.2,160.9,115.4,162.6,115.7,164.3L115.7,164.3z"/>
	</g>
</g>
<g>
	<g>
		<path fill="#FFFFFF" d="M102.4,163c0.1-0.6,0.1-1,0.1-1.6c-2.5,0.8-5,1.6-7.5,2.4c1.3,0.8,0.6,6.6,0.6,7.9
			c-0.1,3.1-0.5,6.2-0.5,9.3c0,1.8,7.7,0.5,7.7-2.1c0-3.1,0.4-6.2,0.5-9.3c0.1-1.8,0.8-7.5-1.1-8.6c-1.8-1.1-7.4-0.2-7.5,2.4
			c0,0.2,0,0.5,0,0.7C94.2,166.5,101.8,165.3,102.4,163L102.4,163z"/>
	</g>
</g>
<g>
	<g>
		<path fill="#FFFFFF" d="M55,163.6c1.3,5.4,1,10.9,1,16.3c0,1.3,7.7,0.2,7.7-2.1c0-5.5,0.3-11-1-16.3
			C62.4,159.9,54.6,161.8,55,163.6L55,163.6z"/>
	</g>
</g>
<g>
	<g>
		<path fill="#FFFFFF" d="M18.5,165.3c-1.5-0.4-0.9-0.5-0.7,0.9c0.2,1.2,0.2,2.5,0.3,3.7c0,2.4,0,5-0.7,7.3c-0.8,2.5,7,1.4,7.7-1
			c0.8-2.8,0.8-6,0.7-8.9c0-2.3,0.1-5.2-2.5-5.9c-1.7-0.4-4.1,0.4-5.5,1.5C16.5,163.8,17,164.9,18.5,165.3L18.5,165.3z"/>
	</g>
</g>
<g>
	<g>
		<path fill="#FFFFFF" d="M19.6,156.7c-4.8,0.3-9.6-0.3-14.3-0.3c-1.8,0-4.1,0.5-5.1,2.3c-0.9,1.6,0.7,2.9,2.3,2.9
			c5.4,0,10.9,0.6,16.3,0.3C23,161.6,24.9,156.4,19.6,156.7L19.6,156.7z"/>
	</g>
</g>
</svg>
