<?xml version="1.0" encoding="utf-8"?>
<!-- Generator: Adobe Illustrator 14.0.0, SVG Export Plug-In  -->
<!DOCTYPE svg PUBLIC "-//W3C//DTD SVG 1.1//EN" "http://www.w3.org/Graphics/SVG/1.1/DTD/svg11.dtd" [
	<!ENTITY ns_flows "http://ns.adobe.com/Flows/1.0/">
]>
<svg version="1.1"
	 xmlns="http://www.w3.org/2000/svg" xmlns:xlink="http://www.w3.org/1999/xlink" xmlns:a="http://ns.adobe.com/AdobeSVGViewerExtensions/3.0/"
	 x="0px" y="0px" width="300px" height="155px" viewBox="-7.6 13.2 300 155" enable-background="new -7.6 13.2 300 155"
	 xml:space="preserve">
<defs>
</defs>
<g>
	<path fill="#FFFFFF" d="M27.2,22.2H116c2.6,0,4.7,2.1,4.7,4.7v127.8c0,2.6-2.1,4.7-4.7,4.7H27.2c-2.6,0-4.7-2.1-4.7-4.7V26.9
		C22.5,24.3,24.6,22.2,27.2,22.2L27.2,22.2z M27.2,22.2"/>
	<path fill="none" stroke="#000000" stroke-width="0.7974" d="M27.2,22.2H116c2.6,0,4.7,2.1,4.7,4.7v127.8c0,2.6-2.1,4.7-4.7,4.7
		H27.2c-2.6,0-4.7-2.1-4.7-4.7V26.9C22.5,24.3,24.6,22.2,27.2,22.2L27.2,22.2z M27.2,22.2"/>
	<path fill="#D40000" d="M61.9,47.3c4.4-4.3,7.2-8.9,10-13.4c2.4,4.9,5.9,9.2,9.6,13.4c-4,4.1-7.1,8.5-9.6,13.2
		C69.1,55.7,66.2,51.4,61.9,47.3L61.9,47.3z M61.9,47.3"/>
	<path fill="#D40000" d="M61.9,134.8c4.4-4.3,7.2-8.9,10-13.4c2.4,4.9,5.9,9.2,9.6,13.4c-4,4.1-7.1,8.5-9.6,13.2
		C69.1,143.2,66.2,138.9,61.9,134.8L61.9,134.8z M61.9,134.8"/>
	<path fill="#D40000" d="M109,131.8c1.8-1.7,3-3.6,4.1-5.5c1,2,2.4,3.8,3.9,5.5c-1.6,1.7-2.9,3.5-3.9,5.4
		C111.9,135.3,110.7,133.5,109,131.8L109,131.8z M109,131.8"/>
	<path fill="#D40000" d="M26.4,49.9c1.8-1.7,3-3.6,4.1-5.5c1,2,2.4,3.8,3.9,5.5c-1.6,1.7-2.9,3.5-3.9,5.4
		C29.3,53.3,28.1,51.6,26.4,49.9L26.4,49.9z M26.4,49.9"/>
	<path fill="#D40000" d="M26.1,42.8l0.1-0.9c0.2-2.7,0.8-3.7,4.2-6.5c1.7-1.4,2.2-2.1,2.3-2.9c0.2-1.9-1.5-2.5-2.6-2.5
		c-1.4,0-3,0.8-2.3,2.8l-1.6,0.5c-0.3-1.8,0-3.6,1.5-4.4c2-1,4.6-0.6,5.9,1c0.9,1.1,1.1,2.5,0.6,3.7c-1.4,2.9-6,4.2-6.4,7.6H33v-1.9
		h1.5v3.5L26.1,42.8z M26.1,42.8"/>
	<path fill="#D40000" d="M117.1,138.9l-0.1,0.9c-0.2,2.7-0.8,3.7-4.2,6.5c-1.7,1.4-2.2,2.1-2.3,2.9c-0.2,1.9,1.5,2.5,2.6,2.5
		c1.4,0,3-0.8,2.3-2.8l1.6-0.5c0.3,1.8,0,3.6-1.5,4.4c-2,1-4.6,0.6-5.9-1c-0.9-1.1-1.1-2.5-0.6-3.7c1.4-2.9,6-4.2,6.4-7.6h-5.1v1.9
		h-1.5v-3.5L117.1,138.9z M117.1,138.9"/>
	<g>
		<defs>
			<rect id="SVGID_5_" x="4.2" y="3.9" width="134.8" height="174.4"/>
		</defs>
		<clipPath id="SVGID_6_">
			<use xlink:href="#SVGID_5_"  overflow="visible"/>
		</clipPath>
		<path clip-path="url(#SVGID_6_)" fill="none" stroke="#000000" stroke-width="0.2" d="M22.3,19.8V4.2 M20.1,22H4.5 M120.9,19.8
			V4.2 M123.1,22h15.6 M22.3,161.9v15.6 M20.1,159.7H4.5 M120.9,161.9v15.6 M123.1,159.7h15.6"/>
	</g>
</g>
<g>
	<path fill="#FFFFFF" d="M59.4,22.2h88.9c2.6,0,4.7,2.1,4.7,4.7v127.8c0,2.6-2.1,4.7-4.7,4.7H59.4c-2.6,0-4.7-2.1-4.7-4.7V26.9
		C54.8,24.3,56.8,22.2,59.4,22.2L59.4,22.2z M59.4,22.2"/>
	<path fill="none" stroke="#000000" stroke-width="0.7974" d="M59.4,22.2h88.9c2.6,0,4.7,2.1,4.7,4.7v127.8c0,2.6-2.1,4.7-4.7,4.7
		H59.4c-2.6,0-4.7-2.1-4.7-4.7V26.9C54.8,24.3,56.8,22.2,59.4,22.2L59.4,22.2z M59.4,22.2"/>
	<path fill="#D40000" d="M69.6,47.5c4.4-4.3,7.2-8.9,10-13.4c2.4,4.9,5.9,9.2,9.6,13.4c-4,4.1-7.1,8.5-9.6,13.2
		C76.8,55.9,73.9,51.6,69.6,47.5L69.6,47.5z M69.6,47.5"/>
	<path fill="#D40000" d="M69.6,91c4.4-4.3,7.2-8.9,10-13.4c2.4,4.9,5.9,9.2,9.6,13.4c-4,4.1-7.1,8.5-9.6,13.2
		C76.8,99.4,73.9,95.1,69.6,91L69.6,91z M69.6,91"/>
	<path fill="#D40000" d="M69.6,134.4c4.4-4.3,7.2-8.9,10-13.4c2.4,4.9,5.9,9.2,9.6,13.4c-4,4.1-7.1,8.5-9.6,13.2
		C76.8,142.8,73.9,138.5,69.6,134.4L69.6,134.4z M69.6,134.4"/>
	<path fill="#D40000" d="M118.7,47.5c4.4-4.3,7.2-8.9,10-13.4c2.4,4.9,5.9,9.2,9.6,13.4c-4,4.1-7.1,8.5-9.6,13.2
		C125.9,55.9,123,51.6,118.7,47.5L118.7,47.5z M118.7,47.5"/>
	<path fill="#D40000" d="M118.7,91c4.4-4.3,7.2-8.9,10-13.4c2.4,4.9,5.9,9.2,9.6,13.4c-4,4.1-7.1,8.5-9.6,13.2
		C125.9,99.4,123,95.1,118.7,91L118.7,91z M118.7,91"/>
	<path fill="#D40000" d="M118.7,134.4c4.4-4.3,7.2-8.9,10-13.4c2.4,4.9,5.9,9.2,9.6,13.4c-4,4.1-7.1,8.5-9.6,13.2
		C125.9,142.8,123,138.5,118.7,134.4L118.7,134.4z M118.7,134.4"/>
	<path fill="#D40000" d="M141.5,131.3c1.8-1.7,3-3.6,4.1-5.5c1,2,2.4,3.8,3.9,5.5c-1.6,1.7-2.9,3.5-3.9,5.4
		C144.4,134.7,143.2,133,141.5,131.3L141.5,131.3z M141.5,131.3"/>
	<path fill="#D40000" d="M58.4,49.5c1.8-1.7,3-3.6,4.1-5.5c1,2,2.4,3.8,3.9,5.5c-1.6,1.7-2.9,3.5-3.9,5.4
		C61.3,53,60.1,51.2,58.4,49.5L58.4,49.5z M58.4,49.5"/>
	<path fill="#D40000" d="M58.4,38.1c-0.2-1.2-0.2-4.3,0-5.3c0.5-2.8,1.6-4.1,3.4-4.5c1.8-0.4,4.3,0,4.9,2.4l-1.5,0
		c-0.8-1.6-2.9-1.2-4-0.5c-0.9,0.6-1.3,2.9-1.2,3c0,0,1.7-1.3,3.1-1.2c2.9,0.3,4.1,2.8,4,5.2c-0.1,2.8-1,5.1-4.1,5.3
		C60,42.4,58.7,40.8,58.4,38.1L58.4,38.1z M65.7,37.3c0-2-0.9-3.4-2.6-3.6c-1.7-0.2-3.5,1.5-3.3,3.5c0.1,2,0.9,3.7,3,3.7
		C65,40.9,65.7,38.7,65.7,37.3L65.7,37.3z M65.7,37.3"/>
	<path fill="#D40000" d="M149.4,143.6c0.2,1.2,0.2,4.3,0,5.3c-0.5,2.8-1.6,4.1-3.4,4.5c-1.8,0.4-4.3,0-4.9-2.4l1.5,0
		c0.8,1.6,2.9,1.2,4,0.5c0.9-0.6,1.3-2.9,1.2-3c0,0-1.7,1.3-3.1,1.2c-2.9-0.3-4.1-2.8-4-5.2c0.1-2.8,1-5.1,4.1-5.3
		C147.7,139.3,149.1,140.9,149.4,143.6L149.4,143.6z M142.1,144.4c0,2,0.9,3.4,2.6,3.6c1.7,0.2,3.5-1.5,3.3-3.5
		c-0.1-2-0.9-3.7-3-3.7C142.8,140.8,142.1,143,142.1,144.4L142.1,144.4z M142.1,144.4"/>
	<g>
		<defs>
			<rect id="SVGID_4_" x="36.4" y="3.9" width="134.7" height="174.4"/>
		</defs>
		<clipPath id="SVGID_7_">
			<use xlink:href="#SVGID_4_"  overflow="visible"/>
		</clipPath>
		<path clip-path="url(#SVGID_7_)" fill="none" stroke="#000000" stroke-width="0.2" d="M54.5,19.8V4.2 M52.3,22H36.7 M153.2,19.8
			V4.2 M155.4,22H171 M54.5,161.9v15.6 M52.3,159.7H36.7 M153.2,161.9v15.6 M155.4,159.7H171"/>
	</g>
</g>
<g>
	<path fill="#FFFFFF" d="M97.7,22.2h88.9c2.6,0,4.7,2.1,4.7,4.7v127.8c0,2.6-2.1,4.7-4.7,4.7H97.7c-2.6,0-4.7-2.1-4.7-4.7V26.9
		C93,24.3,95.1,22.2,97.7,22.2L97.7,22.2z M97.7,22.2"/>
	<path fill="none" stroke="#000000" stroke-width="0.7974" d="M97.7,22.2h88.9c2.6,0,4.7,2.1,4.7,4.7v127.8c0,2.6-2.1,4.7-4.7,4.7
		H97.7c-2.6,0-4.7-2.1-4.7-4.7V26.9C93,24.3,95.1,22.2,97.7,22.2L97.7,22.2z M97.7,22.2"/>
	<path d="M96.6,42.8l0.1-0.9c0.2-2.7,0.8-3.7,4.2-6.5c1.7-1.4,2.2-2.1,2.3-2.9c0.2-1.9-1.5-2.5-2.6-2.5c-1.4,0-3,0.8-2.3,2.8
		l-1.6,0.5c-0.3-1.8,0-3.6,1.5-4.4c2-1,4.6-0.6,5.9,1c0.9,1.1,1.1,2.5,0.6,3.7c-1.4,2.9-6,4.2-6.4,7.6h5.1v-1.9h1.5v3.5L96.6,42.8z
		 M96.6,42.8"/>
	<path d="M187.6,138.9l-0.1,0.9c-0.2,2.7-0.8,3.7-4.2,6.5c-1.7,1.4-2.2,2.1-2.3,2.9c-0.2,1.9,1.5,2.5,2.6,2.5c1.4,0,3-0.8,2.3-2.8
		l1.6-0.5c0.3,1.8,0,3.6-1.5,4.4c-2,1-4.6,0.6-5.9-1c-0.9-1.1-1.1-2.5-0.6-3.7c1.4-2.9,6-4.2,6.4-7.6h-5.1v1.9h-1.5v-3.5
		L187.6,138.9z M187.6,138.9"/>
	<path d="M141.6,52.2c0-0.9-0.7-0.9-0.7-0.3c-0.1,3.3-2.8,4.9-4.8,4.5c-3.1-0.6-4.1-3.7-4.1-5.5c0.1-5.6,5.7-9.7,10.8-16.9
		c3.7,6.5,9.9,11.5,10.2,16.5c0.5,6.6-7.9,9.1-9.1,1.4c-0.1-0.5-0.7-0.8-0.7,0c0.2,2.1-0.1,3,2.3,8.2h-6.3
		C140.7,57.8,141.5,54.8,141.6,52.2L141.6,52.2z M141.6,52.2"/>
	<path d="M141.6,129.6c0,0.9-0.7,0.9-0.7,0.3c-0.1-3.3-2.8-4.9-4.8-4.5c-3.1,0.6-4.1,3.7-4.1,5.5c0.1,5.6,5.7,9.7,10.8,16.9
		c3.7-6.5,9.9-11.5,10.2-16.5c0.5-6.6-7.9-9.1-9.1-1.4c-0.1,0.5-0.7,0.8-0.7,0c0.2-2.1-0.1-3,2.3-8.2h-6.3
		C140.7,124.1,141.6,127.1,141.6,129.6L141.6,129.6z M141.6,129.6"/>
	<path d="M101.1,52.7c0-0.4-0.4-0.2-0.4-0.1c-0.5,0.9-1.3,1.1-2,0.8c-0.7-0.3-1.1-1-1.1-2c0.1-1.5,1.3-3.2,1.9-4.1
		c0.6-0.8,1.2-1.9,1.8-3.1c0.7,1.5,1.1,1.9,1.9,3.3c0.7,1.2,1.7,2.4,1.8,3.8c0,1.1-0.5,2.1-1.5,2.3c-0.6,0.1-1.1-0.2-1.5-0.9
		c-0.1-0.2-0.4-0.1-0.4,0.2c0.1,0.9,0.4,1.8,1.2,2.7h-3C100.5,54.8,101.1,53.9,101.1,52.7L101.1,52.7z M101.1,52.7"/>
	<path d="M183.7,128.9c0,0.4-0.4,0.2-0.4,0.1c-0.5-0.9-1.3-1.1-2-0.8c-0.7,0.3-1.1,1-1.1,2c0.1,1.5,1.3,3.2,1.9,4.1
		c0.6,0.8,1.2,1.9,1.8,3.1c0.7-1.5,1.1-1.9,1.9-3.3c0.7-1.2,1.7-2.4,1.8-3.8c0-1.1-0.5-2.1-1.5-2.3c-0.6-0.1-1.1,0.2-1.5,0.9
		c-0.1,0.2-0.4,0.1-0.4-0.2c0.1-0.9,0.4-1.8,1.2-2.7h-3C183,126.8,183.7,127.8,183.7,128.9L183.7,128.9z M183.7,128.9"/>
	<g>
		<defs>
			<rect id="SVGID_3_" x="74.7" y="3.9" width="134.8" height="174.4"/>
		</defs>
		<clipPath id="SVGID_8_">
			<use xlink:href="#SVGID_3_"  overflow="visible"/>
		</clipPath>
		<path clip-path="url(#SVGID_8_)" fill="none" stroke="#000000" stroke-width="0.2" d="M92.8,19.8V4.2 M90.6,22H75 M191.4,19.8V4.2
			 M193.6,22h15.6 M92.8,161.9v15.6 M90.6,159.7H75 M191.4,161.9v15.6 M193.6,159.7h15.6"/>
	</g>
</g>
<g>
	<path fill="#FFFFFF" d="M132.1,22.2H221c2.6,0,4.7,2.1,4.7,4.7v127.8c0,2.6-2.1,4.7-4.7,4.7h-88.9c-2.6,0-4.7-2.1-4.7-4.7V26.9
		C127.5,24.3,129.5,22.2,132.1,22.2L132.1,22.2z M132.1,22.2"/>
	<path fill="none" stroke="#000000" stroke-width="0.7974" d="M132.1,22.2H221c2.6,0,4.7,2.1,4.7,4.7v127.8c0,2.6-2.1,4.7-4.7,4.7
		h-88.9c-2.6,0-4.7-2.1-4.7-4.7V26.9C127.5,24.3,129.5,22.2,132.1,22.2L132.1,22.2z M132.1,22.2"/>
	<path d="M131,38.1c-0.2-1.2-0.2-4.3,0-5.3c0.5-2.8,1.6-4.1,3.4-4.5c1.8-0.4,4.3,0,4.9,2.4l-1.5,0c-0.8-1.6-2.9-1.2-4-0.5
		c-0.9,0.6-1.3,2.9-1.2,3c0,0,1.7-1.3,3.1-1.2c2.9,0.3,4.1,2.8,4,5.2c-0.1,2.8-1,5.1-4.1,5.3C132.7,42.4,131.3,40.8,131,38.1
		L131,38.1z M138.3,37.3c0-2-0.9-3.4-2.6-3.6c-1.7-0.2-3.5,1.5-3.3,3.5c0.1,2,0.9,3.7,3,3.7C137.6,40.9,138.3,38.7,138.3,37.3
		L138.3,37.3z M138.3,37.3"/>
	<path d="M222,143.6c0.2,1.2,0.2,4.3,0,5.3c-0.5,2.8-1.6,4.1-3.4,4.5c-1.8,0.4-4.3,0-4.9-2.4l1.5,0c0.8,1.6,2.9,1.2,4,0.5
		c0.9-0.6,1.3-2.9,1.2-3c0,0-1.7,1.3-3.1,1.2c-2.9-0.3-4.1-2.8-4-5.2c0.1-2.8,1-5.1,4.1-5.3C220.4,139.3,221.7,140.9,222,143.6
		L222,143.6z M214.7,144.4c0,2,0.9,3.4,2.6,3.6c1.7,0.2,3.5-1.5,3.3-3.5c-0.1-2-0.9-3.7-3-3.7C215.4,140.8,214.7,143,214.7,144.4
		L214.7,144.4z M214.7,144.4"/>
	<path d="M195.2,103.5c1.3-2.5,2.2-5.1,2.4-7.9c0.2-1-0.5-1-0.6-0.3c-1.8,6.9-11.3,5-11-1.4c0.3-5.2,5.5-6.4,8.2-4.6
		c1.1,0.6,1,0.3,0.4-0.4c-4-4.5-1.6-10.3,3.9-10.4c5.9,0.3,7.4,6.5,3.8,10.2c-0.4,0.4-1.4,1.8,0.1,0.9c3.6-2.6,8.7,0.2,8.6,4.2
		c-0.2,7.4-9.2,7.9-11.1,1.8c-0.2-0.7-0.7-1-0.6,0.1c0.3,2.1,0.8,5.3,2.4,8H195.2z M195.2,103.5"/>
	<path d="M151.4,103.5c1.3-2.5,2.2-5.1,2.4-7.9c0.2-1-0.5-1-0.6-0.3c-1.8,6.9-11.3,5-11-1.4c0.3-5.2,5.5-6.4,8.2-4.6
		c1.1,0.6,1,0.3,0.4-0.4c-4-4.5-1.6-10.3,3.9-10.4c5.9,0.3,7.4,6.5,3.8,10.2c-0.5,0.4-1.4,1.8,0.1,0.9c3.6-2.6,8.7,0.2,8.6,4.2
		c-0.2,7.4-9.2,7.9-11.1,1.8c-0.2-0.7-0.7-1-0.6,0.1c0.3,2.1,0.8,5.3,2.4,8H151.4z M151.4,103.5"/>
	<path d="M195.2,59.9c1.3-2.5,2.2-5.1,2.4-7.9c0.2-1-0.5-1-0.6-0.3c-1.8,6.9-11.3,5-11-1.4c0.3-5.2,5.5-6.4,8.2-4.6
		c1.1,0.6,1,0.3,0.4-0.4c-4-4.5-1.6-10.3,3.9-10.4c5.9,0.4,7.4,6.5,3.8,10.2c-0.4,0.4-1.4,1.8,0.1,0.9c3.6-2.6,8.7,0.2,8.6,4.2
		c-0.2,7.4-9.2,7.9-11.1,1.8c-0.2-0.7-0.7-1-0.6,0.1c0.3,2.1,0.8,5.3,2.4,8H195.2z M195.2,59.9"/>
	<path d="M151.4,59.9c1.3-2.5,2.2-5.1,2.4-7.9c0.2-1-0.5-1-0.6-0.3c-1.8,6.9-11.3,5-11-1.4c0.3-5.2,5.5-6.4,8.2-4.6
		c1.1,0.6,1,0.3,0.4-0.4c-4-4.5-1.6-10.3,3.9-10.4c5.9,0.4,7.4,6.5,3.8,10.2c-0.5,0.4-1.4,1.8,0.1,0.9c3.6-2.6,8.7,0.2,8.6,4.2
		c-0.2,7.4-9.2,7.9-11.1,1.8c-0.2-0.7-0.7-1-0.6,0.1c0.3,2.1,0.8,5.3,2.4,8H151.4z M151.4,59.9"/>
	<path d="M201.7,121.7c-1.3,2.5-2.2,5.1-2.4,7.9c-0.2,1,0.5,1,0.6,0.3c1.8-6.9,11.3-5,11,1.5c-0.3,5.2-5.5,6.4-8.2,4.6
		c-1.1-0.6-1-0.3-0.4,0.4c4,4.5,1.6,10.3-3.9,10.4c-5.9-0.3-7.4-6.5-3.8-10.2c0.4-0.4,1.4-1.8-0.1-0.9c-3.6,2.6-8.7-0.2-8.6-4.2
		c0.2-7.4,9.2-7.9,11.1-1.8c0.2,0.7,0.7,1,0.6-0.1c-0.3-2.1-0.8-5.3-2.4-8H201.7z M201.7,121.7"/>
	<path d="M157.9,121.7c-1.3,2.5-2.2,5.1-2.4,7.9c-0.2,1,0.5,1,0.6,0.3c1.8-6.9,11.3-5,11,1.5c-0.3,5.2-5.5,6.4-8.2,4.6
		c-1.1-0.6-1-0.3-0.4,0.4c4,4.5,1.6,10.3-3.9,10.4c-5.9-0.3-7.4-6.5-3.8-10.2c0.4-0.4,1.4-1.8-0.1-0.9c-3.6,2.6-8.7-0.2-8.6-4.2
		c0.2-7.4,9.2-7.9,11.1-1.8c0.2,0.7,0.7,1,0.6-0.1c-0.3-2.1-0.8-5.3-2.4-8H157.9z M157.9,121.7"/>
	<path d="M133.2,54.7c0.5-1.1,1-2.1,1.3-3.3c0.2-1.1-0.2-0.7-0.4,0c-0.3,1-1.2,1.5-2,1.5c-1.5,0-2.2-1.1-2.2-2.4
		c-0.2-1.3,1.2-2.3,2.2-2.2c0.8,0.1,1.4,0.5,1.8,0.8c0.3,0.1,0.5,0.2,0.2-0.2c-0.7-0.8-1.4-1.3-1.3-2.5c0-1.1,1-2.3,2.3-2.3
		c1.6,0,2.3,1.3,2.3,2.4c0,0.8-0.4,1.6-1.1,2.1c-0.4,0.3-0.3,0.6,0.2,0.3c0.5-0.4,1-0.6,1.6-0.6c1.5,0,2.1,1.3,2,2.5
		c-0.1,1.2-1.1,2.3-2.4,2.2c-1.2-0.1-1.8-1.1-2.1-2.1c-0.1-0.3-0.3-0.4-0.3,0.1c0.3,2.2,1.1,3.6,1.1,3.6H133.2z M133.2,54.7"/>
	<path d="M219.9,126c-0.5,1.1-1,2.1-1.3,3.3c-0.2,1.1,0.2,0.7,0.4,0c0.3-1,1.2-1.5,2-1.5c1.5,0,2.2,1.1,2.2,2.4
		c0.2,1.3-1.2,2.3-2.2,2.2c-0.8-0.1-1.4-0.5-1.8-0.8c-0.3-0.1-0.5-0.2-0.2,0.2c0.7,0.8,1.4,1.3,1.3,2.5c0,1.1-1,2.3-2.3,2.3
		c-1.6,0-2.3-1.3-2.3-2.4c0-0.8,0.4-1.6,1.1-2.1c0.4-0.3,0.3-0.6-0.2-0.3c-0.5,0.4-1,0.6-1.6,0.6c-1.5,0-2.1-1.3-2-2.5
		c0.1-1.2,1.1-2.3,2.4-2.2c1.2,0.1,1.8,1.1,2.1,2.1c0.1,0.3,0.3,0.4,0.3-0.1c-0.3-2.2-1.1-3.6-1.1-3.6H219.9z M219.9,126"/>
	<g>
		<defs>
			<rect id="SVGID_2_" x="109.1" y="3.9" width="134.8" height="174.4"/>
		</defs>
		<clipPath id="SVGID_9_">
			<use xlink:href="#SVGID_2_"  overflow="visible"/>
		</clipPath>
		<path clip-path="url(#SVGID_9_)" fill="none" stroke="#000000" stroke-width="0.2" d="M127.2,19.8V4.2 M125,22h-15.6 M225.9,19.8
			V4.2 M228.1,22h15.6 M127.2,161.9v15.6 M125,159.7h-15.6 M225.9,161.9v15.6 M228.1,159.7h15.6"/>
	</g>
</g>
<g>
	<path fill="#FFFFFF" d="M173.5,22.4h88.9c2.6,0,4.7,2.1,4.7,4.7v127.8c0,2.6-2.1,4.7-4.7,4.7h-88.9c-2.6,0-4.7-2.1-4.7-4.7V27.1
		C168.8,24.5,170.9,22.4,173.5,22.4L173.5,22.4z M173.5,22.4"/>
	<path fill="none" stroke="#000000" stroke-width="0.7974" d="M173.5,22.4h88.9c2.6,0,4.7,2.1,4.7,4.7v127.8c0,2.6-2.1,4.7-4.7,4.7
		h-88.9c-2.6,0-4.7-2.1-4.7-4.7V27.1C168.8,24.5,170.9,22.4,173.5,22.4L173.5,22.4z M173.5,22.4"/>
	<path d="M172.4,38.3c-0.2-1.2-0.2-4.3,0-5.3c0.5-2.8,1.6-4.1,3.4-4.5c1.8-0.4,4.3,0,4.9,2.4l-1.5,0c-0.8-1.6-2.9-1.2-4-0.5
		c-0.9,0.6-1.3,2.9-1.2,3c0,0,1.7-1.3,3.1-1.2c2.9,0.3,4.1,2.8,4,5.2c-0.1,2.8-1,5.1-4.1,5.3C174.1,42.6,172.7,41,172.4,38.3
		L172.4,38.3z M179.7,37.5c0-2-0.9-3.4-2.6-3.6c-1.7-0.2-3.5,1.5-3.3,3.5c0.1,2,0.9,3.7,3,3.7C179,41.1,179.7,38.9,179.7,37.5
		L179.7,37.5z M179.7,37.5"/>
	<path d="M263.4,143.8c0.2,1.2,0.2,4.3,0,5.3c-0.5,2.8-1.6,4.1-3.4,4.5c-1.8,0.4-4.3,0-4.9-2.4l1.5,0c0.8,1.6,2.9,1.2,4,0.5
		c0.9-0.6,1.3-2.9,1.2-3c0,0-1.7,1.3-3.1,1.2c-2.9-0.3-4.1-2.8-4-5.2c0.1-2.8,1-5.1,4.1-5.3C261.8,139.5,263.1,141.1,263.4,143.8
		L263.4,143.8z M256.1,144.5c0,2,0.9,3.4,2.6,3.6c1.7,0.2,3.5-1.5,3.3-3.5c-0.1-2-0.9-3.7-3-3.7C256.8,141,256.1,143.1,256.1,144.5
		L256.1,144.5z M256.1,144.5"/>
	<path d="M192.5,52.6c0-0.9-0.7-0.9-0.7-0.3c-0.1,3.3-2.8,4.9-4.8,4.5c-3.1-0.6-4.1-3.7-4.1-5.5c0.1-5.6,5.7-9.7,10.8-16.9
		c3.7,6.5,9.9,11.5,10.2,16.5c0.5,6.6-7.9,9.1-9.1,1.4c-0.1-0.5-0.7-0.8-0.7,0c0.2,2.1-0.1,3,2.3,8.2h-6.3
		C191.6,58.2,192.4,55.2,192.5,52.6L192.5,52.6z M192.5,52.6"/>
	<path d="M241.6,52.6c0-0.9-0.7-0.9-0.7-0.3c-0.1,3.3-2.8,4.9-4.8,4.5c-3.1-0.6-4.1-3.7-4.1-5.5c0.1-5.6,5.7-9.7,10.8-16.9
		C246.5,41,252.6,46,253,51c0.5,6.6-7.9,9.1-9.1,1.4c-0.1-0.5-0.7-0.8-0.7,0c0.2,2.1-0.1,3,2.3,8.2h-6.3
		C240.7,58.2,241.5,55.2,241.6,52.6L241.6,52.6z M241.6,52.6"/>
	<path d="M192.5,86c0,0.9-0.7,0.9-0.7,0.3c-0.1-3.3-2.8-4.9-4.8-4.5c-3.1,0.6-4.1,3.7-4.1,5.5c0.1,5.6,5.7,9.7,10.8,16.9
		c3.7-6.5,9.9-11.5,10.2-16.5c0.5-6.6-7.9-9.1-9.1-1.4c-0.1,0.5-0.7,0.8-0.7,0c0.2-2.1-0.1-3,2.3-8.2h-6.3
		C191.6,80.5,192.4,83.5,192.5,86L192.5,86z M192.5,86"/>
	<path d="M241.6,86c0,0.9-0.7,0.9-0.7,0.3c-0.1-3.3-2.8-4.9-4.8-4.5c-3.1,0.6-4.1,3.7-4.1,5.5c0.1,5.6,5.7,9.7,10.8,16.9
		c3.7-6.5,9.9-11.5,10.2-16.5c0.5-6.6-7.9-9.1-9.1-1.4c-0.1,0.5-0.7,0.8-0.7,0c0.2-2.1-0.1-3,2.3-8.2h-6.3
		C240.7,80.5,241.5,83.5,241.6,86L241.6,86z M241.6,86"/>
	<path d="M241.6,129.4c0,0.9-0.7,0.9-0.7,0.3c-0.1-3.3-2.8-4.9-4.8-4.5c-3.1,0.6-4.1,3.7-4.1,5.5c0.1,5.6,5.7,9.7,10.8,16.9
		c3.7-6.5,9.9-11.5,10.2-16.5c0.5-6.6-7.9-9.1-9.1-1.4c-0.1,0.5-0.7,0.8-0.7,0c0.2-2.1-0.1-3,2.3-8.2h-6.3
		C240.7,123.8,241.5,126.8,241.6,129.4L241.6,129.4z M241.6,129.4"/>
	<path d="M192.5,129.4c0,0.9-0.7,0.9-0.7,0.3c-0.1-3.3-2.8-4.9-4.8-4.5c-3.1,0.6-4.1,3.7-4.1,5.5c0.1,5.6,5.7,9.7,10.8,16.9
		c3.7-6.5,9.9-11.5,10.2-16.5c0.5-6.6-7.9-9.1-9.1-1.4c-0.1,0.5-0.7,0.8-0.7,0c0.2-2.1-0.1-3,2.3-8.2h-6.3
		C191.6,123.8,192.4,126.8,192.5,129.4L192.5,129.4z M192.5,129.4"/>
	<path d="M176.2,52.5c0-0.4-0.4-0.2-0.4-0.1c-0.5,0.9-1.3,1.1-2,0.8c-0.7-0.3-1.1-1-1.1-2c0.1-1.5,1.3-3.2,1.9-4.1
		c0.6-0.8,1.2-1.9,1.8-3.1c0.7,1.5,1.1,1.9,1.9,3.3c0.7,1.2,1.7,2.4,1.8,3.8c0,1.1-0.5,2.1-1.5,2.3c-0.6,0.1-1.1-0.2-1.5-0.9
		c-0.1-0.2-0.4-0.1-0.4,0.2c0.1,0.9,0.4,1.8,1.2,2.7h-3C175.6,54.6,176.2,53.7,176.2,52.5L176.2,52.5z M176.2,52.5"/>
	<path d="M259.3,128.5c0,0.4-0.4,0.2-0.4,0.1c-0.5-0.9-1.3-1.1-2-0.8c-0.7,0.3-1.1,1-1.1,2c0.1,1.5,1.3,3.2,1.9,4.1
		c0.5,0.8,1.2,1.9,1.8,3.1c0.7-1.5,1.1-1.9,1.9-3.3c0.7-1.2,1.7-2.4,1.8-3.8c0-1.1-0.5-2.1-1.5-2.3c-0.6-0.1-1.1,0.2-1.5,0.9
		c-0.1,0.2-0.4,0.1-0.4-0.2c0.1-0.9,0.4-1.8,1.2-2.7h-3C258.7,126.4,259.3,127.4,259.3,128.5L259.3,128.5z M259.3,128.5"/>
	<g>
		<defs>
			<rect id="SVGID_1_" x="150.5" y="4.1" width="134.8" height="174.4"/>
		</defs>
		<clipPath id="SVGID_10_">
			<use xlink:href="#SVGID_1_"  overflow="visible"/>
		</clipPath>
		<path clip-path="url(#SVGID_10_)" fill="none" stroke="#000000" stroke-width="0.2" d="M168.6,20V4.4 M166.4,22.2h-15.6 M267.2,20
			V4.4 M269.4,22.2H285 M168.6,162v15.6 M166.4,159.8h-15.6 M267.2,162v15.6 M269.4,159.8H285"/>
	</g>
</g>
<g>
	<g>
		<path fill="#FFFFFF" d="M20.3,21.8c-2.3-1.6-4.4-1.3-6.7,0.2c-0.5,0.3,0,0.6,0.4,0.6c1.5,0,2.6-0.3,4-0.9c0.4-0.2,0.6-0.6,0-0.7
			c-2.8-0.3-5.4-0.3-8,0.8c-0.6,0.2-0.9,0.8,0,0.8c1.1,0,2.2,0,3.3,0c0.6,0,2.1-0.9,0.8-1c-3.2-0.2-7,1.2-9.8-0.9
			c-0.4,0.3-0.9,0.6-1.3,0.9c1.6,0.1,2.3,0.3,3.6,0.9C6.8,22.3,7,22,7.2,21.8c-0.4,0.1-0.9,0.2-1.3,0.3c-1.2,0.3-0.9,1.1,0.2,0.8
			c0.4-0.1,0.9-0.2,1.3-0.3c0.3-0.1,1.3-0.6,0.7-0.9c-1.5-0.7-2.7-1-4.4-1.1c-0.2,0-1.8,0.5-1.3,0.9c3.3,2.3,7.2,0.9,10.8,1.1
			c0.3-0.3,0.5-0.7,0.8-1c-1.1,0-2.2,0-3.3,0c0,0.3,0,0.6,0,0.8c2.1-0.8,3.9-0.8,6-0.5c0-0.2,0-0.5,0-0.7c-0.6,0.4-1.3,0.5-2,0.4
			c0.1,0.2,0.2,0.4,0.4,0.6c1.1,0.1,2.2,0.2,3.3,0.2C19,22.9,20.7,22.1,20.3,21.8L20.3,21.8z"/>
	</g>
</g>
<g>
	<g>
		<path fill="#FFFFFF" d="M7.4,21.4c0,0.4,0.3,0.6,0.3,1c0.1,0.5,2,0.1,1.9-0.5c0-0.4-0.3-0.6-0.3-1C9.3,20.5,7.3,20.9,7.4,21.4
			L7.4,21.4z"/>
	</g>
</g>
<g>
	<g>
		<path fill="#FFFFFF" d="M54.7,18.4c0.1-0.3,0.2-0.6,0.3-1c0.1-0.4-0.4-0.5-0.6-0.5c-0.1,0-0.2,0-0.3,0c-0.4,0-1.3,0.2-1.3,0.7
			c0,0.7,0,1.3,0,2c0,0.9,1.9,0.6,1.9-0.2C54.9,14,54.4,8.6,54,3.3c-0.6,0.2-1.2,0.4-1.9,0.7c1.7,2.8,2.6,8.3,1,11.2
			c0.6-0.1,1.2-0.2,1.8-0.3c-0.3-0.5,0-1.2,0.1-1.7c0.2-0.8-1.8-0.6-1.9,0.2c-0.3,1.2-0.7,1.2,0.1,2.3c0.4,0.5,1.5,0.1,1.8-0.3
			c1.7-3.3,0.9-9.1-1-12.1c-0.4-0.6-1.9-0.1-1.9,0.7C52.4,9,53,14.3,52.7,19.6c0.6-0.1,1.3-0.1,1.9-0.2c0-0.7,0-1.3,0-2
			c-0.4,0.2-0.9,0.5-1.3,0.7c0.1,0,0.2,0,0.3,0c-0.2-0.2-0.4-0.4-0.6-0.5c-0.1,0.3-0.2,0.6-0.3,1C52.5,19.4,54.4,19.2,54.7,18.4
			L54.7,18.4z"/>
	</g>
</g>
<g>
	<g>
		<path fill="#FFFFFF" d="M50.5,18c0,0.1,0,0.2,0,0.3c0,0.2,0,0.4,0,0.6c0.1,0.4,0.4,0.7,0.8,0.9c0.8,0.4,1.7,0.4,2.6,0.3
			c1-0.1,2-0.5,2.9-1c0.5-0.3,1.5-1,1.5-1.7c0-0.1,0-0.2,0-0.3c0-0.2,0-0.4,0-0.6c-0.1-0.4-0.4-0.7-0.8-0.9
			c-0.8-0.4-1.7-0.4-2.6-0.3c-1,0.1-2,0.5-2.9,1C51.5,16.6,50.5,17.3,50.5,18L50.5,18z"/>
	</g>
</g>
<g>
	<g>
		<path fill="#FFFFFF" d="M96.5,17.1c-0.6-4.5-0.4-9.1-1-13.7c-0.4-2.6-8.1-0.9-7.7,2.1c0.6,4.5,0.4,9.1,1,13.7
			C89.2,21.9,96.9,20.1,96.5,17.1L96.5,17.1z"/>
	</g>
</g>
<g>
	<g>
		<path fill="#FFFFFF" d="M124.5,17.5c-0.2-5,0.9-10,0.3-15c-0.2-2-8-0.4-7.7,2.1c0.6,5-0.6,10-0.3,15
			C116.9,21.5,124.7,20,124.5,17.5L124.5,17.5z"/>
	</g>
</g>
<g>
	<g>
		<path fill="#FFFFFF" d="M130.9,17.1c0-4.7-0.6-9.4-0.4-14.2c0.1-2.9-7.6-1.2-7.7,1.1c-0.3,5.1,0.3,10.1,0.3,15.2
			C123.2,21.3,130.9,19.9,130.9,17.1L130.9,17.1z"/>
	</g>
</g>
<g>
	<g>
		<path fill="#FFFFFF" d="M156.9,17.5c0.4-5,0.9-10,0.3-15c-0.2-1.3-8,0.2-7.7,2.1c0.6,5,0,10-0.3,15
			C149.1,20.4,156.7,19.6,156.9,17.5L156.9,17.5z"/>
	</g>
</g>
<g>
	<g>
		<path fill="#FFFFFF" d="M172.2,17.5c-0.6-4.4-0.6-8.8,0.1-13.2c0.6-4-7.3-3.1-7.8,0.5c-0.7,4.9-0.6,9.9,0.1,14.8
			C165,23.2,172.8,21.3,172.2,17.5L172.2,17.5z"/>
	</g>
</g>
<g>
	<g>
		<path fill="#FFFFFF" d="M195.2,18.1c-0.1-4.8-0.9-9.5-1-14.3c-0.1-3.7-7.8-2.2-7.8,0.8c0.1,4.8,0.9,9.5,1,14.3
			C187.5,22.6,195.3,21.1,195.2,18.1L195.2,18.1z"/>
	</g>
</g>
<g>
	<g>
		<path fill="#FFFFFF" d="M229.2,17.5c0.3-1.3,0.4-2.7,0.7-4c-2.6,0.6-5.1,1.2-7.7,1.7c0,1.4,0,2.9,0,4.3c2.6-0.7,5.2-1.4,7.7-2.1
			c-1.5-5.6-0.7-11.3-0.7-17c0-1.2-7.7-0.1-7.7,2.1c-0.1,5.7-0.9,11.4,0.7,17c0.5,1.7,7.7-0.2,7.7-2.1c0-1.4,0-2.9,0-4.3
			c0-1.3-7.3,0.1-7.7,1.7c-0.3,1.3-0.4,2.7-0.7,4C221.2,20.6,228.8,19.3,229.2,17.5L229.2,17.5z"/>
	</g>
</g>
<g>
	<g>
		<path fill="#FFFFFF" d="M264.1,18.1c-1.1,0.8-1.1,1.5-1.2,2.8c2.6-0.7,5.2-1.4,7.7-2.1c0.3-5.4,0.3-10.9,1.3-16.3
			c0.3-1.8-7.3-0.5-7.6,1.4c-1,5.6-1.1,11.3-1.4,17c-0.1,1.1,7.5,0.2,7.7-2.1c-0.2-0.2-0.4-0.4-0.6-0.5c1.1-0.8,1.1-1.6-0.4-1.7
			C267.8,16.6,265.5,17,264.1,18.1L264.1,18.1z"/>
	</g>
</g>
<g>
	<g>
		<path fill="#FFFFFF" d="M269.3,23.5c5.2-0.9,10.7,0.4,15.9,0.5c1.8,0,3.9-0.5,5.5-1.5c1.3-0.7,1-1.5-0.4-1.5
			c-6.5-0.1-12.9-1.2-19.4-0.1c-1.3,0.2-3.8,0.7-4.6,2C265.6,24,269,23.5,269.3,23.5L269.3,23.5z"/>
	</g>
</g>
<g>
	<g>
		<path fill="#FFFFFF" d="M270.1,161.9c4.2-0.5,8.5,0,12.7,0.1c1.7,0,4-0.6,5.1-2.1c1.1-1.5-0.9-2.1-2.1-2.1
			c-4.9,0-9.7-0.5-14.6,0.1c-1.4,0.2-4,0.9-4.4,2.6C266.4,162,269.2,162,270.1,161.9L270.1,161.9z"/>
	</g>
</g>
<g>
	<g>
		<path fill="#FFFFFF" d="M263.2,164.2c1.5,5.1,0.6,10.1-0.7,15.1c-0.8,2.9,7,1.7,7.7-0.9c1.4-5.3,2.3-10.8,0.7-16.2
			C270.1,159.4,262.3,161.5,263.2,164.2L263.2,164.2z"/>
	</g>
</g>
<g>
	<g>
		<path fill="#FFFFFF" d="M221.8,164.2c1.5,4.5,0.4,9.2,0.3,13.8c-0.1,3.3,7.7,1.7,7.7-0.9c0.1-5,1.3-10.1-0.3-14.9
			C228.6,159.4,220.9,161.6,221.8,164.2L221.8,164.2z"/>
	</g>
</g>
<g>
	<g>
		<path fill="#FFFFFF" d="M187.8,163.9c0.3,5,0.3,9.9-0.7,14.8c-0.5,2.7,7.2,1.4,7.7-1.1c1-5.2,1-10.5,0.7-15.8
			C195.4,159.5,187.7,161.1,187.8,163.9L187.8,163.9z"/>
	</g>
</g>
<g>
	<g>
		<path fill="#FFFFFF" d="M164.5,164.5c0.3,1.5,0.3,2.9,0.3,4.3c2.6-0.7,5.2-1.4,7.7-2.1c-0.5-1.5-0.9-2.5-0.4-4
			C169.6,163.4,167,164,164.5,164.5c0.1,0.5,0.1,1,0.1,1.5c2.5-0.8,5-1.6,7.5-2.3c0-0.6-0.1-1.2-0.3-1.9c-0.3-1.5-7.4,0.2-7.7,1.7
			c-1,5.4,0.8,10.9,0.6,16.3c0,1.1,7.6,0.1,7.7-2.1c0.2-5.2-1.7-10.5-0.7-15.7c-2.6,0.6-5.1,1.2-7.7,1.7c0.1,0.8,0,1.8,0.7,2.4
			c1.2,1,7.6-0.5,7.5-2.3c0-0.5-0.1-1-0.1-1.5c-0.2-1.5-7.2,0.3-7.7,1.7c-0.6,1.8-0.3,2.9,0.3,4.7c0.5,1.6,7.7-0.3,7.7-2.1
			c0-1.5-0.1-2.9-0.3-4.3C171.9,160.9,164.1,162.7,164.5,164.5L164.5,164.5z"/>
	</g>
</g>
<g>
	<g>
		<path fill="#FFFFFF" d="M149.4,163.2c0,5.1-0.3,10.2-0.3,15.3c0,4,7.8,2.7,7.8-0.6c0-5.1,0.3-10.2,0.3-15.3
			C157.3,158.6,149.5,159.8,149.4,163.2L149.4,163.2z"/>
	</g>
</g>
<g>
	<g>
		<path fill="#FFFFFF" d="M123.5,163.9c0,5-0.3,10,0.3,15c0.3,2.3,8.1,0.6,7.7-2.1c-0.6-5-0.4-10-0.3-15
			C131.2,159.8,123.5,161.1,123.5,163.9L123.5,163.9z"/>
	</g>
</g>
<g>
	<g>
		<path fill="#FFFFFF" d="M116.5,164.2c0.9,4.9,0.4,9.8,0.3,14.7c0,2,7.7,0.7,7.7-2.1c0-4.9,0.6-9.8-0.3-14.7
			C123.8,159.8,116,161.7,116.5,164.2L116.5,164.2z"/>
	</g>
</g>
<g>
	<g>
		<path fill="#FFFFFF" d="M88.8,164.2c1.4,4.6,0.4,9.2,0.3,13.9c-0.1,4.3,7.8,3.3,7.9-0.5c0.1-5.2,1.2-10.4-0.4-15.5
			C95.4,158.4,87.6,160.5,88.8,164.2L88.8,164.2z"/>
	</g>
</g>
<g>
	<g>
		<path fill="#FFFFFF" d="M50.5,163.9c0.8,5.4-0.3,10.7-0.3,16.1c-0.1,3.4,7.7,1.9,7.8-0.9c0.1-5.8,1.2-11.5,0.3-17.3
			C57.8,159,50,160.8,50.5,163.9L50.5,163.9z"/>
	</g>
</g>
<g>
	<g>
		<path fill="#FFFFFF" d="M18.6,157.1c-4.7,1.1-9.9-0.4-14.6-0.5c-4.5-0.1-5.8,5.8-0.6,5.9c5.7,0.1,11.1,1.5,16.7,0.2
			C24.9,161.4,23.4,155.9,18.6,157.1L18.6,157.1z"/>
	</g>
</g>
<g>
	<g>
		<path fill="#FFFFFF" d="M21.1,4.4c1.3,5,1.3,10.4,0.3,15.4c0.6-0.1,1.3-0.3,1.9-0.4c-2.3-4.4,1-9.1,0-13.8c-0.1-0.4-2,0-1.9,0.5
			c1,4.6-2.3,9.3,0,13.8c0.2,0.4,1.8,0,1.9-0.4c1-5.1,1.1-10.5-0.2-15.6C23,3.5,21,4,21.1,4.4L21.1,4.4z"/>
	</g>
</g>
<g>
	<g>
		<path fill="#FFFFFF" d="M20.9,161.9c1.5,5.4,1,11.1,0.8,16.6c0.6-0.1,1.3-0.3,1.9-0.4c-0.2-0.3-0.3-0.6-0.3-1c0-0.6-2-0.2-1.9,0.5
			c0,0.4,0,0.7,0.3,1c0.2,0.6,1.9,0.2,1.9-0.4c0.3-5.6,0.7-11.4-0.7-16.9C22.6,160.8,20.7,161.3,20.9,161.9L20.9,161.9z"/>
	</g>
</g>
</svg>
