<?xml version="1.0" encoding="utf-8"?>
<!-- Generator: Adobe Illustrator 14.0.0, SVG Export Plug-In  -->
<!DOCTYPE svg PUBLIC "-//W3C//DTD SVG 1.1//EN" "http://www.w3.org/Graphics/SVG/1.1/DTD/svg11.dtd" [
	<!ENTITY ns_flows "http://ns.adobe.com/Flows/1.0/">
]>
<svg version="1.1"
	 xmlns="http://www.w3.org/2000/svg" xmlns:xlink="http://www.w3.org/1999/xlink" xmlns:a="http://ns.adobe.com/AdobeSVGViewerExtensions/3.0/"
	 x="0px" y="0px" width="300px" height="155px" viewBox="-7.4 14.7 300 155" enable-background="new -7.4 14.7 300 155"
	 xml:space="preserve">
<defs>
</defs>
<g>
	<path fill="#FFFFFF" d="M26.8,23.9h88.9c2.6,0,4.7,2.1,4.7,4.7v127.8c0,2.6-2.1,4.7-4.7,4.7H26.8c-2.6,0-4.7-2.1-4.7-4.7V28.6
		C22.1,26,24.2,23.9,26.8,23.9L26.8,23.9z M26.8,23.9"/>
	<path fill="none" stroke="#000000" stroke-width="0.7974" d="M26.8,23.9h88.9c2.6,0,4.7,2.1,4.7,4.7v127.8c0,2.6-2.1,4.7-4.7,4.7
		H26.8c-2.6,0-4.7-2.1-4.7-4.7V28.6C22.1,26,24.2,23.9,26.8,23.9L26.8,23.9z M26.8,23.9"/>
	<path fill="#D40000" d="M37,48.9c4.4-4.3,7.2-8.9,10-13.4c2.4,4.9,5.9,9.2,9.6,13.4c-4,4.1-7.1,8.5-9.6,13.2
		C44.2,57.3,41.3,53,37,48.9L37,48.9z M37,48.9"/>
	<path fill="#D40000" d="M37,135.5c4.4-4.3,7.2-8.9,10-13.4c2.4,4.9,5.9,9.2,9.6,13.4c-4,4.1-7.1,8.5-9.6,13.2
		C44.2,143.9,41.3,139.6,37,135.5L37,135.5z M37,135.5"/>
	<path fill="#D40000" d="M85.7,48.9c4.4-4.3,7.2-8.9,10-13.4c2.4,4.9,5.9,9.2,9.6,13.4c-4,4.1-7.1,8.5-9.6,13.2
		C92.9,57.3,90,53,85.7,48.9L85.7,48.9z M85.7,48.9"/>
	<path fill="#D40000" d="M61.4,92.6c4.4-4.3,7.2-8.9,10-13.4c2.4,4.9,5.9,9.2,9.6,13.4c-4,4.1-7.1,8.5-9.6,13.2
		C68.6,101,65.7,96.7,61.4,92.6L61.4,92.6z M61.4,92.6"/>
	<path fill="#D40000" d="M85.7,135.5c4.4-4.3,7.2-8.9,10-13.4c2.4,4.9,5.9,9.2,9.6,13.4c-4,4.1-7.1,8.5-9.6,13.2
		C92.9,143.9,90,139.6,85.7,135.5L85.7,135.5z M85.7,135.5"/>
	<path fill="#D40000" d="M108.2,133.5c1.8-1.7,3-3.6,4.1-5.5c1,2,2.4,3.8,3.9,5.5c-1.6,1.7-2.9,3.5-3.9,5.4
		C111.2,136.9,110,135.2,108.2,133.5L108.2,133.5z M108.2,133.5"/>
	<path fill="#D40000" d="M26.1,51.7c1.8-1.7,3-3.6,4.1-5.5c1,2,2.4,3.8,3.9,5.5c-1.6,1.7-2.9,3.5-3.9,5.4
		C29,55.1,27.8,53.4,26.1,51.7L26.1,51.7z M26.1,51.7"/>
	<path fill="#D40000" d="M25.7,40.4l1.4,0c0.3,0.9,0.9,1.7,1.7,2c2.3,0.5,3.8-0.7,4.3-2.2c0.6-1.8,0-4.3-1.6-5.2
		c-1.3-0.7-3.3-0.1-4.1,1.5l-1-0.6l0.5-5.9h6.5v1.4h-5.3L28,33.7c1.1-0.8,2.9-0.8,4-0.2c2.1,1,3.1,3.3,2.7,6.1
		c-0.6,2.7-1.8,4.3-4.7,4.5C26.8,44.1,25.7,41.9,25.7,40.4L25.7,40.4z M25.7,40.4"/>
	<path fill="#D40000" d="M116.7,144.6l-1.4,0c-0.3-0.9-0.9-1.7-1.7-2c-2.3-0.5-3.8,0.7-4.3,2.2c-0.6,1.8,0,4.3,1.6,5.2
		c1.3,0.7,3.3,0.1,4.1-1.5l1,0.6l-0.5,5.9h-6.5v-1.4h5.3l0.1-2.5c-1.1,0.8-2.9,0.8-4,0.2c-2.1-1-3.1-3.3-2.7-6.1
		c0.6-2.7,1.8-4.3,4.7-4.5C115.6,140.9,116.7,143.1,116.7,144.6L116.7,144.6z M116.7,144.6"/>
	<g>
		<defs>
			<rect id="SVGID_5_" x="3.7" y="5.6" width="134.8" height="174.4"/>
		</defs>
		<clipPath id="SVGID_6_">
			<use xlink:href="#SVGID_5_"  overflow="visible"/>
		</clipPath>
		<path clip-path="url(#SVGID_6_)" fill="none" stroke="#000000" stroke-width="0.2" d="M21.9,21.5V5.9 M19.7,23.7H4.1 M120.5,21.5
			V5.9 M122.7,23.7h15.6 M21.9,163.5v15.6 M19.7,161.3H4.1 M120.5,163.5v15.6 M122.7,161.3h15.6"/>
	</g>
</g>
<g>
	<path fill="#FFFFFF" d="M62.3,23.9h88.9c2.6,0,4.7,2.1,4.7,4.7v127.8c0,2.6-2.1,4.7-4.7,4.7H62.3c-2.6,0-4.7-2.1-4.7-4.7V28.6
		C57.6,26,59.7,23.9,62.3,23.9L62.3,23.9z M62.3,23.9"/>
	<path fill="none" stroke="#000000" stroke-width="0.7974" d="M62.3,23.9h88.9c2.6,0,4.7,2.1,4.7,4.7v127.8c0,2.6-2.1,4.7-4.7,4.7
		H62.3c-2.6,0-4.7-2.1-4.7-4.7V28.6C57.6,26,59.7,23.9,62.3,23.9L62.3,23.9z M62.3,23.9"/>
	<path d="M60.8,44.2V43H62l2.5-12.9h1.4L68.6,43h0.9v1.2h-3.2V43h0.9l-0.3-2h-3.3l-0.3,2h0.9v1.2H60.8z M66.6,39.6l-1.4-6.9
		l-1.3,6.9H66.6z M66.6,39.6"/>
	<path d="M152.7,140.8v1.2h-1.2l-2.5,12.9h-1.4l-2.7-12.9h-0.9v-1.2h3.2v1.2h-0.9l0.3,2h3.2l0.3-2h-0.9v-1.2H152.7z M146.9,145.4
		l1.4,6.9l1.3-6.9H146.9z M146.9,145.4"/>
	<path d="M106.2,97.5c0-0.9-0.7-0.9-0.7-0.3c-0.1,3.3-2.8,4.9-4.8,4.5c-3.1-0.6-4.1-3.7-4.1-5.5c0.1-5.6,5.7-9.7,10.8-16.9
		c3.7,6.5,9.9,11.5,10.2,16.5c0.5,6.6-7.9,9.1-9.1,1.4c-0.1-0.5-0.7-0.8-0.7,0c0.2,2.1-0.1,3,2.3,8.2h-6.3
		C105.3,103.1,106.1,100.1,106.2,97.5L106.2,97.5z M106.2,97.5"/>
	<path d="M65.3,54.6c0-0.4-0.4-0.2-0.4-0.1c-0.5,0.9-1.3,1.1-2,0.8c-0.7-0.3-1.1-1-1.1-2c0.1-1.5,1.3-3.2,1.9-4.1
		c0.5-0.8,1.2-1.9,1.8-3.1c0.7,1.5,1.1,1.9,1.9,3.3c0.7,1.2,1.7,2.4,1.8,3.8c0,1.1-0.5,2.1-1.5,2.3c-0.6,0.1-1.1-0.2-1.5-0.9
		c-0.1-0.2-0.4-0.1-0.4,0.2c0.1,0.9,0.4,1.8,1.2,2.7h-3C64.7,56.7,65.3,55.8,65.3,54.6L65.3,54.6z M65.3,54.6"/>
	<path d="M148.2,130.5c0,0.4-0.4,0.2-0.4,0.1c-0.5-0.9-1.3-1.1-2-0.8c-0.7,0.3-1.1,1-1.1,2c0.1,1.5,1.3,3.2,1.9,4.1
		c0.6,0.9,1.2,1.9,1.8,3.1c0.7-1.5,1.1-1.9,1.9-3.3c0.7-1.2,1.7-2.4,1.8-3.8c0-1.1-0.5-2.1-1.5-2.3c-0.6-0.1-1.1,0.2-1.5,0.9
		c-0.1,0.2-0.4,0.1-0.4-0.2c0.1-0.9,0.4-1.8,1.2-2.7h-3C147.6,128.4,148.2,129.4,148.2,130.5L148.2,130.5z M148.2,130.5"/>
	<g>
		<defs>
			<rect id="SVGID_4_" x="39.3" y="5.6" width="134.8" height="174.4"/>
		</defs>
		<clipPath id="SVGID_7_">
			<use xlink:href="#SVGID_4_"  overflow="visible"/>
		</clipPath>
		<path clip-path="url(#SVGID_7_)" fill="none" stroke="#000000" stroke-width="0.2" d="M57.4,21.5V5.9 M55.2,23.7H39.6 M156.1,21.5
			V5.9 M158.3,23.7h15.6 M57.4,163.5v15.6 M55.2,161.3H39.6 M156.1,163.5v15.6 M158.3,161.3h15.6"/>
	</g>
</g>
<g>
	<path fill="#FFFFFF" d="M95.7,23.7h88.9c2.6,0,4.7,2.1,4.7,4.7v127.8c0,2.6-2.1,4.7-4.7,4.7H95.7c-2.6,0-4.7-2.1-4.7-4.7V28.4
		C91,25.8,93.1,23.7,95.7,23.7L95.7,23.7z M95.7,23.7"/>
	<path fill="none" stroke="#000000" stroke-width="0.7974" d="M95.7,23.7h88.9c2.6,0,4.7,2.1,4.7,4.7v127.8c0,2.6-2.1,4.7-4.7,4.7
		H95.7c-2.6,0-4.7-2.1-4.7-4.7V28.4C91,25.8,93.1,23.7,95.7,23.7L95.7,23.7z M95.7,23.7"/>
	<path fill="#E2CF00" d="M136,148.9l10.2-18.6c0,0,2.5,0.9,5.4,1.7c-2.8,7.2-0.3,15.1,0,16.8C151.7,150.2,136,148.9,136,148.9
		L136,148.9z M107.9,117.1c-0.6-7.9-0.6-15.6,0.7-21.9c0-0.1-3.6-2.2-3.3-2.5c0.6-0.4,7.8-4.1,7.8-4.1s0.5,0.3,0.9,0.2
		c0.3,0,0.6-0.3,0.5-0.7c-0.3-0.8-0.8-2.6-0.5-4.5c0.2-1.1,0.8-2.3,1.4-3c1.4-1.6,4.5-0.8,5.4-0.8c0.6,0,2.3-6.1-0.5-7.2
		c-0.8-0.3-2.5,3.8-1.3,4.8c0.2,0.1-2.4-1.4-4.5-2.3c-0.2-0.1-1-0.7-1.2-1.6c-0.2-1,3.1-3,2.4-4.2c-0.9-1.7-3.4-4.3-4.4-3.6
		c-1,0.9-3.4,2.7-3.3,4c0.7,2.2,2.6,2.4,3.6,4.5c0.2,0.5,2.1,2.4,2.1,2.4c-0.7,1,0.4,2.9,0.5,2.6l-8.6-3.7c0,0,2,14.8-0.1,17
		c-0.2,0.2,1.8-0.6,1.9-0.5c0.6,0.8,7.6,5.2,9.6,6.8c3.5-4.9,4.8-7.1,9.4-11.4c1-0.8,3.2-2.3,4.5-4.1c1-1.5,1.4-3.1,1.3-4.4
		c-0.2-1.6-0.4-2.8-1.4-4.1c-2.3-3-6.1-5.9-6-6l1.3-1c0,0,4.6,3.8,6.5,6.6c1.3,1.9,0.7,4,1.9,4.4c0.3,0.1,2.1-0.1,2.7,0.1
		c0.1,0,13.5,9.5,11.1,10.1c-3.4,0.8-8.8,0.3-8.8,0.3c-3.8-3.8-5.7-5-8-3.8c0,0-5.8,5.1-9.2,9.1c-1.9,2.3-3.5,5.1-4.8,6.9
		c-0.5,0.7-6.7-5.2-6.6-4.5c0.9,6.4,1.4,14.2,0.7,19.5c-0.5,4.5-1.2,9.3-1.4,13.4c0,0,1-0.3,1.8,0c0.4,0.1,0.7,0.5,0.8,1
		c0.2,2-2.3,1.5-2.4,1.3c0,0,1.4,3,1.4,3s-2.2,3.8-2.1,3.6c0-0.1-2-3.4-2-3.4s1.5-2.7,1.7-3.3c0.1-0.3-2.2,1.1-2.4-1
		c-0.2-2.1,2.6-1.6,2.4-1.3C109.1,125.3,108.4,120.8,107.9,117.1L107.9,117.1z M140.1,126.6c-3.7-1.5-8.2-1-11.3-2
		c-1.3-0.6-2.8-0.8-4-0.7c-1.9,0.2-2.7,1.3-2.7,1.3l-5.9-5.5c0,0,2.1-18.7,5.2-22.5c1-1.2,4.2-1.3,4.5,2.7c0.1,1.6,4.5,4.6,9,8.7
		c5.6,5.2,12.8,10.8,13.2,11.1c0.3,0.2-6.9,6.4-7,6.6C140.7,126.8,140.8,126.9,140.1,126.6L140.1,126.6z M154.4,84.8
		c-7.1-7.2-21.8-20-21.8-20l6.9-6.7c3.6,1.1,7.4,2,11.6,2c0,0,4.6,2.1,7.1,0l6.4,5.1c0,0-2.6,13.9-4.2,18.8c0,1.9-0.8,4.4-2.7,4.5
		C155.9,88.5,154.8,86.4,154.4,84.8L154.4,84.8z M168.6,68.1c0.7-4.5,0.9-7.8,1.4-13.1c-3.3,0.9-3.2-3.4,0-2.2l-1.4-3.2l2.1-3.6
		l2,3.4l-1.7,3c3.5,0.2,2.7,3.4-0.4,2.7c0.6,5.1,1.8,10.2,1.8,15.2c1.1,8-0.7,19.5-0.9,19.4l3.4,2.4l-0.6,17.4l-5.4-2.4l-1.6,1.1
		c0.5,1,1.2,2,1.4,3.1c0,0,3.7,3.1,3.2,4c0.2,0.1-2.7,4-3.5,3.9c-1.6-0.2-3.5-2.3-4-3.8c-0.5-1.5,3.4-3,2.9-4.1
		c-0.6-1.3-2-1.9-3.3-2.3c-1.8-0.5-2.6-1.9-2.7-1.9c0,0-0.7,5.6-1.4,5.1c-2.7-1.8-0.8-7.5-0.3-7.3c0,0,1.2,0.3,2.5,0.4
		c4.9,0.5,4.5-5.5,3.6-8.4c-0.2-0.7,0.1-0.7,0.1-0.7c-0.2-0.1,0.8,0,1.6-0.3c2.4-0.7,6-3.1,6-3.1s-2-1.2-3-1.9
		c-2.9-1.7-7.2-4.8-7.2-4.8s-2.7,4.6-6,7.9c-2.4,2.4-5.2,5.4-6.8,6.3c-0.1,0-3.1,3.6-1.6,7.8c1.2,3.6,7,7.4,7,7.7l-1.1,1.1
		c-0.3,0-7.2-5.4-7.7-8.5c-0.1-0.7-1.8-0.9-3.9-2.5c-4-3-9.9-8-10.8-10c-0.2-0.4,0.3-0.3,1.3-0.3c2.4-0.1,7.7,0.1,7.7,0.1l4.8,3.9
		l3,0.2c0.2,0.2,0.3-0.8,2.9-2.7c5-3.7,11.2-13.3,11.2-13.3s6.6,4.6,6.6,4.6C168.8,81.7,167.8,74.1,168.6,68.1L168.6,68.1z
		 M144.8,35.4c0,0-6.8,12.8-10.5,18.8l-5.3-1.5c2.2-5.9,0.1-17.1-0.5-17.4L144.8,35.4z M144.8,35.4"/>
	<path fill="#131F67" d="M104.1,34.7l0.4,115.1l71.5,0l-0.2-115H104.1z M153.8,118.1c3.4-3.1,6.7-5.7,9.9-7.6
		c1.2-0.7,1.6-0.8,2.1-0.4c0.8,0.7,1.3,1.3,1,1.8c-0.1,0.1-0.2,0.3-0.2,0.3l-1.9-0.7l0.6,2.1c-1.7,0.7-1.7,2.5,0,3.5l-1.1,2.6
		l2.6-1.1c0.1,0.6,2,1.9,3.1,0l2.3,1.1l-0.8-2.9c0.8-0.7,1.2-1.9,0-3l0.6-2.3l-2.1,0.7c-0.5-0.7-0.8-0.7-1-0.9c0-0.3,0-0.9-0.4-1.5
		c-0.3-0.5-0.6-1-0.9-1.3c-0.2-0.3,0-0.3,0.8-0.8c0.4-0.2,0.7-0.4,0.7-0.4s4.2,2.1,5.9,2.9l0.1,38.6l-22.9-0.1
		c-2.6-7.7-0.7-14.3,0-17.1c-1.2-0.1-7.4-2.1-7.6-2.8C147,124.9,150.3,121.3,153.8,118.1L153.8,118.1z M109.3,129.3
		c-3-1-3,2.6-1.5,2.9c0.4,0.1,0.8,0.1,1.4-0.1c0.2,0-1.8,3-1.8,3s1.6,2.8,2.3,4l2.4-4.2l-1.5-2.9c2.4,1.2,3.7-2.4,1.1-2.9
		c-0.6-0.1-1.3,0.2-1.3,0.2l1.3-12.5c1.1,0.7,3,2.2,3,2.2c0.4,6.9,0.1,12.6,4,22.6l0,7h-13.2l-0.1-36.4l2.3,1.7
		c0,0.2-0.4,0.1-0.1,2.6C107.8,118.9,108.5,122.9,109.3,129.3L109.3,129.3z M156.7,35.8c0.1,0.2,0.1,0.4,0.2,0.7
		c0.5,1.8,2.4,3.9,3.9,4.5c0.5,0.2,0.7,0.5,0.4,0.8c-0.4,0.4-1.9-0.7-3.1-2c-1-1.2-1.7-2.2-1.9-3c-0.1-0.5-0.1-0.7-0.1-1
		C156.3,35.5,156.6,35.6,156.7,35.8L156.7,35.8z M158.6,35.6c0.2,0,0.5,0.2,0.6,0.6c0.4,1,1,1.8,1.9,2.4c0.2,0.2,0.3,0.4,0.2,0.6
		c0,0.1-0.1,0.1-0.2,0.1c-0.7,0.2-2.6-2-2.8-3.4C158.3,35.6,158.4,35.6,158.6,35.6L158.6,35.6z M160.9,35.6c0.4,0,0.6,0.8,0.3,1.2
		c-0.1,0.1-0.5-0.1-0.8-0.6C160.3,35.8,160.4,35.6,160.9,35.6L160.9,35.6z M159.7,35.6c0.1,0,0.3,0,0.4,0.1c0.1,0.8,0.8,1.4,1.3,1.9
		c0.1,0.2,0.1,0.5-0.1,0.6c-0.4,0.2-1.8-1.3-1.8-2.2C159.5,35.7,159.5,35.6,159.7,35.6L159.7,35.6z M158,36.1
		c0.5,1.5,1.6,2.8,2.6,3.4c0.7,0.5,1,0.7,0.7,1c-0.1,0.1-0.2,0.1-0.2,0.1c-1.7-0.6-3.8-3.1-3.8-4.8C157.6,35.3,157.9,35.9,158,36.1
		L158,36.1z M152.1,42.8c-0.9,0-2,0.2-2.9,0.6c-1.2,0.6-1.5,0.9-1.4,1.1c0.1,0.1,0.9-0.2,1.3-0.3c2.1-0.5,3.6-0.7,5-0.1
		c1.1,0.5,1.1,0.3,0.4-0.5C154.1,43,153.1,42.8,152.1,42.8L152.1,42.8z M159.7,43.9c0.7,0,1.4,0.2,1.7,0.5c0.2,1.1-0.3,0.6-0.8,0.4
		c-0.6-0.3-1.3-0.5-2-0.4c-0.4,0.1-0.4,0-0.2-0.1C158.8,44,159.3,43.9,159.7,43.9L159.7,43.9z M151.3,44.3c-2,0.2-2.7,1.2-4,2.2
		c-0.5,0.4-0.4,0.7,0.2,0.6c0.8-0.1,1.1-0.1,2.2,0.3c1.2,0.4,2.1,0.6,2.7,0.3c1.2-0.5,1.1-0.4-0.6,1.3c-1,0.8-0.6,0.7,0.4,0.1
		c0.7-0.6,1.2-0.9,1.4-1.2c0.1-0.2,0.1-0.7,0.2-0.7c0.5,0,0.2-0.6-0.2-0.8c-0.3-0.2-0.2-0.4,0.1-0.8c0.6-0.6,0.4-0.8-0.2-0.5
		c-0.1,0.1-0.2-0.1-0.5-0.3C152.4,44.5,151.9,44.3,151.3,44.3L151.3,44.3z M152.8,45.1c0.5,0.4,0.3,0.5-0.8,0.5
		c-0.9,0-1.7,0.1-2.7,0.4c-1.2,0.4-1.3,0.4-0.6-0.2C149.6,45,151.6,44.2,152.8,45.1L152.8,45.1z M159.1,44.7c0.5,0,0.9,0.1,1.3,0.3
		c1,0.6,1.2,1,0.1,0.7c-0.7-0.2-1.7-0.2-2.3,0c-0.7,0.2-0.8,0.3-0.7-0.1C157.5,45.1,158.2,44.8,159.1,44.7L159.1,44.7z M151.1,46.4
		c0.2,1.2,1.2,0.8,1.2,0.1l0.3,0c-0.1,1-1.5,1.8-2-0.1C150.8,46.4,151.3,46.4,151.1,46.4L151.1,46.4z M158.4,46.4l0.2,0
		c0.2,0.9,1,1.2,1.4,0.1l0.3,0C160.1,48.4,158,47.5,158.4,46.4L158.4,46.4z M150.4,46.5c0.2,0.1,0.2,0.5,0.2,0.6
		c-0.1,0.2-0.9,0-1-0.3C149.7,46.7,150.1,46.4,150.4,46.5L150.4,46.5z M161.4,46.7l0,0.3c-0.4,0.1-0.5,0.3-0.9,0.2
		c0-0.2,0-0.5,0.2-0.8C160.9,46.4,161.2,46.6,161.4,46.7L161.4,46.7z M153.2,47.1c-0.2,0.1-0.4,0.1-0.4,0.1c0-0.3-0.1-0.7,0.3-0.7
		C153.4,46.6,153.4,47,153.2,47.1L153.2,47.1z M157.9,46.6c0.1,0,0.3,0.4,0.3,0.6c0,0.3-0.9,0.2-0.9-0.1
		C157.3,46.9,157.7,46.6,157.9,46.6L157.9,46.6z M150.3,59.4c-0.6-0.3-5.5-3.3-6.8-8.5l-0.2,0.5c0.5,1.3,1.3,3.3,1.3,3.3
		c0-0.2,0.2,1.4,0.7,4c-0.3,0-0.6-0.1-0.8-0.1c-0.6-2.4-0.8-4.3-1.3-6.6l-0.2,0.7c0,0,0.7,4.2,1.1,5.8c-0.3,0-0.7-0.1-0.7-0.1
		c-0.4-1.8-0.7-3-1-4.7l-0.3,0.4c0.5,1.5,0.7,2.8,0.9,4.2c-0.3,0-0.7-0.1-1-0.3c0,0-0.5-2.5-0.6-2.6c-0.2,0.2-0.3,0.4-0.3,0.4
		c0,0,0.4,1.4,0.4,2c-0.3-0.1-0.9-0.2-1.2-0.3c-0.2,0.1-0.3,0.4-0.5,0.6c0.2,0.8,11.4,2.6,10.7,1.9c0,0.1,4.9,2.2,7.7,0.4
		c0,0,4.8,3.6,6.7,5c0,0.2,0.6,0.9,1.3,1.4l1.9,1.5c0.6,0.4,0.8,0.1,0.9-0.7c0.1-0.9,0.7-6.9,0.9-8.2c0.6-4.3,0.6-4.3-0.1-4.1
		c-1,0.3-1.9-0.1-1.9-1.1c0-0.6,0.3-1.2,1-1.4c0.2-0.1,0.4-0.1,0.7-0.1c0.1,0,0.4,0,0.4,0c0.3,0-1.2-2.9-1.2-2.9s1.5-2.7,2.2-3.7
		l1.9,3.5l-1.6,3.1c3.1-0.2,2.8,3.6-0.2,2.4c0,0,0,1.2,0,1.1c0-0.3,0-0.6,0.1-0.7c2.9,1.1,3.5-3.2,0.4-3c0.5-0.9,1.1-1.8,1.6-2.8
		l-2.3-4.2l-2.6,4.3l1.3,2.7c-0.3-0.1-0.5,0-0.8,0c-1.9,0.4-1.5,3.5,0.7,3c0.2,0,0.6-0.2,0.6-0.2l-1.4,12.6c0,0-0.1,0.1-0.7-0.3
		c-0.7-0.5-2-1.5-2.1-1.6c0.5-8-1.5-16.5-3.8-21.8c-0.1-0.4-0.1-8.4-0.1-8.4l13,0l0,37c-0.7-0.4-1.4-1-2.1-1.5
		c-0.2-0.2-0.3-0.4-0.3-0.7c-0.2,0.5-0.1,0.7-0.1,0.7l2.9,2.3l-0.1,36.4c0,0-4.6-2.4-7.5-3.5c-1.3-0.5-1.3-0.4-1.3-0.4
		c0,0,0.9,2,0.7,2.4c0.6,0.6,1.6,1.8,1.7,3c0.6,0.5,0.7,0.5,1.1,1.2l1.7-0.6l-0.4,1.8c1.8,1.3,0.1,3-0.3,2.8c0,0,0.8,1.7,1,2.5
		c-0.3,0-1.7-0.8-2.1-1c-1.1,2.1-2.8,0.3-2.8,0l-2,0.9l0.7-2.2c-1.3-0.8-2.1-1.9-0.1-3.2l-0.5-1.7l1.7,0.7c0,0,0.3-0.5,0.6-0.9
		c-0.6-2.7-4.8-2.2-6.1-4.7c0,0-0.3,3.1-0.7,4.2c-0.1,3-2.2,0-2.2-3.2c0-0.7,0.9-3.1,1.2-3.2c0.3,0,3.3,1.4,5.3,0
		c0.9-0.9,2.5-3.6,1-7.7c-0.5-1,0.9-1.1,1.4-0.8c0,0,4.3-2.3,6.3-3.4c-3.3-1.8-10.1-6.6-10.1-6.8c-0.9,1.4-1.9,2.7-3.4,4.7
		c-2.4,2.8-4.2,5.4-7.2,7.7c-4.2,3.1-5.2,6.2-4,9.8c0.5,1.6,1.4,3.2,3,3.7c0.8,0.8,4,3.9,4,3.9c-5.4,4.9-9.1,8.9-11.7,13.4
		c2.2,1.1,7.5,2.8,7.5,2.8c-2,6.5-1.1,11.7,0.2,16.9c0,0-15.3,0-23.2-0.2c-0.1,0.1-0.9,0-0.9,0c0-0.6,1.4-2.2,1.9-2
		c0.3-0.2,0.8-0.2,0.6-0.6c-1.1-0.1-2.8,1.8-2.8,2.5h-0.7c-0.1-0.1,1.2-3.2,3.8-3.4c-0.1,0,0.7-0.6,0.1-0.4
		c-3.1,0.4-4.5,3.8-4.4,3.8h-0.5c1-3.4,3.8-4.4,5.4-4.6c0,0.1,0.5,0.1,0.4-0.5c-3.5,0.6-5.2,2.1-6.1,5h-0.6c0.5-3,3.5-5.6,7-5.5
		c0.1,0.1,0.6,0.3,0.2-0.5c-3.8,0.4-5.7,1.7-7.3,5c-1.4-3.7-5.3-5.4-5.4-5.4c0,0-0.1-1,0.1-1c3.3,1.2,4.6-1.7,4.5-3.4
		c-0.1-0.9,0-1.5-0.3-2.8c-0.3-1.2-0.5-2-0.5-2.5c0-0.5,0.2-0.6,0.6-0.8c0.7-0.3,1.2-1.5,1-1.6c-0.4,0.9-1.3,1-1.8,1.6
		c-0.4,0.5-0.2,1.2,0.4,3.8c0.4,1.6-0.1,0.9-1,0.4l-0.6-0.3c0.4,0.4,0.8,0.8,1.2,1.2c0.4,0.3,0.2,0.5-0.4,0.4
		c-0.8-0.4-2.2-0.2-2.8,0.3c-0.2,0.2-0.3,0.1-0.4,0c-0.2-4.1,0.2-6.6,1.5-9.6c0.9-2.1,2.2-3.6,3.9-3.7c1.7-0.1,4.2,0.5,6.5,2
		c2.7,1.8,5.3,4.6,5.5,7.9c0,0,0.2-0.3,0.3-0.5c0.1-0.4-0.3-1.6-1-3c-0.1-1.1-0.5-2.9-0.8-4.1c0.2-0.1,0.7,0,0.8,0.1
		c0.5,2.1,0.8,3.7,1.3,6.4c0,0.3,0.4-0.4,0.4-0.6c-0.1-0.4-1.2-5.8-1.2-5.7c0-0.2,1.1,0.1,0.9,0.2c0,0,0.8,4.5,0.9,4.4l0.3-0.4
		c0,0-0.8-3.3-0.7-4c0.1-0.1,0.7,0.1,0.9,0.2c0.2,0.3,0.4,1.5,0.5,2.3c0.3,0.2,0.3-0.4,0.3-0.6c-0.2-0.3-0.4-1.5-0.3-1.6
		c0.1,0,0.8,0.2,1,0.4c0.2,0.1,0.8-0.7,0.6-0.9c-3.3-1.3-7.5-2-10.6-2.1c-0.7,0-1-0.1-2.1-0.5c-2.8-1-5.2,0-5.5,0.3
		c-3.5-2.4-7.4-5.8-10.4-7.9c-0.1-0.1-0.5-0.2-0.5-0.2c-0.5,3.7-0.8,8.1-1.3,11.5c-0.2,1.4-0.2,1.5-0.1,1.5c0.1,0,0.2,0,0.2,0
		c1-0.4,1.9-0.1,2.4,0.8c0.2,1.3-0.9,2.2-2.1,1.6c-0.4-0.2-0.5-0.2-0.3,0.3c0.4,0.8,1.4,2.9,1.4,2.9c0,0-1.4,2.8-2.1,3.6
		c-0.7-1.1-1.5-2.2-1.9-3.4c0.5-1,1.5-2.4,1.9-3.4c0,0-0.3,0-0.5,0.1c-1.8,0.8-2-0.7-2-1.3c0-1.1,1-1.4,2.5-0.9
		c-1.6-10.4-1.9-16.4-1.5-15.7c0,0-1.9-1.4-2.8-2.3l-0.1-76l22.7,0c2.3,6.2,1.7,13.7,0.3,17.6c2.5,0.4,4.9,1,7.7,2.6
		c-4.7,6.9-12.2,14.5-20.2,19.3c-0.5,0.2-2-0.7-2.1-1.7c0-0.2,0.1-0.6,0.3-0.6c0.6,0.2,1.2,0.5,1.7,0.7c0,0-0.8-2-0.4-2.3
		c0.3-0.2,0.5-0.3,0.6-0.5c0.6-0.7,0.5-1.6-0.1-2.2c-0.2-0.3-0.5-0.4-0.7-0.5c0,0,0.6-1.6,0.9-2.3l-2.2,0.7c-0.7-1-2.1-1.8-3-0.3
		c-0.2,0.4-0.1,0.3-1.5-0.3c-0.8-0.3-1.3-0.5-1.3-0.5c0.3,0.9,0.7,1.7,1,2.7c-1.5,1-1.2,2.6,0.1,3.1l-0.7,2.2c0,0,1.5-0.5,2.2-0.8
		c0,0,0.7,0.7,0.9,1.4c0.4,1.1,1.2,2,1.7,2.4c-0.8,0.6-1.3,0.8-2.2,1.3l3.3,1.3c-0.2-0.7-0.6-1.2-0.7-2.1c0-0.8-0.1-0.8-0.6-1.3
		c-0.8-0.7-0.9-1.6-1.4-2.3c-0.3-0.2-0.6-0.6-0.8-1c-0.5,0-1.6,0.6-1.8,0.4c-0.3-0.3,0.5-1.7,0.4-1.9c-0.6,0-2.2-1.3-0.3-2.7
		l-0.6-2.3c0,0,1.5,0.6,2.2,1c0.5-2.3,2.7-1.2,3.1-0.2c0,0,1.8-0.6,1.6-0.1c0,0.4-0.3,1.5-0.3,1.5c1.6,1.4,1.3,2.1,0,3
		c0,0.7,0.3,1.9,0.3,1.9s-0.9-0.4-1.5-0.6c-0.2,0.2-0.5,0.7-0.5,0.9c0.4,1.8,2.6,2.3,5.8,4.1c0.1-1.1,0.9-2.7,1-4.1
		c0.1-1,0.1-1,0.8-0.7c1.9,1.3,1.3,5,0.6,6.5c-0.4,0.9-0.5,0.8-1.2,0.6c-1.1-0.3-3-0.2-4,0.2c-1.4,0.6-2.1,3.8-2.1,4.8
		c0,0.9,0,1.9,0.5,3c0.2,0.7-0.2,1.3-0.8,1.1c-0.2,0-0.5-0.2-0.5-0.2l-6.2,3.2l1.2,0.7c0,0-0.9-0.5-0.3-0.8l5.4-2.8
		c1,0.4,0.9,0.5,1.5-0.2c0.4-0.4,0.6-0.4,1.1-0.4c3.2,0.3,4.6-0.2,5.1-1.5c0.1-0.2,0-0.2,0.4-0.4c0.6-0.2,0.9-0.7,0.9-1.2
		c0-0.3,0.2-0.4,0.4-0.6c0.5-0.5,0.6-1,0.3-1.6c-0.1-0.3-0.3-0.4-0.2-0.6c0.1-0.5-0.1-1-0.5-1.5c-0.5-0.6-0.5-0.5,0.5-1.4
		c1.9-1.8,3.7-3.3,5.5-4.9c1.3-1.1,1.2-1.1,1.7-0.5c1.9,1.9,2.6,4.9,1.7,7.6c0,0.1-0.1,0.1,0,0c0.5-0.6,0.5-3.6,0.1-4.9
		c-0.5-1.6-1.1-2.5-2.9-4.1c-1.1-1-4.2-4-4.2-4c4.5-3.9,9.3-8.7,12-13.1c-1.4-1.5-7.8-2.9-7.8-2.9c0.8-1.7,2.4-9.1-0.3-17.3l23,0.3
		l0.8,0.1c0,0,0.1,0,0.2-0.1c0.2-0.1,0.3,0.1,0.3,0.3c-0.2,0.6-1.1,2.1-1.7,2c-0.3-0.1-0.2,0.4-0.3,0.7c1-0.1,2.2-1.4,2.5-2.7
		c0.2-0.3,0.3-0.3,0.4-0.3c0.2,0.1,0.1,0.2-0.1,0.9c-0.6,1.6-1.9,3-3.5,2.9l-0.2,0.5c2,0,3.6-2,4.1-3.4c0.3-0.9,0.3-1,0.7-0.9
		c0.3,0.3,0.1,0.6,0,0.9c-1,3.3-3.9,4.2-5.3,4c0.2-0.7-0.4,0-0.1,0.4c3,0.2,5.4-2.4,5.8-4.6c0.2-0.6,0.5-0.8,0.6-0.5
		c0.1,0.2,0.1,0.5,0,0.7c-0.8,3.5-4.6,5.5-6.9,5c-0.2-0.1-1,0.2,0,0.6c4.6-0.2,6.1-2.6,7.1-4.7c1.3,1.9,2.3,3.9,5.3,5
		c0,0,0.3,0.7,0.1,0.8c-0.1,0.1-0.3,0-0.6,0c-3.7-0.6-4.9,2.8-3.3,8c0.4,1.4,0.2,1.2-0.7,2.1c-0.4,0.4-0.6,1.2-0.5,1.2
		c0.2-0.1,0.2-0.3,0.6-0.6c0.2-0.1,0.5-0.3,0.8-0.4c0.7-0.4,0.7-0.7,0.4-1.6c-0.2-0.7-0.6-2.8-0.6-3c0-0.4,0.1-0.4,0.6,0
		c0.7,0.5,1.1,0.5,0.3-0.2c-0.3-0.3-0.5-0.5-0.6-0.6c-0.1-0.2-0.1-0.3,0.2-0.2c1.3,0.4,2.4,0.4,3.6-0.4c0.1,3.4-0.3,8.5-3.2,12.2
		C156,62,151.8,60.1,150.3,59.4L150.3,59.4z M153.6,51.6c-0.1,0-0.4,0.1-0.6,0.2c-0.8,0.5-0.6,2.2,0.3,2.4c0.4,0.1,0.7,0.1,1.3-0.2
		c0.4-0.2,0.9-0.3,1-0.3c0.3,0.1,0.4-0.1,0.5-0.4c0.1-0.7-1-0.7-1.8,0c-1.1,0.9-2-0.4-0.9-1.4C153.7,51.7,153.7,51.6,153.6,51.6
		L153.6,51.6z M144.9,55.2l0.9,1.1l0.6,2.6c-0.4,0.1-0.8-0.1-0.8-0.1C145.4,57.6,145.1,56.4,144.9,55.2L144.9,55.2z M157.7,55.9
		C157.7,55.9,157.7,55.9,157.7,55.9c-0.1,0-0.2,0.1-0.5,0.1c-0.1,0-0.4-0.1-0.5-0.1c-0.4,0-0.8,0.1-0.9,0.2c-0.1,0.1-0.2,0.1-0.4,0
		c-0.3-0.2-1.2-0.1-1.5,0c-0.3,0.1-0.7,0.1-0.9,0c-0.1-0.1-0.2-0.2-0.3-0.2c0,0-0.2,0.8-0.3,1.1c0,0.1-0.1,0.3,0,0.3
		c0.1,0,0.2-0.1,0.4-0.2c0.4-0.2,0.9-0.2,1.7,0c1,0.3,1.4,0.2,2-0.1c0.5-0.2,0.8-0.3,1.1-0.2c0.1,0,0.3,0.1,0.3,0.1
		c0.1-0.1-0.1-0.4-0.2-0.7C157.8,55.9,157.8,55.9,157.7,55.9L157.7,55.9z M146.6,57c0.9,0.9,0.8,0.8,1.4,1.2l0,0.8c0,0-0.7,0-1-0.1
		C146.8,58.6,146.3,57,146.6,57L146.6,57z M154,57.6c0.1,0,0.2,0.1,0.3,0.1c1.4,0.5-0.1,0.4-0.2,0.9c0,0,0.1,0.1,0.1,0
		c0.5-0.2,1.7-0.3,2.3-0.2c0.7,0.2,0.8,0.1,0.1-0.3c-0.5-0.2,0.1-0.3,0.3-0.5c0.4-0.3,0.1-0.4-0.4-0.1c-0.5,0.3-1.5,0.3-1.9,0
		c-0.2-0.1-0.4-0.2-0.5-0.2C153.8,57.3,153.9,57.5,154,57.6L154,57.6z M148.3,58.5l0.8,0.7l-0.9-0.1L148.3,58.5z M129.3,75.1
		c-0.2,0-0.3,0.1-0.3,0.3c0,0.2,0.1,0.3,0.3,0.3s0.3-0.1,0.3-0.3C129.6,75.2,129.4,75.1,129.3,75.1L129.3,75.1z M130.4,75.4
		l-3.9,1.8l1,0.3l0,1.1l0.9-0.3l0.4,1L130.4,75.4z M130.5,76.2c-0.2,0-0.3,0.1-0.3,0.3c0,0.2,0.1,0.3,0.3,0.3c0.2,0,0.3-0.1,0.3-0.3
		C130.9,76.4,130.7,76.2,130.5,76.2L130.5,76.2z M125.6,78.1c-0.2,0-0.3,0.1-0.3,0.3s0.1,0.3,0.3,0.3c0.2,0,0.3-0.1,0.3-0.3
		S125.8,78.1,125.6,78.1L125.6,78.1z M126.8,78.7l-4.3,2l1.3,0.4l-0.3,1.3l1-0.4l0.6,0.9L126.8,78.7z M127,79.6
		c-0.2,0-0.3,0.1-0.3,0.3c0,0.2,0.1,0.3,0.3,0.3c0.2,0,0.3-0.1,0.3-0.3C127.3,79.8,127.1,79.6,127,79.6L127,79.6z M118.4,79.8
		c1.6,0,3.5,0.6,4.1,2c0.2,0.7-0.5,1.1-2,0.7c-2.4-0.7-2.9-0.7-2.5-0.3c0.1,0.1,0.2,0.2,0.5,0.3c0.9,0.3,2.7,0.7,3.2,0.6
		c0.7-0.1,1.1,0.2,0.9,0.8c-0.2,0.6-1,0.9-2.3,0.7c-1.3-0.2-2-0.3-2.5-0.5c-0.6-0.2-0.6-0.2-0.3,0.2c0.1,0.2,0.2,0.4,0.4,0.4
		c0.9,0,1.8,0.1,2.6,0.2c1.4,0.1,1.7,0.5,0.6,1.2c-0.5,0.3-2,0.2-2.8-0.1c-0.6-0.2-2-0.5-1.5-0.1c0.1,0.1,0.1,0.4,0.3,0.4
		c0.7,0.1,2.8,0.2,3.1,0.5c0.2,0.2-0.3,0.7-1.2,0.9c-1.5,0.3-3.6,0.2-4.2-0.2c-1.1-2.2-0.5-5.7,1.2-7.1
		C116.5,80.1,117.4,79.8,118.4,79.8L118.4,79.8z M127.9,81c-0.2,0-0.3,0.1-0.3,0.3c0,0.2,0.1,0.3,0.3,0.3c0.2,0,0.3-0.1,0.3-0.3
		C128.2,81.1,128.1,81,127.9,81L127.9,81z M129.2,81.3l-4.5,2.2l1.1,0.3l-0.3,1.3l1.1-0.4l0.6,0.9L129.2,81.3z M129.2,82.4
		c-0.2,0-0.3,0.1-0.3,0.3c0,0.2,0.1,0.3,0.3,0.3c0.2,0,0.3-0.1,0.3-0.3C129.6,82.5,129.4,82.4,129.2,82.4L129.2,82.4z M131.9,85
		c-2,1.9-4.2,3.5-6.3,5.3l0.4,0l1.1-1l31.4-0.1l-0.7,1.1l0.3,0.1c0,0,0.9-1.4,0.9-1.5c-6.9,0-12.2,0-19.8,0.1
		c-1.4-1.4-2.8-2.6-4.3-3.9L131.9,85z M122.3,86.3c-0.2,0-0.3,0.1-0.3,0.3c0,0.2,0.1,0.3,0.3,0.3c0.2,0,0.3-0.1,0.3-0.3
		C122.6,86.4,122.5,86.3,122.3,86.3L122.3,86.3z M163.3,86.5c2.7,2,5.9,4.5,8.6,5.9c1.1,0.5,1,0.6-0.1,1.1c-1.1,0.7-2.8,1.5-4.3,2.3
		c-0.6,0.2-0.9-0.1-1.4,0c-0.3,0.1-0.4,0.1-0.6,0.4c-0.3,0.4-0.2,0.4-1.9,0.3c-1.7-0.1-2.4,0-2.8,0.2c-0.4,0.2-1,0.8-1,1.1
		c0,0.2-0.2,0.6-0.6,0.7c-0.4,0.1-0.9,0.4-0.9,0.9c-0.1,0.4-0.3,0.6-0.6,0.8c-0.5,0.5-0.4,0.9-0.3,1.4c0.1,0.2,0.2,0.2,0.1,0.8
		c-0.1,1.4-0.2,1.3,1.3,2.3l-7.7,6.7c-0.2,0.1-0.2,0.1-0.4,0c-0.9-0.7-1.6-1.8-2-3c-1.3-3.6,0.3-6.5,2.4-8.3c0.7-0.6,1.7-1.4,2-1.5
		C157.1,95.1,160.6,90.3,163.3,86.5L163.3,86.5z M123.5,86.8l-4.4,2.1l1.4,0.2l-0.3,1.2l1-0.4l0.5,1L123.5,86.8z M123.7,87.7
		c-0.2,0-0.3,0.1-0.3,0.3c0,0.2,0.1,0.3,0.3,0.3c0.2,0,0.3-0.1,0.3-0.3C124,87.9,123.9,87.7,123.7,87.7L123.7,87.7z M163.9,89.1
		l-0.5-1.2c0,0-1.4,3.4-1.7,4.6c1.2-0.6,4.6-2.4,4.6-2.4l-1.5-0.3l0.2-1.3L163.9,89.1z M113.8,89.3c-0.2,0-0.3,0.1-0.3,0.3
		c0,0.2,0.1,0.3,0.3,0.3c0.2,0,0.3-0.1,0.3-0.3C114.1,89.4,114,89.3,113.8,89.3L113.8,89.3z M115.2,89.6c0,0-3.3,1.5-4.7,2.2
		l1.4,0.3l-0.2,1.3l1.2-0.5l0.5,1.3L115.2,89.6z M115.3,90.6c-0.2,0-0.3,0.1-0.3,0.3c0,0.2,0.1,0.3,0.3,0.3c0.2,0,0.3-0.1,0.3-0.3
		C115.6,90.7,115.5,90.6,115.3,90.6L115.3,90.6z M161.5,90.8c-0.2,0-0.3,0.1-0.3,0.3c0,0.2,0.1,0.3,0.3,0.3c0.2,0,0.3-0.1,0.3-0.3
		C161.8,91,161.6,90.8,161.5,90.8L161.5,90.8z M166.8,91.1l-1.6,4.3l4.2-2.1l-1.1-0.3l0-1.1l-0.9,0.3L166.8,91.1z M117.2,92.1
		c-0.2,0-0.3,0.1-0.3,0.3c0,0.2,0.1,0.3,0.3,0.3c0.2,0,0.3-0.1,0.3-0.3C117.5,92.3,117.4,92.1,117.2,92.1L117.2,92.1z M163.1,92.2
		c-0.2,0-0.3,0.1-0.3,0.3c0,0.2,0.1,0.3,0.3,0.3c0.2,0,0.3-0.1,0.3-0.3C163.4,92.3,163.3,92.2,163.1,92.2L163.1,92.2z M118.5,92.5
		l-4.4,2.2l1.4,0.3l-0.2,1.4l1.1-0.6L117,97L118.5,92.5z M118.8,93.4c-0.2,0-0.3,0.1-0.3,0.3c0,0.2,0.1,0.3,0.3,0.3
		c0.2,0,0.3-0.1,0.3-0.3C119.1,93.6,118.9,93.4,118.8,93.4L118.8,93.4z M165,93.7c-0.2,0-0.3,0.1-0.3,0.3s0.1,0.3,0.3,0.3
		c0.2,0,0.3-0.1,0.3-0.3S165.2,93.7,165,93.7L165,93.7z M158.9,95.1l-0.4-1.2l-1.6,4.3l4.4-2l-1.4-0.3l0-1.1L158.9,95.1z
		 M154.4,94.2C154.3,94.2,154.3,94.2,154.4,94.2c-0.1,0.1-1.2,1.2-1.2,1.2l-13.1,0.1c0,0,1.1,0.3,1.1,0.3c1.7,1.4,4.4,3.8,4.4,3.8
		l3.2-0.1c1.8-1.8,4.5-3.1,5.7-5.3C154.5,94.2,154.4,94.2,154.4,94.2L154.4,94.2z M166.6,95.1c-0.2,0-0.3,0.1-0.3,0.3
		s0.1,0.3,0.3,0.3c0.2,0,0.3-0.1,0.3-0.3S166.8,95.1,166.6,95.1L166.6,95.1z M156.6,96.6c-0.2,0-0.3,0.1-0.3,0.3
		c0,0.2,0.1,0.3,0.3,0.3c0.2,0,0.3-0.1,0.3-0.3C156.9,96.7,156.7,96.6,156.6,96.6L156.6,96.6z M163.2,97c0.9,0,1.8,0,2.1,0.2
		c1.4,1.2,0.8,6.9-1.1,7.6c-2,0.5-3.4,0.5-5.1-0.6c-0.5-0.2-1.5-1-1.3-1.6c0.3-0.7,1-0.7,3,0c0.8,0.2,1.2,0.2,1.4,0
		c0.2-0.1-0.1-0.3-0.4-0.3c-0.2,0-0.8-0.2-1.4-0.3c-0.8-0.2-1-0.3-1.5-0.3c-0.8-0.1-1.1-0.1-1.1-0.6c0-1,1.3-1.1,3.8-0.5
		c0.3,0.1,0.8,0.1,1,0.1c0.1,0-0.2-0.3-0.2-0.5c-0.1-0.1-0.2-0.1-0.7-0.1c-1.6-0.2-2.9-0.3-2.9-0.5c-0.1-1,1.9-1.3,4.1-0.5
		c0.6,0.2,0.6,0.1,0.6,0c0-0.3-0.9-0.8-2.3-0.8c-1.3,0-1.1-0.7,0-1.2C161.4,96.9,162.3,97,163.2,97L163.2,97z M158.1,98.1
		c-0.2,0-0.3,0.1-0.3,0.3c0,0.2,0.1,0.3,0.3,0.3c0.2,0,0.3-0.1,0.3-0.3C158.4,98.3,158.3,98.1,158.1,98.1L158.1,98.1z M153.3,100.3
		l-0.3-1.2l-1.8,4.5l4.5-2.3l-1.5-0.3l0.1-0.9L153.3,100.3z M151,102.1c-0.2,0-0.3,0.1-0.3,0.3c0,0.2,0.1,0.3,0.3,0.3
		s0.3-0.1,0.3-0.3C151.3,102.2,151.2,102.1,151,102.1L151,102.1z M155.5,103.3l-0.4-1.1l-1.5,3.9l3.9-1.7l-1.1-0.3l0.2-1.2
		L155.5,103.3z M152.4,103.3c-0.2,0-0.3,0.1-0.3,0.3c0,0.2,0.1,0.3,0.3,0.3s0.3-0.1,0.3-0.3C152.8,103.5,152.6,103.3,152.4,103.3
		L152.4,103.3z M153.4,104.8c-0.2,0-0.3,0.1-0.3,0.3s0.1,0.3,0.3,0.3c0.2,0,0.3-0.1,0.3-0.3S153.6,104.8,153.4,104.8L153.4,104.8z
		 M151.5,105.7l-1.3,3.7l3.6-1.8l-1.1-0.4c0,0,0.1-0.8,0-0.8c-0.1,0-0.7,0.2-0.7,0.2L151.5,105.7z M154.7,106.2
		c-0.2,0-0.3,0.1-0.3,0.3c0,0.2,0.1,0.3,0.3,0.3s0.3-0.1,0.3-0.3C155,106.3,154.9,106.2,154.7,106.2L154.7,106.2z M149.9,108
		c-0.2,0-0.3,0.1-0.3,0.3c0,0.2,0.1,0.3,0.3,0.3c0.2,0,0.3-0.1,0.3-0.3C150.2,108.1,150.1,108,149.9,108L149.9,108z M151.3,109.4
		c-0.2,0-0.3,0.1-0.3,0.3s0.1,0.3,0.3,0.3c0.2,0,0.3-0.1,0.3-0.3S151.5,109.4,151.3,109.4L151.3,109.4z M132.1,126.4
		c-0.2,0-0.6-0.4-0.7-0.6c0.2-0.1,0.5,0,0.6,0.1C132.2,126,132.3,126.3,132.1,126.4L132.1,126.4z M133.4,126.1
		c-0.1,0.5,0.2,1.3,0.2,1.5c-0.1,0.1-0.9-0.7-1-0.9c0-0.3,0-0.6,0-0.7C132.8,125.9,133.3,125.9,133.4,126.1L133.4,126.1z
		 M134.7,126.3c0.2,1,0.6,2.6,0.5,3.1c-0.1-0.1-0.6-0.6-1-1.2c-0.1-0.3-0.4-1.6-0.4-2.1C134.1,126.1,134.5,126.2,134.7,126.3
		L134.7,126.3z M126,126.2c-0.4,0.2-1,0.4-1.6,0.4c-0.5,0-1.4-0.3-1.3-0.2c0.2,0.4,0.8,0.2,0.9,0.5c-0.2,0.3-0.6,0.2-0.8,0.5
		c0,0.1,0.1,0.1,0.3,0.1c0.9-0.4,2-0.4,3,0c0.2,0,0.1-0.2,0-0.2c-0.1-0.1-0.4-0.2-0.5-0.2c-0.9-0.2-0.5-0.3,0.1-0.5
		C126.6,126.3,126.7,125.9,126,126.2L126,126.2z M127.9,127.5c-0.1,0-0.4,0.2-0.7,0.3c-0.6,0.2-1.1,0.2-1.8,0
		c-0.6-0.2-0.9-0.1-1.5,0.2c-0.4,0.3-0.9,0.3-1.2,0.2c-0.4-0.2-0.4-0.2-0.2,0.5c0.1,0.2-0.1,0.6,0.1,0.7c0.1,0.1,0.3-0.2,0.4-0.2
		c0.1,0,0.8,0.3,1.2-0.1c0.7-0.3,0.9,0.2,1.4,0.1c0.8-0.3,1.3-0.6,2,0C127.6,128.9,127.7,127.8,127.9,127.5
		C128,127.5,128,127.5,127.9,127.5L127.9,127.5z M126.5,130.7c-0.6,0-0.9,0.4-1.6,0.3c-0.6,0-0.8,0.5-0.5,0.9
		c0.2,0.3,0.4,0.3,1.2-0.1c0.3-0.1,0.8-0.5,1.1-0.5c0.8,0.1,1,0.8,0.3,1.5c-0.3,0.2-0.3,0.4-0.2,0.4c0.3,0,0.8-0.3,0.9-0.7
		C127.9,131.5,127.3,130.7,126.5,130.7L126.5,130.7z M129.1,135.2c-0.7,0.2-1.8,1-2.2,1.6c-0.3,0.5-0.7,1.1-0.4,1.4
		c0.2,0.2,0.5,0.5,0.5,0.6c0,0.1-0.1,0.2-0.3,0.4c-0.6,0.7-0.5,0.8,0.4,0.3c0.5-0.2,0.7-0.3,1-0.3c0.9,0.2,2,0.1,2.7-0.2
		c0.3-0.1,0.7-0.3,0.7-0.2c-1.4,1.5-3,1.1-3.7,1c-0.1,0-0.2,0-0.2,0c0,0.1,0.2,0.2,0.5,0.4c0.6,0.3,2.1,0,3.1-0.7
		c1.9-1.2,2.9-2.4,1.4-1.9c-0.7,0.2-0.9,0.2-1.7-0.2c-1.2-0.6-2.2-0.7-3.2-0.4c-1.3,0.4-0.3-0.6,1.1-1.5
		C129.2,135.4,129.2,135.2,129.1,135.2L129.1,135.2z M122.2,138.3l-0.4,0c-0.3-1-1-1-1.4,0l-0.4,0
		C120.4,137,121.7,136.8,122.2,138.3L122.2,138.3z M129.7,138.4l-0.3,0c-0.2-0.6-0.9-1.2-1.4-0.1l-0.2,0
		C128.2,136.6,129.8,137.5,129.7,138.4L129.7,138.4z M127.6,137.5c0.2,0,0.2,0.2,0,0.6c-0.2,0.3-0.4,0.2-0.5,0
		c-0.2-0.2-0.2-0.2,0-0.4C127.3,137.6,127.5,137.5,127.6,137.5L127.6,137.5z M130,137.5c0.1,0,0.3,0.1,0.4,0.1
		c0.5,0.2,0.6,0.3,0.4,0.5c-0.2,0.2-0.6,0.3-0.7,0.1c0-0.2-0.3-0.4-0.3-0.7C129.8,137.5,129.9,137.5,130,137.5L130,137.5z
		 M122.3,137.5c0.3,0,0.8,0.2,0.8,0.4c0,0.2-0.4,0.4-0.6,0.4c-0.2,0-0.2,0-0.2-0.2c0-0.1-0.1-0.3-0.1-0.4
		C122,137.5,122.2,137.5,122.3,137.5L122.3,137.5z M120,137.6c0,0-0.2,0.6-0.3,0.8c-0.7,0-0.6-0.4-0.3-0.6
		C119.6,137.6,119.8,137.6,120,137.6L120,137.6z M119.5,138.9c0.1,0,0.3,0.1,0.5,0.2c0.6,0.2,1.7,0.2,2.5,0c0.4-0.1,0.6-0.2,0.7-0.1
		c0.1,0.1,0,0.5-0.6,0.7c-0.7,0.3-1.8,0.4-2.7,0C119.2,139.3,119.1,138.9,119.5,138.9L119.5,138.9z M119.3,139.7
		c0.7,0.4,1.3,0.6,2.1,0.5c1.2,0,1.4-0.2,0.4,0.4c-1,0.5-2.4,0.4-2.7-0.1C119,140.1,119.1,139.7,119.3,139.7L119.3,139.7z
		 M125.2,140.4C125.2,140.4,125.2,140.4,125.2,140.4c0.1,0.7,1.2,1.3,1.7,1.4c1.1,0.5,2.9,0,4.3-0.6c1-0.4,1.3-1.1,0.2-0.7
		c-1.9,0.6-4.3,0.6-5.5,0.2C125.6,140.6,125.3,140.4,125.2,140.4L125.2,140.4z M119,142.9c2.4,0.5,5.2,4.2,5.2,5.8h-0.8
		c-1.2-4.1-4.2-4.9-4.5-5.2C118.8,143,119,142.9,119,142.9L119,142.9z M119,143.9c2.8,1.2,3.8,3.4,4.2,4.8h-0.8
		c-0.6-1.8-1.7-3.1-3.4-3.9C118.9,144.5,119,143.9,119,143.9L119,143.9z M119,145.2c1.4,0.4,2.7,2.3,3.1,3.5l-0.7,0
		c-0.5-1.3-1.2-2.2-2.4-2.7C118.9,145.8,118.9,145.5,119,145.2L119,145.2z M118.9,146.5c0.7,0.1,1.8,1.2,2,2.2h-0.7
		c-0.2-0.7-1-1.3-1.3-1.6C119,147,118.9,146.5,118.9,146.5L118.9,146.5z M119,147.6c0.1,0,1.1,0.9,0.9,1.1H119
		C119,148.4,119,147.6,119,147.6L119,147.6z M119,147.6"/>
	<path fill="#D40000" d="M144.8,35.6c-1.7,3.3-10.5,18.3-10.6,18.8l2.3,1l10.9-19.7C147.4,35.7,145.1,35.6,144.8,35.6L144.8,35.6z
		 M170.6,48.1l-1,1.4l0.9,1.6l0.9-1.6L170.6,48.1z M130.4,63.1c0,0-3.2,3.1-4.4,4.6c2.6,2.6,7.7,6,7.8,11.1l3.5,0l11.3,10.1
		c0,0,10.2,0.1,10.4,0c0.2,0,3.8-5.3,3.8-5.3l6.5,4.7c0,0-0.3-5.1-0.6-8.2c-0.1-2.1-0.2-3.4,1.4-4.3c-2.1-1-2-2.8-0.4-4.2
		c-0.5-0.7-1.3-0.8-1.4-3.3c-0.3-0.3-0.6-0.5-1-0.8l-0.4,0.4c-1.3,1.2-2.3,2.4-2.4,3.2c-0.3,1.5,1.3,2.6,2.2,1.5
		c0.3-0.3,0.5-0.2,0.5,0.2c0,0.8-1,1.3-1.9,0.9c-0.2-0.1-0.4-0.2-0.4-0.2c0,0,0.9,2.3,1.1,2.8c0.4,0.8,0.6,1.6,0.7,2.5
		c0,0.9,0,1-0.4,2.6c-0.4,1.5-0.2,2.4,0.5,2.4c0.4,0,0.4,0.4,0,0.5c-0.9,0.3-1.4-0.3-1.4-1.7c0-0.8,0-0.9-0.5-0.7
		c-1.5,0.7-3.1-0.6-2.4-1.9c0.1-0.3,0.3-0.2,0.4,0.2c0.2,0.7,0.6,1.1,1.3,1.1c1.6,0,2.3-2.3,1.4-4.6c-0.2-0.5-0.3-0.4-0.5,0.1
		c-0.4,0.9-1,1.2-1.6,0.7c-0.2-0.2-0.3-0.5-0.1-0.5c0,0,0.2,0,0.4,0c0.9,0,1.3-0.9,0.8-2.3c-0.4-1.2-0.4-1.4-0.6-2.1
		c-0.2-1-0.1-1.8,0.4-2.8c0.1-0.2,0.6-0.8,1.3-1.5c0.7-0.7,1.3-1.3,1.3-1.3s-0.4-0.3-0.8-0.7c-1-0.8-1.2-0.9-1.2-0.9
		S160,78.8,160.4,84c-0.6,6.8-5.6,4.9-6,0.2L130.4,63.1z M130.2,65.1c1.6,0,2.7,2.1,3.3,6.7c0.2,1.5,1.1,3.6,1.8,4.1
		c1.7,1.2,4.3,0.3,4.3-1.6c0-2.3-3.3-2.7-3.3-0.4c0,0.5-0.3,0.6-0.6,0.1c-0.2-0.5,0-1.3,0.4-1.8c0.3-0.3,0.3-0.3-0.3-0.6
		c-2-1.1-2.8-2.7-1.8-3.4c0.5-0.3,1.1,0.1,0.8,0.5c-0.5,0.6-0.5,0.7-0.1,1.3c0.4,0.6,0.9,0.9,2.2,1.3c1,0.3,1.2,0.4,1.7,0.6
		c1.4,0.6,2,2,1.5,3.4c-0.1,0.3-0.2,0.6-0.2,0.7c0,0.1,0,0.1,1,0c1.5-0.2,3.3,0.3,4.1,1.3c0.5,0.5,0.8,1.7,0.8,2.7
		c0,0.2,0.1,0.6,0.1,0.9c0.1,0.3,0.2,0.9,0.2,1.2c0.4,3.4,3.2,5.1,4.4,2.7c0.8-1.5-1-3-1.9-1.6c-0.3,0.5-0.6,0.3-0.5-0.3
		c0.4-1.1,1.7-1.3,2.7-0.4c0.5,0.5,0.8,1.7,0.5,2.4c-0.1,0.4-0.1,0.4,0.2,0.3c0.6-0.2,1.7,0,2.1,0.4c0.9,1,0.7,2.2-0.4,2.6
		c-0.5,0.2-1.1,0-1.3-0.6c-0.1-0.4,0.2-0.6,0.4-0.2c0.4,0.7,1.4,0.1,1.2-0.7c-0.3-0.9-1.1-1.1-2.5-0.6c-2.4,0.8-3.1,0.7-4.3-0.4
		c-0.8-0.8-1.1-1.5-1.3-3c-0.2-1.7-0.3-1.7-0.7-1.4c-2,1.7-4.6-0.9-2.9-2.6c0.5-0.5,0.9-0.1,0.4,0.5c-0.7,0.9,0.2,2,1.3,1.8
		c2-0.5,1.6-3.5-0.6-4.2c-0.7-0.2-2.5-0.1-4,0.2c-4,0.9-5.7-0.8-6.6-6.3c-0.1-0.6-0.2-1.1-0.6-2.5c-0.4-1.6-2-2.5-2.8-1.6
		c-0.7,0.7-0.3,1.7,0.6,1.7c0.9,0,0.6,0.6-0.3,0.7c-1.7,0.1-2-2.6-0.4-3.4C129.5,65.2,129.9,65.1,130.2,65.1L130.2,65.1z
		 M108.5,66.1l0.5,2l2.1,0.6l-0.7-1.9L108.5,66.1z M113.7,66.7l-0.6,1.8l1.6-0.4l0.5-1.9L113.7,66.7z M130.7,69.6
		c0.3,0,0.6,0.3,0.6,0.6c0,0.3-0.3,0.6-0.6,0.6c-0.3,0-0.6-0.3-0.6-0.6C130.1,69.9,130.4,69.6,130.7,69.6L130.7,69.6z M110.8,70.7
		l-1.6,0.6l-0.3,1.4l1.7-0.4L110.8,70.7z M114.7,71.2l-1.3-0.2l0.4,1.5l1.4,0.6L114.7,71.2z M172.3,71l-0.9,0.7
		c2.5,2.2-0.2,4.2-0.3,4.1c1.8,1.2,1.5,3.1,1.2,4.8c-0.4,3.1-0.6,6-1.1,9.1c0,0,2.2,1.5,3.6,2.1c0,0,0-18.4,0-18.4L172.3,71z
		 M141.6,73.8c0.3,0,0.6,0.3,0.6,0.6c0,0.3-0.3,0.6-0.6,0.6s-0.6-0.3-0.6-0.6C141,74.1,141.3,73.8,141.6,73.8L141.6,73.8z
		 M105.2,75.3l0.1,17.2l3.6-6.4l-2.5-2.8l2.1-2.3L105.2,75.3z M139.9,78c0.3,0,0.6,0.3,0.6,0.6c0,0.3-0.3,0.6-0.6,0.6
		c-0.3,0-0.6-0.3-0.6-0.6C139.3,78.2,139.6,78,139.9,78L139.9,78z M148,79.7c0.3,0,0.6,0.3,0.6,0.6c0,0.3-0.3,0.6-0.6,0.6
		c-0.3,0-0.6-0.3-0.6-0.6C147.4,80,147.7,79.7,148,79.7L148,79.7z M171.2,98.9l2.6,2.7l-2,2.5l3.2,5.5l-0.1-16.9L171.2,98.9z
		 M105.2,93.2l0.1,18.5l2.8,2l0.7-0.7c-1.8-1.9-0.7-3.4,0.6-4.2c-2.4-0.6-1.7-3.7-1.5-5.2c-0.1-2.7,0.9-5.9,0.6-8.5L105.2,93.2z
		 M121.3,95.8l-4,5.6c0,0-4.4-3.3-6.6-4.8c0.2,2.4,0.5,5.5,0.8,8.1c0.7,3.8-1.2,3.8-1.2,4.2c3,2.3,0.5,4.4,0,4.3
		c1.6,0.9,1.5,3.5,1.5,3.5l0.8,0.4c0,0,0.2-0.2,0.4-0.2c0.8-0.4,2.1-2,2.4-3c0.5-1.7-1-3.2-1.9-1.9c-0.5,0.6-0.8,0.2-0.5-0.5
		c0.3-0.7,1.3-1,1.9-0.7c0.3,0.2,0.3-0.3-0.3-1.7c-0.2-0.5-0.3-1-0.6-2c-0.2-1-0.2-2.2,0.3-3.4c0.6-1.7,0.4-2.8-0.6-2.9
		c-0.5-0.1-0.6-0.2-0.2-0.5c1-0.5,1.9,0.2,1.9,1.5c0,0.7,0,0.7,0.4,0.6c1.9-0.8,3.4,1.2,2.1,2.7c-0.4,0.5-0.7,0.2-0.4-0.5
		c0.4-1,0-1.6-0.9-1.6c-1.4,0-2.2,1.9-1.6,4c0.2,0.7,0.2,0.7,0.7,0.2c0.4-0.4,0.7-0.5,1-0.4c0.7,0.2,0.8,0.9,0.2,0.8
		c-1.1-0.2-1.4,1-0.8,3c0.8,2.7,0,4.9-2.4,6.4c-0.1,0.1-0.3,0.2-0.3,0.2c0.9,0.8,1.5,1.3,2.8,2.1l4.4-17.8c0,0-0.1-1-0.2-1.5
		c0-4.8,4.4-5.2,5.8-0.9c0.1,0.4,0.8,1.5,0.8,1.5l23.2,20.6c0,0,4.3-4.2,4.3-4.3c-3.3-3.3-7.7-5.7-7.9-10.9c-0.8,0-3.4,0-3.4,0
		l-11.3-10.3C128.1,96,125,95.7,121.3,95.8L121.3,95.8z M127.6,96.2c0.6,0,1.2,0.3,1.2,0.8c0,0.4-0.3,0.5-0.5,0.2
		c-0.3-0.5-0.7-0.5-1.2-0.1c-1.1,1.2,0.6,2.3,2.6,1.6c1.2-0.4,1.8-0.5,2.3-0.4c1.9,0.4,2.8,1.7,3,4.2c0.1,1.3,0.1,1.3,0.6,0.8
		c1.3-1.2,3.3-0.5,3.6,1.3c0.1,0.8-0.7,1.8-1.5,1.8c-0.3,0-0.3-0.3,0.1-0.5c0.8-0.4,0.8-1.7,0.1-2.2c-1-0.7-2.4,0.4-2.4,1.8
		c0,1.7,1.3,2.5,3.9,2.4c0.4,0,1.3-0.1,2.1-0.1c1.2-0.1,2.5-0.3,3.8,0.7c1.3,1,2.2,3.1,2.5,6c0.6,3.6,1,4.6,2.3,4.7
		c0.7,0.1,1.3-0.6,1.3-1.3c0-0.5-0.7-1-1.2-0.8c-0.6,0.2-0.7-0.5-0.1-0.7c0.8-0.4,1.9,0.3,2.1,1.4c0.1,0.6-0.6,1.8-1.3,2.1
		c-1.9,0.8-3.2-0.8-3.7-4.3c-0.3-1.6-0.4-2.7-0.9-4.1c-0.9-2.5-2.4-3.6-4.1-2.8c-1.9,0.9-1.5,3.6,0.5,3.6c1.1,0.1,1.3-0.7,1.3-1.6
		c0-0.6,0.7,0,0.8,0.4c0.1,0.5-0.4,1.2-0.8,1.5c-0.7,0.4-0.4,0.4,0.3,0.6c1.8,0.3,3.2,2.8,2.1,3.6c-0.6,0.3-1.2-0.2-0.8-0.7
		c0.6-0.8-0.4-2.1-2.4-2.5c-2.6-0.6-3.6-2.5-2.6-4.4c0.3-0.6,0.3-0.6-0.9-0.6c-2.7,0.2-3.7-0.2-4.6-1.8c-0.3-0.5-0.4-1.1-0.5-2.4
		c-0.1-2.3-0.3-3.7-0.6-4.1c-1.4-2-4.4-1.4-4,0.8c0.2,1.1,1.4,1.5,2.2,0.7c0.6-0.6,0.9,0,0.3,0.6c-1.4,1.6-3.9-0.3-3.2-2.4
		c0.2-0.5,0.2-0.5-0.7-0.5c-2-0.1-3-1.8-1.7-3C127,96.3,127.3,96.2,127.6,96.2L127.6,96.2z M132.6,103.7c0.3,0,0.6,0.3,0.6,0.6
		c0,0.3-0.3,0.6-0.6,0.6c-0.3,0-0.6-0.3-0.6-0.6C132,104,132.2,103.7,132.6,103.7L132.6,103.7z M140.8,105.8c0.3,0,0.6,0.3,0.6,0.6
		c0,0.3-0.3,0.6-0.6,0.6c-0.3,0-0.6-0.3-0.6-0.6C140.2,106.1,140.4,105.8,140.8,105.8L140.8,105.8z M139,109.7
		c0.3,0,0.6,0.3,0.6,0.6c0,0.3-0.3,0.6-0.6,0.6s-0.6-0.3-0.6-0.6C138.4,109.9,138.7,109.7,139,109.7L139,109.7z M165.1,112l0.4,1.8
		l1.4,0.4l-0.2-1.5L165.1,112z M169.8,112.6l0,1l1.2,0.1l0.4-1.8L169.8,112.6z M149.5,114.1c0.3,0,0.6,0.3,0.6,0.6s-0.3,0.6-0.6,0.6
		c-0.3,0-0.6-0.3-0.6-0.6S149.2,114.1,149.5,114.1L149.5,114.1z M166.9,116.6l-1.4,0.4l-0.7,2l1.8-0.7L166.9,116.6z M169.7,116.7
		l0.2,1.5l1.8,0.8l-0.6-2.1L169.7,116.7z M143.9,129.2L133,148.9l3,0l10.3-18.5L143.9,129.2z M109.7,134l-1,1.3l0.9,1.5l1-1.5
		L109.7,134z M109.7,134"/>
	<path d="M97.8,28.7c-1.3,0-2.7,0.9-3.1,2.7c-0.1,0.4-0.1,1.1-0.1,3c0,2.8-0.1,2.6-0.1,2.6l-1.2,0l0.1,1.6l1.3,0c0,0,0,0.1,0,1
		c0.1,2.2,0.4,3,1.7,3.6c0.8,0.4,2.4,0.4,3.1-0.2c0.4-0.3,0.5-0.3,1,0c1.1,0.7,2,0.3,2,0.3l0-1.6c-1.7,0-1.9-0.4-1.5-1.5
		c0-0.1,0-0.2,0-0.4c0.1-1.8,0.1-7.8-0.1-8.5C100.4,29.5,99.1,28.7,97.8,28.7L97.8,28.7z M97.7,30.3c0.6,0,1.2,0.4,1.5,1.2
		c0.3,0.8,0.3,0.7,0.4,5.8c0,2.5-0.1,2.5-0.1,2.5c-0.9-1.3-2.1-2.2-3.5-2.6c0,0,0,0.1,0-2.3c0-2.5,0-3.1,0.4-3.7
		C96.8,30.5,97.2,30.2,97.7,30.3L97.7,30.3z M128.1,35.1c2,6.1,2.2,12.1,0.5,17.8c1,0,5.3,1.2,7.7,2.6c-0.4,1.1-7.2,9.4-11.8,13.2
		c1.3,1.3,2.7,2.6,4.2,4c2.3,2.2,3.1,3.6,3.2,6.4c0,1.4-0.5,3-1.4,4.2c-0.7,0.9-1.3,1.6-2.7,2.5c-1.3,0.8-3.1,2.7-5.5,5.4
		c-0.9,1-2.4,2.9-3.7,4.7c-0.5,0.6-1.9,2.7-1.9,2.7c-4.7-3.8-9.6-6.7-9.8-6.7c0,0,5-2.7,6.1-3.2c0.8,0.5,1.9,0.1,1.4-1.1
		c-1-2.6-0.3-5.3,0.9-7.2c0.3-0.5,1-0.7,2.2-0.8c0.5,0,1,0,1.6,0c0.2,0,0.7,0.1,1,0.2c1,0.5,1.1-0.1,1.7-2.4
		c0.6-2.2-0.4-5.1-1.7-5.1c-0.3,0-0.5,0.1-0.4,0.9c0,0.6-0.1,0.9-0.2,1.3c-0.3,0.8-0.5,1.6-0.6,2.7c0.2,0-1.3-1.4-3.5-2
		c-1.5-0.2-2.2-2-2.2-2c0,0,0.2-0.5,0.4-0.7c0.5,0.2,1,0.5,1.6,0.7c0,0-0.1-0.7-0.2-0.9c-0.3-1-0.3-1.2,0.1-1.4
		c1-0.5,1.1-1.5,0.3-2.4c-0.2-0.2-0.4-0.4-0.6-0.5l0.5-1.9c0,0-0.4,0.1-0.8,0.2c-1,0.3-1,0.3-1.4-0.2c-1-1.1-2.4-0.9-2.6,0.4
		c0,0.1-0.1,0.4-0.1,0.4l-2.2-1.1c0.1,0.5,0.6,2.3,0.6,2.3c-1.9,1.5-0.3,2.8,0.2,3c0,0-0.5,1.4-0.6,2l2.2-0.6c0.2,0.4,0.4,0.7,0.9,1
		c0.1,1.2,1.1,2.2,1.7,2.8c0,0,0.1,0.4,0,0.7c-0.1,0.7,0.6,1.8,0.7,1.9c-3-1.2-6.1-2.7-9.1-4.1l0.2,37c0,0,0.7,0.6,2.1,1.6
		c0.7,0.5,0.7,0.5,0.5,1c-0.2,0.7-0.1,1.3,0.5,6.1c0.3,2.5,0.7,5.2,1,7.5c0.2,1.3,0.1,1.5-0.3,1.3c-0.5-0.2-1.3-0.1-1.7,0.3
		c-0.9,1-0.2,2.6,1.1,2.5c0.3,0,0.5-0.1,0.7-0.3c0.5-0.3,0.4,0.1-0.3,1.1c-1.5,2.3-1.4,2-0.8,3.1c1.2,2.1,1.5,2.6,1.6,2.7
		c0.1,0.1,0.2-0.1,0.6-1c0.2-0.4,0.7-1.2,1-1.8c0.7-1.2,0.7-1-0.2-2.6c-0.9-1.7-1-1.8-0.4-1.5c0.2,0.1,0.5,0.2,0.7,0.2
		c1.1,0,1.3-0.5,1.5-1.4c0-1.2-0.9-1.7-2.2-1.3c-0.2,0.1-0.4,0.1-0.4,0.1l1.4-12.9l0.7,0.5l0.2-0.1l-0.6-0.5
		c0.1-2.1-0.5-2.8-1.3-3.3c2.5-1.4,1.4-3.6-0.2-4.3c0,0,1.1-0.6,1.3-1.3c0.2-0.6,0.1-1.5-0.1-3.1c-0.2-2.5-0.7-7.8-0.7-7.8
		c2.2,1.6,4.4,3.4,6.4,5l4.2-5.8l10,0.1c0,0,7.6,6.9,11.5,10.5l3.3,0c0,0,0,0.4,0.1,0.6c0.3,3.4,2.6,5.8,4.7,7.4
		c0.9,0.8,3,2.8,3,2.8l-3.9,3.9l-23.9-21.3c0,0-0.1-0.3-0.2-0.5c-0.6-2.3-2.1-3.2-3.4-3c-1.4,0.2-2.6,1.6-2.6,4c0,0.4,0.1,1,0.1,1
		l-4.4,18.2c0,0-1.7-1.3-2.7-2l-0.2,0.1l2.6,1.9l0.2-0.1l0.7,0.6l0.1,0.4c2.2,1.5,6,4.4,6,4.4c1.8-1.3,3.7-0.9,5.6-0.4
		c0,0,1.4,0.5,2.1,0.5c3.7,0.1,7,0.8,10.4,2L128,149.1l23.9,0c-1.2-4.7-2.4-9.4-0.2-17.3c-2.4-0.5-7.6-2.6-7.6-2.6s0-0.1,0.2-0.4
		c1-1.4,3.4-5.1,5.7-7.3c0.3-0.2,4.3-4.1,4.3-4.2c0-0.1,0.1-0.3,0.3-0.4c0.4-0.2,1.3-1.2,1.3-1.2l-5-4.3c0,0-0.2,0-0.3-0.1
		c-0.7-0.4-2-2.6-2.3-4c-0.7-3.4,0.6-6,4.3-8.7c3.6-2.5,10.5-12.2,10.6-12.4c3.7,3.1,6.6,4.7,9.9,6.7c-2,1.1-3.6,1.9-5,2.6
		c-0.9,0.5-1,0.6-1.8,0.4c-0.4-0.1-0.8,0.1-0.9,0.4c-0.1,0.3-0.1,0.6,0,0.7c1.3,2.1,0.7,6.8-1,7.8c-1.5,0.8-3,0.6-4.2,0.1
		c-0.9-0.3-0.9-0.3-1.4,0.6c-0.9,2-1,3.6-0.1,5.5c0.7,1.5,1.7,2.2,1.9,0.2c0.1-1.2,0.6-2.6,0.6-3.9c1.1,1.2,1.8,1.7,3.5,2.2
		c1.2,0.2,2.4,1.7,2.4,2.3c-0.3,0.3-0.4,0.7-0.5,0.7c-0.6-0.2-1.8-0.7-1.8-0.7l0.5,1.9c0,0-0.1,0.1-0.3,0.2
		c-1.2,0.6-1.1,2.2,0.1,2.8c0.2,0.1,0.3,0.2,0.2,0.5c-0.2,0.8-0.5,1.3-0.7,2c0,0,0.2,0,1.6-0.6l0.5-0.3l0.3,0.4
		c0.7,0.8,1.6,0.8,2.3,0l0.3-0.4l1,0.5c0.9,0.5,1.2,0.6,1.2,0.6s-0.5-2-0.6-2.3c-0.1-0.1-0.2-0.3-0.2-0.3c-0.1,0-0.1-0.1,0.2-0.4
		c0.9-0.7,1-1.7,0.2-2.4c-0.3-0.3-0.3-0.3-0.3-0.3l0.5-1.9l-1.9,0.6c-0.3-0.6-0.8-0.9-1.1-1.1c0-0.9-0.1-1.7-1.6-3.1
		c0.5-0.5-0.1-1.5-0.6-2.2c0.8,0.3,2.9,1.2,2.9,1.2l0.3,0l1,0.5l0.1,0.2c0,0,3.1,1.5,4.5,2.1c0-0.1,0-1.6,0-18.5
		c0-10.1,0-18.3,0-18.4c0-0.1-0.4-0.3-0.7-0.6c-0.7-0.5-0.8-0.6-1.6-1.1c-0.7-0.4-0.6-0.4-0.5-1c0.2-0.6,0.2-1.4-0.1-2.9
		c-0.2-1.1-0.7-5-1.1-8.2c-0.3-2.2-0.3-2.7-0.4-3.1c-0.1-0.9,0-1.3,0-1.3c3.1,1.3,3.4-3.1,0.2-2.5c0,0,0.4-0.7,1.1-2
		c0.6-1.1,0.6-1,0.1-1.9c-0.2-0.4-0.6-1.1-0.8-1.4c-0.5-0.9-0.9-1.5-0.9-1.5l-2.3,4l1.3,2.8c0,0-0.2,0-0.4,0c-1.2-0.2-2,1-1.7,1.9
		c0.3,0.9,1.2,1.1,1.9,0.8c0.6-0.2,0.6-0.3,0.1,4.1c-0.2,1.3-0.8,7.3-0.9,8.2c-0.1,0.6-0.1,0.8-0.3,0.6c-0.3-0.1-0.5-0.4-0.9-0.6
		l-0.2,0.2c0.3,0.2,0.6,0.5,1,0.9c-0.1,1.6-0.1,2.5,1.3,3.3c-2.4,1.5-1,3.8,0.4,4.2c-0.8,0.2-1.7,1.3-1.5,3.5l0.7,8.9l-6.5-4.8
		l-3.8,5.5l-10.1,0l-11.4-10.3c0,0-2.5,0-3.5-0.1c0.1-0.1-0.2-3.2-1.9-5.2c-1.8-2.1-5.9-5.6-5.9-5.6l4.3-4.4L154.5,85
		c0,0,0.1,0.6,0.2,0.9c0.8,3.4,4.7,3.6,5.5,0.1c0.1-0.6,0.3-1.9,0.2-2c0-0.1,0.1-0.6,0.3-1.3c1.3-5.1,2.4-9.4,3.7-14.3
		c0.2-0.7,0.4-1.4,0.4-1.7c0.2-1,0.2-1,1.2-0.2c0.6,0.5,0.9,0.6,0.9,0.6l0.2-0.2c-0.7-0.5-1.9-1.4-1.9-1.4l0-0.4
		c-3.9-2.8-4.7-3.5-7-5.4c-1.8,1.6-4.4,0.9-6,0.4c-0.4-0.2-1.4-0.4-1.4-0.4c-4,0-7.5-0.8-10.8-1.9l12.8-22.8l-4.9,0l-0.2,0.2H145
		l0-0.2H128.1z M175.3,110.1C175.3,110.1,175.3,110.1,175.3,110.1L175.3,110.1z M142.7,35.6l1.7,0l-10.4,18.5l-1.1-0.4
		c0,0,0.1-0.1,0.1-0.8c0-0.8-0.2-1.2-0.6-1.7c-0.3-0.4-0.5-0.5,0.5-0.3c1.9,0.3,3.2-1.8,2.5-3.4c-0.3-0.6-0.2-0.7,0.5-0.7
		c2.1-0.2,2.9-2.9,1.4-4.2c-0.3-0.3-0.2-0.5,0.4-0.3c1.8,0.4,3.2-1.6,2.5-3.2c-0.2-0.4,0-0.5,0.3-0.6
		C142.3,38.1,142.8,36.9,142.7,35.6L142.7,35.6z M128.8,35.6l8.1,0c-1.1,1.7,0.8,2.7,1.1,2.5c-1.7,1-1.3,2.3-0.4,2.8
		c0.9,0.4,2.2,0,1.8-1.9l0.4-0.2c0.4,0.5,0.8,3.4-2.4,3c-0.6-0.1-0.9,0.5-0.4,0.8c2.5,2.9-1.4,4.2-1.6,3.7l0-0.5
		c1.1,0.2,2.5-1.2,1.2-2.4c-0.7-0.7-2.7-0.4-2.3,1.8c-1.2-1.8-2.5-1.2-2.8-0.3c-0.3,0.7,0.1,1.7,1.2,1.9c-1.3,1.1-0.7,2.3,0.2,2.6
		c1,0.3,2-0.1,1.7-1.9c0-0.2,0.4-0.1,0.4-0.1c1,2.6-1.4,3.5-2.8,3c-0.5-0.2-0.7,0.6-0.2,1c0.8,0.6,0.5,2.3,0.5,2.3
		c-1.5-0.6-3.6-1-3.5-0.9C130.6,47.1,130.5,41.4,128.8,35.6L128.8,35.6z M141.7,35.6l0.7,0c0,1-0.4,2.3-2.2,2.5c0-0.3,0-0.5-0.1-0.8
		C140.8,37.2,141.7,37.4,141.7,35.6L141.7,35.6z M144.9,35.7l2.3,0l-11,19.5l-1.8-0.9L144.9,35.7z M139.1,37.2
		c0.4,0,0.7,0.3,0.7,0.7c0,0.4-0.3,0.7-0.7,0.7c-0.4,0-0.7-0.3-0.7-0.7C138.4,37.5,138.7,37.2,139.1,37.2L139.1,37.2z M116.2,37.5
		c-1.8,4.6-5.1,7.3-7.6,11.9c-2.6,4.7-1.4,8.7,2.2,9.4c1.9,0.4,4.2-1.5,4.4-3.5c0.1-0.5,0.2-0.6,0.4-0.6c0.3,0,0.3,0.8,0.1,2
		c-0.5,3-1.6,4.9-2.3,6l6.3-0.1c-1.3-1.5-2.3-3.6-2.5-6.2c-0.2-1.4,0-2,0.4-1.8c0.1,0.1,0.2,0.2,0.2,0.9c0.2,2.5,2.9,3.9,5,2.8
		c2.9-1.5,2.8-4.4,2.2-6.5C123,46.4,118.5,42.8,116.2,37.5L116.2,37.5z M96.9,39.3c0.8,0.6,1.5,1.4,2,2c-0.7,0.5-1.5,0.6-2,0.3
		c-0.5-0.3-0.8-1-0.8-2.1C96.1,38.8,96.4,38.8,96.9,39.3L96.9,39.3z M97.8,45.3c0,0-1.1,2.4-2,3.7c-0.6,1.1-2.1,3.1-1.7,4.7
		c0.5,1.6,2.2,2,3.1,0.8c0.4-0.6,0.5-0.5,0.5,0.1c0,1.3-0.7,2-1.2,2.6l3.2,0c-0.7-0.8-1.3-1.5-1.4-2.6c0-0.4,0.1-0.7,0.4-0.3
		c0.3,0.3,0.6,0.9,1.5,0.7c0.9-0.2,1.7-1.4,1.6-2.5c-0.3-1.4-1.1-2.7-2-3.9C99.2,47.7,97.8,45.3,97.8,45.3L97.8,45.3z M134.4,45.7
		c0.4,0,0.7,0.3,0.7,0.7c0,0.4-0.3,0.7-0.7,0.7c-0.4,0-0.7-0.3-0.7-0.7C133.8,46,134.1,45.7,134.4,45.7L134.4,45.7z M170.7,46.3
		l1.9,3.2l-2.1,3.8l-1.8-3.6L170.7,46.3z M170.6,47.4l-1.3,2.2l1.2,2.2l1.4-2.1L170.6,47.4z M170.6,48.3l0.7,1.3l-0.8,1.3l-0.7-1.4
		L170.6,48.3z M168.8,52.7c0.1,0,0.3,0,0.4,0.1c1.3,0.5,0.9,2.4-0.5,2.3c-0.2,0-0.4-0.1-0.6-0.2C167.3,54.1,167.9,52.7,168.8,52.7
		L168.8,52.7z M171.9,52.7c1.1,0,1.8,1.5,0.6,2.3c-0.6,0.3-1.4,0.1-1.7-0.4c-0.3-0.5-0.2-1.3,0.5-1.7
		C171.5,52.8,171.7,52.7,171.9,52.7L171.9,52.7z M170.4,54.9c0.1,0,0.2,0.5,0.3,1.5c0,0.3,0.1,1.2,0.2,1.9c0.1,0.7,0.2,1.5,0.2,1.7
		c0,0.3,0.1,0.5,0.1,0.6c0,0.1,0.1,0.4,0.1,0.8c0,0.4,0.1,0.9,0.1,1.2c0,0.3,0.1,0.9,0.2,1.3c0.6,4.6,0.8,6.1,0.6,6.5
		c-0.4,1.4-2.3,1.5-3.1,0.7c-0.6-0.6-0.7-1.3-0.4-3c0.1-1,0.2-1.5,0.6-5.3c0.1-0.9,0.2-2.1,0.3-2.6c0.1-0.6,0.2-1.2,0.2-1.5
		c0-0.3,0.1-0.8,0.1-1.3c0.1-0.4,0.2-1.3,0.2-1.6C170.2,55.1,170.3,54.9,170.4,54.9L170.4,54.9z M139.6,58.3c0,0,6,2,10.6,1.9
		c0.7,0,0.8,0,1.6,0.3c0.5,0.2,1.3,0.4,1.7,0.5c1.4,0.3,2.6,0.2,3.7-0.3c0.2-0.1,0.4-0.3,0.7-0.2c0.2,0,0.4,0.4,0.4,0.4
		c-4,1.1-13.4,0.9-19.2-1.6L139.6,58.3z M170.5,58.9C170.5,59,170.5,59,170.5,58.9c-0.2,0.2-0.1,1.3,0.3,4.5
		c0.7,6.2,0.7,6.3-0.2,6.9c-0.4,0.3-0.5,0.4-0.3,0.6c0.1,0.1,0.1,0.1,0.4,0c0.7-0.2,1-0.8,1-1.9c0-0.9,0-1-0.3-3.1
		c-0.1-0.7-0.2-1.8-0.3-2.3C170.8,59.7,170.7,58.9,170.5,58.9L170.5,58.9z M139,59.6c6,2.1,12.2,2.8,19.8,1.6c0,0,0.7,0.5,1.1,0.7
		l-0.3,0.1l0.1,1l1.3-0.2c0,0,0.7,0.6,1.2,0.9c-6.7,2.1-17.6,1.7-24.3-1.3c-0.3-0.1-0.4-0.3-0.4-0.3c0.1-0.4,0.3-0.6,0.5-0.8
		l1.2,0.3l0.4-1.1l-0.9-0.3L139,59.6z M140.6,60.9l-0.4,1.1l1.7,0.5l0.3-1.1L140.6,60.9z M143.2,61.6l-0.2,1.3l1.7,0.3l0.2-1.2
		L143.2,61.6z M146.1,62.2l-0.1,1.2l1.8,0.2l0.1-1.2L146.1,62.2z M158.6,62.2l-1.5,0.2l0.1,1.1l1.6-0.2L158.6,62.2z M155.8,62.5
		l-1.5,0.1l0.1,1.1l1.5-0.1L155.8,62.5z M148.9,62.5l0,1.2l1.6,0.1l0-1.2L148.9,62.5z M153.2,62.7l-1.4,0l0,1.1l1.5,0L153.2,62.7z
		 M136.4,62.9c0.2,0,0.5,0.3,0.7,0.7c0.3,0.8,0.2,1.6-0.3,1.9c-0.6,0.4-1.3-0.2-0.9-0.8c0.1-0.1,0.2-0.2,0.3-0.2
		c0.3-0.1,0.4-0.6,0.2-1.5C136.3,62.9,136.4,62.9,136.4,62.9L136.4,62.9z M138.7,63.2c6.5,2.1,13.8,2.8,21.4,1.3
		c0,0-3.6,14.7-3.7,14.7L138.7,63.2z M135.6,63.2c0.3,0,0.4,0.6,0.1,0.9c-0.4,0.4-1.1,0.1-1-0.4C134.7,63.6,135.3,63.2,135.6,63.2
		L135.6,63.2z M137.4,63.6c0.1,0,0.2,0.1,0.4,0.4c0.7,1,0.8,2.1,0.1,2.6c-0.8,0.6-1.3-0.3-0.7-1.1c0.2-0.2,0.2-0.6,0.1-1.4
		C137.3,63.7,137.4,63.6,137.4,63.6L137.4,63.6z M162.5,63.9c0.1,0,0.2,0.1,0.5,0.2c0.5,0.2,0.6,0.6,0.4,0.8c-0.3,0.4-1.2-0.4-1-0.9
		C162.5,64,162.5,63.9,162.5,63.9L162.5,63.9z M161.8,64.4c0.1,0,0.3,0.2,0.5,0.7c0.1,0.3,0.2,0.4,0.5,0.4c0.6,0.2,0.7,0.8,0.2,0.9
		c-0.5,0.2-0.9-0.2-1.2-1.1C161.7,64.7,161.7,64.4,161.8,64.4L161.8,64.4z M138.7,64.8c0.1,0,0.2,0.2,0.5,0.5
		c0.7,1.1,0.5,3.1-0.4,3.6c-0.4,0.2-0.7,0.2-1-0.2c-0.5-0.5-0.4-0.8,0.3-1.1c0.6-0.2,0.8-0.9,0.6-2.1
		C138.6,65.1,138.6,64.8,138.7,64.8L138.7,64.8z M142.1,65.2c4.4,3.6,8.4,7.6,13.6,12.1c1.2-3.8,3-11.6,3-11.6
		C158.5,65.9,150,67.1,142.1,65.2L142.1,65.2z M158.7,65.7C158.7,65.7,158.7,65.7,158.7,65.7L158.7,65.7L158.7,65.7z M161.4,65.2
		c0.1,0,0.3,0.5,0.4,1c0.1,0.5,0.5,1.2,0.7,1.2c0.9,0.1,1.2,0.6,0.8,1.1c-0.3,0.3-1,0.1-1.3-0.3C161.4,67.3,161,65.2,161.4,65.2
		L161.4,65.2z M112.1,65.7c0.5,0,1,0.3,1.2,1c0.1,0.8-0.3,1.4-0.7,1.3c-0.4-0.2-0.6-0.8-0.6-0.8s-0.1,0.5-0.3,0.8
		c-0.4,0.6-1.1-0.3-1-1.1C110.9,66.1,111.5,65.7,112.1,65.7L112.1,65.7z M143.6,65.9c4.8,0.7,9,0.9,14.7,0.3l-2.7,10.5L143.6,65.9z
		 M139.9,65.9c0.1,0,0.2,0.1,0.4,0.4c0.7,0.8,1,1.9,0.5,2.4c-0.3,0.3-0.5,0.4-0.8,0.2c-0.4-0.3-0.4-0.7-0.1-0.9
		c0.3-0.2,0.4-0.6,0.1-1.3C139.9,66.2,139.8,65.9,139.9,65.9L139.9,65.9z M108.5,66.2l1.8,0.7l0.6,1.5l-1.8-0.5L108.5,66.2z
		 M115.2,66.4l-0.5,1.5l-1.4,0.5l0.5-1.6L115.2,66.4z M161.1,66.7c0.1,0,0.2,0.2,0.3,0.6c0.3,1,0.4,1.2,0.7,1.3
		c0.4,0.2,0.5,0.7,0.1,0.9c-0.3,0.1-0.3,0.1-0.5-0.1c-0.3-0.4-0.5-1.1-0.6-1.7C161,67,161,66.7,161.1,66.7L161.1,66.7z M141.5,67.4
		c0,0,0.1,0.1,0.2,0.2c0.7,0.8,0.8,2.1,0.1,2.4c-0.6,0.4-1.4-0.4-0.9-0.8c0,0,0.2-0.1,0.2-0.2c0.1-0.1,0.2-0.2,0.2-0.9
		C141.4,67.6,141.4,67.4,141.5,67.4L141.5,67.4z M146.7,67.5l8.4,7.7l1.9-7.6C153.7,67.8,150.2,67.7,146.7,67.5L146.7,67.5z
		 M126,67.8c2.7,2.8,6.1,5.1,7,7.9c1.5,3.8,0.4,8.3-3.1,10.9c-1.9,1.5-3.8,3-5.4,4.8c-2.6,2.7-4.3,5.7-6,7.9
		c-0.3,0.4-1.1,1.5-1.1,1.5s-0.4,0.4-1.6-0.6c-3.3-3-6.8-5.1-10.4-7.1l1.5-0.8c3,1.7,6.6,4.1,10,6.9c0,0,2.6-3.8,3.5-5
		c1.2-1.6,2.1-2.6,3.2-3.8c2.9-3.6,5.9-4.8,7.1-6.6c1.8-2.7,1.9-5.8,0.4-8.5c-1.5-2.6-4.4-4.3-6.3-6.4L126,67.8z M151.2,68h3.3
		c0,0-0.5,0.4-0.9,0.7c-0.2,0.2-0.5,0.1-1-0.1C152.2,68.4,151.2,68,151.2,68L151.2,68z M155,68l0.8,0c-0.6,0.7-1.2,1.2-1.9,1.8
		c-0.1,0-0.2,0.1-0.4,0c-1.6-0.5-3-1.2-4.6-1.8l1.4,0c0,0,0.7,0.2,1.6,0.6c1.1,0.5,1.4,0.6,1.9,0.3C154.2,68.7,154.6,68.3,155,68
		L155,68z M156.6,68l-0.3,1c-0.5,0.6-1.4,1.2-2.2,1.9c-0.2,0.1-0.2,0.1-1-0.2c-2.9-1.1-4.3-1.9-4.3-1.9l-0.6-0.5
		c0,0,0.8,0.2,1.3,0.4c0.3,0.1,0.9,0.4,1.3,0.5c0.4,0.1,1.2,0.5,1.7,0.7c1.3,0.5,1.2,0.5,2.4-0.6C156.3,68.2,156.6,68,156.6,68
		L156.6,68z M112.2,68.1l1.3,1.5l-1.7,1.4l-1.3-1.5L112.2,68.1z M160.7,68.1c0.3,0.6,0.5,1.2,1,1.7c0.4,0.3,0.4,0.6,0.2,0.8
		c-0.6,0.3-0.7-0.2-0.8-0.6C160.8,69.4,160.4,68.5,160.7,68.1L160.7,68.1z M114.5,68.3C114.5,68.3,114.5,68.3,114.5,68.3
		c1.5,0,1.8,2,0.5,2.5c-0.5,0.2-1,0.1-1.3-0.2c-0.3-0.3-0.3-0.5-0.1-0.7c0.3-0.2,1-0.2,1-0.2s-0.6-0.2-0.9-0.4
		C113.1,69,113.6,68.3,114.5,68.3L114.5,68.3z M142.5,68.3c0.1,0,0.2,0.2,0.4,0.5c0.7,1.1,0.7,3.3-0.1,3.8c-0.4,0.3-0.8,0.2-1.1-0.1
		c-0.4-0.5-0.3-0.9,0.3-1.2c0.6-0.3,0.7-0.8,0.5-2.3C142.4,68.5,142.4,68.3,142.5,68.3L142.5,68.3z M109.5,68.3c0.4,0,0.8,0.1,1,0.5
		c0.1,0.2,0.1,0.4-0.2,0.5c-0.3,0.1-1,0.2-1,0.2s0.6,0.1,1,0.3c0.5,0.2,0.4,0.6-0.3,0.9c-1.3,0.6-2.5-1.1-1.5-2
		C108.8,68.5,109.2,68.3,109.5,68.3L109.5,68.3z M143.6,69.1C143.7,69.1,143.7,69.1,143.6,69.1c0.2,0,0.4,0.2,0.6,0.5
		c0.8,1,0.9,2.6,0.3,2.9c-0.7,0.3-1.2-0.3-0.7-0.9c0.4-0.4,0.3-1-0.2-2.2C143.6,69.2,143.6,69.2,143.6,69.1L143.6,69.1z M160.4,69.2
		c0.1,0,0.2,0.2,0.4,0.7c0.4,1.1,0.7,1.6,1.1,1.6c0.5,0,0.8,0.7,0.4,1c-0.8,0.6-1.8-0.8-1.9-2.5C160.3,69.5,160.3,69.2,160.4,69.2
		L160.4,69.2z M156.2,69.7l-0.2,0.9c0,0-0.5,0.5-0.9,0.9c-0.6,0.5-0.8,0.6-1.3,0.5c-0.7-0.3-1.5-0.5-2.3-0.7l-1.8-1.5l4.1,1.6
		c0,0,0.4,0.1,0.5,0C154.8,70.8,155.4,70.4,156.2,69.7L156.2,69.7z M160.1,70.6c0.1,0,0.1,0.1,0.1,0.2c0.2,0.8,0.5,1.5,0.7,1.5
		c0.3,0.1,0.4,0.4,0.3,0.6c-0.3,0.7-1.3-0.6-1.3-1.8C159.9,70.8,160,70.6,160.1,70.6L160.1,70.6z M145.2,70.6c0,0,0.1,0.1,0.3,0.2
		c0.6,0.6,0.7,2.1,0.3,2.6c-0.7,0.7-1.4-0.3-0.7-1c0.2-0.2,0.2-0.2,0.1-1C145.1,70.9,145.1,70.6,145.2,70.6L145.2,70.6z M110.8,70.8
		l-0.4,1.5l-1.4,0.4l0.3-1.2L110.8,70.8z M112.5,70.9c0.1,0,0.2,0,0.4,0.1c0.6,0.4,0.6,1.1,0.4,1.7c-0.3,0.5-0.8,0.7-1.3,0.6
		c-0.7-0.1-1.2-0.5-1.1-1.2c0-0.4,0.2-0.7,0.4-0.9c0.2-0.1,0.3-0.1,0.5,0.2c0.1,0.2,0.4,0.8,0.4,0.8s0-0.6,0.1-0.8
		C112.2,71.1,112.3,71,112.5,70.9L112.5,70.9z M113.6,71.1l1,0.4l0.4,1.4l-1.2-0.4L113.6,71.1z M172.2,71.3c0,0,0.3,0.1,1.7,1.2
		c0.3,0.3,0.9,0.8,0.9,0.8l0,18.2c0,0-2.8-1.5-3.1-1.9c-0.2-0.2-0.1-0.8,0-1.8c0.3-2.7,0.5-4.8,0.8-7.3c0.2-2.8,0.8-3.6-1.1-4.8
		c2-1.3,1.5-3.3,0.2-4.1L172.2,71.3z M155.7,71.4l-0.2,0.8c-0.7,1.1-1.3,1.1-2.3,0.6l-1.2-1c0.8,0.2,1.2,0.4,2,0.7
		c0.4,0.1,0.5,0,0.8-0.2C155.1,71.9,155.3,71.7,155.7,71.4L155.7,71.4z M146.6,71.8c0.4,0.5,0.5,0.9,0.5,2c-0.1,0.8,0,1.4-0.7,1.8
		c-0.3,0.2-0.9,0.2-1.1,0c-0.6-0.4-0.3-1.2,0.5-1.2c0.5,0,0.7-1.6,0.4-2.6c0-0.2,0-0.3,0-0.3C146.3,71.6,146.5,71.7,146.6,71.8
		L146.6,71.8z M159.6,71.8c0.1,0,0.3,0.2,0.4,0.6c0.1,0.6,0.3,0.9,0.7,1c0.4,0.2,0.5,0.6,0.3,0.8c-0.5,0.5-1-0.1-1.2-1.3
		C159.7,72.9,159.5,71.8,159.6,71.8L159.6,71.8z M170.6,72c1.1,0,1.8,0.8,1.8,1.8c0,0.7-0.4,1.4-1.1,1.7c-1.7,0.5-2.6-0.6-2.6-1.7
		C168.7,72.9,169.5,72,170.6,72L170.6,72z M147.6,72.6c1,1,1,3,0.1,3c-1.1-0.4-0.2-1-0.2-1.2c0.1-0.7-0.1-1.2-0.2-1.8
		C147.1,72.2,147.5,72.5,147.6,72.6L147.6,72.6z M170.7,72.5c-0.2,0-0.2,0.2,0.2,0.5c0.7,0.6,0.3,1.6-0.5,1.6
		c-0.4,0-0.5,0.3-0.1,0.4c1.3,0.5,2.2-1.5,1-2.3C171,72.6,170.8,72.5,170.7,72.5L170.7,72.5z M120.4,72.8c1.1,0.4,1.4,2.4,1.5,3.1
		c0,1.2-0.5,3.3-1,3.7c-1.3,1-2-2.7-0.8-5c0.1-0.2,0.2-0.5,0.2-0.9C120.1,73.1,120.2,72.8,120.4,72.8L120.4,72.8z M155.3,73
		c0,0-0.1,0.6-0.3,0.9c-0.2,0.4-0.3,0.4-0.7,0.1c-0.2-0.2-0.6-0.6-0.6-0.6c0.3,0.1,0.6,0.2,0.9,0.1C155,73.4,155.3,73.1,155.3,73
		L155.3,73z M159.4,73c0.1,0,0.2,0.2,0.3,0.6c0.3,1.1,0.7,1.6,1.1,1.6c0.8,0,0.9,0.9,0.2,1.1c-0.3,0.1-0.4,0.1-0.7,0
		c-0.5-0.1-1.2-1.9-1.1-2.7C159.2,73.2,159.3,73,159.4,73L159.4,73z M112.8,73.7c0.3,0,0.4,0.1,0.6,0.5c0.2,0.4,0.7,0.9,1.1,1.1
		c1,0.5,2,0.9,3,1.4c1.3,0.6,2.4,2.6,1.6,2.8c-0.3,0.1-0.6,0.1-0.9,0c-0.1,0-0.3-0.3-0.4-0.5c-0.6-1-1.7-1.9-3.3-2.3
		c-1.2-0.3-2.2-1.8-2.5-2.4c-0.1-0.2-0.1-0.3,0.1-0.4C112.4,73.7,112.6,73.7,112.8,73.7L112.8,73.7z M148.7,73.8
		c0.1,0,0.1,0.1,0.2,0.2c0.7,0.7,0.8,2.1,0.2,2.5c-0.7,0.4-1.3-0.3-0.7-0.9c0.2-0.3,0.2-0.3,0.2-1.1C148.6,74,148.6,73.8,148.7,73.8
		L148.7,73.8z M158.9,74.7c0.1,0,0.2,0.2,0.4,0.7c0.2,0.7,0.2,0.7,0.5,0.8c0.4,0.2,0.5,0.5,0.2,0.8c-0.6,0.6-1.2-0.3-1.2-1.8
		C158.8,74.8,158.8,74.7,158.9,74.7L158.9,74.7z M149.7,74.8c0.1,0,0.2,0.1,0.3,0.3c0.9,1,0.7,3.4-0.3,3.8c-0.3,0.1-0.4,0.1-0.6,0
		c-0.7-0.3-0.6-1.1,0.3-1.5C150.1,76.9,149.6,74.8,149.7,74.8L149.7,74.8z M105.7,75.5l3.6,1.8c0,0,1,2.1,1.4,2.8
		c0.3,0.5,0.9,1.1,0.3,1.4c-1.1,0.7-1.7,1.1-1.7,1.6c0,0.4,0.5,0.7,1.1,1.5c0.9,1,0.9,0.8,0.1,2.4c-0.6,1.1-1.1,3.6-1.1,3.6
		l-3.6,1.8c1.1-2.6,2.3-4.7,3.7-6.3c-1-0.8-1.9-1.6-2.8-2.7c0.7-0.9,1.6-1.6,2.4-2.4C107.3,79.1,106.3,77.3,105.7,75.5L105.7,75.5z
		 M150.7,75.6C150.7,75.6,150.7,75.6,150.7,75.6c0.2,0,0.5,0.4,0.8,1c0.4,0.8,0.4,1.7,0.1,2.1c-0.6,0.6-1.4-0.2-0.8-0.8
		c0.4-0.3,0.3-1,0-1.7C150.6,75.7,150.6,75.6,150.7,75.6L150.7,75.6z M105.3,75.9c0.9,2,2,3.6,3,5.1l-2.3,2.4
		c0.7,0.8,1.6,1.7,2.8,2.7c-1.5,1.7-2.5,4-3.4,6.2L105.3,75.9z M158.5,75.9c0.1,0,0.2,0.2,0.3,0.7c0.1,0.6,0.2,0.8,0.6,0.9
		c0.6,0.2,0.6,0.8,0,1c-0.2,0.1-0.6-0.1-0.7-0.4c-0.2-0.4-0.3-0.9-0.3-1.4C158.4,76.2,158.4,75.9,158.5,75.9L158.5,75.9z
		 M171.4,76.3c0.9,0.2,1.2,1.1,1,2.7c-0.2,2.2-0.5,4.6-0.7,6.6c-0.3,2.3-0.4,3.5-0.5,3.6c-0.2,0.3-0.2-0.8-0.1-2
		c0.2-1.7,0.3-3.2,0.5-4.9c0.4-3.8,0.3-5-0.4-5.4c-0.5-0.3-0.8-0.1-0.4,0.3c0.8,0.6,0.7,0.8-0.1,10.2c-0.1,1-0.1,1.7-0.1,1.7l-1-0.6
		c0,0-0.1-0.8-0.2-2c-0.2-2.3-0.4-4.7-0.5-6.9c-0.2-2.3,0.3-3.2,1.7-3.2C170.9,76.2,171.1,76.2,171.4,76.3L171.4,76.3z M152.6,77.7
		c0.1,0.3,0.6,2.6-0.7,2c-0.3-0.2-0.4-0.5-0.1-0.8c0.3-0.3,0.4-0.8,0.2-1.5c-0.1-0.4-0.2-0.8-0.2-0.8
		C152.1,76.7,152.6,77.6,152.6,77.7L152.6,77.7z M114,76.9c1.1,0.2,2.3,0.8,3.1,1.6c0.5,0.5,0.5,0.9-0.3,1c-0.7,0.1-0.7,0.2-1.1-0.1
		c-0.2-0.1-0.5-0.4-0.8-0.5C113.8,78.9,113.2,76.8,114,76.9L114,76.9z M158.3,77.6c0.1,0.2,0.1,0.6,0.2,0.8c0.2,0.7,0.7,1.3,1.1,1.2
		c0.3,0,0.7,0.1,0.8,0.4c0.1,0.3-0.1,0.6-0.4,0.7c-0.4,0.2-0.8,0.1-1.1-0.2C158.2,79.8,157.8,77.8,158.3,77.6L158.3,77.6z M153,77.6
		c0.4,0.2,0.9,1.4,1,2.4c0,0.7-0.1,1.6-0.7,2c-0.4,0.2-0.8,0.1-1-0.2c-0.2-0.4-0.1-0.9,0.4-1.1c0.5-0.2,0.7-1.4,0.4-2.5
		C153,78,152.8,77.5,153,77.6L153,77.6z M111.1,78.1l2.9,1.5c-0.4,0.6-0.8,1.1-1,1.7C112.1,80.2,111.6,79.2,111.1,78.1L111.1,78.1z
		 M154.1,78.6c0,0,0.2,0.2,0.4,0.3c0.7,0.7,1,2,0.6,2.4c-0.3,0.4-1,0.3-1.1,0c0-0.2,0.2-0.6,0.3-0.7c0.1-0.3,0.2-1,0-1.5
		C154.1,78.8,154.1,78.6,154.1,78.6L154.1,78.6z M134,78.9l3.3,0.1l11,9.9l-1,0l-10.1-9.2l-3.1,0L134,78.9z M115.1,80.7
		c-1.3,2-1.6,4.5-0.8,6.7c0.6,1.6-0.7,1.7-1.2,0.6c-0.4-0.8-0.6-2.1-0.5-3.6c0.2-2.3,1.2-4.7,2.1-5
		C115.5,79.2,115.4,80.4,115.1,80.7L115.1,80.7z M160.1,85.5c-0.3,1.6-0.9,2.3-1.8,2.7c-3.6,1.3-5.1-5.9-1.8-7.6
		C159.6,79.4,160.5,83.4,160.1,85.5L160.1,85.5z M133.8,80.7l3.1,0.1c2.8,2.6,5.8,5,8.9,8.1h-1.5c0,0-0.4-0.4-0.5-0.5
		c-2.7-2.4-4.7-4.4-7.4-6.7l-2.8-0.1L133.8,80.7z M157.4,81.2c-1.7,0.1-1.8,2.3-1.8,3.2c0.1,1.2,0.6,3.1,2.2,2.9
		c1.1-0.1,1.7-1.5,1.6-3.1C159.3,82.7,158.6,81.2,157.4,81.2L157.4,81.2z M133.5,82l2.7,0.1c2.4,2.1,4.9,4.3,7.4,6.8h-1.2
		c0,0-0.3-0.3-0.4-0.4c-2-1.8-4.1-3.9-6.1-5.5l-2.8-0.1L133.5,82z M157.4,82.1c0.5,0.2,0.6,1.3,0.1,1.8c-0.3,0.3-0.9-0.3-1-1.1
		C156.5,82.3,157,81.9,157.4,82.1L157.4,82.1z M112.6,82.2c-0.2,0.7-0.4,1.6-0.5,2.5l-1.1-1.4L112.6,82.2z M158.3,83.6
		c0.3,0,0.5,0.2,0.5,0.5c0,0.3-0.2,0.5-0.5,0.5s-0.5-0.2-0.5-0.5C157.8,83.8,158,83.6,158.3,83.6L158.3,83.6z M135.5,83.8l5.4,5.1
		l-1.5,0l-4.4-4l-2.8-0.1l0.6-1L135.5,83.8z M156.5,83.9c0.3,0,0.5,0.2,0.5,0.5s-0.2,0.5-0.5,0.5c-0.3,0-0.5-0.2-0.5-0.5
		S156.2,83.9,156.5,83.9L156.5,83.9z M162.9,83.9c3,2.4,7.3,5.5,11.8,8.1c0,0-0.7,0.6-1.4,0.8c-3.5-1.9-7.6-4.6-10.2-6.8
		c-2.4,3.6-7.1,10-11.2,13c-2.6,1.9-3.9,4.2-3.9,6.8c0,2.8,1,4.6,3.7,6.9c1.8,1.5,3.7,3.3,3.7,3.3l-1,0.9c-0.2,0-3-2.4-5.8-5.3
		c-1.6-1.6-2.2-5-2-6.8c0.4-2.5,1.2-4.3,3.6-6.2c0.9-0.7,1.8-1.3,2.6-2.1C160.3,88.6,162.9,83.9,162.9,83.9L162.9,83.9z M158,85.2
		c0.3,0.6,0.4,1.3-0.4,1.4c-0.5,0-0.8-0.8-0.4-1.6C157.5,84.4,157.8,84.9,158,85.2L158,85.2z M132,85.1l2.9,0.1c0,0,2.9,2.5,4.3,3.9
		h9.8c5.4,0,9.8,0,9.8,0c0.1,0.1-0.7,1.1-0.7,1.1l-32.2,0c0,0,2-1.8,2.7-2.3C129.8,87.1,131,86.3,132,85.1L132,85.1z M112.2,86.3
		c0.2,0.8,0.4,1.6,0.7,2.3l-2.2,1.2C111.1,88.6,111.6,87.4,112.2,86.3L112.2,86.3z M174.3,92.8c-0.4,1.2-1.6,3.7-3,5.6
		c-0.3,0.4-0.5,0.6-0.5,0.6l2.7,2.6l-2.4,2.5c1.3,1.4,2.5,3.5,3.1,5.2c-1.1-0.4-1.7-0.7-3-1.4c-0.4-0.9-0.8-1.9-1.2-2.8
		c-1-2-1-1.8-0.2-2.4c1.2-0.8,1.5-1,1.2-1.5c-0.2-0.3-1.6-1.9-1.7-2c-0.1-0.1-0.1-0.3,0.2-0.7c0.8-1.4,1.4-3,1.8-4.4L174.3,92.8z
		 M174.8,92.9l0.1,16.5c-1-2-2-4-3.1-5.3c0-0.1,2.5-2.6,2.5-2.6c-0.9-0.9-1.5-1.4-2.8-2.6C172.8,97.2,173.7,94.8,174.8,92.9
		L174.8,92.9z M105.4,93.4l3.1,1.8c-0.2,2.3-0.4,5.4-0.7,8.5c-0.3,2.4-0.4,3.5,0,4.2c0.4,0.5,1.3,1,1.3,1c-1.7,0.7-2.3,2.6-0.4,4.1
		c0,0-0.5,0.4-0.7,0.6l-2.6-1.9L105.4,93.4z M154.5,94.3c-0.8,0.9-2,2.2-3,2.8c-1.3,0.8-3,2.4-2.9,2.4c0,0-1.8,0-3.1-0.1l-4.3-3.9
		c0,0,0.2-0.1-5.7,0c-7.6,0.1-13.8,0-13.8,0l0.9-1.2L154.5,94.3z M169.9,95c-0.4,1.4-1.1,2.6-1.9,3.8c-0.2-0.8-0.3-1.7-0.7-2.4
		L169.9,95z M108.9,95.5l0.4,0.3c0,0-0.2,2.9-0.3,3.7c-0.1,1.5-0.2,2.9-0.3,4.5c-0.3,3.1-0.2,3.6,0.4,4.1c0.5,0.4,0.8,0.2,0.4-0.3
		c-0.3-0.4-0.3-0.3-0.4-0.9c-0.1-0.4,0-0.9,0-2.4c0.5-8.2,0.6-8.5,0.6-8.5l0.9,0.6c-0.1,0.1,0.9,8.3,0.8,10.3
		c-0.1,2.4-3.3,1.9-3.5,0.1c-0.1-0.4,0.5-7.1,0.5-7.1L108.9,95.5z M135,95.9l1.3,0l7.8,7.1l2.6,0.1l-0.2,0.9l-2.6,0L135,95.9z
		 M139.8,95.9h1.2l4.4,4l2.7,0l-0.5,0.8l-2.7-0.1L139.8,95.9z M138.3,95.9l6.6,5.9l2.2,0.1l-0.3,0.8l-2.7-0.1l-7.4-6.7L138.3,95.9z
		 M132,96h1.4l10.3,9.2l2.7,0l0,0.8l-3.2,0L132,96z M166.5,96.2c0.5,0.1,0.8,0.7,1.2,2.6c0.4,2.3-0.5,5.9-1.7,6.6
		c-0.6,0.5-1.3,0-0.9-0.7c1.4-2.1,1.6-5.5,0.8-7.4C165.6,96.8,165.9,96.1,166.5,96.2L166.5,96.2z M123,96.6c3.3,0,4.1,6.8,0.9,7.7
		c-2.1,0.3-3.2-1.6-3.5-3.3C120,98.9,121,96.5,123,96.6L123,96.6z M121.2,100.6c0.2,1.3,1,2.9,2.2,2.8c1.6-0.2,1.8-2.3,1.6-3.4
		c-0.2-1.3-0.9-2.5-2-2.5C121.3,97.3,121,99.6,121.2,100.6L121.2,100.6z M122.9,98c0.5,0,0.8,0.6,0.7,1.4c-0.1,0.5-0.3,1.1-0.8,0.7
		c-0.3-0.2-0.5-0.9-0.4-1.4C122.4,98.3,122.6,98,122.9,98L122.9,98z M168.1,99.5l1.5,1.8l-1.7,1.2
		C168.1,101.6,168.2,100.6,168.1,99.5L168.1,99.5z M124,99.7c0.3,0,0.5,0.2,0.5,0.5s-0.2,0.5-0.5,0.5c-0.3,0-0.5-0.2-0.5-0.5
		S123.8,99.7,124,99.7L124,99.7z M122.3,100c0.3,0,0.5,0.2,0.5,0.5s-0.2,0.5-0.5,0.5c-0.3,0-0.5-0.2-0.5-0.5S122,100,122.3,100
		L122.3,100z M123.3,100.7c0.3,0.1,0.4,0.3,0.5,0.5c0.3,0.5,0.4,1.1,0.1,1.4c-0.5,0.6-1.2,0-1.1-0.9
		C122.9,101,123.1,100.6,123.3,100.7L123.3,100.7z M127.6,102.6c0.7,0,0.9,0.8,0.3,1.3c-0.4,0.3-0.5,1.1-0.2,2.4
		c0.2,0.9,0.1,1-0.4,0.2C126.3,105,126.5,102.6,127.6,102.6L127.6,102.6z M125.9,103.1c0.6,0,0.8,0.5,0.5,0.8
		c-0.2,0.2-0.2,0.9,0,1.4c0.3,0.8,0.3,1-0.4,0.3C125.1,104.6,125.2,103.1,125.9,103.1L125.9,103.1z M167.6,103.4
		c0.7,1,1.4,2.2,1.9,3.6l-3.1-1.4L167.6,103.4z M122.2,107.3c-0.2-0.3-0.3-1.1-0.5-1.4c-0.1-0.4-0.3-0.7-0.5-0.7
		c-1.3,0.1-1.3-1.1-0.5-1.4C122.3,103.3,122.9,107.1,122.2,107.3L122.2,107.3z M128.7,106c-0.2,0.7-0.1,1.1,0,1.8
		c0,0.3,0.1,0.4-0.2,0.2c-0.6-0.5-1-2.4-0.4-2.7C128.9,104.7,129.1,105.5,128.7,106L128.7,106z M159.8,105.1c0.3,0,0.6,0.2,0.8,0.7
		c0.2,0.6,0.2,2.2,0.1,3c-0.2,1.3-0.5,2.4-0.6,3.3c-0.4,0.5-1.5-1.3-1.6-2.8c-0.2-1.2,0.2-3.6,1.1-4.1
		C159.7,105.1,159.8,105.1,159.8,105.1L159.8,105.1z M164,105.3c0.3,0,0.2,0.1,0.4,0.3c0.3,0.3,0.4,0.4,0.9,0.5
		c0.9,0.3,1.9,1.5,1.5,1.9c-0.3,0.2-1.1-0.2-1.4-0.3c-0.3-0.1-0.7-0.2-0.8-0.3c-0.7-0.3-1.8-1.6-1.5-1.9
		C163.3,105.4,163.8,105.3,164,105.3L164,105.3z M161.9,105.6c0.6,0,0.7,0.1,1,0.7c0.5,0.9,1.3,1.5,2.6,1.9c1.6,0.5,3,1.4,2.9,3.2
		c-0.4,0-0.8,0-1.2,0.1c-0.4-1.3-1.6-2-2.5-2.2c-2.2-0.5-4.2-2.7-3.7-3.6C161.3,105.5,161.6,105.6,161.9,105.6L161.9,105.6z
		 M123.9,105.7l19,16.6c-8-3-15.4-2.9-22.5-1.8L123.9,105.7z M132,106.8c0,0.5-0.7,0.6-0.9,0.8c-0.4,0.3-0.3,1.2-0.2,2.2
		c0.1,0.6,0,0.6-0.4,0.1c-0.6-0.9-0.6-2.4-0.2-3.3C130.9,105.5,132,106,132,106.8L132,106.8z M121,106c0.7,0.1,0.9,1.1,1,1.7
		c0,0.9-0.3,0.9-0.4,0c-0.1-0.4-0.2-0.5-0.5-0.6C120.4,106.8,120.3,106,121,106L121,106z M129.9,107c-0.2,0.2-0.2,1.2,0,1.8
		c0.1,0.4-0.1,0.4-0.3,0.1c-0.8-0.9-0.9-2.5-0.1-2.8C130,105.9,130.2,106.7,129.9,107L129.9,107z M121.7,108.8c0,0.9-0.2,1-0.5,0.1
		c-0.1-0.2-0.2-0.4-0.3-0.5c-0.5-0.4-0.6-0.6-0.3-0.9C121.3,106.9,121.6,108.5,121.7,108.8L121.7,108.8z M124.4,108l-2.6,11
		c6.3-0.5,9.2-0.6,16,0.7L124.4,108z M132.1,108.2c0.4,0.1,0.5,0.6,0.1,1.1c-0.1,0.2-0.3,0.5-0.1,1.3c0.2,1.1-0.2,0.7-0.7-0.3
		C131.1,109.6,131.2,108,132.1,108.2L132.1,108.2z M120,108.2c0.7,0,1.3,1.1,1.3,2.3c0,1-0.1,0.9-0.5,0c-0.3-0.6-0.5-0.9-0.9-1
		C119,109.2,119.1,108.2,120,108.2L120,108.2z M124.6,108.5l11.9,10.4c-4.9-0.8-9.7-0.8-14.4-0.3L124.6,108.5z M134.6,108.9
		c0.9,0,1.3,1.2,0.2,1.6c-0.7,0.2-0.4,1.6-0.3,2.4c0,0.3-0.1,0.3-0.2,0.1C133.5,111.9,133.1,109.2,134.6,108.9L134.6,108.9z
		 M133.3,110.2c-0.2,0.3-0.2,0.6-0.1,1.1c0.3,1.1,0.4,1.3-0.3,0.8c-0.7-0.7-1-2.1-0.4-2.5C133.2,109.1,133.8,109.6,133.3,110.2
		L133.3,110.2z M109.7,109.4c1.1,0,1.9,0.7,1.9,1.7c0,1.1-0.7,1.8-1.8,1.9c-1.1,0.1-1.8-0.8-1.9-1.8
		C108,110.3,108.5,109.4,109.7,109.4L109.7,109.4z M109.7,109.8c-1.3,0-1.7,1.7-0.7,2.4c0.5,0.3,0.8,0.2,0.4-0.1
		c-0.7-0.7-0.4-1.8,0.5-2C110.4,110.1,110.2,109.8,109.7,109.8L109.7,109.8z M125.2,110.1l-1.5,7.4c3.1-0.5,6.9-0.3,9.8-0.1
		L125.2,110.1z M120,110.4c0.8,0,1,1.1,1,1.6c0,0.6-0.1,0.9-0.2,0.6c-0.3-0.7-0.5-1.1-0.8-1.1c-0.1,0-0.3-0.1-0.4-0.2
		C119.4,110.8,119.6,110.4,120,110.4L120,110.4z M125.3,110.7l1,0.9c-0.6-0.3-1.2,0.5-1.2,0.5L125.3,110.7z M135.7,112.1
		c-0.3,0.4-0.3,1.1-0.1,2c0.1,0.3-0.2,0.1-0.4-0.2c-0.5-0.6-0.7-1.2-0.6-1.8C134.7,110.7,136.4,111,135.7,112.1L135.7,112.1z
		 M119.7,111.4c0.7,0.1,0.9,1.4,0.9,1.8c0,0.4-0.1,0.7-0.2,0.5c-0.2-0.6-0.5-1.4-0.8-1.6C119.1,111.8,119.2,111.5,119.7,111.4
		L119.7,111.4z M169.6,112.9c0,0.5-0.2,1-0.5,1.1c-0.3,0.2-0.5-0.1-0.7-0.6c-0.1-0.4-0.2-0.6-0.2-0.6s-0.1,0.5-0.1,0.6
		c-0.2,0.7-1,0.7-1.3-0.1c-0.3-0.9,0.6-1.9,1.3-1.8C169,111.6,169.6,112.2,169.6,112.9L169.6,112.9z M126.1,111.9
		c0.2,0,1.1,0.4,1.1,0.4l0.9,0.8c0,0-0.8-0.4-1.1-0.5c-0.7-0.2-0.7-0.2-1.2,0.2c-0.6,0.5-1,0.8-1,0.8l0.2-1
		C124.9,112.6,125.7,111.9,126.1,111.9L126.1,111.9z M120.3,114.4c0.1,1.1-0.2,1.2-0.5,0.1c-0.2-0.9-0.5-1.2-0.9-1.2
		c-0.8,0.1-1-1-0.3-1.3C119.9,111.7,120.2,114,120.3,114.4L120.3,114.4z M165.2,112l1.2,0.6l0.3,1.3l-1.1-0.3L165.2,112z
		 M138.1,112.2c1.2-0.3,1.3,1.1,0.4,1.3c-0.5,0.1-0.5,1-0.4,2.2c0,0.3,0.1,0.6,0.1,0.7c-0.1,0.2-0.4-0.1-0.7-0.9
		C136.9,114,137.1,112.4,138.1,112.2L138.1,112.2z M171.3,112.1l-0.3,1.4l-1-0.1l0-0.9L171.3,112.1z M136.9,113.1
		c-0.6,0.8-0.1,1.6,0.1,2.2c0,0.4-0.5,0-0.7-0.5c-0.6-1.1-0.6-2-0.1-2.4C136.9,111.9,137.2,112.7,136.9,113.1L136.9,113.1z
		 M126.4,112.9c0.2,0,0.5,0.1,1,0.3c0.4,0.2,1.4,0.6,1.4,0.6l1.3,1.2c0,0-1.1-0.4-1.9-0.8c-1.8-0.8-1.5-0.8-3,0.3
		c-0.4,0.3-0.8,0.7-0.8,0.7l0.2-0.9c0,0,0.5-0.5,1.2-1C126.1,113,126.2,112.9,126.4,112.9L126.4,112.9z M109.7,113.3
		c0.9,0,1.5,0.7,1.7,1.5c0.1,0.5,0,0.9,0,1.4c-0.6,4.9-0.9,9.4-1.5,13.9c-0.1,0.2-0.2,0.1-0.2-0.3c-0.7-4.1-1.1-8.6-1.7-12.6
		c-0.1-1.5-0.5-3.5,1.4-3.9C109.5,113.3,109.6,113.3,109.7,113.3L109.7,113.3z M109.7,113.9c-0.4,0-0.9,0.3-1.1,0.7
		c-0.3,0.7-0.3,2.2,0.4,6.7c0.1,0.4,0.1,1,0.2,1.4c0.1,1.2,0.3,2.1,0.4,2.3c0.2,0.3,0.2,0,0.1-1.2c-0.1-0.6-0.2-1.5-0.2-2
		c-0.3-2.1-0.4-3.6-0.5-5.6c-0.1-1,0.3-1.7,1-1.8c0.4-0.1,0.4-0.3,0-0.4C109.8,113.9,109.8,113.9,109.7,113.9L109.7,113.9z
		 M170.5,113.9c1.3,0,1.8,1.9,0.5,2.5c-0.5,0.2-1.3,0.1-1.5-0.3c-0.1-0.3,0-0.5,0.3-0.6c0.3-0.2,0.7-0.3,0.7-0.3s-0.7-0.1-0.9-0.5
		C169.1,114.1,169.9,113.9,170.5,113.9L170.5,113.9z M119.9,116c0,0.4-0.2,0.2-0.2,0c-0.1-0.5-0.4-1-0.7-1.2
		c-0.3-0.2-0.4-0.6-0.2-0.8C119.6,113.3,119.9,115.7,119.9,116L119.9,116z M165.5,113.9c0.3,0,0.8,0.1,1.1,0.4
		c0.4,0.4,0.4,0.5-0.3,0.8c-0.3,0.1-0.5,0.2-0.5,0.2s0.3,0.1,0.5,0.2c0.6,0.2,0.6,0.6,0,1c-0.8,0.6-2-0.2-2-1.2
		C164.4,114.4,164.9,113.9,165.5,113.9L165.5,113.9z M168.4,113.9l1.2,1.4l-1.4,1.5l-1.3-1.5L168.4,113.9z M126.7,114
		C126.7,114,126.7,114,126.7,114c0.4,0,1,0.3,2.5,0.9c0.8,0.3,1.8,0.7,1.8,0.7l1.3,1.2c0,0-1.8-0.6-2.5-0.9
		c-0.1-0.1-0.4-0.2-0.7-0.3c-0.2-0.1-0.8-0.3-1.3-0.5c-1-0.4-1-0.4-1.4-0.1c-0.1,0.1-0.5,0.4-0.8,0.6c-0.3,0.2-0.7,0.5-0.9,0.7
		c-0.3,0.2-0.6,0.5-0.6,0.5l0.2-1.1c0,0,0.2-0.2,0.5-0.5c0.3-0.2,0.8-0.6,1.1-0.8C126.2,114.2,126.4,114.1,126.7,114L126.7,114z
		 M139.8,115c0,0.2,0,0.3-0.3,0.6c-0.3,0.4-0.4,0.9-0.1,1.7c0.1,0.2,0.2,0.5,0.1,0.5c-0.4,0.4-1.3-1.9-1.1-2.6
		C138.7,114.3,139.6,114.3,139.8,115L139.8,115z M118.8,115.1c0.3,0,0.5,0.2,0.7,0.6c0.4,1.1,0.2,2.5-0.3,1.2
		c-0.1-0.3-0.3-0.6-0.4-0.7c-0.1-0.2-0.5-0.3-0.5-0.6C118.4,115.3,118.5,115.2,118.8,115.1L118.8,115.1z M127,115.2
		c0.2,0,0.4,0.1,0.8,0.2c0.4,0.1,1.3,0.5,1.9,0.7c0.9,0.3,1.8,0.8,1.8,0.8l-2-0.1c0,0-0.7-0.2-1.1-0.4c-1.4-0.6-1.4-0.6-2.1,0
		c-0.3,0.2-0.6,0.5-0.6,0.5l-1,0.1c0,0,0.5-0.5,1.1-1c0.2-0.2,0.5-0.4,0.7-0.5C126.7,115.2,126.8,115.2,127,115.2L127,115.2z
		 M142.3,115.6c0.5-0.1,0.8,0.4,0.8,0.7c0,0.4-0.4,0.7-0.9,0.8c-0.1,0.4-0.4,1.3-0.2,2.7c0.1,0.6-0.1,0.6-0.4,0
		C141.2,118.8,140.5,115.9,142.3,115.6L142.3,115.6z M140.8,116.6c-0.2,0.5-0.3,0.9-0.2,1.5c0.1,0.7,0.2,0.9-0.2,0.4
		c-0.8-1-0.9-2.6-0.2-2.8C140.9,115.6,141,116.3,140.8,116.6L140.8,116.6z M117.9,115.9c1.2,0.2,1.5,2.2,1.4,3.1
		c-0.3,1.1-0.3,0.3-0.4-0.1c-0.3-1.1-0.6-1.6-1-1.7C116.9,117,117,115.8,117.9,115.9L117.9,115.9z M127,116.3
		C127,116.3,127.1,116.3,127,116.3c0.4,0.1,1.5,0.4,1,0.5l-1.6,0C126.2,116.8,126.7,116.3,127,116.3L127,116.3z M168.8,116.6
		c0.2,0,0.4,0.2,0.6,0.4c0.6,0.6,0.3,1.4-0.4,1.9c-1.2,0.7-2.5-0.6-1.9-1.8c0.4-0.7,0.8-0.5,1.1,0.4c0.1,0.1,0-0.1,0.1-0.4
		C168.5,116.8,168.6,116.6,168.8,116.6L168.8,116.6z M166.8,116.7l-0.4,1.4l-1.4,0.7l0.5-1.7L166.8,116.7z M169.8,116.9l1.1,0.1
		l0.6,1.8l-1.6-0.7L169.8,116.9z M142.9,118c0.8,0,0.9,0.8,0.4,1.2c-0.3,0.3-0.4,0.6-0.3,1.2c0,0.3,0.1,0.6,0.1,0.6
		c0,0.1-0.1,0.1-0.3-0.1C142,120,142.1,117.9,142.9,118L142.9,118z M117.9,118.3c0.5,0,1.1,1.5,0.8,2.1c-0.2,0.3-0.4,0.3-0.4-0.1
		c0-0.3-0.2-0.7-0.6-0.7C117.1,119.3,117.3,118.3,117.9,118.3L117.9,118.3z M144.4,119.2c0.4,0.2,0.4,0.7,0.1,0.9
		c-0.3,0.2-0.4,0.4-0.4,0.9c0.1,1.2-0.6,0.4-0.7-0.7C143.4,119.7,143.7,118.8,144.4,119.2L144.4,119.2z M117.5,119.6
		c0.4,0,0.8,0.7,0.7,1.1c-0.1,0.3-0.2,0.3-0.4,0c-0.1-0.1-0.3-0.1-0.4-0.2C116.8,120.3,116.9,119.6,117.5,119.6L117.5,119.6z
		 M128.2,120.1c5.1,0,10.4,0.8,14.8,2.5l-0.4,0.7l-1.2-0.4l-0.4,1l0.9,0.4l-0.4,1c-5.2-1.7-10.8-3-20.1-1.6c-0.5-0.3-1.3-1-1.3-1
		l0.7-0.2l-0.1-1l-1.9,0.3l-0.5-0.6C121.3,120.5,124.7,120.1,128.2,120.1L128.2,120.1z M145.2,120.3c0.5,0,0.8,0.5,0.4,0.8
		c-0.3,0.2-0.8,0.2-0.9,0.1C144.5,120.9,144.8,120.3,145.2,120.3L145.2,120.3z M127.5,120.9l0,1.1l1.5,0l0-1L127.5,120.9z
		 M130.1,121l0,1l1.5,0l0.1-1L130.1,121z M126.2,121l-1.5,0.1l0,1l1.5-0.1L126.2,121z M133,121.2l0,1l1.5,0.2l0.1-1L133,121.2z
		 M123.4,121.2l-1.5,0.2l0.1,1l1.5-0.2L123.4,121.2z M135.9,121.6l-0.1,1.1l1.4,0.2l0.2-1L135.9,121.6z M160.7,121.9
		c0.7,1,1.3,1.8,1.8,2.8c0.6,1.4,1,3.2,1,4.6c0,0.9-0.6,0.7-0.7-0.2c-0.5-3.9-5.2-4.4-7-0.9c-0.5,1-0.6,2.3-0.3,3.7
		c0.9,5,7.2,9.8,9.1,15c3.7-7.6,6.9-8.8,8.6-14.9c1.4-4.7-3.3-8.3-6.6-5.2c-0.6,0.6-1.2,1.6-1.2,2.3c-0.1,1.1-0.6,0.9-0.7,0
		c0-1,0.4-2.8,1-4.5c0.3-0.9,0.8-1.9,1.4-2.8H160.7z M138.7,122.2l-0.1,1.1l1.4,0.3l0.2-1L138.7,122.2z M128.5,123.4
		c4.8,0,9.1,0.8,12.8,2.2c0,0-0.5,1-0.6,1.1c-2.6-1-7.1-2-10.1-2.1c-1.1,0-1.4-0.1-1.8-0.2c-2.3-0.8-4.3-1.1-6.2,0l-0.8-0.5
		C124.1,123.6,126.4,123.4,128.5,123.4L128.5,123.4z M180.6,127.4c0,0,0.3,0.4,0.4,0.6c0.7,0.9,1.2,2.5,0.7,2.5
		c-0.1,0-0.2-0.1-0.4-0.3c-0.7-1-2-0.6-2.5,0.1c-0.5,0.7-0.6,1.9-0.2,2.8c1.3,2.7,3.9,5.8,3.8,6.2c1.4-3,2.5-3.9,3.5-6.1
		c0.4-1.1,0.4-1.7,0.1-2.6c-0.4-1.2-2.2-1.7-2.9-0.5c-0.2,0.4-0.4,0.5-0.5,0.3c-0.3-0.3,0.2-1.9,0.8-2.6c0.1-0.1,0.3-0.4,0.3-0.4
		H180.6z M108.4,129.5c1.1,0,1.6,1.7,0.5,2.4c-0.3,0.2-0.7,0.1-1,0c-0.9-0.4-1-1.8,0.1-2.3C108.1,129.5,108.3,129.5,108.4,129.5
		L108.4,129.5z M144,129.6c0.4,0.2,1.8,0.9,1.8,0.9l-10.1,18.3l-2.4,0L144,129.6z M111.4,129.6c0.6-0.1,1,0.5,1.2,0.9
		c0.2,0.6-0.2,1.6-1.2,1.6C110.1,132,109.6,129.8,111.4,129.6L111.4,129.6z M146.2,130.6c0.3,0.2,1.3,0.3,1.3,0.5
		c0,0.1,0,0.3-0.1,0.5c-0.1,0.6,0.1,1.2,0.4,1.7c0.6,0.8,0,0.4-0.6,0.4c-1.3-0.3-3,1.4-2.3,3.3c0.1,0.4,0.1,0.4-0.6,0.6
		c-1.6,0.5-2.3,2.2-1.5,3.7c0.4,0.8,0.4,0.7-0.3,0.8c-1.9,0.2-3.1,1.9-2.2,3.6c0.1,0.3,0,0.3-0.4,0.4c-1.3,0.2-1.9,1.3-2.1,2.6
		l-1.7,0L146.2,130.6z M147.9,131.2l3.4,0.9c-1.4,4.7-1.6,10.2,0.1,16.6l-7.7,0c1.1-1,0.6-2.3-0.6-2.6c1.2-0.7,1.2-2.6-0.2-2.8
		c-1.3-0.2-1.9,1-1.4,2.2l-0.5,0.1c0,0-0.2-0.3-0.3-0.5c-0.5-1.4,0.5-2.8,2.3-2.8c1.1,0,1.3-0.3,0.7-1c-1.1-1.2-0.7-2.8,0.7-3.5
		c0.6-0.3,1-0.1,1-0.1l0,0.8c0,0-0.3,0-0.5,0.1c-1.5,0.2-1.2,2.7,0.3,2.6c0.8,0,1.5-0.7,1.5-1.6c0-0.3,0-0.6,0-0.6
		c0.8,1.3,2.1,1.4,2.7,0.3c0.7-1.3-0.5-2.1-1.8-1.9c0,0,0.3-0.2,0.4-0.3c1.3-0.7,0.9-2.6-0.6-2.6c-1,0-1.6,0.9-1.2,1.9
		c0.1,0.2,0.2,0.4,0.2,0.4l-0.6,0.1c0,0-0.1-0.1-0.2-0.2c-1-1.6,0.6-3.3,2.6-2.9c0.7,0.2,0.7-0.3,0.3-0.7
		C147.9,132.7,147.5,132,147.9,131.2L147.9,131.2z M109.9,131.9l1.8,3.1l-2,3.6l-2-3.4L109.9,131.9z M109.7,133.5l-1.2,1.7l1.2,1.9
		l1.1-2L109.7,133.5z M109.7,134.1l0.8,1.1l-0.8,1.3l-0.8-1.2L109.7,134.1z M146.1,137.5c0.4,0,0.7,0.3,0.7,0.7
		c0,0.4-0.3,0.7-0.7,0.7c-0.4,0-0.7-0.3-0.7-0.7C145.4,137.8,145.7,137.5,146.1,137.5L146.1,137.5z M182.7,141.2
		c-0.5,0-1.1,0.2-1.7,0.5c-0.6,0.3-0.6,0.3-0.9,0.2c-0.6-0.4-0.8-0.5-1.4-0.5c-0.4,0-0.7,0-0.7,0l0.1,1.6c1.4,0,1.8,0.5,1.5,1.3
		c-0.3,0.4-0.2,6.1-0.1,8.3c0,1.1,0.5,2.1,1.1,2.7c1,0.9,2.9,0.8,3.9,0.1c0.7-0.5,1-1.4,1.2-2.2c0.1-1.8,0-3.6,0-5.3l1.1,0l0-1.6
		l-1.1-0.1c0,0,0,0,0-1.1c0.1-2.5-1.2-3.7-2.9-3.8C182.8,141.2,182.8,141.2,182.7,141.2L182.7,141.2z M182.6,142.8
		c0.9,0.1,1.3,0.4,1.5,1.3c0.2,0.6,0.2,1.3,0.1,1.5c-0.2,0.3-1-0.3-2.1-1.6c-0.4-0.4-0.5-0.7-0.5-0.7
		C181.9,142.9,182.3,142.8,182.6,142.8L182.6,142.8z M180.9,145c1,0.8,1.1,1.7,3.4,2.5c0,0,0.1-0.1,0,2.7c0,3.1-0.2,3.7-1.2,4
		c-0.8,0.2-1.6-0.2-1.9-0.9c-0.3-0.8-0.4-2.7-0.4-6.3C180.9,145.6,180.9,145,180.9,145L180.9,145z M141.4,145.9
		c0.4,0,0.7,0.3,0.7,0.7c0,0.4-0.3,0.7-0.7,0.7c-0.4,0-0.7-0.3-0.7-0.7C140.7,146.2,141,145.9,141.4,145.9L141.4,145.9z
		 M140.3,146.4c-0.1,0,0,0.6,0.2,0.9c-1,0.1-1.3,0.8-1.4,1.5l-0.9,0C138.3,146.6,140.2,146.5,140.3,146.4L140.3,146.4z M140.3,146.4
		"/>
	<g>
		<defs>
			<rect id="SVGID_3_" x="72.7" y="5.4" width="134.8" height="174.4"/>
		</defs>
		<clipPath id="SVGID_8_">
			<use xlink:href="#SVGID_3_"  overflow="visible"/>
		</clipPath>
		<path clip-path="url(#SVGID_8_)" fill="none" stroke="#000000" stroke-width="0.2" d="M90.8,21.3V5.7 M88.6,23.5H73 M189.5,21.3
			V5.7 M191.7,23.5h15.6 M90.8,163.3v15.6 M88.6,161.1H73 M189.5,163.3v15.6 M191.7,161.1h15.6"/>
	</g>
</g>
<g>
	<path fill="#FFFFFF" d="M138.5,23.5h88.9c2.6,0,4.7,2.1,4.7,4.7V156c0,2.6-2.1,4.7-4.7,4.7h-88.9c-2.6,0-4.7-2.1-4.7-4.7V28.2
		C133.8,25.6,135.9,23.5,138.5,23.5L138.5,23.5z M138.5,23.5"/>
	<path fill="none" stroke="#000000" stroke-width="0.7974" d="M138.5,23.5h88.9c2.6,0,4.7,2.1,4.7,4.7V156c0,2.6-2.1,4.7-4.7,4.7
		h-88.9c-2.6,0-4.7-2.1-4.7-4.7V28.2C133.8,25.6,135.9,23.5,138.5,23.5L138.5,23.5z M138.5,23.5"/>
	<path fill="#D40000" d="M137,43.8v-1.2h1.2l2.5-12.9h1.4l2.7,12.9h0.9v1.2h-3.2v-1.2h0.9l-0.3-2h-3.3l-0.3,2h0.9v1.2H137z
		 M142.8,39.2l-1.4-6.9l-1.3,6.9H142.8z M142.8,39.2"/>
	<path fill="#D40000" d="M228.8,140.4v1.2h-1.2l-2.5,12.9h-1.4l-2.7-12.9H220v-1.2h3.2v1.2h-0.9l0.3,2h3.2l0.3-2h-0.9v-1.2H228.8z
		 M223,145l1.4,6.9l1.3-6.9H223z M223,145"/>
	<path fill="#D40000" d="M137.4,50.3c-0.7-1.5-0.8-4.1,1.3-4.5c1.6-0.2,2.2,0.5,2.3,1.6c0.1,0.3,0.2,0.3,0.3,0
		c0.1-1.1,1.2-1.8,2.1-1.6c2.4,0.4,2.3,3.1,1.5,4.9c-1.2,2.4-2.5,3.9-3.6,6.4C140,54.5,138.5,52.4,137.4,50.3L137.4,50.3z
		 M137.4,50.3"/>
	<path fill="#D40000" d="M177.6,79.5c3.1-0.2,4.8,2.5,5.1,4.6c0.2,0.3,0.3,0.2,0.4,0c0.2-2.7,2.6-4.9,4.8-4.6c3.7,0,5.9,4.1,5.3,7.6
		c-0.8,4.2-3,6.8-4.8,9.4c-1.9,2.7-4.6,6.6-5.4,8.5c0,0-2.7-4-6.1-8.8c-2.3-3.2-4.2-6.6-4.3-9.6C172.3,83,173.7,80,177.6,79.5
		L177.6,79.5z M177.6,79.5"/>
	<path fill="#D40000" d="M220.3,134.2c-0.7,1.5-0.8,4.1,1.3,4.5c1.6,0.2,2.2-0.5,2.3-1.6c0.1-0.3,0.2-0.3,0.3,0
		c0.1,1.1,1.2,1.8,2.1,1.6c2.4-0.4,2.3-3.1,1.5-4.9c-1.2-2.4-2.5-3.9-3.6-6.4C222.9,129.9,221.4,132,220.3,134.2L220.3,134.2z
		 M220.3,134.2"/>
	<g>
		<defs>
			<rect id="SVGID_2_" x="115.4" y="5.2" width="134.8" height="174.4"/>
		</defs>
		<clipPath id="SVGID_9_">
			<use xlink:href="#SVGID_2_"  overflow="visible"/>
		</clipPath>
		<path clip-path="url(#SVGID_9_)" fill="none" stroke="#000000" stroke-width="0.2" d="M133.6,21.1V5.5 M131.4,23.3h-15.6
			 M232.2,21.1V5.5 M234.4,23.3H250 M133.6,163.1v15.6 M131.4,160.9h-15.6 M232.2,163.1v15.6 M234.4,160.9H250"/>
	</g>
</g>
<g>
	<path fill="#FFFFFF" d="M172.7,23.9h88.9c2.6,0,4.7,2.1,4.7,4.7v127.8c0,2.6-2.1,4.7-4.7,4.7h-88.9c-2.6,0-4.7-2.1-4.7-4.7V28.6
		C168,26,170.1,23.9,172.7,23.9L172.7,23.9z M172.7,23.9"/>
	<path fill="none" stroke="#000000" stroke-width="0.7974" d="M172.7,23.9h88.9c2.6,0,4.7,2.1,4.7,4.7v127.8c0,2.6-2.1,4.7-4.7,4.7
		h-88.9c-2.6,0-4.7-2.1-4.7-4.7V28.6C168,26,170.1,23.9,172.7,23.9L172.7,23.9z M172.7,23.9"/>
	<path d="M171.6,40.4l1.4,0c0.3,0.9,0.9,1.7,1.7,2c2.3,0.5,3.8-0.7,4.3-2.2c0.6-1.8,0-4.3-1.6-5.2c-1.3-0.7-3.3-0.1-4.1,1.5l-1-0.6
		l0.5-5.9h6.5v1.4H174l-0.1,2.5c1.1-0.8,2.9-0.8,4-0.2c2.1,1,3.1,3.3,2.7,6.1c-0.6,2.7-1.8,4.3-4.7,4.5
		C172.7,44.1,171.6,41.9,171.6,40.4L171.6,40.4z M171.6,40.4"/>
	<path d="M262.6,144.6l-1.4,0c-0.3-0.9-0.9-1.7-1.7-2c-2.3-0.5-3.8,0.7-4.3,2.2c-0.6,1.8,0,4.3,1.6,5.2c1.3,0.7,3.3,0.1,4.1-1.5
		l1,0.6l-0.5,5.9H255v-1.4h5.3l0.1-2.5c-1.1,0.8-2.9,0.8-4,0.2c-2.1-1-3.1-3.3-2.7-6.1c0.6-2.7,1.8-4.3,4.7-4.5
		C261.5,140.9,262.6,143.1,262.6,144.6L262.6,144.6z M262.6,144.6"/>
	<path d="M213.9,105.1c1.3-2.5,2.2-5.1,2.4-7.9c0.2-1-0.5-1-0.6-0.3c-1.8,6.9-11.3,5-11-1.5c0.3-5.2,5.5-6.4,8.2-4.6
		c1.1,0.6,1,0.3,0.4-0.4c-4-4.5-1.6-10.3,3.9-10.4c5.9,0.3,7.4,6.5,3.8,10.2c-0.4,0.4-1.4,1.8,0.1,0.9c3.6-2.6,8.7,0.2,8.6,4.2
		c-0.2,7.4-9.2,7.9-11.1,1.8c-0.2-0.7-0.7-1-0.6,0.1c0.3,2.1,0.8,5.3,2.4,8H213.9z M213.9,105.1"/>
	<path d="M235.5,61.4c1.3-2.5,2.2-5.1,2.4-7.9c0.2-1-0.5-1-0.6-0.3c-1.8,6.9-11.3,5-11-1.5c0.3-5.2,5.5-6.4,8.2-4.6
		c1.1,0.6,1,0.3,0.4-0.4c-4-4.5-1.6-10.3,3.9-10.4c5.9,0.3,7.4,6.5,3.8,10.2c-0.4,0.4-1.4,1.8,0.1,0.9c3.6-2.6,8.7,0.2,8.6,4.2
		c-0.2,7.4-9.2,7.9-11.1,1.8c-0.2-0.7-0.7-1-0.6,0.1c0.3,2.1,0.8,5.3,2.4,8H235.5z M235.5,61.4"/>
	<path d="M192.1,61.4c1.3-2.5,2.2-5.1,2.4-7.9c0.2-1-0.5-1-0.6-0.3c-1.8,6.9-11.3,5-11-1.5c0.3-5.2,5.5-6.4,8.2-4.6
		c1.1,0.6,1,0.3,0.4-0.4c-4-4.5-1.6-10.3,3.9-10.4c5.9,0.3,7.4,6.5,3.8,10.2c-0.4,0.4-1.4,1.8,0.1,0.9c3.6-2.6,8.7,0.2,8.6,4.2
		c-0.2,7.4-9.2,7.9-11.1,1.8c-0.2-0.7-0.7-1-0.6,0.1c0.3,2.1,0.8,5.3,2.4,8H192.1z M192.1,61.4"/>
	<path d="M242,122.8c-1.3,2.5-2.2,5.1-2.4,7.9c-0.2,1,0.5,1,0.6,0.3c1.8-6.9,11.3-5,11,1.5c-0.3,5.2-5.5,6.4-8.2,4.6
		c-1.1-0.6-1-0.3-0.4,0.4c4,4.5,1.6,10.3-3.9,10.4c-5.9-0.4-7.4-6.5-3.8-10.2c0.4-0.4,1.4-1.8-0.1-0.9c-3.6,2.6-8.7-0.2-8.6-4.2
		c0.2-7.4,9.2-7.9,11.1-1.8c0.2,0.7,0.7,1,0.6-0.1c-0.3-2.1-0.8-5.3-2.4-8H242z M242,122.8"/>
	<path d="M198.6,122.8c-1.3,2.5-2.2,5.1-2.4,7.9c-0.2,1,0.5,1,0.6,0.3c1.8-6.9,11.3-5,11,1.5c-0.3,5.2-5.5,6.4-8.2,4.6
		c-1.1-0.6-1-0.3-0.4,0.4c4,4.5,1.6,10.3-3.9,10.4c-5.9-0.4-7.4-6.5-3.8-10.2c0.4-0.4,1.4-1.8-0.1-0.9c-3.6,2.6-8.7-0.2-8.6-4.2
		c0.2-7.4,9.2-7.9,11.1-1.8c0.2,0.7,0.7,1,0.6-0.1c-0.3-2.1-0.8-5.3-2.4-8H198.6z M198.6,122.8"/>
	<path d="M174.2,56.9c0.5-1.1,1-2.1,1.3-3.3c0.2-1.1-0.2-0.7-0.4,0c-0.3,1-1.2,1.5-2,1.5c-1.5,0-2.2-1.1-2.2-2.4
		c-0.2-1.3,1.2-2.3,2.2-2.2c0.8,0.1,1.4,0.5,1.8,0.8c0.3,0.1,0.5,0.2,0.2-0.2c-0.7-0.8-1.4-1.3-1.3-2.5c0-1.1,1-2.3,2.3-2.3
		c1.6,0,2.3,1.3,2.3,2.4c0,0.8-0.4,1.6-1.1,2.1c-0.4,0.3-0.3,0.6,0.2,0.3c0.5-0.4,1-0.6,1.6-0.6c1.5,0,2.1,1.3,2,2.5
		c-0.1,1.2-1.1,2.3-2.4,2.2c-1.2-0.1-1.8-1.1-2.1-2.1c-0.1-0.3-0.3-0.4-0.3,0.1c0.3,2.2,1.1,3.6,1.1,3.6H174.2z M174.2,56.9"/>
	<path d="M259.9,128.2c-0.5,1.1-1,2.1-1.3,3.3c-0.2,1.1,0.2,0.7,0.4,0c0.3-1,1.2-1.5,2-1.5c1.5,0,2.2,1.1,2.2,2.4
		c0.2,1.3-1.2,2.3-2.2,2.2c-0.8-0.1-1.4-0.5-1.8-0.8c-0.3-0.1-0.5-0.2-0.2,0.2c0.7,0.8,1.4,1.3,1.3,2.5c0,1.1-1,2.3-2.3,2.3
		c-1.6,0-2.3-1.3-2.3-2.4c0-0.8,0.4-1.6,1.1-2.1c0.4-0.3,0.3-0.6-0.2-0.3c-0.5,0.4-1,0.6-1.6,0.6c-1.5,0-2.1-1.3-2-2.5
		c0.1-1.2,1.1-2.3,2.4-2.2c1.2,0.1,1.8,1.1,2.1,2.1c0.1,0.3,0.3,0.4,0.3-0.1c-0.3-2.2-1.1-3.6-1.1-3.6H259.9z M259.9,128.2"/>
	<g>
		<defs>
			<rect id="SVGID_1_" x="149.6" y="5.6" width="134.8" height="174.4"/>
		</defs>
		<clipPath id="SVGID_10_">
			<use xlink:href="#SVGID_1_"  overflow="visible"/>
		</clipPath>
		<path clip-path="url(#SVGID_10_)" fill="none" stroke="#000000" stroke-width="0.2" d="M167.8,21.5V5.9 M165.6,23.7H150
			 M266.4,21.5V5.9 M268.6,23.7h15.6 M167.8,163.5v15.6 M165.6,161.3H150 M266.4,163.5v15.6 M268.6,161.3h15.6"/>
	</g>
</g>
<g>
	<g>
		<path fill="#FFFFFF" d="M20.1,23.4c-1.8-0.9-3.1-1.2-5-0.7c-0.2,0-1.1,0.3-0.8,0.7c0.4,0.4,0.9,0.9,1.3,1.3
			c0.3,0.3,2.1-0.2,1.9-0.6c-0.9-1.6-3.7-1.5-5.3-1.6c-2.6-0.1-5.3,0-7.8,0.6c-0.1,0-1.3,0.6-0.7,0.7c3.3,0.6,6.7,0.1,10,0.7
			c0.5,0.1,2.1-0.7,1.6-0.8c-3.3-0.6-6.7-0.1-10-0.7c-0.2,0.2-0.5,0.5-0.7,0.7c2.2-0.5,9.6-1.6,10.9,0.9c0.6-0.2,1.2-0.4,1.9-0.6
			c-0.4-0.4-0.9-0.9-1.3-1.3c-0.3,0.2-0.5,0.4-0.8,0.7c1,0.2,2,0.5,3,0.7C18.8,24.3,20.4,23.5,20.1,23.4L20.1,23.4z"/>
	</g>
</g>
<g>
	<g>
		<path fill="#FFFFFF" d="M22.5,20c0-0.2,0-0.4,0-0.5c0-1-2-0.7-2,0.2c0,0.6,0,1.3,0,1.9c0,1,2,0.7,2-0.2c0-5.6,0-11.1,0-16.7
			c0-1-2-0.7-2,0.2c0,5.6,0,11.1,0,16.7c0,1,2,0.7,2-0.2c0-0.6,0-1.3,0-1.9c0-1-2-0.7-2,0.2c0,0.2,0,0.4,0,0.5
			C20.6,21.1,22.5,20.8,22.5,20L22.5,20z"/>
	</g>
</g>
<g>
	<g>
		<path fill="#FFFFFF" d="M61.1,19.3c0.1-5.3,0.9-10.5-0.7-15.7c-0.5-1.6-8.2,0.5-7.7,2.1c1.5,5.1,0.7,10.4,0.7,15.7
			C53.4,22.5,61.1,21.5,61.1,19.3L61.1,19.3z"/>
	</g>
</g>
<g>
	<g>
		<path fill="#FFFFFF" d="M94.4,19.3c-0.9-4.8-0.3-9.7-0.3-14.6c0-3.9-7.8-2.7-7.8,0.6c0,5.4-0.6,10.7,0.4,16
			C87.3,24.9,95.1,22.9,94.4,19.3L94.4,19.3z"/>
	</g>
</g>
<g>
	<g>
		<path fill="#FFFFFF" d="M16.5,26.1c0.4,0,0.9,0,1.3,0c1.8,0,4.1-0.5,5.1-2.2c1-1.7-0.8-2.5-2.2-2.7c-5.1-0.6-10.2-0.7-15.3-0.7
			c-1.8,0-4.1,0.5-5.1,2.2c-0.9,1.6,0.8,2.7,2.2,2.7c5.1,0,10.2,0,15.3,0.7c1-1.6,1.9-3.3,2.9-4.9c-0.4,0-0.9,0-1.3,0
			c-1.8,0-4.1,0.5-5.1,2.2C13.3,25,15,26.1,16.5,26.1L16.5,26.1z"/>
	</g>
</g>
<g>
	<g>
		<path fill="#FFFFFF" d="M124.1,19.8c1.1-4.8,0.5-10-0.3-14.8c-0.4-2.4-8.2-0.6-7.7,2.1c0.7,4.5,1.3,9.3,0.3,13.8
			C115.8,23.6,123.5,22.3,124.1,19.8L124.1,19.8z"/>
	</g>
</g>
<g>
	<g>
		<path fill="#FFFFFF" d="M137.4,18c-0.2-4.5,0.3-9,0.3-13.5c0-3.1-7.7-1.5-7.7,1c0,4.9-0.6,9.7-0.3,14.5
			C129.8,22.5,137.6,20.9,137.4,18L137.4,18z"/>
	</g>
</g>
<g>
	<g>
		<path fill="#FFFFFF" d="M159.8,19.3c-0.4-5.3-1.3-10.6-1.3-16c0-1.5-7.8-0.2-7.7,2.1c0.1,5.4,1,10.7,1.3,16
			C152.1,23,159.9,21.6,159.8,19.3L159.8,19.3z"/>
	</g>
</g>
<g>
	<g>
		<path fill="#FFFFFF" d="M171.1,19c0.1-4.3,1.5-8.4,1.7-12.7c0-1.4-7.4-0.2-7.7,1.7c-0.6,4.6,0.2,9.1-0.4,13.7
			c2.6-0.7,5.2-1.4,7.7-2.1c-1.2-5.5-1-11.1-1-16.7c0-1.4-7.7-0.3-7.7,2.1c0,5.6-0.2,11.2,1,16.7c0.4,1.9,7.5-0.2,7.7-2.1
			c0.5-4.3-0.3-8.7,0.3-13c-2.6,0.6-5.1,1.1-7.7,1.7c-0.2,4.3-1.5,8.4-1.7,12.7C163.3,22.4,171,21.4,171.1,19L171.1,19z"/>
	</g>
</g>
<g>
	<g>
		<path fill="#FFFFFF" d="M193.1,19.2c0.4-5.9,0.3-12-0.7-17.9c-0.5-2.8-8.2-0.9-7.7,2.1c1,5.5,1,11.2,0.7,16.8
			C185.1,23.4,192.9,21.9,193.1,19.2L193.1,19.2z"/>
	</g>
</g>
<g>
	<g>
		<path fill="#FFFFFF" d="M236.1,18c-0.3-4.9-0.3-9.8-0.3-14.7c0-2.1-7.7-0.8-7.7,2.1c0,4.9,0,9.8,0.3,14.7
			C228.5,22.3,236.3,20.8,236.1,18L236.1,18z"/>
	</g>
</g>
<g>
	<g>
		<path fill="#FFFFFF" d="M270.1,19.7c-0.9-5.4-0.7-10.9-0.7-16.3c0-1.2-7.7-0.1-7.7,2.1c0,5.5-0.3,10.9,0.7,16.3
			C262.6,23.3,270.4,21.6,270.1,19.7L270.1,19.7z"/>
	</g>
</g>
<g>
	<g>
		<path fill="#FFFFFF" d="M266.8,24.9c5.1,1.9,9.9,0.3,15,1.2c1.8,0.3,4-0.2,5.5-1.5c1.2-1,0.9-2.4-0.7-2.7
			c-4.4-0.8-9.4,0.8-13.6-0.8c-1.8-0.7-3.9-0.2-5.5,0.7C266.6,22.5,265,24.2,266.8,24.9L266.8,24.9z"/>
	</g>
</g>
<g>
	<g>
		<path fill="#FFFFFF" d="M269.8,163.7c4.4,0,8.9,0,13.3,0c1.8,0,4.1-0.5,5.1-2.3c0.8-1.6-0.7-2.9-2.3-2.9c-4.4,0-8.9,0-13.3,0
			c-1.8,0-4.1,0.5-5.1,2.3C266.7,162.3,268.3,163.7,269.8,163.7L269.8,163.7z"/>
	</g>
</g>
<g>
	<g>
		<path fill="#FFFFFF" d="M262,166.8c0,0,0,0.1,0,0.1c0,3.7,7.8,2.2,7.8-0.8c0-0.4,0-0.8,0-1.2c0-3.7-7.8-2.2-7.8,0.8
			c0,4.8,0,9.6,0.7,14.4c0.4,3.1,8.2,1.2,7.7-2.1c-0.6-4.4-0.6-8.7-0.6-13.1c0-3.7-7.8-2.2-7.8,0.8c0,0.4,0,0.8,0,1.2
			c0,3.7,7.8,2.2,7.8-0.8c0,0,0-0.1,0-0.1C269.8,162.3,262,163.8,262,166.8L262,166.8z"/>
	</g>
</g>
<g>
	<g>
		<path fill="#FFFFFF" d="M228.4,165.1c0.2,5.1-0.8,10.2-0.3,15.3c0.3,2.6,8,0.9,7.7-2.1c-0.5-5.1,0.5-10.2,0.3-15.3
			C236,160.5,228.2,162.1,228.4,165.1L228.4,165.1z"/>
	</g>
</g>
<g>
	<g>
		<path fill="#FFFFFF" d="M185,166.1c0.6,4.6,0.4,9.3,1,14c0.5,3.7,8.2,1.7,7.7-2.1c-0.6-4.6-0.4-9.3-1-14
			C192.3,160.3,184.6,162.3,185,166.1L185,166.1z"/>
	</g>
</g>
<g>
	<g>
		<path fill="#FFFFFF" d="M163.7,166.1c0.3,1.7,0.3,3.3,0.3,5c2.6-0.7,5.2-1.4,7.7-2.1c-0.3-1.8-0.7-3.6-1-5.3
			c-0.3-1.4-7.6,0.3-7.7,2.1c-0.2,4.6,0.9,9.1,1.3,13.7c0.1,1.2,7.9-0.2,7.7-2.1c-0.4-4.6-1.5-9-1.3-13.7c-2.6,0.7-5.2,1.4-7.7,2.1
			c0.3,1.8,0.7,3.6,1,5.3c0.3,1.3,7.7-0.3,7.7-2.1c0-1.7-0.1-3.3-0.3-5C171.2,162.7,163.4,164.4,163.7,166.1L163.7,166.1z"/>
	</g>
</g>
<g>
	<g>
		<path fill="#FFFFFF" d="M152,165.7c0.6,4.9,0.4,9.8,0.3,14.7c0,1.9,7.7,0.6,7.7-2.1c0-4.9,0.3-9.8-0.3-14.7
			C159.5,161.5,151.7,163.2,152,165.7L152,165.7z"/>
	</g>
</g>
<g>
	<g>
		<path fill="#FFFFFF" d="M129.4,166.1c1.4,4.7,1.3,9.9,0.7,14.8c-0.4,3.2,7.4,1.8,7.7-0.9c0.7-5.2,0.9-10.9-0.7-15.9
			C136.2,161.2,128.5,163.3,129.4,166.1L129.4,166.1z"/>
	</g>
</g>
<g>
	<g>
		<path fill="#FFFFFF" d="M123.7,164.3c0.1-0.4,0.3-0.8,0.3-1.2c0.2-1.3-6.7,0.9-7.3,1.4c-1.5,1.2-0.2,4.9-0.1,6.6
			c0.2,3,0.1,6-0.3,8.9c-0.1,0.7,7.5,0.1,7.7-2.1c0.3-2.2,0.4-4.4,0.3-6.6c0-1.1-0.1-2.3-0.2-3.4c0-0.4-0.6-4.2-0.6-4.2
			c-2.4,0.5-4.9,0.9-7.3,1.4c-0.1,0.2-0.2,0.4-0.2,0.6C115.8,167,123.2,166.1,123.7,164.3L123.7,164.3z"/>
	</g>
</g>
<g>
	<g>
		<path fill="#FFFFFF" d="M86.7,166.4c0.7,3.8,0.6,7.8,0.6,11.7c0,3.8,7.8,2.5,7.8-0.7c0-4.3,0.1-8.7-0.7-13
			C93.8,161,86.1,163,86.7,166.4L86.7,166.4z"/>
	</g>
</g>
<g>
	<g>
		<path fill="#FFFFFF" d="M53,166.4c0.7,4.3,0.7,8.7,0.7,13c0,2.4,7.7,0.9,7.7-2.1c0-4.3,0-8.7-0.7-13
			C60.3,161.7,52.6,163.6,53,166.4L53,166.4z"/>
	</g>
</g>
<g>
	<g>
		<path fill="#FFFFFF" d="M17.4,166.4c1.7,3.8,1,8.9,0.3,12.8c-0.5,2.9,7.3,1.5,7.7-1c0.7-4.2,1.4-9.8-0.3-13.9
			C24,161.7,16.4,164.1,17.4,166.4L17.4,166.4z"/>
	</g>
</g>
<g>
	<g>
		<path fill="#FFFFFF" d="M22.4,159.8c-5-1.7-10.3-1.2-15.5-1.1c-1.7,0-4,0.7-5.2,1.9c-1.3,1.3,1.1,1.5,1.9,1.5
			c4.2,0,8.4-0.5,12.5,0.9c1.6,0.6,4-0.2,5.4-0.9C22.3,161.6,24,160.4,22.4,159.8L22.4,159.8z"/>
	</g>
</g>
</svg>
